%TF.GenerationSoftware,KiCad,Pcbnew,10.0.6*%
%TF.CreationDate,2026-09-14T15:27:06+01:00*%
%TF.ProjectId,cheetoPet,63686565-746f-4506-9574-2e6b69636164,rev?*%
%TF.SameCoordinates,Original*%
%TF.FileFunction,Profile,NP*%
%FSLAX46Y46*%
G04 Gerber Fmt 4.6, Leading zero omitted, Abs format (unit mm)*
G04 Created by KiCad (PCBNEW 10.0.6) date 2026-09-14 15:27:06*
%MOMM*%
%LPD*%
G01*
G04 APERTURE LIST*
%TA.AperFunction,Profile*%
%ADD10C,0.050000*%
%TD*%
G04 APERTURE END LIST*
D10*
X81050000Y-92500000D02*
G75*
G02*
X81650000Y-91900000I600000J0D01*
G01*
X81050000Y-106200000D02*
X81050000Y-92500000D01*
X81050000Y-108400000D02*
G75*
G02*
X81650000Y-107800000I600000J0D01*
G01*
X81070000Y-186500000D02*
X81050000Y-108400000D01*
X81650000Y-106800000D02*
G75*
G02*
X81050000Y-106200000I0J600000D01*
G01*
X81650000Y-107800000D02*
X81650000Y-106800000D01*
X81650000Y-187100345D02*
G75*
G02*
X81070000Y-186500000I0J580345D01*
G01*
X82150000Y-106800000D02*
X82750000Y-106800000D01*
X82150000Y-107800000D02*
X82150000Y-106800000D01*
X82750000Y-106800000D02*
X82750000Y-107800000D01*
X82750000Y-107800000D02*
X82150000Y-107800000D01*
X83350000Y-106800000D02*
X83950000Y-106800000D01*
X83350000Y-107800000D02*
X83350000Y-106800000D01*
X85900000Y-184300000D02*
G75*
G02*
X81900000Y-184300000I-2000000J0D01*
G01*
X81900000Y-184300000D02*
G75*
G02*
X85900000Y-184300000I2000000J0D01*
G01*
X83950000Y-106800000D02*
X83950000Y-107800000D01*
X83950000Y-107800000D02*
X83350000Y-107800000D01*
X84550000Y-106800000D02*
X85150000Y-106800000D01*
X84550000Y-107800000D02*
X84550000Y-106800000D01*
X85150000Y-106800000D02*
X85150000Y-107800000D01*
X85150000Y-107800000D02*
X84550000Y-107800000D01*
X85650000Y-106800000D02*
X86250000Y-106800000D01*
X85650000Y-107800000D02*
X85650000Y-106800000D01*
X86250000Y-106800000D02*
X86250000Y-107800000D01*
X86250000Y-107800000D02*
X85650000Y-107800000D01*
X86800000Y-106800000D02*
X87400000Y-106800000D01*
X86800000Y-107800000D02*
X86800000Y-106800000D01*
X87400000Y-106800000D02*
X87400000Y-107800000D01*
X87400000Y-107800000D02*
X86800000Y-107800000D01*
X88000000Y-106800000D02*
X88600000Y-106800000D01*
X88000000Y-107800000D02*
X88000000Y-106800000D01*
X88600000Y-106800000D02*
X88600000Y-107800000D01*
X88600000Y-107800000D02*
X88000000Y-107800000D01*
X89200000Y-106800000D02*
X89800000Y-106800000D01*
X89200000Y-107800000D02*
X89200000Y-106800000D01*
X89800000Y-106800000D02*
X89800000Y-107800000D01*
X89800000Y-107800000D02*
X89200000Y-107800000D01*
X90250000Y-106800000D02*
X90850000Y-106800000D01*
X90250000Y-107800000D02*
X90250000Y-106800000D01*
X90850000Y-106800000D02*
X90850000Y-107800000D01*
X90850000Y-107800000D02*
X90250000Y-107800000D01*
X91400000Y-106800000D02*
X92000000Y-106800000D01*
X91400000Y-107800000D02*
X91400000Y-106800000D01*
X92000000Y-106800000D02*
X92000000Y-107800000D01*
X92000000Y-107800000D02*
X91400000Y-107800000D01*
X92600000Y-106800000D02*
X93200000Y-106800000D01*
X92600000Y-107800000D02*
X92600000Y-106800000D01*
X94400000Y-105000000D02*
G75*
G02*
X92000000Y-105000000I-1200000J0D01*
G01*
X92000000Y-105000000D02*
G75*
G02*
X94400000Y-105000000I1200000J0D01*
G01*
X93200000Y-106800000D02*
X93200000Y-107800000D01*
X93200000Y-107800000D02*
X92600000Y-107800000D01*
X93800000Y-106800000D02*
X94400000Y-106800000D01*
X93800000Y-107800000D02*
X93800000Y-106800000D01*
X94300000Y-91900000D02*
X81650000Y-91900000D01*
X94300000Y-91900000D02*
G75*
G02*
X94900000Y-92500000I0J-600000D01*
G01*
X94400000Y-106800000D02*
X94400000Y-107800000D01*
X94400000Y-107800000D02*
X93800000Y-107800000D01*
X94900000Y-92500000D02*
X94900000Y-107800000D01*
X94900000Y-107800000D02*
X95700000Y-107800000D01*
X95700000Y-92500000D02*
X95700000Y-107800000D01*
X95700000Y-92500000D02*
G75*
G02*
X96300000Y-91900000I600000J0D01*
G01*
X96100000Y-106800000D02*
X96700000Y-106800000D01*
X96100000Y-107800000D02*
X96100000Y-106800000D01*
X96300000Y-91900000D02*
X108750000Y-91900000D01*
X96700000Y-106800000D02*
X96700000Y-107800000D01*
X96700000Y-107800000D02*
X96100000Y-107800000D01*
X97300000Y-106800000D02*
X97900000Y-106800000D01*
X97300000Y-107800000D02*
X97300000Y-106800000D01*
X97900000Y-106800000D02*
X97900000Y-107800000D01*
X97900000Y-107800000D02*
X97300000Y-107800000D01*
X98500000Y-106800000D02*
X99100000Y-106800000D01*
X98500000Y-107800000D02*
X98500000Y-106800000D01*
X99100000Y-106800000D02*
X99100000Y-107800000D01*
X99100000Y-107800000D02*
X98500000Y-107800000D01*
X99600000Y-106800000D02*
X100200000Y-106800000D01*
X99600000Y-107800000D02*
X99600000Y-106800000D01*
X100200000Y-106800000D02*
X100200000Y-107800000D01*
X100200000Y-107800000D02*
X99600000Y-107800000D01*
X100750000Y-106800000D02*
X101350000Y-106800000D01*
X100750000Y-107800000D02*
X100750000Y-106800000D01*
X101350000Y-106800000D02*
X101350000Y-107800000D01*
X101350000Y-107800000D02*
X100750000Y-107800000D01*
X101950000Y-106800000D02*
X102550000Y-106800000D01*
X101950000Y-107800000D02*
X101950000Y-106800000D01*
X102550000Y-106800000D02*
X102550000Y-107800000D01*
X102550000Y-107800000D02*
X101950000Y-107800000D01*
X103150000Y-106800000D02*
X103750000Y-106800000D01*
X103150000Y-107800000D02*
X103150000Y-106800000D01*
X103750000Y-106800000D02*
X103750000Y-107800000D01*
X103750000Y-107800000D02*
X103150000Y-107800000D01*
X104200000Y-106800000D02*
X104800000Y-106800000D01*
X104200000Y-107800000D02*
X104200000Y-106800000D01*
X104800000Y-106800000D02*
X104800000Y-107800000D01*
X104800000Y-107800000D02*
X104200000Y-107800000D01*
X105350000Y-106800000D02*
X105950000Y-106800000D01*
X105350000Y-107800000D02*
X105350000Y-106800000D01*
X105950000Y-106800000D02*
X105950000Y-107800000D01*
X105950000Y-107800000D02*
X105350000Y-107800000D01*
X106550000Y-106800000D02*
X107150000Y-106800000D01*
X106550000Y-107800000D02*
X106550000Y-106800000D01*
X107150000Y-106800000D02*
X107150000Y-107800000D01*
X107150000Y-107800000D02*
X106550000Y-107800000D01*
X107750000Y-106800000D02*
X108350000Y-106800000D01*
X107750000Y-107800000D02*
X107750000Y-106800000D01*
X109000000Y-104900000D02*
G75*
G02*
X106600000Y-104900000I-1200000J0D01*
G01*
X106600000Y-104900000D02*
G75*
G02*
X109000000Y-104900000I1200000J0D01*
G01*
X108350000Y-106800000D02*
X108350000Y-107800000D01*
X108350000Y-107800000D02*
X107750000Y-107800000D01*
X108750000Y-91900000D02*
X108950000Y-91900000D01*
X108950000Y-91900000D02*
G75*
G02*
X109550000Y-92500000I0J-600000D01*
G01*
X108950000Y-106800000D02*
X108950000Y-107800000D01*
X108950000Y-107800000D02*
X130650000Y-107780000D01*
X109550000Y-92500000D02*
X109550000Y-106200000D01*
X109550000Y-106200000D02*
G75*
G02*
X108950000Y-106800000I-600000J0D01*
G01*
X130400000Y-184300000D02*
G75*
G02*
X126400000Y-184300000I-2000000J0D01*
G01*
X126400000Y-184300000D02*
G75*
G02*
X130400000Y-184300000I2000000J0D01*
G01*
X130650000Y-107780000D02*
G75*
G02*
X131250000Y-108380000I0J-600000D01*
G01*
X130650000Y-187100000D02*
X81650000Y-187100000D01*
X131250000Y-108380000D02*
X131250000Y-186500000D01*
X131250000Y-186500000D02*
G75*
G02*
X130650000Y-187100000I-600000J0D01*
G01*
M02*
