%TF.GenerationSoftware,KiCad,Pcbnew,10.0.4*%
%TF.CreationDate,2026-06-30T15:19:27+01:00*%
%TF.ProjectId,cheetoPet,63686565-746f-4506-9574-2e6b69636164,rev?*%
%TF.SameCoordinates,Original*%
%TF.FileFunction,Legend,Top*%
%TF.FilePolarity,Positive*%
%FSLAX46Y46*%
G04 Gerber Fmt 4.6, Leading zero omitted, Abs format (unit mm)*
G04 Created by KiCad (PCBNEW 10.0.4) date 2026-06-30 15:19:27*
%MOMM*%
%LPD*%
G01*
G04 APERTURE LIST*
%ADD10C,0.100000*%
%ADD11C,0.150000*%
%ADD12C,0.250000*%
%ADD13C,0.060000*%
%ADD14R,0.900000X1.000000*%
%ADD15R,1.700000X0.550000*%
%ADD16C,1.100000*%
%ADD17C,0.800000*%
%ADD18C,0.650000*%
%ADD19O,1.000000X1.800000*%
%ADD20O,1.000000X2.100000*%
G04 APERTURE END LIST*
D10*
G36*
X168937484Y-66682396D02*
G01*
X169413025Y-66693387D01*
X169889909Y-66704256D01*
X170337362Y-66701569D01*
X170784815Y-66698761D01*
X170819712Y-66708108D01*
X170830000Y-66732955D01*
X170825969Y-66794504D01*
X170821817Y-66855931D01*
X170825969Y-66922853D01*
X170830000Y-66989776D01*
X170821700Y-67013578D01*
X170788234Y-67048516D01*
X169597062Y-67943300D01*
X169462606Y-68051255D01*
X169471259Y-68059885D01*
X169518782Y-68064933D01*
X170151859Y-68058094D01*
X170784815Y-68051255D01*
X170820477Y-68059260D01*
X170830000Y-68078611D01*
X170825969Y-68149685D01*
X170821817Y-68220638D01*
X170825969Y-68293789D01*
X170830000Y-68366817D01*
X170822651Y-68393077D01*
X170802644Y-68401011D01*
X170348963Y-68386723D01*
X169893817Y-68372435D01*
X169297009Y-68384647D01*
X168960321Y-68398324D01*
X168942491Y-68399668D01*
X168927711Y-68393459D01*
X168920631Y-68366939D01*
X168915136Y-68227599D01*
X168906221Y-68155181D01*
X168899504Y-68084106D01*
X168905625Y-68070984D01*
X168935774Y-68041730D01*
X170222323Y-67079902D01*
X170283872Y-67026657D01*
X170208119Y-67020279D01*
X170020579Y-67017131D01*
X169485931Y-67030076D01*
X168952505Y-67043021D01*
X168916842Y-67035016D01*
X168907320Y-67015666D01*
X168911472Y-66941294D01*
X168915502Y-66866800D01*
X168911472Y-66789008D01*
X168907320Y-66711095D01*
X168914738Y-66689689D01*
X168937484Y-66682396D01*
G37*
G36*
X170824938Y-64708890D02*
G01*
X170830000Y-64735170D01*
X170825969Y-64811008D01*
X170821817Y-64886845D01*
X170825969Y-64964636D01*
X170830000Y-65042550D01*
X170818835Y-65061450D01*
X170765539Y-65091828D01*
X170623004Y-65140247D01*
X170486111Y-65190292D01*
X170429680Y-65229549D01*
X170415764Y-65261147D01*
X170412955Y-65524930D01*
X170412955Y-65740718D01*
X170415764Y-65997539D01*
X170428854Y-66022137D01*
X170484177Y-66055728D01*
X170623614Y-66102075D01*
X170768209Y-66146994D01*
X170819959Y-66172956D01*
X170830000Y-66187438D01*
X170830000Y-66494940D01*
X170824640Y-66516125D01*
X170810826Y-66522173D01*
X170749399Y-66503122D01*
X169832756Y-66168387D01*
X169193817Y-65911444D01*
X168929790Y-65807641D01*
X168887319Y-65787857D01*
X168878011Y-65772103D01*
X168884849Y-65695655D01*
X168890706Y-65630076D01*
X169301528Y-65630076D01*
X169963320Y-65880753D01*
X170065642Y-65912909D01*
X170087591Y-65904672D01*
X170105448Y-65875526D01*
X170117421Y-65809106D01*
X170118764Y-65675139D01*
X170118764Y-65534455D01*
X170108695Y-65403401D01*
X170087992Y-65351767D01*
X170063321Y-65339061D01*
X169995141Y-65356444D01*
X169708681Y-65462037D01*
X169301528Y-65630076D01*
X168890706Y-65630076D01*
X168891688Y-65619085D01*
X168884239Y-65544713D01*
X168876667Y-65471562D01*
X168884818Y-65460321D01*
X168928813Y-65437368D01*
X169753011Y-65113625D01*
X170813635Y-64702442D01*
X170824938Y-64708890D01*
G37*
G36*
X169597550Y-63042323D02*
G01*
X169643483Y-63054930D01*
X169795859Y-63123259D01*
X170159919Y-63310135D01*
X170790432Y-63648900D01*
X170821713Y-63672340D01*
X170830000Y-63693963D01*
X170830000Y-63968614D01*
X170822313Y-63985492D01*
X170790432Y-64006838D01*
X170178970Y-64332047D01*
X169709033Y-64571157D01*
X169613914Y-64606699D01*
X169289804Y-64599127D01*
X168965694Y-64591555D01*
X168926042Y-64582169D01*
X168915136Y-64558827D01*
X168919288Y-64482990D01*
X168923318Y-64407152D01*
X168919288Y-64332047D01*
X168915136Y-64256821D01*
X168922023Y-64232794D01*
X168941025Y-64225435D01*
X169274173Y-64239846D01*
X169608419Y-64254134D01*
X169680660Y-64233601D01*
X169908162Y-64124703D01*
X170438478Y-63830617D01*
X169998841Y-63587473D01*
X169670895Y-63426343D01*
X169577034Y-63397574D01*
X169259030Y-63404413D01*
X168942491Y-63411130D01*
X168922186Y-63403848D01*
X168915136Y-63381088D01*
X168919288Y-63304518D01*
X168923318Y-63229413D01*
X168919288Y-63155041D01*
X168915136Y-63080547D01*
X168921883Y-63056621D01*
X168941025Y-63046353D01*
X168992927Y-63047819D01*
X169295300Y-63045132D01*
X169597550Y-63042323D01*
G37*
X137500000Y-50000000D02*
X137500000Y-87500000D01*
X137500000Y-87500000D02*
X167500000Y-87500000D01*
X167500000Y-50000000D02*
X137500000Y-50000000D01*
X167500000Y-62500000D02*
X167500000Y-50000000D01*
X167500000Y-87500000D02*
X167500000Y-68750000D01*
G36*
X160863080Y-49079803D02*
G01*
X160860837Y-49166683D01*
X160856913Y-49191849D01*
X160834305Y-49235215D01*
X160746271Y-49371123D01*
X160649764Y-49505046D01*
X160623295Y-49531286D01*
X160609121Y-49533942D01*
X160565897Y-49535377D01*
X160505814Y-49531286D01*
X160479737Y-49507285D01*
X160380822Y-49377229D01*
X160290001Y-49245578D01*
X160265357Y-49202046D01*
X160253794Y-49153123D01*
X160248931Y-49069117D01*
X160250275Y-48985342D01*
X160251679Y-48901505D01*
X160255434Y-48890240D01*
X160266700Y-48886484D01*
X160333989Y-48888560D01*
X160401339Y-48890575D01*
X160410438Y-48893865D01*
X160413612Y-48904192D01*
X160410864Y-48968611D01*
X160408117Y-49033030D01*
X160409910Y-49094391D01*
X160414955Y-49147519D01*
X160428073Y-49180978D01*
X160484259Y-49274220D01*
X160533310Y-49344335D01*
X160556475Y-49370023D01*
X160565897Y-49374970D01*
X160583170Y-49361370D01*
X160640392Y-49276235D01*
X160690688Y-49187034D01*
X160703223Y-49154358D01*
X160707036Y-49114011D01*
X160708718Y-49036816D01*
X160704261Y-48969222D01*
X160699804Y-48901505D01*
X160702368Y-48893812D01*
X160710062Y-48891247D01*
X160776313Y-48888866D01*
X160841892Y-48886484D01*
X160849661Y-48894544D01*
X160858382Y-48940608D01*
X160863080Y-49079803D01*
G37*
G36*
X161571751Y-49403974D02*
G01*
X161569675Y-49465279D01*
X161567659Y-49527194D01*
X161562749Y-49537946D01*
X161545128Y-49542215D01*
X161480526Y-49536720D01*
X161266386Y-49531286D01*
X161119840Y-49533362D01*
X160972623Y-49535438D01*
X160959705Y-49531899D01*
X160952839Y-49521638D01*
X160935132Y-49422720D01*
X160941893Y-49416520D01*
X160982942Y-49406233D01*
X161030909Y-49394667D01*
X161049865Y-49385106D01*
X161142296Y-49296841D01*
X161236405Y-49190017D01*
X161296218Y-49109107D01*
X161331790Y-49047830D01*
X161349528Y-49001956D01*
X161354558Y-48967695D01*
X161348932Y-48928700D01*
X161332415Y-48895077D01*
X161303999Y-48865357D01*
X161270933Y-48844578D01*
X161234605Y-48832126D01*
X161194029Y-48827866D01*
X161133725Y-48833630D01*
X161072396Y-48851313D01*
X161031284Y-48869838D01*
X160989048Y-48894300D01*
X160953511Y-48917747D01*
X160946000Y-48921655D01*
X160941125Y-48915553D01*
X160937818Y-48897842D01*
X160933727Y-48850886D01*
X160920559Y-48799910D01*
X160919378Y-48800511D01*
X160929636Y-48787200D01*
X160989761Y-48749457D01*
X161070381Y-48717041D01*
X161152286Y-48697305D01*
X161226147Y-48691090D01*
X161308093Y-48698177D01*
X161376206Y-48718108D01*
X161433143Y-48749831D01*
X161473509Y-48786419D01*
X161501867Y-48829002D01*
X161519253Y-48878754D01*
X161525344Y-48937592D01*
X161519013Y-48983376D01*
X161497514Y-49040031D01*
X161455817Y-49110816D01*
X161387482Y-49199212D01*
X161284887Y-49308963D01*
X161200868Y-49398417D01*
X161245259Y-49399761D01*
X161383780Y-49395796D01*
X161551967Y-49382786D01*
X161557401Y-49382053D01*
X161567649Y-49386800D01*
X161571751Y-49403974D01*
G37*
G36*
X161844020Y-49430596D02*
G01*
X161840618Y-49459439D01*
X161830593Y-49485417D01*
X161813612Y-49509304D01*
X161791542Y-49528185D01*
X161766924Y-49539244D01*
X161738813Y-49543009D01*
X161710787Y-49539141D01*
X161686301Y-49527766D01*
X161664380Y-49508266D01*
X161642919Y-49472684D01*
X161635681Y-49430596D01*
X161639025Y-49401323D01*
X161648764Y-49375614D01*
X161665051Y-49352622D01*
X161686388Y-49334588D01*
X161710645Y-49323922D01*
X161738813Y-49320260D01*
X161767463Y-49323963D01*
X161792187Y-49334751D01*
X161813978Y-49352988D01*
X161830708Y-49376203D01*
X161840634Y-49401802D01*
X161844020Y-49430596D01*
G37*
G36*
X162371770Y-48700385D02*
G01*
X162431473Y-48716071D01*
X162486078Y-48741836D01*
X162536460Y-48778129D01*
X162583160Y-48826034D01*
X162627454Y-48890404D01*
X162659035Y-48960333D01*
X162678317Y-49036917D01*
X162684948Y-49121568D01*
X162678326Y-49206176D01*
X162659058Y-49282860D01*
X162627478Y-49353012D01*
X162583160Y-49417713D01*
X162536351Y-49466473D01*
X162485913Y-49503344D01*
X162431310Y-49529478D01*
X162371666Y-49545370D01*
X162305822Y-49550825D01*
X162240275Y-49545379D01*
X162180838Y-49529505D01*
X162126362Y-49503384D01*
X162075978Y-49466508D01*
X162029156Y-49417713D01*
X161984475Y-49352634D01*
X161952693Y-49282340D01*
X161933338Y-49205773D01*
X161926696Y-49121568D01*
X162089301Y-49121568D01*
X162095635Y-49190078D01*
X162113940Y-49250462D01*
X162143950Y-49304323D01*
X162178029Y-49342886D01*
X162215749Y-49369343D01*
X162257887Y-49385168D01*
X162305822Y-49390602D01*
X162351876Y-49385184D01*
X162393360Y-49369220D01*
X162431512Y-49342179D01*
X162467023Y-49302308D01*
X162498911Y-49246618D01*
X162517953Y-49186811D01*
X162524420Y-49121568D01*
X162518002Y-49053068D01*
X162499471Y-48992906D01*
X162469099Y-48939424D01*
X162435156Y-48901988D01*
X162397273Y-48876137D01*
X162354630Y-48860584D01*
X162305822Y-48855221D01*
X162257016Y-48860594D01*
X162214509Y-48876160D01*
X162176873Y-48902008D01*
X162143279Y-48939424D01*
X162113783Y-48991958D01*
X162095634Y-49052070D01*
X162089301Y-49121568D01*
X161926696Y-49121568D01*
X161933357Y-49037310D01*
X161952738Y-48960962D01*
X161984520Y-48891123D01*
X162029156Y-48826706D01*
X162075904Y-48778489D01*
X162126250Y-48742005D01*
X162180728Y-48716133D01*
X162240205Y-48700399D01*
X162305822Y-48694998D01*
X162371770Y-48700385D01*
G37*
G36*
X141151926Y-101884818D02*
G01*
X141174878Y-101928813D01*
X141498622Y-102753011D01*
X141909805Y-103813635D01*
X141903357Y-103824938D01*
X141877077Y-103830000D01*
X141801239Y-103825969D01*
X141725402Y-103821817D01*
X141647610Y-103825969D01*
X141569697Y-103830000D01*
X141550797Y-103818835D01*
X141520419Y-103765539D01*
X141472000Y-103623004D01*
X141421954Y-103486111D01*
X141382698Y-103429680D01*
X141351100Y-103415764D01*
X141087317Y-103412955D01*
X140871529Y-103412955D01*
X140614707Y-103415764D01*
X140590110Y-103428854D01*
X140556519Y-103484177D01*
X140510171Y-103623614D01*
X140465253Y-103768209D01*
X140439291Y-103819959D01*
X140424809Y-103830000D01*
X140117307Y-103830000D01*
X140096122Y-103824640D01*
X140090074Y-103810826D01*
X140109125Y-103749399D01*
X140358816Y-103065642D01*
X140699338Y-103065642D01*
X140707574Y-103087591D01*
X140736721Y-103105448D01*
X140803141Y-103117421D01*
X140937108Y-103118764D01*
X141077792Y-103118764D01*
X141208846Y-103108695D01*
X141260480Y-103087992D01*
X141273186Y-103063321D01*
X141255803Y-102995141D01*
X141150210Y-102708681D01*
X140982171Y-102301528D01*
X140731493Y-102963320D01*
X140699338Y-103065642D01*
X140358816Y-103065642D01*
X140443860Y-102832756D01*
X140700803Y-102193817D01*
X140804606Y-101929790D01*
X140824390Y-101887319D01*
X140840144Y-101878011D01*
X140916592Y-101884849D01*
X140993162Y-101891688D01*
X141067534Y-101884239D01*
X141140684Y-101876667D01*
X141151926Y-101884818D01*
G37*
G36*
X153230775Y-103812414D02*
G01*
X153224690Y-103823743D01*
X153200733Y-103828656D01*
X152980792Y-103830000D01*
X152963084Y-103830000D01*
X152926037Y-103788183D01*
X152725192Y-103497585D01*
X152524820Y-103201501D01*
X152501099Y-103170544D01*
X152459031Y-103222664D01*
X152261497Y-103513583D01*
X152068494Y-103794560D01*
X152033985Y-103830000D01*
X151807205Y-103830000D01*
X151782765Y-103823868D01*
X151775820Y-103808140D01*
X151775820Y-103611280D01*
X151806780Y-103555931D01*
X152035694Y-103244916D01*
X152264257Y-102933856D01*
X152295569Y-102877208D01*
X152263727Y-102817481D01*
X152037038Y-102503394D01*
X151807776Y-102189402D01*
X151778507Y-102138984D01*
X151778507Y-101928691D01*
X151785874Y-101915383D01*
X151815387Y-101909518D01*
X151930181Y-101912327D01*
X152044976Y-101915013D01*
X152095534Y-101975708D01*
X152483880Y-102558593D01*
X152507083Y-102578377D01*
X152543435Y-102534429D01*
X152743266Y-102239490D01*
X152942557Y-101950841D01*
X152976762Y-101915136D01*
X153192551Y-101915136D01*
X153220912Y-101920912D01*
X153228088Y-101934187D01*
X153228088Y-102144480D01*
X153195305Y-102207416D01*
X152970045Y-102516828D01*
X152740490Y-102825704D01*
X152712125Y-102872690D01*
X152741826Y-102924967D01*
X152971389Y-103243572D01*
X153200302Y-103562196D01*
X153230775Y-103617142D01*
X153230775Y-103812414D01*
G37*
G36*
X163687492Y-101916479D02*
G01*
X164055077Y-101917822D01*
X164244058Y-101931216D01*
X164394117Y-101967899D01*
X164512788Y-102024190D01*
X164603225Y-102097437D01*
X164666957Y-102186446D01*
X164706401Y-102294258D01*
X164720395Y-102426092D01*
X164707415Y-102519491D01*
X164665684Y-102621730D01*
X164603516Y-102712797D01*
X164533183Y-102774993D01*
X164493615Y-102809064D01*
X164499543Y-102817448D01*
X164533183Y-102839106D01*
X164597325Y-102882894D01*
X164652692Y-102938693D01*
X164699878Y-103007878D01*
X164735166Y-103084069D01*
X164755890Y-103160941D01*
X164762771Y-103239542D01*
X164753445Y-103356478D01*
X164726311Y-103462337D01*
X164681810Y-103559097D01*
X164619278Y-103648283D01*
X164537275Y-103727463D01*
X164447107Y-103782603D01*
X164346978Y-103815872D01*
X164234107Y-103827313D01*
X163971058Y-103823161D01*
X163708130Y-103819009D01*
X163514690Y-103824504D01*
X163321494Y-103830000D01*
X163295610Y-103821931D01*
X163287300Y-103798614D01*
X163301588Y-103347620D01*
X163312611Y-102999574D01*
X163628751Y-102999574D01*
X163628751Y-103225132D01*
X163631438Y-103376318D01*
X163634247Y-103528970D01*
X163646144Y-103538147D01*
X163721686Y-103549609D01*
X163981194Y-103556448D01*
X164125789Y-103548542D01*
X164225366Y-103528346D01*
X164291382Y-103500027D01*
X164343590Y-103457597D01*
X164381873Y-103400683D01*
X164406610Y-103325841D01*
X164415702Y-103227819D01*
X164405757Y-103148341D01*
X164377987Y-103086439D01*
X164332754Y-103037876D01*
X164266836Y-103000917D01*
X164159053Y-102973846D01*
X163973012Y-102962449D01*
X163724906Y-102970702D01*
X163643003Y-102986003D01*
X163628751Y-102999574D01*
X163312611Y-102999574D01*
X163315876Y-102896503D01*
X163302839Y-102462484D01*
X163628751Y-102462484D01*
X163630095Y-102559204D01*
X163631560Y-102657267D01*
X163645336Y-102672172D01*
X163720004Y-102688193D01*
X163940283Y-102696713D01*
X164100280Y-102686775D01*
X164212806Y-102661032D01*
X164289484Y-102624147D01*
X164339481Y-102578425D01*
X164368693Y-102523349D01*
X164378821Y-102455645D01*
X164367352Y-102364862D01*
X164335316Y-102294233D01*
X164283064Y-102238882D01*
X164206752Y-102196870D01*
X164086101Y-102169315D01*
X163866522Y-102157424D01*
X163704368Y-102164584D01*
X163648018Y-102178230D01*
X163637056Y-102191496D01*
X163632903Y-102326318D01*
X163628751Y-102462484D01*
X163302839Y-102462484D01*
X163301588Y-102420840D01*
X163287300Y-101945177D01*
X163295489Y-101922969D01*
X163321494Y-101915136D01*
X163687492Y-101916479D01*
G37*
G36*
X144105531Y-47629839D02*
G01*
X144058270Y-47828592D01*
X144009739Y-47962780D01*
X143992874Y-47982648D01*
X143807310Y-47904612D01*
X143710839Y-47875428D01*
X143603428Y-47865411D01*
X143443580Y-47886364D01*
X143305358Y-47947511D01*
X143183209Y-48051158D01*
X143089658Y-48182804D01*
X143034154Y-48327553D01*
X143015231Y-48489879D01*
X143034129Y-48649298D01*
X143089585Y-48791294D01*
X143183209Y-48920357D01*
X143307888Y-49025591D01*
X143446235Y-49087181D01*
X143603428Y-49108119D01*
X143738532Y-49092291D01*
X143873988Y-49043639D01*
X143988014Y-48984394D01*
X143990859Y-48979159D01*
X144011399Y-49002752D01*
X144050210Y-49150983D01*
X144080984Y-49365856D01*
X144065774Y-49397735D01*
X144001528Y-49438308D01*
X143841199Y-49490786D01*
X143652432Y-49531466D01*
X143544077Y-49541894D01*
X143339694Y-49521870D01*
X143155408Y-49463331D01*
X142986769Y-49366009D01*
X142830766Y-49226271D01*
X142705562Y-49064230D01*
X142617441Y-48889969D01*
X142564149Y-48700698D01*
X142545918Y-48492627D01*
X142564003Y-48279804D01*
X142616570Y-48088400D01*
X142702904Y-47914386D01*
X142824721Y-47754769D01*
X142978369Y-47617531D01*
X143146405Y-47521444D01*
X143332012Y-47463332D01*
X143539864Y-47443360D01*
X143727069Y-47459610D01*
X143900953Y-47507511D01*
X144064498Y-47587341D01*
X144097865Y-47612999D01*
X144105531Y-47629839D01*
G37*
G36*
X146149477Y-49423375D02*
G01*
X146136648Y-49483429D01*
X146106429Y-49499030D01*
X145913721Y-49497015D01*
X145721014Y-49495000D01*
X145683881Y-49479614D01*
X145669906Y-49427405D01*
X145677050Y-49130284D01*
X145684194Y-48831147D01*
X145677050Y-48545566D01*
X145669906Y-48257604D01*
X145653877Y-48116384D01*
X145611218Y-48017037D01*
X145545117Y-47948310D01*
X145451804Y-47904936D01*
X145321494Y-47888859D01*
X145203956Y-47912384D01*
X145026387Y-48001516D01*
X144904645Y-48092199D01*
X144847535Y-48163812D01*
X144831665Y-48222800D01*
X144831665Y-49439678D01*
X144819741Y-49485712D01*
X144788617Y-49499030D01*
X144597924Y-49497015D01*
X144407415Y-49495000D01*
X144372738Y-49481892D01*
X144360337Y-49439678D01*
X144360337Y-48449396D01*
X144333776Y-47420279D01*
X144298788Y-46698541D01*
X144294758Y-46665751D01*
X144301438Y-46636666D01*
X144319304Y-46622704D01*
X144373274Y-46614128D01*
X144550846Y-46609331D01*
X144679990Y-46592662D01*
X144805103Y-46575809D01*
X144824152Y-46584401D01*
X144831665Y-46615010D01*
X144816277Y-47198628D01*
X144800890Y-47782063D01*
X144806444Y-47821984D01*
X144817376Y-47831706D01*
X145087936Y-47616467D01*
X145226062Y-47545633D01*
X145366658Y-47504080D01*
X145512003Y-47490254D01*
X145703956Y-47507230D01*
X145850097Y-47553258D01*
X145960726Y-47624015D01*
X146042865Y-47719598D01*
X146095941Y-47837230D01*
X146133099Y-48008862D01*
X146147462Y-48251926D01*
X146144348Y-48447564D01*
X146141234Y-48643203D01*
X146145264Y-49034296D01*
X146149477Y-49423375D01*
G37*
G36*
X147571000Y-47461396D02*
G01*
X147737965Y-47513898D01*
X147889226Y-47600759D01*
X148027643Y-47724911D01*
X148137797Y-47868856D01*
X148215844Y-48025767D01*
X148263357Y-48198344D01*
X148279702Y-48390228D01*
X148264308Y-48481934D01*
X148221479Y-48547046D01*
X148148544Y-48592278D01*
X147942641Y-48622255D01*
X146880007Y-48709515D01*
X146912873Y-48823025D01*
X146977514Y-48925939D01*
X147078760Y-49020924D01*
X147192793Y-49089852D01*
X147309461Y-49129962D01*
X147431202Y-49143290D01*
X147640341Y-49120643D01*
X147837047Y-49053026D01*
X148025628Y-48937759D01*
X148091024Y-48885369D01*
X148112640Y-48889399D01*
X148189393Y-49030633D01*
X148261201Y-49178094D01*
X148228411Y-49224806D01*
X148067817Y-49363049D01*
X147888319Y-49461078D01*
X147686099Y-49521081D01*
X147455749Y-49541894D01*
X147220912Y-49522635D01*
X147020069Y-49467892D01*
X146847126Y-49380090D01*
X146697558Y-49258695D01*
X146576188Y-49108862D01*
X146488506Y-48936153D01*
X146433910Y-48736146D01*
X146414725Y-48502885D01*
X146430386Y-48316222D01*
X146873779Y-48316222D01*
X146888947Y-48345376D01*
X146947601Y-48357805D01*
X147264847Y-48344946D01*
X147673003Y-48301568D01*
X147774677Y-48280074D01*
X147791888Y-48264016D01*
X147777358Y-48158929D01*
X147733719Y-48061971D01*
X147657615Y-47970008D01*
X147562178Y-47897603D01*
X147462392Y-47855863D01*
X147355365Y-47841964D01*
X147235577Y-47857889D01*
X147125034Y-47905594D01*
X147020325Y-47988326D01*
X146937084Y-48092706D01*
X146889525Y-48200911D01*
X146873779Y-48316222D01*
X146430386Y-48316222D01*
X146432019Y-48296763D01*
X146482676Y-48107788D01*
X146566463Y-47932562D01*
X146685285Y-47768508D01*
X146838939Y-47623837D01*
X147004397Y-47523730D01*
X147184615Y-47463806D01*
X147384124Y-47443360D01*
X147571000Y-47461396D01*
G37*
G36*
X149593331Y-47461396D02*
G01*
X149760295Y-47513898D01*
X149911557Y-47600759D01*
X150049974Y-47724911D01*
X150160128Y-47868856D01*
X150238174Y-48025767D01*
X150285688Y-48198344D01*
X150302033Y-48390228D01*
X150286638Y-48481934D01*
X150243810Y-48547046D01*
X150170874Y-48592278D01*
X149964972Y-48622255D01*
X148902338Y-48709515D01*
X148935204Y-48823025D01*
X148999845Y-48925939D01*
X149101091Y-49020924D01*
X149215124Y-49089852D01*
X149331792Y-49129962D01*
X149453533Y-49143290D01*
X149662672Y-49120643D01*
X149859377Y-49053026D01*
X150047959Y-48937759D01*
X150113355Y-48885369D01*
X150134971Y-48889399D01*
X150211724Y-49030633D01*
X150283531Y-49178094D01*
X150250742Y-49224806D01*
X150090148Y-49363049D01*
X149910649Y-49461078D01*
X149708430Y-49521081D01*
X149478079Y-49541894D01*
X149243243Y-49522635D01*
X149042399Y-49467892D01*
X148869457Y-49380090D01*
X148719889Y-49258695D01*
X148598518Y-49108862D01*
X148510837Y-48936153D01*
X148456241Y-48736146D01*
X148437055Y-48502885D01*
X148452717Y-48316222D01*
X148896110Y-48316222D01*
X148911278Y-48345376D01*
X148969932Y-48357805D01*
X149287178Y-48344946D01*
X149695333Y-48301568D01*
X149797008Y-48280074D01*
X149814219Y-48264016D01*
X149799688Y-48158929D01*
X149756049Y-48061971D01*
X149679946Y-47970008D01*
X149584509Y-47897603D01*
X149484723Y-47855863D01*
X149377696Y-47841964D01*
X149257908Y-47857889D01*
X149147365Y-47905594D01*
X149042656Y-47988326D01*
X148959415Y-48092706D01*
X148911856Y-48200911D01*
X148896110Y-48316222D01*
X148452717Y-48316222D01*
X148454350Y-48296763D01*
X148505006Y-48107788D01*
X148588793Y-47932562D01*
X148707615Y-47768508D01*
X148861269Y-47623837D01*
X149026727Y-47523730D01*
X149206946Y-47463806D01*
X149406455Y-47443360D01*
X149593331Y-47461396D01*
G37*
G36*
X151730121Y-49111050D02*
G01*
X151721877Y-49237629D01*
X151709604Y-49366406D01*
X151703559Y-49412934D01*
X151664541Y-49440778D01*
X151548689Y-49479815D01*
X151378058Y-49507633D01*
X151135695Y-49518447D01*
X150977073Y-49504017D01*
X150859154Y-49465241D01*
X150772295Y-49406017D01*
X150710152Y-49326023D01*
X150670597Y-49220792D01*
X150656124Y-49082473D01*
X150664367Y-48557107D01*
X150672610Y-48031741D01*
X150662808Y-47983297D01*
X150636152Y-47954604D01*
X150588530Y-47941249D01*
X150439053Y-47939234D01*
X150411101Y-47906523D01*
X150396005Y-47772355D01*
X150404248Y-47648340D01*
X150422674Y-47610144D01*
X150469828Y-47589356D01*
X150570211Y-47587341D01*
X150625082Y-47575049D01*
X150654133Y-47548109D01*
X150664367Y-47503993D01*
X150659238Y-47255964D01*
X150654109Y-47005737D01*
X150663649Y-46909259D01*
X150684249Y-46868409D01*
X150711445Y-46857177D01*
X151096860Y-46915795D01*
X151132896Y-46930891D01*
X151143938Y-46960858D01*
X151130566Y-47231051D01*
X151117376Y-47501245D01*
X151131528Y-47546099D01*
X151172697Y-47560596D01*
X151664358Y-47560596D01*
X151691585Y-47567465D01*
X151699346Y-47585143D01*
X151692019Y-47663728D01*
X151684875Y-47744328D01*
X151686890Y-47838300D01*
X151689088Y-47932090D01*
X151676497Y-47959928D01*
X151631569Y-47970924D01*
X151383723Y-47959200D01*
X151135695Y-47947477D01*
X151124931Y-47962866D01*
X151111148Y-48064530D01*
X151100890Y-48472843D01*
X151100890Y-48778574D01*
X151110966Y-48941481D01*
X151133680Y-49024771D01*
X151176055Y-49082312D01*
X151240822Y-49118152D01*
X151336645Y-49131566D01*
X151523125Y-49102257D01*
X151705574Y-49072948D01*
X151723071Y-49081154D01*
X151730121Y-49111050D01*
G37*
G36*
X153091442Y-47486440D02*
G01*
X153275167Y-47543658D01*
X153442211Y-47638395D01*
X153595647Y-47773820D01*
X153719655Y-47931545D01*
X153807159Y-48102713D01*
X153860254Y-48290242D01*
X153878481Y-48498122D01*
X153860386Y-48707233D01*
X153807650Y-48896292D01*
X153720739Y-49069200D01*
X153597663Y-49228836D01*
X153443875Y-49367089D01*
X153276413Y-49463647D01*
X153092168Y-49521908D01*
X152886549Y-49541894D01*
X152679747Y-49521977D01*
X152494793Y-49463984D01*
X152327066Y-49368018D01*
X152173421Y-49230851D01*
X152050414Y-49072289D01*
X151963505Y-48900134D01*
X151910727Y-48711471D01*
X151892603Y-48502336D01*
X152325096Y-48502336D01*
X152342750Y-48660679D01*
X152394355Y-48801481D01*
X152480801Y-48928967D01*
X152600515Y-49036186D01*
X152733992Y-49098632D01*
X152886549Y-49119842D01*
X153040357Y-49098528D01*
X153173769Y-49035997D01*
X153292298Y-48928967D01*
X153377556Y-48801617D01*
X153428533Y-48660804D01*
X153445988Y-48502336D01*
X153428351Y-48341174D01*
X153377219Y-48200441D01*
X153292298Y-48075521D01*
X153175262Y-47971241D01*
X153041908Y-47909891D01*
X152886549Y-47888859D01*
X152730972Y-47909662D01*
X152596905Y-47970380D01*
X152478786Y-48073506D01*
X152393795Y-48199679D01*
X152342691Y-48341122D01*
X152325096Y-48502336D01*
X151892603Y-48502336D01*
X151910727Y-48293200D01*
X151963505Y-48104537D01*
X152050414Y-47932382D01*
X152173421Y-47773820D01*
X152327814Y-47638439D01*
X152495847Y-47543687D01*
X152680601Y-47486447D01*
X152886549Y-47466807D01*
X153091442Y-47486440D01*
G37*
G36*
X155685657Y-46642227D02*
G01*
X155880186Y-46700148D01*
X156053216Y-46794880D01*
X156208374Y-46928618D01*
X156332176Y-47086897D01*
X156420406Y-47262474D01*
X156474491Y-47458765D01*
X156493223Y-47680397D01*
X156475299Y-47919139D01*
X156424517Y-48123008D01*
X156343623Y-48297920D01*
X156232921Y-48448480D01*
X156089437Y-48575526D01*
X155921222Y-48667217D01*
X155723363Y-48724466D01*
X155489018Y-48744685D01*
X155135477Y-48735526D01*
X154779920Y-48726184D01*
X154744283Y-48735065D01*
X154722868Y-48760710D01*
X154714341Y-48810631D01*
X154727713Y-49138344D01*
X154741085Y-49466057D01*
X154731660Y-49492133D01*
X154702068Y-49501228D01*
X154571825Y-49491885D01*
X154441766Y-49482543D01*
X154333139Y-49488771D01*
X154226710Y-49495000D01*
X154189160Y-49480207D01*
X154175419Y-49431435D01*
X154194836Y-48757875D01*
X154214254Y-48082116D01*
X154209019Y-47782247D01*
X154700053Y-47782247D01*
X154705182Y-48038702D01*
X154710311Y-48295157D01*
X154718668Y-48309439D01*
X154755374Y-48323733D01*
X154916020Y-48338353D01*
X155380391Y-48346081D01*
X155563948Y-48324834D01*
X155709989Y-48265318D01*
X155827172Y-48168944D01*
X155907868Y-48048269D01*
X155958621Y-47898887D01*
X155976832Y-47713004D01*
X155956829Y-47515704D01*
X155900748Y-47355503D01*
X155810869Y-47224457D01*
X155718706Y-47142208D01*
X155610991Y-47082970D01*
X155484641Y-47046053D01*
X155335328Y-47033032D01*
X154999189Y-47049335D01*
X154751234Y-47070812D01*
X154714341Y-47081941D01*
X154706401Y-47170622D01*
X154700053Y-47782247D01*
X154209019Y-47782247D01*
X154202908Y-47432138D01*
X154167176Y-46710265D01*
X154165161Y-46679490D01*
X154176589Y-46646473D01*
X154218467Y-46634427D01*
X154551492Y-46636442D01*
X154886532Y-46638457D01*
X155175410Y-46630397D01*
X155464472Y-46622154D01*
X155685657Y-46642227D01*
G37*
G36*
X157814545Y-47461396D02*
G01*
X157981510Y-47513898D01*
X158132771Y-47600759D01*
X158271188Y-47724911D01*
X158381342Y-47868856D01*
X158459389Y-48025767D01*
X158506902Y-48198344D01*
X158523247Y-48390228D01*
X158507853Y-48481934D01*
X158465024Y-48547046D01*
X158392089Y-48592278D01*
X158186186Y-48622255D01*
X157123552Y-48709515D01*
X157156418Y-48823025D01*
X157221059Y-48925939D01*
X157322305Y-49020924D01*
X157436338Y-49089852D01*
X157553006Y-49129962D01*
X157674747Y-49143290D01*
X157883887Y-49120643D01*
X158080592Y-49053026D01*
X158269173Y-48937759D01*
X158334569Y-48885369D01*
X158356185Y-48889399D01*
X158432938Y-49030633D01*
X158504746Y-49178094D01*
X158471956Y-49224806D01*
X158311362Y-49363049D01*
X158131864Y-49461078D01*
X157929644Y-49521081D01*
X157699294Y-49541894D01*
X157464457Y-49522635D01*
X157263614Y-49467892D01*
X157090671Y-49380090D01*
X156941103Y-49258695D01*
X156819733Y-49108862D01*
X156732051Y-48936153D01*
X156677455Y-48736146D01*
X156658270Y-48502885D01*
X156673931Y-48316222D01*
X157117324Y-48316222D01*
X157132492Y-48345376D01*
X157191146Y-48357805D01*
X157508392Y-48344946D01*
X157916548Y-48301568D01*
X158018222Y-48280074D01*
X158035433Y-48264016D01*
X158020903Y-48158929D01*
X157977264Y-48061971D01*
X157901160Y-47970008D01*
X157805723Y-47897603D01*
X157705937Y-47855863D01*
X157598910Y-47841964D01*
X157479122Y-47857889D01*
X157368579Y-47905594D01*
X157263870Y-47988326D01*
X157180629Y-48092706D01*
X157133070Y-48200911D01*
X157117324Y-48316222D01*
X156673931Y-48316222D01*
X156675564Y-48296763D01*
X156726221Y-48107788D01*
X156810008Y-47932562D01*
X156928830Y-47768508D01*
X157082484Y-47623837D01*
X157247942Y-47523730D01*
X157428160Y-47463806D01*
X157627669Y-47443360D01*
X157814545Y-47461396D01*
G37*
G36*
X159951335Y-49111050D02*
G01*
X159943092Y-49237629D01*
X159930818Y-49366406D01*
X159924773Y-49412934D01*
X159885756Y-49440778D01*
X159769903Y-49479815D01*
X159599272Y-49507633D01*
X159356909Y-49518447D01*
X159198288Y-49504017D01*
X159080368Y-49465241D01*
X158993510Y-49406017D01*
X158931366Y-49326023D01*
X158891811Y-49220792D01*
X158877338Y-49082473D01*
X158885581Y-48557107D01*
X158893824Y-48031741D01*
X158884022Y-47983297D01*
X158857367Y-47954604D01*
X158809744Y-47941249D01*
X158660267Y-47939234D01*
X158632315Y-47906523D01*
X158617219Y-47772355D01*
X158625463Y-47648340D01*
X158643888Y-47610144D01*
X158691042Y-47589356D01*
X158791426Y-47587341D01*
X158846297Y-47575049D01*
X158875347Y-47548109D01*
X158885581Y-47503993D01*
X158880452Y-47255964D01*
X158875323Y-47005737D01*
X158884863Y-46909259D01*
X158905463Y-46868409D01*
X158932659Y-46857177D01*
X159318074Y-46915795D01*
X159354111Y-46930891D01*
X159365152Y-46960858D01*
X159351780Y-47231051D01*
X159338591Y-47501245D01*
X159352742Y-47546099D01*
X159393912Y-47560596D01*
X159885572Y-47560596D01*
X159912799Y-47567465D01*
X159920560Y-47585143D01*
X159913233Y-47663728D01*
X159906089Y-47744328D01*
X159908104Y-47838300D01*
X159910302Y-47932090D01*
X159897711Y-47959928D01*
X159852783Y-47970924D01*
X159604937Y-47959200D01*
X159356909Y-47947477D01*
X159346146Y-47962866D01*
X159332362Y-48064530D01*
X159322104Y-48472843D01*
X159322104Y-48778574D01*
X159332180Y-48941481D01*
X159354894Y-49024771D01*
X159397269Y-49082312D01*
X159462036Y-49118152D01*
X159557860Y-49131566D01*
X159744339Y-49102257D01*
X159926788Y-49072948D01*
X159944285Y-49081154D01*
X159951335Y-49111050D01*
G37*
D11*
X151699999Y-96991200D02*
X151785714Y-97019771D01*
X151785714Y-97019771D02*
X151928571Y-97019771D01*
X151928571Y-97019771D02*
X151985714Y-96991200D01*
X151985714Y-96991200D02*
X152014285Y-96962628D01*
X152014285Y-96962628D02*
X152042856Y-96905485D01*
X152042856Y-96905485D02*
X152042856Y-96848342D01*
X152042856Y-96848342D02*
X152014285Y-96791200D01*
X152014285Y-96791200D02*
X151985714Y-96762628D01*
X151985714Y-96762628D02*
X151928571Y-96734057D01*
X151928571Y-96734057D02*
X151814285Y-96705485D01*
X151814285Y-96705485D02*
X151757142Y-96676914D01*
X151757142Y-96676914D02*
X151728571Y-96648342D01*
X151728571Y-96648342D02*
X151699999Y-96591200D01*
X151699999Y-96591200D02*
X151699999Y-96534057D01*
X151699999Y-96534057D02*
X151728571Y-96476914D01*
X151728571Y-96476914D02*
X151757142Y-96448342D01*
X151757142Y-96448342D02*
X151814285Y-96419771D01*
X151814285Y-96419771D02*
X151957142Y-96419771D01*
X151957142Y-96419771D02*
X152042856Y-96448342D01*
X152242857Y-96419771D02*
X152385714Y-97019771D01*
X152385714Y-97019771D02*
X152500000Y-96591200D01*
X152500000Y-96591200D02*
X152614285Y-97019771D01*
X152614285Y-97019771D02*
X152757143Y-96419771D01*
X153014285Y-97019771D02*
X153128571Y-97019771D01*
X153128571Y-97019771D02*
X153185714Y-96991200D01*
X153185714Y-96991200D02*
X153214285Y-96962628D01*
X153214285Y-96962628D02*
X153271428Y-96876914D01*
X153271428Y-96876914D02*
X153299999Y-96762628D01*
X153299999Y-96762628D02*
X153299999Y-96534057D01*
X153299999Y-96534057D02*
X153271428Y-96476914D01*
X153271428Y-96476914D02*
X153242857Y-96448342D01*
X153242857Y-96448342D02*
X153185714Y-96419771D01*
X153185714Y-96419771D02*
X153071428Y-96419771D01*
X153071428Y-96419771D02*
X153014285Y-96448342D01*
X153014285Y-96448342D02*
X152985714Y-96476914D01*
X152985714Y-96476914D02*
X152957142Y-96534057D01*
X152957142Y-96534057D02*
X152957142Y-96676914D01*
X152957142Y-96676914D02*
X152985714Y-96734057D01*
X152985714Y-96734057D02*
X153014285Y-96762628D01*
X153014285Y-96762628D02*
X153071428Y-96791200D01*
X153071428Y-96791200D02*
X153185714Y-96791200D01*
X153185714Y-96791200D02*
X153242857Y-96762628D01*
X153242857Y-96762628D02*
X153271428Y-96734057D01*
X153271428Y-96734057D02*
X153299999Y-96676914D01*
X163199999Y-96991200D02*
X163285714Y-97019771D01*
X163285714Y-97019771D02*
X163428571Y-97019771D01*
X163428571Y-97019771D02*
X163485714Y-96991200D01*
X163485714Y-96991200D02*
X163514285Y-96962628D01*
X163514285Y-96962628D02*
X163542856Y-96905485D01*
X163542856Y-96905485D02*
X163542856Y-96848342D01*
X163542856Y-96848342D02*
X163514285Y-96791200D01*
X163514285Y-96791200D02*
X163485714Y-96762628D01*
X163485714Y-96762628D02*
X163428571Y-96734057D01*
X163428571Y-96734057D02*
X163314285Y-96705485D01*
X163314285Y-96705485D02*
X163257142Y-96676914D01*
X163257142Y-96676914D02*
X163228571Y-96648342D01*
X163228571Y-96648342D02*
X163199999Y-96591200D01*
X163199999Y-96591200D02*
X163199999Y-96534057D01*
X163199999Y-96534057D02*
X163228571Y-96476914D01*
X163228571Y-96476914D02*
X163257142Y-96448342D01*
X163257142Y-96448342D02*
X163314285Y-96419771D01*
X163314285Y-96419771D02*
X163457142Y-96419771D01*
X163457142Y-96419771D02*
X163542856Y-96448342D01*
X163742857Y-96419771D02*
X163885714Y-97019771D01*
X163885714Y-97019771D02*
X164000000Y-96591200D01*
X164000000Y-96591200D02*
X164114285Y-97019771D01*
X164114285Y-97019771D02*
X164257143Y-96419771D01*
X164428571Y-96419771D02*
X164828571Y-96419771D01*
X164828571Y-96419771D02*
X164571428Y-97019771D01*
X140169239Y-97089916D02*
X140254954Y-97118487D01*
X140254954Y-97118487D02*
X140397811Y-97118487D01*
X140397811Y-97118487D02*
X140454954Y-97089916D01*
X140454954Y-97089916D02*
X140483525Y-97061344D01*
X140483525Y-97061344D02*
X140512096Y-97004201D01*
X140512096Y-97004201D02*
X140512096Y-96947058D01*
X140512096Y-96947058D02*
X140483525Y-96889916D01*
X140483525Y-96889916D02*
X140454954Y-96861344D01*
X140454954Y-96861344D02*
X140397811Y-96832773D01*
X140397811Y-96832773D02*
X140283525Y-96804201D01*
X140283525Y-96804201D02*
X140226382Y-96775630D01*
X140226382Y-96775630D02*
X140197811Y-96747058D01*
X140197811Y-96747058D02*
X140169239Y-96689916D01*
X140169239Y-96689916D02*
X140169239Y-96632773D01*
X140169239Y-96632773D02*
X140197811Y-96575630D01*
X140197811Y-96575630D02*
X140226382Y-96547058D01*
X140226382Y-96547058D02*
X140283525Y-96518487D01*
X140283525Y-96518487D02*
X140426382Y-96518487D01*
X140426382Y-96518487D02*
X140512096Y-96547058D01*
X140712097Y-96518487D02*
X140854954Y-97118487D01*
X140854954Y-97118487D02*
X140969240Y-96689916D01*
X140969240Y-96689916D02*
X141083525Y-97118487D01*
X141083525Y-97118487D02*
X141226383Y-96518487D01*
X141540668Y-96775630D02*
X141483525Y-96747058D01*
X141483525Y-96747058D02*
X141454954Y-96718487D01*
X141454954Y-96718487D02*
X141426382Y-96661344D01*
X141426382Y-96661344D02*
X141426382Y-96632773D01*
X141426382Y-96632773D02*
X141454954Y-96575630D01*
X141454954Y-96575630D02*
X141483525Y-96547058D01*
X141483525Y-96547058D02*
X141540668Y-96518487D01*
X141540668Y-96518487D02*
X141654954Y-96518487D01*
X141654954Y-96518487D02*
X141712097Y-96547058D01*
X141712097Y-96547058D02*
X141740668Y-96575630D01*
X141740668Y-96575630D02*
X141769239Y-96632773D01*
X141769239Y-96632773D02*
X141769239Y-96661344D01*
X141769239Y-96661344D02*
X141740668Y-96718487D01*
X141740668Y-96718487D02*
X141712097Y-96747058D01*
X141712097Y-96747058D02*
X141654954Y-96775630D01*
X141654954Y-96775630D02*
X141540668Y-96775630D01*
X141540668Y-96775630D02*
X141483525Y-96804201D01*
X141483525Y-96804201D02*
X141454954Y-96832773D01*
X141454954Y-96832773D02*
X141426382Y-96889916D01*
X141426382Y-96889916D02*
X141426382Y-97004201D01*
X141426382Y-97004201D02*
X141454954Y-97061344D01*
X141454954Y-97061344D02*
X141483525Y-97089916D01*
X141483525Y-97089916D02*
X141540668Y-97118487D01*
X141540668Y-97118487D02*
X141654954Y-97118487D01*
X141654954Y-97118487D02*
X141712097Y-97089916D01*
X141712097Y-97089916D02*
X141740668Y-97061344D01*
X141740668Y-97061344D02*
X141769239Y-97004201D01*
X141769239Y-97004201D02*
X141769239Y-96889916D01*
X141769239Y-96889916D02*
X141740668Y-96832773D01*
X141740668Y-96832773D02*
X141712097Y-96804201D01*
X141712097Y-96804201D02*
X141654954Y-96775630D01*
%TO.C,SW9*%
D12*
X150300000Y-99060000D02*
X150300000Y-99130000D01*
X150300000Y-99130000D02*
X150300000Y-98990000D01*
X151010000Y-97560000D02*
X151420000Y-97560000D01*
X151440000Y-98260000D02*
X153550000Y-98260000D01*
X151440000Y-99870000D02*
X151440000Y-98260000D01*
X153550000Y-98260000D02*
X153550000Y-99870000D01*
X153550000Y-99870000D02*
X151440000Y-99870000D01*
X153580000Y-97560000D02*
X153990000Y-97560000D01*
X153990000Y-100560000D02*
X151010000Y-100560000D01*
X154700000Y-99130000D02*
X154700000Y-98990000D01*
D11*
X154910000Y-97410000D02*
G75*
G02*
X154590000Y-97410000I-160000J0D01*
G01*
X154590000Y-97410000D02*
G75*
G02*
X154910000Y-97410000I160000J0D01*
G01*
D13*
X154830000Y-97660000D02*
G75*
G02*
X154770000Y-97660000I-30000J0D01*
G01*
X154770000Y-97660000D02*
G75*
G02*
X154830000Y-97660000I30000J0D01*
G01*
%TO.C,SW7*%
D12*
X161800000Y-99060000D02*
X161800000Y-99130000D01*
X161800000Y-99130000D02*
X161800000Y-98990000D01*
X162510000Y-97560000D02*
X162920000Y-97560000D01*
X162940000Y-98260000D02*
X165050000Y-98260000D01*
X162940000Y-99870000D02*
X162940000Y-98260000D01*
X165050000Y-98260000D02*
X165050000Y-99870000D01*
X165050000Y-99870000D02*
X162940000Y-99870000D01*
X165080000Y-97560000D02*
X165490000Y-97560000D01*
X165490000Y-100560000D02*
X162510000Y-100560000D01*
X166200000Y-99130000D02*
X166200000Y-98990000D01*
D11*
X166410000Y-97410000D02*
G75*
G02*
X166090000Y-97410000I-160000J0D01*
G01*
X166090000Y-97410000D02*
G75*
G02*
X166410000Y-97410000I160000J0D01*
G01*
D13*
X166330000Y-97660000D02*
G75*
G02*
X166270000Y-97660000I-30000J0D01*
G01*
X166270000Y-97660000D02*
G75*
G02*
X166330000Y-97660000I30000J0D01*
G01*
%TO.C,SW8*%
D12*
X138800000Y-99060000D02*
X138800000Y-99130000D01*
X138800000Y-99130000D02*
X138800000Y-98990000D01*
X139510000Y-97560000D02*
X139920000Y-97560000D01*
X139940000Y-98260000D02*
X142050000Y-98260000D01*
X139940000Y-99870000D02*
X139940000Y-98260000D01*
X142050000Y-98260000D02*
X142050000Y-99870000D01*
X142050000Y-99870000D02*
X139940000Y-99870000D01*
X142080000Y-97560000D02*
X142490000Y-97560000D01*
X142490000Y-100560000D02*
X139510000Y-100560000D01*
X143200000Y-99130000D02*
X143200000Y-98990000D01*
D11*
X143410000Y-97410000D02*
G75*
G02*
X143090000Y-97410000I-160000J0D01*
G01*
X143090000Y-97410000D02*
G75*
G02*
X143410000Y-97410000I160000J0D01*
G01*
D13*
X143330000Y-97660000D02*
G75*
G02*
X143270000Y-97660000I-30000J0D01*
G01*
X143270000Y-97660000D02*
G75*
G02*
X143330000Y-97660000I30000J0D01*
G01*
%TD*%
%LPC*%
D14*
%TO.C,SW9*%
X154550000Y-98260000D03*
X154550000Y-99860000D03*
X150450000Y-99860000D03*
X150450000Y-98260000D03*
D15*
X152500000Y-97640000D03*
%TD*%
D14*
%TO.C,SW7*%
X166050000Y-98260000D03*
X166050000Y-99860000D03*
X161950000Y-99860000D03*
X161950000Y-98260000D03*
D15*
X164000000Y-97640000D03*
%TD*%
D14*
%TO.C,SW8*%
X143050000Y-98260000D03*
X143050000Y-99860000D03*
X138950000Y-99860000D03*
X138950000Y-98260000D03*
D15*
X141000000Y-97640000D03*
%TD*%
D16*
%TO.C,U9*%
X167746476Y-67650000D03*
X167746476Y-63850000D03*
%TD*%
D17*
%TO.C,SW1*%
X135172500Y-69100013D03*
X135172500Y-67400013D03*
%TD*%
D18*
%TO.C,J2*%
X143890000Y-100895000D03*
X138110000Y-100895000D03*
D19*
X145320000Y-104575000D03*
D20*
X145320000Y-100375000D03*
D19*
X136680000Y-104575000D03*
D20*
X136680000Y-100375000D03*
%TD*%
%LPD*%
M02*
