%TF.GenerationSoftware,KiCad,Pcbnew,10.0.6*%
%TF.CreationDate,2026-09-14T15:27:06+01:00*%
%TF.ProjectId,cheetoPet,63686565-746f-4506-9574-2e6b69636164,rev?*%
%TF.SameCoordinates,Original*%
%TF.FileFunction,Soldermask,Bot*%
%TF.FilePolarity,Negative*%
%FSLAX46Y46*%
G04 Gerber Fmt 4.6, Leading zero omitted, Abs format (unit mm)*
G04 Created by KiCad (PCBNEW 10.0.6) date 2026-09-14 15:27:06*
%MOMM*%
%LPD*%
G01*
G04 APERTURE LIST*
G04 Aperture macros list*
%AMRoundRect*
0 Rectangle with rounded corners*
0 $1 Rounding radius*
0 $2 $3 $4 $5 $6 $7 $8 $9 X,Y pos of 4 corners*
0 Add a 4 corners polygon primitive as box body*
4,1,4,$2,$3,$4,$5,$6,$7,$8,$9,$2,$3,0*
0 Add four circle primitives for the rounded corners*
1,1,$1+$1,$2,$3*
1,1,$1+$1,$4,$5*
1,1,$1+$1,$6,$7*
1,1,$1+$1,$8,$9*
0 Add four rect primitives between the rounded corners*
20,1,$1+$1,$2,$3,$4,$5,0*
20,1,$1+$1,$4,$5,$6,$7,0*
20,1,$1+$1,$6,$7,$8,$9,0*
20,1,$1+$1,$8,$9,$2,$3,0*%
%AMRotRect*
0 Rectangle, with rotation*
0 The origin of the aperture is its center*
0 $1 length*
0 $2 width*
0 $3 Rotation angle, in degrees counterclockwise*
0 Add horizontal line*
21,1,$1,$2,0,0,$3*%
%AMOutline5P*
0 Free polygon, 5 corners , with rotation*
0 The origin of the aperture is its center*
0 number of corners: always 5*
0 $1 to $10 corner X, Y*
0 $11 Rotation angle, in degrees counterclockwise*
0 create outline with 5 corners*
4,1,5,$1,$2,$3,$4,$5,$6,$7,$8,$9,$10,$1,$2,$11*%
%AMOutline6P*
0 Free polygon, 6 corners , with rotation*
0 The origin of the aperture is its center*
0 number of corners: always 6*
0 $1 to $12 corner X, Y*
0 $13 Rotation angle, in degrees counterclockwise*
0 create outline with 6 corners*
4,1,6,$1,$2,$3,$4,$5,$6,$7,$8,$9,$10,$11,$12,$1,$2,$13*%
%AMOutline7P*
0 Free polygon, 7 corners , with rotation*
0 The origin of the aperture is its center*
0 number of corners: always 7*
0 $1 to $14 corner X, Y*
0 $15 Rotation angle, in degrees counterclockwise*
0 create outline with 7 corners*
4,1,7,$1,$2,$3,$4,$5,$6,$7,$8,$9,$10,$11,$12,$13,$14,$1,$2,$15*%
%AMOutline8P*
0 Free polygon, 8 corners , with rotation*
0 The origin of the aperture is its center*
0 number of corners: always 8*
0 $1 to $16 corner X, Y*
0 $17 Rotation angle, in degrees counterclockwise*
0 create outline with 8 corners*
4,1,8,$1,$2,$3,$4,$5,$6,$7,$8,$9,$10,$11,$12,$13,$14,$15,$16,$1,$2,$17*%
%AMFreePoly0*
4,1,19,0.560322,0.685417,0.574967,0.650062,0.574967,-0.649961,0.560322,-0.685316,0.524967,-0.699961,-0.525018,-0.699961,-0.560373,-0.685316,-0.575018,-0.649961,-0.575018,0.000025,-0.561060,0.034680,-0.561035,0.034706,-0.525973,0.050041,-0.524993,0.050051,-0.174993,0.050051,-0.174993,0.650062,-0.160348,0.685417,-0.124993,0.700062,0.524967,0.700062,0.560322,0.685417,0.560322,0.685417,
$1*%
%AMFreePoly1*
4,1,18,0.160450,0.685417,0.175095,0.650062,0.175095,0.050051,0.525094,0.050051,0.560449,0.035406,0.560475,0.035380,0.575120,0.000025,0.575120,-0.649961,0.560475,-0.685316,0.525120,-0.699961,-0.524866,-0.699961,-0.560221,-0.685316,-0.574866,-0.649961,-0.574866,0.650062,-0.560221,0.685417,-0.524866,0.700062,0.125095,0.700062,0.160450,0.685417,0.160450,0.685417,$1*%
G04 Aperture macros list end*
%ADD10R,1.000000X1.500000*%
%ADD11RoundRect,0.250000X0.450000X-0.262500X0.450000X0.262500X-0.450000X0.262500X-0.450000X-0.262500X0*%
%ADD12R,2.000000X1.020000*%
%ADD13RoundRect,0.250000X0.250000X0.475000X-0.250000X0.475000X-0.250000X-0.475000X0.250000X-0.475000X0*%
%ADD14RoundRect,0.250000X0.475000X-0.250000X0.475000X0.250000X-0.475000X0.250000X-0.475000X-0.250000X0*%
%ADD15RoundRect,0.062500X-0.062500X0.325000X-0.062500X-0.325000X0.062500X-0.325000X0.062500X0.325000X0*%
%ADD16R,1.200000X0.800000*%
%ADD17RoundRect,0.250000X-0.475000X0.250000X-0.475000X-0.250000X0.475000X-0.250000X0.475000X0.250000X0*%
%ADD18C,1.100000*%
%ADD19R,1.524000X1.000000*%
%ADD20R,3.000000X1.000000*%
%ADD21RotRect,1.200000X1.280000X315.000000*%
%ADD22RotRect,1.200000X1.280000X225.000000*%
%ADD23RoundRect,0.250000X-0.450000X0.262500X-0.450000X-0.262500X0.450000X-0.262500X0.450000X0.262500X0*%
%ADD24RoundRect,0.250000X-0.250000X-0.475000X0.250000X-0.475000X0.250000X0.475000X-0.250000X0.475000X0*%
%ADD25O,1.865000X0.630000*%
%ADD26R,0.300000X0.600000*%
%ADD27R,0.300000X0.900000*%
%ADD28R,0.300000X1.300000*%
%ADD29R,1.500000X1.500000*%
%ADD30R,0.700000X1.524000*%
%ADD31RoundRect,0.250000X-0.262500X-0.450000X0.262500X-0.450000X0.262500X0.450000X-0.262500X0.450000X0*%
%ADD32RoundRect,0.062500X0.375000X0.062500X-0.375000X0.062500X-0.375000X-0.062500X0.375000X-0.062500X0*%
%ADD33RoundRect,0.062500X0.062500X0.375000X-0.062500X0.375000X-0.062500X-0.375000X0.062500X-0.375000X0*%
%ADD34R,1.600000X1.600000*%
%ADD35RoundRect,0.250000X0.262500X0.450000X-0.262500X0.450000X-0.262500X-0.450000X0.262500X-0.450000X0*%
%ADD36RoundRect,0.150000X0.512500X0.150000X-0.512500X0.150000X-0.512500X-0.150000X0.512500X-0.150000X0*%
%ADD37R,0.400000X0.800000*%
%ADD38R,0.800000X0.400000*%
%ADD39R,1.200000X1.200000*%
%ADD40Outline5P,-0.600000X0.600000X0.600000X0.600000X0.600000X-0.600000X-0.204000X-0.600000X-0.600000X-0.204000X90.000000*%
%ADD41R,0.800000X0.800000*%
%ADD42C,0.700000*%
%ADD43R,1.200000X0.600000*%
%ADD44FreePoly0,90.000000*%
%ADD45FreePoly1,90.000000*%
%ADD46R,1.020000X3.170000*%
%ADD47R,2.160000X1.635000*%
%ADD48C,0.650000*%
%ADD49RoundRect,0.150000X0.150000X0.470000X-0.150000X0.470000X-0.150000X-0.470000X0.150000X-0.470000X0*%
%ADD50RoundRect,0.075000X0.075000X0.545000X-0.075000X0.545000X-0.075000X-0.545000X0.075000X-0.545000X0*%
%ADD51O,1.000000X1.800000*%
%ADD52O,1.000000X2.100000*%
%ADD53R,0.977900X0.558800*%
%ADD54RoundRect,0.150000X-0.587500X-0.150000X0.587500X-0.150000X0.587500X0.150000X-0.587500X0.150000X0*%
%ADD55RoundRect,0.087500X0.225000X0.087500X-0.225000X0.087500X-0.225000X-0.087500X0.225000X-0.087500X0*%
%ADD56RoundRect,0.087500X0.087500X0.225000X-0.087500X0.225000X-0.087500X-0.225000X0.087500X-0.225000X0*%
%ADD57R,0.850000X1.700000*%
%ADD58R,0.280000X0.665000*%
%ADD59R,2.390000X0.590000*%
%ADD60RoundRect,0.250000X0.312500X1.450000X-0.312500X1.450000X-0.312500X-1.450000X0.312500X-1.450000X0*%
%ADD61R,1.300000X3.400000*%
G04 APERTURE END LIST*
D10*
%TO.C,SW1*%
X129750000Y-167050000D03*
X129750000Y-162750000D03*
X128150000Y-167050000D03*
X128150000Y-162750000D03*
%TD*%
D11*
%TO.C,R22*%
X113000000Y-142912500D03*
X113000000Y-141087500D03*
%TD*%
D12*
%TO.C,U2*%
X104697500Y-109320000D03*
X104697500Y-111860000D03*
X104697500Y-114400000D03*
X104697500Y-116940000D03*
X104697500Y-119480000D03*
%TD*%
D13*
%TO.C,C18*%
X124950000Y-128400000D03*
X123050000Y-128400000D03*
%TD*%
D11*
%TO.C,R16*%
X87400000Y-181012500D03*
X87400000Y-179187500D03*
%TD*%
D14*
%TO.C,C28*%
X117100000Y-146500000D03*
X117100000Y-144600000D03*
%TD*%
D15*
%TO.C,U5*%
X126000000Y-141600000D03*
X126500000Y-141600000D03*
X127000000Y-141600000D03*
X127500000Y-141600000D03*
X127500000Y-143575000D03*
X127000000Y-143575000D03*
X126500000Y-143575000D03*
X126000000Y-143575000D03*
D16*
X126750000Y-142587500D03*
%TD*%
D17*
%TO.C,C2*%
X127700000Y-176000000D03*
X127700000Y-177900000D03*
%TD*%
D14*
%TO.C,C8*%
X98000000Y-172100000D03*
X98000000Y-170200000D03*
%TD*%
D18*
%TO.C,U9*%
X84610000Y-125650000D03*
X84610000Y-129450000D03*
D19*
X86460000Y-124550000D03*
X86460000Y-126550000D03*
X86460000Y-128550000D03*
X86460000Y-130550000D03*
D20*
X85110000Y-122800000D03*
D21*
X82340000Y-123740000D03*
D22*
X82340000Y-131360000D03*
D20*
X85110000Y-132300000D03*
%TD*%
D23*
%TO.C,R9*%
X95900000Y-163987500D03*
X95900000Y-165812500D03*
%TD*%
D24*
%TO.C,C10*%
X88400000Y-174000000D03*
X90300000Y-174000000D03*
%TD*%
%TO.C,C3*%
X123850000Y-178700000D03*
X125750000Y-178700000D03*
%TD*%
D13*
%TO.C,C17*%
X129250000Y-138300000D03*
X127350000Y-138300000D03*
%TD*%
%TO.C,C26*%
X118500000Y-148600000D03*
X116600000Y-148600000D03*
%TD*%
D24*
%TO.C,C22*%
X102000000Y-163200000D03*
X103900000Y-163200000D03*
%TD*%
D11*
%TO.C,R3*%
X109825000Y-177162500D03*
X109825000Y-175337500D03*
%TD*%
D25*
%TO.C,U13*%
X88280000Y-101400000D03*
X88280000Y-102680000D03*
X88280000Y-103940000D03*
X88280000Y-105210000D03*
X82920000Y-105210000D03*
X82920000Y-103940000D03*
X82920000Y-102680000D03*
X82920000Y-101400000D03*
%TD*%
D14*
%TO.C,C1*%
X129700000Y-173050000D03*
X129700000Y-171150000D03*
%TD*%
D11*
%TO.C,R27*%
X120300000Y-153312500D03*
X120300000Y-151487500D03*
%TD*%
D17*
%TO.C,C19*%
X100800000Y-155500000D03*
X100800000Y-157400000D03*
%TD*%
D26*
%TO.C,U10*%
X92800000Y-159570000D03*
X93300000Y-159570000D03*
X93800000Y-159570000D03*
X94300000Y-159570000D03*
X94800000Y-159570000D03*
D27*
X94800000Y-161220000D03*
X94300000Y-161220000D03*
D28*
X93800000Y-161030000D03*
D27*
X93300000Y-161220000D03*
X92800000Y-161220000D03*
%TD*%
D29*
%TO.C,TP6*%
X83600000Y-139500000D03*
%TD*%
D11*
%TO.C,R29*%
X96000000Y-147512500D03*
X96000000Y-145687500D03*
%TD*%
D13*
%TO.C,C29*%
X122850000Y-148700000D03*
X120950000Y-148700000D03*
%TD*%
D11*
%TO.C,R30*%
X99900000Y-147512500D03*
X99900000Y-145687500D03*
%TD*%
D18*
%TO.C,CN2*%
X97250000Y-113503500D03*
X93950000Y-113503500D03*
D30*
X96350000Y-110243500D03*
X94850000Y-110243500D03*
%TD*%
D13*
%TO.C,C25*%
X129950000Y-169100000D03*
X128050000Y-169100000D03*
%TD*%
D31*
%TO.C,R34*%
X112000000Y-177100000D03*
X113825000Y-177100000D03*
%TD*%
D32*
%TO.C,U4*%
X95187500Y-169212500D03*
X95187500Y-169712500D03*
X95187500Y-170212500D03*
X95187500Y-170712500D03*
D33*
X94500000Y-171400000D03*
X94000000Y-171400000D03*
X93500000Y-171400000D03*
X93000000Y-171400000D03*
D32*
X92312500Y-170712500D03*
X92312500Y-170212500D03*
X92312500Y-169712500D03*
X92312500Y-169212500D03*
D33*
X93000000Y-168525000D03*
X93500000Y-168525000D03*
X94000000Y-168525000D03*
X94500000Y-168525000D03*
D34*
X93750000Y-169962500D03*
%TD*%
D29*
%TO.C,TP7*%
X83600000Y-142400000D03*
%TD*%
D35*
%TO.C,R36*%
X99000000Y-157700000D03*
X97175000Y-157700000D03*
%TD*%
D11*
%TO.C,R23*%
X115600000Y-181000000D03*
X115600000Y-179175000D03*
%TD*%
D23*
%TO.C,R20*%
X100300000Y-115300000D03*
X100300000Y-117125000D03*
%TD*%
D36*
%TO.C,U3*%
X121000000Y-133400000D03*
X121000000Y-134350000D03*
X121000000Y-135300000D03*
X118725000Y-135300000D03*
X118725000Y-134350000D03*
X118725000Y-133400000D03*
%TD*%
D25*
%TO.C,U14*%
X102880000Y-101340000D03*
X102880000Y-102620000D03*
X102880000Y-103880000D03*
X102880000Y-105150000D03*
X97520000Y-105150000D03*
X97520000Y-103880000D03*
X97520000Y-102620000D03*
X97520000Y-101340000D03*
%TD*%
D29*
%TO.C,TP2*%
X91500000Y-139500000D03*
%TD*%
D37*
%TO.C,U8*%
X124500000Y-172350000D03*
X123650000Y-172350000D03*
X122800000Y-172350000D03*
X121950000Y-172350000D03*
X121100000Y-172350000D03*
X120250000Y-172350000D03*
X119400000Y-172350000D03*
X118550000Y-172350000D03*
X117700000Y-172350000D03*
X116850000Y-172350000D03*
X116000000Y-172350000D03*
X115150000Y-172350000D03*
X114300000Y-172350000D03*
X113450000Y-172350000D03*
X112600000Y-172350000D03*
D38*
X111550000Y-171300000D03*
X111550000Y-170450000D03*
X111550000Y-169600000D03*
X111550000Y-168750000D03*
X111550000Y-167900000D03*
X111550000Y-167050000D03*
X111550000Y-166200000D03*
X111550000Y-165350000D03*
X111550000Y-164500000D03*
X111550000Y-163650000D03*
X111550000Y-162800000D03*
X111550000Y-161950000D03*
X111550000Y-161100000D03*
X111550000Y-160250000D03*
X111550000Y-159400000D03*
D37*
X112600000Y-158350000D03*
X113450000Y-158350000D03*
X114300000Y-158350000D03*
X115150000Y-158350000D03*
X116000000Y-158350000D03*
X116850000Y-158350000D03*
X117700000Y-158350000D03*
X118550000Y-158350000D03*
X119400000Y-158350000D03*
X120250000Y-158350000D03*
X121100000Y-158350000D03*
X121950000Y-158350000D03*
X122800000Y-158350000D03*
X123650000Y-158350000D03*
X124500000Y-158350000D03*
D38*
X125550000Y-159400000D03*
X125550000Y-160250000D03*
X125550000Y-161100000D03*
X125550000Y-161950000D03*
X125550000Y-162800000D03*
X125550000Y-163650000D03*
X125550000Y-164500000D03*
X125550000Y-165350000D03*
X125550000Y-166200000D03*
X125550000Y-167050000D03*
X125550000Y-167900000D03*
X125550000Y-168750000D03*
X125550000Y-169600000D03*
X125550000Y-170450000D03*
X125550000Y-171300000D03*
D39*
X116900000Y-167000000D03*
X118550000Y-167000000D03*
D40*
X120200000Y-167000000D03*
D39*
X116900000Y-165350000D03*
X118550000Y-165350000D03*
X120200000Y-165350000D03*
X116900000Y-163700000D03*
X118550000Y-163700000D03*
X120200000Y-163700000D03*
D41*
X125550000Y-172350000D03*
X111550000Y-172350000D03*
X111550000Y-158350000D03*
X125550000Y-158350000D03*
%TD*%
D25*
%TO.C,U7*%
X117720000Y-126310000D03*
X117720000Y-125030000D03*
X117720000Y-123770000D03*
X117720000Y-122500000D03*
X123080000Y-122500000D03*
X123080000Y-123770000D03*
X123080000Y-125030000D03*
X123080000Y-126310000D03*
%TD*%
D23*
%TO.C,R25*%
X128000000Y-122700000D03*
X128000000Y-124525000D03*
%TD*%
D13*
%TO.C,C16*%
X107850000Y-144200000D03*
X105950000Y-144200000D03*
%TD*%
D23*
%TO.C,R15*%
X99100000Y-181800000D03*
X99100000Y-183625000D03*
%TD*%
D14*
%TO.C,C23*%
X100200000Y-161500000D03*
X100200000Y-159600000D03*
%TD*%
%TO.C,C15*%
X93600000Y-165250000D03*
X93600000Y-163350000D03*
%TD*%
D42*
%TO.C,SW5*%
X129467500Y-128650051D03*
X129467500Y-126950051D03*
D43*
X128177500Y-129500051D03*
X128177500Y-126100051D03*
D44*
X130117500Y-125680051D03*
D45*
X130117500Y-129920051D03*
%TD*%
D46*
%TO.C,H2*%
X97520000Y-97900000D03*
X100060000Y-97900000D03*
X102600000Y-97900000D03*
X105140000Y-97900000D03*
X107680000Y-97900000D03*
%TD*%
D35*
%TO.C,R4*%
X99112500Y-177700000D03*
X97287500Y-177700000D03*
%TD*%
%TO.C,R10*%
X99000000Y-167900000D03*
X97175000Y-167900000D03*
%TD*%
D47*
%TO.C,L1*%
X87400000Y-163800000D03*
X87400000Y-161460000D03*
%TD*%
D14*
%TO.C,C7*%
X115350000Y-134650000D03*
X115350000Y-132750000D03*
%TD*%
D11*
%TO.C,R28*%
X97900000Y-147512500D03*
X97900000Y-145687500D03*
%TD*%
D48*
%TO.C,J2*%
X109040000Y-180695000D03*
X103260000Y-180695000D03*
D49*
X109350000Y-179575000D03*
X108550000Y-179575000D03*
D50*
X107400000Y-179575000D03*
X106400000Y-179575000D03*
X105900000Y-179575000D03*
X104900000Y-179575000D03*
D49*
X103750000Y-179575000D03*
X102950000Y-179575000D03*
X102950000Y-179575000D03*
X103750000Y-179575000D03*
D50*
X104400000Y-179575000D03*
X105400000Y-179575000D03*
X106900000Y-179575000D03*
X107900000Y-179575000D03*
D49*
X108550000Y-179575000D03*
X109350000Y-179575000D03*
D51*
X110470000Y-184375000D03*
D52*
X110470000Y-180175000D03*
D51*
X101830000Y-184375000D03*
D52*
X101830000Y-180175000D03*
%TD*%
D17*
%TO.C,C9*%
X100200000Y-164162500D03*
X100200000Y-166062500D03*
%TD*%
D53*
%TO.C,Q1*%
X121200000Y-137649999D03*
X121200000Y-138600000D03*
X121200000Y-139550001D03*
X118520300Y-139550001D03*
X118520300Y-138600000D03*
X118520300Y-137649999D03*
%TD*%
D54*
%TO.C,Q2*%
X113012500Y-147412500D03*
X113012500Y-145512500D03*
X114887500Y-146462500D03*
%TD*%
D23*
%TO.C,R11*%
X87800000Y-165600000D03*
X87800000Y-167425000D03*
%TD*%
D24*
%TO.C,C5*%
X123850000Y-176600000D03*
X125750000Y-176600000D03*
%TD*%
D13*
%TO.C,C20*%
X99000000Y-155700000D03*
X97100000Y-155700000D03*
%TD*%
D55*
%TO.C,U6*%
X107362500Y-146650000D03*
X107362500Y-147150000D03*
X107362500Y-147650000D03*
X107362500Y-148150000D03*
D56*
X106700000Y-148312500D03*
X106200000Y-148312500D03*
X105700000Y-148312500D03*
D55*
X105037500Y-148150000D03*
X105037500Y-147650000D03*
X105037500Y-147150000D03*
X105037500Y-146650000D03*
D56*
X105700000Y-146487500D03*
X106200000Y-146487500D03*
X106700000Y-146487500D03*
%TD*%
D11*
%TO.C,R33*%
X103100000Y-177000000D03*
X103100000Y-175175000D03*
%TD*%
D23*
%TO.C,R24*%
X129400000Y-144887500D03*
X129400000Y-146712500D03*
%TD*%
D35*
%TO.C,R32*%
X114300000Y-155500000D03*
X112475000Y-155500000D03*
%TD*%
%TO.C,R37*%
X95500000Y-155700000D03*
X93675000Y-155700000D03*
%TD*%
D57*
%TO.C,X1*%
X114950000Y-130200000D03*
X117250000Y-130200000D03*
%TD*%
D11*
%TO.C,R5*%
X98200000Y-166012500D03*
X98200000Y-164187500D03*
%TD*%
D36*
%TO.C,U1*%
X107275000Y-173450000D03*
X107275000Y-174400000D03*
X107275000Y-175350000D03*
X105000000Y-175350000D03*
X105000000Y-174400000D03*
X105000000Y-173450000D03*
%TD*%
D14*
%TO.C,C6*%
X127700000Y-174400000D03*
X127700000Y-172500000D03*
%TD*%
D17*
%TO.C,C33*%
X105000000Y-103650000D03*
X105000000Y-105550000D03*
%TD*%
D58*
%TO.C,U12*%
X122800000Y-146310000D03*
X122300000Y-146310000D03*
X121800000Y-146310000D03*
X121300000Y-146310000D03*
X120800000Y-146310000D03*
X120800000Y-144490000D03*
X121300000Y-144490000D03*
X121800000Y-144490000D03*
X122300000Y-144490000D03*
X122800000Y-144490000D03*
D59*
X121800000Y-145400000D03*
%TD*%
D35*
%TO.C,R7*%
X88700000Y-169200000D03*
X86875000Y-169200000D03*
%TD*%
D29*
%TO.C,TP4*%
X91500000Y-136400000D03*
%TD*%
D14*
%TO.C,C30*%
X123425000Y-141975000D03*
X123425000Y-140075000D03*
%TD*%
D17*
%TO.C,C32*%
X90500000Y-103660000D03*
X90500000Y-105560000D03*
%TD*%
D31*
%TO.C,R2*%
X127400000Y-134200000D03*
X129225000Y-134200000D03*
%TD*%
D35*
%TO.C,R35*%
X102900000Y-141300000D03*
X101075000Y-141300000D03*
%TD*%
D46*
%TO.C,H1*%
X82720000Y-97880000D03*
X85260000Y-97880000D03*
X87800000Y-97880000D03*
X90340000Y-97880000D03*
X92880000Y-97880000D03*
%TD*%
D11*
%TO.C,R19*%
X100300000Y-113625000D03*
X100300000Y-111800000D03*
%TD*%
%TO.C,R12*%
X94500000Y-175100000D03*
X94500000Y-173275000D03*
%TD*%
D29*
%TO.C,TP1*%
X83600000Y-136400000D03*
%TD*%
D31*
%TO.C,R8*%
X86600000Y-172000000D03*
X88425000Y-172000000D03*
%TD*%
D23*
%TO.C,R17*%
X118900000Y-175987500D03*
X118900000Y-177812500D03*
%TD*%
D25*
%TO.C,U11*%
X128400000Y-151200000D03*
X128400000Y-152480000D03*
X128400000Y-153740000D03*
X128400000Y-155010000D03*
X123040000Y-155010000D03*
X123040000Y-153740000D03*
X123040000Y-152480000D03*
X123040000Y-151200000D03*
%TD*%
D14*
%TO.C,C14*%
X91600000Y-165250000D03*
X91600000Y-163350000D03*
%TD*%
D29*
%TO.C,TP5*%
X83600000Y-145300000D03*
%TD*%
D13*
%TO.C,C27*%
X125750000Y-174500000D03*
X123850000Y-174500000D03*
%TD*%
D60*
%TO.C,F1*%
X104937500Y-168900000D03*
X100662500Y-168900000D03*
%TD*%
D14*
%TO.C,C21*%
X100800000Y-175950000D03*
X100800000Y-174050000D03*
%TD*%
D11*
%TO.C,R18*%
X128500000Y-158500000D03*
X128500000Y-156675000D03*
%TD*%
%TO.C,R38*%
X91900000Y-156500000D03*
X91900000Y-154675000D03*
%TD*%
%TO.C,R1*%
X115300000Y-138100000D03*
X115300000Y-136275000D03*
%TD*%
D35*
%TO.C,R26*%
X102212500Y-119600000D03*
X100387500Y-119600000D03*
%TD*%
D61*
%TO.C,BUZZER1*%
X91250000Y-113550000D03*
X82550000Y-113550000D03*
%TD*%
D11*
%TO.C,R39*%
X101800000Y-147500000D03*
X101800000Y-145675000D03*
%TD*%
%TO.C,R31*%
X96000000Y-144100000D03*
X96000000Y-142275000D03*
%TD*%
D31*
%TO.C,R21*%
X117587500Y-155700000D03*
X119412500Y-155700000D03*
%TD*%
D17*
%TO.C,C4*%
X121800000Y-176250000D03*
X121800000Y-178150000D03*
%TD*%
D14*
%TO.C,C24*%
X98000000Y-161450000D03*
X98000000Y-159550000D03*
%TD*%
D29*
%TO.C,TP3*%
X91500000Y-142400000D03*
%TD*%
D31*
%TO.C,R40*%
X124800000Y-146700000D03*
X126625000Y-146700000D03*
%TD*%
D24*
%TO.C,C31*%
X124750000Y-148700000D03*
X126650000Y-148700000D03*
%TD*%
M02*
