%TF.GenerationSoftware,KiCad,Pcbnew,10.0.6*%
%TF.CreationDate,2026-09-14T15:27:06+01:00*%
%TF.ProjectId,cheetoPet,63686565-746f-4506-9574-2e6b69636164,rev?*%
%TF.SameCoordinates,Original*%
%TF.FileFunction,Legend,Top*%
%TF.FilePolarity,Positive*%
%FSLAX46Y46*%
G04 Gerber Fmt 4.6, Leading zero omitted, Abs format (unit mm)*
G04 Created by KiCad (PCBNEW 10.0.6) date 2026-09-14 15:27:06*
%MOMM*%
%LPD*%
G01*
G04 APERTURE LIST*
%ADD10C,0.100000*%
%ADD11C,0.125000*%
%ADD12C,0.225000*%
%ADD13C,0.250000*%
%ADD14C,0.275000*%
%ADD15C,0.150000*%
%ADD16C,0.060000*%
%ADD17R,1.500000X1.000000*%
%ADD18R,0.300000X3.000000*%
%ADD19C,1.100000*%
%ADD20C,0.700000*%
%ADD21C,0.650000*%
%ADD22O,1.000000X1.800000*%
%ADD23O,1.000000X2.100000*%
G04 APERTURE END LIST*
D10*
X81050000Y-107800000D02*
X131250000Y-107800000D01*
X131250000Y-177100000D01*
X81050000Y-177100000D01*
X81050000Y-107800000D01*
X81700000Y-94750000D02*
X94200000Y-94750000D01*
X94200000Y-102850000D01*
X81700000Y-102850000D01*
X81700000Y-94750000D01*
X96400000Y-94750000D02*
X108900000Y-94750000D01*
X108900000Y-102850000D01*
X96400000Y-102850000D01*
X96400000Y-94750000D01*
G36*
X83003055Y-92897186D02*
G01*
X83004850Y-92827681D01*
X83007989Y-92807549D01*
X83026075Y-92772856D01*
X83096503Y-92664129D01*
X83173708Y-92556991D01*
X83194884Y-92536000D01*
X83206222Y-92533875D01*
X83240801Y-92532727D01*
X83288868Y-92536000D01*
X83309730Y-92555200D01*
X83388861Y-92659244D01*
X83461518Y-92764566D01*
X83481234Y-92799391D01*
X83490484Y-92838529D01*
X83494374Y-92905734D01*
X83493300Y-92972755D01*
X83492176Y-93039824D01*
X83489172Y-93048836D01*
X83480159Y-93051840D01*
X83426328Y-93050180D01*
X83372448Y-93048568D01*
X83365169Y-93045936D01*
X83362630Y-93037674D01*
X83364828Y-92986139D01*
X83367026Y-92934604D01*
X83365591Y-92885515D01*
X83361555Y-92843013D01*
X83351061Y-92816246D01*
X83306112Y-92741652D01*
X83266871Y-92685560D01*
X83248340Y-92665010D01*
X83240801Y-92661052D01*
X83226983Y-92671932D01*
X83181206Y-92740040D01*
X83140969Y-92811401D01*
X83130941Y-92837542D01*
X83127891Y-92869819D01*
X83126545Y-92931575D01*
X83130110Y-92985651D01*
X83133676Y-93039824D01*
X83131625Y-93045979D01*
X83125470Y-93048030D01*
X83072469Y-93049935D01*
X83020006Y-93051840D01*
X83013790Y-93045393D01*
X83006814Y-93008542D01*
X83003055Y-92897186D01*
G37*
G36*
X82436119Y-92637849D02*
G01*
X82437780Y-92588805D01*
X82439392Y-92539272D01*
X82443320Y-92530671D01*
X82457417Y-92527256D01*
X82509099Y-92531652D01*
X82680411Y-92536000D01*
X82797647Y-92534339D01*
X82915421Y-92532678D01*
X82925756Y-92535509D01*
X82931248Y-92543718D01*
X82945414Y-92622852D01*
X82940005Y-92627812D01*
X82907166Y-92636041D01*
X82868792Y-92645294D01*
X82853628Y-92652943D01*
X82779682Y-92723555D01*
X82704395Y-92809014D01*
X82656545Y-92873742D01*
X82628087Y-92922764D01*
X82613897Y-92959463D01*
X82609873Y-92986872D01*
X82614373Y-93018068D01*
X82627587Y-93044966D01*
X82650320Y-93068742D01*
X82676773Y-93085365D01*
X82705836Y-93095327D01*
X82738296Y-93098735D01*
X82786539Y-93094124D01*
X82835602Y-93079977D01*
X82868492Y-93065157D01*
X82902281Y-93045588D01*
X82930711Y-93026830D01*
X82936719Y-93023704D01*
X82940619Y-93028586D01*
X82943265Y-93042755D01*
X82946538Y-93080319D01*
X82957072Y-93121100D01*
X82958017Y-93120619D01*
X82949810Y-93131268D01*
X82901711Y-93161462D01*
X82837214Y-93187395D01*
X82771690Y-93203184D01*
X82712602Y-93208156D01*
X82647045Y-93202487D01*
X82592554Y-93186542D01*
X82547005Y-93161163D01*
X82514712Y-93131893D01*
X82492025Y-93097826D01*
X82478117Y-93058025D01*
X82473244Y-93010954D01*
X82478309Y-92974327D01*
X82495508Y-92929003D01*
X82528865Y-92872375D01*
X82583534Y-92801659D01*
X82665609Y-92713857D01*
X82732825Y-92642294D01*
X82697312Y-92641219D01*
X82586496Y-92644391D01*
X82451946Y-92654799D01*
X82447598Y-92655385D01*
X82439400Y-92651588D01*
X82436119Y-92637849D01*
G37*
G36*
X82218303Y-92616551D02*
G01*
X82221025Y-92593477D01*
X82229045Y-92572694D01*
X82242630Y-92553585D01*
X82260286Y-92538480D01*
X82279980Y-92529633D01*
X82302469Y-92526621D01*
X82324890Y-92529715D01*
X82344479Y-92538815D01*
X82362016Y-92554415D01*
X82379184Y-92582880D01*
X82384974Y-92616551D01*
X82382299Y-92639969D01*
X82374508Y-92660537D01*
X82361478Y-92678930D01*
X82344409Y-92693357D01*
X82325003Y-92701890D01*
X82302469Y-92704820D01*
X82279549Y-92701858D01*
X82259769Y-92693227D01*
X82242337Y-92678637D01*
X82228953Y-92660065D01*
X82221012Y-92639586D01*
X82218303Y-92616551D01*
G37*
G36*
X81930829Y-93182168D02*
G01*
X81931367Y-93172350D01*
X81940129Y-93057771D01*
X81943921Y-92848435D01*
X81942846Y-92703941D01*
X81941722Y-92559447D01*
X81943989Y-92547063D01*
X81949815Y-92540524D01*
X81959796Y-92538198D01*
X82011722Y-92537074D01*
X82062525Y-92536000D01*
X82075526Y-92539673D01*
X82079475Y-92549726D01*
X82072344Y-92751617D01*
X82069071Y-93020480D01*
X82070830Y-93030720D01*
X82074542Y-93033083D01*
X82089286Y-93031203D01*
X82115819Y-93023704D01*
X82142386Y-93016226D01*
X82157633Y-93014325D01*
X82167690Y-93016304D01*
X82170187Y-93020773D01*
X82168819Y-93040117D01*
X82167452Y-93059412D01*
X82168575Y-93077144D01*
X82169650Y-93094876D01*
X82167162Y-93100808D01*
X82157633Y-93106795D01*
X82126422Y-93123620D01*
X82090418Y-93151638D01*
X82060327Y-93184464D01*
X82033020Y-93211282D01*
X81987640Y-93201073D01*
X81938498Y-93192524D01*
X81932759Y-93188853D01*
X81930829Y-93182168D01*
G37*
G36*
X97703055Y-92897186D02*
G01*
X97704850Y-92827681D01*
X97707989Y-92807549D01*
X97726075Y-92772856D01*
X97796503Y-92664129D01*
X97873708Y-92556991D01*
X97894884Y-92536000D01*
X97906222Y-92533875D01*
X97940801Y-92532727D01*
X97988868Y-92536000D01*
X98009730Y-92555200D01*
X98088861Y-92659244D01*
X98161518Y-92764566D01*
X98181234Y-92799391D01*
X98190484Y-92838529D01*
X98194374Y-92905734D01*
X98193300Y-92972755D01*
X98192176Y-93039824D01*
X98189172Y-93048836D01*
X98180159Y-93051840D01*
X98126328Y-93050180D01*
X98072448Y-93048568D01*
X98065169Y-93045936D01*
X98062630Y-93037674D01*
X98064828Y-92986139D01*
X98067026Y-92934604D01*
X98065591Y-92885515D01*
X98061555Y-92843013D01*
X98051061Y-92816246D01*
X98006112Y-92741652D01*
X97966871Y-92685560D01*
X97948340Y-92665010D01*
X97940801Y-92661052D01*
X97926983Y-92671932D01*
X97881206Y-92740040D01*
X97840969Y-92811401D01*
X97830941Y-92837542D01*
X97827891Y-92869819D01*
X97826545Y-92931575D01*
X97830110Y-92985651D01*
X97833676Y-93039824D01*
X97831625Y-93045979D01*
X97825470Y-93048030D01*
X97772469Y-93049935D01*
X97720006Y-93051840D01*
X97713790Y-93045393D01*
X97706814Y-93008542D01*
X97703055Y-92897186D01*
G37*
G36*
X97136119Y-92637849D02*
G01*
X97137780Y-92588805D01*
X97139392Y-92539272D01*
X97143320Y-92530671D01*
X97157417Y-92527256D01*
X97209099Y-92531652D01*
X97380411Y-92536000D01*
X97497647Y-92534339D01*
X97615421Y-92532678D01*
X97625756Y-92535509D01*
X97631248Y-92543718D01*
X97645414Y-92622852D01*
X97640005Y-92627812D01*
X97607166Y-92636041D01*
X97568792Y-92645294D01*
X97553628Y-92652943D01*
X97479682Y-92723555D01*
X97404395Y-92809014D01*
X97356545Y-92873742D01*
X97328087Y-92922764D01*
X97313897Y-92959463D01*
X97309873Y-92986872D01*
X97314373Y-93018068D01*
X97327587Y-93044966D01*
X97350320Y-93068742D01*
X97376773Y-93085365D01*
X97405836Y-93095327D01*
X97438296Y-93098735D01*
X97486539Y-93094124D01*
X97535602Y-93079977D01*
X97568492Y-93065157D01*
X97602281Y-93045588D01*
X97630711Y-93026830D01*
X97636719Y-93023704D01*
X97640619Y-93028586D01*
X97643265Y-93042755D01*
X97646538Y-93080319D01*
X97657072Y-93121100D01*
X97658017Y-93120619D01*
X97649810Y-93131268D01*
X97601711Y-93161462D01*
X97537214Y-93187395D01*
X97471690Y-93203184D01*
X97412602Y-93208156D01*
X97347045Y-93202487D01*
X97292554Y-93186542D01*
X97247005Y-93161163D01*
X97214712Y-93131893D01*
X97192025Y-93097826D01*
X97178117Y-93058025D01*
X97173244Y-93010954D01*
X97178309Y-92974327D01*
X97195508Y-92929003D01*
X97228865Y-92872375D01*
X97283534Y-92801659D01*
X97365609Y-92713857D01*
X97432825Y-92642294D01*
X97397312Y-92641219D01*
X97286496Y-92644391D01*
X97151946Y-92654799D01*
X97147598Y-92655385D01*
X97139400Y-92651588D01*
X97136119Y-92637849D01*
G37*
G36*
X96918303Y-92616551D02*
G01*
X96921025Y-92593477D01*
X96929045Y-92572694D01*
X96942630Y-92553585D01*
X96960286Y-92538480D01*
X96979980Y-92529633D01*
X97002469Y-92526621D01*
X97024890Y-92529715D01*
X97044479Y-92538815D01*
X97062016Y-92554415D01*
X97079184Y-92582880D01*
X97084974Y-92616551D01*
X97082299Y-92639969D01*
X97074508Y-92660537D01*
X97061478Y-92678930D01*
X97044409Y-92693357D01*
X97025003Y-92701890D01*
X97002469Y-92704820D01*
X96979549Y-92701858D01*
X96959769Y-92693227D01*
X96942337Y-92678637D01*
X96928953Y-92660065D01*
X96921012Y-92639586D01*
X96918303Y-92616551D01*
G37*
G36*
X96630829Y-93182168D02*
G01*
X96631367Y-93172350D01*
X96640129Y-93057771D01*
X96643921Y-92848435D01*
X96642846Y-92703941D01*
X96641722Y-92559447D01*
X96643989Y-92547063D01*
X96649815Y-92540524D01*
X96659796Y-92538198D01*
X96711722Y-92537074D01*
X96762525Y-92536000D01*
X96775526Y-92539673D01*
X96779475Y-92549726D01*
X96772344Y-92751617D01*
X96769071Y-93020480D01*
X96770830Y-93030720D01*
X96774542Y-93033083D01*
X96789286Y-93031203D01*
X96815819Y-93023704D01*
X96842386Y-93016226D01*
X96857633Y-93014325D01*
X96867690Y-93016304D01*
X96870187Y-93020773D01*
X96868819Y-93040117D01*
X96867452Y-93059412D01*
X96868575Y-93077144D01*
X96869650Y-93094876D01*
X96867162Y-93100808D01*
X96857633Y-93106795D01*
X96826422Y-93123620D01*
X96790418Y-93151638D01*
X96760327Y-93184464D01*
X96733020Y-93211282D01*
X96687640Y-93201073D01*
X96638498Y-93192524D01*
X96632759Y-93188853D01*
X96630829Y-93182168D01*
G37*
D11*
G36*
X92583836Y-98172814D02*
G01*
X92595661Y-98178274D01*
X92599589Y-98190582D01*
X92598246Y-98453082D01*
X92596841Y-98715643D01*
X92602133Y-98873694D01*
X92617358Y-99017100D01*
X92618701Y-99028030D01*
X92616966Y-99034217D01*
X92611862Y-99037616D01*
X92536086Y-99045005D01*
X92460920Y-99057156D01*
X92452841Y-99050600D01*
X92445899Y-99017466D01*
X92442480Y-98965137D01*
X92438389Y-98954574D01*
X92427459Y-98964099D01*
X92375879Y-99009239D01*
X92327069Y-99038907D01*
X92280177Y-99055654D01*
X92234141Y-99061064D01*
X92168934Y-99054376D01*
X92110072Y-99034781D01*
X92056070Y-99002052D01*
X92005957Y-98954757D01*
X91966652Y-98901138D01*
X91938934Y-98843749D01*
X91922170Y-98781728D01*
X91916638Y-98716254D01*
X92076299Y-98716254D01*
X92082079Y-98769466D01*
X92099046Y-98817434D01*
X92127529Y-98861456D01*
X92167251Y-98899082D01*
X92211500Y-98920832D01*
X92262107Y-98928196D01*
X92299917Y-98923901D01*
X92333541Y-98911333D01*
X92364012Y-98890230D01*
X92391922Y-98859380D01*
X92417590Y-98816128D01*
X92433073Y-98768367D01*
X92438389Y-98714849D01*
X92432907Y-98660518D01*
X92416972Y-98612338D01*
X92390578Y-98568975D01*
X92361817Y-98539232D01*
X92330387Y-98518723D01*
X92295674Y-98506442D01*
X92256672Y-98502236D01*
X92219600Y-98506496D01*
X92185946Y-98519073D01*
X92154767Y-98540375D01*
X92125514Y-98571723D01*
X92098020Y-98616873D01*
X92081775Y-98664688D01*
X92076299Y-98716254D01*
X91916638Y-98716254D01*
X91916442Y-98713934D01*
X91922054Y-98646066D01*
X91938466Y-98584018D01*
X91965555Y-98526671D01*
X92003881Y-98473171D01*
X92053425Y-98425263D01*
X92107103Y-98392115D01*
X92165908Y-98372251D01*
X92231393Y-98365460D01*
X92285993Y-98371357D01*
X92334960Y-98388626D01*
X92379649Y-98417545D01*
X92436985Y-98470973D01*
X92442480Y-98460104D01*
X92443152Y-98383839D01*
X92443823Y-98191864D01*
X92448192Y-98174951D01*
X92459577Y-98170066D01*
X92583836Y-98172814D01*
G37*
G36*
X91584515Y-98375788D02*
G01*
X91651463Y-98394035D01*
X91709110Y-98423303D01*
X91758966Y-98463768D01*
X91799423Y-98513712D01*
X91828650Y-98571282D01*
X91846849Y-98637951D01*
X91853244Y-98715704D01*
X91847479Y-98784412D01*
X91830594Y-98847403D01*
X91802665Y-98905812D01*
X91763057Y-98960497D01*
X91711839Y-99008720D01*
X91656687Y-99042089D01*
X91596614Y-99062064D01*
X91530111Y-99068879D01*
X91467819Y-99062867D01*
X91412164Y-99045367D01*
X91361744Y-99016413D01*
X91315605Y-98975029D01*
X91278887Y-98927047D01*
X91252871Y-98874744D01*
X91237033Y-98817218D01*
X91235168Y-98795327D01*
X91394190Y-98795327D01*
X91399033Y-98830356D01*
X91413579Y-98862676D01*
X91438947Y-98893330D01*
X91470760Y-98917465D01*
X91504022Y-98931378D01*
X91539697Y-98936011D01*
X91579627Y-98930703D01*
X91616474Y-98914801D01*
X91651377Y-98887224D01*
X91679124Y-98852431D01*
X91694977Y-98816362D01*
X91700226Y-98777925D01*
X91695170Y-98768207D01*
X91675619Y-98764064D01*
X91569870Y-98768351D01*
X91433818Y-98782810D01*
X91399927Y-98789975D01*
X91394190Y-98795327D01*
X91235168Y-98795327D01*
X91231585Y-98753257D01*
X91236716Y-98722688D01*
X91250993Y-98700984D01*
X91275305Y-98685907D01*
X91343939Y-98675914D01*
X91698150Y-98646828D01*
X91687195Y-98608991D01*
X91665648Y-98574686D01*
X91631899Y-98543025D01*
X91593888Y-98520049D01*
X91554999Y-98506679D01*
X91514418Y-98502236D01*
X91444705Y-98509785D01*
X91379137Y-98532324D01*
X91316276Y-98570746D01*
X91294478Y-98588210D01*
X91287272Y-98586866D01*
X91261688Y-98539788D01*
X91237752Y-98490635D01*
X91248682Y-98475064D01*
X91302213Y-98428983D01*
X91362046Y-98396307D01*
X91429453Y-98376306D01*
X91506236Y-98369368D01*
X91584515Y-98375788D01*
G37*
G36*
X90755556Y-98512983D02*
G01*
X90758303Y-98470790D01*
X90762395Y-98427864D01*
X90764410Y-98412355D01*
X90777415Y-98403073D01*
X90816033Y-98390061D01*
X90872910Y-98380788D01*
X90953698Y-98377184D01*
X91006571Y-98381994D01*
X91045878Y-98394919D01*
X91074831Y-98414660D01*
X91095545Y-98441325D01*
X91108730Y-98476402D01*
X91113555Y-98522508D01*
X91110807Y-98697630D01*
X91108059Y-98872752D01*
X91111327Y-98888900D01*
X91120212Y-98898465D01*
X91136086Y-98902916D01*
X91185912Y-98903588D01*
X91195229Y-98914492D01*
X91200261Y-98959214D01*
X91197513Y-99000553D01*
X91191371Y-99013285D01*
X91175653Y-99020214D01*
X91142192Y-99020886D01*
X91123902Y-99024983D01*
X91114218Y-99033963D01*
X91110807Y-99048668D01*
X91112517Y-99131345D01*
X91114226Y-99214754D01*
X91111046Y-99246913D01*
X91104180Y-99260530D01*
X91095114Y-99264274D01*
X90966643Y-99244734D01*
X90954631Y-99239702D01*
X90950950Y-99229713D01*
X90955407Y-99139649D01*
X90959804Y-99049584D01*
X90955087Y-99034633D01*
X90941363Y-99029801D01*
X90777477Y-99029801D01*
X90768401Y-99027511D01*
X90765814Y-99021618D01*
X90768256Y-98995423D01*
X90770638Y-98968557D01*
X90769966Y-98937233D01*
X90769233Y-98905969D01*
X90773430Y-98896690D01*
X90788406Y-98893025D01*
X90871022Y-98896933D01*
X90953698Y-98900840D01*
X90957285Y-98895711D01*
X90961880Y-98861823D01*
X90965299Y-98725718D01*
X90965299Y-98623808D01*
X90961941Y-98569506D01*
X90954369Y-98541742D01*
X90940244Y-98522562D01*
X90918655Y-98510615D01*
X90886714Y-98506144D01*
X90824554Y-98515914D01*
X90763738Y-98525683D01*
X90757906Y-98522948D01*
X90755556Y-98512983D01*
G37*
G36*
X89706777Y-98398677D02*
G01*
X89710292Y-98387291D01*
X89720393Y-98383656D01*
X89787682Y-98384328D01*
X89855032Y-98385000D01*
X89863740Y-98389204D01*
X89867306Y-98404783D01*
X89865291Y-98506510D01*
X89863214Y-98608970D01*
X89863886Y-98690608D01*
X89864558Y-98772185D01*
X89867740Y-98824178D01*
X89875823Y-98859330D01*
X89887150Y-98882156D01*
X89908447Y-98902124D01*
X89940699Y-98915324D01*
X89988206Y-98920380D01*
X90024396Y-98912589D01*
X90083155Y-98881973D01*
X90123580Y-98851732D01*
X90142284Y-98828582D01*
X90147391Y-98810165D01*
X90147391Y-98400692D01*
X90150937Y-98387547D01*
X90160397Y-98383656D01*
X90225915Y-98384328D01*
X90291494Y-98385000D01*
X90302145Y-98388818D01*
X90305844Y-98400753D01*
X90304134Y-98562869D01*
X90302424Y-98725657D01*
X90306001Y-98822503D01*
X90316385Y-98911920D01*
X90333138Y-98994569D01*
X90335214Y-99003422D01*
X90333195Y-99009021D01*
X90326360Y-99013009D01*
X90248141Y-99025648D01*
X90171266Y-99037616D01*
X90168297Y-99035629D01*
X90165831Y-99026503D01*
X90160248Y-98983666D01*
X90150139Y-98939919D01*
X90056533Y-99009528D01*
X90007305Y-99034612D01*
X89961387Y-99048730D01*
X89917864Y-99053248D01*
X89853669Y-99047684D01*
X89805199Y-99032664D01*
X89768882Y-99009708D01*
X89742253Y-98978876D01*
X89724661Y-98940493D01*
X89712266Y-98883611D01*
X89707449Y-98802044D01*
X89708487Y-98737198D01*
X89709464Y-98671680D01*
X89708120Y-98535148D01*
X89706777Y-98398677D01*
G37*
G36*
X89371465Y-98376013D02*
G01*
X89429055Y-98395498D01*
X89481931Y-98428097D01*
X89531044Y-98475308D01*
X89568879Y-98528243D01*
X89595543Y-98584592D01*
X89611648Y-98645160D01*
X89617140Y-98711003D01*
X89611328Y-98786014D01*
X89594652Y-98851839D01*
X89567714Y-98910028D01*
X89530373Y-98961779D01*
X89481528Y-99006799D01*
X89426344Y-99038662D01*
X89363545Y-99058181D01*
X89291259Y-99064972D01*
X89240498Y-99060319D01*
X89193745Y-99046630D01*
X89150089Y-99023805D01*
X89108870Y-98991088D01*
X89072661Y-98950666D01*
X89068570Y-98948651D01*
X89065313Y-98953787D01*
X89056969Y-98991149D01*
X89046548Y-99026789D01*
X89037857Y-99033709D01*
X88968858Y-99023756D01*
X88920737Y-99009820D01*
X88912866Y-99002445D01*
X88914881Y-98990172D01*
X88935420Y-98839042D01*
X88941503Y-98721139D01*
X88941442Y-98720040D01*
X89087011Y-98720040D01*
X89092737Y-98773994D01*
X89109348Y-98821358D01*
X89136897Y-98863593D01*
X89175640Y-98899775D01*
X89219848Y-98920950D01*
X89271475Y-98928196D01*
X89323195Y-98921058D01*
X89368134Y-98900112D01*
X89408129Y-98864265D01*
X89437335Y-98821023D01*
X89454751Y-98773416D01*
X89460702Y-98720040D01*
X89454753Y-98667129D01*
X89437342Y-98619992D01*
X89408129Y-98577219D01*
X89368183Y-98541781D01*
X89323242Y-98521036D01*
X89271475Y-98513960D01*
X89221160Y-98521111D01*
X89177119Y-98542206D01*
X89137569Y-98578562D01*
X89109476Y-98621212D01*
X89092726Y-98667933D01*
X89087011Y-98720040D01*
X88941442Y-98720040D01*
X88924467Y-98415347D01*
X88923795Y-98405760D01*
X88928020Y-98390889D01*
X88941869Y-98386038D01*
X88998595Y-98381641D01*
X89054954Y-98377184D01*
X89064398Y-98385048D01*
X89074799Y-98426032D01*
X89083232Y-98468573D01*
X89087743Y-98474881D01*
X89124624Y-98447831D01*
X89165031Y-98417508D01*
X89199790Y-98397151D01*
X89254500Y-98376115D01*
X89307684Y-98369368D01*
X89371465Y-98376013D01*
G37*
G36*
X87762787Y-98410218D02*
G01*
X87767412Y-98389206D01*
X87778480Y-98383656D01*
X87809560Y-98385671D01*
X87841311Y-98387747D01*
X87876177Y-98386343D01*
X87910981Y-98385000D01*
X87920760Y-98391059D01*
X87925331Y-98416934D01*
X87922949Y-98510357D01*
X87920568Y-98603780D01*
X87921911Y-98795389D01*
X87928542Y-98841839D01*
X87938511Y-98872556D01*
X87950610Y-98891864D01*
X87970520Y-98906487D01*
X88000833Y-98916496D01*
X88045559Y-98920380D01*
X88073128Y-98916506D01*
X88105009Y-98903740D01*
X88142585Y-98879591D01*
X88176513Y-98848289D01*
X88194443Y-98820670D01*
X88200653Y-98795389D01*
X88203401Y-98601704D01*
X88200653Y-98501809D01*
X88197906Y-98401974D01*
X88201401Y-98387662D01*
X88210240Y-98383656D01*
X88246083Y-98385671D01*
X88281986Y-98387747D01*
X88314104Y-98386343D01*
X88346161Y-98385000D01*
X88355997Y-98389357D01*
X88359839Y-98404722D01*
X88357824Y-98502847D01*
X88355748Y-98601032D01*
X88355748Y-98764797D01*
X88361280Y-98835635D01*
X88374188Y-98874157D01*
X88395398Y-98898833D01*
X88427072Y-98914495D01*
X88473228Y-98920380D01*
X88517131Y-98912481D01*
X88575688Y-98884354D01*
X88615804Y-98854564D01*
X88635492Y-98828599D01*
X88641268Y-98804853D01*
X88641268Y-98606467D01*
X88640596Y-98505228D01*
X88639924Y-98404722D01*
X88644147Y-98389567D01*
X88655617Y-98385000D01*
X88782684Y-98385000D01*
X88792599Y-98389169D01*
X88796362Y-98403440D01*
X88795690Y-98569830D01*
X88794957Y-98736221D01*
X88801586Y-98860852D01*
X88821580Y-98985654D01*
X88823656Y-99000003D01*
X88821948Y-99007289D01*
X88817489Y-99010261D01*
X88743727Y-99021069D01*
X88676072Y-99036884D01*
X88670638Y-99037616D01*
X88664701Y-99030570D01*
X88655311Y-98986570D01*
X88646690Y-98941844D01*
X88642611Y-98935523D01*
X88608478Y-98966175D01*
X88567310Y-98998655D01*
X88527878Y-99022595D01*
X88468924Y-99045817D01*
X88411740Y-99053248D01*
X88349959Y-99047347D01*
X88301398Y-99031072D01*
X88263177Y-99005499D01*
X88233436Y-98970200D01*
X88211583Y-98923311D01*
X88164334Y-98973568D01*
X88106376Y-99014535D01*
X88060579Y-99036555D01*
X88016646Y-99049158D01*
X87973874Y-99053248D01*
X87910792Y-99047788D01*
X87862669Y-99032984D01*
X87826174Y-99010262D01*
X87798996Y-98979670D01*
X87781272Y-98941458D01*
X87768904Y-98885887D01*
X87764130Y-98807356D01*
X87765535Y-98737869D01*
X87766878Y-98668382D01*
X87764863Y-98539300D01*
X87762787Y-98410218D01*
G37*
G36*
X87401123Y-98375788D02*
G01*
X87468071Y-98394035D01*
X87525719Y-98423303D01*
X87575575Y-98463768D01*
X87616032Y-98513712D01*
X87645259Y-98571282D01*
X87663458Y-98637951D01*
X87669853Y-98715704D01*
X87664088Y-98784412D01*
X87647202Y-98847403D01*
X87619273Y-98905812D01*
X87579666Y-98960497D01*
X87528448Y-99008720D01*
X87473295Y-99042089D01*
X87413222Y-99062064D01*
X87346719Y-99068879D01*
X87284427Y-99062867D01*
X87228773Y-99045367D01*
X87178352Y-99016413D01*
X87132213Y-98975029D01*
X87095495Y-98927047D01*
X87069480Y-98874744D01*
X87053642Y-98817218D01*
X87051777Y-98795327D01*
X87210798Y-98795327D01*
X87215642Y-98830356D01*
X87230188Y-98862676D01*
X87255556Y-98893330D01*
X87287368Y-98917465D01*
X87320630Y-98931378D01*
X87356306Y-98936011D01*
X87396235Y-98930703D01*
X87433083Y-98914801D01*
X87467986Y-98887224D01*
X87495733Y-98852431D01*
X87511586Y-98816362D01*
X87516835Y-98777925D01*
X87511778Y-98768207D01*
X87492227Y-98764064D01*
X87386479Y-98768351D01*
X87250427Y-98782810D01*
X87216535Y-98789975D01*
X87210798Y-98795327D01*
X87051777Y-98795327D01*
X87048194Y-98753257D01*
X87053325Y-98722688D01*
X87067601Y-98700984D01*
X87091913Y-98685907D01*
X87160547Y-98675914D01*
X87514758Y-98646828D01*
X87503803Y-98608991D01*
X87482256Y-98574686D01*
X87448508Y-98543025D01*
X87410497Y-98520049D01*
X87371607Y-98506679D01*
X87331027Y-98502236D01*
X87261314Y-98509785D01*
X87195745Y-98532324D01*
X87132885Y-98570746D01*
X87111086Y-98588210D01*
X87103881Y-98586866D01*
X87078296Y-98539788D01*
X87054361Y-98490635D01*
X87065291Y-98475064D01*
X87118822Y-98428983D01*
X87178655Y-98396307D01*
X87246061Y-98376306D01*
X87322845Y-98369368D01*
X87401123Y-98375788D01*
G37*
G36*
X86006559Y-98408874D02*
G01*
X86010835Y-98388856D01*
X86020908Y-98383656D01*
X86085144Y-98384328D01*
X86149380Y-98385000D01*
X86161758Y-98390128D01*
X86166416Y-98407531D01*
X86164034Y-98506571D01*
X86161653Y-98606284D01*
X86164034Y-98701477D01*
X86166416Y-98797465D01*
X86171759Y-98844538D01*
X86185978Y-98877654D01*
X86208012Y-98900563D01*
X86239117Y-98915021D01*
X86282553Y-98920380D01*
X86321733Y-98912538D01*
X86380922Y-98882827D01*
X86421503Y-98852600D01*
X86440540Y-98828729D01*
X86445830Y-98809066D01*
X86445830Y-98403440D01*
X86449804Y-98388095D01*
X86460179Y-98383656D01*
X86523743Y-98384328D01*
X86587246Y-98385000D01*
X86598805Y-98389369D01*
X86602939Y-98403440D01*
X86602939Y-98733534D01*
X86611793Y-99076573D01*
X86623455Y-99317152D01*
X86624799Y-99328082D01*
X86622572Y-99337777D01*
X86616616Y-99342431D01*
X86598627Y-99345290D01*
X86539436Y-99346889D01*
X86496388Y-99352445D01*
X86454683Y-99358063D01*
X86448334Y-99355199D01*
X86445830Y-99344996D01*
X86450959Y-99150457D01*
X86456088Y-98955978D01*
X86454237Y-98942671D01*
X86450592Y-98939431D01*
X86360406Y-99011177D01*
X86314364Y-99034788D01*
X86267498Y-99048639D01*
X86219050Y-99053248D01*
X86155066Y-99047589D01*
X86106352Y-99032247D01*
X86069476Y-99008661D01*
X86042096Y-98976800D01*
X86024404Y-98937589D01*
X86012018Y-98880379D01*
X86007231Y-98799357D01*
X86008269Y-98734145D01*
X86009307Y-98668932D01*
X86007963Y-98538567D01*
X86006559Y-98408874D01*
G37*
G36*
X85649414Y-98375788D02*
G01*
X85716362Y-98394035D01*
X85774009Y-98423303D01*
X85823865Y-98463768D01*
X85864322Y-98513712D01*
X85893549Y-98571282D01*
X85911748Y-98637951D01*
X85918143Y-98715704D01*
X85912378Y-98784412D01*
X85895493Y-98847403D01*
X85867564Y-98905812D01*
X85827956Y-98960497D01*
X85776738Y-99008720D01*
X85721586Y-99042089D01*
X85661513Y-99062064D01*
X85595010Y-99068879D01*
X85532718Y-99062867D01*
X85477063Y-99045367D01*
X85426642Y-99016413D01*
X85380503Y-98975029D01*
X85343786Y-98927047D01*
X85317770Y-98874744D01*
X85301932Y-98817218D01*
X85300067Y-98795327D01*
X85459089Y-98795327D01*
X85463932Y-98830356D01*
X85478478Y-98862676D01*
X85503846Y-98893330D01*
X85535658Y-98917465D01*
X85568921Y-98931378D01*
X85604596Y-98936011D01*
X85644525Y-98930703D01*
X85681373Y-98914801D01*
X85716276Y-98887224D01*
X85744023Y-98852431D01*
X85759876Y-98816362D01*
X85765125Y-98777925D01*
X85760069Y-98768207D01*
X85740517Y-98764064D01*
X85634769Y-98768351D01*
X85498717Y-98782810D01*
X85464825Y-98789975D01*
X85459089Y-98795327D01*
X85300067Y-98795327D01*
X85296484Y-98753257D01*
X85301615Y-98722688D01*
X85315891Y-98700984D01*
X85340203Y-98685907D01*
X85408837Y-98675914D01*
X85763049Y-98646828D01*
X85752094Y-98608991D01*
X85730546Y-98574686D01*
X85696798Y-98543025D01*
X85658787Y-98520049D01*
X85619897Y-98506679D01*
X85579317Y-98502236D01*
X85509604Y-98509785D01*
X85444036Y-98532324D01*
X85381175Y-98570746D01*
X85359376Y-98588210D01*
X85352171Y-98586866D01*
X85326587Y-98539788D01*
X85302651Y-98490635D01*
X85313581Y-98475064D01*
X85367112Y-98428983D01*
X85426945Y-98396307D01*
X85494351Y-98376306D01*
X85571135Y-98369368D01*
X85649414Y-98375788D01*
G37*
G36*
X84810257Y-99027236D02*
G01*
X84812950Y-98953930D01*
X84820516Y-98890826D01*
X84825263Y-98878686D01*
X84834132Y-98875134D01*
X84877546Y-98878187D01*
X84921571Y-98881301D01*
X84976329Y-98874770D01*
X85010900Y-98858051D01*
X85031541Y-98832697D01*
X85041277Y-98795272D01*
X85045891Y-98710148D01*
X85045891Y-98634860D01*
X85042838Y-98518478D01*
X85039785Y-98402096D01*
X85043918Y-98388025D01*
X85055477Y-98383656D01*
X85119713Y-98384328D01*
X85183949Y-98385000D01*
X85195561Y-98389139D01*
X85199581Y-98402035D01*
X85197932Y-98568426D01*
X85196222Y-98735427D01*
X85200305Y-98848198D01*
X85211326Y-98937090D01*
X85227668Y-99006109D01*
X85229012Y-99014291D01*
X85226892Y-99021158D01*
X85220158Y-99025893D01*
X85149083Y-99034685D01*
X85080756Y-99049340D01*
X85073216Y-99042740D01*
X85066407Y-99008063D01*
X85060170Y-98972961D01*
X85054134Y-98966786D01*
X85050714Y-98968190D01*
X84994722Y-99004888D01*
X84963307Y-99021556D01*
X84931829Y-99033037D01*
X84903247Y-99039172D01*
X84863563Y-99041524D01*
X84827617Y-99038891D01*
X84813629Y-99033519D01*
X84810257Y-99027236D01*
G37*
G36*
X84509288Y-98375788D02*
G01*
X84576236Y-98394035D01*
X84633883Y-98423303D01*
X84683740Y-98463768D01*
X84724196Y-98513712D01*
X84753424Y-98571282D01*
X84771622Y-98637951D01*
X84778017Y-98715704D01*
X84772252Y-98784412D01*
X84755367Y-98847403D01*
X84727438Y-98905812D01*
X84687831Y-98960497D01*
X84636613Y-99008720D01*
X84581460Y-99042089D01*
X84521387Y-99062064D01*
X84454884Y-99068879D01*
X84392592Y-99062867D01*
X84336937Y-99045367D01*
X84286517Y-99016413D01*
X84240378Y-98975029D01*
X84203660Y-98927047D01*
X84177644Y-98874744D01*
X84161807Y-98817218D01*
X84159942Y-98795327D01*
X84318963Y-98795327D01*
X84323806Y-98830356D01*
X84338353Y-98862676D01*
X84363720Y-98893330D01*
X84395533Y-98917465D01*
X84428795Y-98931378D01*
X84464471Y-98936011D01*
X84504400Y-98930703D01*
X84541248Y-98914801D01*
X84576151Y-98887224D01*
X84603898Y-98852431D01*
X84619751Y-98816362D01*
X84624999Y-98777925D01*
X84619943Y-98768207D01*
X84600392Y-98764064D01*
X84494643Y-98768351D01*
X84358591Y-98782810D01*
X84324700Y-98789975D01*
X84318963Y-98795327D01*
X84159942Y-98795327D01*
X84156358Y-98753257D01*
X84161490Y-98722688D01*
X84175766Y-98700984D01*
X84200078Y-98685907D01*
X84268712Y-98675914D01*
X84622923Y-98646828D01*
X84611968Y-98608991D01*
X84590421Y-98574686D01*
X84556672Y-98543025D01*
X84518661Y-98520049D01*
X84479772Y-98506679D01*
X84439191Y-98502236D01*
X84369478Y-98509785D01*
X84303910Y-98532324D01*
X84241049Y-98570746D01*
X84219251Y-98588210D01*
X84212046Y-98586866D01*
X84186461Y-98539788D01*
X84162525Y-98490635D01*
X84173455Y-98475064D01*
X84226986Y-98428983D01*
X84286819Y-98396307D01*
X84354226Y-98376306D01*
X84431009Y-98369368D01*
X84509288Y-98375788D01*
G37*
G36*
X83875723Y-98485689D02*
G01*
X83879126Y-98456846D01*
X83889151Y-98430868D01*
X83906131Y-98406981D01*
X83928202Y-98388100D01*
X83952819Y-98377041D01*
X83980931Y-98373276D01*
X84008957Y-98377144D01*
X84033443Y-98388519D01*
X84055364Y-98408019D01*
X84076825Y-98443601D01*
X84084062Y-98485689D01*
X84080718Y-98514962D01*
X84070980Y-98540671D01*
X84054692Y-98563663D01*
X84033356Y-98581697D01*
X84009098Y-98592363D01*
X83980931Y-98596025D01*
X83952280Y-98592322D01*
X83927556Y-98581534D01*
X83905765Y-98563297D01*
X83889035Y-98540082D01*
X83879110Y-98514483D01*
X83875723Y-98485689D01*
G37*
G36*
X83575793Y-98485689D02*
G01*
X83579195Y-98456846D01*
X83589221Y-98430868D01*
X83606201Y-98406981D01*
X83628271Y-98388100D01*
X83652889Y-98377041D01*
X83681001Y-98373276D01*
X83709027Y-98377144D01*
X83733512Y-98388519D01*
X83755434Y-98408019D01*
X83776895Y-98443601D01*
X83784132Y-98485689D01*
X83780788Y-98514962D01*
X83771049Y-98540671D01*
X83754762Y-98563663D01*
X83733425Y-98581697D01*
X83709168Y-98592363D01*
X83681001Y-98596025D01*
X83652350Y-98592322D01*
X83627626Y-98581534D01*
X83605835Y-98563297D01*
X83589105Y-98540082D01*
X83579180Y-98514483D01*
X83575793Y-98485689D01*
G37*
G36*
X83275863Y-98485689D02*
G01*
X83279265Y-98456846D01*
X83289290Y-98430868D01*
X83306271Y-98406981D01*
X83328341Y-98388100D01*
X83352959Y-98377041D01*
X83381070Y-98373276D01*
X83409096Y-98377144D01*
X83433582Y-98388519D01*
X83455503Y-98408019D01*
X83476964Y-98443601D01*
X83484202Y-98485689D01*
X83480858Y-98514962D01*
X83471119Y-98540671D01*
X83454832Y-98563663D01*
X83433495Y-98581697D01*
X83409238Y-98592363D01*
X83381070Y-98596025D01*
X83352420Y-98592322D01*
X83327696Y-98581534D01*
X83305905Y-98563297D01*
X83289175Y-98540082D01*
X83279249Y-98514483D01*
X83275863Y-98485689D01*
G37*
G36*
X107283836Y-98172814D02*
G01*
X107295661Y-98178274D01*
X107299589Y-98190582D01*
X107298246Y-98453082D01*
X107296841Y-98715643D01*
X107302133Y-98873694D01*
X107317358Y-99017100D01*
X107318701Y-99028030D01*
X107316966Y-99034217D01*
X107311862Y-99037616D01*
X107236086Y-99045005D01*
X107160920Y-99057156D01*
X107152841Y-99050600D01*
X107145899Y-99017466D01*
X107142480Y-98965137D01*
X107138389Y-98954574D01*
X107127459Y-98964099D01*
X107075879Y-99009239D01*
X107027069Y-99038907D01*
X106980177Y-99055654D01*
X106934141Y-99061064D01*
X106868934Y-99054376D01*
X106810072Y-99034781D01*
X106756070Y-99002052D01*
X106705957Y-98954757D01*
X106666652Y-98901138D01*
X106638934Y-98843749D01*
X106622170Y-98781728D01*
X106616638Y-98716254D01*
X106776299Y-98716254D01*
X106782079Y-98769466D01*
X106799046Y-98817434D01*
X106827529Y-98861456D01*
X106867251Y-98899082D01*
X106911500Y-98920832D01*
X106962107Y-98928196D01*
X106999917Y-98923901D01*
X107033541Y-98911333D01*
X107064012Y-98890230D01*
X107091922Y-98859380D01*
X107117590Y-98816128D01*
X107133073Y-98768367D01*
X107138389Y-98714849D01*
X107132907Y-98660518D01*
X107116972Y-98612338D01*
X107090578Y-98568975D01*
X107061817Y-98539232D01*
X107030387Y-98518723D01*
X106995674Y-98506442D01*
X106956672Y-98502236D01*
X106919600Y-98506496D01*
X106885946Y-98519073D01*
X106854767Y-98540375D01*
X106825514Y-98571723D01*
X106798020Y-98616873D01*
X106781775Y-98664688D01*
X106776299Y-98716254D01*
X106616638Y-98716254D01*
X106616442Y-98713934D01*
X106622054Y-98646066D01*
X106638466Y-98584018D01*
X106665555Y-98526671D01*
X106703881Y-98473171D01*
X106753425Y-98425263D01*
X106807103Y-98392115D01*
X106865908Y-98372251D01*
X106931393Y-98365460D01*
X106985993Y-98371357D01*
X107034960Y-98388626D01*
X107079649Y-98417545D01*
X107136985Y-98470973D01*
X107142480Y-98460104D01*
X107143152Y-98383839D01*
X107143823Y-98191864D01*
X107148192Y-98174951D01*
X107159577Y-98170066D01*
X107283836Y-98172814D01*
G37*
G36*
X106284515Y-98375788D02*
G01*
X106351463Y-98394035D01*
X106409110Y-98423303D01*
X106458966Y-98463768D01*
X106499423Y-98513712D01*
X106528650Y-98571282D01*
X106546849Y-98637951D01*
X106553244Y-98715704D01*
X106547479Y-98784412D01*
X106530594Y-98847403D01*
X106502665Y-98905812D01*
X106463057Y-98960497D01*
X106411839Y-99008720D01*
X106356687Y-99042089D01*
X106296614Y-99062064D01*
X106230111Y-99068879D01*
X106167819Y-99062867D01*
X106112164Y-99045367D01*
X106061744Y-99016413D01*
X106015605Y-98975029D01*
X105978887Y-98927047D01*
X105952871Y-98874744D01*
X105937033Y-98817218D01*
X105935168Y-98795327D01*
X106094190Y-98795327D01*
X106099033Y-98830356D01*
X106113579Y-98862676D01*
X106138947Y-98893330D01*
X106170760Y-98917465D01*
X106204022Y-98931378D01*
X106239697Y-98936011D01*
X106279627Y-98930703D01*
X106316474Y-98914801D01*
X106351377Y-98887224D01*
X106379124Y-98852431D01*
X106394977Y-98816362D01*
X106400226Y-98777925D01*
X106395170Y-98768207D01*
X106375619Y-98764064D01*
X106269870Y-98768351D01*
X106133818Y-98782810D01*
X106099927Y-98789975D01*
X106094190Y-98795327D01*
X105935168Y-98795327D01*
X105931585Y-98753257D01*
X105936716Y-98722688D01*
X105950993Y-98700984D01*
X105975305Y-98685907D01*
X106043939Y-98675914D01*
X106398150Y-98646828D01*
X106387195Y-98608991D01*
X106365648Y-98574686D01*
X106331899Y-98543025D01*
X106293888Y-98520049D01*
X106254999Y-98506679D01*
X106214418Y-98502236D01*
X106144705Y-98509785D01*
X106079137Y-98532324D01*
X106016276Y-98570746D01*
X105994478Y-98588210D01*
X105987272Y-98586866D01*
X105961688Y-98539788D01*
X105937752Y-98490635D01*
X105948682Y-98475064D01*
X106002213Y-98428983D01*
X106062046Y-98396307D01*
X106129453Y-98376306D01*
X106206236Y-98369368D01*
X106284515Y-98375788D01*
G37*
G36*
X105455556Y-98512983D02*
G01*
X105458303Y-98470790D01*
X105462395Y-98427864D01*
X105464410Y-98412355D01*
X105477415Y-98403073D01*
X105516033Y-98390061D01*
X105572910Y-98380788D01*
X105653698Y-98377184D01*
X105706571Y-98381994D01*
X105745878Y-98394919D01*
X105774831Y-98414660D01*
X105795545Y-98441325D01*
X105808730Y-98476402D01*
X105813555Y-98522508D01*
X105810807Y-98697630D01*
X105808059Y-98872752D01*
X105811327Y-98888900D01*
X105820212Y-98898465D01*
X105836086Y-98902916D01*
X105885912Y-98903588D01*
X105895229Y-98914492D01*
X105900261Y-98959214D01*
X105897513Y-99000553D01*
X105891371Y-99013285D01*
X105875653Y-99020214D01*
X105842192Y-99020886D01*
X105823902Y-99024983D01*
X105814218Y-99033963D01*
X105810807Y-99048668D01*
X105812517Y-99131345D01*
X105814226Y-99214754D01*
X105811046Y-99246913D01*
X105804180Y-99260530D01*
X105795114Y-99264274D01*
X105666643Y-99244734D01*
X105654631Y-99239702D01*
X105650950Y-99229713D01*
X105655407Y-99139649D01*
X105659804Y-99049584D01*
X105655087Y-99034633D01*
X105641363Y-99029801D01*
X105477477Y-99029801D01*
X105468401Y-99027511D01*
X105465814Y-99021618D01*
X105468256Y-98995423D01*
X105470638Y-98968557D01*
X105469966Y-98937233D01*
X105469233Y-98905969D01*
X105473430Y-98896690D01*
X105488406Y-98893025D01*
X105571022Y-98896933D01*
X105653698Y-98900840D01*
X105657285Y-98895711D01*
X105661880Y-98861823D01*
X105665299Y-98725718D01*
X105665299Y-98623808D01*
X105661941Y-98569506D01*
X105654369Y-98541742D01*
X105640244Y-98522562D01*
X105618655Y-98510615D01*
X105586714Y-98506144D01*
X105524554Y-98515914D01*
X105463738Y-98525683D01*
X105457906Y-98522948D01*
X105455556Y-98512983D01*
G37*
G36*
X104406777Y-98398677D02*
G01*
X104410292Y-98387291D01*
X104420393Y-98383656D01*
X104487682Y-98384328D01*
X104555032Y-98385000D01*
X104563740Y-98389204D01*
X104567306Y-98404783D01*
X104565291Y-98506510D01*
X104563214Y-98608970D01*
X104563886Y-98690608D01*
X104564558Y-98772185D01*
X104567740Y-98824178D01*
X104575823Y-98859330D01*
X104587150Y-98882156D01*
X104608447Y-98902124D01*
X104640699Y-98915324D01*
X104688206Y-98920380D01*
X104724396Y-98912589D01*
X104783155Y-98881973D01*
X104823580Y-98851732D01*
X104842284Y-98828582D01*
X104847391Y-98810165D01*
X104847391Y-98400692D01*
X104850937Y-98387547D01*
X104860397Y-98383656D01*
X104925915Y-98384328D01*
X104991494Y-98385000D01*
X105002145Y-98388818D01*
X105005844Y-98400753D01*
X105004134Y-98562869D01*
X105002424Y-98725657D01*
X105006001Y-98822503D01*
X105016385Y-98911920D01*
X105033138Y-98994569D01*
X105035214Y-99003422D01*
X105033195Y-99009021D01*
X105026360Y-99013009D01*
X104948141Y-99025648D01*
X104871266Y-99037616D01*
X104868297Y-99035629D01*
X104865831Y-99026503D01*
X104860248Y-98983666D01*
X104850139Y-98939919D01*
X104756533Y-99009528D01*
X104707305Y-99034612D01*
X104661387Y-99048730D01*
X104617864Y-99053248D01*
X104553669Y-99047684D01*
X104505199Y-99032664D01*
X104468882Y-99009708D01*
X104442253Y-98978876D01*
X104424661Y-98940493D01*
X104412266Y-98883611D01*
X104407449Y-98802044D01*
X104408487Y-98737198D01*
X104409464Y-98671680D01*
X104408120Y-98535148D01*
X104406777Y-98398677D01*
G37*
G36*
X104071465Y-98376013D02*
G01*
X104129055Y-98395498D01*
X104181931Y-98428097D01*
X104231044Y-98475308D01*
X104268879Y-98528243D01*
X104295543Y-98584592D01*
X104311648Y-98645160D01*
X104317140Y-98711003D01*
X104311328Y-98786014D01*
X104294652Y-98851839D01*
X104267714Y-98910028D01*
X104230373Y-98961779D01*
X104181528Y-99006799D01*
X104126344Y-99038662D01*
X104063545Y-99058181D01*
X103991259Y-99064972D01*
X103940498Y-99060319D01*
X103893745Y-99046630D01*
X103850089Y-99023805D01*
X103808870Y-98991088D01*
X103772661Y-98950666D01*
X103768570Y-98948651D01*
X103765313Y-98953787D01*
X103756969Y-98991149D01*
X103746548Y-99026789D01*
X103737857Y-99033709D01*
X103668858Y-99023756D01*
X103620737Y-99009820D01*
X103612866Y-99002445D01*
X103614881Y-98990172D01*
X103635420Y-98839042D01*
X103641503Y-98721139D01*
X103641442Y-98720040D01*
X103787011Y-98720040D01*
X103792737Y-98773994D01*
X103809348Y-98821358D01*
X103836897Y-98863593D01*
X103875640Y-98899775D01*
X103919848Y-98920950D01*
X103971475Y-98928196D01*
X104023195Y-98921058D01*
X104068134Y-98900112D01*
X104108129Y-98864265D01*
X104137335Y-98821023D01*
X104154751Y-98773416D01*
X104160702Y-98720040D01*
X104154753Y-98667129D01*
X104137342Y-98619992D01*
X104108129Y-98577219D01*
X104068183Y-98541781D01*
X104023242Y-98521036D01*
X103971475Y-98513960D01*
X103921160Y-98521111D01*
X103877119Y-98542206D01*
X103837569Y-98578562D01*
X103809476Y-98621212D01*
X103792726Y-98667933D01*
X103787011Y-98720040D01*
X103641442Y-98720040D01*
X103624467Y-98415347D01*
X103623795Y-98405760D01*
X103628020Y-98390889D01*
X103641869Y-98386038D01*
X103698595Y-98381641D01*
X103754954Y-98377184D01*
X103764398Y-98385048D01*
X103774799Y-98426032D01*
X103783232Y-98468573D01*
X103787743Y-98474881D01*
X103824624Y-98447831D01*
X103865031Y-98417508D01*
X103899790Y-98397151D01*
X103954500Y-98376115D01*
X104007684Y-98369368D01*
X104071465Y-98376013D01*
G37*
G36*
X102462787Y-98410218D02*
G01*
X102467412Y-98389206D01*
X102478480Y-98383656D01*
X102509560Y-98385671D01*
X102541311Y-98387747D01*
X102576177Y-98386343D01*
X102610981Y-98385000D01*
X102620760Y-98391059D01*
X102625331Y-98416934D01*
X102622949Y-98510357D01*
X102620568Y-98603780D01*
X102621911Y-98795389D01*
X102628542Y-98841839D01*
X102638511Y-98872556D01*
X102650610Y-98891864D01*
X102670520Y-98906487D01*
X102700833Y-98916496D01*
X102745559Y-98920380D01*
X102773128Y-98916506D01*
X102805009Y-98903740D01*
X102842585Y-98879591D01*
X102876513Y-98848289D01*
X102894443Y-98820670D01*
X102900653Y-98795389D01*
X102903401Y-98601704D01*
X102900653Y-98501809D01*
X102897906Y-98401974D01*
X102901401Y-98387662D01*
X102910240Y-98383656D01*
X102946083Y-98385671D01*
X102981986Y-98387747D01*
X103014104Y-98386343D01*
X103046161Y-98385000D01*
X103055997Y-98389357D01*
X103059839Y-98404722D01*
X103057824Y-98502847D01*
X103055748Y-98601032D01*
X103055748Y-98764797D01*
X103061280Y-98835635D01*
X103074188Y-98874157D01*
X103095398Y-98898833D01*
X103127072Y-98914495D01*
X103173228Y-98920380D01*
X103217131Y-98912481D01*
X103275688Y-98884354D01*
X103315804Y-98854564D01*
X103335492Y-98828599D01*
X103341268Y-98804853D01*
X103341268Y-98606467D01*
X103340596Y-98505228D01*
X103339924Y-98404722D01*
X103344147Y-98389567D01*
X103355617Y-98385000D01*
X103482684Y-98385000D01*
X103492599Y-98389169D01*
X103496362Y-98403440D01*
X103495690Y-98569830D01*
X103494957Y-98736221D01*
X103501586Y-98860852D01*
X103521580Y-98985654D01*
X103523656Y-99000003D01*
X103521948Y-99007289D01*
X103517489Y-99010261D01*
X103443727Y-99021069D01*
X103376072Y-99036884D01*
X103370638Y-99037616D01*
X103364701Y-99030570D01*
X103355311Y-98986570D01*
X103346690Y-98941844D01*
X103342611Y-98935523D01*
X103308478Y-98966175D01*
X103267310Y-98998655D01*
X103227878Y-99022595D01*
X103168924Y-99045817D01*
X103111740Y-99053248D01*
X103049959Y-99047347D01*
X103001398Y-99031072D01*
X102963177Y-99005499D01*
X102933436Y-98970200D01*
X102911583Y-98923311D01*
X102864334Y-98973568D01*
X102806376Y-99014535D01*
X102760579Y-99036555D01*
X102716646Y-99049158D01*
X102673874Y-99053248D01*
X102610792Y-99047788D01*
X102562669Y-99032984D01*
X102526174Y-99010262D01*
X102498996Y-98979670D01*
X102481272Y-98941458D01*
X102468904Y-98885887D01*
X102464130Y-98807356D01*
X102465535Y-98737869D01*
X102466878Y-98668382D01*
X102464863Y-98539300D01*
X102462787Y-98410218D01*
G37*
G36*
X102101123Y-98375788D02*
G01*
X102168071Y-98394035D01*
X102225719Y-98423303D01*
X102275575Y-98463768D01*
X102316032Y-98513712D01*
X102345259Y-98571282D01*
X102363458Y-98637951D01*
X102369853Y-98715704D01*
X102364088Y-98784412D01*
X102347202Y-98847403D01*
X102319273Y-98905812D01*
X102279666Y-98960497D01*
X102228448Y-99008720D01*
X102173295Y-99042089D01*
X102113222Y-99062064D01*
X102046719Y-99068879D01*
X101984427Y-99062867D01*
X101928773Y-99045367D01*
X101878352Y-99016413D01*
X101832213Y-98975029D01*
X101795495Y-98927047D01*
X101769480Y-98874744D01*
X101753642Y-98817218D01*
X101751777Y-98795327D01*
X101910798Y-98795327D01*
X101915642Y-98830356D01*
X101930188Y-98862676D01*
X101955556Y-98893330D01*
X101987368Y-98917465D01*
X102020630Y-98931378D01*
X102056306Y-98936011D01*
X102096235Y-98930703D01*
X102133083Y-98914801D01*
X102167986Y-98887224D01*
X102195733Y-98852431D01*
X102211586Y-98816362D01*
X102216835Y-98777925D01*
X102211778Y-98768207D01*
X102192227Y-98764064D01*
X102086479Y-98768351D01*
X101950427Y-98782810D01*
X101916535Y-98789975D01*
X101910798Y-98795327D01*
X101751777Y-98795327D01*
X101748194Y-98753257D01*
X101753325Y-98722688D01*
X101767601Y-98700984D01*
X101791913Y-98685907D01*
X101860547Y-98675914D01*
X102214758Y-98646828D01*
X102203803Y-98608991D01*
X102182256Y-98574686D01*
X102148508Y-98543025D01*
X102110497Y-98520049D01*
X102071607Y-98506679D01*
X102031027Y-98502236D01*
X101961314Y-98509785D01*
X101895745Y-98532324D01*
X101832885Y-98570746D01*
X101811086Y-98588210D01*
X101803881Y-98586866D01*
X101778296Y-98539788D01*
X101754361Y-98490635D01*
X101765291Y-98475064D01*
X101818822Y-98428983D01*
X101878655Y-98396307D01*
X101946061Y-98376306D01*
X102022845Y-98369368D01*
X102101123Y-98375788D01*
G37*
G36*
X100706559Y-98408874D02*
G01*
X100710835Y-98388856D01*
X100720908Y-98383656D01*
X100785144Y-98384328D01*
X100849380Y-98385000D01*
X100861758Y-98390128D01*
X100866416Y-98407531D01*
X100864034Y-98506571D01*
X100861653Y-98606284D01*
X100864034Y-98701477D01*
X100866416Y-98797465D01*
X100871759Y-98844538D01*
X100885978Y-98877654D01*
X100908012Y-98900563D01*
X100939117Y-98915021D01*
X100982553Y-98920380D01*
X101021733Y-98912538D01*
X101080922Y-98882827D01*
X101121503Y-98852600D01*
X101140540Y-98828729D01*
X101145830Y-98809066D01*
X101145830Y-98403440D01*
X101149804Y-98388095D01*
X101160179Y-98383656D01*
X101223743Y-98384328D01*
X101287246Y-98385000D01*
X101298805Y-98389369D01*
X101302939Y-98403440D01*
X101302939Y-98733534D01*
X101311793Y-99076573D01*
X101323455Y-99317152D01*
X101324799Y-99328082D01*
X101322572Y-99337777D01*
X101316616Y-99342431D01*
X101298627Y-99345290D01*
X101239436Y-99346889D01*
X101196388Y-99352445D01*
X101154683Y-99358063D01*
X101148334Y-99355199D01*
X101145830Y-99344996D01*
X101150959Y-99150457D01*
X101156088Y-98955978D01*
X101154237Y-98942671D01*
X101150592Y-98939431D01*
X101060406Y-99011177D01*
X101014364Y-99034788D01*
X100967498Y-99048639D01*
X100919050Y-99053248D01*
X100855066Y-99047589D01*
X100806352Y-99032247D01*
X100769476Y-99008661D01*
X100742096Y-98976800D01*
X100724404Y-98937589D01*
X100712018Y-98880379D01*
X100707231Y-98799357D01*
X100708269Y-98734145D01*
X100709307Y-98668932D01*
X100707963Y-98538567D01*
X100706559Y-98408874D01*
G37*
G36*
X100349414Y-98375788D02*
G01*
X100416362Y-98394035D01*
X100474009Y-98423303D01*
X100523865Y-98463768D01*
X100564322Y-98513712D01*
X100593549Y-98571282D01*
X100611748Y-98637951D01*
X100618143Y-98715704D01*
X100612378Y-98784412D01*
X100595493Y-98847403D01*
X100567564Y-98905812D01*
X100527956Y-98960497D01*
X100476738Y-99008720D01*
X100421586Y-99042089D01*
X100361513Y-99062064D01*
X100295010Y-99068879D01*
X100232718Y-99062867D01*
X100177063Y-99045367D01*
X100126642Y-99016413D01*
X100080503Y-98975029D01*
X100043786Y-98927047D01*
X100017770Y-98874744D01*
X100001932Y-98817218D01*
X100000067Y-98795327D01*
X100159089Y-98795327D01*
X100163932Y-98830356D01*
X100178478Y-98862676D01*
X100203846Y-98893330D01*
X100235658Y-98917465D01*
X100268921Y-98931378D01*
X100304596Y-98936011D01*
X100344525Y-98930703D01*
X100381373Y-98914801D01*
X100416276Y-98887224D01*
X100444023Y-98852431D01*
X100459876Y-98816362D01*
X100465125Y-98777925D01*
X100460069Y-98768207D01*
X100440517Y-98764064D01*
X100334769Y-98768351D01*
X100198717Y-98782810D01*
X100164825Y-98789975D01*
X100159089Y-98795327D01*
X100000067Y-98795327D01*
X99996484Y-98753257D01*
X100001615Y-98722688D01*
X100015891Y-98700984D01*
X100040203Y-98685907D01*
X100108837Y-98675914D01*
X100463049Y-98646828D01*
X100452094Y-98608991D01*
X100430546Y-98574686D01*
X100396798Y-98543025D01*
X100358787Y-98520049D01*
X100319897Y-98506679D01*
X100279317Y-98502236D01*
X100209604Y-98509785D01*
X100144036Y-98532324D01*
X100081175Y-98570746D01*
X100059376Y-98588210D01*
X100052171Y-98586866D01*
X100026587Y-98539788D01*
X100002651Y-98490635D01*
X100013581Y-98475064D01*
X100067112Y-98428983D01*
X100126945Y-98396307D01*
X100194351Y-98376306D01*
X100271135Y-98369368D01*
X100349414Y-98375788D01*
G37*
G36*
X99510257Y-99027236D02*
G01*
X99512950Y-98953930D01*
X99520516Y-98890826D01*
X99525263Y-98878686D01*
X99534132Y-98875134D01*
X99577546Y-98878187D01*
X99621571Y-98881301D01*
X99676329Y-98874770D01*
X99710900Y-98858051D01*
X99731541Y-98832697D01*
X99741277Y-98795272D01*
X99745891Y-98710148D01*
X99745891Y-98634860D01*
X99742838Y-98518478D01*
X99739785Y-98402096D01*
X99743918Y-98388025D01*
X99755477Y-98383656D01*
X99819713Y-98384328D01*
X99883949Y-98385000D01*
X99895561Y-98389139D01*
X99899581Y-98402035D01*
X99897932Y-98568426D01*
X99896222Y-98735427D01*
X99900305Y-98848198D01*
X99911326Y-98937090D01*
X99927668Y-99006109D01*
X99929012Y-99014291D01*
X99926892Y-99021158D01*
X99920158Y-99025893D01*
X99849083Y-99034685D01*
X99780756Y-99049340D01*
X99773216Y-99042740D01*
X99766407Y-99008063D01*
X99760170Y-98972961D01*
X99754134Y-98966786D01*
X99750714Y-98968190D01*
X99694722Y-99004888D01*
X99663307Y-99021556D01*
X99631829Y-99033037D01*
X99603247Y-99039172D01*
X99563563Y-99041524D01*
X99527617Y-99038891D01*
X99513629Y-99033519D01*
X99510257Y-99027236D01*
G37*
G36*
X99209288Y-98375788D02*
G01*
X99276236Y-98394035D01*
X99333883Y-98423303D01*
X99383740Y-98463768D01*
X99424196Y-98513712D01*
X99453424Y-98571282D01*
X99471622Y-98637951D01*
X99478017Y-98715704D01*
X99472252Y-98784412D01*
X99455367Y-98847403D01*
X99427438Y-98905812D01*
X99387831Y-98960497D01*
X99336613Y-99008720D01*
X99281460Y-99042089D01*
X99221387Y-99062064D01*
X99154884Y-99068879D01*
X99092592Y-99062867D01*
X99036937Y-99045367D01*
X98986517Y-99016413D01*
X98940378Y-98975029D01*
X98903660Y-98927047D01*
X98877644Y-98874744D01*
X98861807Y-98817218D01*
X98859942Y-98795327D01*
X99018963Y-98795327D01*
X99023806Y-98830356D01*
X99038353Y-98862676D01*
X99063720Y-98893330D01*
X99095533Y-98917465D01*
X99128795Y-98931378D01*
X99164471Y-98936011D01*
X99204400Y-98930703D01*
X99241248Y-98914801D01*
X99276151Y-98887224D01*
X99303898Y-98852431D01*
X99319751Y-98816362D01*
X99324999Y-98777925D01*
X99319943Y-98768207D01*
X99300392Y-98764064D01*
X99194643Y-98768351D01*
X99058591Y-98782810D01*
X99024700Y-98789975D01*
X99018963Y-98795327D01*
X98859942Y-98795327D01*
X98856358Y-98753257D01*
X98861490Y-98722688D01*
X98875766Y-98700984D01*
X98900078Y-98685907D01*
X98968712Y-98675914D01*
X99322923Y-98646828D01*
X99311968Y-98608991D01*
X99290421Y-98574686D01*
X99256672Y-98543025D01*
X99218661Y-98520049D01*
X99179772Y-98506679D01*
X99139191Y-98502236D01*
X99069478Y-98509785D01*
X99003910Y-98532324D01*
X98941049Y-98570746D01*
X98919251Y-98588210D01*
X98912046Y-98586866D01*
X98886461Y-98539788D01*
X98862525Y-98490635D01*
X98873455Y-98475064D01*
X98926986Y-98428983D01*
X98986819Y-98396307D01*
X99054226Y-98376306D01*
X99131009Y-98369368D01*
X99209288Y-98375788D01*
G37*
G36*
X98575723Y-98485689D02*
G01*
X98579126Y-98456846D01*
X98589151Y-98430868D01*
X98606131Y-98406981D01*
X98628202Y-98388100D01*
X98652819Y-98377041D01*
X98680931Y-98373276D01*
X98708957Y-98377144D01*
X98733443Y-98388519D01*
X98755364Y-98408019D01*
X98776825Y-98443601D01*
X98784062Y-98485689D01*
X98780718Y-98514962D01*
X98770980Y-98540671D01*
X98754692Y-98563663D01*
X98733356Y-98581697D01*
X98709098Y-98592363D01*
X98680931Y-98596025D01*
X98652280Y-98592322D01*
X98627556Y-98581534D01*
X98605765Y-98563297D01*
X98589035Y-98540082D01*
X98579110Y-98514483D01*
X98575723Y-98485689D01*
G37*
G36*
X98275793Y-98485689D02*
G01*
X98279195Y-98456846D01*
X98289221Y-98430868D01*
X98306201Y-98406981D01*
X98328271Y-98388100D01*
X98352889Y-98377041D01*
X98381001Y-98373276D01*
X98409027Y-98377144D01*
X98433512Y-98388519D01*
X98455434Y-98408019D01*
X98476895Y-98443601D01*
X98484132Y-98485689D01*
X98480788Y-98514962D01*
X98471049Y-98540671D01*
X98454762Y-98563663D01*
X98433425Y-98581697D01*
X98409168Y-98592363D01*
X98381001Y-98596025D01*
X98352350Y-98592322D01*
X98327626Y-98581534D01*
X98305835Y-98563297D01*
X98289105Y-98540082D01*
X98279180Y-98514483D01*
X98275793Y-98485689D01*
G37*
G36*
X97975863Y-98485689D02*
G01*
X97979265Y-98456846D01*
X97989290Y-98430868D01*
X98006271Y-98406981D01*
X98028341Y-98388100D01*
X98052959Y-98377041D01*
X98081070Y-98373276D01*
X98109096Y-98377144D01*
X98133582Y-98388519D01*
X98155503Y-98408019D01*
X98176964Y-98443601D01*
X98184202Y-98485689D01*
X98180858Y-98514962D01*
X98171119Y-98540671D01*
X98154832Y-98563663D01*
X98133495Y-98581697D01*
X98109238Y-98592363D01*
X98081070Y-98596025D01*
X98052420Y-98592322D01*
X98027696Y-98581534D01*
X98005905Y-98563297D01*
X97989175Y-98540082D01*
X97979249Y-98514483D01*
X97975863Y-98485689D01*
G37*
D10*
G36*
X93284795Y-95217339D02*
G01*
X93287922Y-95129128D01*
X93295054Y-95082212D01*
X93303511Y-95067331D01*
X93318928Y-95062489D01*
X93470603Y-95068290D01*
X93622217Y-95074091D01*
X93764977Y-95072015D01*
X93907737Y-95070000D01*
X93920560Y-95074274D01*
X93924834Y-95087096D01*
X93919766Y-95311922D01*
X93914637Y-95537419D01*
X93921781Y-95774884D01*
X93928925Y-96012411D01*
X93924830Y-96023515D01*
X93911828Y-96027431D01*
X93874275Y-96025355D01*
X93835990Y-96023340D01*
X93797766Y-96025355D01*
X93759481Y-96027431D01*
X93746900Y-96023942D01*
X93743117Y-96014487D01*
X93748613Y-95796622D01*
X93754047Y-95578086D01*
X93754047Y-95470191D01*
X93754780Y-95362297D01*
X93751917Y-95251406D01*
X93746720Y-95216253D01*
X93742445Y-95210683D01*
X93506027Y-95214003D01*
X93361976Y-95222041D01*
X93330530Y-95226437D01*
X93299145Y-95230223D01*
X93288257Y-95226887D01*
X93284795Y-95217339D01*
G37*
G36*
X108498804Y-95070976D02*
G01*
X108540814Y-95074091D01*
X108576352Y-95072015D01*
X108611828Y-95070000D01*
X108624765Y-95074044D01*
X108628925Y-95085753D01*
X108621781Y-95313815D01*
X108614637Y-95541877D01*
X108618430Y-95761323D01*
X108630329Y-96002824D01*
X108631001Y-96013754D01*
X108625840Y-96023103D01*
X108602302Y-96027431D01*
X108426448Y-96030484D01*
X108251203Y-96033538D01*
X108175198Y-96028470D01*
X108110472Y-96014172D01*
X108055227Y-95991585D01*
X108007998Y-95961058D01*
X107964254Y-95917497D01*
X107933054Y-95866276D01*
X107913705Y-95805866D01*
X107906882Y-95733974D01*
X107908971Y-95694406D01*
X108077669Y-95694406D01*
X108083063Y-95756372D01*
X108097509Y-95802285D01*
X108119424Y-95835928D01*
X108148743Y-95859881D01*
X108185793Y-95874996D01*
X108245885Y-95886170D01*
X108337971Y-95890655D01*
X108415669Y-95887044D01*
X108444258Y-95879983D01*
X108450689Y-95872887D01*
X108453816Y-95821085D01*
X108455451Y-95675233D01*
X108455451Y-95544624D01*
X108446598Y-95541877D01*
X108406236Y-95538457D01*
X108266224Y-95535038D01*
X108202898Y-95540495D01*
X108156221Y-95555072D01*
X108122243Y-95577109D01*
X108098252Y-95606493D01*
X108083155Y-95644675D01*
X108077669Y-95694406D01*
X107908971Y-95694406D01*
X107910442Y-95666540D01*
X107920010Y-95614393D01*
X107934237Y-95574605D01*
X107957156Y-95536461D01*
X107991844Y-95497589D01*
X108040788Y-95457613D01*
X108051109Y-95448103D01*
X108053794Y-95440516D01*
X108044293Y-95415044D01*
X107972156Y-95258677D01*
X107900297Y-95102385D01*
X107890518Y-95075495D01*
X107892675Y-95071696D01*
X107901448Y-95070000D01*
X107941076Y-95072076D01*
X107980704Y-95074152D01*
X108023386Y-95072076D01*
X108066067Y-95070000D01*
X108079614Y-95074054D01*
X108090003Y-95087096D01*
X108214323Y-95375181D01*
X108223589Y-95388746D01*
X108239389Y-95398916D01*
X108264209Y-95405406D01*
X108326369Y-95406078D01*
X108438354Y-95403330D01*
X108448152Y-95395675D01*
X108452704Y-95368403D01*
X108448307Y-95225033D01*
X108443850Y-95082334D01*
X108447328Y-95071465D01*
X108457527Y-95067923D01*
X108498804Y-95070976D01*
G37*
D11*
G36*
X112221179Y-186278517D02*
G01*
X112218936Y-186365397D01*
X112215012Y-186390563D01*
X112192404Y-186433929D01*
X112104370Y-186569837D01*
X112007863Y-186703760D01*
X111981394Y-186730000D01*
X111967220Y-186732656D01*
X111923996Y-186734091D01*
X111863913Y-186730000D01*
X111837836Y-186705999D01*
X111738921Y-186575943D01*
X111648100Y-186444292D01*
X111623456Y-186400760D01*
X111611893Y-186351837D01*
X111607030Y-186267831D01*
X111608374Y-186184056D01*
X111609778Y-186100219D01*
X111613533Y-186088954D01*
X111624799Y-186085198D01*
X111692088Y-186087274D01*
X111759438Y-186089289D01*
X111768537Y-186092579D01*
X111771711Y-186102906D01*
X111768963Y-186167325D01*
X111766216Y-186231744D01*
X111768009Y-186293105D01*
X111773054Y-186346233D01*
X111786172Y-186379692D01*
X111842358Y-186472934D01*
X111891409Y-186543049D01*
X111914574Y-186568737D01*
X111923996Y-186573684D01*
X111941269Y-186560084D01*
X111998491Y-186474949D01*
X112048787Y-186385748D01*
X112061322Y-186353072D01*
X112065135Y-186312725D01*
X112066817Y-186235530D01*
X112062360Y-186167936D01*
X112057903Y-186100219D01*
X112060467Y-186092526D01*
X112068161Y-186089961D01*
X112134412Y-186087580D01*
X112199991Y-186085198D01*
X112207760Y-186093258D01*
X112216481Y-186139322D01*
X112221179Y-186278517D01*
G37*
G36*
X112929850Y-186602688D02*
G01*
X112927774Y-186663993D01*
X112925758Y-186725908D01*
X112920848Y-186736660D01*
X112903227Y-186740929D01*
X112838625Y-186735434D01*
X112624485Y-186730000D01*
X112477939Y-186732076D01*
X112330722Y-186734152D01*
X112317804Y-186730613D01*
X112310938Y-186720352D01*
X112293231Y-186621434D01*
X112299992Y-186615234D01*
X112341041Y-186604947D01*
X112389008Y-186593381D01*
X112407964Y-186583820D01*
X112500395Y-186495555D01*
X112594504Y-186388731D01*
X112654317Y-186307821D01*
X112689889Y-186246544D01*
X112707627Y-186200670D01*
X112712657Y-186166409D01*
X112707031Y-186127414D01*
X112690514Y-186093791D01*
X112662098Y-186064071D01*
X112629032Y-186043292D01*
X112592704Y-186030840D01*
X112552128Y-186026580D01*
X112491824Y-186032344D01*
X112430495Y-186050027D01*
X112389383Y-186068552D01*
X112347147Y-186093014D01*
X112311610Y-186116461D01*
X112304099Y-186120369D01*
X112299224Y-186114267D01*
X112295917Y-186096556D01*
X112291826Y-186049600D01*
X112278658Y-185998624D01*
X112277477Y-185999225D01*
X112287735Y-185985914D01*
X112347860Y-185948171D01*
X112428480Y-185915755D01*
X112510385Y-185896019D01*
X112584246Y-185889804D01*
X112666192Y-185896891D01*
X112734305Y-185916822D01*
X112791242Y-185948545D01*
X112831608Y-185985133D01*
X112859966Y-186027716D01*
X112877352Y-186077468D01*
X112883443Y-186136306D01*
X112877112Y-186182090D01*
X112855613Y-186238745D01*
X112813916Y-186309530D01*
X112745581Y-186397926D01*
X112642986Y-186507677D01*
X112558967Y-186597131D01*
X112603358Y-186598475D01*
X112741879Y-186594510D01*
X112910066Y-186581500D01*
X112915500Y-186580767D01*
X112925748Y-186585514D01*
X112929850Y-186602688D01*
G37*
G36*
X113202119Y-186629310D02*
G01*
X113198717Y-186658153D01*
X113188692Y-186684131D01*
X113171711Y-186708018D01*
X113149641Y-186726899D01*
X113125023Y-186737958D01*
X113096912Y-186741723D01*
X113068886Y-186737855D01*
X113044400Y-186726480D01*
X113022479Y-186706980D01*
X113001018Y-186671398D01*
X112993780Y-186629310D01*
X112997124Y-186600037D01*
X113006863Y-186574328D01*
X113023150Y-186551336D01*
X113044487Y-186533302D01*
X113068744Y-186522636D01*
X113096912Y-186518974D01*
X113125562Y-186522677D01*
X113150286Y-186533465D01*
X113172077Y-186551702D01*
X113188807Y-186574917D01*
X113198733Y-186600516D01*
X113202119Y-186629310D01*
G37*
G36*
X113561462Y-185922288D02*
G01*
X113560790Y-185934562D01*
X113549836Y-186077786D01*
X113545097Y-186339455D01*
X113546441Y-186520073D01*
X113547845Y-186700690D01*
X113545012Y-186716171D01*
X113537729Y-186724344D01*
X113525253Y-186727252D01*
X113460345Y-186728656D01*
X113396842Y-186730000D01*
X113380591Y-186725408D01*
X113375654Y-186712841D01*
X113384569Y-186460478D01*
X113388660Y-186124399D01*
X113386461Y-186111599D01*
X113381821Y-186108646D01*
X113363391Y-186110995D01*
X113330225Y-186120369D01*
X113297016Y-186129716D01*
X113277957Y-186132093D01*
X113265385Y-186129619D01*
X113262264Y-186124033D01*
X113263974Y-186099853D01*
X113265683Y-186075734D01*
X113264279Y-186053569D01*
X113262936Y-186031404D01*
X113266046Y-186023988D01*
X113277957Y-186016505D01*
X113316971Y-185995474D01*
X113361976Y-185960451D01*
X113399590Y-185919419D01*
X113433723Y-185885896D01*
X113490448Y-185898658D01*
X113551875Y-185909344D01*
X113559049Y-185913932D01*
X113561462Y-185922288D01*
G37*
D12*
G36*
X93286680Y-93625096D02*
G01*
X93315037Y-93505844D01*
X93344155Y-93425331D01*
X93354275Y-93413411D01*
X93465613Y-93460232D01*
X93523495Y-93477742D01*
X93587942Y-93483752D01*
X93683851Y-93471181D01*
X93766784Y-93434492D01*
X93840074Y-93372304D01*
X93896204Y-93293317D01*
X93929506Y-93206468D01*
X93940860Y-93109072D01*
X93929521Y-93013420D01*
X93896248Y-92928223D01*
X93840074Y-92850785D01*
X93765266Y-92787645D01*
X93682258Y-92750690D01*
X93587942Y-92738128D01*
X93506880Y-92747625D01*
X93425606Y-92776816D01*
X93357191Y-92812363D01*
X93355484Y-92815504D01*
X93343160Y-92801348D01*
X93319873Y-92712409D01*
X93301408Y-92583486D01*
X93310534Y-92564358D01*
X93349082Y-92540014D01*
X93445280Y-92508527D01*
X93558539Y-92484120D01*
X93623552Y-92477863D01*
X93746182Y-92489877D01*
X93856754Y-92525000D01*
X93957937Y-92583394D01*
X94051539Y-92667236D01*
X94126662Y-92764461D01*
X94179534Y-92869018D01*
X94211509Y-92982580D01*
X94222448Y-93107423D01*
X94211597Y-93235117D01*
X94180057Y-93349959D01*
X94128256Y-93454368D01*
X94055166Y-93550138D01*
X93962977Y-93632481D01*
X93862156Y-93690133D01*
X93750791Y-93725000D01*
X93626080Y-93736983D01*
X93513757Y-93727233D01*
X93409427Y-93698492D01*
X93311300Y-93650595D01*
X93291280Y-93635200D01*
X93286680Y-93625096D01*
G37*
G36*
X92060313Y-92548974D02*
G01*
X92068010Y-92512942D01*
X92086141Y-92503581D01*
X92201766Y-92504790D01*
X92317390Y-92506000D01*
X92339670Y-92515231D01*
X92348055Y-92546556D01*
X92343769Y-92724829D01*
X92339482Y-92904311D01*
X92343769Y-93075659D01*
X92348055Y-93248437D01*
X92357673Y-93333169D01*
X92383268Y-93392777D01*
X92422929Y-93434013D01*
X92478916Y-93460038D01*
X92557103Y-93469684D01*
X92627625Y-93455569D01*
X92734166Y-93402090D01*
X92807212Y-93347680D01*
X92841478Y-93304712D01*
X92851000Y-93269319D01*
X92851000Y-92539192D01*
X92858154Y-92511572D01*
X92876829Y-92503581D01*
X92991244Y-92504790D01*
X93105550Y-92506000D01*
X93126356Y-92513864D01*
X93133797Y-92539192D01*
X93133797Y-93133362D01*
X93149733Y-93750832D01*
X93170726Y-94183875D01*
X93173144Y-94203548D01*
X93169136Y-94221000D01*
X93158416Y-94229377D01*
X93126035Y-94234522D01*
X93019491Y-94237400D01*
X92942005Y-94247402D01*
X92866937Y-94257514D01*
X92855508Y-94252359D01*
X92851000Y-94233993D01*
X92860232Y-93883822D01*
X92869465Y-93533761D01*
X92866133Y-93509809D01*
X92859573Y-93503976D01*
X92697237Y-93633119D01*
X92614361Y-93675619D01*
X92530004Y-93700551D01*
X92442797Y-93708847D01*
X92327625Y-93698661D01*
X92239940Y-93671044D01*
X92173563Y-93628590D01*
X92124280Y-93571240D01*
X92092434Y-93500661D01*
X92070139Y-93397682D01*
X92061522Y-93251844D01*
X92063390Y-93134461D01*
X92065259Y-93017078D01*
X92062841Y-92782421D01*
X92060313Y-92548974D01*
G37*
G36*
X91417451Y-92489418D02*
G01*
X91537958Y-92522264D01*
X91641723Y-92574945D01*
X91731464Y-92647782D01*
X91804286Y-92737682D01*
X91856895Y-92841307D01*
X91889653Y-92961311D01*
X91901164Y-93101268D01*
X91890787Y-93224941D01*
X91860393Y-93338326D01*
X91810121Y-93443462D01*
X91738828Y-93541894D01*
X91646636Y-93628697D01*
X91547361Y-93688761D01*
X91439230Y-93724716D01*
X91319524Y-93736983D01*
X91207399Y-93726161D01*
X91107220Y-93694660D01*
X91016463Y-93642544D01*
X90933413Y-93568053D01*
X90867321Y-93481685D01*
X90820493Y-93387539D01*
X90791985Y-93283993D01*
X90788629Y-93244590D01*
X91074866Y-93244590D01*
X91083584Y-93307642D01*
X91109768Y-93365816D01*
X91155430Y-93420994D01*
X91212692Y-93464437D01*
X91272564Y-93489482D01*
X91336780Y-93497821D01*
X91408652Y-93488266D01*
X91474978Y-93459643D01*
X91537804Y-93410003D01*
X91587748Y-93347375D01*
X91616284Y-93282453D01*
X91625731Y-93213266D01*
X91616630Y-93195774D01*
X91581438Y-93188316D01*
X91391091Y-93196031D01*
X91146197Y-93222058D01*
X91085192Y-93234955D01*
X91074866Y-93244590D01*
X90788629Y-93244590D01*
X90782178Y-93168862D01*
X90791414Y-93113839D01*
X90817111Y-93074772D01*
X90860873Y-93047632D01*
X90984414Y-93029646D01*
X91621994Y-92977290D01*
X91602275Y-92909184D01*
X91563490Y-92847436D01*
X91502743Y-92790445D01*
X91434323Y-92749088D01*
X91364322Y-92725022D01*
X91291277Y-92717025D01*
X91165794Y-92730614D01*
X91047771Y-92771184D01*
X90934622Y-92840344D01*
X90895384Y-92871778D01*
X90882415Y-92869360D01*
X90836363Y-92784620D01*
X90793278Y-92696143D01*
X90812952Y-92668116D01*
X90909308Y-92585170D01*
X91017008Y-92526352D01*
X91138339Y-92490351D01*
X91276550Y-92477863D01*
X91417451Y-92489418D01*
G37*
G36*
X90204053Y-92489418D02*
G01*
X90324559Y-92522264D01*
X90428325Y-92574945D01*
X90518066Y-92647782D01*
X90590888Y-92737682D01*
X90643497Y-92841307D01*
X90676254Y-92961311D01*
X90687766Y-93101268D01*
X90677389Y-93224941D01*
X90646995Y-93338326D01*
X90596723Y-93443462D01*
X90525430Y-93541894D01*
X90433237Y-93628697D01*
X90333962Y-93688761D01*
X90225831Y-93724716D01*
X90106126Y-93736983D01*
X89994000Y-93726161D01*
X89893822Y-93694660D01*
X89803065Y-93642544D01*
X89720014Y-93568053D01*
X89653922Y-93481685D01*
X89607094Y-93387539D01*
X89578586Y-93283993D01*
X89575230Y-93244590D01*
X89861468Y-93244590D01*
X89870186Y-93307642D01*
X89896369Y-93365816D01*
X89942031Y-93420994D01*
X89999293Y-93464437D01*
X90059165Y-93489482D01*
X90123381Y-93497821D01*
X90195254Y-93488266D01*
X90261580Y-93459643D01*
X90324405Y-93410003D01*
X90374350Y-93347375D01*
X90402885Y-93282453D01*
X90412333Y-93213266D01*
X90403232Y-93195774D01*
X90368039Y-93188316D01*
X90177692Y-93196031D01*
X89932799Y-93222058D01*
X89871794Y-93234955D01*
X89861468Y-93244590D01*
X89575230Y-93244590D01*
X89568779Y-93168862D01*
X89578016Y-93113839D01*
X89603713Y-93074772D01*
X89647474Y-93047632D01*
X89771016Y-93029646D01*
X90408596Y-92977290D01*
X90388877Y-92909184D01*
X90350092Y-92847436D01*
X90289344Y-92790445D01*
X90220925Y-92749088D01*
X90150924Y-92725022D01*
X90077879Y-92717025D01*
X89952395Y-92730614D01*
X89834372Y-92771184D01*
X89721223Y-92840344D01*
X89681986Y-92871778D01*
X89669016Y-92869360D01*
X89622964Y-92784620D01*
X89579880Y-92696143D01*
X89599554Y-92668116D01*
X89695910Y-92585170D01*
X89803609Y-92526352D01*
X89924941Y-92490351D01*
X90063151Y-92477863D01*
X90204053Y-92489418D01*
G37*
G36*
X88711926Y-92736369D02*
G01*
X88716872Y-92660422D01*
X88724236Y-92583156D01*
X88727863Y-92555239D01*
X88751274Y-92538533D01*
X88820785Y-92515110D01*
X88923164Y-92498419D01*
X89068582Y-92491931D01*
X89163755Y-92500589D01*
X89234507Y-92523855D01*
X89286622Y-92559389D01*
X89323908Y-92607385D01*
X89347641Y-92670524D01*
X89356325Y-92753515D01*
X89351379Y-93068735D01*
X89346433Y-93383955D01*
X89352314Y-93413021D01*
X89368307Y-93430237D01*
X89396881Y-93438250D01*
X89486567Y-93439459D01*
X89503338Y-93459085D01*
X89512396Y-93539586D01*
X89507450Y-93613995D01*
X89496395Y-93636913D01*
X89468102Y-93649386D01*
X89407872Y-93650595D01*
X89374949Y-93657970D01*
X89357519Y-93674134D01*
X89351379Y-93700603D01*
X89354456Y-93849421D01*
X89357534Y-93999557D01*
X89351810Y-94057444D01*
X89339450Y-94081954D01*
X89323132Y-94088693D01*
X89091883Y-94053522D01*
X89070261Y-94044465D01*
X89063636Y-94026484D01*
X89071659Y-93864368D01*
X89079573Y-93702252D01*
X89071082Y-93675340D01*
X89046380Y-93666642D01*
X88751384Y-93666642D01*
X88735048Y-93662520D01*
X88730391Y-93651914D01*
X88734788Y-93604763D01*
X88739074Y-93556403D01*
X88737865Y-93500019D01*
X88736546Y-93443745D01*
X88744101Y-93427043D01*
X88771058Y-93420445D01*
X88919765Y-93427479D01*
X89068582Y-93434513D01*
X89075040Y-93425280D01*
X89083310Y-93364281D01*
X89089465Y-93119293D01*
X89089465Y-92935855D01*
X89083419Y-92838111D01*
X89069791Y-92788137D01*
X89044366Y-92753612D01*
X89005506Y-92732108D01*
X88948012Y-92724060D01*
X88836124Y-92741645D01*
X88726654Y-92759230D01*
X88716156Y-92754307D01*
X88711926Y-92736369D01*
G37*
G36*
X88142151Y-92489813D02*
G01*
X88253123Y-92524609D01*
X88353759Y-92582188D01*
X88445946Y-92664489D01*
X88519750Y-92759626D01*
X88571896Y-92862919D01*
X88603562Y-92976117D01*
X88614437Y-93101598D01*
X88603562Y-93227079D01*
X88571896Y-93340277D01*
X88519750Y-93443570D01*
X88445946Y-93538707D01*
X88353310Y-93619936D01*
X88252490Y-93676787D01*
X88141638Y-93711131D01*
X88018069Y-93722915D01*
X87895134Y-93711135D01*
X87784899Y-93676805D01*
X87684672Y-93619962D01*
X87592610Y-93538707D01*
X87518206Y-93444072D01*
X87465704Y-93341371D01*
X87433846Y-93228854D01*
X87422910Y-93104126D01*
X87423129Y-93101598D01*
X87682406Y-93101598D01*
X87692988Y-93198295D01*
X87723668Y-93282735D01*
X87774620Y-93357687D01*
X87844842Y-93420254D01*
X87924854Y-93457064D01*
X88018069Y-93469684D01*
X88111416Y-93457202D01*
X88191856Y-93420771D01*
X88262727Y-93358896D01*
X88313722Y-93283192D01*
X88344384Y-93198326D01*
X88354941Y-93101598D01*
X88344349Y-93006592D01*
X88313386Y-92922111D01*
X88261518Y-92845619D01*
X88189690Y-92781287D01*
X88109604Y-92743820D01*
X88018069Y-92731094D01*
X87925785Y-92743883D01*
X87845737Y-92781401D01*
X87774620Y-92845619D01*
X87723465Y-92922029D01*
X87692879Y-93006517D01*
X87682406Y-93101598D01*
X87423129Y-93101598D01*
X87433767Y-92978659D01*
X87465409Y-92865224D01*
X87517555Y-92761479D01*
X87591401Y-92665698D01*
X87683674Y-92582746D01*
X87784151Y-92524811D01*
X87894698Y-92489854D01*
X88018069Y-92477863D01*
X88142151Y-92489813D01*
G37*
G36*
X87006904Y-92507868D02*
G01*
X87084939Y-92513473D01*
X87150116Y-92509736D01*
X87213973Y-92506000D01*
X87236503Y-92514875D01*
X87244747Y-92544138D01*
X87233097Y-92948274D01*
X87221447Y-93353730D01*
X87228254Y-93743716D01*
X87249693Y-94176840D01*
X87250902Y-94195305D01*
X87244046Y-94215115D01*
X87218919Y-94222343D01*
X87019104Y-94221134D01*
X86818080Y-94219925D01*
X86644753Y-94224761D01*
X86471316Y-94229707D01*
X86338605Y-94217663D01*
X86221887Y-94182911D01*
X86118069Y-94126071D01*
X86024974Y-94045829D01*
X85950693Y-93950861D01*
X85897755Y-93845515D01*
X85865304Y-93727740D01*
X85854065Y-93594761D01*
X85855534Y-93575197D01*
X86163900Y-93575197D01*
X86175901Y-93693577D01*
X86209550Y-93789698D01*
X86263477Y-93868325D01*
X86318775Y-93917674D01*
X86383404Y-93953217D01*
X86459214Y-93975368D01*
X86548802Y-93983180D01*
X86750485Y-93973398D01*
X86899259Y-93960512D01*
X86921394Y-93953834D01*
X86926158Y-93900626D01*
X86929967Y-93533651D01*
X86926890Y-93379778D01*
X86923812Y-93225905D01*
X86918798Y-93217336D01*
X86896775Y-93208759D01*
X86800387Y-93199987D01*
X86521764Y-93195351D01*
X86411630Y-93208099D01*
X86324005Y-93243808D01*
X86253695Y-93301633D01*
X86205278Y-93374038D01*
X86174826Y-93463667D01*
X86163900Y-93575197D01*
X85855534Y-93575197D01*
X85864819Y-93451516D01*
X85895289Y-93329195D01*
X85943825Y-93224247D01*
X86010246Y-93133911D01*
X86096337Y-93057684D01*
X86197266Y-93002669D01*
X86315981Y-92968319D01*
X86456588Y-92956188D01*
X86668713Y-92961683D01*
X86882047Y-92967289D01*
X86903429Y-92961960D01*
X86916278Y-92946573D01*
X86921394Y-92916621D01*
X86913371Y-92719993D01*
X86905348Y-92523365D01*
X86911003Y-92507719D01*
X86928758Y-92502263D01*
X87006904Y-92507868D01*
G37*
G36*
X85271324Y-92489418D02*
G01*
X85391831Y-92522264D01*
X85495596Y-92574945D01*
X85585337Y-92647782D01*
X85658159Y-92737682D01*
X85710768Y-92841307D01*
X85743526Y-92961311D01*
X85755037Y-93101268D01*
X85744660Y-93224941D01*
X85714266Y-93338326D01*
X85663994Y-93443462D01*
X85592701Y-93541894D01*
X85500509Y-93628697D01*
X85401234Y-93688761D01*
X85293103Y-93724716D01*
X85173397Y-93736983D01*
X85061272Y-93726161D01*
X84961093Y-93694660D01*
X84870336Y-93642544D01*
X84787286Y-93568053D01*
X84721194Y-93481685D01*
X84674366Y-93387539D01*
X84645858Y-93283993D01*
X84642502Y-93244590D01*
X84928739Y-93244590D01*
X84937457Y-93307642D01*
X84963641Y-93365816D01*
X85009303Y-93420994D01*
X85066565Y-93464437D01*
X85126437Y-93489482D01*
X85190653Y-93497821D01*
X85262525Y-93488266D01*
X85328851Y-93459643D01*
X85391677Y-93410003D01*
X85441621Y-93347375D01*
X85470157Y-93282453D01*
X85479604Y-93213266D01*
X85470503Y-93195774D01*
X85435311Y-93188316D01*
X85244964Y-93196031D01*
X85000070Y-93222058D01*
X84939065Y-93234955D01*
X84928739Y-93244590D01*
X84642502Y-93244590D01*
X84636051Y-93168862D01*
X84645287Y-93113839D01*
X84670984Y-93074772D01*
X84714746Y-93047632D01*
X84838287Y-93029646D01*
X85475867Y-92977290D01*
X85456148Y-92909184D01*
X85417363Y-92847436D01*
X85356616Y-92790445D01*
X85288196Y-92749088D01*
X85218195Y-92725022D01*
X85145150Y-92717025D01*
X85019667Y-92730614D01*
X84901644Y-92771184D01*
X84788495Y-92840344D01*
X84749257Y-92871778D01*
X84736288Y-92869360D01*
X84690236Y-92784620D01*
X84647151Y-92696143D01*
X84666825Y-92668116D01*
X84763181Y-92585170D01*
X84870881Y-92526352D01*
X84992212Y-92490351D01*
X85130423Y-92477863D01*
X85271324Y-92489418D01*
G37*
G36*
X83779198Y-92736369D02*
G01*
X83784144Y-92660422D01*
X83791508Y-92583156D01*
X83795135Y-92555239D01*
X83818545Y-92538533D01*
X83888057Y-92515110D01*
X83990435Y-92498419D01*
X84135853Y-92491931D01*
X84231026Y-92500589D01*
X84301778Y-92523855D01*
X84353893Y-92559389D01*
X84391179Y-92607385D01*
X84414912Y-92670524D01*
X84423596Y-92753515D01*
X84418650Y-93068735D01*
X84413704Y-93383955D01*
X84419585Y-93413021D01*
X84435579Y-93430237D01*
X84464153Y-93438250D01*
X84553838Y-93439459D01*
X84570610Y-93459085D01*
X84579667Y-93539586D01*
X84574721Y-93613995D01*
X84563666Y-93636913D01*
X84535374Y-93649386D01*
X84475143Y-93650595D01*
X84442221Y-93657970D01*
X84424790Y-93674134D01*
X84418650Y-93700603D01*
X84421728Y-93849421D01*
X84424805Y-93999557D01*
X84419081Y-94057444D01*
X84406721Y-94081954D01*
X84390403Y-94088693D01*
X84159154Y-94053522D01*
X84137532Y-94044465D01*
X84130908Y-94026484D01*
X84138931Y-93864368D01*
X84146844Y-93702252D01*
X84138354Y-93675340D01*
X84113652Y-93666642D01*
X83818655Y-93666642D01*
X83802319Y-93662520D01*
X83797663Y-93651914D01*
X83802059Y-93604763D01*
X83806345Y-93556403D01*
X83805136Y-93500019D01*
X83803818Y-93443745D01*
X83811372Y-93427043D01*
X83838329Y-93420445D01*
X83987036Y-93427479D01*
X84135853Y-93434513D01*
X84142311Y-93425280D01*
X84150581Y-93364281D01*
X84156736Y-93119293D01*
X84156736Y-92935855D01*
X84150691Y-92838111D01*
X84137062Y-92788137D01*
X84111637Y-92753612D01*
X84072777Y-92732108D01*
X84015283Y-92724060D01*
X83903395Y-92741645D01*
X83793926Y-92759230D01*
X83783428Y-92754307D01*
X83779198Y-92736369D01*
G37*
G36*
X107986680Y-93625096D02*
G01*
X108015037Y-93505844D01*
X108044155Y-93425331D01*
X108054275Y-93413411D01*
X108165613Y-93460232D01*
X108223495Y-93477742D01*
X108287942Y-93483752D01*
X108383851Y-93471181D01*
X108466784Y-93434492D01*
X108540074Y-93372304D01*
X108596204Y-93293317D01*
X108629506Y-93206468D01*
X108640860Y-93109072D01*
X108629521Y-93013420D01*
X108596248Y-92928223D01*
X108540074Y-92850785D01*
X108465266Y-92787645D01*
X108382258Y-92750690D01*
X108287942Y-92738128D01*
X108206880Y-92747625D01*
X108125606Y-92776816D01*
X108057191Y-92812363D01*
X108055484Y-92815504D01*
X108043160Y-92801348D01*
X108019873Y-92712409D01*
X108001408Y-92583486D01*
X108010534Y-92564358D01*
X108049082Y-92540014D01*
X108145280Y-92508527D01*
X108258539Y-92484120D01*
X108323552Y-92477863D01*
X108446182Y-92489877D01*
X108556754Y-92525000D01*
X108657937Y-92583394D01*
X108751539Y-92667236D01*
X108826662Y-92764461D01*
X108879534Y-92869018D01*
X108911509Y-92982580D01*
X108922448Y-93107423D01*
X108911597Y-93235117D01*
X108880057Y-93349959D01*
X108828256Y-93454368D01*
X108755166Y-93550138D01*
X108662977Y-93632481D01*
X108562156Y-93690133D01*
X108450791Y-93725000D01*
X108326080Y-93736983D01*
X108213757Y-93727233D01*
X108109427Y-93698492D01*
X108011300Y-93650595D01*
X107991280Y-93635200D01*
X107986680Y-93625096D01*
G37*
G36*
X106760313Y-92548974D02*
G01*
X106768010Y-92512942D01*
X106786141Y-92503581D01*
X106901766Y-92504790D01*
X107017390Y-92506000D01*
X107039670Y-92515231D01*
X107048055Y-92546556D01*
X107043769Y-92724829D01*
X107039482Y-92904311D01*
X107043769Y-93075659D01*
X107048055Y-93248437D01*
X107057673Y-93333169D01*
X107083268Y-93392777D01*
X107122929Y-93434013D01*
X107178916Y-93460038D01*
X107257103Y-93469684D01*
X107327625Y-93455569D01*
X107434166Y-93402090D01*
X107507212Y-93347680D01*
X107541478Y-93304712D01*
X107551000Y-93269319D01*
X107551000Y-92539192D01*
X107558154Y-92511572D01*
X107576829Y-92503581D01*
X107691244Y-92504790D01*
X107805550Y-92506000D01*
X107826356Y-92513864D01*
X107833797Y-92539192D01*
X107833797Y-93133362D01*
X107849733Y-93750832D01*
X107870726Y-94183875D01*
X107873144Y-94203548D01*
X107869136Y-94221000D01*
X107858416Y-94229377D01*
X107826035Y-94234522D01*
X107719491Y-94237400D01*
X107642005Y-94247402D01*
X107566937Y-94257514D01*
X107555508Y-94252359D01*
X107551000Y-94233993D01*
X107560232Y-93883822D01*
X107569465Y-93533761D01*
X107566133Y-93509809D01*
X107559573Y-93503976D01*
X107397237Y-93633119D01*
X107314361Y-93675619D01*
X107230004Y-93700551D01*
X107142797Y-93708847D01*
X107027625Y-93698661D01*
X106939940Y-93671044D01*
X106873563Y-93628590D01*
X106824280Y-93571240D01*
X106792434Y-93500661D01*
X106770139Y-93397682D01*
X106761522Y-93251844D01*
X106763390Y-93134461D01*
X106765259Y-93017078D01*
X106762841Y-92782421D01*
X106760313Y-92548974D01*
G37*
G36*
X106117451Y-92489418D02*
G01*
X106237958Y-92522264D01*
X106341723Y-92574945D01*
X106431464Y-92647782D01*
X106504286Y-92737682D01*
X106556895Y-92841307D01*
X106589653Y-92961311D01*
X106601164Y-93101268D01*
X106590787Y-93224941D01*
X106560393Y-93338326D01*
X106510121Y-93443462D01*
X106438828Y-93541894D01*
X106346636Y-93628697D01*
X106247361Y-93688761D01*
X106139230Y-93724716D01*
X106019524Y-93736983D01*
X105907399Y-93726161D01*
X105807220Y-93694660D01*
X105716463Y-93642544D01*
X105633413Y-93568053D01*
X105567321Y-93481685D01*
X105520493Y-93387539D01*
X105491985Y-93283993D01*
X105488629Y-93244590D01*
X105774866Y-93244590D01*
X105783584Y-93307642D01*
X105809768Y-93365816D01*
X105855430Y-93420994D01*
X105912692Y-93464437D01*
X105972564Y-93489482D01*
X106036780Y-93497821D01*
X106108652Y-93488266D01*
X106174978Y-93459643D01*
X106237804Y-93410003D01*
X106287748Y-93347375D01*
X106316284Y-93282453D01*
X106325731Y-93213266D01*
X106316630Y-93195774D01*
X106281438Y-93188316D01*
X106091091Y-93196031D01*
X105846197Y-93222058D01*
X105785192Y-93234955D01*
X105774866Y-93244590D01*
X105488629Y-93244590D01*
X105482178Y-93168862D01*
X105491414Y-93113839D01*
X105517111Y-93074772D01*
X105560873Y-93047632D01*
X105684414Y-93029646D01*
X106321994Y-92977290D01*
X106302275Y-92909184D01*
X106263490Y-92847436D01*
X106202743Y-92790445D01*
X106134323Y-92749088D01*
X106064322Y-92725022D01*
X105991277Y-92717025D01*
X105865794Y-92730614D01*
X105747771Y-92771184D01*
X105634622Y-92840344D01*
X105595384Y-92871778D01*
X105582415Y-92869360D01*
X105536363Y-92784620D01*
X105493278Y-92696143D01*
X105512952Y-92668116D01*
X105609308Y-92585170D01*
X105717008Y-92526352D01*
X105838339Y-92490351D01*
X105976550Y-92477863D01*
X106117451Y-92489418D01*
G37*
G36*
X104904053Y-92489418D02*
G01*
X105024559Y-92522264D01*
X105128325Y-92574945D01*
X105218066Y-92647782D01*
X105290888Y-92737682D01*
X105343497Y-92841307D01*
X105376254Y-92961311D01*
X105387766Y-93101268D01*
X105377389Y-93224941D01*
X105346995Y-93338326D01*
X105296723Y-93443462D01*
X105225430Y-93541894D01*
X105133237Y-93628697D01*
X105033962Y-93688761D01*
X104925831Y-93724716D01*
X104806126Y-93736983D01*
X104694000Y-93726161D01*
X104593822Y-93694660D01*
X104503065Y-93642544D01*
X104420014Y-93568053D01*
X104353922Y-93481685D01*
X104307094Y-93387539D01*
X104278586Y-93283993D01*
X104275230Y-93244590D01*
X104561468Y-93244590D01*
X104570186Y-93307642D01*
X104596369Y-93365816D01*
X104642031Y-93420994D01*
X104699293Y-93464437D01*
X104759165Y-93489482D01*
X104823381Y-93497821D01*
X104895254Y-93488266D01*
X104961580Y-93459643D01*
X105024405Y-93410003D01*
X105074350Y-93347375D01*
X105102885Y-93282453D01*
X105112333Y-93213266D01*
X105103232Y-93195774D01*
X105068039Y-93188316D01*
X104877692Y-93196031D01*
X104632799Y-93222058D01*
X104571794Y-93234955D01*
X104561468Y-93244590D01*
X104275230Y-93244590D01*
X104268779Y-93168862D01*
X104278016Y-93113839D01*
X104303713Y-93074772D01*
X104347474Y-93047632D01*
X104471016Y-93029646D01*
X105108596Y-92977290D01*
X105088877Y-92909184D01*
X105050092Y-92847436D01*
X104989344Y-92790445D01*
X104920925Y-92749088D01*
X104850924Y-92725022D01*
X104777879Y-92717025D01*
X104652395Y-92730614D01*
X104534372Y-92771184D01*
X104421223Y-92840344D01*
X104381986Y-92871778D01*
X104369016Y-92869360D01*
X104322964Y-92784620D01*
X104279880Y-92696143D01*
X104299554Y-92668116D01*
X104395910Y-92585170D01*
X104503609Y-92526352D01*
X104624941Y-92490351D01*
X104763151Y-92477863D01*
X104904053Y-92489418D01*
G37*
G36*
X103411926Y-92736369D02*
G01*
X103416872Y-92660422D01*
X103424236Y-92583156D01*
X103427863Y-92555239D01*
X103451274Y-92538533D01*
X103520785Y-92515110D01*
X103623164Y-92498419D01*
X103768582Y-92491931D01*
X103863755Y-92500589D01*
X103934507Y-92523855D01*
X103986622Y-92559389D01*
X104023908Y-92607385D01*
X104047641Y-92670524D01*
X104056325Y-92753515D01*
X104051379Y-93068735D01*
X104046433Y-93383955D01*
X104052314Y-93413021D01*
X104068307Y-93430237D01*
X104096881Y-93438250D01*
X104186567Y-93439459D01*
X104203338Y-93459085D01*
X104212396Y-93539586D01*
X104207450Y-93613995D01*
X104196395Y-93636913D01*
X104168102Y-93649386D01*
X104107872Y-93650595D01*
X104074949Y-93657970D01*
X104057519Y-93674134D01*
X104051379Y-93700603D01*
X104054456Y-93849421D01*
X104057534Y-93999557D01*
X104051810Y-94057444D01*
X104039450Y-94081954D01*
X104023132Y-94088693D01*
X103791883Y-94053522D01*
X103770261Y-94044465D01*
X103763636Y-94026484D01*
X103771659Y-93864368D01*
X103779573Y-93702252D01*
X103771082Y-93675340D01*
X103746380Y-93666642D01*
X103451384Y-93666642D01*
X103435048Y-93662520D01*
X103430391Y-93651914D01*
X103434788Y-93604763D01*
X103439074Y-93556403D01*
X103437865Y-93500019D01*
X103436546Y-93443745D01*
X103444101Y-93427043D01*
X103471058Y-93420445D01*
X103619765Y-93427479D01*
X103768582Y-93434513D01*
X103775040Y-93425280D01*
X103783310Y-93364281D01*
X103789465Y-93119293D01*
X103789465Y-92935855D01*
X103783419Y-92838111D01*
X103769791Y-92788137D01*
X103744366Y-92753612D01*
X103705506Y-92732108D01*
X103648012Y-92724060D01*
X103536124Y-92741645D01*
X103426654Y-92759230D01*
X103416156Y-92754307D01*
X103411926Y-92736369D01*
G37*
G36*
X102842151Y-92489813D02*
G01*
X102953123Y-92524609D01*
X103053759Y-92582188D01*
X103145946Y-92664489D01*
X103219750Y-92759626D01*
X103271896Y-92862919D01*
X103303562Y-92976117D01*
X103314437Y-93101598D01*
X103303562Y-93227079D01*
X103271896Y-93340277D01*
X103219750Y-93443570D01*
X103145946Y-93538707D01*
X103053310Y-93619936D01*
X102952490Y-93676787D01*
X102841638Y-93711131D01*
X102718069Y-93722915D01*
X102595134Y-93711135D01*
X102484899Y-93676805D01*
X102384672Y-93619962D01*
X102292610Y-93538707D01*
X102218206Y-93444072D01*
X102165704Y-93341371D01*
X102133846Y-93228854D01*
X102122910Y-93104126D01*
X102123129Y-93101598D01*
X102382406Y-93101598D01*
X102392988Y-93198295D01*
X102423668Y-93282735D01*
X102474620Y-93357687D01*
X102544842Y-93420254D01*
X102624854Y-93457064D01*
X102718069Y-93469684D01*
X102811416Y-93457202D01*
X102891856Y-93420771D01*
X102962727Y-93358896D01*
X103013722Y-93283192D01*
X103044384Y-93198326D01*
X103054941Y-93101598D01*
X103044349Y-93006592D01*
X103013386Y-92922111D01*
X102961518Y-92845619D01*
X102889690Y-92781287D01*
X102809604Y-92743820D01*
X102718069Y-92731094D01*
X102625785Y-92743883D01*
X102545737Y-92781401D01*
X102474620Y-92845619D01*
X102423465Y-92922029D01*
X102392879Y-93006517D01*
X102382406Y-93101598D01*
X102123129Y-93101598D01*
X102133767Y-92978659D01*
X102165409Y-92865224D01*
X102217555Y-92761479D01*
X102291401Y-92665698D01*
X102383674Y-92582746D01*
X102484151Y-92524811D01*
X102594698Y-92489854D01*
X102718069Y-92477863D01*
X102842151Y-92489813D01*
G37*
G36*
X101706904Y-92507868D02*
G01*
X101784939Y-92513473D01*
X101850116Y-92509736D01*
X101913973Y-92506000D01*
X101936503Y-92514875D01*
X101944747Y-92544138D01*
X101933097Y-92948274D01*
X101921447Y-93353730D01*
X101928254Y-93743716D01*
X101949693Y-94176840D01*
X101950902Y-94195305D01*
X101944046Y-94215115D01*
X101918919Y-94222343D01*
X101719104Y-94221134D01*
X101518080Y-94219925D01*
X101344753Y-94224761D01*
X101171316Y-94229707D01*
X101038605Y-94217663D01*
X100921887Y-94182911D01*
X100818069Y-94126071D01*
X100724974Y-94045829D01*
X100650693Y-93950861D01*
X100597755Y-93845515D01*
X100565304Y-93727740D01*
X100554065Y-93594761D01*
X100555534Y-93575197D01*
X100863900Y-93575197D01*
X100875901Y-93693577D01*
X100909550Y-93789698D01*
X100963477Y-93868325D01*
X101018775Y-93917674D01*
X101083404Y-93953217D01*
X101159214Y-93975368D01*
X101248802Y-93983180D01*
X101450485Y-93973398D01*
X101599259Y-93960512D01*
X101621394Y-93953834D01*
X101626158Y-93900626D01*
X101629967Y-93533651D01*
X101626890Y-93379778D01*
X101623812Y-93225905D01*
X101618798Y-93217336D01*
X101596775Y-93208759D01*
X101500387Y-93199987D01*
X101221764Y-93195351D01*
X101111630Y-93208099D01*
X101024005Y-93243808D01*
X100953695Y-93301633D01*
X100905278Y-93374038D01*
X100874826Y-93463667D01*
X100863900Y-93575197D01*
X100555534Y-93575197D01*
X100564819Y-93451516D01*
X100595289Y-93329195D01*
X100643825Y-93224247D01*
X100710246Y-93133911D01*
X100796337Y-93057684D01*
X100897266Y-93002669D01*
X101015981Y-92968319D01*
X101156588Y-92956188D01*
X101368713Y-92961683D01*
X101582047Y-92967289D01*
X101603429Y-92961960D01*
X101616278Y-92946573D01*
X101621394Y-92916621D01*
X101613371Y-92719993D01*
X101605348Y-92523365D01*
X101611003Y-92507719D01*
X101628758Y-92502263D01*
X101706904Y-92507868D01*
G37*
G36*
X99971324Y-92489418D02*
G01*
X100091831Y-92522264D01*
X100195596Y-92574945D01*
X100285337Y-92647782D01*
X100358159Y-92737682D01*
X100410768Y-92841307D01*
X100443526Y-92961311D01*
X100455037Y-93101268D01*
X100444660Y-93224941D01*
X100414266Y-93338326D01*
X100363994Y-93443462D01*
X100292701Y-93541894D01*
X100200509Y-93628697D01*
X100101234Y-93688761D01*
X99993103Y-93724716D01*
X99873397Y-93736983D01*
X99761272Y-93726161D01*
X99661093Y-93694660D01*
X99570336Y-93642544D01*
X99487286Y-93568053D01*
X99421194Y-93481685D01*
X99374366Y-93387539D01*
X99345858Y-93283993D01*
X99342502Y-93244590D01*
X99628739Y-93244590D01*
X99637457Y-93307642D01*
X99663641Y-93365816D01*
X99709303Y-93420994D01*
X99766565Y-93464437D01*
X99826437Y-93489482D01*
X99890653Y-93497821D01*
X99962525Y-93488266D01*
X100028851Y-93459643D01*
X100091677Y-93410003D01*
X100141621Y-93347375D01*
X100170157Y-93282453D01*
X100179604Y-93213266D01*
X100170503Y-93195774D01*
X100135311Y-93188316D01*
X99944964Y-93196031D01*
X99700070Y-93222058D01*
X99639065Y-93234955D01*
X99628739Y-93244590D01*
X99342502Y-93244590D01*
X99336051Y-93168862D01*
X99345287Y-93113839D01*
X99370984Y-93074772D01*
X99414746Y-93047632D01*
X99538287Y-93029646D01*
X100175867Y-92977290D01*
X100156148Y-92909184D01*
X100117363Y-92847436D01*
X100056616Y-92790445D01*
X99988196Y-92749088D01*
X99918195Y-92725022D01*
X99845150Y-92717025D01*
X99719667Y-92730614D01*
X99601644Y-92771184D01*
X99488495Y-92840344D01*
X99449257Y-92871778D01*
X99436288Y-92869360D01*
X99390236Y-92784620D01*
X99347151Y-92696143D01*
X99366825Y-92668116D01*
X99463181Y-92585170D01*
X99570881Y-92526352D01*
X99692212Y-92490351D01*
X99830423Y-92477863D01*
X99971324Y-92489418D01*
G37*
G36*
X98479198Y-92736369D02*
G01*
X98484144Y-92660422D01*
X98491508Y-92583156D01*
X98495135Y-92555239D01*
X98518545Y-92538533D01*
X98588057Y-92515110D01*
X98690435Y-92498419D01*
X98835853Y-92491931D01*
X98931026Y-92500589D01*
X99001778Y-92523855D01*
X99053893Y-92559389D01*
X99091179Y-92607385D01*
X99114912Y-92670524D01*
X99123596Y-92753515D01*
X99118650Y-93068735D01*
X99113704Y-93383955D01*
X99119585Y-93413021D01*
X99135579Y-93430237D01*
X99164153Y-93438250D01*
X99253838Y-93439459D01*
X99270610Y-93459085D01*
X99279667Y-93539586D01*
X99274721Y-93613995D01*
X99263666Y-93636913D01*
X99235374Y-93649386D01*
X99175143Y-93650595D01*
X99142221Y-93657970D01*
X99124790Y-93674134D01*
X99118650Y-93700603D01*
X99121728Y-93849421D01*
X99124805Y-93999557D01*
X99119081Y-94057444D01*
X99106721Y-94081954D01*
X99090403Y-94088693D01*
X98859154Y-94053522D01*
X98837532Y-94044465D01*
X98830908Y-94026484D01*
X98838931Y-93864368D01*
X98846844Y-93702252D01*
X98838354Y-93675340D01*
X98813652Y-93666642D01*
X98518655Y-93666642D01*
X98502319Y-93662520D01*
X98497663Y-93651914D01*
X98502059Y-93604763D01*
X98506345Y-93556403D01*
X98505136Y-93500019D01*
X98503818Y-93443745D01*
X98511372Y-93427043D01*
X98538329Y-93420445D01*
X98687036Y-93427479D01*
X98835853Y-93434513D01*
X98842311Y-93425280D01*
X98850581Y-93364281D01*
X98856736Y-93119293D01*
X98856736Y-92935855D01*
X98850691Y-92838111D01*
X98837062Y-92788137D01*
X98811637Y-92753612D01*
X98772777Y-92732108D01*
X98715283Y-92724060D01*
X98603395Y-92741645D01*
X98493926Y-92759230D01*
X98483428Y-92754307D01*
X98479198Y-92736369D01*
G37*
D13*
G36*
X84035903Y-111081929D02*
G01*
X84024912Y-111145554D01*
X84009891Y-111209180D01*
X83990840Y-111354504D01*
X83978837Y-111372794D01*
X83955303Y-111379173D01*
X83903401Y-111373677D01*
X83712166Y-111356242D01*
X83382920Y-111348886D01*
X83082257Y-111354504D01*
X82781716Y-111360000D01*
X82747443Y-111349681D01*
X82736653Y-111320432D01*
X82753628Y-110861133D01*
X82770725Y-110401835D01*
X82754361Y-109821880D01*
X82739340Y-109495694D01*
X82737997Y-109476521D01*
X82745741Y-109453407D01*
X82773534Y-109445136D01*
X83060397Y-109450509D01*
X83347260Y-109455882D01*
X83621179Y-109450509D01*
X83895219Y-109445136D01*
X83947253Y-109456385D01*
X83964829Y-109483970D01*
X83993527Y-109703545D01*
X83985957Y-109726686D01*
X83963485Y-109734319D01*
X83611653Y-109722595D01*
X83257135Y-109710872D01*
X83156795Y-109720540D01*
X83115718Y-109741036D01*
X83095931Y-109783439D01*
X83086409Y-109890390D01*
X83086409Y-110094699D01*
X83090561Y-110192030D01*
X83112929Y-110222988D01*
X83161514Y-110234528D01*
X83208042Y-110233185D01*
X83254448Y-110233185D01*
X83735362Y-110224148D01*
X83932100Y-110211081D01*
X83953784Y-110215950D01*
X83960799Y-110235383D01*
X83950540Y-110367763D01*
X83940282Y-110501364D01*
X83931688Y-110518708D01*
X83899371Y-110525910D01*
X83777739Y-110516263D01*
X83433478Y-110508080D01*
X83147836Y-110513576D01*
X83116040Y-110522111D01*
X83095931Y-110540591D01*
X83085066Y-110571095D01*
X83086409Y-110676608D01*
X83086409Y-110879452D01*
X83093134Y-110974864D01*
X83109112Y-111029410D01*
X83130129Y-111057627D01*
X83177854Y-111076956D01*
X83300854Y-111086448D01*
X83451186Y-111084982D01*
X83988032Y-111048834D01*
X84008548Y-111047369D01*
X84028331Y-111053729D01*
X84035903Y-111081929D01*
G37*
G36*
X85156092Y-109443058D02*
G01*
X85285545Y-109471654D01*
X85396034Y-109516828D01*
X85490491Y-109577882D01*
X85577981Y-109665004D01*
X85640380Y-109767447D01*
X85679078Y-109888266D01*
X85692725Y-110032051D01*
X85685604Y-110166918D01*
X85666468Y-110271212D01*
X85638014Y-110350788D01*
X85592177Y-110427076D01*
X85522801Y-110504820D01*
X85424912Y-110584773D01*
X85404271Y-110603793D01*
X85398900Y-110618967D01*
X85417903Y-110669911D01*
X85562177Y-110982644D01*
X85705894Y-111295228D01*
X85725453Y-111349009D01*
X85721138Y-111356606D01*
X85703593Y-111360000D01*
X85624337Y-111355847D01*
X85545080Y-111351695D01*
X85459717Y-111355847D01*
X85374354Y-111360000D01*
X85347259Y-111351891D01*
X85326482Y-111325806D01*
X85077843Y-110749637D01*
X85059310Y-110722506D01*
X85027711Y-110702166D01*
X84978070Y-110689187D01*
X84853750Y-110687843D01*
X84629780Y-110693339D01*
X84610185Y-110708648D01*
X84601081Y-110763192D01*
X84609874Y-111049933D01*
X84618789Y-111335331D01*
X84611832Y-111357069D01*
X84591434Y-111364152D01*
X84508879Y-111358046D01*
X84424860Y-111351817D01*
X84353785Y-111355969D01*
X84282833Y-111360000D01*
X84256959Y-111351910D01*
X84248639Y-111328492D01*
X84262927Y-110872369D01*
X84277215Y-110416245D01*
X84272604Y-110149532D01*
X84595586Y-110149532D01*
X84595586Y-110410750D01*
X84613293Y-110416245D01*
X84694016Y-110423084D01*
X84974040Y-110429923D01*
X85100692Y-110419009D01*
X85194046Y-110389855D01*
X85262003Y-110345781D01*
X85309984Y-110287012D01*
X85340179Y-110210648D01*
X85351151Y-110111186D01*
X85340363Y-109987254D01*
X85311470Y-109895429D01*
X85267640Y-109828143D01*
X85209002Y-109780237D01*
X85134902Y-109750007D01*
X85014718Y-109727658D01*
X84830547Y-109718688D01*
X84675151Y-109725911D01*
X84617973Y-109740032D01*
X84605111Y-109754225D01*
X84598857Y-109857829D01*
X84595586Y-110149532D01*
X84272604Y-110149532D01*
X84269628Y-109977352D01*
X84245830Y-109494351D01*
X84244487Y-109472491D01*
X84254808Y-109453793D01*
X84301884Y-109445136D01*
X84653593Y-109439030D01*
X85004082Y-109432923D01*
X85156092Y-109443058D01*
G37*
G36*
X86774842Y-110374968D02*
G01*
X86773499Y-110387180D01*
X86740648Y-110527620D01*
X86722941Y-110658534D01*
X86710471Y-110666695D01*
X86645027Y-110675020D01*
X86497505Y-110675020D01*
X86382711Y-110672212D01*
X86131263Y-110687843D01*
X85881280Y-110703475D01*
X85854261Y-110692881D01*
X85844399Y-110658046D01*
X85858664Y-110579863D01*
X85923656Y-110395362D01*
X85935446Y-110381609D01*
X85961880Y-110376189D01*
X86102564Y-110379609D01*
X86243370Y-110383028D01*
X86494696Y-110367397D01*
X86746144Y-110351765D01*
X86768942Y-110358076D01*
X86774842Y-110374968D01*
G37*
G36*
X88262526Y-109699026D02*
G01*
X88255614Y-109726500D01*
X88237857Y-109734319D01*
X87754256Y-109718688D01*
X87741922Y-110387547D01*
X87753524Y-110859424D01*
X87765247Y-111331301D01*
X87756369Y-111352050D01*
X87725680Y-111360000D01*
X87650453Y-111355969D01*
X87574005Y-111351817D01*
X87498778Y-111355969D01*
X87423674Y-111360000D01*
X87398028Y-111351451D01*
X87389480Y-111325806D01*
X87402424Y-110857348D01*
X87415491Y-110387547D01*
X87400471Y-109718688D01*
X86883897Y-109742135D01*
X86871387Y-109738511D01*
X86867533Y-109728457D01*
X86879867Y-109657383D01*
X86897575Y-109586308D01*
X86916748Y-109453684D01*
X86926217Y-109440216D01*
X86939951Y-109435976D01*
X86956315Y-109437320D01*
X87399864Y-109462762D01*
X87594399Y-109468583D01*
X88041120Y-109446479D01*
X88217463Y-109431824D01*
X88246129Y-109438622D01*
X88257030Y-109456249D01*
X88254344Y-109587773D01*
X88258374Y-109642850D01*
X88262526Y-109699026D01*
G37*
G36*
X89741050Y-109723939D02*
G01*
X89734105Y-109743236D01*
X89712351Y-109749951D01*
X89362595Y-109739937D01*
X89012718Y-109732976D01*
X88913066Y-109734319D01*
X88811950Y-109738349D01*
X88793393Y-109759681D01*
X88784595Y-109823712D01*
X88784595Y-110150265D01*
X88790960Y-110209316D01*
X88804977Y-110235007D01*
X88824162Y-110242344D01*
X89223866Y-110230621D01*
X89623569Y-110218897D01*
X89645731Y-110224837D01*
X89652267Y-110240635D01*
X89648848Y-110309267D01*
X89645429Y-110377899D01*
X89648115Y-110452027D01*
X89650802Y-110526032D01*
X89644881Y-110537625D01*
X89622226Y-110542519D01*
X89335973Y-110537023D01*
X89048377Y-110531528D01*
X88848831Y-110534214D01*
X88812201Y-110544122D01*
X88793585Y-110560804D01*
X88787404Y-110584895D01*
X88794242Y-110953946D01*
X88801081Y-111323119D01*
X88792281Y-111354640D01*
X88768353Y-111364152D01*
X88687020Y-111358046D01*
X88604344Y-111351817D01*
X88533269Y-111355969D01*
X88462316Y-111360000D01*
X88436312Y-111352167D01*
X88428122Y-111329958D01*
X88441067Y-110874078D01*
X88454012Y-110418077D01*
X88425314Y-109503510D01*
X88425314Y-109485680D01*
X88432591Y-109463802D01*
X88459508Y-109452951D01*
X88633042Y-109457103D01*
X89030547Y-109458447D01*
X89294935Y-109450563D01*
X89660450Y-109429504D01*
X89690884Y-109433000D01*
X89709394Y-109447412D01*
X89719190Y-109474689D01*
X89724685Y-109587041D01*
X89741050Y-109723939D01*
G37*
G36*
X91191486Y-109699026D02*
G01*
X91184574Y-109726500D01*
X91166817Y-109734319D01*
X90683217Y-109718688D01*
X90670882Y-110387547D01*
X90682484Y-110859424D01*
X90694207Y-111331301D01*
X90685329Y-111352050D01*
X90654640Y-111360000D01*
X90579413Y-111355969D01*
X90502965Y-111351817D01*
X90427739Y-111355969D01*
X90352634Y-111360000D01*
X90326988Y-111351451D01*
X90318440Y-111325806D01*
X90331385Y-110857348D01*
X90344452Y-110387547D01*
X90329431Y-109718688D01*
X89812857Y-109742135D01*
X89800347Y-109738511D01*
X89796493Y-109728457D01*
X89808827Y-109657383D01*
X89826535Y-109586308D01*
X89845708Y-109453684D01*
X89855177Y-109440216D01*
X89868911Y-109435976D01*
X89885275Y-109437320D01*
X90328825Y-109462762D01*
X90523360Y-109468583D01*
X90970080Y-109446479D01*
X91146423Y-109431824D01*
X91175089Y-109438622D01*
X91185990Y-109456249D01*
X91183304Y-109587773D01*
X91187334Y-109642850D01*
X91191486Y-109699026D01*
G37*
G36*
X92180185Y-109698199D02*
G01*
X92299591Y-109729570D01*
X92408802Y-109781100D01*
X92509565Y-109853686D01*
X92602965Y-109949497D01*
X92691553Y-110078237D01*
X92754714Y-110218095D01*
X92793278Y-110371263D01*
X92806542Y-110540565D01*
X92793298Y-110709780D01*
X92754762Y-110863148D01*
X92691601Y-111003452D01*
X92602965Y-111132854D01*
X92509348Y-111230374D01*
X92408470Y-111304117D01*
X92299264Y-111356385D01*
X92179977Y-111388168D01*
X92048290Y-111399078D01*
X91917195Y-111388186D01*
X91798321Y-111356439D01*
X91689369Y-111304197D01*
X91588600Y-111230445D01*
X91494958Y-111132854D01*
X91405594Y-111002696D01*
X91342031Y-110862109D01*
X91303321Y-110708975D01*
X91290038Y-110540565D01*
X91615247Y-110540565D01*
X91627915Y-110677585D01*
X91664525Y-110798353D01*
X91724546Y-110906074D01*
X91792703Y-110983200D01*
X91868142Y-111036114D01*
X91952420Y-111067764D01*
X92048290Y-111078632D01*
X92140398Y-111067796D01*
X92223366Y-111035868D01*
X92299670Y-110981786D01*
X92370690Y-110902044D01*
X92434467Y-110790664D01*
X92472551Y-110671050D01*
X92485484Y-110540565D01*
X92472648Y-110403565D01*
X92435587Y-110283240D01*
X92374842Y-110176277D01*
X92306958Y-110101405D01*
X92231191Y-110049702D01*
X92145904Y-110018596D01*
X92048290Y-110007871D01*
X91950677Y-110018617D01*
X91865663Y-110049749D01*
X91790391Y-110101445D01*
X91723203Y-110176277D01*
X91664211Y-110281345D01*
X91627913Y-110401569D01*
X91615247Y-110540565D01*
X91290038Y-110540565D01*
X91303358Y-110372048D01*
X91342121Y-110219353D01*
X91405684Y-110079675D01*
X91494958Y-109950840D01*
X91588453Y-109854407D01*
X91689145Y-109781438D01*
X91798101Y-109729695D01*
X91917055Y-109698226D01*
X92048290Y-109687424D01*
X92180185Y-109698199D01*
G37*
G36*
X94206664Y-111105376D02*
G01*
X94202512Y-111227986D01*
X94198482Y-111351817D01*
X94188660Y-111373320D01*
X94153419Y-111381859D01*
X94024214Y-111370868D01*
X93595935Y-111360000D01*
X93302843Y-111364152D01*
X93008408Y-111368304D01*
X92982572Y-111361226D01*
X92968841Y-111340704D01*
X92933426Y-111142868D01*
X92946949Y-111130468D01*
X93029047Y-111109895D01*
X93124980Y-111086763D01*
X93162892Y-111067641D01*
X93347755Y-110891111D01*
X93535973Y-110677463D01*
X93655599Y-110515642D01*
X93726743Y-110393088D01*
X93762219Y-110301341D01*
X93772278Y-110232819D01*
X93761028Y-110154829D01*
X93727993Y-110087582D01*
X93671161Y-110028143D01*
X93605029Y-109986585D01*
X93532372Y-109961680D01*
X93451221Y-109953161D01*
X93330613Y-109964688D01*
X93207955Y-110000055D01*
X93125732Y-110037105D01*
X93041259Y-110086029D01*
X92970184Y-110132923D01*
X92955163Y-110140739D01*
X92945413Y-110128534D01*
X92938799Y-110093112D01*
X92930617Y-109999200D01*
X92904280Y-109897248D01*
X92901919Y-109898450D01*
X92922435Y-109871828D01*
X93042684Y-109796342D01*
X93203925Y-109731510D01*
X93367735Y-109692038D01*
X93515457Y-109679609D01*
X93679350Y-109693782D01*
X93815575Y-109733644D01*
X93929448Y-109797090D01*
X94010180Y-109870266D01*
X94066898Y-109955433D01*
X94101668Y-110054936D01*
X94113852Y-110172613D01*
X94101190Y-110264181D01*
X94058191Y-110377491D01*
X93974797Y-110519060D01*
X93838127Y-110695852D01*
X93632937Y-110915355D01*
X93464898Y-111094263D01*
X93553681Y-111096950D01*
X93830722Y-111089020D01*
X94167096Y-111063000D01*
X94177965Y-111061535D01*
X94198461Y-111071029D01*
X94206664Y-111105376D01*
G37*
G36*
X95030197Y-109678225D02*
G01*
X95154783Y-109719761D01*
X95267655Y-109788785D01*
X95347028Y-109862678D01*
X95401532Y-109943450D01*
X95434081Y-110032679D01*
X95445219Y-110133046D01*
X95432302Y-110238753D01*
X95391974Y-110348346D01*
X95328718Y-110449220D01*
X95251290Y-110519804D01*
X95330923Y-110575810D01*
X95391022Y-110641066D01*
X95433970Y-110716508D01*
X95460555Y-110804157D01*
X95469888Y-110906929D01*
X95458554Y-111016918D01*
X95425866Y-111112385D01*
X95372047Y-111196425D01*
X95295010Y-111270973D01*
X95210907Y-111325722D01*
X95115923Y-111365580D01*
X95008141Y-111390403D01*
X94885170Y-111399078D01*
X94747381Y-111390603D01*
X94631199Y-111366836D01*
X94533237Y-111329626D01*
X94450662Y-111279888D01*
X94370091Y-111204433D01*
X94312370Y-111113192D01*
X94276288Y-111002955D01*
X94265086Y-110885924D01*
X94562648Y-110885924D01*
X94571545Y-110958938D01*
X94597015Y-111019786D01*
X94639218Y-111071304D01*
X94699212Y-111112903D01*
X94775936Y-111139363D01*
X94874180Y-111148974D01*
X94979847Y-111138029D01*
X95052806Y-111109306D01*
X95102004Y-111065826D01*
X95132286Y-111006022D01*
X95143335Y-110924148D01*
X95134284Y-110868246D01*
X95106724Y-110816628D01*
X95057293Y-110767297D01*
X94979448Y-110719717D01*
X94712979Y-110617501D01*
X94645343Y-110674581D01*
X94599327Y-110737341D01*
X94571995Y-110807016D01*
X94562648Y-110885924D01*
X94265086Y-110885924D01*
X94263450Y-110868827D01*
X94277383Y-110749811D01*
X94317036Y-110651464D01*
X94382190Y-110569073D01*
X94476552Y-110500265D01*
X94415026Y-110436126D01*
X94363224Y-110344071D01*
X94330262Y-110241138D01*
X94319504Y-110138785D01*
X94323114Y-110103736D01*
X94618702Y-110103736D01*
X94633511Y-110168427D01*
X94681576Y-110231599D01*
X94775872Y-110296200D01*
X94863031Y-110335467D01*
X95040875Y-110398660D01*
X95111430Y-110321882D01*
X95151734Y-110239369D01*
X95165195Y-110148066D01*
X95156750Y-110087761D01*
X95131606Y-110033493D01*
X95088014Y-109983325D01*
X95033171Y-109945113D01*
X94970803Y-109922058D01*
X94898726Y-109914082D01*
X94813614Y-109920697D01*
X94746526Y-109938809D01*
X94693806Y-109966716D01*
X94651295Y-110006334D01*
X94626946Y-110051304D01*
X94618702Y-110103736D01*
X94323114Y-110103736D01*
X94330995Y-110027210D01*
X94363895Y-109932061D01*
X94417702Y-109849879D01*
X94494382Y-109778527D01*
X94604348Y-109716499D01*
X94734777Y-109677714D01*
X94890544Y-109663977D01*
X95030197Y-109678225D01*
G37*
G36*
X96597563Y-109414818D02*
G01*
X96620516Y-109458813D01*
X96944260Y-110283011D01*
X97355443Y-111343635D01*
X97348994Y-111354938D01*
X97322714Y-111360000D01*
X97246877Y-111355969D01*
X97171039Y-111351817D01*
X97093248Y-111355969D01*
X97015334Y-111360000D01*
X96996434Y-111348835D01*
X96966056Y-111295539D01*
X96917637Y-111153004D01*
X96867592Y-111016111D01*
X96828335Y-110959680D01*
X96796737Y-110945764D01*
X96532955Y-110942955D01*
X96317166Y-110942955D01*
X96060345Y-110945764D01*
X96035748Y-110958854D01*
X96002156Y-111014177D01*
X95955809Y-111153614D01*
X95910891Y-111298209D01*
X95884928Y-111349959D01*
X95870446Y-111360000D01*
X95562944Y-111360000D01*
X95541760Y-111354640D01*
X95535711Y-111340826D01*
X95554762Y-111279399D01*
X95804453Y-110595642D01*
X96144975Y-110595642D01*
X96153212Y-110617591D01*
X96182359Y-110635448D01*
X96248778Y-110647421D01*
X96382745Y-110648764D01*
X96523429Y-110648764D01*
X96654484Y-110638695D01*
X96706118Y-110617992D01*
X96718824Y-110593321D01*
X96701440Y-110525141D01*
X96595847Y-110238681D01*
X96427808Y-109831528D01*
X96177131Y-110493320D01*
X96144975Y-110595642D01*
X95804453Y-110595642D01*
X95889497Y-110362756D01*
X96146441Y-109723817D01*
X96250244Y-109459790D01*
X96270027Y-109417319D01*
X96285781Y-109408011D01*
X96362229Y-109414849D01*
X96438799Y-109421688D01*
X96513171Y-109414239D01*
X96586322Y-109406667D01*
X96597563Y-109414818D01*
G37*
G36*
X98615247Y-110892152D02*
G01*
X98602705Y-111013352D01*
X98567039Y-111114946D01*
X98509054Y-111201078D01*
X98426692Y-111274270D01*
X98342044Y-111323583D01*
X98244356Y-111360085D01*
X98131394Y-111383131D01*
X98000488Y-111391263D01*
X97796157Y-111378156D01*
X97610323Y-111340121D01*
X97440317Y-111278300D01*
X97419346Y-111264650D01*
X97414305Y-111253754D01*
X97479884Y-111038576D01*
X97491327Y-111014458D01*
X97504431Y-111008290D01*
X97671325Y-111083210D01*
X97802325Y-111121986D01*
X97904867Y-111133342D01*
X98034280Y-111123465D01*
X98127932Y-111097410D01*
X98194386Y-111058860D01*
X98239932Y-111008880D01*
X98267846Y-110945723D01*
X98277826Y-110865163D01*
X98268967Y-110784687D01*
X98244382Y-110721637D01*
X98205077Y-110672004D01*
X98149354Y-110633621D01*
X98086205Y-110609449D01*
X97997182Y-110592658D01*
X97874825Y-110586238D01*
X97768213Y-110589047D01*
X97671249Y-110591734D01*
X97620157Y-110586415D01*
X97598174Y-110574797D01*
X97591992Y-110559127D01*
X97599903Y-110433076D01*
X97615658Y-110385855D01*
X97633025Y-110375212D01*
X97814009Y-110386936D01*
X97994993Y-110398660D01*
X98052488Y-110391708D01*
X98100698Y-110371768D01*
X98141782Y-110338698D01*
X98173098Y-110295746D01*
X98192006Y-110246347D01*
X98198569Y-110188611D01*
X98185710Y-110098850D01*
X98150073Y-110032381D01*
X98091162Y-109983200D01*
X98002300Y-109950211D01*
X97872016Y-109937529D01*
X97746432Y-109946558D01*
X97632295Y-109972809D01*
X97527756Y-110015687D01*
X97514078Y-110018374D01*
X97500459Y-110008014D01*
X97486913Y-109956854D01*
X97479884Y-109812477D01*
X97494523Y-109781100D01*
X97553820Y-109747272D01*
X97699825Y-109711971D01*
X97848367Y-109693205D01*
X97974476Y-109687424D01*
X98123795Y-109699234D01*
X98252408Y-109732864D01*
X98363921Y-109786831D01*
X98450176Y-109853402D01*
X98509051Y-109929319D01*
X98544314Y-110016297D01*
X98556507Y-110117780D01*
X98541967Y-110226275D01*
X98496423Y-110338332D01*
X98446887Y-110410723D01*
X98392869Y-110462261D01*
X98333879Y-110496357D01*
X98437849Y-110543826D01*
X98514690Y-110605476D01*
X98569161Y-110681805D01*
X98603119Y-110775724D01*
X98615247Y-110892152D01*
G37*
G36*
X99692358Y-110374968D02*
G01*
X99691015Y-110387180D01*
X99658164Y-110527620D01*
X99640457Y-110658534D01*
X99627987Y-110666695D01*
X99562543Y-110675020D01*
X99415020Y-110675020D01*
X99300226Y-110672212D01*
X99048778Y-110687843D01*
X98798796Y-110703475D01*
X98771776Y-110692881D01*
X98761915Y-110658046D01*
X98776180Y-110579863D01*
X98841172Y-110395362D01*
X98852961Y-110381609D01*
X98879396Y-110376189D01*
X99020080Y-110379609D01*
X99160886Y-110383028D01*
X99412212Y-110367397D01*
X99663660Y-110351765D01*
X99686458Y-110358076D01*
X99692358Y-110374968D01*
G37*
G36*
X100691954Y-109677197D02*
G01*
X100875348Y-109734319D01*
X100907865Y-109755302D01*
X100917725Y-109784633D01*
X100907466Y-109993583D01*
X100897208Y-110202411D01*
X100895865Y-110417344D01*
X100894521Y-110632400D01*
X100894521Y-110742554D01*
X100999057Y-110737180D01*
X101102128Y-110731685D01*
X101109673Y-110736155D01*
X101113119Y-110754766D01*
X101114462Y-110870048D01*
X101115806Y-110986430D01*
X101108655Y-111005270D01*
X101085764Y-111010976D01*
X100946423Y-111008290D01*
X100908199Y-111012442D01*
X100900683Y-111023156D01*
X100897208Y-111050788D01*
X100904658Y-111195258D01*
X100912229Y-111339605D01*
X100904042Y-111363218D01*
X100878035Y-111375265D01*
X100718178Y-111383447D01*
X100583590Y-111377182D01*
X100536330Y-111365172D01*
X100526936Y-111353283D01*
X100541957Y-111202707D01*
X100556978Y-111039797D01*
X100550581Y-111015397D01*
X100533775Y-111008290D01*
X100202459Y-111012198D01*
X99871144Y-111016106D01*
X99839024Y-111008168D01*
X99814533Y-110983847D01*
X99796652Y-110936276D01*
X99789200Y-110852463D01*
X99797345Y-110743164D01*
X100061043Y-110743164D01*
X100080126Y-110752386D01*
X100171685Y-110758185D01*
X100227739Y-110758185D01*
X100567969Y-110751346D01*
X100572121Y-110416123D01*
X100581520Y-110214947D01*
X100595324Y-110089082D01*
X100606193Y-110016908D01*
X100598011Y-110000544D01*
X100586346Y-110008014D01*
X100562473Y-110046828D01*
X100533775Y-110105446D01*
X100061043Y-110743164D01*
X99797345Y-110743164D01*
X99797858Y-110736287D01*
X99815212Y-110692728D01*
X100085711Y-110362634D01*
X100427285Y-109870118D01*
X100544766Y-109691454D01*
X100567932Y-109668860D01*
X100587142Y-109662756D01*
X100691954Y-109677197D01*
G37*
G36*
X100837020Y-185516559D02*
G01*
X100805513Y-185649061D01*
X100773159Y-185738520D01*
X100761916Y-185751765D01*
X100638207Y-185699741D01*
X100573893Y-185680285D01*
X100502285Y-185673607D01*
X100395720Y-185687576D01*
X100303572Y-185728341D01*
X100222139Y-185797438D01*
X100159772Y-185885203D01*
X100122769Y-185981702D01*
X100110154Y-186089919D01*
X100122753Y-186196199D01*
X100159723Y-186290862D01*
X100222139Y-186376905D01*
X100305258Y-186447060D01*
X100397490Y-186488121D01*
X100502285Y-186502079D01*
X100592354Y-186491527D01*
X100682659Y-186459092D01*
X100758676Y-186419596D01*
X100760572Y-186416106D01*
X100774266Y-186431835D01*
X100800140Y-186530655D01*
X100820656Y-186673904D01*
X100810516Y-186695157D01*
X100767685Y-186722205D01*
X100660799Y-186757191D01*
X100534955Y-186784310D01*
X100462718Y-186791263D01*
X100326463Y-186777913D01*
X100203605Y-186738887D01*
X100091179Y-186674006D01*
X99987177Y-186580847D01*
X99903708Y-186472820D01*
X99844960Y-186356646D01*
X99809433Y-186230465D01*
X99797278Y-186091751D01*
X99809335Y-185949869D01*
X99844380Y-185822266D01*
X99901936Y-185706257D01*
X99983147Y-185599846D01*
X100085579Y-185508354D01*
X100197603Y-185444296D01*
X100321341Y-185405554D01*
X100459909Y-185392240D01*
X100584713Y-185403073D01*
X100700635Y-185435007D01*
X100809665Y-185488227D01*
X100831910Y-185505332D01*
X100837020Y-185516559D01*
G37*
G36*
X102199651Y-186712250D02*
G01*
X102191099Y-186752286D01*
X102170953Y-186762686D01*
X102042481Y-186761343D01*
X101914009Y-186760000D01*
X101889254Y-186749742D01*
X101879937Y-186714937D01*
X101884700Y-186516856D01*
X101889463Y-186317431D01*
X101884700Y-186127044D01*
X101879937Y-185935069D01*
X101869251Y-185840923D01*
X101840812Y-185774691D01*
X101796744Y-185728873D01*
X101734536Y-185699957D01*
X101647662Y-185689239D01*
X101569304Y-185704923D01*
X101450925Y-185764344D01*
X101369763Y-185824799D01*
X101331690Y-185872541D01*
X101321110Y-185911866D01*
X101321110Y-186723119D01*
X101313160Y-186753808D01*
X101292411Y-186762686D01*
X101165283Y-186761343D01*
X101038276Y-186760000D01*
X101015158Y-186751261D01*
X101006891Y-186723119D01*
X101006891Y-186062930D01*
X100989184Y-185376852D01*
X100965858Y-184895694D01*
X100963172Y-184873834D01*
X100967625Y-184854444D01*
X100979536Y-184845136D01*
X101015516Y-184839418D01*
X101133897Y-184836221D01*
X101219993Y-184825108D01*
X101303402Y-184813872D01*
X101316101Y-184819600D01*
X101321110Y-184840006D01*
X101310851Y-185229085D01*
X101300593Y-185618042D01*
X101304296Y-185644656D01*
X101311584Y-185651137D01*
X101491957Y-185507644D01*
X101584041Y-185460422D01*
X101677772Y-185432720D01*
X101774669Y-185423503D01*
X101902637Y-185434820D01*
X102000065Y-185465505D01*
X102073817Y-185512677D01*
X102128576Y-185576399D01*
X102163961Y-185654820D01*
X102188732Y-185769241D01*
X102198308Y-185931284D01*
X102196232Y-186061709D01*
X102194156Y-186192135D01*
X102196842Y-186452864D01*
X102199651Y-186712250D01*
G37*
G36*
X103147333Y-185404264D02*
G01*
X103258643Y-185439265D01*
X103359484Y-185497172D01*
X103451762Y-185579940D01*
X103525198Y-185675904D01*
X103577229Y-185780511D01*
X103608904Y-185895563D01*
X103619801Y-186023485D01*
X103609538Y-186084623D01*
X103580986Y-186128030D01*
X103532362Y-186158185D01*
X103395094Y-186178170D01*
X102686671Y-186236343D01*
X102708582Y-186312016D01*
X102751676Y-186380626D01*
X102819173Y-186443949D01*
X102895195Y-186489901D01*
X102972974Y-186516641D01*
X103054135Y-186525526D01*
X103193561Y-186510428D01*
X103324698Y-186465350D01*
X103450419Y-186388506D01*
X103494016Y-186353579D01*
X103508426Y-186356266D01*
X103559595Y-186450422D01*
X103607467Y-186548729D01*
X103585607Y-186579870D01*
X103478545Y-186672032D01*
X103358879Y-186737385D01*
X103224066Y-186777387D01*
X103070499Y-186791263D01*
X102913941Y-186778423D01*
X102780046Y-186741928D01*
X102664751Y-186683393D01*
X102565038Y-186602463D01*
X102484125Y-186502574D01*
X102425670Y-186387435D01*
X102389273Y-186254097D01*
X102376483Y-186098590D01*
X102386924Y-185974148D01*
X102682519Y-185974148D01*
X102692631Y-185993584D01*
X102731734Y-186001870D01*
X102943231Y-185993297D01*
X103215335Y-185964378D01*
X103283118Y-185950049D01*
X103294592Y-185939344D01*
X103284905Y-185869286D01*
X103255812Y-185804647D01*
X103205077Y-185743339D01*
X103141452Y-185695069D01*
X103074928Y-185667242D01*
X103003576Y-185657976D01*
X102923718Y-185668592D01*
X102850022Y-185700396D01*
X102780216Y-185755551D01*
X102724723Y-185825137D01*
X102693016Y-185897274D01*
X102682519Y-185974148D01*
X102386924Y-185974148D01*
X102388013Y-185961175D01*
X102421784Y-185835192D01*
X102477642Y-185718374D01*
X102556856Y-185609005D01*
X102659292Y-185512558D01*
X102769598Y-185445820D01*
X102889743Y-185405871D01*
X103022749Y-185392240D01*
X103147333Y-185404264D01*
G37*
G36*
X104495554Y-185404264D02*
G01*
X104606863Y-185439265D01*
X104707705Y-185497172D01*
X104799983Y-185579940D01*
X104873418Y-185675904D01*
X104925449Y-185780511D01*
X104957125Y-185895563D01*
X104968022Y-186023485D01*
X104957759Y-186084623D01*
X104929206Y-186128030D01*
X104880583Y-186158185D01*
X104743315Y-186178170D01*
X104034892Y-186236343D01*
X104056802Y-186312016D01*
X104099896Y-186380626D01*
X104167394Y-186443949D01*
X104243416Y-186489901D01*
X104321194Y-186516641D01*
X104402355Y-186525526D01*
X104541781Y-186510428D01*
X104672918Y-186465350D01*
X104798639Y-186388506D01*
X104842237Y-186353579D01*
X104856647Y-186356266D01*
X104907816Y-186450422D01*
X104955687Y-186548729D01*
X104933828Y-186579870D01*
X104826765Y-186672032D01*
X104707099Y-186737385D01*
X104572286Y-186777387D01*
X104418719Y-186791263D01*
X104262162Y-186778423D01*
X104128266Y-186741928D01*
X104012971Y-186683393D01*
X103913259Y-186602463D01*
X103832345Y-186502574D01*
X103773891Y-186387435D01*
X103737494Y-186254097D01*
X103724703Y-186098590D01*
X103735144Y-185974148D01*
X104030740Y-185974148D01*
X104040852Y-185993584D01*
X104079955Y-186001870D01*
X104291452Y-185993297D01*
X104563555Y-185964378D01*
X104631339Y-185950049D01*
X104642812Y-185939344D01*
X104633125Y-185869286D01*
X104604033Y-185804647D01*
X104553297Y-185743339D01*
X104489672Y-185695069D01*
X104423148Y-185667242D01*
X104351797Y-185657976D01*
X104271939Y-185668592D01*
X104198243Y-185700396D01*
X104128437Y-185755551D01*
X104072943Y-185825137D01*
X104041237Y-185897274D01*
X104030740Y-185974148D01*
X103735144Y-185974148D01*
X103736233Y-185961175D01*
X103770004Y-185835192D01*
X103825862Y-185718374D01*
X103905077Y-185609005D01*
X104007513Y-185512558D01*
X104117818Y-185445820D01*
X104237964Y-185405871D01*
X104370970Y-185392240D01*
X104495554Y-185404264D01*
G37*
G36*
X105920080Y-186504033D02*
G01*
X105914585Y-186588419D01*
X105906403Y-186674270D01*
X105902373Y-186705289D01*
X105876361Y-186723852D01*
X105799126Y-186749876D01*
X105685372Y-186768422D01*
X105523796Y-186775631D01*
X105418049Y-186766011D01*
X105339436Y-186740161D01*
X105281530Y-186700678D01*
X105240101Y-186647349D01*
X105213731Y-186577195D01*
X105204082Y-186484982D01*
X105209578Y-186134738D01*
X105215073Y-185784494D01*
X105208539Y-185752198D01*
X105190768Y-185733069D01*
X105159020Y-185724166D01*
X105059368Y-185722822D01*
X105040734Y-185701015D01*
X105030670Y-185611570D01*
X105036165Y-185528893D01*
X105048449Y-185503429D01*
X105079885Y-185489570D01*
X105146807Y-185488227D01*
X105183388Y-185480032D01*
X105202755Y-185462073D01*
X105209578Y-185432662D01*
X105206158Y-185267309D01*
X105202739Y-185100491D01*
X105209099Y-185036172D01*
X105222832Y-185008939D01*
X105240963Y-185001451D01*
X105497906Y-185040530D01*
X105521931Y-185050594D01*
X105529292Y-185070572D01*
X105520377Y-185250701D01*
X105511584Y-185430830D01*
X105521018Y-185460732D01*
X105548465Y-185470397D01*
X105876239Y-185470397D01*
X105894390Y-185474977D01*
X105899564Y-185486762D01*
X105894679Y-185539152D01*
X105889916Y-185592885D01*
X105891260Y-185655533D01*
X105892725Y-185718060D01*
X105884331Y-185736618D01*
X105854379Y-185743949D01*
X105689149Y-185736133D01*
X105523796Y-185728318D01*
X105516621Y-185738577D01*
X105507432Y-185806353D01*
X105500593Y-186078562D01*
X105500593Y-186282383D01*
X105507311Y-186390987D01*
X105522453Y-186446514D01*
X105550703Y-186484875D01*
X105593881Y-186508768D01*
X105657763Y-186517711D01*
X105782083Y-186498171D01*
X105903716Y-186478632D01*
X105915380Y-186484102D01*
X105920080Y-186504033D01*
G37*
G36*
X106827628Y-185420960D02*
G01*
X106950111Y-185459105D01*
X107061474Y-185522263D01*
X107163765Y-185612547D01*
X107246436Y-185717696D01*
X107304772Y-185831809D01*
X107340169Y-185956828D01*
X107352320Y-186095415D01*
X107340257Y-186234822D01*
X107305100Y-186360861D01*
X107247159Y-186476133D01*
X107165108Y-186582557D01*
X107062583Y-186674726D01*
X106950942Y-186739098D01*
X106828112Y-186777938D01*
X106691033Y-186791263D01*
X106553164Y-186777985D01*
X106429862Y-186739322D01*
X106318044Y-186675345D01*
X106215614Y-186583900D01*
X106133609Y-186478192D01*
X106075670Y-186363423D01*
X106040485Y-186237647D01*
X106028402Y-186098224D01*
X106316731Y-186098224D01*
X106328500Y-186203786D01*
X106362903Y-186297654D01*
X106420534Y-186382644D01*
X106500343Y-186454124D01*
X106589328Y-186495754D01*
X106691033Y-186509895D01*
X106793571Y-186495685D01*
X106882513Y-186453998D01*
X106961532Y-186382644D01*
X107018370Y-186297745D01*
X107052355Y-186203869D01*
X107063992Y-186098224D01*
X107052234Y-185990782D01*
X107018146Y-185896960D01*
X106961532Y-185813681D01*
X106883508Y-185744161D01*
X106794605Y-185703261D01*
X106691033Y-185689239D01*
X106587314Y-185703108D01*
X106497936Y-185743586D01*
X106419191Y-185812337D01*
X106362530Y-185896452D01*
X106328461Y-185990748D01*
X106316731Y-186098224D01*
X106028402Y-186098224D01*
X106040485Y-185958800D01*
X106075670Y-185833024D01*
X106133609Y-185718255D01*
X106215614Y-185612547D01*
X106318542Y-185522293D01*
X106430565Y-185459125D01*
X106553734Y-185420965D01*
X106691033Y-185407871D01*
X106827628Y-185420960D01*
G37*
G36*
X108557104Y-184858151D02*
G01*
X108686791Y-184896765D01*
X108802144Y-184959920D01*
X108905583Y-185049078D01*
X108988117Y-185154598D01*
X109046937Y-185271649D01*
X109082994Y-185402510D01*
X109095482Y-185550265D01*
X109083532Y-185709426D01*
X109049678Y-185845338D01*
X108995748Y-185961946D01*
X108921947Y-186062320D01*
X108826291Y-186147017D01*
X108714148Y-186208145D01*
X108582242Y-186246311D01*
X108426012Y-186259790D01*
X108190318Y-186253684D01*
X107953280Y-186247456D01*
X107929522Y-186253377D01*
X107915245Y-186270473D01*
X107909560Y-186303754D01*
X107918475Y-186522229D01*
X107927390Y-186740704D01*
X107921107Y-186758088D01*
X107901378Y-186764152D01*
X107814550Y-186757923D01*
X107727844Y-186751695D01*
X107655426Y-186755847D01*
X107584473Y-186760000D01*
X107559440Y-186750138D01*
X107550279Y-186717623D01*
X107563224Y-186268583D01*
X107576169Y-185818077D01*
X107572679Y-185618164D01*
X107900035Y-185618164D01*
X107903454Y-185789134D01*
X107906874Y-185960104D01*
X107912445Y-185969626D01*
X107936916Y-185979155D01*
X108044013Y-185988902D01*
X108353594Y-185994054D01*
X108475965Y-185979889D01*
X108573326Y-185940212D01*
X108651448Y-185875963D01*
X108705245Y-185795512D01*
X108739081Y-185695924D01*
X108751221Y-185572002D01*
X108737886Y-185440469D01*
X108700498Y-185333668D01*
X108640579Y-185246304D01*
X108579137Y-185191472D01*
X108507327Y-185151980D01*
X108423094Y-185127368D01*
X108323552Y-185118688D01*
X108099459Y-185129556D01*
X107934156Y-185143874D01*
X107909560Y-185151294D01*
X107904267Y-185210414D01*
X107900035Y-185618164D01*
X107572679Y-185618164D01*
X107568605Y-185384759D01*
X107544784Y-184903510D01*
X107543440Y-184882993D01*
X107551059Y-184860982D01*
X107578978Y-184852951D01*
X107800994Y-184854295D01*
X108024355Y-184855638D01*
X108216940Y-184850265D01*
X108409648Y-184844769D01*
X108557104Y-184858151D01*
G37*
G36*
X109976363Y-185404264D02*
G01*
X110087673Y-185439265D01*
X110188514Y-185497172D01*
X110280792Y-185579940D01*
X110354228Y-185675904D01*
X110406259Y-185780511D01*
X110437934Y-185895563D01*
X110448831Y-186023485D01*
X110438568Y-186084623D01*
X110410016Y-186128030D01*
X110361392Y-186158185D01*
X110224124Y-186178170D01*
X109515701Y-186236343D01*
X109537612Y-186312016D01*
X109580706Y-186380626D01*
X109648203Y-186443949D01*
X109724225Y-186489901D01*
X109802004Y-186516641D01*
X109883165Y-186525526D01*
X110022591Y-186510428D01*
X110153728Y-186465350D01*
X110279449Y-186388506D01*
X110323046Y-186353579D01*
X110337456Y-186356266D01*
X110388625Y-186450422D01*
X110436497Y-186548729D01*
X110414637Y-186579870D01*
X110307575Y-186672032D01*
X110187909Y-186737385D01*
X110053096Y-186777387D01*
X109899529Y-186791263D01*
X109742971Y-186778423D01*
X109609076Y-186741928D01*
X109493781Y-186683393D01*
X109394068Y-186602463D01*
X109313155Y-186502574D01*
X109254700Y-186387435D01*
X109218303Y-186254097D01*
X109205513Y-186098590D01*
X109215954Y-185974148D01*
X109511549Y-185974148D01*
X109521661Y-185993584D01*
X109560764Y-186001870D01*
X109772261Y-185993297D01*
X110044365Y-185964378D01*
X110112148Y-185950049D01*
X110123622Y-185939344D01*
X110113935Y-185869286D01*
X110084842Y-185804647D01*
X110034107Y-185743339D01*
X109970482Y-185695069D01*
X109903958Y-185667242D01*
X109832606Y-185657976D01*
X109752748Y-185668592D01*
X109679052Y-185700396D01*
X109609246Y-185755551D01*
X109553753Y-185825137D01*
X109522046Y-185897274D01*
X109511549Y-185974148D01*
X109215954Y-185974148D01*
X109217043Y-185961175D01*
X109250814Y-185835192D01*
X109306672Y-185718374D01*
X109385886Y-185609005D01*
X109488322Y-185512558D01*
X109598628Y-185445820D01*
X109718773Y-185405871D01*
X109851779Y-185392240D01*
X109976363Y-185404264D01*
G37*
G36*
X111400890Y-186504033D02*
G01*
X111395394Y-186588419D01*
X111387212Y-186674270D01*
X111383182Y-186705289D01*
X111357170Y-186723852D01*
X111279935Y-186749876D01*
X111166181Y-186768422D01*
X111004606Y-186775631D01*
X110898858Y-186766011D01*
X110820245Y-186740161D01*
X110762340Y-186700678D01*
X110720910Y-186647349D01*
X110694541Y-186577195D01*
X110684892Y-186484982D01*
X110690387Y-186134738D01*
X110695883Y-185784494D01*
X110689348Y-185752198D01*
X110671578Y-185733069D01*
X110639829Y-185724166D01*
X110540178Y-185722822D01*
X110521543Y-185701015D01*
X110511479Y-185611570D01*
X110516975Y-185528893D01*
X110529258Y-185503429D01*
X110560694Y-185489570D01*
X110627617Y-185488227D01*
X110664198Y-185480032D01*
X110683565Y-185462073D01*
X110690387Y-185432662D01*
X110686968Y-185267309D01*
X110683549Y-185100491D01*
X110689908Y-185036172D01*
X110703642Y-185008939D01*
X110721773Y-185001451D01*
X110978716Y-185040530D01*
X111002740Y-185050594D01*
X111010101Y-185070572D01*
X111001186Y-185250701D01*
X110992394Y-185430830D01*
X111001828Y-185460732D01*
X111029274Y-185470397D01*
X111357048Y-185470397D01*
X111375199Y-185474977D01*
X111380373Y-185486762D01*
X111375488Y-185539152D01*
X111370726Y-185592885D01*
X111372069Y-185655533D01*
X111373535Y-185718060D01*
X111365140Y-185736618D01*
X111335188Y-185743949D01*
X111169958Y-185736133D01*
X111004606Y-185728318D01*
X110997430Y-185738577D01*
X110988241Y-185806353D01*
X110981403Y-186078562D01*
X110981403Y-186282383D01*
X110988120Y-186390987D01*
X111003262Y-186446514D01*
X111031512Y-186484875D01*
X111074690Y-186508768D01*
X111138573Y-186517711D01*
X111262893Y-186498171D01*
X111384525Y-186478632D01*
X111396190Y-186484102D01*
X111400890Y-186504033D01*
G37*
D14*
G36*
X91612067Y-103707190D02*
G01*
X91638082Y-103719204D01*
X91646725Y-103746281D01*
X91643770Y-104323781D01*
X91640680Y-104901416D01*
X91652320Y-105249128D01*
X91685816Y-105564621D01*
X91688771Y-105588666D01*
X91684955Y-105602277D01*
X91673726Y-105609757D01*
X91507018Y-105626011D01*
X91341653Y-105652743D01*
X91323880Y-105638320D01*
X91308607Y-105565427D01*
X91301085Y-105450303D01*
X91292084Y-105427063D01*
X91268039Y-105448019D01*
X91154563Y-105547326D01*
X91047181Y-105612596D01*
X90944019Y-105649439D01*
X90842739Y-105661341D01*
X90699283Y-105646628D01*
X90569788Y-105603519D01*
X90450982Y-105531514D01*
X90340734Y-105427466D01*
X90254262Y-105309504D01*
X90193284Y-105183248D01*
X90156402Y-105046803D01*
X90144232Y-104902759D01*
X90495486Y-104902759D01*
X90508202Y-105019825D01*
X90545529Y-105125356D01*
X90608192Y-105222204D01*
X90695581Y-105304981D01*
X90792929Y-105352832D01*
X90904263Y-105369031D01*
X90987445Y-105359582D01*
X91061419Y-105331933D01*
X91128456Y-105285506D01*
X91189856Y-105217637D01*
X91246327Y-105122482D01*
X91280390Y-105017407D01*
X91292084Y-104899669D01*
X91280024Y-104780141D01*
X91244967Y-104674143D01*
X91186901Y-104578747D01*
X91123627Y-104513311D01*
X91054480Y-104468192D01*
X90978111Y-104441174D01*
X90892308Y-104431920D01*
X90810750Y-104441293D01*
X90736709Y-104468960D01*
X90668115Y-104515827D01*
X90603759Y-104584792D01*
X90543272Y-104684122D01*
X90507534Y-104789315D01*
X90495486Y-104902759D01*
X90144232Y-104902759D01*
X90143801Y-104897654D01*
X90156147Y-104748346D01*
X90192254Y-104611840D01*
X90251850Y-104485676D01*
X90336167Y-104367977D01*
X90445164Y-104262580D01*
X90563254Y-104189653D01*
X90692627Y-104145952D01*
X90836693Y-104131013D01*
X90956813Y-104143985D01*
X91064540Y-104181978D01*
X91162855Y-104245599D01*
X91288995Y-104363141D01*
X91301085Y-104339230D01*
X91302562Y-104171447D01*
X91304040Y-103749102D01*
X91313651Y-103711893D01*
X91338698Y-103701145D01*
X91612067Y-103707190D01*
G37*
G36*
X89413561Y-104153734D02*
G01*
X89560847Y-104193878D01*
X89687671Y-104258267D01*
X89797355Y-104347290D01*
X89886359Y-104457167D01*
X89950660Y-104583820D01*
X89990696Y-104730492D01*
X90004766Y-104901550D01*
X89992083Y-105052706D01*
X89954935Y-105191288D01*
X89893491Y-105319787D01*
X89806355Y-105440093D01*
X89693675Y-105546185D01*
X89572340Y-105619597D01*
X89440179Y-105663541D01*
X89293872Y-105678535D01*
X89156830Y-105665308D01*
X89034390Y-105626807D01*
X88923464Y-105563109D01*
X88821959Y-105472065D01*
X88741179Y-105366504D01*
X88683945Y-105251436D01*
X88649102Y-105124880D01*
X88645000Y-105076721D01*
X88994846Y-105076721D01*
X89005501Y-105153785D01*
X89037503Y-105224887D01*
X89093312Y-105292326D01*
X89163300Y-105345423D01*
X89236476Y-105376033D01*
X89314963Y-105386226D01*
X89402807Y-105374547D01*
X89483872Y-105339564D01*
X89560659Y-105278893D01*
X89621702Y-105202348D01*
X89656579Y-105122998D01*
X89668126Y-105038436D01*
X89657002Y-105017057D01*
X89613989Y-105007942D01*
X89381343Y-105017372D01*
X89082028Y-105049183D01*
X89007467Y-105064945D01*
X88994846Y-105076721D01*
X88645000Y-105076721D01*
X88637116Y-104984165D01*
X88648405Y-104916914D01*
X88679812Y-104869165D01*
X88733299Y-104835995D01*
X88884294Y-104814012D01*
X89663558Y-104750022D01*
X89639457Y-104666781D01*
X89592053Y-104591311D01*
X89517807Y-104521655D01*
X89434182Y-104471108D01*
X89348626Y-104441693D01*
X89259349Y-104431920D01*
X89105980Y-104448528D01*
X88961730Y-104498114D01*
X88823436Y-104582642D01*
X88775479Y-104621062D01*
X88759628Y-104618106D01*
X88703342Y-104514535D01*
X88650683Y-104406397D01*
X88674729Y-104372142D01*
X88792498Y-104270764D01*
X88924130Y-104198875D01*
X89072424Y-104154873D01*
X89241348Y-104139610D01*
X89413561Y-104153734D01*
G37*
G36*
X87589851Y-104455563D02*
G01*
X87595896Y-104362738D01*
X87604897Y-104268302D01*
X87609330Y-104234181D01*
X87637943Y-104213762D01*
X87722901Y-104185135D01*
X87848031Y-104164735D01*
X88025764Y-104156805D01*
X88142086Y-104167387D01*
X88228560Y-104195822D01*
X88292256Y-104239253D01*
X88337829Y-104297915D01*
X88366835Y-104375085D01*
X88377449Y-104476519D01*
X88371404Y-104861787D01*
X88365359Y-105247056D01*
X88372547Y-105282582D01*
X88392095Y-105303623D01*
X88427018Y-105313417D01*
X88536634Y-105314894D01*
X88557132Y-105338882D01*
X88568203Y-105437272D01*
X88562158Y-105528216D01*
X88548646Y-105556227D01*
X88514066Y-105571472D01*
X88440451Y-105572949D01*
X88400213Y-105581963D01*
X88378909Y-105601719D01*
X88371404Y-105634071D01*
X88375165Y-105815959D01*
X88378927Y-105999458D01*
X88371931Y-106070209D01*
X88356824Y-106100166D01*
X88336880Y-106108403D01*
X88054242Y-106065416D01*
X88027816Y-106054346D01*
X88019719Y-106032370D01*
X88029525Y-105834228D01*
X88039197Y-105636086D01*
X88028819Y-105603193D01*
X87998628Y-105592562D01*
X87638077Y-105592562D01*
X87618111Y-105587524D01*
X87612419Y-105574561D01*
X87617793Y-105516932D01*
X87623032Y-105457825D01*
X87621554Y-105388912D01*
X87619942Y-105320133D01*
X87629175Y-105299719D01*
X87662123Y-105291655D01*
X87843876Y-105300252D01*
X88025764Y-105308849D01*
X88033657Y-105297564D01*
X88043764Y-105223010D01*
X88051287Y-104923581D01*
X88051287Y-104699378D01*
X88043898Y-104579913D01*
X88027241Y-104518834D01*
X87996166Y-104476637D01*
X87948670Y-104450354D01*
X87878400Y-104440517D01*
X87741648Y-104462011D01*
X87607852Y-104483504D01*
X87595021Y-104477486D01*
X87589851Y-104455563D01*
G37*
G36*
X85715361Y-104523670D02*
G01*
X85720915Y-104504768D01*
X85743974Y-104472354D01*
X85869720Y-104346963D01*
X86003484Y-104252288D01*
X86146582Y-104185379D01*
X86301103Y-104144859D01*
X86469778Y-104131013D01*
X86647454Y-104144929D01*
X86805471Y-104185096D01*
X86947189Y-104250405D01*
X87075199Y-104341459D01*
X87191149Y-104460533D01*
X87280372Y-104586661D01*
X87350237Y-104724631D01*
X87401139Y-104876054D01*
X87432655Y-105042957D01*
X87443562Y-105227712D01*
X87432514Y-105412152D01*
X87400541Y-105579246D01*
X87348805Y-105731327D01*
X87277650Y-105870382D01*
X87186582Y-105997981D01*
X87069216Y-106119009D01*
X86940289Y-106211335D01*
X86798211Y-106277389D01*
X86640456Y-106317919D01*
X86463733Y-106331934D01*
X86282307Y-106318486D01*
X86124560Y-106280097D01*
X85986606Y-106218501D01*
X85865391Y-106133769D01*
X85758885Y-106024310D01*
X85739877Y-105993260D01*
X85734839Y-105971786D01*
X85747141Y-105936312D01*
X85814499Y-105820929D01*
X85890267Y-105712342D01*
X85910682Y-105695730D01*
X85934202Y-105707197D01*
X86002297Y-105769614D01*
X86092078Y-105851967D01*
X86169139Y-105905559D01*
X86257788Y-105946420D01*
X86352473Y-105971060D01*
X86454733Y-105979443D01*
X86598640Y-105964515D01*
X86721021Y-105921807D01*
X86826426Y-105851978D01*
X86917646Y-105752419D01*
X86980227Y-105648066D01*
X87026108Y-105529712D01*
X87054818Y-105394985D01*
X87064876Y-105241011D01*
X87054966Y-105087087D01*
X87026607Y-104951520D01*
X86981181Y-104831625D01*
X86919124Y-104725170D01*
X86827520Y-104622539D01*
X86722178Y-104550923D01*
X86600408Y-104507307D01*
X86457688Y-104492101D01*
X86361326Y-104500174D01*
X86267062Y-104524462D01*
X86173707Y-104565716D01*
X86085448Y-104621800D01*
X85990341Y-104702199D01*
X85904637Y-104775814D01*
X85889134Y-104761928D01*
X85805498Y-104655720D01*
X85726836Y-104546030D01*
X85715361Y-104523670D01*
G37*
G36*
X85099381Y-104154229D02*
G01*
X85226078Y-104197097D01*
X85342405Y-104268813D01*
X85450455Y-104372679D01*
X85533691Y-104489135D01*
X85592353Y-104613103D01*
X85627784Y-104746353D01*
X85639865Y-104891206D01*
X85627079Y-105056232D01*
X85590393Y-105201046D01*
X85531129Y-105329062D01*
X85448977Y-105442914D01*
X85341518Y-105541959D01*
X85220114Y-105612056D01*
X85081957Y-105654998D01*
X84922927Y-105669938D01*
X84811252Y-105659703D01*
X84708396Y-105629587D01*
X84612354Y-105579373D01*
X84521673Y-105507394D01*
X84442013Y-105418466D01*
X84433012Y-105414033D01*
X84425846Y-105425331D01*
X84407489Y-105507529D01*
X84384563Y-105585936D01*
X84365443Y-105601159D01*
X84213646Y-105579263D01*
X84107778Y-105548605D01*
X84090462Y-105532381D01*
X84094895Y-105505379D01*
X84140082Y-105172892D01*
X84153464Y-104913506D01*
X84153329Y-104911088D01*
X84473581Y-104911088D01*
X84486178Y-105029788D01*
X84522724Y-105133988D01*
X84583332Y-105226906D01*
X84668566Y-105306506D01*
X84765823Y-105353090D01*
X84879403Y-105369031D01*
X84993186Y-105353328D01*
X85092053Y-105307247D01*
X85180041Y-105228384D01*
X85244295Y-105133250D01*
X85282611Y-105028515D01*
X85295703Y-104911088D01*
X85282614Y-104794684D01*
X85244310Y-104690984D01*
X85180041Y-104596882D01*
X85092161Y-104518918D01*
X84993290Y-104473280D01*
X84879403Y-104457712D01*
X84768710Y-104473446D01*
X84671819Y-104519853D01*
X84584809Y-104599837D01*
X84523005Y-104693668D01*
X84486155Y-104796454D01*
X84473581Y-104911088D01*
X84153329Y-104911088D01*
X84115985Y-104240763D01*
X84114508Y-104219673D01*
X84123803Y-104186957D01*
X84154270Y-104176283D01*
X84279066Y-104166611D01*
X84403056Y-104156805D01*
X84423833Y-104174106D01*
X84446714Y-104264272D01*
X84465268Y-104357861D01*
X84475193Y-104371739D01*
X84556331Y-104312229D01*
X84645226Y-104245518D01*
X84721695Y-104200732D01*
X84842058Y-104154453D01*
X84959063Y-104139610D01*
X85099381Y-104154229D01*
G37*
G36*
X82985031Y-105586920D02*
G01*
X82990955Y-105425647D01*
X83007599Y-105286819D01*
X83018044Y-105260109D01*
X83037555Y-105252295D01*
X83133066Y-105259012D01*
X83229921Y-105265863D01*
X83350388Y-105251495D01*
X83426445Y-105214713D01*
X83471856Y-105158933D01*
X83493274Y-105076599D01*
X83503424Y-104889326D01*
X83503424Y-104723692D01*
X83496707Y-104467653D01*
X83489991Y-104211613D01*
X83499085Y-104180657D01*
X83524515Y-104171044D01*
X83665833Y-104172522D01*
X83807152Y-104174000D01*
X83832700Y-104183107D01*
X83841542Y-104211479D01*
X83837915Y-104577538D01*
X83834153Y-104944940D01*
X83843135Y-105193037D01*
X83867382Y-105388599D01*
X83903335Y-105540441D01*
X83906290Y-105558441D01*
X83901627Y-105573548D01*
X83886812Y-105583965D01*
X83730448Y-105603309D01*
X83580129Y-105635549D01*
X83563540Y-105621028D01*
X83548560Y-105544739D01*
X83534838Y-105467515D01*
X83521559Y-105453930D01*
X83514036Y-105457019D01*
X83390853Y-105537754D01*
X83321740Y-105574424D01*
X83252489Y-105599682D01*
X83189607Y-105613179D01*
X83102304Y-105618354D01*
X83023222Y-105612560D01*
X82992448Y-105600742D01*
X82985031Y-105586920D01*
G37*
G36*
X81982231Y-104455563D02*
G01*
X81988276Y-104362738D01*
X81997276Y-104268302D01*
X82001709Y-104234181D01*
X82030322Y-104213762D01*
X82115281Y-104185135D01*
X82240410Y-104164735D01*
X82418143Y-104156805D01*
X82534466Y-104167387D01*
X82620940Y-104195822D01*
X82684636Y-104239253D01*
X82730208Y-104297915D01*
X82759215Y-104375085D01*
X82769829Y-104476519D01*
X82763784Y-104861787D01*
X82757739Y-105247056D01*
X82764927Y-105282582D01*
X82784474Y-105303623D01*
X82819398Y-105313417D01*
X82929014Y-105314894D01*
X82949512Y-105338882D01*
X82960582Y-105437272D01*
X82954537Y-105528216D01*
X82941025Y-105556227D01*
X82906446Y-105571472D01*
X82832831Y-105572949D01*
X82792592Y-105581963D01*
X82771288Y-105601719D01*
X82763784Y-105634071D01*
X82767545Y-105815959D01*
X82771306Y-105999458D01*
X82764310Y-106070209D01*
X82749204Y-106100166D01*
X82729260Y-106108403D01*
X82446622Y-106065416D01*
X82420195Y-106054346D01*
X82412098Y-106032370D01*
X82421905Y-105834228D01*
X82431577Y-105636086D01*
X82421199Y-105603193D01*
X82391008Y-105592562D01*
X82030457Y-105592562D01*
X82010491Y-105587524D01*
X82004799Y-105574561D01*
X82010172Y-105516932D01*
X82015411Y-105457825D01*
X82013934Y-105388912D01*
X82012322Y-105320133D01*
X82021555Y-105299719D01*
X82054502Y-105291655D01*
X82236256Y-105300252D01*
X82418143Y-105308849D01*
X82426036Y-105297564D01*
X82436144Y-105223010D01*
X82443667Y-104923581D01*
X82443667Y-104699378D01*
X82436277Y-104579913D01*
X82419621Y-104518834D01*
X82388546Y-104476637D01*
X82341050Y-104450354D01*
X82270779Y-104440517D01*
X82134028Y-104462011D01*
X82000232Y-104483504D01*
X81987401Y-104477486D01*
X81982231Y-104455563D01*
G37*
G36*
X106312067Y-103707190D02*
G01*
X106338082Y-103719204D01*
X106346725Y-103746281D01*
X106343770Y-104323781D01*
X106340680Y-104901416D01*
X106352320Y-105249128D01*
X106385816Y-105564621D01*
X106388771Y-105588666D01*
X106384955Y-105602277D01*
X106373726Y-105609757D01*
X106207018Y-105626011D01*
X106041653Y-105652743D01*
X106023880Y-105638320D01*
X106008607Y-105565427D01*
X106001085Y-105450303D01*
X105992084Y-105427063D01*
X105968039Y-105448019D01*
X105854563Y-105547326D01*
X105747181Y-105612596D01*
X105644019Y-105649439D01*
X105542739Y-105661341D01*
X105399283Y-105646628D01*
X105269788Y-105603519D01*
X105150982Y-105531514D01*
X105040734Y-105427466D01*
X104954262Y-105309504D01*
X104893284Y-105183248D01*
X104856402Y-105046803D01*
X104844232Y-104902759D01*
X105195486Y-104902759D01*
X105208202Y-105019825D01*
X105245529Y-105125356D01*
X105308192Y-105222204D01*
X105395581Y-105304981D01*
X105492929Y-105352832D01*
X105604263Y-105369031D01*
X105687445Y-105359582D01*
X105761419Y-105331933D01*
X105828456Y-105285506D01*
X105889856Y-105217637D01*
X105946327Y-105122482D01*
X105980390Y-105017407D01*
X105992084Y-104899669D01*
X105980024Y-104780141D01*
X105944967Y-104674143D01*
X105886901Y-104578747D01*
X105823627Y-104513311D01*
X105754480Y-104468192D01*
X105678111Y-104441174D01*
X105592308Y-104431920D01*
X105510750Y-104441293D01*
X105436709Y-104468960D01*
X105368115Y-104515827D01*
X105303759Y-104584792D01*
X105243272Y-104684122D01*
X105207534Y-104789315D01*
X105195486Y-104902759D01*
X104844232Y-104902759D01*
X104843801Y-104897654D01*
X104856147Y-104748346D01*
X104892254Y-104611840D01*
X104951850Y-104485676D01*
X105036167Y-104367977D01*
X105145164Y-104262580D01*
X105263254Y-104189653D01*
X105392627Y-104145952D01*
X105536693Y-104131013D01*
X105656813Y-104143985D01*
X105764540Y-104181978D01*
X105862855Y-104245599D01*
X105988995Y-104363141D01*
X106001085Y-104339230D01*
X106002562Y-104171447D01*
X106004040Y-103749102D01*
X106013651Y-103711893D01*
X106038698Y-103701145D01*
X106312067Y-103707190D01*
G37*
G36*
X104113561Y-104153734D02*
G01*
X104260847Y-104193878D01*
X104387671Y-104258267D01*
X104497355Y-104347290D01*
X104586359Y-104457167D01*
X104650660Y-104583820D01*
X104690696Y-104730492D01*
X104704766Y-104901550D01*
X104692083Y-105052706D01*
X104654935Y-105191288D01*
X104593491Y-105319787D01*
X104506355Y-105440093D01*
X104393675Y-105546185D01*
X104272340Y-105619597D01*
X104140179Y-105663541D01*
X103993872Y-105678535D01*
X103856830Y-105665308D01*
X103734390Y-105626807D01*
X103623464Y-105563109D01*
X103521959Y-105472065D01*
X103441179Y-105366504D01*
X103383945Y-105251436D01*
X103349102Y-105124880D01*
X103345000Y-105076721D01*
X103694846Y-105076721D01*
X103705501Y-105153785D01*
X103737503Y-105224887D01*
X103793312Y-105292326D01*
X103863300Y-105345423D01*
X103936476Y-105376033D01*
X104014963Y-105386226D01*
X104102807Y-105374547D01*
X104183872Y-105339564D01*
X104260659Y-105278893D01*
X104321702Y-105202348D01*
X104356579Y-105122998D01*
X104368126Y-105038436D01*
X104357002Y-105017057D01*
X104313989Y-105007942D01*
X104081343Y-105017372D01*
X103782028Y-105049183D01*
X103707467Y-105064945D01*
X103694846Y-105076721D01*
X103345000Y-105076721D01*
X103337116Y-104984165D01*
X103348405Y-104916914D01*
X103379812Y-104869165D01*
X103433299Y-104835995D01*
X103584294Y-104814012D01*
X104363558Y-104750022D01*
X104339457Y-104666781D01*
X104292053Y-104591311D01*
X104217807Y-104521655D01*
X104134182Y-104471108D01*
X104048626Y-104441693D01*
X103959349Y-104431920D01*
X103805980Y-104448528D01*
X103661730Y-104498114D01*
X103523436Y-104582642D01*
X103475479Y-104621062D01*
X103459628Y-104618106D01*
X103403342Y-104514535D01*
X103350683Y-104406397D01*
X103374729Y-104372142D01*
X103492498Y-104270764D01*
X103624130Y-104198875D01*
X103772424Y-104154873D01*
X103941348Y-104139610D01*
X104113561Y-104153734D01*
G37*
G36*
X102289851Y-104455563D02*
G01*
X102295896Y-104362738D01*
X102304897Y-104268302D01*
X102309330Y-104234181D01*
X102337943Y-104213762D01*
X102422901Y-104185135D01*
X102548031Y-104164735D01*
X102725764Y-104156805D01*
X102842086Y-104167387D01*
X102928560Y-104195822D01*
X102992256Y-104239253D01*
X103037829Y-104297915D01*
X103066835Y-104375085D01*
X103077449Y-104476519D01*
X103071404Y-104861787D01*
X103065359Y-105247056D01*
X103072547Y-105282582D01*
X103092095Y-105303623D01*
X103127018Y-105313417D01*
X103236634Y-105314894D01*
X103257132Y-105338882D01*
X103268203Y-105437272D01*
X103262158Y-105528216D01*
X103248646Y-105556227D01*
X103214066Y-105571472D01*
X103140451Y-105572949D01*
X103100213Y-105581963D01*
X103078909Y-105601719D01*
X103071404Y-105634071D01*
X103075165Y-105815959D01*
X103078927Y-105999458D01*
X103071931Y-106070209D01*
X103056824Y-106100166D01*
X103036880Y-106108403D01*
X102754242Y-106065416D01*
X102727816Y-106054346D01*
X102719719Y-106032370D01*
X102729525Y-105834228D01*
X102739197Y-105636086D01*
X102728819Y-105603193D01*
X102698628Y-105592562D01*
X102338077Y-105592562D01*
X102318111Y-105587524D01*
X102312419Y-105574561D01*
X102317793Y-105516932D01*
X102323032Y-105457825D01*
X102321554Y-105388912D01*
X102319942Y-105320133D01*
X102329175Y-105299719D01*
X102362123Y-105291655D01*
X102543876Y-105300252D01*
X102725764Y-105308849D01*
X102733657Y-105297564D01*
X102743764Y-105223010D01*
X102751287Y-104923581D01*
X102751287Y-104699378D01*
X102743898Y-104579913D01*
X102727241Y-104518834D01*
X102696166Y-104476637D01*
X102648670Y-104450354D01*
X102578400Y-104440517D01*
X102441648Y-104462011D01*
X102307852Y-104483504D01*
X102295021Y-104477486D01*
X102289851Y-104455563D01*
G37*
G36*
X100415361Y-104523670D02*
G01*
X100420915Y-104504768D01*
X100443974Y-104472354D01*
X100569720Y-104346963D01*
X100703484Y-104252288D01*
X100846582Y-104185379D01*
X101001103Y-104144859D01*
X101169778Y-104131013D01*
X101347454Y-104144929D01*
X101505471Y-104185096D01*
X101647189Y-104250405D01*
X101775199Y-104341459D01*
X101891149Y-104460533D01*
X101980372Y-104586661D01*
X102050237Y-104724631D01*
X102101139Y-104876054D01*
X102132655Y-105042957D01*
X102143562Y-105227712D01*
X102132514Y-105412152D01*
X102100541Y-105579246D01*
X102048805Y-105731327D01*
X101977650Y-105870382D01*
X101886582Y-105997981D01*
X101769216Y-106119009D01*
X101640289Y-106211335D01*
X101498211Y-106277389D01*
X101340456Y-106317919D01*
X101163733Y-106331934D01*
X100982307Y-106318486D01*
X100824560Y-106280097D01*
X100686606Y-106218501D01*
X100565391Y-106133769D01*
X100458885Y-106024310D01*
X100439877Y-105993260D01*
X100434839Y-105971786D01*
X100447141Y-105936312D01*
X100514499Y-105820929D01*
X100590267Y-105712342D01*
X100610682Y-105695730D01*
X100634202Y-105707197D01*
X100702297Y-105769614D01*
X100792078Y-105851967D01*
X100869139Y-105905559D01*
X100957788Y-105946420D01*
X101052473Y-105971060D01*
X101154733Y-105979443D01*
X101298640Y-105964515D01*
X101421021Y-105921807D01*
X101526426Y-105851978D01*
X101617646Y-105752419D01*
X101680227Y-105648066D01*
X101726108Y-105529712D01*
X101754818Y-105394985D01*
X101764876Y-105241011D01*
X101754966Y-105087087D01*
X101726607Y-104951520D01*
X101681181Y-104831625D01*
X101619124Y-104725170D01*
X101527520Y-104622539D01*
X101422178Y-104550923D01*
X101300408Y-104507307D01*
X101157688Y-104492101D01*
X101061326Y-104500174D01*
X100967062Y-104524462D01*
X100873707Y-104565716D01*
X100785448Y-104621800D01*
X100690341Y-104702199D01*
X100604637Y-104775814D01*
X100589134Y-104761928D01*
X100505498Y-104655720D01*
X100426836Y-104546030D01*
X100415361Y-104523670D01*
G37*
G36*
X99799381Y-104154229D02*
G01*
X99926078Y-104197097D01*
X100042405Y-104268813D01*
X100150455Y-104372679D01*
X100233691Y-104489135D01*
X100292353Y-104613103D01*
X100327784Y-104746353D01*
X100339865Y-104891206D01*
X100327079Y-105056232D01*
X100290393Y-105201046D01*
X100231129Y-105329062D01*
X100148977Y-105442914D01*
X100041518Y-105541959D01*
X99920114Y-105612056D01*
X99781957Y-105654998D01*
X99622927Y-105669938D01*
X99511252Y-105659703D01*
X99408396Y-105629587D01*
X99312354Y-105579373D01*
X99221673Y-105507394D01*
X99142013Y-105418466D01*
X99133012Y-105414033D01*
X99125846Y-105425331D01*
X99107489Y-105507529D01*
X99084563Y-105585936D01*
X99065443Y-105601159D01*
X98913646Y-105579263D01*
X98807778Y-105548605D01*
X98790462Y-105532381D01*
X98794895Y-105505379D01*
X98840082Y-105172892D01*
X98853464Y-104913506D01*
X98853329Y-104911088D01*
X99173581Y-104911088D01*
X99186178Y-105029788D01*
X99222724Y-105133988D01*
X99283332Y-105226906D01*
X99368566Y-105306506D01*
X99465823Y-105353090D01*
X99579403Y-105369031D01*
X99693186Y-105353328D01*
X99792053Y-105307247D01*
X99880041Y-105228384D01*
X99944295Y-105133250D01*
X99982611Y-105028515D01*
X99995703Y-104911088D01*
X99982614Y-104794684D01*
X99944310Y-104690984D01*
X99880041Y-104596882D01*
X99792161Y-104518918D01*
X99693290Y-104473280D01*
X99579403Y-104457712D01*
X99468710Y-104473446D01*
X99371819Y-104519853D01*
X99284809Y-104599837D01*
X99223005Y-104693668D01*
X99186155Y-104796454D01*
X99173581Y-104911088D01*
X98853329Y-104911088D01*
X98815985Y-104240763D01*
X98814508Y-104219673D01*
X98823803Y-104186957D01*
X98854270Y-104176283D01*
X98979066Y-104166611D01*
X99103056Y-104156805D01*
X99123833Y-104174106D01*
X99146714Y-104264272D01*
X99165268Y-104357861D01*
X99175193Y-104371739D01*
X99256331Y-104312229D01*
X99345226Y-104245518D01*
X99421695Y-104200732D01*
X99542058Y-104154453D01*
X99659063Y-104139610D01*
X99799381Y-104154229D01*
G37*
G36*
X97685031Y-105586920D02*
G01*
X97690955Y-105425647D01*
X97707599Y-105286819D01*
X97718044Y-105260109D01*
X97737555Y-105252295D01*
X97833066Y-105259012D01*
X97929921Y-105265863D01*
X98050388Y-105251495D01*
X98126445Y-105214713D01*
X98171856Y-105158933D01*
X98193274Y-105076599D01*
X98203424Y-104889326D01*
X98203424Y-104723692D01*
X98196707Y-104467653D01*
X98189991Y-104211613D01*
X98199085Y-104180657D01*
X98224515Y-104171044D01*
X98365833Y-104172522D01*
X98507152Y-104174000D01*
X98532700Y-104183107D01*
X98541542Y-104211479D01*
X98537915Y-104577538D01*
X98534153Y-104944940D01*
X98543135Y-105193037D01*
X98567382Y-105388599D01*
X98603335Y-105540441D01*
X98606290Y-105558441D01*
X98601627Y-105573548D01*
X98586812Y-105583965D01*
X98430448Y-105603309D01*
X98280129Y-105635549D01*
X98263540Y-105621028D01*
X98248560Y-105544739D01*
X98234838Y-105467515D01*
X98221559Y-105453930D01*
X98214036Y-105457019D01*
X98090853Y-105537754D01*
X98021740Y-105574424D01*
X97952489Y-105599682D01*
X97889607Y-105613179D01*
X97802304Y-105618354D01*
X97723222Y-105612560D01*
X97692448Y-105600742D01*
X97685031Y-105586920D01*
G37*
G36*
X96682231Y-104455563D02*
G01*
X96688276Y-104362738D01*
X96697276Y-104268302D01*
X96701709Y-104234181D01*
X96730322Y-104213762D01*
X96815281Y-104185135D01*
X96940410Y-104164735D01*
X97118143Y-104156805D01*
X97234466Y-104167387D01*
X97320940Y-104195822D01*
X97384636Y-104239253D01*
X97430208Y-104297915D01*
X97459215Y-104375085D01*
X97469829Y-104476519D01*
X97463784Y-104861787D01*
X97457739Y-105247056D01*
X97464927Y-105282582D01*
X97484474Y-105303623D01*
X97519398Y-105313417D01*
X97629014Y-105314894D01*
X97649512Y-105338882D01*
X97660582Y-105437272D01*
X97654537Y-105528216D01*
X97641025Y-105556227D01*
X97606446Y-105571472D01*
X97532831Y-105572949D01*
X97492592Y-105581963D01*
X97471288Y-105601719D01*
X97463784Y-105634071D01*
X97467545Y-105815959D01*
X97471306Y-105999458D01*
X97464310Y-106070209D01*
X97449204Y-106100166D01*
X97429260Y-106108403D01*
X97146622Y-106065416D01*
X97120195Y-106054346D01*
X97112098Y-106032370D01*
X97121905Y-105834228D01*
X97131577Y-105636086D01*
X97121199Y-105603193D01*
X97091008Y-105592562D01*
X96730457Y-105592562D01*
X96710491Y-105587524D01*
X96704799Y-105574561D01*
X96710172Y-105516932D01*
X96715411Y-105457825D01*
X96713934Y-105388912D01*
X96712322Y-105320133D01*
X96721555Y-105299719D01*
X96754502Y-105291655D01*
X96936256Y-105300252D01*
X97118143Y-105308849D01*
X97126036Y-105297564D01*
X97136144Y-105223010D01*
X97143667Y-104923581D01*
X97143667Y-104699378D01*
X97136277Y-104579913D01*
X97119621Y-104518834D01*
X97088546Y-104476637D01*
X97041050Y-104450354D01*
X96970779Y-104440517D01*
X96834028Y-104462011D01*
X96700232Y-104483504D01*
X96687401Y-104477486D01*
X96682231Y-104455563D01*
G37*
D15*
X104866667Y-178107200D02*
X105009524Y-178154819D01*
X105009524Y-178154819D02*
X105247619Y-178154819D01*
X105247619Y-178154819D02*
X105342857Y-178107200D01*
X105342857Y-178107200D02*
X105390476Y-178059580D01*
X105390476Y-178059580D02*
X105438095Y-177964342D01*
X105438095Y-177964342D02*
X105438095Y-177869104D01*
X105438095Y-177869104D02*
X105390476Y-177773866D01*
X105390476Y-177773866D02*
X105342857Y-177726247D01*
X105342857Y-177726247D02*
X105247619Y-177678628D01*
X105247619Y-177678628D02*
X105057143Y-177631009D01*
X105057143Y-177631009D02*
X104961905Y-177583390D01*
X104961905Y-177583390D02*
X104914286Y-177535771D01*
X104914286Y-177535771D02*
X104866667Y-177440533D01*
X104866667Y-177440533D02*
X104866667Y-177345295D01*
X104866667Y-177345295D02*
X104914286Y-177250057D01*
X104914286Y-177250057D02*
X104961905Y-177202438D01*
X104961905Y-177202438D02*
X105057143Y-177154819D01*
X105057143Y-177154819D02*
X105295238Y-177154819D01*
X105295238Y-177154819D02*
X105438095Y-177202438D01*
X105771429Y-177154819D02*
X106009524Y-178154819D01*
X106009524Y-178154819D02*
X106200000Y-177440533D01*
X106200000Y-177440533D02*
X106390476Y-178154819D01*
X106390476Y-178154819D02*
X106628572Y-177154819D01*
X107438095Y-177488152D02*
X107438095Y-178154819D01*
X107200000Y-177107200D02*
X106961905Y-177821485D01*
X106961905Y-177821485D02*
X107580952Y-177821485D01*
X119416667Y-177407200D02*
X119559524Y-177454819D01*
X119559524Y-177454819D02*
X119797619Y-177454819D01*
X119797619Y-177454819D02*
X119892857Y-177407200D01*
X119892857Y-177407200D02*
X119940476Y-177359580D01*
X119940476Y-177359580D02*
X119988095Y-177264342D01*
X119988095Y-177264342D02*
X119988095Y-177169104D01*
X119988095Y-177169104D02*
X119940476Y-177073866D01*
X119940476Y-177073866D02*
X119892857Y-177026247D01*
X119892857Y-177026247D02*
X119797619Y-176978628D01*
X119797619Y-176978628D02*
X119607143Y-176931009D01*
X119607143Y-176931009D02*
X119511905Y-176883390D01*
X119511905Y-176883390D02*
X119464286Y-176835771D01*
X119464286Y-176835771D02*
X119416667Y-176740533D01*
X119416667Y-176740533D02*
X119416667Y-176645295D01*
X119416667Y-176645295D02*
X119464286Y-176550057D01*
X119464286Y-176550057D02*
X119511905Y-176502438D01*
X119511905Y-176502438D02*
X119607143Y-176454819D01*
X119607143Y-176454819D02*
X119845238Y-176454819D01*
X119845238Y-176454819D02*
X119988095Y-176502438D01*
X120321429Y-176454819D02*
X120559524Y-177454819D01*
X120559524Y-177454819D02*
X120750000Y-176740533D01*
X120750000Y-176740533D02*
X120940476Y-177454819D01*
X120940476Y-177454819D02*
X121178572Y-176454819D01*
X121464286Y-176454819D02*
X122083333Y-176454819D01*
X122083333Y-176454819D02*
X121750000Y-176835771D01*
X121750000Y-176835771D02*
X121892857Y-176835771D01*
X121892857Y-176835771D02*
X121988095Y-176883390D01*
X121988095Y-176883390D02*
X122035714Y-176931009D01*
X122035714Y-176931009D02*
X122083333Y-177026247D01*
X122083333Y-177026247D02*
X122083333Y-177264342D01*
X122083333Y-177264342D02*
X122035714Y-177359580D01*
X122035714Y-177359580D02*
X121988095Y-177407200D01*
X121988095Y-177407200D02*
X121892857Y-177454819D01*
X121892857Y-177454819D02*
X121607143Y-177454819D01*
X121607143Y-177454819D02*
X121511905Y-177407200D01*
X121511905Y-177407200D02*
X121464286Y-177359580D01*
X90366667Y-177407200D02*
X90509524Y-177454819D01*
X90509524Y-177454819D02*
X90747619Y-177454819D01*
X90747619Y-177454819D02*
X90842857Y-177407200D01*
X90842857Y-177407200D02*
X90890476Y-177359580D01*
X90890476Y-177359580D02*
X90938095Y-177264342D01*
X90938095Y-177264342D02*
X90938095Y-177169104D01*
X90938095Y-177169104D02*
X90890476Y-177073866D01*
X90890476Y-177073866D02*
X90842857Y-177026247D01*
X90842857Y-177026247D02*
X90747619Y-176978628D01*
X90747619Y-176978628D02*
X90557143Y-176931009D01*
X90557143Y-176931009D02*
X90461905Y-176883390D01*
X90461905Y-176883390D02*
X90414286Y-176835771D01*
X90414286Y-176835771D02*
X90366667Y-176740533D01*
X90366667Y-176740533D02*
X90366667Y-176645295D01*
X90366667Y-176645295D02*
X90414286Y-176550057D01*
X90414286Y-176550057D02*
X90461905Y-176502438D01*
X90461905Y-176502438D02*
X90557143Y-176454819D01*
X90557143Y-176454819D02*
X90795238Y-176454819D01*
X90795238Y-176454819D02*
X90938095Y-176502438D01*
X91271429Y-176454819D02*
X91509524Y-177454819D01*
X91509524Y-177454819D02*
X91700000Y-176740533D01*
X91700000Y-176740533D02*
X91890476Y-177454819D01*
X91890476Y-177454819D02*
X92128572Y-176454819D01*
X92461905Y-176550057D02*
X92509524Y-176502438D01*
X92509524Y-176502438D02*
X92604762Y-176454819D01*
X92604762Y-176454819D02*
X92842857Y-176454819D01*
X92842857Y-176454819D02*
X92938095Y-176502438D01*
X92938095Y-176502438D02*
X92985714Y-176550057D01*
X92985714Y-176550057D02*
X93033333Y-176645295D01*
X93033333Y-176645295D02*
X93033333Y-176740533D01*
X93033333Y-176740533D02*
X92985714Y-176883390D01*
X92985714Y-176883390D02*
X92414286Y-177454819D01*
X92414286Y-177454819D02*
X93033333Y-177454819D01*
D10*
X95316666Y-148757419D02*
X95316666Y-149471704D01*
X95316666Y-149471704D02*
X95269047Y-149614561D01*
X95269047Y-149614561D02*
X95173809Y-149709800D01*
X95173809Y-149709800D02*
X95030952Y-149757419D01*
X95030952Y-149757419D02*
X94935714Y-149757419D01*
X96316666Y-149757419D02*
X95745238Y-149757419D01*
X96030952Y-149757419D02*
X96030952Y-148757419D01*
X96030952Y-148757419D02*
X95935714Y-148900276D01*
X95935714Y-148900276D02*
X95840476Y-148995514D01*
X95840476Y-148995514D02*
X95745238Y-149043133D01*
%TO.C,SW4*%
D13*
X104610000Y-184030000D02*
X107790000Y-184030000D01*
X104610000Y-180970000D02*
X107790000Y-180970000D01*
X105180000Y-183260000D02*
X105180000Y-181740000D01*
X105180000Y-181740000D02*
X107220000Y-181740000D01*
X107220000Y-181740000D02*
X107220000Y-183260000D01*
X107220000Y-183260000D02*
X105180000Y-183260000D01*
X108300000Y-182430000D02*
X108300000Y-182570000D01*
X104100000Y-182430000D02*
X104100000Y-182570000D01*
D16*
X103930000Y-181100000D02*
G75*
G02*
X103870000Y-181100000I-30000J0D01*
G01*
X103870000Y-181100000D02*
G75*
G02*
X103930000Y-181100000I30000J0D01*
G01*
%TO.C,SW3*%
D13*
X119160000Y-183330000D02*
X122340000Y-183330000D01*
X119160000Y-180270000D02*
X122340000Y-180270000D01*
X119730000Y-182560000D02*
X119730000Y-181040000D01*
X119730000Y-181040000D02*
X121770000Y-181040000D01*
X121770000Y-181040000D02*
X121770000Y-182560000D01*
X121770000Y-182560000D02*
X119730000Y-182560000D01*
X122850000Y-181730000D02*
X122850000Y-181870000D01*
X118650000Y-181730000D02*
X118650000Y-181870000D01*
D16*
X118480000Y-180400000D02*
G75*
G02*
X118420000Y-180400000I-30000J0D01*
G01*
X118420000Y-180400000D02*
G75*
G02*
X118480000Y-180400000I30000J0D01*
G01*
%TO.C,SW2*%
D13*
X90110000Y-183330000D02*
X93290000Y-183330000D01*
X90110000Y-180270000D02*
X93290000Y-180270000D01*
X90680000Y-182560000D02*
X90680000Y-181040000D01*
X90680000Y-181040000D02*
X92720000Y-181040000D01*
X92720000Y-181040000D02*
X92720000Y-182560000D01*
X92720000Y-182560000D02*
X90680000Y-182560000D01*
X93800000Y-181730000D02*
X93800000Y-181870000D01*
X89600000Y-181730000D02*
X89600000Y-181870000D01*
D16*
X89430000Y-180400000D02*
G75*
G02*
X89370000Y-180400000I-30000J0D01*
G01*
X89370000Y-180400000D02*
G75*
G02*
X89430000Y-180400000I30000J0D01*
G01*
%TD*%
%LPC*%
D17*
%TO.C,SW4*%
X104050000Y-181700000D03*
X108350000Y-181700000D03*
X104050000Y-183300000D03*
X108350000Y-183300000D03*
%TD*%
%TO.C,SW3*%
X118600000Y-181000000D03*
X122900000Y-181000000D03*
X118600000Y-182600000D03*
X122900000Y-182600000D03*
%TD*%
%TO.C,SW2*%
X89550000Y-181000000D03*
X93850000Y-181000000D03*
X89550000Y-182600000D03*
X93850000Y-182600000D03*
%TD*%
D18*
%TO.C,J1*%
X118400000Y-151800000D03*
X117900000Y-151800000D03*
X117400000Y-151800000D03*
X116900000Y-151800000D03*
X116400000Y-151800000D03*
X115900000Y-151800000D03*
X115400000Y-151800000D03*
X114900000Y-151800000D03*
X114400000Y-151800000D03*
X113900000Y-151800000D03*
X113400000Y-151800000D03*
X112900000Y-151800000D03*
X112400000Y-151800000D03*
X111900000Y-151800000D03*
X111400000Y-151800000D03*
X110900000Y-151800000D03*
X110400000Y-151800000D03*
X109900000Y-151800000D03*
X109400000Y-151800000D03*
X108900000Y-151800000D03*
X108400000Y-151800000D03*
X107900000Y-151800000D03*
X107400000Y-151800000D03*
X106900000Y-151800000D03*
X106400000Y-151800000D03*
X105900000Y-151800000D03*
X105400000Y-151800000D03*
X104900000Y-151800000D03*
X104400000Y-151800000D03*
X103900000Y-151800000D03*
X103400000Y-151800000D03*
X102900000Y-151800000D03*
X102400000Y-151800000D03*
X101900000Y-151800000D03*
X101400000Y-151800000D03*
X100900000Y-151800000D03*
X100400000Y-151800000D03*
X99900000Y-151800000D03*
X99400000Y-151800000D03*
X98900000Y-151800000D03*
X98400000Y-151800000D03*
X97900000Y-151800000D03*
X97400000Y-151800000D03*
X96400000Y-151800000D03*
X96900000Y-151800000D03*
X95900000Y-151800000D03*
X95400000Y-151800000D03*
X94900000Y-151800000D03*
X94400000Y-151800000D03*
X93900000Y-151800000D03*
%TD*%
D19*
%TO.C,U9*%
X84610000Y-125650000D03*
X84610000Y-129450000D03*
%TD*%
%TO.C,CN2*%
X97250000Y-113503500D03*
X93950000Y-113503500D03*
%TD*%
D20*
%TO.C,SW5*%
X129467500Y-128650051D03*
X129467500Y-126950051D03*
%TD*%
D21*
%TO.C,J2*%
X109040000Y-180695000D03*
X103260000Y-180695000D03*
D22*
X110470000Y-184375000D03*
D23*
X110470000Y-180175000D03*
D22*
X101830000Y-184375000D03*
D23*
X101830000Y-180175000D03*
%TD*%
%LPD*%
M02*
