M48
; DRILL file KiCad 10.0.6 date 2026-09-14T15:27:08
; FORMAT={-:-/ absolute / metric / decimal}
; #@! TF.CreationDate,2026-09-14T15:27:08+01:00
; #@! TF.GenerationSoftware,Kicad,Pcbnew,10.0.6
; #@! TF.FileFunction,MixedPlating,1,2
FMAT,2
METRIC
; #@! TA.AperFunction,Plated,PTH,ViaDrill
T1C0.300
; #@! TA.AperFunction,Plated,PTH,ComponentDrill
T2C0.600
; #@! TA.AperFunction,Plated,PTH,ComponentDrill
T3C0.700
; #@! TA.AperFunction,Plated,PTH,ComponentDrill
T4C1.100
; #@! TA.AperFunction,NonPlated,NPTH,ComponentDrill
T5C0.650
%
G90
G05
T1
X82.66Y-93.91
X83.5Y-150.75
X85.36Y-168.05
X85.46Y-142.33
X85.67Y-140.88
X85.95Y-118.7
X86.56Y-105.27
X86.73Y-108.96
X87.327Y-136.185
X87.59Y-154.54
X88.2Y-137.725
X88.325Y-136.6
X88.377Y-126.573
X88.388Y-124.737
X88.65Y-181.012
X88.873Y-157.667
X88.891Y-153.226
X89.315Y-170.793
X89.65Y-167.425
X89.82Y-160.22
X90.0Y-119.5
X90.0Y-164.74
X90.13Y-170.06
X90.2Y-169.05
X90.3Y-158.3
X90.51Y-185.18
X90.8Y-171.9
X91.573Y-168.827
X91.8Y-158.83
X91.94Y-166.65
X92.22Y-176.23
X92.54Y-151.76
X92.563Y-164.32
X92.65Y-157.75
X92.825Y-166.275
X93.18Y-139.746
X93.7Y-166.675
X94.18Y-100.89
X94.8Y-157.2
X95.05Y-158.6
X95.331Y-162.555
X95.45Y-134.98
X95.8Y-167.7
X96.1Y-169.125
X96.24Y-171.49
X96.459Y-156.634
X96.796Y-154.175
X97.0Y-148.9
X97.45Y-93.9
X97.98Y-163.29
X98.054Y-158.746
X98.088Y-167.25
X98.15Y-154.075
X98.6Y-148.8
X98.625Y-142.825
X99.05Y-176.02
X99.5Y-179.9
X99.55Y-154.1
X99.95Y-162.95
X100.22Y-148.93
X100.346Y-143.825
X100.45Y-182.35
X100.5Y-142.8
X100.92Y-105.22
X100.925Y-153.875
X101.3Y-149.0
X101.47Y-158.91
X101.575Y-144.55
X102.01Y-154.973
X102.29Y-132.17
X102.4Y-149.0
X102.48Y-109.39
X102.816Y-142.694
X103.037Y-145.148
X103.12Y-164.35
X103.15Y-154.5
X103.15Y-173.1
X103.325Y-156.525
X103.7Y-178.5
X103.806Y-160.367
X103.956Y-156.106
X104.065Y-154.543
X104.069Y-161.766
X104.075Y-149.5
X104.1Y-144.9
X104.15Y-146.925
X104.29Y-142.07
X104.3Y-165.775
X104.4Y-171.33
X104.7Y-156.075
X104.925Y-154.781
X105.425Y-156.027
X105.99Y-149.21
X106.1Y-172.78
X106.1Y-174.5
X106.165Y-156.14
X106.248Y-182.661
X106.324Y-154.567
X106.358Y-156.963
X106.71Y-176.69
X107.05Y-154.6
X107.15Y-156.975
X107.175Y-159.575
X107.625Y-160.375
X107.725Y-156.175
X107.769Y-154.493
X108.153Y-159.33
X108.2Y-165.11
X108.3Y-146.2
X108.45Y-138.675
X108.458Y-101.717
X108.48Y-177.627
X108.5Y-154.6
X108.519Y-175.717
X108.55Y-165.77
X108.55Y-174.4
X108.65Y-149.5
X108.725Y-163.75
X108.9Y-146.9
X109.257Y-167.228
X109.277Y-174.404
X109.32Y-143.42
X109.32Y-178.21
X109.433Y-147.498
X109.777Y-169.565
X109.827Y-159.243
X109.83Y-176.2
X110.084Y-165.534
X110.11Y-114.64
X110.499Y-169.65
X110.53Y-132.68
X110.673Y-168.823
X110.925Y-147.275
X110.925Y-149.177
X111.007Y-141.5
X111.76Y-144.36
X112.4Y-114.8
X112.4Y-148.677
X112.412Y-149.812
X112.5Y-114.0
X112.8Y-178.5
X112.923Y-173.13
X113.2Y-161.73
X113.245Y-153.948
X113.387Y-156.616
X113.4Y-137.5
X113.4Y-179.9
X114.429Y-173.896
X114.54Y-145.65
X114.9Y-154.1
X114.909Y-174.442
X114.95Y-139.8
X115.275Y-143.5
X115.412Y-124.747
X115.425Y-155.775
X115.474Y-154.694
X115.975Y-142.775
X116.196Y-155.787
X116.5Y-138.1
X116.58Y-177.61
X116.881Y-154.654
X116.9Y-136.025
X116.9Y-163.7
X116.9Y-165.35
X116.9Y-167.0
X117.325Y-181.225
X117.475Y-157.25
X117.5Y-149.4
X117.575Y-134.35
X117.62Y-142.87
X118.55Y-163.7
X118.55Y-165.35
X118.55Y-167.0
X118.75Y-149.902
X119.16Y-157.235
X119.72Y-119.38
X119.87Y-157.08
X120.145Y-138.882
X120.19Y-116.11
X120.2Y-163.7
X120.2Y-165.35
X120.2Y-167.0
X120.275Y-173.75
X120.545Y-152.259
X120.614Y-156.759
X120.775Y-154.775
X120.825Y-142.4
X120.87Y-143.44
X121.175Y-174.025
X121.19Y-129.54
X121.23Y-175.04
X121.385Y-118.319
X122.046Y-150.055
X122.1Y-117.3
X122.1Y-159.74
X122.525Y-155.825
X122.85Y-148.7
X123.0Y-175.65
X123.1Y-150.175
X123.15Y-143.35
X123.177Y-147.073
X123.34Y-152.99
X123.48Y-157.29
X123.675Y-134.375
X123.71Y-144.33
X123.86Y-147.9
X124.08Y-138.27
X124.21Y-120.6
X124.28Y-112.01
X124.485Y-155.99
X124.7Y-144.2
X124.725Y-122.2
X125.17Y-150.53
X125.175Y-134.325
X125.22Y-152.1
X125.335Y-142.443
X125.6Y-130.6
X125.875Y-123.6
X127.05Y-159.797
X127.175Y-156.275
X127.422Y-160.421
X127.585Y-144.695
X127.6Y-140.67
X127.6Y-171.04
X127.763Y-161.063
X127.87Y-145.83
X128.52Y-180.21
X129.11Y-136.15
X129.53Y-142.67
X130.23Y-160.76
T3
X129.468Y-126.95
X129.468Y-128.65
T4
X84.61Y-125.65
X84.61Y-129.45
X93.95Y-113.503
X97.25Y-113.503
T5
X103.26Y-180.695
X109.04Y-180.695
T2
G00X101.83Y-180.725
M15
G01X101.83Y-179.625
M16
G05
G00X101.83Y-184.775
M15
G01X101.83Y-183.975
M16
G05
G00X110.47Y-180.725
M15
G01X110.47Y-179.625
M16
G05
G00X110.47Y-184.775
M15
G01X110.47Y-183.975
M16
G05
M30
