M48
; DRILL file KiCad 10.0.4 date 2026-06-30T15:19:44
; FORMAT={-:-/ absolute / metric / decimal}
; #@! TF.CreationDate,2026-06-30T15:19:44+01:00
; #@! TF.GenerationSoftware,Kicad,Pcbnew,10.0.4
; #@! TF.FileFunction,MixedPlating,1,2
FMAT,2
METRIC
; #@! TA.AperFunction,Plated,PTH,ViaDrill
T1C0.300
; #@! TA.AperFunction,Plated,PTH,ComponentDrill
T2C0.600
; #@! TA.AperFunction,Plated,PTH,ComponentDrill
T3C0.800
; #@! TA.AperFunction,Plated,PTH,ComponentDrill
T4C1.100
; #@! TA.AperFunction,NonPlated,NPTH,ComponentDrill
T5C0.650
%
G90
G05
T1
X134.156Y-68.112
X134.5Y-63.0
X134.5Y-64.75
X134.75Y-49.25
X135.0Y-73.25
X135.0Y-89.0
X135.5Y-62.0
X136.0Y-86.25
X136.25Y-89.112
X136.75Y-86.75
X137.0Y-51.15
X137.0Y-56.25
X137.0Y-57.1
X137.0Y-57.95
X137.5Y-89.0
X137.75Y-72.0
X137.8Y-99.775
X138.0Y-59.75
X138.057Y-60.801
X138.223Y-65.5
X138.25Y-92.25
X138.5Y-84.25
X138.75Y-50.5
X138.75Y-54.75
X138.75Y-68.5
X139.0Y-52.0
X139.5Y-62.0
X139.644Y-87.106
X139.75Y-74.5
X139.75Y-80.5
X139.75Y-89.75
X139.832Y-65.905
X139.862Y-92.8
X140.0Y-59.75
X140.0Y-85.25
X140.055Y-64.325
X140.238Y-101.307
X140.25Y-54.5
X140.25Y-66.5
X140.257Y-69.112
X140.26Y-96.0
X140.5Y-56.0
X140.5Y-62.0
X140.5Y-71.75
X140.5Y-81.52
X140.5Y-86.25
X140.764Y-91.372
X141.2Y-54.2
X141.4Y-55.4
X141.4Y-57.0
X141.5Y-68.5
X141.5Y-75.5
X141.504Y-65.676
X141.748Y-64.252
X141.75Y-79.75
X141.75Y-101.25
X142.137Y-94.7
X142.25Y-61.5
X142.25Y-81.75
X142.25Y-89.0
X142.35Y-54.6
X142.35Y-56.25
X142.35Y-57.9
X142.5Y-66.5
X142.75Y-64.75
X142.75Y-97.01
X143.0Y-59.723
X143.0Y-77.75
X143.0Y-78.75
X143.2Y-55.4
X143.2Y-57.0
X143.2Y-58.4
X143.25Y-51.25
X143.701Y-64.316
X144.0Y-54.6
X144.0Y-56.25
X144.0Y-57.9
X144.0Y-71.7
X144.0Y-90.0
X144.02Y-78.75
X144.02Y-79.52
X144.25Y-96.0
X144.277Y-65.723
X144.375Y-66.875
X144.5Y-64.5
X144.5Y-69.0
X144.8Y-57.0
X144.8Y-58.6
X144.9Y-71.7
X145.0Y-55.4
X145.0Y-62.25
X145.5Y-64.25
X145.5Y-75.5
X145.5Y-85.25
X145.65Y-54.6
X145.65Y-56.25
X145.65Y-57.9
X145.75Y-92.5
X146.0Y-69.25
X146.0Y-70.25
X146.25Y-87.0
X146.4Y-55.4
X146.4Y-57.0
X146.748Y-59.998
X146.75Y-67.75
X146.8Y-54.4
X147.0Y-67.0
X147.005Y-93.287
X147.203Y-62.423
X147.244Y-64.716
X147.336Y-105.557
X147.5Y-80.25
X147.6Y-55.8
X147.75Y-57.25
X147.919Y-62.298
X147.973Y-58.772
X148.0Y-67.0
X148.0Y-73.0
X148.0Y-77.75
X148.25Y-55.0
X148.25Y-92.0
X148.5Y-103.5
X148.639Y-62.194
X149.0Y-75.5
X149.0Y-106.25
X149.089Y-64.332
X149.377Y-61.815
X149.423Y-57.63
X149.467Y-104.547
X149.5Y-96.25
X149.651Y-66.273
X149.651Y-67.0
X149.75Y-69.5
X150.0Y-56.25
X150.262Y-64.931
X150.327Y-75.0
X150.5Y-93.5
X151.0Y-57.95
X151.0Y-59.65
X151.0Y-60.377
X151.5Y-77.0
X151.646Y-64.854
X152.0Y-72.26
X152.0Y-89.75
X152.25Y-69.25
X152.251Y-65.488
X152.49Y-54.5
X152.5Y-53.0
X152.5Y-57.0
X152.5Y-67.5
X152.5Y-99.75
X152.75Y-59.0
X152.77Y-49.75
X153.223Y-70.57
X153.5Y-65.5
X153.5Y-84.0
X153.5Y-105.0
X153.71Y-80.1
X153.966Y-70.541
X154.25Y-62.5
X154.25Y-64.75
X154.25Y-101.5
X154.596Y-64.0
X154.666Y-76.163
X154.685Y-75.32
X154.75Y-58.5
X154.75Y-70.5
X154.75Y-73.25
X155.0Y-77.75
X155.46Y-55.5
X155.5Y-61.5
X155.5Y-65.75
X155.5Y-73.25
X155.5Y-86.5
X155.738Y-70.45
X155.821Y-77.824
X156.5Y-102.75
X156.783Y-79.627
X157.0Y-54.25
X157.25Y-67.23
X157.44Y-100.885
X157.5Y-79.75
X157.5Y-80.75
X157.5Y-82.0
X157.7Y-105.5
X158.0Y-61.25
X158.376Y-84.309
X158.75Y-52.0
X158.75Y-90.0
X158.75Y-94.0
X159.0Y-84.75
X159.0Y-93.0
X159.225Y-104.25
X159.25Y-105.75
X159.384Y-61.057
X159.5Y-56.75
X159.602Y-86.113
X159.75Y-90.25
X159.75Y-91.5
X160.45Y-82.5
X160.5Y-62.448
X161.5Y-65.48
X161.5Y-71.0
X161.5Y-79.025
X161.75Y-63.5
X162.073Y-90.594
X162.112Y-79.638
X162.5Y-58.25
X162.69Y-87.4
X163.25Y-47.5
X163.25Y-101.5
X163.5Y-82.5
X163.75Y-85.75
X164.312Y-80.097
X164.5Y-74.25
X165.661Y-78.953
X165.896Y-62.75
X165.896Y-64.75
X165.896Y-68.75
X166.0Y-87.5
X166.0Y-91.5
X166.25Y-84.75
X166.5Y-94.75
X167.0Y-78.25
X167.269Y-80.628
X167.5Y-77.0
X167.975Y-82.75
X168.25Y-66.0
X168.25Y-74.25
X168.75Y-79.75
X170.318Y-85.069
X170.667Y-91.25
X170.75Y-93.5
T3
X135.172Y-67.4
X135.172Y-69.1
T4
X167.746Y-63.85
X167.746Y-67.65
T5
X138.11Y-100.895
X143.89Y-100.895
T2
G00X136.68Y-100.925
M15
G01X136.68Y-99.825
M16
G05
G00X136.68Y-104.975
M15
G01X136.68Y-104.175
M16
G05
G00X145.32Y-100.925
M15
G01X145.32Y-99.825
M16
G05
G00X145.32Y-104.975
M15
G01X145.32Y-104.175
M16
G05
M30
