%TF.GenerationSoftware,KiCad,Pcbnew,10.0.4*%
%TF.CreationDate,2026-06-30T15:19:26+01:00*%
%TF.ProjectId,cheetoPet,63686565-746f-4506-9574-2e6b69636164,rev?*%
%TF.SameCoordinates,Original*%
%TF.FileFunction,Copper,L1,Top*%
%TF.FilePolarity,Positive*%
%FSLAX46Y46*%
G04 Gerber Fmt 4.6, Leading zero omitted, Abs format (unit mm)*
G04 Created by KiCad (PCBNEW 10.0.4) date 2026-06-30 15:19:26*
%MOMM*%
%LPD*%
G01*
G04 APERTURE LIST*
%TA.AperFunction,SMDPad,CuDef*%
%ADD10R,0.900000X1.000000*%
%TD*%
%TA.AperFunction,SMDPad,CuDef*%
%ADD11R,1.700000X0.550000*%
%TD*%
%TA.AperFunction,ComponentPad*%
%ADD12C,1.100000*%
%TD*%
%TA.AperFunction,ComponentPad*%
%ADD13C,0.800000*%
%TD*%
%TA.AperFunction,ComponentPad*%
%ADD14O,1.000000X1.800000*%
%TD*%
%TA.AperFunction,ComponentPad*%
%ADD15O,1.000000X2.100000*%
%TD*%
%TA.AperFunction,ViaPad*%
%ADD16C,0.600000*%
%TD*%
%TA.AperFunction,Conductor*%
%ADD17C,0.200000*%
%TD*%
%TA.AperFunction,Conductor*%
%ADD18C,0.300000*%
%TD*%
%TA.AperFunction,Conductor*%
%ADD19C,0.400000*%
%TD*%
G04 APERTURE END LIST*
D10*
%TO.P,SW9,1,1_1*%
%TO.N,unconnected-(SW9-Pad1)*%
X154550000Y-98260000D03*
%TO.P,SW9,2,2_2*%
%TO.N,unconnected-(SW9-Pad2)*%
X154550000Y-99860000D03*
%TO.P,SW9,3,3_3*%
%TO.N,GND*%
X150450000Y-99860000D03*
%TO.P,SW9,4,4_4*%
%TO.N,X*%
X150450000Y-98260000D03*
D11*
%TO.P,SW9,5,5_5*%
%TO.N,unconnected-(SW9-Pad5)*%
X152500000Y-97640000D03*
%TD*%
D10*
%TO.P,SW7,1,1_1*%
%TO.N,unconnected-(SW7-Pad1)*%
X166050000Y-98260000D03*
%TO.P,SW7,2,2_2*%
%TO.N,unconnected-(SW7-Pad2)*%
X166050000Y-99860000D03*
%TO.P,SW7,3,3_3*%
%TO.N,GND*%
X161950000Y-99860000D03*
%TO.P,SW7,4,4_4*%
%TO.N,B*%
X161950000Y-98260000D03*
D11*
%TO.P,SW7,5,5_5*%
%TO.N,unconnected-(SW7-Pad5)*%
X164000000Y-97640000D03*
%TD*%
D10*
%TO.P,SW8,1,1_1*%
%TO.N,unconnected-(SW8-Pad1)*%
X143050000Y-98260000D03*
%TO.P,SW8,2,2_2*%
%TO.N,unconnected-(SW8-Pad2)*%
X143050000Y-99860000D03*
%TO.P,SW8,3,3_3*%
%TO.N,GND*%
X138950000Y-99860000D03*
%TO.P,SW8,4,4_4*%
%TO.N,A*%
X138950000Y-98260000D03*
D11*
%TO.P,SW8,5,5_5*%
%TO.N,unconnected-(SW8-Pad5)*%
X141000000Y-97640000D03*
%TD*%
D12*
%TO.P,U9,*%
%TO.N,*%
X167746476Y-67650000D03*
X167746476Y-63850000D03*
%TD*%
D13*
%TO.P,SW1,*%
%TO.N,*%
X135172500Y-69100013D03*
X135172500Y-67400013D03*
%TD*%
D14*
%TO.P,J2,SH,SHIELD_SH*%
%TO.N,GND*%
X145320000Y-104575000D03*
D15*
X145320000Y-100375000D03*
D14*
X136680000Y-104575000D03*
D15*
X136680000Y-100375000D03*
%TD*%
D16*
%TO.N,GND*%
X157700000Y-105500000D03*
X156500000Y-102750000D03*
X157440000Y-100885000D03*
X154250000Y-101500000D03*
X152500000Y-99750000D03*
X149500000Y-96250000D03*
X140500000Y-62000000D03*
X142350000Y-57900000D03*
X141200000Y-54200000D03*
X142350000Y-54600000D03*
X138250000Y-92250000D03*
X146400000Y-55400000D03*
X139750000Y-74500000D03*
X157000000Y-54250000D03*
X145000000Y-55400000D03*
X159602393Y-86113078D03*
X146400000Y-57000000D03*
X134155928Y-68112213D03*
X141750000Y-79750000D03*
X168250000Y-66000000D03*
X152000000Y-89750000D03*
X144800000Y-58600000D03*
X148500000Y-103500000D03*
X140054833Y-64325070D03*
X136000000Y-86250000D03*
X159383884Y-61057008D03*
X147005435Y-93286555D03*
X166500000Y-94750000D03*
X144250000Y-96000000D03*
X168250000Y-74250000D03*
X162690000Y-87400000D03*
X164311934Y-80096721D03*
X140500000Y-86250000D03*
X144000000Y-90000000D03*
X145500000Y-75500000D03*
X166000000Y-87500000D03*
X140500000Y-56000000D03*
X163250000Y-47500000D03*
X152770000Y-49750000D03*
X149000000Y-106250000D03*
X152250000Y-69250000D03*
X145000000Y-62250000D03*
X146800000Y-54400000D03*
X148000000Y-77750000D03*
X137800000Y-99775000D03*
X164500000Y-74250000D03*
X140256679Y-69112172D03*
X148250000Y-55000000D03*
X143200000Y-57000000D03*
X143200000Y-55400000D03*
X141400000Y-57000000D03*
X134500000Y-64750000D03*
X145650000Y-54600000D03*
X140250000Y-54500000D03*
X144000000Y-54600000D03*
X145500000Y-85250000D03*
X147500000Y-80250000D03*
X153500000Y-84000000D03*
X170750000Y-93500000D03*
X153710000Y-80100000D03*
X170667000Y-91250000D03*
X141400000Y-55400000D03*
X144500000Y-69000000D03*
X167269235Y-80627570D03*
X157250000Y-67230000D03*
X152500000Y-57000000D03*
X142350000Y-56250000D03*
X155000000Y-77750000D03*
X142750000Y-64750000D03*
X141503717Y-65676035D03*
X151500000Y-77000000D03*
X155500000Y-86500000D03*
X143250000Y-51250000D03*
X140763868Y-91371901D03*
X159000000Y-93000000D03*
X138500000Y-84250000D03*
X134750000Y-49250000D03*
X166000000Y-91500000D03*
X165660921Y-78953163D03*
X147600000Y-55800000D03*
X149750000Y-69500000D03*
X152750000Y-59000000D03*
X142250000Y-81750000D03*
X148000000Y-73000000D03*
X145650000Y-56250000D03*
X158750000Y-52000000D03*
X145650000Y-57900000D03*
X159250000Y-105750000D03*
X167000000Y-78250000D03*
X143200000Y-58400000D03*
X155460000Y-55500000D03*
X159500000Y-56750000D03*
X170317788Y-85069335D03*
X167500000Y-77000000D03*
X135000000Y-73250000D03*
X149377131Y-61814650D03*
X144800000Y-57000000D03*
X141500000Y-75500000D03*
X146250000Y-87000000D03*
X139000000Y-52000000D03*
X144000000Y-56250000D03*
X159000000Y-84750000D03*
X163250000Y-101500000D03*
X138750000Y-54750000D03*
X140500000Y-81520000D03*
X144000000Y-57900000D03*
X135500000Y-62000000D03*
X134500000Y-63000000D03*
X162500000Y-58250000D03*
X163500000Y-82500000D03*
%TO.N,X*%
X137000000Y-51150000D03*
%TO.N,B*%
X152490000Y-54500000D03*
%TO.N,A*%
X152500000Y-53000000D03*
%TO.N,OUT*%
X160450000Y-82500000D03*
X158375948Y-84308869D03*
%TO.N,BAT+*%
X139750000Y-80500000D03*
X167975000Y-82750000D03*
%TO.N,+3V3*%
X149000000Y-75500000D03*
X166250000Y-84750000D03*
X144020000Y-78750000D03*
X162073310Y-90593933D03*
X144020000Y-79520000D03*
X168750000Y-79750000D03*
X153500000Y-105000000D03*
X159225000Y-104250000D03*
X163750000Y-85750000D03*
%TO.N,BAT_ALERT*%
X144375000Y-66875000D03*
X147243570Y-64715710D03*
X141500000Y-68500000D03*
X140500000Y-71750000D03*
%TO.N,POWER*%
X139832191Y-65905048D03*
X142250000Y-61500000D03*
%TO.N,PUSB_D-*%
X139862500Y-92800000D03*
X137750000Y-72000000D03*
X140000000Y-59750000D03*
X139750000Y-89750000D03*
%TO.N,PUSB_D+*%
X142500000Y-66500000D03*
X143701229Y-64315778D03*
X142137500Y-94700000D03*
X145750000Y-92500000D03*
%TO.N,RTC_INT*%
X144277000Y-65723000D03*
X146750000Y-67750000D03*
%TO.N,SCL*%
X151000000Y-60377003D03*
X147000000Y-67000000D03*
X149088875Y-64331785D03*
X143000000Y-77750000D03*
X149651000Y-66272997D03*
X144000000Y-71700000D03*
X146747646Y-59997646D03*
X147203137Y-62423001D03*
X146000000Y-69250000D03*
%TO.N,SDA*%
X144900000Y-71700000D03*
X146000000Y-70250000D03*
X148000000Y-67000000D03*
X151000000Y-59650000D03*
X149651000Y-67000000D03*
X150261736Y-64930702D03*
X147919297Y-62297908D03*
X147973001Y-58772290D03*
X143000000Y-78750000D03*
%TO.N,EN*%
X161500000Y-71000000D03*
X138750000Y-50500000D03*
%TO.N,Net-(U4-IN)*%
X161500000Y-79025000D03*
X135000000Y-89000000D03*
X136750000Y-86750000D03*
X140000000Y-85250000D03*
X136250000Y-89112500D03*
X162112500Y-79637500D03*
X137500000Y-89000000D03*
%TO.N,SPI_MISO*%
X153500000Y-65500000D03*
X154750000Y-73250000D03*
X148638789Y-62193677D03*
X153965663Y-70541435D03*
%TO.N,SPI_MOSI*%
X159750000Y-90250000D03*
X155500000Y-73250000D03*
X154750000Y-70500000D03*
X157500000Y-79750000D03*
%TO.N,SPI_SCL*%
X156783480Y-79627000D03*
X153223081Y-70569943D03*
X158750000Y-90000000D03*
X154685149Y-75319577D03*
%TO.N,MPU_INT1*%
X138000000Y-59750000D03*
X154666308Y-76163260D03*
%TO.N,MPU_INT2*%
X150327000Y-75000000D03*
X138223000Y-65500000D03*
%TO.N,MPU_CS*%
X151000000Y-57950000D03*
X155500000Y-61500000D03*
X154750000Y-58500000D03*
X154250000Y-64750000D03*
X152000000Y-72260000D03*
X152251111Y-65487771D03*
%TO.N,Net-(J2-CC1)*%
X142750000Y-97010000D03*
X141750000Y-101250000D03*
%TO.N,ROCK_L*%
X137000000Y-57100000D03*
X165896476Y-68750000D03*
%TO.N,ROCK_SW*%
X137000000Y-57950000D03*
X165896476Y-64750000D03*
%TO.N,ROCK_R*%
X137000000Y-56250000D03*
X165896476Y-62750000D03*
%TO.N,Net-(J2-D+-PadA6)*%
X140237559Y-101307198D03*
X140260000Y-96000000D03*
%TO.N,DAC_DIN*%
X141747646Y-64252354D03*
X161750000Y-63500000D03*
%TO.N,DAC_SD*%
X161500000Y-65480000D03*
X152500000Y-67500000D03*
%TO.N,DAC_LRCLK*%
X151646130Y-64853870D03*
X154596000Y-64000000D03*
X144500000Y-64500000D03*
X158000000Y-61250000D03*
%TO.N,DAC_BCLK*%
X145500000Y-64250000D03*
X160500000Y-62448000D03*
%TO.N,TFT_TE*%
X139644092Y-87105908D03*
X143000000Y-59723000D03*
X140250000Y-66500000D03*
X138750000Y-68500000D03*
X150000000Y-56250000D03*
X149467034Y-104547357D03*
X139500000Y-62000000D03*
X147336252Y-105556577D03*
%TO.N,TFT_DC*%
X147750000Y-57250000D03*
X150500000Y-93500000D03*
X149422520Y-57630449D03*
X142250000Y-89000000D03*
X148250000Y-92000000D03*
X138056502Y-60800871D03*
%TO.N,TFT_RES*%
X157500000Y-82000000D03*
X159750000Y-91500000D03*
%TO.N,Net-(FPC1-Pad7)*%
X155738478Y-70449558D03*
X158750000Y-94000000D03*
X155500000Y-65750000D03*
X155820512Y-77824330D03*
X157500000Y-80750000D03*
X154250000Y-62500000D03*
%TD*%
%TO.N,GND*%
D17*
X161613078Y-86113078D02*
X162690000Y-87190000D01*
X161250000Y-82500000D02*
X163500000Y-82500000D01*
X149229158Y-61666677D02*
X147805237Y-61666677D01*
X159602393Y-86113078D02*
X161613078Y-86113078D01*
X159000000Y-84750000D02*
X161250000Y-82500000D01*
X145353999Y-61896001D02*
X145000000Y-62250000D01*
X147575913Y-61896001D02*
X145353999Y-61896001D01*
X149377131Y-61814650D02*
X149229158Y-61666677D01*
X147805237Y-61666677D02*
X147575913Y-61896001D01*
X162690000Y-87190000D02*
X162690000Y-87400000D01*
%TO.N,X*%
X142056644Y-90443356D02*
X143190288Y-91577000D01*
X150450000Y-95527000D02*
X150450000Y-98260000D01*
X136146000Y-58303739D02*
X136673000Y-58830739D01*
X136146000Y-55896261D02*
X136146000Y-58303739D01*
X136673000Y-85059712D02*
X137681644Y-86068356D01*
X136673000Y-58830739D02*
X136673000Y-85059712D01*
X137000000Y-55042261D02*
X136146000Y-55896261D01*
X137681644Y-86068356D02*
X137681644Y-87431644D01*
X141188647Y-90443356D02*
X142056644Y-90443356D01*
X139250000Y-89000000D02*
X139745291Y-89000000D01*
X137000000Y-51150000D02*
X137000000Y-55042261D01*
X139745291Y-89000000D02*
X141188647Y-90443356D01*
X143190288Y-91577000D02*
X146500000Y-91577000D01*
X146500000Y-91577000D02*
X150450000Y-95527000D01*
X137681644Y-87431644D02*
X139250000Y-89000000D01*
%TO.N,B*%
X137327000Y-53923000D02*
X137923000Y-53327000D01*
X154940000Y-91250000D02*
X143325736Y-91250000D01*
X136473000Y-58168291D02*
X136473000Y-56031709D01*
X137327000Y-55177709D02*
X137327000Y-53923000D01*
X139385448Y-88673000D02*
X138008644Y-87296196D01*
X138008644Y-85932908D02*
X137000000Y-84924264D01*
X161950000Y-98260000D02*
X154940000Y-91250000D01*
X142192092Y-90116356D02*
X141324095Y-90116356D01*
X137923000Y-53327000D02*
X151317000Y-53327000D01*
X143325736Y-91250000D02*
X142192092Y-90116356D01*
X137000000Y-84924264D02*
X137000000Y-58695291D01*
X138008644Y-87296196D02*
X138008644Y-85932908D01*
X141324095Y-90116356D02*
X139880739Y-88673000D01*
X139880739Y-88673000D02*
X139385448Y-88673000D01*
X151317000Y-53327000D02*
X152490000Y-54500000D01*
X137000000Y-58695291D02*
X136473000Y-58168291D01*
X136473000Y-56031709D02*
X137327000Y-55177709D01*
%TO.N,A*%
X138950000Y-98260000D02*
X138950000Y-89950000D01*
X137327000Y-52077000D02*
X138250000Y-53000000D01*
X137277000Y-86126160D02*
X136346000Y-85195160D01*
X152250000Y-53000000D02*
X152500000Y-53250000D01*
X136673000Y-54906813D02*
X136673000Y-51568291D01*
X136346000Y-85195160D02*
X136346000Y-58966187D01*
X136473000Y-51368291D02*
X136473000Y-50931709D01*
X136346000Y-58966187D02*
X135819000Y-58439187D01*
X138250000Y-89250000D02*
X138250000Y-89000000D01*
X138250000Y-89000000D02*
X137277000Y-88027000D01*
X136673000Y-51568291D02*
X136473000Y-51368291D01*
X152500000Y-53250000D02*
X152500000Y-53000000D01*
X135819000Y-55760813D02*
X136673000Y-54906813D01*
X138950000Y-89950000D02*
X138250000Y-89250000D01*
X136781709Y-50623000D02*
X137218291Y-50623000D01*
X137527000Y-51368291D02*
X137327000Y-51568291D01*
X138250000Y-53000000D02*
X152250000Y-53000000D01*
X137277000Y-88027000D02*
X137277000Y-86126160D01*
X137327000Y-51568291D02*
X137327000Y-52077000D01*
X137218291Y-50623000D02*
X137527000Y-50931709D01*
X136473000Y-50931709D02*
X136781709Y-50623000D01*
X137527000Y-50931709D02*
X137527000Y-51368291D01*
X135819000Y-58439187D02*
X135819000Y-55760813D01*
%TO.N,OUT*%
X158375948Y-84308869D02*
X158641131Y-84308869D01*
X158641131Y-84308869D02*
X160450000Y-82500000D01*
%TO.N,BAT+*%
X139750000Y-80500000D02*
X144146130Y-80500000D01*
X163723000Y-78498000D02*
X167975000Y-82750000D01*
X144146130Y-80500000D02*
X146073131Y-78573000D01*
X146073131Y-78573000D02*
X161000000Y-78573000D01*
X161075000Y-78498000D02*
X163723000Y-78498000D01*
X161000000Y-78573000D02*
X161075000Y-78498000D01*
%TO.N,+3V3*%
D18*
X168750000Y-83000000D02*
X167000000Y-84750000D01*
X149000000Y-75500000D02*
X147270000Y-75500000D01*
X147270000Y-75500000D02*
X144020000Y-78750000D01*
D19*
X162073310Y-90593933D02*
X163750000Y-88917243D01*
D18*
X168750000Y-79750000D02*
X168750000Y-83000000D01*
D19*
X154250000Y-104250000D02*
X153500000Y-105000000D01*
X159225000Y-104250000D02*
X154250000Y-104250000D01*
X163750000Y-88917243D02*
X163750000Y-85750000D01*
D18*
X144020000Y-79520000D02*
X144020000Y-78750000D01*
X167000000Y-84750000D02*
X166250000Y-84750000D01*
%TO.N,BAT_ALERT*%
D17*
X147243570Y-64715710D02*
X146855280Y-65104000D01*
X146855280Y-65104000D02*
X143972720Y-65104000D01*
X141500000Y-70750000D02*
X141500000Y-68500000D01*
X144375000Y-66875000D02*
X143750000Y-66250000D01*
X140500000Y-71750000D02*
X141500000Y-70750000D01*
X143972720Y-65104000D02*
X143887289Y-65018569D01*
X143750000Y-66250000D02*
X143750000Y-65000000D01*
X143750000Y-65000000D02*
X144000000Y-65000000D01*
%TO.N,POWER*%
X141000000Y-63750000D02*
X142250000Y-62500000D01*
X142250000Y-62500000D02*
X142250000Y-61500000D01*
X140000000Y-65250000D02*
X141000000Y-64250000D01*
X140000000Y-65737239D02*
X140000000Y-65250000D01*
X139832191Y-65905048D02*
X140000000Y-65737239D01*
X141000000Y-64250000D02*
X141000000Y-63750000D01*
%TO.N,PUSB_D-*%
X137904000Y-59000000D02*
X139500000Y-59000000D01*
X139862500Y-92800000D02*
X139862500Y-89862500D01*
X137327000Y-59577000D02*
X137904000Y-59000000D01*
X140000000Y-59500000D02*
X140000000Y-59750000D01*
X137750000Y-72000000D02*
X137327000Y-71577000D01*
X137327000Y-71577000D02*
X137327000Y-59577000D01*
X139862500Y-89862500D02*
X139750000Y-89750000D01*
X139500000Y-59000000D02*
X140000000Y-59500000D01*
%TO.N,PUSB_D+*%
X143500000Y-64517007D02*
X143500000Y-64660567D01*
X143701229Y-64315778D02*
X143500000Y-64517007D01*
X143423000Y-65299571D02*
X143423000Y-65577000D01*
X145050000Y-94700000D02*
X145750000Y-94000000D01*
X143423000Y-65577000D02*
X142500000Y-66500000D01*
X143360289Y-64800278D02*
X143360289Y-65236860D01*
X143360289Y-65236860D02*
X143423000Y-65299571D01*
X142137500Y-94700000D02*
X145050000Y-94700000D01*
X145750000Y-92500000D02*
X145750000Y-94000000D01*
X143500000Y-64660567D02*
X143360289Y-64800278D01*
%TO.N,RTC_INT*%
X144745815Y-66191815D02*
X145191815Y-66191815D01*
X145191815Y-66191815D02*
X146750000Y-67750000D01*
X144277000Y-65723000D02*
X144745815Y-66191815D01*
%TO.N,SCL*%
X148424570Y-64226522D02*
X147732757Y-63534710D01*
X151000000Y-60377003D02*
X150981712Y-60377003D01*
X149577000Y-58827000D02*
X148500001Y-58827000D01*
X148500001Y-58827000D02*
X148500001Y-58990581D01*
X148500001Y-58990581D02*
X147990582Y-59500000D01*
X147990582Y-59500000D02*
X147245292Y-59500000D01*
X144000000Y-71700000D02*
X144000000Y-74000000D01*
X147250000Y-63250000D02*
X147250000Y-62250000D01*
X148223000Y-65777000D02*
X147000000Y-67000000D01*
X144000000Y-71700000D02*
X144000000Y-71000000D01*
X150000000Y-59395291D02*
X150000000Y-59250000D01*
X144000000Y-74000000D02*
X143000000Y-75000000D01*
X149651000Y-66272997D02*
X149155003Y-65777000D01*
X143000000Y-75000000D02*
X143000000Y-77750000D01*
X144000000Y-71000000D02*
X145875000Y-69125000D01*
X147534710Y-63534710D02*
X147250000Y-63250000D01*
X148424570Y-64331785D02*
X148424570Y-64226522D01*
X149088875Y-64331785D02*
X148424570Y-64331785D01*
X150000000Y-59250000D02*
X149577000Y-58827000D01*
X147245292Y-59500000D02*
X146747646Y-59997646D01*
X147732757Y-63534710D02*
X147534710Y-63534710D01*
X149155003Y-65777000D02*
X148223000Y-65777000D01*
X150981712Y-60377003D02*
X150000000Y-59395291D01*
X145875000Y-69125000D02*
X146000000Y-69250000D01*
%TO.N,SDA*%
X149850000Y-58500000D02*
X151000000Y-59650000D01*
X149615875Y-64113494D02*
X149615875Y-64115875D01*
X149651000Y-67000000D02*
X148000000Y-67000000D01*
X149854000Y-64250000D02*
X150261736Y-64657736D01*
X147919297Y-62297908D02*
X148250000Y-62628611D01*
X148465281Y-63804785D02*
X149307166Y-63804785D01*
X148250000Y-62628611D02*
X148250000Y-63589505D01*
X143000000Y-78750000D02*
X144000000Y-77750000D01*
X149750000Y-64250000D02*
X149854000Y-64250000D01*
X149307166Y-63804785D02*
X149615875Y-64113494D01*
X150261736Y-64657736D02*
X150261736Y-64930702D01*
X149615875Y-64115875D02*
X149750000Y-64250000D01*
X147973001Y-58772290D02*
X148245291Y-58500000D01*
X144900000Y-73750000D02*
X144900000Y-71700000D01*
X146000000Y-70250000D02*
X146175000Y-70425000D01*
X144000000Y-77750000D02*
X144000000Y-74650000D01*
X148245291Y-58500000D02*
X149850000Y-58500000D01*
X144000000Y-74650000D02*
X144900000Y-73750000D01*
X148250000Y-63589505D02*
X148465281Y-63804785D01*
X144900000Y-71700000D02*
X146175000Y-70425000D01*
%TO.N,EN*%
X161500000Y-57000000D02*
X156750000Y-52250000D01*
X167500000Y-62000000D02*
X163000000Y-62000000D01*
X161500000Y-60500000D02*
X161500000Y-57000000D01*
X169000000Y-63500000D02*
X167500000Y-62000000D01*
X140500000Y-52250000D02*
X138750000Y-50500000D01*
X164250000Y-71000000D02*
X165500000Y-69750000D01*
X167750000Y-69750000D02*
X169000000Y-68500000D01*
X156750000Y-52250000D02*
X140500000Y-52250000D01*
X163000000Y-62000000D02*
X161500000Y-60500000D01*
X161500000Y-71000000D02*
X164250000Y-71000000D01*
X169000000Y-68500000D02*
X169000000Y-63500000D01*
X165500000Y-69750000D02*
X167750000Y-69750000D01*
%TO.N,Net-(U4-IN)*%
D19*
X162112500Y-79637500D02*
X161500000Y-79025000D01*
X146250000Y-79000000D02*
X161475000Y-79000000D01*
X137500000Y-89000000D02*
X136362500Y-89000000D01*
X135000000Y-89000000D02*
X136137500Y-89000000D01*
X140000000Y-85250000D02*
X146250000Y-79000000D01*
X136137500Y-89000000D02*
X136250000Y-89112500D01*
X136362500Y-89000000D02*
X136250000Y-89112500D01*
X136250000Y-87250000D02*
X136750000Y-86750000D01*
X136250000Y-89112500D02*
X136250000Y-87250000D01*
X161475000Y-79000000D02*
X161500000Y-79025000D01*
%TO.N,SPI_MISO*%
D17*
X149129086Y-62447794D02*
X150447794Y-62447794D01*
X148638789Y-62193677D02*
X148740823Y-62295711D01*
X150447794Y-62447794D02*
X153500000Y-65500000D01*
X154750000Y-73250000D02*
X154000000Y-72500000D01*
X154000000Y-72500000D02*
X154000000Y-70500000D01*
X148977003Y-62295711D02*
X149129086Y-62447794D01*
X148740823Y-62295711D02*
X148977003Y-62295711D01*
%TO.N,SPI_MOSI*%
X162127000Y-88759712D02*
X162127000Y-87240288D01*
X156827000Y-84864552D02*
X156827000Y-80423000D01*
X154750000Y-71750000D02*
X154750000Y-70500000D01*
X160636712Y-90250000D02*
X162127000Y-88759712D01*
X155500000Y-72500000D02*
X154750000Y-71750000D01*
X156827000Y-80423000D02*
X157500000Y-79750000D01*
X158635448Y-86673000D02*
X156827000Y-84864552D01*
X162127000Y-87240288D02*
X161559712Y-86673000D01*
X159750000Y-90250000D02*
X160636712Y-90250000D01*
X155500000Y-73250000D02*
X155500000Y-72500000D01*
X161559712Y-86673000D02*
X158635448Y-86673000D01*
%TO.N,SPI_SCL*%
X156500000Y-79910480D02*
X156500000Y-85000000D01*
X161424264Y-87000000D02*
X161800000Y-87375736D01*
X159500000Y-89250000D02*
X158750000Y-90000000D01*
X158500000Y-87000000D02*
X161424264Y-87000000D01*
X154685149Y-73935149D02*
X153223081Y-72473081D01*
X161800000Y-88624264D02*
X161174264Y-89250000D01*
X161800000Y-87375736D02*
X161800000Y-88624264D01*
X156783480Y-79627000D02*
X156500000Y-79910480D01*
X154685149Y-75319577D02*
X154685149Y-73935149D01*
X161174264Y-89250000D02*
X159500000Y-89250000D01*
X153223081Y-72473081D02*
X153223081Y-70569943D01*
X156500000Y-85000000D02*
X158500000Y-87000000D01*
%TO.N,MPU_INT1*%
X140212448Y-67500000D02*
X138750000Y-66037552D01*
X138750000Y-60500000D02*
X138000000Y-59750000D01*
X154125708Y-76163260D02*
X145462448Y-67500000D01*
X138750000Y-66037552D02*
X138750000Y-60500000D01*
X154666308Y-76163260D02*
X154125708Y-76163260D01*
X145462448Y-67500000D02*
X140212448Y-67500000D01*
%TO.N,MPU_INT2*%
X149250000Y-71750000D02*
X145327000Y-67827000D01*
X150000000Y-74673000D02*
X150000000Y-73750000D01*
X150327000Y-75000000D02*
X150000000Y-74673000D01*
X145327000Y-67827000D02*
X140077000Y-67827000D01*
X140077000Y-67827000D02*
X138223000Y-65973000D01*
X138223000Y-65973000D02*
X138223000Y-65500000D01*
X149250000Y-73000000D02*
X149250000Y-71750000D01*
X150000000Y-73750000D02*
X149250000Y-73000000D01*
%TO.N,MPU_CS*%
X154069000Y-64569000D02*
X154250000Y-64750000D01*
X155000000Y-62000000D02*
X155000000Y-62495291D01*
X151500000Y-71760000D02*
X151500000Y-66250000D01*
X154069000Y-63426291D02*
X154069000Y-64569000D01*
X155500000Y-61500000D02*
X155000000Y-62000000D01*
X155000000Y-62495291D02*
X154069000Y-63426291D01*
X154200000Y-57950000D02*
X151000000Y-57950000D01*
X152000000Y-72260000D02*
X151500000Y-71760000D01*
X151500000Y-66250000D02*
X152250000Y-65500000D01*
X154750000Y-58500000D02*
X154200000Y-57950000D01*
%TO.N,Net-(J2-CC1)*%
X142750000Y-97010000D02*
X142750000Y-97250000D01*
X142250000Y-97750000D02*
X142250000Y-100750000D01*
X142250000Y-100750000D02*
X141750000Y-101250000D01*
X142750000Y-97250000D02*
X142250000Y-97750000D01*
%TO.N,ROCK_L*%
X150146000Y-60730742D02*
X150646261Y-61231003D01*
X139100000Y-57100000D02*
X142577000Y-60577000D01*
X150646261Y-61231003D02*
X151353739Y-61231003D01*
X159864552Y-59827000D02*
X163537552Y-63500000D01*
X165896476Y-68103524D02*
X165896476Y-68750000D01*
X142577000Y-60577000D02*
X146119261Y-60577000D01*
X163537552Y-63500000D02*
X166000000Y-63500000D01*
X146119261Y-60577000D02*
X146393907Y-60851646D01*
X151854000Y-60577000D02*
X152460552Y-60577000D01*
X147101385Y-60851646D02*
X147376031Y-60577000D01*
X151854000Y-60730742D02*
X151854000Y-60577000D01*
X147376031Y-60577000D02*
X150146000Y-60577000D01*
X137000000Y-57100000D02*
X139100000Y-57100000D01*
X151353739Y-61231003D02*
X151854000Y-60730742D01*
X167000000Y-64500000D02*
X167000000Y-67000000D01*
X146393907Y-60851646D02*
X147101385Y-60851646D01*
X167000000Y-67000000D02*
X165896476Y-68103524D01*
X152460552Y-60577000D02*
X153210552Y-59827000D01*
X150146000Y-60577000D02*
X150146000Y-60730742D01*
X153210552Y-59827000D02*
X159864552Y-59827000D01*
X166000000Y-63500000D02*
X167000000Y-64500000D01*
%TO.N,ROCK_SW*%
X139487552Y-57950000D02*
X142441552Y-60904000D01*
X147236833Y-61178646D02*
X147511479Y-60904000D01*
X152143190Y-60904000D02*
X152596000Y-60904000D01*
X146258459Y-61178646D02*
X147236833Y-61178646D01*
X147511479Y-60904000D02*
X149856810Y-60904000D01*
X153346000Y-60154000D02*
X159729104Y-60154000D01*
X159729104Y-60154000D02*
X164325104Y-64750000D01*
X152596000Y-60904000D02*
X153346000Y-60154000D01*
X150510813Y-61558003D02*
X151489187Y-61558003D01*
X142441552Y-60904000D02*
X145983813Y-60904000D01*
X149856810Y-60904000D02*
X150510813Y-61558003D01*
X145983813Y-60904000D02*
X146258459Y-61178646D01*
X164325104Y-64750000D02*
X165896476Y-64750000D01*
X137000000Y-57950000D02*
X139487552Y-57950000D01*
X151489187Y-61558003D02*
X152143190Y-60904000D01*
%TO.N,ROCK_R*%
X153075104Y-59500000D02*
X160000000Y-59500000D01*
X150473000Y-60595294D02*
X150781709Y-60904003D01*
X147240583Y-60250000D02*
X150392261Y-60250000D01*
X152325104Y-60250000D02*
X153075104Y-59500000D01*
X151527000Y-60250000D02*
X152325104Y-60250000D01*
X150781709Y-60904003D02*
X151218291Y-60904003D01*
X146529355Y-60524646D02*
X146965937Y-60524646D01*
X146254709Y-60250000D02*
X146529355Y-60524646D01*
X137000000Y-56250000D02*
X138750000Y-56250000D01*
X146965937Y-60524646D02*
X147240583Y-60250000D01*
X160000000Y-59500000D02*
X163250000Y-62750000D01*
X150473000Y-60330739D02*
X150473000Y-60595294D01*
X150392261Y-60250000D02*
X150473000Y-60330739D01*
X142750000Y-60250000D02*
X146254709Y-60250000D01*
X163250000Y-62750000D02*
X165896476Y-62750000D01*
X151527000Y-60595294D02*
X151527000Y-60250000D01*
X138750000Y-56250000D02*
X142750000Y-60250000D01*
X151218291Y-60904003D02*
X151527000Y-60595294D01*
%TO.N,Net-(J2-D+-PadA6)*%
X139750000Y-100750000D02*
X140250000Y-101250000D01*
X140260000Y-96000000D02*
X139750000Y-96510000D01*
X139750000Y-96510000D02*
X139750000Y-100750000D01*
%TO.N,DAC_DIN*%
X152212448Y-61750000D02*
X153481448Y-60481000D01*
X142577000Y-62635448D02*
X142577000Y-61923000D01*
X150375365Y-61885003D02*
X151624635Y-61885003D01*
X161750000Y-62637344D02*
X161750000Y-63500000D01*
X147646927Y-61231000D02*
X149721362Y-61231000D01*
X141731224Y-63481224D02*
X142577000Y-62635448D01*
X147372281Y-61505646D02*
X147646927Y-61231000D01*
X141747646Y-64252354D02*
X141747646Y-63497646D01*
X143250000Y-61250000D02*
X143250000Y-61231000D01*
X146123011Y-61505646D02*
X147372281Y-61505646D01*
X159593656Y-60481000D02*
X161750000Y-62637344D01*
X145848365Y-61231000D02*
X146123011Y-61505646D01*
X153481448Y-60481000D02*
X159593656Y-60481000D01*
X142577000Y-61923000D02*
X143250000Y-61250000D01*
X143250000Y-61231000D02*
X145848365Y-61231000D01*
X149721362Y-61231000D02*
X150375365Y-61885003D01*
X151759638Y-61750000D02*
X152212448Y-61750000D01*
X141747646Y-63497646D02*
X141731224Y-63481224D01*
X151624635Y-61885003D02*
X151759638Y-61750000D01*
%TO.N,DAC_SD*%
X160750000Y-64500000D02*
X158000000Y-64500000D01*
X154923000Y-67577000D02*
X152577000Y-67577000D01*
X158000000Y-64500000D02*
X154923000Y-67577000D01*
X161500000Y-65480000D02*
X161500000Y-65250000D01*
X161500000Y-65250000D02*
X160750000Y-64500000D01*
X152577000Y-67577000D02*
X152500000Y-67500000D01*
%TO.N,DAC_LRCLK*%
X144750000Y-64750000D02*
X145254709Y-64750000D01*
X147025279Y-64188710D02*
X147461861Y-64188710D01*
X147770570Y-64497419D02*
X147770570Y-65020570D01*
X146716570Y-64777000D02*
X146716570Y-64497419D01*
X155676000Y-63574000D02*
X155022000Y-63574000D01*
X145254709Y-64750000D02*
X145281709Y-64777000D01*
X145281709Y-64777000D02*
X146716570Y-64777000D01*
X149573294Y-65450000D02*
X150061647Y-65938353D01*
X155022000Y-63574000D02*
X154596000Y-64000000D01*
X150061647Y-65938353D02*
X150561647Y-65938353D01*
X146716570Y-64497419D02*
X147025279Y-64188710D01*
X147461861Y-64188710D02*
X147770570Y-64497419D01*
X150561647Y-65938353D02*
X151646130Y-64853870D01*
X148200000Y-65450000D02*
X149573294Y-65450000D01*
X147770570Y-65020570D02*
X148200000Y-65450000D01*
X144500000Y-64500000D02*
X144750000Y-64750000D01*
X158000000Y-61250000D02*
X155676000Y-63574000D01*
%TO.N,DAC_BCLK*%
X150426199Y-65611353D02*
X150197095Y-65611353D01*
X159500000Y-63000000D02*
X159000000Y-63000000D01*
X145700000Y-64450000D02*
X145500000Y-64250000D01*
X159000000Y-63000000D02*
X154750000Y-67250000D01*
X146889831Y-63861710D02*
X146389570Y-64361971D01*
X148097570Y-64885122D02*
X148097570Y-64361971D01*
X151427839Y-64326870D02*
X151114552Y-64640157D01*
X148335448Y-65123000D02*
X148097570Y-64885122D01*
X148097570Y-64361971D02*
X147597309Y-63861710D01*
X146389570Y-64361971D02*
X146389570Y-64450000D01*
X153500000Y-67250000D02*
X152893776Y-66643776D01*
X160500000Y-62448000D02*
X160052000Y-62448000D01*
X150197095Y-65611353D02*
X149708742Y-65123000D01*
X151114552Y-64640157D02*
X151114552Y-64923000D01*
X152893776Y-65356224D02*
X151864421Y-64326870D01*
X151114552Y-64923000D02*
X150426199Y-65611353D01*
X149708742Y-65123000D02*
X148335448Y-65123000D01*
X146389570Y-64450000D02*
X145700000Y-64450000D01*
X152893776Y-66643776D02*
X152893776Y-65356224D01*
X151864421Y-64326870D02*
X151427839Y-64326870D01*
X154750000Y-67250000D02*
X153500000Y-67250000D01*
X147597309Y-63861710D02*
X146889831Y-63861710D01*
X160052000Y-62448000D02*
X159500000Y-63000000D01*
%TO.N,TFT_TE*%
X143473000Y-59723000D02*
X143500000Y-59750000D01*
X137654000Y-70096000D02*
X138750000Y-69000000D01*
X139250000Y-64000000D02*
X139250000Y-66075104D01*
X137327000Y-74173000D02*
X138277000Y-73223000D01*
X137327000Y-84788816D02*
X137327000Y-74173000D01*
X138277000Y-73223000D02*
X138277000Y-71781709D01*
X147754710Y-58245290D02*
X148037553Y-58245290D01*
X137654000Y-71404000D02*
X137654000Y-70096000D01*
X139674896Y-66500000D02*
X140250000Y-66500000D01*
X137968291Y-71473000D02*
X137723000Y-71473000D01*
X139500000Y-63750000D02*
X139250000Y-64000000D01*
X150000000Y-58000000D02*
X150000000Y-56250000D01*
X143500000Y-59750000D02*
X146250000Y-59750000D01*
X143000000Y-59723000D02*
X143473000Y-59723000D01*
X138277000Y-71781709D02*
X137968291Y-71473000D01*
X137723000Y-71473000D02*
X137654000Y-71404000D01*
X149467034Y-104547357D02*
X148345472Y-104547357D01*
X139644092Y-87105908D02*
X137327000Y-84788816D01*
X148109843Y-58173000D02*
X149827000Y-58173000D01*
X138750000Y-69000000D02*
X138750000Y-68500000D01*
X147446001Y-58553999D02*
X147754710Y-58245290D01*
X147250000Y-58750000D02*
X147446001Y-58750000D01*
X147446001Y-58750000D02*
X147446001Y-58553999D01*
X139250000Y-66075104D02*
X139674896Y-66500000D01*
X149827000Y-58173000D02*
X150000000Y-58000000D01*
X148345472Y-104547357D02*
X147336252Y-105556577D01*
X148037553Y-58245290D02*
X148109843Y-58173000D01*
X139500000Y-62000000D02*
X139500000Y-63750000D01*
X146250000Y-59750000D02*
X147250000Y-58750000D01*
%TO.N,TFT_DC*%
X149000000Y-57250000D02*
X149500000Y-57750000D01*
X139500632Y-86500000D02*
X137654000Y-84653368D01*
X139077000Y-68918291D02*
X139277000Y-68718291D01*
X137654000Y-67154000D02*
X137654000Y-61096000D01*
X150500000Y-93500000D02*
X149000000Y-92000000D01*
X138604000Y-73358448D02*
X138604000Y-71646261D01*
X137654000Y-61096000D02*
X138000000Y-60750000D01*
X139783475Y-86500000D02*
X139500632Y-86500000D01*
X140250000Y-86966525D02*
X139783475Y-86500000D01*
X139077000Y-69135448D02*
X139077000Y-68918291D01*
X138604000Y-71646261D02*
X137981000Y-71023261D01*
X140750000Y-89000000D02*
X140250000Y-88500000D01*
X138473000Y-67973000D02*
X137654000Y-67154000D01*
X137981000Y-71023261D02*
X137981000Y-70231448D01*
X137654000Y-84653368D02*
X137654000Y-74308448D01*
X137981000Y-70231448D02*
X139077000Y-69135448D01*
X142250000Y-89000000D02*
X140750000Y-89000000D01*
X137654000Y-74308448D02*
X138604000Y-73358448D01*
X149000000Y-92000000D02*
X148250000Y-92000000D01*
X138968291Y-67973000D02*
X138473000Y-67973000D01*
X147750000Y-57250000D02*
X149000000Y-57250000D01*
X139277000Y-68281709D02*
X138968291Y-67973000D01*
X139277000Y-68718291D02*
X139277000Y-68281709D01*
X140250000Y-88500000D02*
X140250000Y-86966525D01*
%TO.N,TFT_RES*%
X161748526Y-85786078D02*
X160020684Y-85786078D01*
X157500000Y-82000000D02*
X157154000Y-82346000D01*
X163250000Y-86000000D02*
X163252354Y-85997646D01*
X158424896Y-86000000D02*
X157154000Y-84729104D01*
X159820684Y-85586078D02*
X159384102Y-85586078D01*
X161962448Y-86000000D02*
X161748526Y-85786078D01*
X158970180Y-86000000D02*
X158424896Y-86000000D01*
X159750000Y-91500000D02*
X159849160Y-91500000D01*
X163223000Y-85968291D02*
X163223000Y-85550000D01*
X159384102Y-85586078D02*
X158970180Y-86000000D01*
X163250000Y-88099160D02*
X163250000Y-86000000D01*
X159849160Y-91500000D02*
X163250000Y-88099160D01*
X162773000Y-86000000D02*
X161962448Y-86000000D01*
X160020684Y-85786078D02*
X159820684Y-85586078D01*
X157154000Y-82346000D02*
X157154000Y-84729104D01*
X163223000Y-85550000D02*
X162773000Y-86000000D01*
X163252354Y-85997646D02*
X163223000Y-85968291D01*
%TO.N,Net-(FPC1-Pad7)*%
X157500000Y-80750000D02*
X158027000Y-81277000D01*
X160156132Y-85459078D02*
X161883974Y-85459078D01*
X154027000Y-65281709D02*
X154027000Y-65527000D01*
X163445079Y-85309631D02*
X163531709Y-85223000D01*
X159956132Y-85259078D02*
X160156132Y-85459078D01*
X153223000Y-63527000D02*
X153223000Y-64723000D01*
X159750000Y-94000000D02*
X158750000Y-94000000D01*
X153473000Y-64973000D02*
X153718291Y-64973000D01*
X164250000Y-89021113D02*
X162760557Y-90510556D01*
X157495291Y-82750000D02*
X157481000Y-82750000D01*
X154250000Y-65750000D02*
X155500000Y-65750000D01*
X157481000Y-82750000D02*
X157481000Y-84593656D01*
X157481000Y-84593656D02*
X158560344Y-85673000D01*
X164250000Y-86500000D02*
X164250000Y-89021113D01*
X154250000Y-62500000D02*
X153223000Y-63527000D01*
X153718291Y-64973000D02*
X154027000Y-65281709D01*
X162760557Y-90510556D02*
X162760557Y-90989443D01*
X161883974Y-85459078D02*
X162097896Y-85673000D01*
X162637552Y-85673000D02*
X163087552Y-85223000D01*
X155500000Y-71250000D02*
X156250000Y-72000000D01*
X159248654Y-85259078D02*
X159956132Y-85259078D01*
X154027000Y-65527000D02*
X154250000Y-65750000D01*
X158027000Y-82218291D02*
X157495291Y-82750000D01*
X163087552Y-85223000D02*
X163358448Y-85223000D01*
X158560344Y-85673000D02*
X158834732Y-85673000D01*
X156250000Y-77500000D02*
X156000000Y-77750000D01*
X164274646Y-85529354D02*
X164277000Y-85527000D01*
X164277000Y-86473000D02*
X164250000Y-86500000D01*
X155738478Y-70449558D02*
X155500000Y-70688036D01*
X162097896Y-85673000D02*
X162637552Y-85673000D01*
X153223000Y-64723000D02*
X153473000Y-64973000D01*
X155500000Y-70688036D02*
X155500000Y-71250000D01*
X162760557Y-90989443D02*
X159750000Y-94000000D01*
X158027000Y-81277000D02*
X158027000Y-82218291D01*
X164277000Y-85527000D02*
X164277000Y-86473000D01*
X163358448Y-85223000D02*
X163445079Y-85309631D01*
X163531709Y-85223000D02*
X163968291Y-85223000D01*
X163968291Y-85223000D02*
X164274646Y-85529354D01*
X156250000Y-72000000D02*
X156250000Y-77500000D01*
X158834732Y-85673000D02*
X159248654Y-85259078D01*
%TD*%
%TA.AperFunction,Conductor*%
%TO.N,GND*%
G36*
X158967941Y-88720185D02*
G01*
X159013696Y-88772989D01*
X159023640Y-88842147D01*
X158994615Y-88905703D01*
X158988583Y-88912181D01*
X158735339Y-89165425D01*
X158674016Y-89198910D01*
X158671850Y-89199361D01*
X158516508Y-89230261D01*
X158516498Y-89230264D01*
X158370827Y-89290602D01*
X158370814Y-89290609D01*
X158239711Y-89378210D01*
X158239707Y-89378213D01*
X158128213Y-89489707D01*
X158128210Y-89489711D01*
X158040609Y-89620814D01*
X158040602Y-89620827D01*
X157980264Y-89766498D01*
X157980261Y-89766510D01*
X157949500Y-89921153D01*
X157949500Y-90078846D01*
X157980261Y-90233489D01*
X157980264Y-90233501D01*
X158040602Y-90379172D01*
X158040609Y-90379185D01*
X158128210Y-90510288D01*
X158128213Y-90510292D01*
X158239707Y-90621786D01*
X158239711Y-90621789D01*
X158370814Y-90709390D01*
X158370827Y-90709397D01*
X158515885Y-90769481D01*
X158516503Y-90769737D01*
X158664959Y-90799267D01*
X158671153Y-90800499D01*
X158671156Y-90800500D01*
X158671158Y-90800500D01*
X158828844Y-90800500D01*
X158828845Y-90800499D01*
X158983497Y-90769737D01*
X159015958Y-90756290D01*
X159035840Y-90754152D01*
X159054580Y-90747166D01*
X159069868Y-90750493D01*
X159085425Y-90748821D01*
X159103309Y-90757772D01*
X159122851Y-90762026D01*
X159145119Y-90778699D01*
X159147905Y-90780094D01*
X159151074Y-90783152D01*
X159155251Y-90787329D01*
X159188728Y-90848657D01*
X159183736Y-90918348D01*
X159155240Y-90962681D01*
X159128213Y-90989707D01*
X159128210Y-90989711D01*
X159040609Y-91120814D01*
X159040602Y-91120827D01*
X158980264Y-91266498D01*
X158980261Y-91266510D01*
X158949500Y-91421153D01*
X158949500Y-91578846D01*
X158980261Y-91733489D01*
X158980264Y-91733501D01*
X159040602Y-91879172D01*
X159040609Y-91879185D01*
X159128210Y-92010288D01*
X159128213Y-92010292D01*
X159239707Y-92121786D01*
X159239711Y-92121789D01*
X159370814Y-92209390D01*
X159370827Y-92209397D01*
X159508695Y-92266503D01*
X159516503Y-92269737D01*
X159671153Y-92300499D01*
X159671156Y-92300500D01*
X159671158Y-92300500D01*
X159828844Y-92300500D01*
X159828845Y-92300499D01*
X159983497Y-92269737D01*
X160129179Y-92209394D01*
X160260289Y-92121789D01*
X160371789Y-92010289D01*
X160459394Y-91879179D01*
X160461029Y-91875233D01*
X160519735Y-91733501D01*
X160519737Y-91733497D01*
X160526015Y-91701932D01*
X160558398Y-91640023D01*
X160559895Y-91638498D01*
X161201548Y-90996845D01*
X161214523Y-90989760D01*
X161224446Y-90978795D01*
X161244572Y-90973352D01*
X161262869Y-90963362D01*
X161277618Y-90964416D01*
X161291893Y-90960557D01*
X161311764Y-90966858D01*
X161332561Y-90968346D01*
X161345549Y-90977573D01*
X161358494Y-90981678D01*
X161375852Y-90999099D01*
X161384664Y-91005359D01*
X161388770Y-91010309D01*
X161451521Y-91104222D01*
X161540421Y-91193122D01*
X161544105Y-91197563D01*
X161555742Y-91224568D01*
X161569834Y-91250374D01*
X161569411Y-91256284D01*
X161571757Y-91261728D01*
X161566947Y-91290737D01*
X161564850Y-91320066D01*
X161561123Y-91325864D01*
X161560329Y-91330657D01*
X161552440Y-91339374D01*
X161536349Y-91364413D01*
X159537584Y-93363181D01*
X159476261Y-93396666D01*
X159449903Y-93399500D01*
X159329766Y-93399500D01*
X159262727Y-93379815D01*
X159260875Y-93378602D01*
X159129185Y-93290609D01*
X159129172Y-93290602D01*
X158983501Y-93230264D01*
X158983489Y-93230261D01*
X158828845Y-93199500D01*
X158828842Y-93199500D01*
X158671158Y-93199500D01*
X158671155Y-93199500D01*
X158516510Y-93230261D01*
X158516498Y-93230264D01*
X158370827Y-93290602D01*
X158370814Y-93290609D01*
X158239711Y-93378210D01*
X158239707Y-93378213D01*
X158166259Y-93451662D01*
X158104936Y-93485147D01*
X158035244Y-93480163D01*
X157990897Y-93451662D01*
X155427590Y-90888355D01*
X155427588Y-90888352D01*
X155308717Y-90769481D01*
X155308716Y-90769480D01*
X155221904Y-90719360D01*
X155221904Y-90719359D01*
X155221900Y-90719358D01*
X155171785Y-90690423D01*
X155019057Y-90649499D01*
X154860943Y-90649499D01*
X154853347Y-90649499D01*
X154853331Y-90649500D01*
X143625834Y-90649500D01*
X143558795Y-90629815D01*
X143538153Y-90613181D01*
X143148711Y-90223739D01*
X142739126Y-89814155D01*
X142705642Y-89752833D01*
X142710626Y-89683142D01*
X142752498Y-89627208D01*
X142757906Y-89623381D01*
X142760289Y-89621789D01*
X142871789Y-89510289D01*
X142959394Y-89379179D01*
X143019737Y-89233497D01*
X143050500Y-89078842D01*
X143050500Y-88921158D01*
X143050500Y-88921155D01*
X143050499Y-88921153D01*
X143036086Y-88848691D01*
X143042313Y-88779100D01*
X143085176Y-88723922D01*
X143151066Y-88700678D01*
X143157703Y-88700500D01*
X158900902Y-88700500D01*
X158967941Y-88720185D01*
G37*
%TD.AperFunction*%
%TA.AperFunction,Conductor*%
G36*
X155784184Y-79703050D02*
G01*
X155793145Y-79701762D01*
X155817183Y-79712740D01*
X155842538Y-79720185D01*
X155848465Y-79727026D01*
X155856701Y-79730787D01*
X155870989Y-79753020D01*
X155888293Y-79772989D01*
X155890580Y-79783502D01*
X155894476Y-79789564D01*
X155899499Y-79824499D01*
X155899499Y-79831422D01*
X155899499Y-79831423D01*
X155899499Y-79989537D01*
X155899499Y-79989539D01*
X155899500Y-79999538D01*
X155899500Y-84913330D01*
X155899499Y-84913348D01*
X155899499Y-85079054D01*
X155899498Y-85079054D01*
X155940423Y-85231785D01*
X155956880Y-85260289D01*
X155956879Y-85260289D01*
X155956880Y-85260290D01*
X156019475Y-85368709D01*
X156019481Y-85368717D01*
X156138349Y-85487585D01*
X156138355Y-85487590D01*
X157988584Y-87337819D01*
X158022069Y-87399142D01*
X158017085Y-87468834D01*
X157975213Y-87524767D01*
X157909749Y-87549184D01*
X157900903Y-87549500D01*
X140974500Y-87549500D01*
X140907461Y-87529815D01*
X140861706Y-87477011D01*
X140850500Y-87425500D01*
X140850500Y-87055584D01*
X140850501Y-87055571D01*
X140850501Y-86887470D01*
X140850501Y-86887468D01*
X140809577Y-86734740D01*
X140754756Y-86639788D01*
X140730520Y-86597809D01*
X140618716Y-86486005D01*
X140618713Y-86486003D01*
X140307410Y-86174700D01*
X140273925Y-86113377D01*
X140278909Y-86043685D01*
X140320781Y-85987752D01*
X140347638Y-85972458D01*
X140379179Y-85959394D01*
X140510289Y-85871789D01*
X140621789Y-85760289D01*
X140709394Y-85629179D01*
X140709395Y-85629176D01*
X140709397Y-85629173D01*
X140746566Y-85539435D01*
X140769192Y-85484810D01*
X140796069Y-85444586D01*
X146503838Y-79736819D01*
X146565161Y-79703334D01*
X146591519Y-79700500D01*
X155775499Y-79700500D01*
X155784184Y-79703050D01*
G37*
%TD.AperFunction*%
%TA.AperFunction,Conductor*%
G36*
X140642539Y-68447185D02*
G01*
X140688294Y-68499989D01*
X140699500Y-68551500D01*
X140699500Y-68578846D01*
X140730261Y-68733489D01*
X140730264Y-68733501D01*
X140790602Y-68879172D01*
X140790609Y-68879185D01*
X140878602Y-69010874D01*
X140899480Y-69077551D01*
X140899500Y-69079765D01*
X140899500Y-70449902D01*
X140879815Y-70516941D01*
X140863181Y-70537583D01*
X140485339Y-70915425D01*
X140424016Y-70948910D01*
X140421850Y-70949361D01*
X140266508Y-70980261D01*
X140266498Y-70980264D01*
X140120827Y-71040602D01*
X140120814Y-71040609D01*
X139989711Y-71128210D01*
X139989707Y-71128213D01*
X139878213Y-71239707D01*
X139878210Y-71239711D01*
X139790609Y-71370814D01*
X139790602Y-71370827D01*
X139730264Y-71516498D01*
X139730261Y-71516510D01*
X139699500Y-71671153D01*
X139699500Y-71828846D01*
X139730261Y-71983489D01*
X139730264Y-71983501D01*
X139790602Y-72129172D01*
X139790609Y-72129185D01*
X139878210Y-72260288D01*
X139878213Y-72260292D01*
X139989707Y-72371786D01*
X139989711Y-72371789D01*
X140120814Y-72459390D01*
X140120827Y-72459397D01*
X140266498Y-72519735D01*
X140266503Y-72519737D01*
X140421153Y-72550499D01*
X140421156Y-72550500D01*
X140421158Y-72550500D01*
X140578844Y-72550500D01*
X140578845Y-72550499D01*
X140733497Y-72519737D01*
X140879179Y-72459394D01*
X141010289Y-72371789D01*
X141121789Y-72260289D01*
X141209394Y-72129179D01*
X141269737Y-71983497D01*
X141298468Y-71839057D01*
X141300638Y-71828150D01*
X141333023Y-71766239D01*
X141334515Y-71764719D01*
X141980520Y-71118716D01*
X142059577Y-70981784D01*
X142100501Y-70829057D01*
X142100501Y-70670942D01*
X142100501Y-70663347D01*
X142100500Y-70663329D01*
X142100500Y-69079765D01*
X142120185Y-69012726D01*
X142121398Y-69010874D01*
X142134857Y-68990732D01*
X142209394Y-68879179D01*
X142269737Y-68733497D01*
X142300500Y-68578842D01*
X142300500Y-68551500D01*
X142320185Y-68484461D01*
X142372989Y-68438706D01*
X142424500Y-68427500D01*
X145026903Y-68427500D01*
X145093942Y-68447185D01*
X145114584Y-68463819D01*
X145311165Y-68660400D01*
X145326381Y-68688266D01*
X145343067Y-68715281D01*
X145343005Y-68718711D01*
X145344650Y-68721723D01*
X145342385Y-68753394D01*
X145341817Y-68785140D01*
X145339815Y-68789322D01*
X145339666Y-68791415D01*
X145326583Y-68816977D01*
X145318856Y-68828540D01*
X145303438Y-68847325D01*
X143631286Y-70519478D01*
X143519481Y-70631282D01*
X143519479Y-70631285D01*
X143496586Y-70670938D01*
X143472898Y-70711967D01*
X143440423Y-70768215D01*
X143399499Y-70920943D01*
X143399499Y-70920945D01*
X143399499Y-71089046D01*
X143399500Y-71089059D01*
X143399500Y-71120234D01*
X143379815Y-71187273D01*
X143378602Y-71189125D01*
X143290609Y-71320814D01*
X143290602Y-71320827D01*
X143230264Y-71466498D01*
X143230261Y-71466510D01*
X143199500Y-71621153D01*
X143199500Y-71778846D01*
X143230261Y-71933489D01*
X143230264Y-71933501D01*
X143290602Y-72079172D01*
X143290609Y-72079185D01*
X143378602Y-72210874D01*
X143399480Y-72277551D01*
X143399500Y-72279765D01*
X143399500Y-73699902D01*
X143379815Y-73766941D01*
X143363181Y-73787583D01*
X142519481Y-74631282D01*
X142519475Y-74631290D01*
X142481084Y-74697787D01*
X142481084Y-74697788D01*
X142440423Y-74768215D01*
X142399499Y-74920943D01*
X142399499Y-74920945D01*
X142399499Y-75089046D01*
X142399500Y-75089059D01*
X142399500Y-77170234D01*
X142379815Y-77237273D01*
X142378602Y-77239125D01*
X142290609Y-77370814D01*
X142290602Y-77370827D01*
X142230264Y-77516498D01*
X142230261Y-77516510D01*
X142199500Y-77671153D01*
X142199500Y-77828846D01*
X142230261Y-77983489D01*
X142230264Y-77983501D01*
X142290602Y-78129172D01*
X142290609Y-78129185D01*
X142325304Y-78181109D01*
X142346182Y-78247786D01*
X142327698Y-78315167D01*
X142325304Y-78318891D01*
X142290609Y-78370814D01*
X142290602Y-78370827D01*
X142230264Y-78516498D01*
X142230261Y-78516510D01*
X142199500Y-78671153D01*
X142199500Y-78828846D01*
X142230261Y-78983489D01*
X142230264Y-78983501D01*
X142290602Y-79129172D01*
X142290609Y-79129185D01*
X142378210Y-79260288D01*
X142378213Y-79260292D01*
X142489707Y-79371786D01*
X142489711Y-79371789D01*
X142620814Y-79459390D01*
X142620827Y-79459397D01*
X142758683Y-79516498D01*
X142766503Y-79519737D01*
X142916729Y-79549619D01*
X142921153Y-79550499D01*
X142921156Y-79550500D01*
X142921158Y-79550500D01*
X143078839Y-79550500D01*
X143078842Y-79550500D01*
X143083269Y-79549619D01*
X143152858Y-79555839D01*
X143208040Y-79598697D01*
X143229087Y-79647043D01*
X143249827Y-79751309D01*
X143243600Y-79820900D01*
X143200737Y-79876078D01*
X143134847Y-79899322D01*
X143128210Y-79899500D01*
X140329766Y-79899500D01*
X140262727Y-79879815D01*
X140260875Y-79878602D01*
X140129185Y-79790609D01*
X140129172Y-79790602D01*
X139983501Y-79730264D01*
X139983489Y-79730261D01*
X139828845Y-79699500D01*
X139828842Y-79699500D01*
X139671158Y-79699500D01*
X139671155Y-79699500D01*
X139516510Y-79730261D01*
X139516498Y-79730264D01*
X139370827Y-79790602D01*
X139370814Y-79790609D01*
X139239711Y-79878210D01*
X139239707Y-79878213D01*
X139128213Y-79989707D01*
X139128210Y-79989711D01*
X139040609Y-80120814D01*
X139040602Y-80120827D01*
X138980264Y-80266498D01*
X138980261Y-80266510D01*
X138949500Y-80421153D01*
X138949500Y-80578846D01*
X138980261Y-80733489D01*
X138980264Y-80733501D01*
X139040602Y-80879172D01*
X139040609Y-80879185D01*
X139128210Y-81010288D01*
X139128213Y-81010292D01*
X139239707Y-81121786D01*
X139239711Y-81121789D01*
X139370814Y-81209390D01*
X139370827Y-81209397D01*
X139449894Y-81242147D01*
X139516503Y-81269737D01*
X139671153Y-81300499D01*
X139671156Y-81300500D01*
X139671158Y-81300500D01*
X139828844Y-81300500D01*
X139828845Y-81300499D01*
X139983497Y-81269737D01*
X140129179Y-81209394D01*
X140183663Y-81172989D01*
X140260875Y-81121398D01*
X140327553Y-81100520D01*
X140329766Y-81100500D01*
X142859481Y-81100500D01*
X142926520Y-81120185D01*
X142972275Y-81172989D01*
X142982219Y-81242147D01*
X142953194Y-81305703D01*
X142947162Y-81312181D01*
X139805412Y-84453929D01*
X139765184Y-84480809D01*
X139620823Y-84540604D01*
X139620814Y-84540609D01*
X139489711Y-84628210D01*
X139489707Y-84628213D01*
X139378213Y-84739707D01*
X139378210Y-84739711D01*
X139290609Y-84870814D01*
X139290602Y-84870827D01*
X139230264Y-85016498D01*
X139230261Y-85016508D01*
X139215147Y-85092493D01*
X139182762Y-85154404D01*
X139122046Y-85188978D01*
X139052277Y-85185238D01*
X139005849Y-85155982D01*
X138290819Y-84440952D01*
X138257334Y-84379629D01*
X138254500Y-84353271D01*
X138254500Y-74608544D01*
X138274185Y-74541505D01*
X138290815Y-74520867D01*
X138962506Y-73849175D01*
X138962511Y-73849172D01*
X138972714Y-73838968D01*
X138972716Y-73838968D01*
X139084520Y-73727164D01*
X139157649Y-73600500D01*
X139163577Y-73590233D01*
X139204501Y-73437505D01*
X139204501Y-73279391D01*
X139204501Y-73271796D01*
X139204500Y-73271778D01*
X139204500Y-71567206D01*
X139204499Y-71567202D01*
X139202455Y-71559574D01*
X139194053Y-71528215D01*
X139163577Y-71414476D01*
X139103934Y-71311172D01*
X139084520Y-71277545D01*
X138972716Y-71165741D01*
X138972713Y-71165739D01*
X138617819Y-70810845D01*
X138584334Y-70749522D01*
X138581500Y-70723164D01*
X138581500Y-70531544D01*
X138601185Y-70464505D01*
X138617815Y-70443867D01*
X139435506Y-69626175D01*
X139435511Y-69626172D01*
X139445714Y-69615968D01*
X139445716Y-69615968D01*
X139557520Y-69504164D01*
X139618346Y-69398810D01*
X139636577Y-69367233D01*
X139677500Y-69214505D01*
X139677500Y-69214496D01*
X139678561Y-69206445D01*
X139680916Y-69206755D01*
X139697185Y-69151350D01*
X139713820Y-69130707D01*
X139757517Y-69087010D01*
X139757517Y-69087009D01*
X139757520Y-69087007D01*
X139836577Y-68950075D01*
X139877501Y-68797348D01*
X139877501Y-68639233D01*
X139877501Y-68631638D01*
X139877500Y-68631620D01*
X139877500Y-68551501D01*
X139897185Y-68484462D01*
X139949989Y-68438707D01*
X140001500Y-68427501D01*
X140163653Y-68427501D01*
X140163669Y-68427500D01*
X140575500Y-68427500D01*
X140642539Y-68447185D01*
G37*
%TD.AperFunction*%
%TA.AperFunction,Conductor*%
G36*
X150805703Y-73692936D02*
G01*
X150812177Y-73698964D01*
X153756992Y-76643780D01*
X153893923Y-76722837D01*
X154046651Y-76763761D01*
X154086544Y-76763761D01*
X154153583Y-76783446D01*
X154155435Y-76784659D01*
X154287122Y-76872650D01*
X154287135Y-76872657D01*
X154432806Y-76932995D01*
X154432811Y-76932997D01*
X154563722Y-76959037D01*
X154587461Y-76963759D01*
X154587464Y-76963760D01*
X154587466Y-76963760D01*
X154745152Y-76963760D01*
X154745153Y-76963759D01*
X154899805Y-76932997D01*
X155045487Y-76872654D01*
X155176597Y-76785049D01*
X155288097Y-76673549D01*
X155375702Y-76542439D01*
X155410939Y-76457369D01*
X155454779Y-76402965D01*
X155521073Y-76380900D01*
X155588773Y-76398179D01*
X155636384Y-76449316D01*
X155649500Y-76504821D01*
X155649500Y-76945856D01*
X155629815Y-77012895D01*
X155577011Y-77058650D01*
X155572953Y-77060417D01*
X155441335Y-77114934D01*
X155441326Y-77114939D01*
X155310223Y-77202540D01*
X155310219Y-77202543D01*
X155198725Y-77314037D01*
X155198722Y-77314041D01*
X155111121Y-77445144D01*
X155111114Y-77445157D01*
X155050776Y-77590828D01*
X155050773Y-77590840D01*
X155020012Y-77745483D01*
X155020012Y-77848500D01*
X155000327Y-77915539D01*
X154947523Y-77961294D01*
X154896012Y-77972500D01*
X146016807Y-77972500D01*
X145949768Y-77952815D01*
X145904013Y-77900011D01*
X145894069Y-77830853D01*
X145923094Y-77767297D01*
X145929126Y-77760819D01*
X146244789Y-77445157D01*
X147503127Y-76186819D01*
X147564450Y-76153334D01*
X147590808Y-76150500D01*
X148495065Y-76150500D01*
X148562104Y-76170185D01*
X148563909Y-76171366D01*
X148620821Y-76209394D01*
X148620823Y-76209395D01*
X148620827Y-76209397D01*
X148766498Y-76269735D01*
X148766503Y-76269737D01*
X148921153Y-76300499D01*
X148921156Y-76300500D01*
X148921158Y-76300500D01*
X149078844Y-76300500D01*
X149078845Y-76300499D01*
X149233497Y-76269737D01*
X149379179Y-76209394D01*
X149510289Y-76121789D01*
X149621789Y-76010289D01*
X149709394Y-75879179D01*
X149758339Y-75761012D01*
X149802178Y-75706612D01*
X149868472Y-75684546D01*
X149936171Y-75701824D01*
X149941789Y-75705364D01*
X149947816Y-75709391D01*
X149947827Y-75709397D01*
X150072448Y-75761016D01*
X150093503Y-75769737D01*
X150248153Y-75800499D01*
X150248156Y-75800500D01*
X150248158Y-75800500D01*
X150405844Y-75800500D01*
X150405845Y-75800499D01*
X150560497Y-75769737D01*
X150706179Y-75709394D01*
X150837289Y-75621789D01*
X150948789Y-75510289D01*
X151036394Y-75379179D01*
X151096737Y-75233497D01*
X151127500Y-75078842D01*
X151127500Y-74921158D01*
X151127500Y-74921155D01*
X151127499Y-74921153D01*
X151106493Y-74815551D01*
X151096737Y-74766503D01*
X151084177Y-74736180D01*
X151036397Y-74620827D01*
X151036390Y-74620814D01*
X150948789Y-74489711D01*
X150948786Y-74489707D01*
X150837292Y-74378213D01*
X150837288Y-74378210D01*
X150706185Y-74290609D01*
X150706173Y-74290603D01*
X150677045Y-74278537D01*
X150622642Y-74234695D01*
X150600579Y-74168400D01*
X150600500Y-74163977D01*
X150600500Y-73786649D01*
X150620185Y-73719610D01*
X150672989Y-73673855D01*
X150742147Y-73663911D01*
X150805703Y-73692936D01*
G37*
%TD.AperFunction*%
%TA.AperFunction,Conductor*%
G36*
X146947827Y-70314235D02*
G01*
X146994255Y-70343491D01*
X148613181Y-71962416D01*
X148646666Y-72023739D01*
X148649500Y-72050097D01*
X148649500Y-72913330D01*
X148649499Y-72913348D01*
X148649499Y-73079054D01*
X148649498Y-73079054D01*
X148690424Y-73231789D01*
X148690425Y-73231790D01*
X148712186Y-73269480D01*
X148712187Y-73269482D01*
X148769475Y-73368709D01*
X148769481Y-73368717D01*
X148888349Y-73487585D01*
X148888355Y-73487590D01*
X149363181Y-73962416D01*
X149396666Y-74023739D01*
X149399500Y-74050097D01*
X149399500Y-74593939D01*
X149399499Y-74593943D01*
X149399499Y-74608544D01*
X149399499Y-74613449D01*
X149386897Y-74656360D01*
X149379814Y-74680483D01*
X149379812Y-74680483D01*
X149379812Y-74680487D01*
X149349034Y-74707154D01*
X149327010Y-74726238D01*
X149327007Y-74726238D01*
X149327006Y-74726240D01*
X149295661Y-74730745D01*
X149257852Y-74736182D01*
X149257847Y-74736180D01*
X149257847Y-74736181D01*
X149257844Y-74736180D01*
X149239580Y-74731184D01*
X149239324Y-74732031D01*
X149233500Y-74730264D01*
X149233497Y-74730263D01*
X149233492Y-74730262D01*
X149233489Y-74730261D01*
X149078845Y-74699500D01*
X149078842Y-74699500D01*
X148921158Y-74699500D01*
X148921155Y-74699500D01*
X148766510Y-74730261D01*
X148766498Y-74730264D01*
X148620827Y-74790602D01*
X148620820Y-74790606D01*
X148601227Y-74803698D01*
X148563955Y-74828602D01*
X148497279Y-74849480D01*
X148495065Y-74849500D01*
X147205929Y-74849500D01*
X147080261Y-74874497D01*
X147080255Y-74874499D01*
X146961874Y-74923534D01*
X146855326Y-74994726D01*
X146855325Y-74994727D01*
X144812181Y-77037872D01*
X144750858Y-77071357D01*
X144681166Y-77066373D01*
X144625233Y-77024501D01*
X144600816Y-76959037D01*
X144600500Y-76950191D01*
X144600500Y-74950096D01*
X144620185Y-74883057D01*
X144636815Y-74862419D01*
X145258506Y-74240727D01*
X145258511Y-74240724D01*
X145268714Y-74230520D01*
X145268716Y-74230520D01*
X145380520Y-74118716D01*
X145437665Y-74019737D01*
X145459577Y-73981785D01*
X145500500Y-73829058D01*
X145500500Y-73670943D01*
X145500500Y-72279765D01*
X145520185Y-72212726D01*
X145521398Y-72210874D01*
X145609390Y-72079185D01*
X145609390Y-72079184D01*
X145609394Y-72079179D01*
X145669737Y-71933497D01*
X145694386Y-71809578D01*
X145700638Y-71778150D01*
X145733023Y-71716239D01*
X145734518Y-71714716D01*
X146655519Y-70793716D01*
X146734577Y-70656785D01*
X146775500Y-70504058D01*
X146775500Y-70466735D01*
X146777883Y-70442544D01*
X146784957Y-70406981D01*
X146817342Y-70345070D01*
X146878058Y-70310495D01*
X146947827Y-70314235D01*
G37*
%TD.AperFunction*%
%TA.AperFunction,Conductor*%
G36*
X150813256Y-66512997D02*
G01*
X150871119Y-66552159D01*
X150898623Y-66616387D01*
X150899500Y-66631109D01*
X150899500Y-71673330D01*
X150899499Y-71673348D01*
X150899499Y-71788453D01*
X150879814Y-71855492D01*
X150827010Y-71901247D01*
X150757852Y-71911191D01*
X150694296Y-71882166D01*
X150687818Y-71876134D01*
X147309561Y-68497878D01*
X147276076Y-68436555D01*
X147281060Y-68366863D01*
X147309558Y-68322519D01*
X147371789Y-68260289D01*
X147459394Y-68129179D01*
X147519737Y-67983497D01*
X147548327Y-67839765D01*
X147580711Y-67777855D01*
X147641427Y-67743281D01*
X147711197Y-67747020D01*
X147717359Y-67749381D01*
X147766503Y-67769737D01*
X147921153Y-67800499D01*
X147921156Y-67800500D01*
X147921158Y-67800500D01*
X148078844Y-67800500D01*
X148078845Y-67800499D01*
X148233497Y-67769737D01*
X148379179Y-67709394D01*
X148379185Y-67709390D01*
X148510875Y-67621398D01*
X148577553Y-67600520D01*
X148579766Y-67600500D01*
X149071234Y-67600500D01*
X149138273Y-67620185D01*
X149140125Y-67621398D01*
X149271814Y-67709390D01*
X149271827Y-67709397D01*
X149368395Y-67749396D01*
X149417503Y-67769737D01*
X149572153Y-67800499D01*
X149572156Y-67800500D01*
X149572158Y-67800500D01*
X149729844Y-67800500D01*
X149729845Y-67800499D01*
X149884497Y-67769737D01*
X150030179Y-67709394D01*
X150161289Y-67621789D01*
X150272789Y-67510289D01*
X150360394Y-67379179D01*
X150420737Y-67233497D01*
X150451500Y-67078842D01*
X150451500Y-66921158D01*
X150451500Y-66921155D01*
X150451499Y-66921153D01*
X150443150Y-66879179D01*
X150420737Y-66766503D01*
X150409825Y-66740158D01*
X150397460Y-66710306D01*
X150389991Y-66640837D01*
X150421266Y-66578358D01*
X150481356Y-66542706D01*
X150512021Y-66538854D01*
X150640701Y-66538854D01*
X150640704Y-66538854D01*
X150743408Y-66511334D01*
X150813256Y-66512997D01*
G37*
%TD.AperFunction*%
%TA.AperFunction,Conductor*%
G36*
X145615307Y-61851185D02*
G01*
X145635949Y-61867819D01*
X145638150Y-61870020D01*
X145638160Y-61870031D01*
X145642490Y-61874361D01*
X145642491Y-61874362D01*
X145754295Y-61986166D01*
X145826947Y-62028111D01*
X145866745Y-62051089D01*
X145891226Y-62065223D01*
X146043954Y-62106146D01*
X146202068Y-62106146D01*
X146298886Y-62106146D01*
X146365925Y-62125831D01*
X146411680Y-62178635D01*
X146421624Y-62247793D01*
X146420503Y-62254337D01*
X146402637Y-62344154D01*
X146402637Y-62501847D01*
X146433398Y-62656490D01*
X146433401Y-62656502D01*
X146493739Y-62802173D01*
X146493746Y-62802186D01*
X146581347Y-62933289D01*
X146581350Y-62933293D01*
X146613180Y-62965122D01*
X146627885Y-62992052D01*
X146644477Y-63017869D01*
X146645368Y-63024067D01*
X146646666Y-63026444D01*
X146649500Y-63052804D01*
X146649500Y-63163330D01*
X146649499Y-63163348D01*
X146649499Y-63235476D01*
X146629814Y-63302515D01*
X146587499Y-63342863D01*
X146521118Y-63381187D01*
X146521113Y-63381191D01*
X146229873Y-63672432D01*
X146168550Y-63705917D01*
X146098858Y-63700933D01*
X146054511Y-63672432D01*
X146010292Y-63628213D01*
X146010288Y-63628210D01*
X145879185Y-63540609D01*
X145879172Y-63540602D01*
X145733501Y-63480264D01*
X145733489Y-63480261D01*
X145578845Y-63449500D01*
X145578842Y-63449500D01*
X145421158Y-63449500D01*
X145421155Y-63449500D01*
X145266510Y-63480261D01*
X145266498Y-63480264D01*
X145120827Y-63540602D01*
X145120814Y-63540609D01*
X144989711Y-63628210D01*
X144989707Y-63628213D01*
X144901092Y-63716829D01*
X144839769Y-63750314D01*
X144770077Y-63745330D01*
X144765959Y-63743709D01*
X144733498Y-63730263D01*
X144733488Y-63730260D01*
X144578845Y-63699500D01*
X144578842Y-63699500D01*
X144421158Y-63699500D01*
X144421153Y-63699500D01*
X144315342Y-63720547D01*
X144245750Y-63714320D01*
X144216671Y-63697241D01*
X144216583Y-63697373D01*
X144214310Y-63695854D01*
X144212486Y-63694783D01*
X144211518Y-63693988D01*
X144080414Y-63606387D01*
X144080401Y-63606380D01*
X143934730Y-63546042D01*
X143934718Y-63546039D01*
X143780074Y-63515278D01*
X143780071Y-63515278D01*
X143622387Y-63515278D01*
X143622384Y-63515278D01*
X143467739Y-63546039D01*
X143467727Y-63546042D01*
X143322056Y-63606380D01*
X143322043Y-63606387D01*
X143190940Y-63693988D01*
X143190936Y-63693991D01*
X143079442Y-63805485D01*
X143079439Y-63805489D01*
X142991838Y-63936592D01*
X142991831Y-63936605D01*
X142931493Y-64082276D01*
X142931490Y-64082288D01*
X142900729Y-64236931D01*
X142900729Y-64362154D01*
X142896563Y-64377674D01*
X142897211Y-64391480D01*
X142887293Y-64412219D01*
X142884069Y-64424236D01*
X142879918Y-64431412D01*
X142879769Y-64431562D01*
X142844598Y-64492481D01*
X142833224Y-64512181D01*
X142800712Y-64568492D01*
X142800712Y-64568493D01*
X142759788Y-64721221D01*
X142759788Y-64721223D01*
X142759788Y-64889324D01*
X142759789Y-64889337D01*
X142759789Y-65157799D01*
X142759788Y-65157803D01*
X142759788Y-65315917D01*
X142761453Y-65322132D01*
X142761593Y-65336606D01*
X142754041Y-65363273D01*
X142749771Y-65390654D01*
X142743939Y-65398947D01*
X142742556Y-65403832D01*
X142737139Y-65408618D01*
X142725280Y-65425483D01*
X142485339Y-65665425D01*
X142424016Y-65698910D01*
X142421850Y-65699361D01*
X142266508Y-65730261D01*
X142266498Y-65730264D01*
X142120827Y-65790602D01*
X142120814Y-65790609D01*
X141989711Y-65878210D01*
X141989707Y-65878213D01*
X141878213Y-65989707D01*
X141878210Y-65989711D01*
X141790609Y-66120814D01*
X141790602Y-66120827D01*
X141730264Y-66266498D01*
X141730261Y-66266510D01*
X141699500Y-66421153D01*
X141699500Y-66578846D01*
X141730261Y-66733489D01*
X141732031Y-66739324D01*
X141729279Y-66740158D01*
X141735503Y-66797359D01*
X141704309Y-66859878D01*
X141644266Y-66895608D01*
X141613445Y-66899500D01*
X141136555Y-66899500D01*
X141069516Y-66879815D01*
X141023761Y-66827011D01*
X141013817Y-66757853D01*
X141018840Y-66739588D01*
X141017969Y-66739324D01*
X141019731Y-66733509D01*
X141019737Y-66733497D01*
X141050500Y-66578842D01*
X141050500Y-66421158D01*
X141050500Y-66421155D01*
X141050499Y-66421153D01*
X141028305Y-66309576D01*
X141019737Y-66266503D01*
X141006126Y-66233643D01*
X140959397Y-66120827D01*
X140959390Y-66120814D01*
X140871789Y-65989711D01*
X140871786Y-65989707D01*
X140760292Y-65878213D01*
X140760288Y-65878210D01*
X140667767Y-65816389D01*
X140648087Y-65792840D01*
X140626782Y-65770761D01*
X140624698Y-65764854D01*
X140622962Y-65762777D01*
X140615044Y-65737490D01*
X140602882Y-65676348D01*
X140601688Y-65664223D01*
X140601259Y-65664271D01*
X140601258Y-65664262D01*
X140600700Y-65654194D01*
X140600501Y-65652166D01*
X140600501Y-65650586D01*
X140600500Y-65650568D01*
X140600500Y-65550096D01*
X140620185Y-65483057D01*
X140636815Y-65462419D01*
X141158047Y-64941186D01*
X141219368Y-64907703D01*
X141289059Y-64912687D01*
X141314617Y-64925767D01*
X141368460Y-64961744D01*
X141368473Y-64961751D01*
X141483867Y-65009548D01*
X141514149Y-65022091D01*
X141607230Y-65040606D01*
X141668799Y-65052853D01*
X141668802Y-65052854D01*
X141668804Y-65052854D01*
X141826490Y-65052854D01*
X141826491Y-65052853D01*
X141981143Y-65022091D01*
X142093812Y-64975421D01*
X142126818Y-64961751D01*
X142126818Y-64961750D01*
X142126825Y-64961748D01*
X142257935Y-64874143D01*
X142369435Y-64762643D01*
X142457040Y-64631533D01*
X142517383Y-64485851D01*
X142548146Y-64331196D01*
X142548146Y-64173512D01*
X142548146Y-64173509D01*
X142548145Y-64173507D01*
X142539135Y-64128211D01*
X142517383Y-64018857D01*
X142485845Y-63942716D01*
X142457043Y-63873181D01*
X142457036Y-63873168D01*
X142406018Y-63796815D01*
X142385140Y-63730138D01*
X142403624Y-63662758D01*
X142421435Y-63640247D01*
X142945713Y-63115969D01*
X142945716Y-63115968D01*
X143057520Y-63004164D01*
X143107639Y-62917352D01*
X143136577Y-62867233D01*
X143177501Y-62714505D01*
X143177501Y-62556391D01*
X143177501Y-62548796D01*
X143177500Y-62548778D01*
X143177500Y-62223097D01*
X143197185Y-62156058D01*
X143213819Y-62135416D01*
X143481417Y-61867819D01*
X143542740Y-61834334D01*
X143569098Y-61831500D01*
X145548268Y-61831500D01*
X145615307Y-61851185D01*
G37*
%TD.AperFunction*%
%TA.AperFunction,Conductor*%
G36*
X168359995Y-64811385D02*
G01*
X168395648Y-64871473D01*
X168399500Y-64902140D01*
X168399500Y-66597859D01*
X168379815Y-66664898D01*
X168327011Y-66710653D01*
X168257853Y-66720597D01*
X168228047Y-66712420D01*
X168052896Y-66639870D01*
X168052888Y-66639868D01*
X167849945Y-66599500D01*
X167849941Y-66599500D01*
X167724500Y-66599500D01*
X167657461Y-66579815D01*
X167611706Y-66527011D01*
X167600500Y-66475500D01*
X167600500Y-65024500D01*
X167620185Y-64957461D01*
X167672989Y-64911706D01*
X167724500Y-64900500D01*
X167849942Y-64900500D01*
X167849943Y-64900499D01*
X168052896Y-64860130D01*
X168228049Y-64787578D01*
X168297516Y-64780110D01*
X168359995Y-64811385D01*
G37*
%TD.AperFunction*%
%TA.AperFunction,Conductor*%
G36*
X159360598Y-61101185D02*
G01*
X159381240Y-61117819D01*
X159929893Y-61666472D01*
X159963378Y-61727795D01*
X159958394Y-61797487D01*
X159916522Y-61853420D01*
X159874309Y-61873927D01*
X159820218Y-61888422D01*
X159820217Y-61888422D01*
X159778144Y-61912713D01*
X159778143Y-61912712D01*
X159683287Y-61967477D01*
X159683282Y-61967481D01*
X159622655Y-62028109D01*
X159571480Y-62079284D01*
X159571478Y-62079286D01*
X159417264Y-62233501D01*
X159287584Y-62363181D01*
X159260656Y-62377884D01*
X159234838Y-62394477D01*
X159228637Y-62395368D01*
X159226261Y-62396666D01*
X159199903Y-62399500D01*
X159086670Y-62399500D01*
X159086654Y-62399499D01*
X159079058Y-62399499D01*
X158920943Y-62399499D01*
X158858489Y-62416234D01*
X158768214Y-62440423D01*
X158768209Y-62440426D01*
X158631290Y-62519475D01*
X158631282Y-62519481D01*
X156089599Y-65061164D01*
X156028276Y-65094649D01*
X155958584Y-65089665D01*
X155933028Y-65076586D01*
X155879183Y-65040608D01*
X155879172Y-65040602D01*
X155733501Y-64980264D01*
X155733489Y-64980261D01*
X155578845Y-64949500D01*
X155578842Y-64949500D01*
X155421158Y-64949500D01*
X155421155Y-64949500D01*
X155266510Y-64980261D01*
X155266499Y-64980264D01*
X155212607Y-65002586D01*
X155211220Y-65002735D01*
X155210116Y-65003586D01*
X155176594Y-65006456D01*
X155143138Y-65010053D01*
X155141891Y-65009428D01*
X155140501Y-65009548D01*
X155110736Y-64993833D01*
X155080659Y-64978777D01*
X155079947Y-64977577D01*
X155078715Y-64976927D01*
X155062193Y-64947653D01*
X155045008Y-64918688D01*
X155044835Y-64916897D01*
X155044373Y-64916079D01*
X155044297Y-64911326D01*
X155041361Y-64880914D01*
X155041855Y-64872299D01*
X155050500Y-64828842D01*
X155050500Y-64721787D01*
X155050704Y-64718235D01*
X155061305Y-64688544D01*
X155070185Y-64658306D01*
X155073199Y-64655237D01*
X155074200Y-64652435D01*
X155081416Y-64646872D01*
X155101885Y-64626037D01*
X155101574Y-64625659D01*
X155105101Y-64622763D01*
X155105620Y-64622235D01*
X155106289Y-64621789D01*
X155217789Y-64510289D01*
X155305394Y-64379179D01*
X155305395Y-64379176D01*
X155305397Y-64379173D01*
X155358467Y-64251048D01*
X155371009Y-64235482D01*
X155379315Y-64217297D01*
X155392484Y-64208833D01*
X155402307Y-64196644D01*
X155421276Y-64190330D01*
X155438093Y-64179523D01*
X155465652Y-64175560D01*
X155468601Y-64174579D01*
X155473028Y-64174500D01*
X155589331Y-64174500D01*
X155589347Y-64174501D01*
X155596943Y-64174501D01*
X155755054Y-64174501D01*
X155755057Y-64174501D01*
X155907785Y-64133577D01*
X155964227Y-64100990D01*
X156044716Y-64054520D01*
X156156520Y-63942716D01*
X156156520Y-63942714D01*
X156166724Y-63932511D01*
X156166727Y-63932506D01*
X158014662Y-62084572D01*
X158075983Y-62051089D01*
X158078150Y-62050638D01*
X158136085Y-62039113D01*
X158233497Y-62019737D01*
X158379179Y-61959394D01*
X158510289Y-61871789D01*
X158621789Y-61760289D01*
X158709394Y-61629179D01*
X158712854Y-61620827D01*
X158767163Y-61489711D01*
X158769737Y-61483497D01*
X158800500Y-61328842D01*
X158800500Y-61205500D01*
X158820185Y-61138461D01*
X158872989Y-61092706D01*
X158924500Y-61081500D01*
X159293559Y-61081500D01*
X159360598Y-61101185D01*
G37*
%TD.AperFunction*%
%TA.AperFunction,Conductor*%
G36*
X140854714Y-60166648D02*
G01*
X140859533Y-60171216D01*
X141576206Y-60887889D01*
X141609691Y-60949212D01*
X141604707Y-61018904D01*
X141591627Y-61044460D01*
X141540612Y-61120809D01*
X141540602Y-61120827D01*
X141480264Y-61266498D01*
X141480261Y-61266510D01*
X141449500Y-61421153D01*
X141449500Y-61578846D01*
X141480261Y-61733489D01*
X141480264Y-61733501D01*
X141540602Y-61879172D01*
X141540609Y-61879185D01*
X141628602Y-62010874D01*
X141634252Y-62028920D01*
X141644477Y-62044830D01*
X141648928Y-62075789D01*
X141649480Y-62077551D01*
X141649500Y-62079765D01*
X141649500Y-62199902D01*
X141629815Y-62266941D01*
X141613181Y-62287583D01*
X140519481Y-63381282D01*
X140519479Y-63381285D01*
X140474385Y-63459392D01*
X140474384Y-63459393D01*
X140440423Y-63518214D01*
X140440423Y-63518215D01*
X140399499Y-63670943D01*
X140399499Y-63670945D01*
X140399499Y-63839046D01*
X140399500Y-63839059D01*
X140399500Y-63949902D01*
X140379815Y-64016941D01*
X140363185Y-64037578D01*
X140282048Y-64118716D01*
X140234628Y-64166136D01*
X140173305Y-64199620D01*
X140103613Y-64194636D01*
X140047680Y-64152764D01*
X140023263Y-64087300D01*
X140038115Y-64019027D01*
X140039523Y-64016517D01*
X140059577Y-63981784D01*
X140092797Y-63857806D01*
X140100500Y-63829058D01*
X140100500Y-63670943D01*
X140100500Y-62579765D01*
X140120185Y-62512726D01*
X140121398Y-62510874D01*
X140193131Y-62403519D01*
X140209394Y-62379179D01*
X140215051Y-62365523D01*
X140255884Y-62266941D01*
X140269737Y-62233497D01*
X140300500Y-62078842D01*
X140300500Y-61921158D01*
X140300500Y-61921155D01*
X140300499Y-61921153D01*
X140294797Y-61892486D01*
X140269737Y-61766503D01*
X140256062Y-61733489D01*
X140209397Y-61620827D01*
X140209390Y-61620814D01*
X140121789Y-61489711D01*
X140121786Y-61489707D01*
X140010292Y-61378213D01*
X140010288Y-61378210D01*
X139879185Y-61290609D01*
X139879172Y-61290602D01*
X139733501Y-61230264D01*
X139733489Y-61230261D01*
X139578845Y-61199500D01*
X139578842Y-61199500D01*
X139474500Y-61199500D01*
X139407461Y-61179815D01*
X139361706Y-61127011D01*
X139350500Y-61075500D01*
X139350500Y-60510759D01*
X139370185Y-60443720D01*
X139422989Y-60397965D01*
X139492147Y-60388021D01*
X139543391Y-60407657D01*
X139620821Y-60459394D01*
X139620823Y-60459395D01*
X139620827Y-60459397D01*
X139744828Y-60510759D01*
X139766503Y-60519737D01*
X139921153Y-60550499D01*
X139921156Y-60550500D01*
X139921158Y-60550500D01*
X140078844Y-60550500D01*
X140078845Y-60550499D01*
X140233497Y-60519737D01*
X140379179Y-60459394D01*
X140510289Y-60371789D01*
X140621789Y-60260289D01*
X140668751Y-60190005D01*
X140722361Y-60145202D01*
X140791686Y-60136494D01*
X140854714Y-60166648D01*
G37*
%TD.AperFunction*%
%TA.AperFunction,Conductor*%
G36*
X153871876Y-58559244D02*
G01*
X153902167Y-58566021D01*
X153905114Y-58569003D01*
X153909137Y-58570185D01*
X153929457Y-58593635D01*
X153951279Y-58615717D01*
X153953247Y-58621091D01*
X153954892Y-58622989D01*
X153961969Y-58644903D01*
X153963418Y-58648858D01*
X153963573Y-58649592D01*
X153980263Y-58733497D01*
X153982394Y-58738643D01*
X153984765Y-58749858D01*
X153979369Y-58819519D01*
X153937168Y-58875204D01*
X153871560Y-58899234D01*
X153863445Y-58899500D01*
X152996047Y-58899500D01*
X152843318Y-58940423D01*
X152843317Y-58940423D01*
X152821078Y-58953262D01*
X152821079Y-58953263D01*
X152706391Y-59019477D01*
X152706386Y-59019481D01*
X152644589Y-59081279D01*
X152594584Y-59131284D01*
X152594582Y-59131286D01*
X152352228Y-59373641D01*
X152112688Y-59613181D01*
X152085760Y-59627884D01*
X152059942Y-59644477D01*
X152053741Y-59645368D01*
X152051365Y-59646666D01*
X152025007Y-59649500D01*
X151917848Y-59649500D01*
X151850809Y-59629815D01*
X151805054Y-59577011D01*
X151796231Y-59549692D01*
X151769738Y-59416508D01*
X151769737Y-59416507D01*
X151769737Y-59416503D01*
X151728912Y-59317942D01*
X151709397Y-59270827D01*
X151709390Y-59270814D01*
X151621789Y-59139711D01*
X151621786Y-59139707D01*
X151510292Y-59028213D01*
X151510288Y-59028210D01*
X151379185Y-58940609D01*
X151379172Y-58940602D01*
X151316301Y-58914561D01*
X151261897Y-58870721D01*
X151239832Y-58804427D01*
X151257111Y-58736727D01*
X151308248Y-58689116D01*
X151316301Y-58685439D01*
X151379172Y-58659397D01*
X151379172Y-58659396D01*
X151379179Y-58659394D01*
X151433663Y-58622989D01*
X151510875Y-58571398D01*
X151577553Y-58550520D01*
X151579766Y-58550500D01*
X153842098Y-58550500D01*
X153871876Y-58559244D01*
G37*
%TD.AperFunction*%
%TA.AperFunction,Conductor*%
G36*
X156516942Y-52870185D02*
G01*
X156537584Y-52886819D01*
X160863181Y-57212416D01*
X160896666Y-57273739D01*
X160899500Y-57300097D01*
X160899500Y-59250903D01*
X160879815Y-59317942D01*
X160827011Y-59363697D01*
X160757853Y-59373641D01*
X160694297Y-59344616D01*
X160687819Y-59338584D01*
X160487590Y-59138355D01*
X160487588Y-59138352D01*
X160368717Y-59019481D01*
X160368709Y-59019475D01*
X160254025Y-58953263D01*
X160254024Y-58953262D01*
X160238392Y-58944237D01*
X160231785Y-58940423D01*
X160079057Y-58899499D01*
X159920943Y-58899499D01*
X159913347Y-58899499D01*
X159913331Y-58899500D01*
X155636555Y-58899500D01*
X155569516Y-58879815D01*
X155523761Y-58827011D01*
X155513817Y-58757853D01*
X155518840Y-58739588D01*
X155517969Y-58739324D01*
X155519731Y-58733509D01*
X155519737Y-58733497D01*
X155550500Y-58578842D01*
X155550500Y-58421158D01*
X155550500Y-58421155D01*
X155550499Y-58421153D01*
X155536846Y-58352517D01*
X155519737Y-58266503D01*
X155486095Y-58185283D01*
X155459397Y-58120827D01*
X155459390Y-58120814D01*
X155371789Y-57989711D01*
X155371786Y-57989707D01*
X155260292Y-57878213D01*
X155260288Y-57878210D01*
X155129185Y-57790609D01*
X155129172Y-57790602D01*
X154983501Y-57730264D01*
X154983491Y-57730261D01*
X154828149Y-57699361D01*
X154811392Y-57690595D01*
X154792914Y-57686576D01*
X154767877Y-57667833D01*
X154766238Y-57666976D01*
X154764660Y-57665425D01*
X154687590Y-57588355D01*
X154687588Y-57588352D01*
X154568717Y-57469481D01*
X154568712Y-57469477D01*
X154462449Y-57408127D01*
X154462447Y-57408126D01*
X154431787Y-57390424D01*
X154431786Y-57390423D01*
X154431785Y-57390423D01*
X154279057Y-57349499D01*
X154120943Y-57349499D01*
X154113347Y-57349499D01*
X154113331Y-57349500D01*
X151579766Y-57349500D01*
X151512727Y-57329815D01*
X151510875Y-57328602D01*
X151379185Y-57240609D01*
X151379172Y-57240602D01*
X151233501Y-57180264D01*
X151233489Y-57180261D01*
X151078845Y-57149500D01*
X151078842Y-57149500D01*
X150921158Y-57149500D01*
X150921155Y-57149500D01*
X150766510Y-57180261D01*
X150760676Y-57182031D01*
X150759873Y-57179385D01*
X150739114Y-57181543D01*
X150706853Y-57186182D01*
X150704561Y-57185135D01*
X150702056Y-57185396D01*
X150672959Y-57170703D01*
X150643297Y-57157157D01*
X150641934Y-57155036D01*
X150639687Y-57153902D01*
X150623152Y-57125811D01*
X150605523Y-57098379D01*
X150605043Y-57095046D01*
X150604245Y-57093689D01*
X150600500Y-57063444D01*
X150600500Y-56829765D01*
X150620185Y-56762726D01*
X150621398Y-56760874D01*
X150709390Y-56629185D01*
X150709390Y-56629184D01*
X150709394Y-56629179D01*
X150769737Y-56483497D01*
X150800500Y-56328842D01*
X150800500Y-56171158D01*
X150800500Y-56171155D01*
X150800499Y-56171153D01*
X150769738Y-56016510D01*
X150769737Y-56016503D01*
X150713728Y-55881284D01*
X150709397Y-55870827D01*
X150709390Y-55870814D01*
X150621789Y-55739711D01*
X150621786Y-55739707D01*
X150510292Y-55628213D01*
X150510288Y-55628210D01*
X150379185Y-55540609D01*
X150379172Y-55540602D01*
X150233501Y-55480264D01*
X150233489Y-55480261D01*
X150078845Y-55449500D01*
X150078842Y-55449500D01*
X149921158Y-55449500D01*
X149921155Y-55449500D01*
X149766510Y-55480261D01*
X149766498Y-55480264D01*
X149620827Y-55540602D01*
X149620814Y-55540609D01*
X149489711Y-55628210D01*
X149489707Y-55628213D01*
X149378213Y-55739707D01*
X149378210Y-55739711D01*
X149290609Y-55870814D01*
X149290602Y-55870827D01*
X149230264Y-56016498D01*
X149230261Y-56016510D01*
X149199500Y-56171153D01*
X149199500Y-56328846D01*
X149230261Y-56483489D01*
X149232031Y-56489324D01*
X149230924Y-56489659D01*
X149237728Y-56552965D01*
X149206450Y-56615443D01*
X149146360Y-56651093D01*
X149112365Y-56654898D01*
X149097737Y-56654504D01*
X149079057Y-56649499D01*
X148920943Y-56649499D01*
X148920939Y-56649500D01*
X148329766Y-56649500D01*
X148262727Y-56629815D01*
X148260875Y-56628602D01*
X148129185Y-56540609D01*
X148129172Y-56540602D01*
X147983501Y-56480264D01*
X147983489Y-56480261D01*
X147828845Y-56449500D01*
X147828842Y-56449500D01*
X147671158Y-56449500D01*
X147671155Y-56449500D01*
X147516510Y-56480261D01*
X147516498Y-56480264D01*
X147370827Y-56540602D01*
X147370814Y-56540609D01*
X147239711Y-56628210D01*
X147239707Y-56628213D01*
X147128213Y-56739707D01*
X147128210Y-56739711D01*
X147040609Y-56870814D01*
X147040602Y-56870827D01*
X146980264Y-57016498D01*
X146980261Y-57016510D01*
X146949500Y-57171153D01*
X146949500Y-57328846D01*
X146980261Y-57483489D01*
X146980264Y-57483501D01*
X147040602Y-57629172D01*
X147040609Y-57629185D01*
X147128210Y-57760288D01*
X147128213Y-57760292D01*
X147171661Y-57803740D01*
X147175998Y-57811684D01*
X147183247Y-57817110D01*
X147192483Y-57841872D01*
X147205146Y-57865063D01*
X147204500Y-57874091D01*
X147207664Y-57882574D01*
X147202047Y-57908396D01*
X147200162Y-57934755D01*
X147194344Y-57943807D01*
X147192813Y-57950847D01*
X147171662Y-57979102D01*
X147077287Y-58073477D01*
X147077286Y-58073477D01*
X147077285Y-58073478D01*
X147077285Y-58073479D01*
X147029950Y-58120814D01*
X146965480Y-58185283D01*
X146965476Y-58185288D01*
X146951271Y-58209891D01*
X146905892Y-58255270D01*
X146881289Y-58269475D01*
X146881280Y-58269482D01*
X146037584Y-59113181D01*
X145976261Y-59146666D01*
X145949903Y-59149500D01*
X143669150Y-59149500D01*
X143637057Y-59145275D01*
X143554422Y-59123132D01*
X143516113Y-59103457D01*
X143515354Y-59104595D01*
X143379185Y-59013609D01*
X143379172Y-59013602D01*
X143233501Y-58953264D01*
X143233489Y-58953261D01*
X143078845Y-58922500D01*
X143078842Y-58922500D01*
X142921158Y-58922500D01*
X142921155Y-58922500D01*
X142766510Y-58953261D01*
X142766498Y-58953264D01*
X142620827Y-59013602D01*
X142620814Y-59013609D01*
X142550787Y-59060401D01*
X142484110Y-59081279D01*
X142416730Y-59062795D01*
X142394215Y-59044980D01*
X139237590Y-55888355D01*
X139237588Y-55888352D01*
X139118717Y-55769481D01*
X139118716Y-55769480D01*
X139031904Y-55719360D01*
X139031904Y-55719359D01*
X139031900Y-55719358D01*
X138981785Y-55690423D01*
X138829057Y-55649499D01*
X138670943Y-55649499D01*
X138663347Y-55649499D01*
X138663331Y-55649500D01*
X137962784Y-55649500D01*
X137895745Y-55629815D01*
X137849990Y-55577011D01*
X137840046Y-55507853D01*
X137855396Y-55463501D01*
X137863479Y-55449500D01*
X137886577Y-55409493D01*
X137921196Y-55280293D01*
X137927500Y-55256767D01*
X137927500Y-55098652D01*
X137927500Y-54223097D01*
X137936144Y-54193656D01*
X137942668Y-54163670D01*
X137946422Y-54158654D01*
X137947185Y-54156058D01*
X137963819Y-54135416D01*
X138135416Y-53963819D01*
X138196739Y-53930334D01*
X138223097Y-53927500D01*
X151016903Y-53927500D01*
X151083942Y-53947185D01*
X151104584Y-53963819D01*
X151655425Y-54514660D01*
X151688910Y-54575983D01*
X151689361Y-54578149D01*
X151720261Y-54733491D01*
X151720264Y-54733501D01*
X151780602Y-54879172D01*
X151780609Y-54879185D01*
X151868210Y-55010288D01*
X151868213Y-55010292D01*
X151979707Y-55121786D01*
X151979711Y-55121789D01*
X152110814Y-55209390D01*
X152110827Y-55209397D01*
X152225188Y-55256766D01*
X152256503Y-55269737D01*
X152411153Y-55300499D01*
X152411156Y-55300500D01*
X152411158Y-55300500D01*
X152568844Y-55300500D01*
X152568845Y-55300499D01*
X152723497Y-55269737D01*
X152869179Y-55209394D01*
X153000289Y-55121789D01*
X153111789Y-55010289D01*
X153199394Y-54879179D01*
X153259737Y-54733497D01*
X153290500Y-54578842D01*
X153290500Y-54421158D01*
X153290500Y-54421155D01*
X153290499Y-54421153D01*
X153259738Y-54266510D01*
X153259737Y-54266503D01*
X153213990Y-54156058D01*
X153199397Y-54120827D01*
X153199390Y-54120814D01*
X153111789Y-53989711D01*
X153111786Y-53989707D01*
X153000292Y-53878213D01*
X153000288Y-53878210D01*
X152967710Y-53856442D01*
X152922905Y-53802830D01*
X152914198Y-53733505D01*
X152944352Y-53670477D01*
X152967708Y-53650240D01*
X153010289Y-53621789D01*
X153121789Y-53510289D01*
X153209394Y-53379179D01*
X153269737Y-53233497D01*
X153300500Y-53078842D01*
X153300500Y-52974500D01*
X153320185Y-52907461D01*
X153372989Y-52861706D01*
X153424500Y-52850500D01*
X156449903Y-52850500D01*
X156516942Y-52870185D01*
G37*
%TD.AperFunction*%
%TA.AperFunction,Conductor*%
G36*
X138320392Y-51175698D02*
G01*
X138370821Y-51209394D01*
X138370823Y-51209395D01*
X138370827Y-51209397D01*
X138516498Y-51269735D01*
X138516503Y-51269737D01*
X138576293Y-51281630D01*
X138671849Y-51300638D01*
X138733760Y-51333023D01*
X138735339Y-51334574D01*
X139588583Y-52187819D01*
X139622068Y-52249142D01*
X139617084Y-52318834D01*
X139575212Y-52374767D01*
X139509748Y-52399184D01*
X139500902Y-52399500D01*
X138550097Y-52399500D01*
X138483058Y-52379815D01*
X138462416Y-52363181D01*
X138009562Y-51910327D01*
X137976077Y-51849004D01*
X137981061Y-51779312D01*
X138003600Y-51744246D01*
X138002571Y-51743457D01*
X138007516Y-51737010D01*
X138007520Y-51737007D01*
X138086577Y-51600075D01*
X138127501Y-51447348D01*
X138127501Y-51289233D01*
X138127501Y-51281630D01*
X138127500Y-51281620D01*
X138127500Y-51278800D01*
X138147185Y-51211761D01*
X138199989Y-51166006D01*
X138269147Y-51156062D01*
X138320392Y-51175698D01*
G37*
%TD.AperFunction*%
%TA.AperFunction,Conductor*%
G36*
X169504043Y-46200765D02*
G01*
X169726790Y-46215364D01*
X169742848Y-46217479D01*
X169957781Y-46260231D01*
X169973434Y-46264426D01*
X170180941Y-46334865D01*
X170195925Y-46341071D01*
X170392464Y-46437994D01*
X170406510Y-46446104D01*
X170588705Y-46567842D01*
X170601574Y-46577716D01*
X170766328Y-46722202D01*
X170777797Y-46733671D01*
X170922283Y-46898425D01*
X170932157Y-46911294D01*
X171053895Y-47093489D01*
X171062005Y-47107535D01*
X171158928Y-47304074D01*
X171165135Y-47319060D01*
X171235571Y-47526558D01*
X171239769Y-47542225D01*
X171282518Y-47757140D01*
X171284636Y-47773221D01*
X171299235Y-47995956D01*
X171299500Y-48004066D01*
X171299500Y-104639585D01*
X171279815Y-104706624D01*
X171227011Y-104752379D01*
X171157853Y-104762323D01*
X171094297Y-104733298D01*
X171065015Y-104695880D01*
X171032455Y-104631978D01*
X171026760Y-104620801D01*
X170915690Y-104467927D01*
X170782073Y-104334310D01*
X170629199Y-104223240D01*
X170591299Y-104203929D01*
X170460836Y-104137454D01*
X170281118Y-104079059D01*
X170094486Y-104049500D01*
X170094481Y-104049500D01*
X169905519Y-104049500D01*
X169905514Y-104049500D01*
X169718881Y-104079059D01*
X169539163Y-104137454D01*
X169370800Y-104223240D01*
X169283579Y-104286610D01*
X169217927Y-104334310D01*
X169217925Y-104334312D01*
X169217924Y-104334312D01*
X169084312Y-104467924D01*
X169084312Y-104467925D01*
X169084310Y-104467927D01*
X169068486Y-104489707D01*
X168973240Y-104620800D01*
X168887454Y-104789163D01*
X168829059Y-104968881D01*
X168799500Y-105155513D01*
X168799500Y-105344486D01*
X168829059Y-105531118D01*
X168887454Y-105710836D01*
X168964061Y-105861185D01*
X168973240Y-105879199D01*
X169084310Y-106032073D01*
X169217927Y-106165690D01*
X169370801Y-106276760D01*
X169450347Y-106317290D01*
X169539163Y-106362545D01*
X169539165Y-106362545D01*
X169539168Y-106362547D01*
X169635497Y-106393846D01*
X169718881Y-106420940D01*
X169905514Y-106450500D01*
X170062180Y-106450500D01*
X170076852Y-106454808D01*
X170092131Y-106454172D01*
X170109694Y-106464451D01*
X170129219Y-106470185D01*
X170139231Y-106481740D01*
X170152431Y-106489466D01*
X170161649Y-106507611D01*
X170174974Y-106522989D01*
X170177150Y-106538123D01*
X170184077Y-106551758D01*
X170182021Y-106572004D01*
X170184918Y-106592147D01*
X170178565Y-106606057D01*
X170177021Y-106621271D01*
X170164347Y-106637191D01*
X170155893Y-106655703D01*
X170142370Y-106664797D01*
X170133504Y-106675934D01*
X170102044Y-106691916D01*
X169973435Y-106735573D01*
X169957774Y-106739769D01*
X169742859Y-106782518D01*
X169726778Y-106784636D01*
X169504043Y-106799235D01*
X169495933Y-106799500D01*
X135504067Y-106799500D01*
X135495957Y-106799235D01*
X135273221Y-106784636D01*
X135257140Y-106782518D01*
X135042225Y-106739769D01*
X135026558Y-106735571D01*
X134819060Y-106665135D01*
X134804074Y-106658928D01*
X134607535Y-106562005D01*
X134593489Y-106553895D01*
X134411294Y-106432157D01*
X134398425Y-106422283D01*
X134233671Y-106277797D01*
X134222202Y-106266328D01*
X134077716Y-106101574D01*
X134067842Y-106088705D01*
X133946104Y-105906510D01*
X133937994Y-105892464D01*
X133841071Y-105695925D01*
X133834864Y-105680939D01*
X133826348Y-105655852D01*
X133764426Y-105473434D01*
X133760230Y-105457774D01*
X133758421Y-105448677D01*
X133717479Y-105242848D01*
X133715364Y-105226790D01*
X133700765Y-105004043D01*
X133700500Y-104995933D01*
X133700500Y-104076504D01*
X135680000Y-104076504D01*
X135680000Y-104325000D01*
X136380000Y-104325000D01*
X136380000Y-104825000D01*
X135680000Y-104825000D01*
X135680000Y-105073495D01*
X135718427Y-105266681D01*
X135718430Y-105266693D01*
X135793807Y-105448671D01*
X135793814Y-105448684D01*
X135903248Y-105612462D01*
X135903251Y-105612466D01*
X136042533Y-105751748D01*
X136042537Y-105751751D01*
X136206315Y-105861185D01*
X136206328Y-105861192D01*
X136388308Y-105936569D01*
X136430000Y-105944862D01*
X136430000Y-105141988D01*
X136439940Y-105159205D01*
X136495795Y-105215060D01*
X136564204Y-105254556D01*
X136640504Y-105275000D01*
X136719496Y-105275000D01*
X136795796Y-105254556D01*
X136864205Y-105215060D01*
X136920060Y-105159205D01*
X136930000Y-105141988D01*
X136930000Y-105944862D01*
X136971690Y-105936569D01*
X136971692Y-105936569D01*
X137153671Y-105861192D01*
X137153684Y-105861185D01*
X137317462Y-105751751D01*
X137317466Y-105751748D01*
X137456748Y-105612466D01*
X137456751Y-105612462D01*
X137566185Y-105448684D01*
X137566192Y-105448671D01*
X137641569Y-105266693D01*
X137641572Y-105266681D01*
X137679999Y-105073495D01*
X137680000Y-105073492D01*
X137680000Y-104825000D01*
X136980000Y-104825000D01*
X136980000Y-104325000D01*
X137680000Y-104325000D01*
X137680000Y-104076508D01*
X137679999Y-104076504D01*
X144320000Y-104076504D01*
X144320000Y-104325000D01*
X145020000Y-104325000D01*
X145020000Y-104825000D01*
X144320000Y-104825000D01*
X144320000Y-105073495D01*
X144358427Y-105266681D01*
X144358430Y-105266693D01*
X144433807Y-105448671D01*
X144433814Y-105448684D01*
X144543248Y-105612462D01*
X144543251Y-105612466D01*
X144682533Y-105751748D01*
X144682537Y-105751751D01*
X144846315Y-105861185D01*
X144846328Y-105861192D01*
X145028308Y-105936569D01*
X145070000Y-105944862D01*
X145070000Y-105141988D01*
X145079940Y-105159205D01*
X145135795Y-105215060D01*
X145204204Y-105254556D01*
X145280504Y-105275000D01*
X145359496Y-105275000D01*
X145435796Y-105254556D01*
X145504205Y-105215060D01*
X145560060Y-105159205D01*
X145570000Y-105141988D01*
X145570000Y-105944862D01*
X145611690Y-105936569D01*
X145611692Y-105936569D01*
X145793671Y-105861192D01*
X145793684Y-105861185D01*
X145957462Y-105751751D01*
X145957466Y-105751748D01*
X146096748Y-105612466D01*
X146096751Y-105612462D01*
X146186777Y-105477730D01*
X146535752Y-105477730D01*
X146535752Y-105635423D01*
X146566513Y-105790066D01*
X146566516Y-105790078D01*
X146626854Y-105935749D01*
X146626861Y-105935762D01*
X146714462Y-106066865D01*
X146714465Y-106066869D01*
X146825959Y-106178363D01*
X146825963Y-106178366D01*
X146957066Y-106265967D01*
X146957079Y-106265974D01*
X147102750Y-106326312D01*
X147102755Y-106326314D01*
X147257405Y-106357076D01*
X147257408Y-106357077D01*
X147257410Y-106357077D01*
X147415096Y-106357077D01*
X147415097Y-106357076D01*
X147569749Y-106326314D01*
X147715431Y-106265971D01*
X147846541Y-106178366D01*
X147958041Y-106066866D01*
X148045646Y-105935756D01*
X148105989Y-105790074D01*
X148126166Y-105688639D01*
X148136890Y-105634727D01*
X148169275Y-105572816D01*
X148170766Y-105571297D01*
X148557889Y-105184176D01*
X148584816Y-105169472D01*
X148610635Y-105152880D01*
X148616835Y-105151988D01*
X148619212Y-105150691D01*
X148645570Y-105147857D01*
X148887268Y-105147857D01*
X148954307Y-105167542D01*
X148956159Y-105168755D01*
X149087848Y-105256747D01*
X149087861Y-105256754D01*
X149233532Y-105317092D01*
X149233537Y-105317094D01*
X149371220Y-105344481D01*
X149388187Y-105347856D01*
X149388190Y-105347857D01*
X149388192Y-105347857D01*
X149545878Y-105347857D01*
X149545879Y-105347856D01*
X149700531Y-105317094D01*
X149846213Y-105256751D01*
X149977323Y-105169146D01*
X150088823Y-105057646D01*
X150176428Y-104926536D01*
X150178658Y-104921153D01*
X152699500Y-104921153D01*
X152699500Y-105078846D01*
X152730261Y-105233489D01*
X152730264Y-105233501D01*
X152790602Y-105379172D01*
X152790609Y-105379185D01*
X152878210Y-105510288D01*
X152878213Y-105510292D01*
X152989707Y-105621786D01*
X152989711Y-105621789D01*
X153120814Y-105709390D01*
X153120827Y-105709397D01*
X153266498Y-105769735D01*
X153266503Y-105769737D01*
X153421153Y-105800499D01*
X153421156Y-105800500D01*
X153421158Y-105800500D01*
X153578844Y-105800500D01*
X153578845Y-105800499D01*
X153733497Y-105769737D01*
X153875698Y-105710836D01*
X153879172Y-105709397D01*
X153879172Y-105709396D01*
X153879179Y-105709394D01*
X154010289Y-105621789D01*
X154121789Y-105510289D01*
X154209394Y-105379179D01*
X154209395Y-105379176D01*
X154209397Y-105379173D01*
X154255987Y-105266693D01*
X154269192Y-105234810D01*
X154296067Y-105194588D01*
X154503839Y-104986816D01*
X154565161Y-104953334D01*
X154591519Y-104950500D01*
X158799684Y-104950500D01*
X158847136Y-104959939D01*
X158943853Y-105000000D01*
X158991503Y-105019737D01*
X159124963Y-105046284D01*
X159146153Y-105050499D01*
X159146156Y-105050500D01*
X159146158Y-105050500D01*
X159303844Y-105050500D01*
X159303845Y-105050499D01*
X159458497Y-105019737D01*
X159604179Y-104959394D01*
X159735289Y-104871789D01*
X159846789Y-104760289D01*
X159934394Y-104629179D01*
X159937854Y-104620827D01*
X159948067Y-104596166D01*
X159994737Y-104483497D01*
X160025500Y-104328842D01*
X160025500Y-104171158D01*
X160025500Y-104171155D01*
X160025499Y-104171153D01*
X160003231Y-104059204D01*
X159994737Y-104016503D01*
X159994735Y-104016498D01*
X159934397Y-103870827D01*
X159934390Y-103870814D01*
X159846789Y-103739711D01*
X159846786Y-103739707D01*
X159735292Y-103628213D01*
X159735288Y-103628210D01*
X159604185Y-103540609D01*
X159604172Y-103540602D01*
X159458501Y-103480264D01*
X159458489Y-103480261D01*
X159303845Y-103449500D01*
X159303842Y-103449500D01*
X159146158Y-103449500D01*
X159146155Y-103449500D01*
X158991510Y-103480261D01*
X158991498Y-103480264D01*
X158847136Y-103540061D01*
X158799684Y-103549500D01*
X154181003Y-103549500D01*
X154072590Y-103571065D01*
X154072589Y-103571065D01*
X154045671Y-103576420D01*
X153918190Y-103629224D01*
X153803454Y-103705887D01*
X153305412Y-104203929D01*
X153265184Y-104230809D01*
X153120823Y-104290604D01*
X153120814Y-104290609D01*
X152989711Y-104378210D01*
X152989707Y-104378213D01*
X152878213Y-104489707D01*
X152878210Y-104489711D01*
X152790609Y-104620814D01*
X152790602Y-104620827D01*
X152730264Y-104766498D01*
X152730261Y-104766510D01*
X152699500Y-104921153D01*
X150178658Y-104921153D01*
X150190525Y-104892501D01*
X150200835Y-104867613D01*
X150200835Y-104867611D01*
X150209296Y-104847186D01*
X150236771Y-104780854D01*
X150267534Y-104626199D01*
X150267534Y-104468515D01*
X150267534Y-104468512D01*
X150267533Y-104468510D01*
X150264716Y-104454350D01*
X150236771Y-104313860D01*
X150227138Y-104290604D01*
X150176431Y-104168184D01*
X150176424Y-104168171D01*
X150088823Y-104037068D01*
X150088820Y-104037064D01*
X149977326Y-103925570D01*
X149977322Y-103925567D01*
X149846219Y-103837966D01*
X149846206Y-103837959D01*
X149700535Y-103777621D01*
X149700523Y-103777618D01*
X149545879Y-103746857D01*
X149545876Y-103746857D01*
X149388192Y-103746857D01*
X149388189Y-103746857D01*
X149233544Y-103777618D01*
X149233532Y-103777621D01*
X149087861Y-103837959D01*
X149087848Y-103837966D01*
X148956159Y-103925959D01*
X148889481Y-103946837D01*
X148887268Y-103946857D01*
X148432142Y-103946857D01*
X148432126Y-103946856D01*
X148424530Y-103946856D01*
X148266415Y-103946856D01*
X148190051Y-103967318D01*
X148113686Y-103987780D01*
X148113681Y-103987783D01*
X147976762Y-104066832D01*
X147976754Y-104066838D01*
X147321591Y-104722002D01*
X147260268Y-104755487D01*
X147258102Y-104755938D01*
X147102760Y-104786838D01*
X147102750Y-104786841D01*
X146957079Y-104847179D01*
X146957066Y-104847186D01*
X146825963Y-104934787D01*
X146825959Y-104934790D01*
X146714465Y-105046284D01*
X146714462Y-105046288D01*
X146626861Y-105177391D01*
X146626854Y-105177404D01*
X146566516Y-105323075D01*
X146566513Y-105323087D01*
X146535752Y-105477730D01*
X146186777Y-105477730D01*
X146206185Y-105448684D01*
X146206189Y-105448677D01*
X146216331Y-105424192D01*
X146216331Y-105424191D01*
X146216332Y-105424190D01*
X146281570Y-105266689D01*
X146281572Y-105266681D01*
X146319999Y-105073495D01*
X146320000Y-105073492D01*
X146320000Y-104825000D01*
X145620000Y-104825000D01*
X145620000Y-104325000D01*
X146320000Y-104325000D01*
X146320000Y-104076508D01*
X146319999Y-104076504D01*
X146281572Y-103883318D01*
X146281569Y-103883306D01*
X146206192Y-103701328D01*
X146206185Y-103701315D01*
X146096751Y-103537537D01*
X146096748Y-103537533D01*
X145957466Y-103398251D01*
X145957462Y-103398248D01*
X145793684Y-103288814D01*
X145793671Y-103288807D01*
X145611691Y-103213429D01*
X145611683Y-103213427D01*
X145570000Y-103205135D01*
X145570000Y-104008011D01*
X145560060Y-103990795D01*
X145504205Y-103934940D01*
X145435796Y-103895444D01*
X145359496Y-103875000D01*
X145280504Y-103875000D01*
X145204204Y-103895444D01*
X145135795Y-103934940D01*
X145079940Y-103990795D01*
X145070000Y-104008011D01*
X145070000Y-103205136D01*
X145069999Y-103205135D01*
X145028316Y-103213427D01*
X145028308Y-103213429D01*
X144846328Y-103288807D01*
X144846315Y-103288814D01*
X144682537Y-103398248D01*
X144682533Y-103398251D01*
X144543251Y-103537533D01*
X144543248Y-103537537D01*
X144433814Y-103701315D01*
X144433807Y-103701328D01*
X144358430Y-103883306D01*
X144358427Y-103883318D01*
X144320000Y-104076504D01*
X137679999Y-104076504D01*
X137641572Y-103883318D01*
X137641569Y-103883306D01*
X137566192Y-103701328D01*
X137566185Y-103701315D01*
X137456751Y-103537537D01*
X137456748Y-103537533D01*
X137317466Y-103398251D01*
X137317462Y-103398248D01*
X137153684Y-103288814D01*
X137153671Y-103288807D01*
X136971691Y-103213429D01*
X136971683Y-103213427D01*
X136930000Y-103205135D01*
X136930000Y-104008011D01*
X136920060Y-103990795D01*
X136864205Y-103934940D01*
X136795796Y-103895444D01*
X136719496Y-103875000D01*
X136640504Y-103875000D01*
X136564204Y-103895444D01*
X136495795Y-103934940D01*
X136439940Y-103990795D01*
X136430000Y-104008011D01*
X136430000Y-103205136D01*
X136429999Y-103205135D01*
X136388316Y-103213427D01*
X136388308Y-103213429D01*
X136206328Y-103288807D01*
X136206315Y-103288814D01*
X136042537Y-103398248D01*
X136042533Y-103398251D01*
X135903251Y-103537533D01*
X135903248Y-103537537D01*
X135793814Y-103701315D01*
X135793807Y-103701328D01*
X135718430Y-103883306D01*
X135718427Y-103883318D01*
X135680000Y-104076504D01*
X133700500Y-104076504D01*
X133700500Y-99726504D01*
X135680000Y-99726504D01*
X135680000Y-100125000D01*
X136380000Y-100125000D01*
X136380000Y-100625000D01*
X135680000Y-100625000D01*
X135680000Y-101023495D01*
X135718427Y-101216681D01*
X135718430Y-101216693D01*
X135793807Y-101398671D01*
X135793814Y-101398684D01*
X135903248Y-101562462D01*
X135903251Y-101562466D01*
X136042533Y-101701748D01*
X136042537Y-101701751D01*
X136206315Y-101811185D01*
X136206328Y-101811192D01*
X136388308Y-101886569D01*
X136430000Y-101894862D01*
X136430000Y-101091988D01*
X136439940Y-101109205D01*
X136495795Y-101165060D01*
X136564204Y-101204556D01*
X136640504Y-101225000D01*
X136719496Y-101225000D01*
X136795796Y-101204556D01*
X136864205Y-101165060D01*
X136920060Y-101109205D01*
X136930000Y-101091988D01*
X136930000Y-101894862D01*
X136971690Y-101886569D01*
X136971692Y-101886569D01*
X137153671Y-101811192D01*
X137153684Y-101811185D01*
X137317462Y-101701751D01*
X137317466Y-101701748D01*
X137456748Y-101562466D01*
X137456751Y-101562462D01*
X137566185Y-101398684D01*
X137566192Y-101398671D01*
X137584304Y-101354945D01*
X137628144Y-101300541D01*
X137694438Y-101278476D01*
X137762138Y-101295755D01*
X137786546Y-101314716D01*
X137787335Y-101315505D01*
X137787336Y-101315506D01*
X137787338Y-101315507D01*
X137847249Y-101350096D01*
X137907164Y-101384688D01*
X138040817Y-101420500D01*
X138040819Y-101420500D01*
X138179181Y-101420500D01*
X138179183Y-101420500D01*
X138312836Y-101384688D01*
X138432665Y-101315505D01*
X138530505Y-101217665D01*
X138599688Y-101097836D01*
X138635500Y-100964183D01*
X138635500Y-100964180D01*
X138636022Y-100960217D01*
X138637392Y-100957119D01*
X138637603Y-100956333D01*
X138637725Y-100956365D01*
X138664287Y-100896320D01*
X138671280Y-100888718D01*
X138700000Y-100859998D01*
X138700000Y-100110000D01*
X138000000Y-100110000D01*
X138000000Y-100285288D01*
X137980315Y-100352327D01*
X137927511Y-100398082D01*
X137908095Y-100405062D01*
X137907170Y-100405309D01*
X137907161Y-100405313D01*
X137787338Y-100474492D01*
X137787333Y-100474496D01*
X137689494Y-100572335D01*
X137686309Y-100576487D01*
X137629881Y-100617689D01*
X137587934Y-100625000D01*
X136980000Y-100625000D01*
X136980000Y-100125000D01*
X137680000Y-100125000D01*
X137680000Y-99726508D01*
X137679999Y-99726504D01*
X137641572Y-99533318D01*
X137641569Y-99533306D01*
X137566192Y-99351328D01*
X137566185Y-99351315D01*
X137456751Y-99187537D01*
X137456748Y-99187533D01*
X137317466Y-99048251D01*
X137317462Y-99048248D01*
X137153684Y-98938814D01*
X137153671Y-98938807D01*
X136971691Y-98863429D01*
X136971683Y-98863427D01*
X136930000Y-98855135D01*
X136930000Y-99658011D01*
X136920060Y-99640795D01*
X136864205Y-99584940D01*
X136795796Y-99545444D01*
X136719496Y-99525000D01*
X136640504Y-99525000D01*
X136564204Y-99545444D01*
X136495795Y-99584940D01*
X136439940Y-99640795D01*
X136430000Y-99658011D01*
X136430000Y-98855136D01*
X136429999Y-98855135D01*
X136388316Y-98863427D01*
X136388308Y-98863429D01*
X136206328Y-98938807D01*
X136206315Y-98938814D01*
X136042537Y-99048248D01*
X136042533Y-99048251D01*
X135903251Y-99187533D01*
X135903248Y-99187537D01*
X135793814Y-99351315D01*
X135793807Y-99351328D01*
X135718430Y-99533306D01*
X135718427Y-99533318D01*
X135680000Y-99726504D01*
X133700500Y-99726504D01*
X133700500Y-88921153D01*
X134199500Y-88921153D01*
X134199500Y-89078846D01*
X134230261Y-89233489D01*
X134230264Y-89233501D01*
X134290602Y-89379172D01*
X134290609Y-89379185D01*
X134378210Y-89510288D01*
X134378213Y-89510292D01*
X134489707Y-89621786D01*
X134489711Y-89621789D01*
X134620814Y-89709390D01*
X134620827Y-89709397D01*
X134758683Y-89766498D01*
X134766503Y-89769737D01*
X134921153Y-89800499D01*
X134921156Y-89800500D01*
X134921158Y-89800500D01*
X135078844Y-89800500D01*
X135078845Y-89800499D01*
X135233497Y-89769737D01*
X135348468Y-89722115D01*
X135377864Y-89709939D01*
X135386040Y-89708312D01*
X135390381Y-89705523D01*
X135425316Y-89700500D01*
X135654559Y-89700500D01*
X135721598Y-89720185D01*
X135734723Y-89730762D01*
X135735001Y-89730424D01*
X135739711Y-89734289D01*
X135870814Y-89821890D01*
X135870827Y-89821897D01*
X136016498Y-89882235D01*
X136016503Y-89882237D01*
X136171153Y-89912999D01*
X136171156Y-89913000D01*
X136171158Y-89913000D01*
X136328844Y-89913000D01*
X136328845Y-89912999D01*
X136483497Y-89882237D01*
X136629179Y-89821894D01*
X136760289Y-89734289D01*
X136760293Y-89734284D01*
X136764999Y-89730424D01*
X136766383Y-89732110D01*
X136784687Y-89722115D01*
X136810506Y-89705523D01*
X136816706Y-89704631D01*
X136819083Y-89703334D01*
X136845441Y-89700500D01*
X137074684Y-89700500D01*
X137122136Y-89709939D01*
X137258683Y-89766498D01*
X137266503Y-89769737D01*
X137421153Y-89800499D01*
X137421156Y-89800500D01*
X137421158Y-89800500D01*
X137578844Y-89800500D01*
X137578845Y-89800499D01*
X137733497Y-89769737D01*
X137789184Y-89746670D01*
X137858651Y-89739202D01*
X137921130Y-89770477D01*
X137924316Y-89773551D01*
X138313181Y-90162416D01*
X138346666Y-90223739D01*
X138349500Y-90250097D01*
X138349500Y-97195858D01*
X138329815Y-97262897D01*
X138277011Y-97308652D01*
X138268847Y-97312034D01*
X138257669Y-97316204D01*
X138257664Y-97316206D01*
X138142455Y-97402452D01*
X138142452Y-97402455D01*
X138056206Y-97517664D01*
X138056202Y-97517671D01*
X138005908Y-97652517D01*
X137999501Y-97712116D01*
X137999501Y-97712123D01*
X137999500Y-97712135D01*
X137999500Y-98807870D01*
X137999501Y-98807876D01*
X138005908Y-98867483D01*
X138059303Y-99010641D01*
X138057733Y-99011226D01*
X138070383Y-99069367D01*
X138058687Y-99109206D01*
X138059746Y-99109601D01*
X138006403Y-99252620D01*
X138006401Y-99252627D01*
X138000000Y-99312155D01*
X138000000Y-99610000D01*
X138826000Y-99610000D01*
X138893039Y-99629685D01*
X138938794Y-99682489D01*
X138950000Y-99734000D01*
X138950000Y-99860000D01*
X139025500Y-99860000D01*
X139092539Y-99879685D01*
X139138294Y-99932489D01*
X139149500Y-99984000D01*
X139149500Y-100663330D01*
X139149499Y-100663348D01*
X139149499Y-100829054D01*
X139149498Y-100829054D01*
X139149499Y-100829057D01*
X139190423Y-100981785D01*
X139210468Y-101016503D01*
X139249809Y-101084645D01*
X139269479Y-101118715D01*
X139400740Y-101249976D01*
X139408758Y-101264660D01*
X139434225Y-101311296D01*
X139437059Y-101337657D01*
X139437059Y-101386044D01*
X139467820Y-101540687D01*
X139467823Y-101540699D01*
X139528161Y-101686370D01*
X139528168Y-101686383D01*
X139615769Y-101817486D01*
X139615772Y-101817490D01*
X139727266Y-101928984D01*
X139727270Y-101928987D01*
X139858373Y-102016588D01*
X139858386Y-102016595D01*
X140004057Y-102076933D01*
X140004062Y-102076935D01*
X140158712Y-102107697D01*
X140158715Y-102107698D01*
X140158717Y-102107698D01*
X140316403Y-102107698D01*
X140316404Y-102107697D01*
X140471056Y-102076935D01*
X140616738Y-102016592D01*
X140747848Y-101928987D01*
X140859348Y-101817487D01*
X140909787Y-101741998D01*
X140963397Y-101697196D01*
X141032722Y-101688487D01*
X141095750Y-101718642D01*
X141115990Y-101741999D01*
X141128213Y-101760292D01*
X141239707Y-101871786D01*
X141239711Y-101871789D01*
X141370814Y-101959390D01*
X141370827Y-101959397D01*
X141508910Y-102016592D01*
X141516503Y-102019737D01*
X141671153Y-102050499D01*
X141671156Y-102050500D01*
X141671158Y-102050500D01*
X141828844Y-102050500D01*
X141828845Y-102050499D01*
X141983497Y-102019737D01*
X142129179Y-101959394D01*
X142260289Y-101871789D01*
X142371789Y-101760289D01*
X142459394Y-101629179D01*
X142519737Y-101483497D01*
X142535738Y-101403052D01*
X142550638Y-101328151D01*
X142583023Y-101266240D01*
X142584510Y-101264724D01*
X142730520Y-101118716D01*
X142809577Y-100981784D01*
X142812136Y-100972231D01*
X142817450Y-100952404D01*
X142853815Y-100892744D01*
X142916663Y-100862216D01*
X142937224Y-100860499D01*
X143242105Y-100860499D01*
X143309144Y-100880184D01*
X143354899Y-100932988D01*
X143361659Y-100956530D01*
X143362397Y-100956333D01*
X143364500Y-100964180D01*
X143364500Y-100964183D01*
X143400312Y-101097835D01*
X143400313Y-101097838D01*
X143469492Y-101217661D01*
X143469494Y-101217664D01*
X143469495Y-101217665D01*
X143567335Y-101315505D01*
X143567336Y-101315506D01*
X143567338Y-101315507D01*
X143627249Y-101350096D01*
X143687164Y-101384688D01*
X143820817Y-101420500D01*
X143820819Y-101420500D01*
X143959181Y-101420500D01*
X143959183Y-101420500D01*
X144092836Y-101384688D01*
X144212665Y-101315505D01*
X144213450Y-101314719D01*
X144214274Y-101314269D01*
X144219110Y-101310559D01*
X144219688Y-101311312D01*
X144274767Y-101281233D01*
X144344459Y-101286212D01*
X144400395Y-101328079D01*
X144415695Y-101354943D01*
X144433811Y-101398677D01*
X144433814Y-101398684D01*
X144543248Y-101562462D01*
X144543251Y-101562466D01*
X144682533Y-101701748D01*
X144682537Y-101701751D01*
X144846315Y-101811185D01*
X144846328Y-101811192D01*
X145028308Y-101886569D01*
X145070000Y-101894862D01*
X145070000Y-101091988D01*
X145079940Y-101109205D01*
X145135795Y-101165060D01*
X145204204Y-101204556D01*
X145280504Y-101225000D01*
X145359496Y-101225000D01*
X145435796Y-101204556D01*
X145504205Y-101165060D01*
X145560060Y-101109205D01*
X145570000Y-101091988D01*
X145570000Y-101894862D01*
X145611690Y-101886569D01*
X145611692Y-101886569D01*
X145793671Y-101811192D01*
X145793684Y-101811185D01*
X145957462Y-101701751D01*
X145957466Y-101701748D01*
X146096748Y-101562466D01*
X146096751Y-101562462D01*
X146206185Y-101398684D01*
X146206192Y-101398671D01*
X146281569Y-101216693D01*
X146281572Y-101216681D01*
X146319999Y-101023495D01*
X146320000Y-101023492D01*
X146320000Y-100625000D01*
X145620000Y-100625000D01*
X145620000Y-100407844D01*
X149500000Y-100407844D01*
X149506401Y-100467372D01*
X149506403Y-100467379D01*
X149556645Y-100602086D01*
X149556649Y-100602093D01*
X149642809Y-100717187D01*
X149642812Y-100717190D01*
X149757906Y-100803350D01*
X149757913Y-100803354D01*
X149892620Y-100853596D01*
X149892627Y-100853598D01*
X149952155Y-100859999D01*
X149952172Y-100860000D01*
X150200000Y-100860000D01*
X150700000Y-100860000D01*
X150947828Y-100860000D01*
X150947844Y-100859999D01*
X151007372Y-100853598D01*
X151007379Y-100853596D01*
X151142086Y-100803354D01*
X151142093Y-100803350D01*
X151257187Y-100717190D01*
X151257190Y-100717187D01*
X151343350Y-100602093D01*
X151343354Y-100602086D01*
X151393596Y-100467379D01*
X151393598Y-100467372D01*
X151399999Y-100407844D01*
X151400000Y-100407827D01*
X151400000Y-100110000D01*
X150700000Y-100110000D01*
X150700000Y-100860000D01*
X150200000Y-100860000D01*
X150200000Y-100110000D01*
X149500000Y-100110000D01*
X149500000Y-100407844D01*
X145620000Y-100407844D01*
X145620000Y-100125000D01*
X146320000Y-100125000D01*
X146320000Y-99726508D01*
X146319999Y-99726504D01*
X146281572Y-99533318D01*
X146281569Y-99533306D01*
X146206192Y-99351328D01*
X146206185Y-99351315D01*
X146096751Y-99187537D01*
X146096748Y-99187533D01*
X145957466Y-99048251D01*
X145957462Y-99048248D01*
X145793684Y-98938814D01*
X145793671Y-98938807D01*
X145611691Y-98863429D01*
X145611683Y-98863427D01*
X145570000Y-98855135D01*
X145570000Y-99658011D01*
X145560060Y-99640795D01*
X145504205Y-99584940D01*
X145435796Y-99545444D01*
X145359496Y-99525000D01*
X145280504Y-99525000D01*
X145204204Y-99545444D01*
X145135795Y-99584940D01*
X145079940Y-99640795D01*
X145070000Y-99658011D01*
X145070000Y-98855136D01*
X145069999Y-98855135D01*
X145028316Y-98863427D01*
X145028308Y-98863429D01*
X144846328Y-98938807D01*
X144846315Y-98938814D01*
X144682537Y-99048248D01*
X144682533Y-99048251D01*
X144543251Y-99187533D01*
X144543248Y-99187537D01*
X144433814Y-99351315D01*
X144433807Y-99351328D01*
X144358430Y-99533306D01*
X144358427Y-99533318D01*
X144320000Y-99726504D01*
X144320000Y-100125000D01*
X145020000Y-100125000D01*
X145020000Y-100625000D01*
X144412066Y-100625000D01*
X144345027Y-100605315D01*
X144313691Y-100576487D01*
X144310505Y-100572335D01*
X144212666Y-100474496D01*
X144212661Y-100474492D01*
X144092838Y-100405313D01*
X144092831Y-100405310D01*
X144092404Y-100405196D01*
X144092083Y-100405000D01*
X144085329Y-100402203D01*
X144085765Y-100401149D01*
X144032744Y-100368831D01*
X144002216Y-100305983D01*
X144000499Y-100285422D01*
X144000499Y-99312129D01*
X144000498Y-99312123D01*
X144000497Y-99312116D01*
X143994091Y-99252517D01*
X143943796Y-99117669D01*
X143943794Y-99117666D01*
X143940696Y-99109360D01*
X143942426Y-99108714D01*
X143929902Y-99051163D01*
X143941691Y-99011011D01*
X143940696Y-99010640D01*
X143943794Y-99002333D01*
X143943796Y-99002331D01*
X143994091Y-98867483D01*
X144000500Y-98807873D01*
X144000499Y-97712128D01*
X143994091Y-97652517D01*
X143943796Y-97517669D01*
X143943795Y-97517668D01*
X143943793Y-97517664D01*
X143857547Y-97402455D01*
X143857544Y-97402452D01*
X143742335Y-97316206D01*
X143742328Y-97316202D01*
X143620518Y-97270770D01*
X143564584Y-97228899D01*
X143540167Y-97163434D01*
X143542233Y-97130398D01*
X143550500Y-97088842D01*
X143550500Y-96931158D01*
X143550500Y-96931155D01*
X143550499Y-96931153D01*
X143538792Y-96872298D01*
X143519737Y-96776503D01*
X143519735Y-96776498D01*
X143519734Y-96776494D01*
X143459397Y-96630827D01*
X143459390Y-96630814D01*
X143371789Y-96499711D01*
X143371786Y-96499707D01*
X143260292Y-96388213D01*
X143260288Y-96388210D01*
X143129185Y-96300609D01*
X143129172Y-96300602D01*
X142983501Y-96240264D01*
X142983489Y-96240261D01*
X142828845Y-96209500D01*
X142828842Y-96209500D01*
X142671158Y-96209500D01*
X142671155Y-96209500D01*
X142516510Y-96240261D01*
X142516498Y-96240264D01*
X142370827Y-96300602D01*
X142370814Y-96300609D01*
X142239711Y-96388210D01*
X142239707Y-96388213D01*
X142128213Y-96499707D01*
X142128210Y-96499711D01*
X142040609Y-96630814D01*
X142040602Y-96630827D01*
X141977932Y-96782130D01*
X141976862Y-96781687D01*
X141941969Y-96834933D01*
X141878158Y-96863390D01*
X141861605Y-96864500D01*
X140815820Y-96864500D01*
X140748781Y-96844815D01*
X140703026Y-96792011D01*
X140693082Y-96722853D01*
X140722107Y-96659297D01*
X140746929Y-96637398D01*
X140756782Y-96630814D01*
X140770289Y-96621789D01*
X140881789Y-96510289D01*
X140969394Y-96379179D01*
X141029737Y-96233497D01*
X141060500Y-96078842D01*
X141060500Y-95921158D01*
X141060500Y-95921155D01*
X141060499Y-95921153D01*
X141029738Y-95766510D01*
X141029737Y-95766503D01*
X140969500Y-95621076D01*
X140969397Y-95620827D01*
X140969390Y-95620814D01*
X140881789Y-95489711D01*
X140881786Y-95489707D01*
X140770292Y-95378213D01*
X140770288Y-95378210D01*
X140639185Y-95290609D01*
X140639172Y-95290602D01*
X140493501Y-95230264D01*
X140493489Y-95230261D01*
X140338845Y-95199500D01*
X140338842Y-95199500D01*
X140181158Y-95199500D01*
X140181155Y-95199500D01*
X140026510Y-95230261D01*
X140026498Y-95230264D01*
X139880827Y-95290602D01*
X139880814Y-95290609D01*
X139744646Y-95381595D01*
X139743298Y-95379577D01*
X139688799Y-95402695D01*
X139619937Y-95390872D01*
X139568398Y-95343697D01*
X139550500Y-95279522D01*
X139550500Y-93705216D01*
X139570185Y-93638177D01*
X139622989Y-93592422D01*
X139692147Y-93582478D01*
X139698692Y-93583599D01*
X139783655Y-93600500D01*
X139783658Y-93600500D01*
X139941344Y-93600500D01*
X139941345Y-93600499D01*
X140095997Y-93569737D01*
X140241679Y-93509394D01*
X140372789Y-93421789D01*
X140484289Y-93310289D01*
X140571894Y-93179179D01*
X140632237Y-93033497D01*
X140663000Y-92878842D01*
X140663000Y-92721158D01*
X140663000Y-92721155D01*
X140662999Y-92721153D01*
X140649350Y-92652535D01*
X140632237Y-92566503D01*
X140632235Y-92566498D01*
X140571897Y-92420827D01*
X140571890Y-92420814D01*
X140483898Y-92289125D01*
X140463020Y-92222447D01*
X140463000Y-92220234D01*
X140463000Y-90866306D01*
X140482685Y-90799267D01*
X140535489Y-90753512D01*
X140604647Y-90743568D01*
X140668203Y-90772593D01*
X140674658Y-90778603D01*
X140819931Y-90923876D01*
X140819933Y-90923877D01*
X140819934Y-90923878D01*
X140819937Y-90923880D01*
X140934046Y-90989760D01*
X140956863Y-91002933D01*
X141109590Y-91043857D01*
X141109592Y-91043857D01*
X141275301Y-91043857D01*
X141275317Y-91043856D01*
X141756547Y-91043856D01*
X141823586Y-91063541D01*
X141844227Y-91080174D01*
X142821572Y-92057520D01*
X142821574Y-92057521D01*
X142821578Y-92057524D01*
X142932885Y-92121786D01*
X142958504Y-92136577D01*
X143111231Y-92177501D01*
X143111233Y-92177501D01*
X143276942Y-92177501D01*
X143276958Y-92177500D01*
X144846872Y-92177500D01*
X144913911Y-92197185D01*
X144959666Y-92249989D01*
X144969610Y-92319147D01*
X144968489Y-92325691D01*
X144949500Y-92421153D01*
X144949500Y-92578846D01*
X144980261Y-92733489D01*
X144980264Y-92733501D01*
X145040602Y-92879172D01*
X145040609Y-92879185D01*
X145128602Y-93010874D01*
X145149480Y-93077551D01*
X145149500Y-93079765D01*
X145149500Y-93699903D01*
X145129815Y-93766942D01*
X145113181Y-93787584D01*
X144837584Y-94063181D01*
X144776261Y-94096666D01*
X144749903Y-94099500D01*
X142717266Y-94099500D01*
X142650227Y-94079815D01*
X142648375Y-94078602D01*
X142516685Y-93990609D01*
X142516672Y-93990602D01*
X142371001Y-93930264D01*
X142370989Y-93930261D01*
X142216345Y-93899500D01*
X142216342Y-93899500D01*
X142058658Y-93899500D01*
X142058655Y-93899500D01*
X141904010Y-93930261D01*
X141903998Y-93930264D01*
X141758327Y-93990602D01*
X141758314Y-93990609D01*
X141627211Y-94078210D01*
X141627207Y-94078213D01*
X141515713Y-94189707D01*
X141515710Y-94189711D01*
X141428109Y-94320814D01*
X141428102Y-94320827D01*
X141367764Y-94466498D01*
X141367761Y-94466510D01*
X141337000Y-94621153D01*
X141337000Y-94778846D01*
X141367761Y-94933489D01*
X141367764Y-94933501D01*
X141428102Y-95079172D01*
X141428109Y-95079185D01*
X141515710Y-95210288D01*
X141515713Y-95210292D01*
X141627207Y-95321786D01*
X141627211Y-95321789D01*
X141758314Y-95409390D01*
X141758327Y-95409397D01*
X141903998Y-95469735D01*
X141904003Y-95469737D01*
X142058653Y-95500499D01*
X142058656Y-95500500D01*
X142058658Y-95500500D01*
X142216344Y-95500500D01*
X142216345Y-95500499D01*
X142370997Y-95469737D01*
X142516679Y-95409394D01*
X142558283Y-95381595D01*
X142648375Y-95321398D01*
X142715053Y-95300520D01*
X142717266Y-95300500D01*
X144963331Y-95300500D01*
X144963347Y-95300501D01*
X144970943Y-95300501D01*
X145129054Y-95300501D01*
X145129057Y-95300501D01*
X145281785Y-95259577D01*
X145332558Y-95230263D01*
X145418716Y-95180520D01*
X145530520Y-95068716D01*
X145530520Y-95068714D01*
X145540724Y-95058511D01*
X145540728Y-95058506D01*
X146108506Y-94490728D01*
X146108511Y-94490724D01*
X146118714Y-94480520D01*
X146118716Y-94480520D01*
X146230520Y-94368716D01*
X146309577Y-94231784D01*
X146339534Y-94119981D01*
X146350500Y-94079058D01*
X146350500Y-93920943D01*
X146350500Y-93079765D01*
X146370185Y-93012726D01*
X146371398Y-93010874D01*
X146459390Y-92879185D01*
X146459390Y-92879184D01*
X146459394Y-92879179D01*
X146519737Y-92733497D01*
X146522181Y-92721206D01*
X146554564Y-92659296D01*
X146615279Y-92624720D01*
X146685049Y-92628458D01*
X146731480Y-92657715D01*
X149813181Y-95739416D01*
X149846666Y-95800739D01*
X149849500Y-95827097D01*
X149849500Y-97195858D01*
X149829815Y-97262897D01*
X149777011Y-97308652D01*
X149768847Y-97312034D01*
X149757669Y-97316204D01*
X149757664Y-97316206D01*
X149642455Y-97402452D01*
X149642452Y-97402455D01*
X149556206Y-97517664D01*
X149556202Y-97517671D01*
X149505908Y-97652517D01*
X149499501Y-97712116D01*
X149499501Y-97712123D01*
X149499500Y-97712135D01*
X149499500Y-98807870D01*
X149499501Y-98807876D01*
X149505908Y-98867483D01*
X149559303Y-99010641D01*
X149557733Y-99011226D01*
X149570383Y-99069367D01*
X149558687Y-99109206D01*
X149559746Y-99109601D01*
X149506403Y-99252620D01*
X149506401Y-99252627D01*
X149500000Y-99312155D01*
X149500000Y-99610000D01*
X151400000Y-99610000D01*
X151400000Y-99312172D01*
X151399999Y-99312155D01*
X151393598Y-99252627D01*
X151393597Y-99252623D01*
X151340253Y-99109602D01*
X151342067Y-99108925D01*
X151329616Y-99051674D01*
X151341570Y-99010966D01*
X151340696Y-99010640D01*
X151343794Y-99002333D01*
X151343796Y-99002331D01*
X151394091Y-98867483D01*
X151400500Y-98807873D01*
X151400499Y-98531866D01*
X151420183Y-98464829D01*
X151472987Y-98419074D01*
X151537755Y-98408579D01*
X151542516Y-98409090D01*
X151542517Y-98409091D01*
X151602127Y-98415500D01*
X153397872Y-98415499D01*
X153457483Y-98409091D01*
X153457487Y-98409089D01*
X153462245Y-98408578D01*
X153531004Y-98420984D01*
X153582142Y-98468594D01*
X153599500Y-98531868D01*
X153599500Y-98807869D01*
X153599501Y-98807876D01*
X153605908Y-98867483D01*
X153659303Y-99010641D01*
X153657575Y-99011285D01*
X153670095Y-99068853D01*
X153658310Y-99108988D01*
X153659303Y-99109359D01*
X153605908Y-99252517D01*
X153599501Y-99312116D01*
X153599501Y-99312123D01*
X153599500Y-99312135D01*
X153599500Y-100407870D01*
X153599501Y-100407876D01*
X153605908Y-100467483D01*
X153656202Y-100602328D01*
X153656206Y-100602335D01*
X153742452Y-100717544D01*
X153742455Y-100717547D01*
X153857664Y-100803793D01*
X153857671Y-100803797D01*
X153992517Y-100854091D01*
X153992516Y-100854091D01*
X153999444Y-100854835D01*
X154052127Y-100860500D01*
X155047872Y-100860499D01*
X155107483Y-100854091D01*
X155242331Y-100803796D01*
X155357546Y-100717546D01*
X155443796Y-100602331D01*
X155494091Y-100467483D01*
X155500500Y-100407873D01*
X155500500Y-100407844D01*
X161000000Y-100407844D01*
X161006401Y-100467372D01*
X161006403Y-100467379D01*
X161056645Y-100602086D01*
X161056649Y-100602093D01*
X161142809Y-100717187D01*
X161142812Y-100717190D01*
X161257906Y-100803350D01*
X161257913Y-100803354D01*
X161392620Y-100853596D01*
X161392627Y-100853598D01*
X161452155Y-100859999D01*
X161452172Y-100860000D01*
X161700000Y-100860000D01*
X162200000Y-100860000D01*
X162447828Y-100860000D01*
X162447844Y-100859999D01*
X162507372Y-100853598D01*
X162507379Y-100853596D01*
X162642086Y-100803354D01*
X162642093Y-100803350D01*
X162757187Y-100717190D01*
X162757190Y-100717187D01*
X162843350Y-100602093D01*
X162843354Y-100602086D01*
X162893596Y-100467379D01*
X162893598Y-100467372D01*
X162899999Y-100407844D01*
X162900000Y-100407827D01*
X162900000Y-100110000D01*
X162200000Y-100110000D01*
X162200000Y-100860000D01*
X161700000Y-100860000D01*
X161700000Y-100110000D01*
X161000000Y-100110000D01*
X161000000Y-100407844D01*
X155500500Y-100407844D01*
X155500499Y-99860000D01*
X155500499Y-99312129D01*
X155500498Y-99312123D01*
X155500497Y-99312116D01*
X155494091Y-99252517D01*
X155443796Y-99117669D01*
X155443794Y-99117666D01*
X155440696Y-99109360D01*
X155442426Y-99108714D01*
X155429902Y-99051163D01*
X155441691Y-99011011D01*
X155440696Y-99010640D01*
X155443794Y-99002333D01*
X155443796Y-99002331D01*
X155494091Y-98867483D01*
X155500500Y-98807873D01*
X155500499Y-97712128D01*
X155494091Y-97652517D01*
X155443796Y-97517669D01*
X155443795Y-97517668D01*
X155443793Y-97517664D01*
X155357547Y-97402455D01*
X155357544Y-97402452D01*
X155242335Y-97316206D01*
X155242328Y-97316202D01*
X155107482Y-97265908D01*
X155107483Y-97265908D01*
X155047883Y-97259501D01*
X155047881Y-97259500D01*
X155047873Y-97259500D01*
X155047864Y-97259500D01*
X154052129Y-97259500D01*
X154052123Y-97259501D01*
X153992515Y-97265909D01*
X153981144Y-97270150D01*
X153911452Y-97275132D01*
X153850130Y-97241646D01*
X153821632Y-97197300D01*
X153793797Y-97122671D01*
X153793793Y-97122664D01*
X153707547Y-97007455D01*
X153707544Y-97007452D01*
X153592335Y-96921206D01*
X153592328Y-96921202D01*
X153457482Y-96870908D01*
X153457483Y-96870908D01*
X153397883Y-96864501D01*
X153397881Y-96864500D01*
X153397873Y-96864500D01*
X153397864Y-96864500D01*
X151602129Y-96864500D01*
X151602123Y-96864501D01*
X151542516Y-96870908D01*
X151407671Y-96921202D01*
X151407664Y-96921206D01*
X151292455Y-97007452D01*
X151273766Y-97032418D01*
X151217832Y-97074288D01*
X151148140Y-97079272D01*
X151086818Y-97045786D01*
X151053333Y-96984462D01*
X151050500Y-96958106D01*
X151050500Y-95616060D01*
X151050501Y-95616047D01*
X151050501Y-95447944D01*
X151040172Y-95409397D01*
X151009577Y-95295216D01*
X150989000Y-95259575D01*
X150930524Y-95158290D01*
X150930518Y-95158282D01*
X150275267Y-94503031D01*
X150241782Y-94441708D01*
X150246766Y-94372016D01*
X150288638Y-94316083D01*
X150354102Y-94291666D01*
X150387136Y-94293732D01*
X150421158Y-94300500D01*
X150578844Y-94300500D01*
X150578845Y-94300499D01*
X150733497Y-94269737D01*
X150879179Y-94209394D01*
X151010289Y-94121789D01*
X151121789Y-94010289D01*
X151209394Y-93879179D01*
X151269737Y-93733497D01*
X151300500Y-93578842D01*
X151300500Y-93421158D01*
X151300500Y-93421155D01*
X151300499Y-93421153D01*
X151291957Y-93378210D01*
X151269737Y-93266503D01*
X151269735Y-93266498D01*
X151209397Y-93120827D01*
X151209390Y-93120814D01*
X151121789Y-92989711D01*
X151121786Y-92989707D01*
X151010292Y-92878213D01*
X151010288Y-92878210D01*
X150879185Y-92790609D01*
X150879172Y-92790602D01*
X150733501Y-92730264D01*
X150733491Y-92730261D01*
X150578149Y-92699361D01*
X150516238Y-92666976D01*
X150514660Y-92665425D01*
X149911416Y-92062181D01*
X149877931Y-92000858D01*
X149882915Y-91931166D01*
X149924787Y-91875233D01*
X149990251Y-91850816D01*
X149999097Y-91850500D01*
X154639903Y-91850500D01*
X154706942Y-91870185D01*
X154727584Y-91886819D01*
X160963181Y-98122416D01*
X160996666Y-98183739D01*
X160999500Y-98210097D01*
X160999500Y-98807870D01*
X160999501Y-98807876D01*
X161005908Y-98867483D01*
X161059303Y-99010641D01*
X161057733Y-99011226D01*
X161070383Y-99069367D01*
X161058687Y-99109206D01*
X161059746Y-99109601D01*
X161006403Y-99252620D01*
X161006401Y-99252627D01*
X161000000Y-99312155D01*
X161000000Y-99610000D01*
X162900000Y-99610000D01*
X162900000Y-99312172D01*
X162899999Y-99312155D01*
X162893598Y-99252627D01*
X162893597Y-99252623D01*
X162840253Y-99109602D01*
X162842067Y-99108925D01*
X162829616Y-99051674D01*
X162841570Y-99010966D01*
X162840696Y-99010640D01*
X162843794Y-99002333D01*
X162843796Y-99002331D01*
X162894091Y-98867483D01*
X162900500Y-98807873D01*
X162900499Y-98531866D01*
X162920183Y-98464829D01*
X162972987Y-98419074D01*
X163037755Y-98408579D01*
X163042516Y-98409090D01*
X163042517Y-98409091D01*
X163102127Y-98415500D01*
X164897872Y-98415499D01*
X164957483Y-98409091D01*
X164957487Y-98409089D01*
X164962245Y-98408578D01*
X165031004Y-98420984D01*
X165082142Y-98468594D01*
X165099500Y-98531868D01*
X165099500Y-98807869D01*
X165099501Y-98807876D01*
X165105908Y-98867483D01*
X165159303Y-99010641D01*
X165157575Y-99011285D01*
X165170095Y-99068853D01*
X165158310Y-99108988D01*
X165159303Y-99109359D01*
X165105908Y-99252517D01*
X165099501Y-99312116D01*
X165099501Y-99312123D01*
X165099500Y-99312135D01*
X165099500Y-100407870D01*
X165099501Y-100407876D01*
X165105908Y-100467483D01*
X165156202Y-100602328D01*
X165156206Y-100602335D01*
X165242452Y-100717544D01*
X165242455Y-100717547D01*
X165357664Y-100803793D01*
X165357671Y-100803797D01*
X165492517Y-100854091D01*
X165492516Y-100854091D01*
X165499444Y-100854835D01*
X165552127Y-100860500D01*
X166547872Y-100860499D01*
X166607483Y-100854091D01*
X166742331Y-100803796D01*
X166857546Y-100717546D01*
X166943796Y-100602331D01*
X166994091Y-100467483D01*
X167000500Y-100407873D01*
X167000499Y-99312128D01*
X166994091Y-99252517D01*
X166943796Y-99117669D01*
X166943794Y-99117666D01*
X166940696Y-99109360D01*
X166942426Y-99108714D01*
X166929902Y-99051163D01*
X166941691Y-99011011D01*
X166940696Y-99010640D01*
X166943794Y-99002333D01*
X166943796Y-99002331D01*
X166994091Y-98867483D01*
X167000500Y-98807873D01*
X167000499Y-97712128D01*
X166994091Y-97652517D01*
X166943796Y-97517669D01*
X166943795Y-97517668D01*
X166943793Y-97517664D01*
X166857547Y-97402455D01*
X166857544Y-97402452D01*
X166742335Y-97316206D01*
X166742328Y-97316202D01*
X166607482Y-97265908D01*
X166607483Y-97265908D01*
X166547883Y-97259501D01*
X166547881Y-97259500D01*
X166547873Y-97259500D01*
X166547864Y-97259500D01*
X165552129Y-97259500D01*
X165552123Y-97259501D01*
X165492515Y-97265909D01*
X165481144Y-97270150D01*
X165411452Y-97275132D01*
X165350130Y-97241646D01*
X165321632Y-97197300D01*
X165293797Y-97122671D01*
X165293793Y-97122664D01*
X165207547Y-97007455D01*
X165207544Y-97007452D01*
X165092335Y-96921206D01*
X165092328Y-96921202D01*
X164957482Y-96870908D01*
X164957483Y-96870908D01*
X164897883Y-96864501D01*
X164897881Y-96864500D01*
X164897873Y-96864500D01*
X164897864Y-96864500D01*
X163102129Y-96864500D01*
X163102123Y-96864501D01*
X163042516Y-96870908D01*
X162907671Y-96921202D01*
X162907664Y-96921206D01*
X162792455Y-97007452D01*
X162792452Y-97007455D01*
X162706206Y-97122664D01*
X162706200Y-97122675D01*
X162678366Y-97197301D01*
X162636495Y-97253235D01*
X162571030Y-97277651D01*
X162518853Y-97270149D01*
X162507485Y-97265909D01*
X162507483Y-97265908D01*
X162447883Y-97259501D01*
X162447881Y-97259500D01*
X162447873Y-97259500D01*
X162447865Y-97259500D01*
X161850097Y-97259500D01*
X161783058Y-97239815D01*
X161762416Y-97223181D01*
X159351416Y-94812181D01*
X159340803Y-94792744D01*
X159326303Y-94776011D01*
X159324386Y-94762679D01*
X159317931Y-94750858D01*
X159319510Y-94728771D01*
X159316359Y-94706853D01*
X159321954Y-94694601D01*
X159322915Y-94681166D01*
X159336185Y-94663439D01*
X159345384Y-94643297D01*
X159356715Y-94636014D01*
X159364787Y-94625233D01*
X159385532Y-94617495D01*
X159404162Y-94605523D01*
X159426080Y-94602371D01*
X159430251Y-94600816D01*
X159439097Y-94600500D01*
X159663331Y-94600500D01*
X159663347Y-94600501D01*
X159670943Y-94600501D01*
X159829054Y-94600501D01*
X159829057Y-94600501D01*
X159981785Y-94559577D01*
X160031904Y-94530639D01*
X160118716Y-94480520D01*
X160230520Y-94368716D01*
X160230520Y-94368714D01*
X160240728Y-94358507D01*
X160240729Y-94358504D01*
X163241077Y-91358159D01*
X163320134Y-91221227D01*
X163361058Y-91068500D01*
X163361058Y-90910385D01*
X163361058Y-90902790D01*
X163361057Y-90902772D01*
X163361057Y-90810652D01*
X163380742Y-90743613D01*
X163397371Y-90722976D01*
X164608506Y-89511840D01*
X164608511Y-89511837D01*
X164618714Y-89501633D01*
X164618716Y-89501633D01*
X164730520Y-89389829D01*
X164809577Y-89252897D01*
X164842928Y-89128428D01*
X164850500Y-89100171D01*
X164850500Y-88942056D01*
X164850500Y-86669148D01*
X164854724Y-86637058D01*
X164877501Y-86552057D01*
X164877501Y-86393942D01*
X164877501Y-86386347D01*
X164877500Y-86386329D01*
X164877500Y-85447945D01*
X164877499Y-85447938D01*
X164871119Y-85424128D01*
X164871119Y-85424129D01*
X164836577Y-85295215D01*
X164816412Y-85260289D01*
X164804531Y-85239710D01*
X164804530Y-85239709D01*
X164757521Y-85158286D01*
X164757520Y-85158284D01*
X164645716Y-85046480D01*
X164645715Y-85046479D01*
X164645714Y-85046478D01*
X164639270Y-85041534D01*
X164639544Y-85041176D01*
X164623027Y-85028501D01*
X164448812Y-84854285D01*
X164337008Y-84742481D01*
X164337007Y-84742480D01*
X164200075Y-84663423D01*
X164200074Y-84663422D01*
X164200073Y-84663422D01*
X164200007Y-84663395D01*
X164199074Y-84663154D01*
X164106020Y-84638220D01*
X164047347Y-84622499D01*
X164047345Y-84622499D01*
X163889233Y-84622500D01*
X163618374Y-84622500D01*
X163618358Y-84622499D01*
X163437505Y-84622499D01*
X163279391Y-84622499D01*
X163271795Y-84622499D01*
X163271779Y-84622500D01*
X163008495Y-84622500D01*
X162855765Y-84663423D01*
X162813116Y-84688048D01*
X162813115Y-84688048D01*
X162718839Y-84742477D01*
X162718834Y-84742481D01*
X162455405Y-85005911D01*
X162394082Y-85039396D01*
X162324390Y-85034412D01*
X162298530Y-85021129D01*
X162288550Y-85014418D01*
X162252690Y-84978558D01*
X162132852Y-84909370D01*
X162115759Y-84899501D01*
X161963031Y-84858577D01*
X161804917Y-84858577D01*
X161797321Y-84858577D01*
X161797305Y-84858578D01*
X160456230Y-84858578D01*
X160389191Y-84838893D01*
X160383834Y-84835250D01*
X160375666Y-84829376D01*
X160324848Y-84778558D01*
X160229550Y-84723538D01*
X160224181Y-84720438D01*
X160224178Y-84720436D01*
X160187922Y-84699503D01*
X160187921Y-84699502D01*
X160175395Y-84696145D01*
X160035189Y-84658577D01*
X159877075Y-84658577D01*
X159869479Y-84658577D01*
X159869463Y-84658578D01*
X159440018Y-84658578D01*
X159372979Y-84638893D01*
X159327224Y-84586089D01*
X159317280Y-84516931D01*
X159346305Y-84453375D01*
X159352337Y-84446897D01*
X159766392Y-84032842D01*
X160464662Y-83334572D01*
X160525983Y-83301089D01*
X160528150Y-83300638D01*
X160586085Y-83289113D01*
X160683497Y-83269737D01*
X160829179Y-83209394D01*
X160960289Y-83121789D01*
X161071789Y-83010289D01*
X161159394Y-82879179D01*
X161219737Y-82733497D01*
X161250500Y-82578842D01*
X161250500Y-82421158D01*
X161250500Y-82421155D01*
X161250499Y-82421153D01*
X161219738Y-82266510D01*
X161219738Y-82266508D01*
X161219737Y-82266503D01*
X161167021Y-82139234D01*
X161159397Y-82120827D01*
X161159390Y-82120814D01*
X161071789Y-81989711D01*
X161071786Y-81989707D01*
X160960292Y-81878213D01*
X160960288Y-81878210D01*
X160829185Y-81790609D01*
X160829172Y-81790602D01*
X160683501Y-81730264D01*
X160683489Y-81730261D01*
X160528845Y-81699500D01*
X160528842Y-81699500D01*
X160371158Y-81699500D01*
X160371155Y-81699500D01*
X160216510Y-81730261D01*
X160216498Y-81730264D01*
X160070827Y-81790602D01*
X160070814Y-81790609D01*
X159939711Y-81878210D01*
X159939707Y-81878213D01*
X159828213Y-81989707D01*
X159828210Y-81989711D01*
X159740609Y-82120814D01*
X159740602Y-82120827D01*
X159680264Y-82266498D01*
X159680261Y-82266508D01*
X159649361Y-82421850D01*
X159616976Y-82483761D01*
X159615425Y-82485339D01*
X158616431Y-83484332D01*
X158555108Y-83517817D01*
X158504559Y-83518268D01*
X158454794Y-83508369D01*
X158454790Y-83508369D01*
X158297106Y-83508369D01*
X158297103Y-83508369D01*
X158229691Y-83521778D01*
X158160100Y-83515551D01*
X158104922Y-83472688D01*
X158081678Y-83406798D01*
X158081500Y-83400161D01*
X158081500Y-83064387D01*
X158101185Y-82997348D01*
X158117815Y-82976710D01*
X158385506Y-82709018D01*
X158385511Y-82709015D01*
X158395714Y-82698811D01*
X158395716Y-82698811D01*
X158507520Y-82587007D01*
X158560800Y-82494723D01*
X158586577Y-82450076D01*
X158627500Y-82297348D01*
X158627500Y-82139234D01*
X158627500Y-81366060D01*
X158627501Y-81366047D01*
X158627501Y-81197944D01*
X158601396Y-81100520D01*
X158586577Y-81045216D01*
X158566412Y-81010289D01*
X158507524Y-80908290D01*
X158507518Y-80908282D01*
X158334573Y-80735337D01*
X158301088Y-80674014D01*
X158300637Y-80671847D01*
X158269738Y-80516510D01*
X158269737Y-80516503D01*
X158230242Y-80421153D01*
X158209396Y-80370825D01*
X158209394Y-80370822D01*
X158209394Y-80370821D01*
X158174694Y-80318889D01*
X158153816Y-80252215D01*
X158172300Y-80184835D01*
X158174676Y-80181136D01*
X158209394Y-80129179D01*
X158269737Y-79983497D01*
X158300500Y-79828842D01*
X158300500Y-79824499D01*
X158320185Y-79757461D01*
X158372989Y-79711706D01*
X158424500Y-79700500D01*
X161032480Y-79700500D01*
X161083815Y-79711625D01*
X161092989Y-79715797D01*
X161120821Y-79734394D01*
X161266503Y-79794737D01*
X161266606Y-79794757D01*
X161269068Y-79795877D01*
X161273712Y-79799889D01*
X161305414Y-79821071D01*
X161316428Y-79832085D01*
X161343308Y-79872314D01*
X161403102Y-80016672D01*
X161403109Y-80016685D01*
X161490710Y-80147788D01*
X161490713Y-80147792D01*
X161602207Y-80259286D01*
X161602211Y-80259289D01*
X161733314Y-80346890D01*
X161733327Y-80346897D01*
X161878998Y-80407235D01*
X161879003Y-80407237D01*
X162033653Y-80437999D01*
X162033656Y-80438000D01*
X162033658Y-80438000D01*
X162191344Y-80438000D01*
X162191345Y-80437999D01*
X162345997Y-80407237D01*
X162491679Y-80346894D01*
X162622789Y-80259289D01*
X162734289Y-80147789D01*
X162821894Y-80016679D01*
X162833137Y-79989537D01*
X162870504Y-79899322D01*
X162882237Y-79870997D01*
X162913000Y-79716342D01*
X162913000Y-79558658D01*
X162913000Y-79558655D01*
X162912999Y-79558653D01*
X162904614Y-79516498D01*
X162882237Y-79404003D01*
X162868894Y-79371789D01*
X162826712Y-79269952D01*
X162819243Y-79200483D01*
X162850518Y-79138004D01*
X162910607Y-79102352D01*
X162941273Y-79098500D01*
X163422903Y-79098500D01*
X163489942Y-79118185D01*
X163510584Y-79134819D01*
X167140425Y-82764660D01*
X167173910Y-82825983D01*
X167174361Y-82828149D01*
X167205261Y-82983491D01*
X167205264Y-82983501D01*
X167265602Y-83129172D01*
X167265609Y-83129185D01*
X167353210Y-83260288D01*
X167353213Y-83260292D01*
X167373806Y-83280885D01*
X167407291Y-83342208D01*
X167402307Y-83411900D01*
X167373806Y-83456247D01*
X166797211Y-84032842D01*
X166735888Y-84066327D01*
X166666196Y-84061343D01*
X166640638Y-84048262D01*
X166629186Y-84040610D01*
X166629172Y-84040602D01*
X166483501Y-83980264D01*
X166483489Y-83980261D01*
X166328845Y-83949500D01*
X166328842Y-83949500D01*
X166171158Y-83949500D01*
X166171155Y-83949500D01*
X166016510Y-83980261D01*
X166016498Y-83980264D01*
X165870827Y-84040602D01*
X165870814Y-84040609D01*
X165739711Y-84128210D01*
X165739707Y-84128213D01*
X165628213Y-84239707D01*
X165628210Y-84239711D01*
X165540609Y-84370814D01*
X165540602Y-84370827D01*
X165480264Y-84516498D01*
X165480261Y-84516510D01*
X165449500Y-84671153D01*
X165449500Y-84828846D01*
X165480261Y-84983489D01*
X165480264Y-84983501D01*
X165540602Y-85129172D01*
X165540609Y-85129185D01*
X165628210Y-85260288D01*
X165628213Y-85260292D01*
X165739707Y-85371786D01*
X165739711Y-85371789D01*
X165870814Y-85459390D01*
X165870827Y-85459397D01*
X166016498Y-85519735D01*
X166016503Y-85519737D01*
X166171153Y-85550499D01*
X166171156Y-85550500D01*
X166171158Y-85550500D01*
X166328844Y-85550500D01*
X166328845Y-85550499D01*
X166483497Y-85519737D01*
X166629179Y-85459394D01*
X166686044Y-85421397D01*
X166752721Y-85400520D01*
X166754935Y-85400500D01*
X167064071Y-85400500D01*
X167148615Y-85383682D01*
X167189744Y-85375501D01*
X167308127Y-85326465D01*
X167326679Y-85314069D01*
X167414669Y-85255277D01*
X167414671Y-85255274D01*
X167414676Y-85255271D01*
X169255272Y-83414674D01*
X169255273Y-83414673D01*
X169255277Y-83414669D01*
X169326465Y-83308127D01*
X169346280Y-83260289D01*
X169375501Y-83189744D01*
X169387547Y-83129185D01*
X169400500Y-83064071D01*
X169400500Y-80254935D01*
X169420185Y-80187896D01*
X169421366Y-80186090D01*
X169459394Y-80129179D01*
X169462854Y-80120827D01*
X169505990Y-80016685D01*
X169519737Y-79983497D01*
X169550500Y-79828842D01*
X169550500Y-79671158D01*
X169550500Y-79671155D01*
X169550499Y-79671153D01*
X169536115Y-79598842D01*
X169519737Y-79516503D01*
X169496080Y-79459390D01*
X169459397Y-79370827D01*
X169459390Y-79370814D01*
X169371789Y-79239711D01*
X169371786Y-79239707D01*
X169260292Y-79128213D01*
X169260288Y-79128210D01*
X169129185Y-79040609D01*
X169129172Y-79040602D01*
X168983501Y-78980264D01*
X168983489Y-78980261D01*
X168828845Y-78949500D01*
X168828842Y-78949500D01*
X168671158Y-78949500D01*
X168671155Y-78949500D01*
X168516510Y-78980261D01*
X168516498Y-78980264D01*
X168370827Y-79040602D01*
X168370814Y-79040609D01*
X168239711Y-79128210D01*
X168239707Y-79128213D01*
X168128213Y-79239707D01*
X168128210Y-79239711D01*
X168040609Y-79370814D01*
X168040602Y-79370827D01*
X167980264Y-79516498D01*
X167980261Y-79516510D01*
X167949500Y-79671153D01*
X167949500Y-79828846D01*
X167980261Y-79983489D01*
X167980264Y-79983501D01*
X168040602Y-80129172D01*
X168040605Y-80129177D01*
X168040606Y-80129179D01*
X168078602Y-80186044D01*
X168099480Y-80252721D01*
X168099500Y-80254935D01*
X168099500Y-81725903D01*
X168079815Y-81792942D01*
X168027011Y-81838697D01*
X167957853Y-81848641D01*
X167894297Y-81819616D01*
X167887819Y-81813584D01*
X164210590Y-78136355D01*
X164210588Y-78136352D01*
X164091717Y-78017481D01*
X164091716Y-78017480D01*
X164004904Y-77967360D01*
X164004904Y-77967359D01*
X164004900Y-77967358D01*
X163954785Y-77938423D01*
X163802057Y-77897499D01*
X163643943Y-77897499D01*
X163636347Y-77897499D01*
X163636331Y-77897500D01*
X161161669Y-77897500D01*
X161161653Y-77897499D01*
X161154057Y-77897499D01*
X160995943Y-77897499D01*
X160843215Y-77938423D01*
X160843213Y-77938423D01*
X160843213Y-77938424D01*
X160812967Y-77955887D01*
X160750966Y-77972500D01*
X156885374Y-77972500D01*
X156818335Y-77952815D01*
X156772580Y-77900011D01*
X156762636Y-77830853D01*
X156777987Y-77786500D01*
X156778239Y-77786062D01*
X156809577Y-77731784D01*
X156850500Y-77579057D01*
X156850500Y-71920943D01*
X156820660Y-71809577D01*
X156809577Y-71768215D01*
X156771723Y-71702651D01*
X156771723Y-71702649D01*
X156730524Y-71631290D01*
X156730521Y-71631286D01*
X156730520Y-71631284D01*
X156618716Y-71519480D01*
X156618715Y-71519479D01*
X156614385Y-71515149D01*
X156614374Y-71515139D01*
X156297355Y-71198120D01*
X156263870Y-71136797D01*
X156268854Y-71067105D01*
X156297352Y-71022761D01*
X156360267Y-70959847D01*
X156447872Y-70828737D01*
X156508215Y-70683055D01*
X156538978Y-70528400D01*
X156538978Y-70370716D01*
X156538978Y-70370713D01*
X156538977Y-70370711D01*
X156526999Y-70310495D01*
X156508215Y-70216061D01*
X156467894Y-70118716D01*
X156447875Y-70070385D01*
X156447868Y-70070372D01*
X156360267Y-69939269D01*
X156360264Y-69939265D01*
X156248770Y-69827771D01*
X156248766Y-69827768D01*
X156117663Y-69740167D01*
X156117650Y-69740160D01*
X155971979Y-69679822D01*
X155971967Y-69679819D01*
X155817323Y-69649058D01*
X155817320Y-69649058D01*
X155659636Y-69649058D01*
X155659633Y-69649058D01*
X155504988Y-69679819D01*
X155504976Y-69679822D01*
X155359305Y-69740160D01*
X155359294Y-69740166D01*
X155275383Y-69796234D01*
X155208706Y-69817111D01*
X155141326Y-69798626D01*
X155137604Y-69796235D01*
X155129181Y-69790607D01*
X155129172Y-69790602D01*
X154983501Y-69730264D01*
X154983489Y-69730261D01*
X154828845Y-69699500D01*
X154828842Y-69699500D01*
X154671158Y-69699500D01*
X154671155Y-69699500D01*
X154516510Y-69730261D01*
X154516498Y-69730264D01*
X154370816Y-69790607D01*
X154367509Y-69792375D01*
X154365581Y-69792775D01*
X154365193Y-69792937D01*
X154365162Y-69792863D01*
X154299104Y-69806607D01*
X154261621Y-69797570D01*
X154250436Y-69792937D01*
X154199160Y-69771698D01*
X154199156Y-69771697D01*
X154199151Y-69771695D01*
X154044508Y-69740935D01*
X154044505Y-69740935D01*
X153886821Y-69740935D01*
X153886818Y-69740935D01*
X153732173Y-69771696D01*
X153732161Y-69771699D01*
X153607411Y-69823372D01*
X153537942Y-69830841D01*
X153512514Y-69823375D01*
X153456578Y-69800206D01*
X153456571Y-69800204D01*
X153456570Y-69800204D01*
X153456569Y-69800203D01*
X153301926Y-69769443D01*
X153301923Y-69769443D01*
X153144239Y-69769443D01*
X153144236Y-69769443D01*
X152989591Y-69800204D01*
X152989579Y-69800207D01*
X152843908Y-69860545D01*
X152843895Y-69860552D01*
X152712792Y-69948153D01*
X152712788Y-69948156D01*
X152601294Y-70059650D01*
X152601291Y-70059654D01*
X152513690Y-70190757D01*
X152513683Y-70190770D01*
X152453345Y-70336441D01*
X152453342Y-70336453D01*
X152422581Y-70491096D01*
X152422581Y-70648789D01*
X152453342Y-70803432D01*
X152453345Y-70803444D01*
X152513683Y-70949115D01*
X152513690Y-70949128D01*
X152601683Y-71080817D01*
X152622561Y-71147494D01*
X152622581Y-71149708D01*
X152622581Y-71481253D01*
X152602896Y-71548292D01*
X152550092Y-71594047D01*
X152480934Y-71603991D01*
X152429691Y-71584356D01*
X152379183Y-71550608D01*
X152379172Y-71550602D01*
X152233501Y-71490264D01*
X152233489Y-71490261D01*
X152200309Y-71483661D01*
X152138398Y-71451276D01*
X152103824Y-71390561D01*
X152100500Y-71362044D01*
X152100500Y-68386555D01*
X152120185Y-68319516D01*
X152172989Y-68273761D01*
X152242147Y-68263817D01*
X152260411Y-68268840D01*
X152260676Y-68267969D01*
X152266492Y-68269732D01*
X152266503Y-68269737D01*
X152387767Y-68293858D01*
X152421153Y-68300499D01*
X152421156Y-68300500D01*
X152421158Y-68300500D01*
X152578844Y-68300500D01*
X152578845Y-68300499D01*
X152733497Y-68269737D01*
X152879179Y-68209394D01*
X152895634Y-68198398D01*
X152962311Y-68177520D01*
X152964526Y-68177500D01*
X154836331Y-68177500D01*
X154836347Y-68177501D01*
X154843943Y-68177501D01*
X155002054Y-68177501D01*
X155002057Y-68177501D01*
X155154785Y-68136577D01*
X155219004Y-68099500D01*
X155291716Y-68057520D01*
X155403520Y-67945716D01*
X155403520Y-67945714D01*
X155413724Y-67935511D01*
X155413727Y-67935506D01*
X158212416Y-65136819D01*
X158273739Y-65103334D01*
X158300097Y-65100500D01*
X160449903Y-65100500D01*
X160479343Y-65109144D01*
X160509330Y-65115668D01*
X160514345Y-65119422D01*
X160516942Y-65120185D01*
X160537584Y-65136819D01*
X160669626Y-65268861D01*
X160703111Y-65330184D01*
X160703563Y-65380732D01*
X160699500Y-65401159D01*
X160699500Y-65558846D01*
X160730261Y-65713489D01*
X160730264Y-65713501D01*
X160790602Y-65859172D01*
X160790609Y-65859185D01*
X160878210Y-65990288D01*
X160878213Y-65990292D01*
X160989707Y-66101786D01*
X160989711Y-66101789D01*
X161120814Y-66189390D01*
X161120827Y-66189397D01*
X161227648Y-66233643D01*
X161266503Y-66249737D01*
X161421153Y-66280499D01*
X161421156Y-66280500D01*
X161421158Y-66280500D01*
X161578844Y-66280500D01*
X161578845Y-66280499D01*
X161733497Y-66249737D01*
X161879179Y-66189394D01*
X162010289Y-66101789D01*
X162121789Y-65990289D01*
X162209394Y-65859179D01*
X162269737Y-65713497D01*
X162300500Y-65558842D01*
X162300500Y-65401158D01*
X162300500Y-65401155D01*
X162300499Y-65401153D01*
X162292964Y-65363273D01*
X162269737Y-65246503D01*
X162229605Y-65149615D01*
X162209397Y-65100827D01*
X162209390Y-65100814D01*
X162121789Y-64969711D01*
X162121786Y-64969707D01*
X162010292Y-64858213D01*
X162010288Y-64858210D01*
X161879176Y-64770603D01*
X161875338Y-64768552D01*
X161846110Y-64746875D01*
X161611416Y-64512181D01*
X161577931Y-64450858D01*
X161582915Y-64381166D01*
X161624787Y-64325233D01*
X161690251Y-64300816D01*
X161699097Y-64300500D01*
X161828844Y-64300500D01*
X161828845Y-64300499D01*
X161983497Y-64269737D01*
X162129179Y-64209394D01*
X162260289Y-64121789D01*
X162371789Y-64010289D01*
X162433791Y-63917495D01*
X162487403Y-63872691D01*
X162556727Y-63863984D01*
X162619755Y-63894138D01*
X162624574Y-63898706D01*
X163956388Y-65230520D01*
X163956390Y-65230521D01*
X163956394Y-65230524D01*
X164022797Y-65268861D01*
X164093320Y-65309577D01*
X164246047Y-65350501D01*
X164246049Y-65350501D01*
X164411758Y-65350501D01*
X164411774Y-65350500D01*
X165316710Y-65350500D01*
X165383749Y-65370185D01*
X165385601Y-65371398D01*
X165517290Y-65459390D01*
X165517303Y-65459397D01*
X165617963Y-65501091D01*
X165662979Y-65519737D01*
X165815603Y-65550096D01*
X165817629Y-65550499D01*
X165817632Y-65550500D01*
X165817634Y-65550500D01*
X165975320Y-65550500D01*
X165975321Y-65550499D01*
X166129973Y-65519737D01*
X166228049Y-65479112D01*
X166297516Y-65471644D01*
X166359996Y-65502919D01*
X166395648Y-65563008D01*
X166399500Y-65593674D01*
X166399500Y-66699902D01*
X166379815Y-66766941D01*
X166363181Y-66787583D01*
X165415957Y-67734806D01*
X165415955Y-67734809D01*
X165395791Y-67769735D01*
X165370195Y-67814069D01*
X165336899Y-67871739D01*
X165295975Y-68024467D01*
X165295975Y-68024469D01*
X165295975Y-68170235D01*
X165276290Y-68237274D01*
X165275077Y-68239126D01*
X165187085Y-68370814D01*
X165187078Y-68370827D01*
X165126740Y-68516498D01*
X165126737Y-68516510D01*
X165095976Y-68671153D01*
X165095976Y-68828846D01*
X165126737Y-68983489D01*
X165126740Y-68983501D01*
X165181597Y-69115938D01*
X165189066Y-69185407D01*
X165157791Y-69247886D01*
X165137412Y-69264109D01*
X165137735Y-69264530D01*
X165131282Y-69269481D01*
X165019478Y-69381286D01*
X164037584Y-70363181D01*
X163976261Y-70396666D01*
X163949903Y-70399500D01*
X162079766Y-70399500D01*
X162012727Y-70379815D01*
X162010875Y-70378602D01*
X161879185Y-70290609D01*
X161879172Y-70290602D01*
X161733501Y-70230264D01*
X161733489Y-70230261D01*
X161578845Y-70199500D01*
X161578842Y-70199500D01*
X161421158Y-70199500D01*
X161421155Y-70199500D01*
X161266510Y-70230261D01*
X161266498Y-70230264D01*
X161120827Y-70290602D01*
X161120814Y-70290609D01*
X160989711Y-70378210D01*
X160989707Y-70378213D01*
X160878213Y-70489707D01*
X160878210Y-70489711D01*
X160790609Y-70620814D01*
X160790602Y-70620827D01*
X160730264Y-70766498D01*
X160730261Y-70766510D01*
X160699500Y-70921153D01*
X160699500Y-71078846D01*
X160730261Y-71233489D01*
X160730264Y-71233501D01*
X160790602Y-71379172D01*
X160790609Y-71379185D01*
X160878210Y-71510288D01*
X160878213Y-71510292D01*
X160989707Y-71621786D01*
X160989711Y-71621789D01*
X161120814Y-71709390D01*
X161120827Y-71709397D01*
X161266498Y-71769735D01*
X161266503Y-71769737D01*
X161412285Y-71798735D01*
X161421153Y-71800499D01*
X161421156Y-71800500D01*
X161421158Y-71800500D01*
X161578844Y-71800500D01*
X161578845Y-71800499D01*
X161733497Y-71769737D01*
X161879179Y-71709394D01*
X161933153Y-71673330D01*
X162010875Y-71621398D01*
X162077553Y-71600520D01*
X162079766Y-71600500D01*
X164163331Y-71600500D01*
X164163347Y-71600501D01*
X164170943Y-71600501D01*
X164329054Y-71600501D01*
X164329057Y-71600501D01*
X164481785Y-71559577D01*
X164501331Y-71548292D01*
X164536104Y-71528216D01*
X164536105Y-71528215D01*
X164618716Y-71480520D01*
X164730520Y-71368716D01*
X164730520Y-71368714D01*
X164740724Y-71358511D01*
X164740727Y-71358506D01*
X165712416Y-70386819D01*
X165773739Y-70353334D01*
X165800097Y-70350500D01*
X167663331Y-70350500D01*
X167663347Y-70350501D01*
X167670943Y-70350501D01*
X167829054Y-70350501D01*
X167829057Y-70350501D01*
X167981785Y-70309577D01*
X168031904Y-70280639D01*
X168118716Y-70230520D01*
X168230520Y-70118716D01*
X168230520Y-70118714D01*
X168240728Y-70108507D01*
X168240730Y-70108504D01*
X169358506Y-68990728D01*
X169358511Y-68990724D01*
X169368714Y-68980520D01*
X169368716Y-68980520D01*
X169480520Y-68868716D01*
X169539400Y-68766732D01*
X169559577Y-68731785D01*
X169600501Y-68579057D01*
X169600501Y-68420943D01*
X169600501Y-68413348D01*
X169600500Y-68413330D01*
X169600500Y-63420944D01*
X169600499Y-63420941D01*
X169599869Y-63418589D01*
X169599866Y-63418577D01*
X169583770Y-63358507D01*
X169583560Y-63357722D01*
X169559577Y-63268216D01*
X169548194Y-63248500D01*
X169480524Y-63131290D01*
X169480521Y-63131286D01*
X169480520Y-63131284D01*
X169368716Y-63019480D01*
X169368715Y-63019479D01*
X169364385Y-63015149D01*
X169364374Y-63015139D01*
X167987590Y-61638355D01*
X167987588Y-61638352D01*
X167868717Y-61519481D01*
X167868716Y-61519480D01*
X167773861Y-61464716D01*
X167773860Y-61464715D01*
X167731783Y-61440422D01*
X167675881Y-61425443D01*
X167579057Y-61399499D01*
X167420943Y-61399499D01*
X167413347Y-61399499D01*
X167413331Y-61399500D01*
X163300097Y-61399500D01*
X163233058Y-61379815D01*
X163212416Y-61363181D01*
X162136819Y-60287584D01*
X162103334Y-60226261D01*
X162100500Y-60199903D01*
X162100500Y-56920942D01*
X162097636Y-56910256D01*
X162097635Y-56910252D01*
X162087071Y-56870827D01*
X162076118Y-56829949D01*
X162059577Y-56768216D01*
X162059575Y-56768212D01*
X162059574Y-56768209D01*
X161980524Y-56631290D01*
X161980521Y-56631286D01*
X161980520Y-56631284D01*
X161868716Y-56519480D01*
X161868715Y-56519479D01*
X161864385Y-56515149D01*
X161864374Y-56515139D01*
X157237590Y-51888355D01*
X157237588Y-51888352D01*
X157118717Y-51769481D01*
X157118716Y-51769480D01*
X157031904Y-51719360D01*
X157031904Y-51719359D01*
X157031900Y-51719358D01*
X156981785Y-51690423D01*
X156829057Y-51649499D01*
X156670943Y-51649499D01*
X156663347Y-51649499D01*
X156663331Y-51649500D01*
X140800098Y-51649500D01*
X140733059Y-51629815D01*
X140712417Y-51613181D01*
X139584573Y-50485337D01*
X139551088Y-50424014D01*
X139550637Y-50421847D01*
X139538340Y-50360026D01*
X139519737Y-50266503D01*
X139468366Y-50142481D01*
X139459397Y-50120827D01*
X139459390Y-50120814D01*
X139371789Y-49989711D01*
X139371786Y-49989707D01*
X139260292Y-49878213D01*
X139260288Y-49878210D01*
X139129185Y-49790609D01*
X139129172Y-49790602D01*
X138983501Y-49730264D01*
X138983489Y-49730261D01*
X138828845Y-49699500D01*
X138828842Y-49699500D01*
X138671158Y-49699500D01*
X138671155Y-49699500D01*
X138516510Y-49730261D01*
X138516498Y-49730264D01*
X138370827Y-49790602D01*
X138370814Y-49790609D01*
X138239711Y-49878210D01*
X138239707Y-49878213D01*
X138128213Y-49989707D01*
X138128210Y-49989711D01*
X138040609Y-50120814D01*
X138040602Y-50120827D01*
X137980264Y-50266498D01*
X137978494Y-50272335D01*
X137976560Y-50271748D01*
X137976141Y-50272548D01*
X137975417Y-50282681D01*
X137960217Y-50302984D01*
X137948460Y-50325457D01*
X137939631Y-50330483D01*
X137933545Y-50338614D01*
X137909783Y-50347476D01*
X137887741Y-50360026D01*
X137877597Y-50359481D01*
X137868081Y-50363031D01*
X137843298Y-50357639D01*
X137817972Y-50356280D01*
X137807915Y-50349942D01*
X137799808Y-50348179D01*
X137771554Y-50327028D01*
X137705881Y-50261355D01*
X137705879Y-50261352D01*
X137587008Y-50142481D01*
X137587007Y-50142480D01*
X137488021Y-50085331D01*
X137488020Y-50085330D01*
X137450074Y-50063422D01*
X137394172Y-50048443D01*
X137297348Y-50022499D01*
X137139234Y-50022499D01*
X137131638Y-50022499D01*
X137131622Y-50022500D01*
X136702649Y-50022500D01*
X136661728Y-50033464D01*
X136661728Y-50033465D01*
X136624460Y-50043451D01*
X136549923Y-50063423D01*
X136549918Y-50063426D01*
X136412999Y-50142475D01*
X136412991Y-50142481D01*
X135992481Y-50562991D01*
X135992475Y-50562999D01*
X135948187Y-50639710D01*
X135948187Y-50639711D01*
X135913423Y-50699924D01*
X135872499Y-50852652D01*
X135872499Y-50852654D01*
X135872499Y-51020755D01*
X135872500Y-51020768D01*
X135872500Y-51281621D01*
X135872499Y-51281639D01*
X135872499Y-51447345D01*
X135872498Y-51447345D01*
X135872499Y-51447348D01*
X135913423Y-51600076D01*
X135940716Y-51647348D01*
X135992480Y-51737007D01*
X136043153Y-51787680D01*
X136048932Y-51795660D01*
X136057457Y-51819673D01*
X136069666Y-51842031D01*
X136071520Y-51859283D01*
X136072309Y-51861503D01*
X136071932Y-51863110D01*
X136072500Y-51868389D01*
X136072500Y-54606715D01*
X136052815Y-54673754D01*
X136036181Y-54694396D01*
X135338481Y-55392095D01*
X135338479Y-55392097D01*
X135322608Y-55419588D01*
X135315899Y-55431209D01*
X135259423Y-55529028D01*
X135218499Y-55681756D01*
X135218499Y-55681758D01*
X135218499Y-55849859D01*
X135218500Y-55849872D01*
X135218500Y-58352517D01*
X135218499Y-58352535D01*
X135218499Y-58518241D01*
X135218498Y-58518241D01*
X135238700Y-58593635D01*
X135259423Y-58670972D01*
X135272276Y-58693233D01*
X135338480Y-58807903D01*
X135450284Y-58919707D01*
X135450285Y-58919708D01*
X135593372Y-59062795D01*
X135709181Y-59178603D01*
X135742666Y-59239926D01*
X135745500Y-59266284D01*
X135745500Y-66477084D01*
X135725815Y-66544123D01*
X135673011Y-66589878D01*
X135603853Y-66599822D01*
X135574048Y-66591645D01*
X135435167Y-66534119D01*
X135435158Y-66534116D01*
X135261194Y-66499513D01*
X135261191Y-66499513D01*
X135083809Y-66499513D01*
X135083806Y-66499513D01*
X134909841Y-66534116D01*
X134909832Y-66534119D01*
X134745959Y-66601996D01*
X134745946Y-66602003D01*
X134598465Y-66700548D01*
X134598461Y-66700551D01*
X134473038Y-66825974D01*
X134473035Y-66825978D01*
X134374490Y-66973459D01*
X134374483Y-66973472D01*
X134306606Y-67137345D01*
X134306603Y-67137354D01*
X134272000Y-67311317D01*
X134272000Y-67488708D01*
X134306603Y-67662671D01*
X134306606Y-67662680D01*
X134374483Y-67826553D01*
X134374490Y-67826566D01*
X134473035Y-67974047D01*
X134473038Y-67974051D01*
X134598461Y-68099474D01*
X134598464Y-68099476D01*
X134598465Y-68099477D01*
X134633039Y-68122579D01*
X134669454Y-68146911D01*
X134714258Y-68200524D01*
X134722965Y-68269849D01*
X134692810Y-68332876D01*
X134669454Y-68353115D01*
X134598461Y-68400551D01*
X134473038Y-68525974D01*
X134473035Y-68525978D01*
X134374490Y-68673459D01*
X134374483Y-68673472D01*
X134306606Y-68837345D01*
X134306603Y-68837354D01*
X134272000Y-69011317D01*
X134272000Y-69188708D01*
X134306603Y-69362671D01*
X134306606Y-69362680D01*
X134374483Y-69526553D01*
X134374490Y-69526566D01*
X134473035Y-69674047D01*
X134473038Y-69674051D01*
X134598461Y-69799474D01*
X134598465Y-69799477D01*
X134745946Y-69898022D01*
X134745959Y-69898029D01*
X134828428Y-69932188D01*
X134909834Y-69965907D01*
X134909836Y-69965907D01*
X134909841Y-69965909D01*
X135083804Y-70000512D01*
X135083807Y-70000513D01*
X135083809Y-70000513D01*
X135261193Y-70000513D01*
X135261194Y-70000512D01*
X135319182Y-69988977D01*
X135435158Y-69965909D01*
X135435161Y-69965907D01*
X135435166Y-69965907D01*
X135574048Y-69908381D01*
X135643517Y-69900912D01*
X135705996Y-69932188D01*
X135741648Y-69992277D01*
X135745500Y-70022942D01*
X135745500Y-85108490D01*
X135745499Y-85108508D01*
X135745499Y-85274214D01*
X135745498Y-85274214D01*
X135745499Y-85274217D01*
X135786423Y-85426945D01*
X135798547Y-85447945D01*
X135802495Y-85454782D01*
X135802496Y-85454784D01*
X135865477Y-85563872D01*
X135865481Y-85563877D01*
X135984349Y-85682745D01*
X135984355Y-85682750D01*
X136247384Y-85945779D01*
X136280869Y-86007102D01*
X136275885Y-86076794D01*
X136242975Y-86122860D01*
X136244018Y-86123903D01*
X136128213Y-86239707D01*
X136128210Y-86239711D01*
X136040609Y-86370814D01*
X136040604Y-86370823D01*
X135980809Y-86515184D01*
X135953929Y-86555412D01*
X135705887Y-86803454D01*
X135629222Y-86918192D01*
X135576421Y-87045667D01*
X135576418Y-87045679D01*
X135554968Y-87153518D01*
X135554968Y-87153522D01*
X135549500Y-87181007D01*
X135549500Y-88175500D01*
X135546949Y-88184185D01*
X135548238Y-88193147D01*
X135537259Y-88217187D01*
X135529815Y-88242539D01*
X135522974Y-88248466D01*
X135519213Y-88256703D01*
X135496978Y-88270992D01*
X135477011Y-88288294D01*
X135466496Y-88290581D01*
X135460435Y-88294477D01*
X135425500Y-88299500D01*
X135425316Y-88299500D01*
X135377864Y-88290061D01*
X135233501Y-88230264D01*
X135233489Y-88230261D01*
X135078845Y-88199500D01*
X135078842Y-88199500D01*
X134921158Y-88199500D01*
X134921155Y-88199500D01*
X134766510Y-88230261D01*
X134766498Y-88230264D01*
X134620827Y-88290602D01*
X134620814Y-88290609D01*
X134489711Y-88378210D01*
X134489707Y-88378213D01*
X134378213Y-88489707D01*
X134378210Y-88489711D01*
X134290609Y-88620814D01*
X134290602Y-88620827D01*
X134230264Y-88766498D01*
X134230261Y-88766510D01*
X134199500Y-88921153D01*
X133700500Y-88921153D01*
X133700500Y-48004066D01*
X133700765Y-47995956D01*
X133703114Y-47960118D01*
X133715364Y-47773207D01*
X133717479Y-47757153D01*
X133760232Y-47542215D01*
X133764423Y-47526572D01*
X133808081Y-47397959D01*
X133848270Y-47340807D01*
X133912979Y-47314454D01*
X133981664Y-47327268D01*
X134032517Y-47375183D01*
X134049500Y-47437820D01*
X134049500Y-47594486D01*
X134079059Y-47781118D01*
X134137454Y-47960836D01*
X134217545Y-48118022D01*
X134223240Y-48129199D01*
X134334310Y-48282073D01*
X134467927Y-48415690D01*
X134620801Y-48526760D01*
X134700347Y-48567290D01*
X134789163Y-48612545D01*
X134789165Y-48612545D01*
X134789168Y-48612547D01*
X134885497Y-48643846D01*
X134968881Y-48670940D01*
X135155514Y-48700500D01*
X135155519Y-48700500D01*
X135344486Y-48700500D01*
X135531118Y-48670940D01*
X135710832Y-48612547D01*
X135879199Y-48526760D01*
X136032073Y-48415690D01*
X136165690Y-48282073D01*
X136276760Y-48129199D01*
X136362547Y-47960832D01*
X136420940Y-47781118D01*
X136428706Y-47732083D01*
X136450500Y-47594486D01*
X136450500Y-47405513D01*
X136420940Y-47218881D01*
X136362545Y-47039163D01*
X136276759Y-46870800D01*
X136165690Y-46717927D01*
X136032073Y-46584310D01*
X135879199Y-46473240D01*
X135804118Y-46434984D01*
X135753323Y-46387010D01*
X135736528Y-46319190D01*
X135759065Y-46253055D01*
X135813780Y-46209603D01*
X135860414Y-46200500D01*
X169460118Y-46200500D01*
X169495933Y-46200500D01*
X169504043Y-46200765D01*
G37*
%TD.AperFunction*%
%TD*%
M02*
