%TF.GenerationSoftware,KiCad,Pcbnew,9.0.3*%
%TF.CreationDate,2025-09-07T19:35:51+01:00*%
%TF.ProjectId,cheetoPet,63686565-746f-4506-9574-2e6b69636164,v0.2*%
%TF.SameCoordinates,Original*%
%TF.FileFunction,Paste,Top*%
%TF.FilePolarity,Positive*%
%FSLAX46Y46*%
G04 Gerber Fmt 4.6, Leading zero omitted, Abs format (unit mm)*
G04 Created by KiCad (PCBNEW 9.0.3) date 2025-09-07 19:35:51*
%MOMM*%
%LPD*%
G01*
G04 APERTURE LIST*
G04 Aperture macros list*
%AMRoundRect*
0 Rectangle with rounded corners*
0 $1 Rounding radius*
0 $2 $3 $4 $5 $6 $7 $8 $9 X,Y pos of 4 corners*
0 Add a 4 corners polygon primitive as box body*
4,1,4,$2,$3,$4,$5,$6,$7,$8,$9,$2,$3,0*
0 Add four circle primitives for the rounded corners*
1,1,$1+$1,$2,$3*
1,1,$1+$1,$4,$5*
1,1,$1+$1,$6,$7*
1,1,$1+$1,$8,$9*
0 Add four rect primitives between the rounded corners*
20,1,$1+$1,$2,$3,$4,$5,0*
20,1,$1+$1,$4,$5,$6,$7,0*
20,1,$1+$1,$6,$7,$8,$9,0*
20,1,$1+$1,$8,$9,$2,$3,0*%
G04 Aperture macros list end*
%ADD10R,1.600000X1.500000*%
%ADD11RoundRect,0.050000X-0.225000X-0.050000X0.225000X-0.050000X0.225000X0.050000X-0.225000X0.050000X0*%
%ADD12RoundRect,0.050000X0.050000X-0.225000X0.050000X0.225000X-0.050000X0.225000X-0.050000X-0.225000X0*%
%ADD13RoundRect,0.250000X0.450000X-0.350000X0.450000X0.350000X-0.450000X0.350000X-0.450000X-0.350000X0*%
%ADD14RoundRect,0.250000X0.475000X-0.337500X0.475000X0.337500X-0.475000X0.337500X-0.475000X-0.337500X0*%
%ADD15RoundRect,0.250000X-0.450000X0.350000X-0.450000X-0.350000X0.450000X-0.350000X0.450000X0.350000X0*%
%ADD16RoundRect,0.250000X-0.337500X-0.475000X0.337500X-0.475000X0.337500X0.475000X-0.337500X0.475000X0*%
G04 APERTURE END LIST*
D10*
%TO.C,SW1*%
X146050000Y-125800000D03*
X150550000Y-125800000D03*
%TD*%
D11*
%TO.C,U2*%
X156800000Y-100400000D03*
X156800000Y-100800000D03*
X156800000Y-101200000D03*
X156800000Y-101600000D03*
X156800000Y-102000000D03*
X156800000Y-102400000D03*
D12*
X157300000Y-102900000D03*
X157700000Y-102900000D03*
X158100000Y-102900000D03*
X158500000Y-102900000D03*
X158900000Y-102900000D03*
X159300000Y-102900000D03*
D11*
X159800000Y-102400000D03*
X159800000Y-102000000D03*
X159800000Y-101600000D03*
X159800000Y-101200000D03*
X159800000Y-100800000D03*
X159800000Y-100400000D03*
D12*
X159300000Y-99900000D03*
X158900000Y-99900000D03*
X158500000Y-99900000D03*
X158100000Y-99900000D03*
X157700000Y-99900000D03*
X157300000Y-99900000D03*
%TD*%
D13*
%TO.C,R8*%
X147150000Y-99950000D03*
X147150000Y-97950000D03*
%TD*%
D10*
%TO.C,SW3*%
X166050000Y-125800000D03*
X170550000Y-125800000D03*
%TD*%
D14*
%TO.C,C4*%
X162500000Y-94087500D03*
X162500000Y-92012500D03*
%TD*%
D13*
%TO.C,R13*%
X145850000Y-112200000D03*
X145850000Y-110200000D03*
%TD*%
D10*
%TO.C,SW2*%
X156050000Y-125800000D03*
X160550000Y-125800000D03*
%TD*%
D13*
%TO.C,R9*%
X149950000Y-119100000D03*
X149950000Y-117100000D03*
%TD*%
D14*
%TO.C,C3*%
X160500000Y-98037500D03*
X160500000Y-95962500D03*
%TD*%
D15*
%TO.C,R12*%
X147900000Y-117100000D03*
X147900000Y-119100000D03*
%TD*%
D16*
%TO.C,C2*%
X157212500Y-106050000D03*
X159287500Y-106050000D03*
%TD*%
D13*
%TO.C,R10*%
X145850000Y-119100000D03*
X145850000Y-117100000D03*
%TD*%
M02*
