M48
; DRILL file {KiCad 9.0.3} date 2025-08-16T12:14:10+0100
; FORMAT={-:-/ absolute / metric / decimal}
; #@! TF.CreationDate,2025-08-16T12:14:10+01:00
; #@! TF.GenerationSoftware,Kicad,Pcbnew,9.0.3
; #@! TF.FileFunction,Plated,1,2,PTH
FMAT,2
METRIC
; #@! TA.AperFunction,Plated,PTH,ViaDrill
T1C0.200
; #@! TA.AperFunction,Plated,PTH,ComponentDrill
T2C0.200
; #@! TA.AperFunction,Plated,PTH,ViaDrill
T3C0.300
; #@! TA.AperFunction,Plated,PTH,ComponentDrill
T4C0.600
; #@! TA.AperFunction,Plated,PTH,ComponentDrill
T5C0.750
; #@! TA.AperFunction,Plated,PTH,ComponentDrill
T6C0.800
; #@! TA.AperFunction,Plated,PTH,ComponentDrill
T7C1.000
%
G90
G05
T1
X150.2Y-101.4
T2
X150.09Y-113.25
X150.09Y-114.35
X150.64Y-112.7
X150.64Y-113.8
X150.64Y-114.9
X151.19Y-113.25
X151.19Y-114.35
X151.74Y-112.7
X151.74Y-113.8
X151.74Y-114.9
X152.29Y-113.25
X152.29Y-114.35
X170.1Y-81.0
X170.1Y-82.2
X170.1Y-83.4
X171.5Y-81.0
X171.5Y-82.2
X171.5Y-83.4
T3
X142.8Y-79.2
X143.0Y-105.8
X143.1Y-101.7
X143.4Y-109.1
X143.4Y-110.6
X143.4Y-112.1
X143.4Y-122.4
X144.1Y-79.5
X145.8Y-123.8
X146.4Y-91.45
X147.2Y-88.4
X147.2Y-92.4
X147.801Y-94.398
X148.0Y-95.8
X148.7Y-103.9
X149.0Y-105.4
X149.0Y-124.2
X149.2Y-96.2
X149.2Y-104.6
X149.4Y-80.0
X149.4Y-85.8
X149.8Y-127.999
X150.6Y-78.0
X150.6Y-109.0
X150.9Y-76.5
X151.2Y-82.699
X151.8Y-121.4
X152.0Y-104.0
X152.4Y-97.8
X153.0Y-99.6
X153.65Y-79.35
X153.8Y-96.4
X154.6Y-87.2
X154.6Y-93.6
X154.8Y-105.8
X154.8Y-118.8
X155.2Y-98.0
X155.2Y-108.6
X155.6Y-99.2
X156.0Y-79.0
X156.049Y-95.987
X156.2Y-108.6
X156.4Y-104.0
X156.6Y-106.0
X157.2Y-97.671
X157.8Y-98.2
X157.8Y-124.2
X158.117Y-109.756
X158.2Y-95.2
X158.35Y-85.7
X158.4Y-104.0
X158.6Y-83.2
X159.0Y-98.6
X159.2Y-103.8
X159.2Y-127.6
X159.624Y-108.626
X160.6Y-101.6
X160.6Y-125.0
X160.75Y-122.555
X160.8Y-103.2
X160.9Y-109.1
X160.9Y-112.1
X160.9Y-113.6
X160.9Y-115.1
X160.9Y-116.6
X160.9Y-118.1
X160.9Y-119.6
X161.466Y-103.644
X161.55Y-122.555
X162.2Y-108.6
X162.4Y-87.4
X162.6Y-83.4
X163.0Y-89.0
X163.2Y-114.8
X163.6Y-105.4
X163.65Y-106.765
X163.8Y-83.4
X164.2Y-101.8
X164.4Y-99.8
X164.8Y-112.0
X165.2Y-85.8
X165.223Y-104.377
X165.6Y-114.2
X166.2Y-102.4
X166.2Y-106.0
X166.25Y-84.2
X167.401Y-84.952
X168.2Y-92.0
X168.2Y-127.8
X168.325Y-80.295
X168.33Y-126.53
X168.8Y-102.8
X170.0Y-104.2
X171.6Y-85.2
X172.8Y-88.0
X173.2Y-121.2
X173.275Y-80.295
X173.275Y-81.565
X173.275Y-82.835
X173.275Y-84.105
X173.725Y-117.525
T5
X170.1Y-86.53
X170.1Y-87.8
X170.1Y-89.07
X173.5Y-86.0
X173.5Y-93.62
T6
X143.08Y-90.4
X143.08Y-93.4
X143.08Y-96.4
X143.08Y-99.4
X143.09Y-84.4
X143.09Y-87.4
X150.7Y-90.4
X150.7Y-93.4
X150.7Y-96.4
X150.7Y-99.4
X150.71Y-84.4
X150.71Y-87.4
X152.89Y-84.4
X152.89Y-87.4
X152.89Y-90.4
X152.89Y-93.4
X159.9Y-79.9
X160.51Y-84.4
X160.51Y-87.4
X160.51Y-90.4
X160.51Y-93.4
X162.4Y-79.9
T7
X143.625Y-77.4
X143.625Y-81.0
X146.165Y-77.4
X146.165Y-81.0
X154.36Y-77.4
X156.9Y-77.4
X159.44Y-77.4
X161.98Y-77.4
X165.26Y-77.4
X167.42Y-100.0
X167.8Y-77.4
X169.96Y-100.0
X170.34Y-77.4
X172.5Y-100.0
T4
G00X153.98Y-124.02
M15
G01X153.98Y-122.92
M16
G05
G00X153.98Y-127.95
M15
G01X153.98Y-127.35
M16
G05
G00X162.62Y-124.02
M15
G01X162.62Y-122.92
M16
G05
G00X162.62Y-127.95
M15
G01X162.62Y-127.35
M16
G05
M30
