%TF.GenerationSoftware,KiCad,Pcbnew,9.0.3*%
%TF.CreationDate,2025-08-16T12:14:02+01:00*%
%TF.ProjectId,cheetoPet,63686565-746f-4506-9574-2e6b69636164,rev?*%
%TF.SameCoordinates,Original*%
%TF.FileFunction,Legend,Bot*%
%TF.FilePolarity,Positive*%
%FSLAX46Y46*%
G04 Gerber Fmt 4.6, Leading zero omitted, Abs format (unit mm)*
G04 Created by KiCad (PCBNEW 9.0.3) date 2025-08-16 12:14:02*
%MOMM*%
%LPD*%
G01*
G04 APERTURE LIST*
%ADD10C,0.100000*%
%ADD11C,0.150000*%
%ADD12C,0.120000*%
G04 APERTURE END LIST*
D10*
G36*
X152413049Y-127059922D02*
G01*
X152435734Y-127155324D01*
X152459029Y-127219734D01*
X152467124Y-127229271D01*
X152556195Y-127191814D01*
X152602501Y-127177805D01*
X152654058Y-127172997D01*
X152730785Y-127183054D01*
X152797132Y-127212405D01*
X152855764Y-127262156D01*
X152900668Y-127325346D01*
X152927310Y-127394825D01*
X152936393Y-127472742D01*
X152927322Y-127549263D01*
X152900703Y-127617421D01*
X152855764Y-127679371D01*
X152795918Y-127729883D01*
X152729511Y-127759447D01*
X152654058Y-127769497D01*
X152589209Y-127761899D01*
X152524189Y-127738546D01*
X152469457Y-127710109D01*
X152468092Y-127707596D01*
X152458232Y-127718921D01*
X152439603Y-127790072D01*
X152424831Y-127893211D01*
X152432132Y-127908513D01*
X152462970Y-127927988D01*
X152539928Y-127953177D01*
X152630536Y-127972703D01*
X152682547Y-127977709D01*
X152780651Y-127968097D01*
X152869108Y-127939999D01*
X152950055Y-127893284D01*
X153024936Y-127826210D01*
X153085034Y-127748430D01*
X153127332Y-127664785D01*
X153152912Y-127573935D01*
X153161663Y-127474061D01*
X153152982Y-127371906D01*
X153127750Y-127280032D01*
X153086310Y-127196505D01*
X153027838Y-127119889D01*
X152954087Y-127054014D01*
X152873429Y-127007893D01*
X152784338Y-126979999D01*
X152684569Y-126970412D01*
X152594710Y-126978213D01*
X152511246Y-127001205D01*
X152432745Y-127039523D01*
X152416728Y-127051839D01*
X152413049Y-127059922D01*
G37*
G36*
X151431955Y-127920820D02*
G01*
X151438113Y-127949646D01*
X151452618Y-127957134D01*
X151545117Y-127956167D01*
X151637617Y-127955200D01*
X151655441Y-127947814D01*
X151662149Y-127922754D01*
X151658720Y-127780136D01*
X151655290Y-127636551D01*
X151658720Y-127499472D01*
X151662149Y-127361250D01*
X151669843Y-127293464D01*
X151690319Y-127245778D01*
X151722048Y-127212789D01*
X151766838Y-127191969D01*
X151829387Y-127184252D01*
X151885805Y-127195544D01*
X151971038Y-127238327D01*
X152029474Y-127281855D01*
X152056887Y-127316229D01*
X152064505Y-127344544D01*
X152064505Y-127928645D01*
X152070228Y-127950741D01*
X152085168Y-127957134D01*
X152176700Y-127956167D01*
X152268145Y-127955200D01*
X152284790Y-127948908D01*
X152290742Y-127928645D01*
X152290742Y-127453310D01*
X152303491Y-126959333D01*
X152320286Y-126612899D01*
X152322220Y-126597160D01*
X152319013Y-126583199D01*
X152310438Y-126576497D01*
X152284532Y-126572381D01*
X152199297Y-126570079D01*
X152137309Y-126562077D01*
X152077254Y-126553988D01*
X152068111Y-126558112D01*
X152064505Y-126572805D01*
X152071891Y-126852941D01*
X152079277Y-127132990D01*
X152076611Y-127152152D01*
X152071363Y-127156818D01*
X151941494Y-127053504D01*
X151875194Y-127019504D01*
X151807708Y-126999558D01*
X151737942Y-126992922D01*
X151645805Y-127001070D01*
X151575657Y-127023164D01*
X151522555Y-127057127D01*
X151483129Y-127103007D01*
X151457652Y-127159470D01*
X151439816Y-127241853D01*
X151432922Y-127358524D01*
X151434417Y-127452430D01*
X151435912Y-127546337D01*
X151433977Y-127734062D01*
X151431955Y-127920820D01*
G37*
G36*
X150935088Y-126980227D02*
G01*
X151021593Y-127008990D01*
X151101013Y-127057042D01*
X151174767Y-127126484D01*
X151231802Y-127205229D01*
X151272019Y-127289338D01*
X151296334Y-127380046D01*
X151304636Y-127478985D01*
X151295427Y-127590950D01*
X151269221Y-127686953D01*
X151227134Y-127769853D01*
X151168876Y-127841773D01*
X151097083Y-127900043D01*
X151014071Y-127942188D01*
X150917666Y-127968464D01*
X150804944Y-127977709D01*
X150694376Y-127967719D01*
X150597311Y-127938917D01*
X150511151Y-127891863D01*
X150434066Y-127825507D01*
X150418327Y-127803085D01*
X150452795Y-127732303D01*
X150489637Y-127664511D01*
X150500012Y-127662577D01*
X150531402Y-127687724D01*
X150621921Y-127743052D01*
X150716340Y-127775508D01*
X150816727Y-127786379D01*
X150875162Y-127779982D01*
X150931163Y-127760729D01*
X150985899Y-127727643D01*
X151034497Y-127682050D01*
X151065525Y-127632652D01*
X151081300Y-127578167D01*
X150571236Y-127536282D01*
X150472403Y-127521893D01*
X150437394Y-127500182D01*
X150416836Y-127468928D01*
X150409447Y-127424909D01*
X150414607Y-127364327D01*
X150643598Y-127364327D01*
X150651859Y-127372035D01*
X150700662Y-127382352D01*
X150896577Y-127403174D01*
X151048855Y-127409346D01*
X151077009Y-127403380D01*
X151084290Y-127389387D01*
X151076732Y-127334037D01*
X151053903Y-127282099D01*
X151013948Y-127231996D01*
X150963687Y-127192285D01*
X150910627Y-127169386D01*
X150853129Y-127161742D01*
X150801756Y-127168414D01*
X150753858Y-127188449D01*
X150708048Y-127223204D01*
X150671519Y-127267346D01*
X150650572Y-127313885D01*
X150643598Y-127364327D01*
X150414607Y-127364327D01*
X150417292Y-127332805D01*
X150440099Y-127249968D01*
X150477561Y-127174651D01*
X150530435Y-127105557D01*
X150596875Y-127045964D01*
X150669481Y-127004271D01*
X150749624Y-126979070D01*
X150839324Y-126970412D01*
X150935088Y-126980227D01*
G37*
G36*
X149964370Y-126980227D02*
G01*
X150050875Y-127008990D01*
X150130294Y-127057042D01*
X150204048Y-127126484D01*
X150261083Y-127205229D01*
X150301301Y-127289338D01*
X150325616Y-127380046D01*
X150333917Y-127478985D01*
X150324708Y-127590950D01*
X150298502Y-127686953D01*
X150256415Y-127769853D01*
X150198157Y-127841773D01*
X150126364Y-127900043D01*
X150043352Y-127942188D01*
X149946947Y-127968464D01*
X149834226Y-127977709D01*
X149723657Y-127967719D01*
X149626592Y-127938917D01*
X149540433Y-127891863D01*
X149463348Y-127825507D01*
X149447609Y-127803085D01*
X149482076Y-127732303D01*
X149518918Y-127664511D01*
X149529293Y-127662577D01*
X149560683Y-127687724D01*
X149651203Y-127743052D01*
X149745621Y-127775508D01*
X149846008Y-127786379D01*
X149904444Y-127779982D01*
X149960444Y-127760729D01*
X150015180Y-127727643D01*
X150063778Y-127682050D01*
X150094806Y-127632652D01*
X150110581Y-127578167D01*
X149600517Y-127536282D01*
X149501684Y-127521893D01*
X149466675Y-127500182D01*
X149446117Y-127468928D01*
X149438728Y-127424909D01*
X149443889Y-127364327D01*
X149672879Y-127364327D01*
X149681140Y-127372035D01*
X149729944Y-127382352D01*
X149925858Y-127403174D01*
X150078136Y-127409346D01*
X150106290Y-127403380D01*
X150113571Y-127389387D01*
X150106013Y-127334037D01*
X150083185Y-127282099D01*
X150043229Y-127231996D01*
X149992969Y-127192285D01*
X149939908Y-127169386D01*
X149882410Y-127161742D01*
X149831037Y-127168414D01*
X149783139Y-127188449D01*
X149737330Y-127223204D01*
X149700800Y-127267346D01*
X149679853Y-127313885D01*
X149672879Y-127364327D01*
X149443889Y-127364327D01*
X149446574Y-127332805D01*
X149469380Y-127249968D01*
X149506842Y-127174651D01*
X149559716Y-127105557D01*
X149626156Y-127045964D01*
X149698762Y-127004271D01*
X149778905Y-126979070D01*
X149868605Y-126970412D01*
X149964370Y-126980227D01*
G37*
G36*
X148753246Y-127770904D02*
G01*
X148757203Y-127831661D01*
X148763094Y-127893474D01*
X148765995Y-127915808D01*
X148784724Y-127929173D01*
X148840333Y-127947911D01*
X148922236Y-127961264D01*
X149038570Y-127966454D01*
X149114709Y-127959528D01*
X149171310Y-127940915D01*
X149213002Y-127912488D01*
X149242831Y-127874091D01*
X149261817Y-127823580D01*
X149268764Y-127757187D01*
X149264808Y-127505011D01*
X149260851Y-127252835D01*
X149265556Y-127229582D01*
X149278351Y-127215810D01*
X149301210Y-127209399D01*
X149372958Y-127208432D01*
X149386375Y-127192731D01*
X149393621Y-127128330D01*
X149389665Y-127068803D01*
X149380820Y-127050469D01*
X149358187Y-127040490D01*
X149310002Y-127039523D01*
X149283664Y-127033623D01*
X149269720Y-127020692D01*
X149264808Y-126999516D01*
X149267270Y-126880463D01*
X149269732Y-126760354D01*
X149265152Y-126714044D01*
X149255264Y-126694436D01*
X149242210Y-126689045D01*
X149057211Y-126717181D01*
X149039914Y-126724427D01*
X149034614Y-126738812D01*
X149041032Y-126868504D01*
X149047363Y-126998197D01*
X149040570Y-127019727D01*
X149020809Y-127026686D01*
X148784812Y-127026686D01*
X148771743Y-127029983D01*
X148768018Y-127038468D01*
X148771535Y-127076189D01*
X148774964Y-127114877D01*
X148773997Y-127159984D01*
X148772942Y-127205003D01*
X148778985Y-127218365D01*
X148800551Y-127223643D01*
X148919517Y-127218016D01*
X149038570Y-127212389D01*
X149043737Y-127219775D01*
X149050353Y-127268574D01*
X149055277Y-127464564D01*
X149055277Y-127611315D01*
X149050440Y-127689510D01*
X149039538Y-127729490D01*
X149019198Y-127757110D01*
X148988109Y-127774313D01*
X148942114Y-127780751D01*
X148852604Y-127766683D01*
X148765028Y-127752615D01*
X148756630Y-127756554D01*
X148753246Y-127770904D01*
G37*
G36*
X148297015Y-126991094D02*
G01*
X148385697Y-127018570D01*
X148466353Y-127064050D01*
X148540461Y-127129033D01*
X148599505Y-127205143D01*
X148641221Y-127287777D01*
X148666555Y-127378336D01*
X148675254Y-127478721D01*
X148666555Y-127579106D01*
X148641221Y-127669664D01*
X148599505Y-127752298D01*
X148540461Y-127828408D01*
X148466712Y-127894248D01*
X148386203Y-127940312D01*
X148297425Y-127968149D01*
X148198160Y-127977709D01*
X148099463Y-127968116D01*
X148011025Y-127940150D01*
X147930644Y-127893802D01*
X147856826Y-127827441D01*
X147797749Y-127750816D01*
X147756032Y-127667820D01*
X147730718Y-127577072D01*
X147722208Y-127478721D01*
X147929630Y-127478721D01*
X147938008Y-127554786D01*
X147962477Y-127622376D01*
X148003401Y-127683504D01*
X148060294Y-127734878D01*
X148124333Y-127764893D01*
X148198160Y-127775124D01*
X148271388Y-127764943D01*
X148335457Y-127734969D01*
X148392919Y-127683504D01*
X148434413Y-127622310D01*
X148459184Y-127554726D01*
X148467658Y-127478721D01*
X148459212Y-127401338D01*
X148434682Y-127333445D01*
X148393886Y-127272883D01*
X148337190Y-127223382D01*
X148272837Y-127194238D01*
X148198160Y-127184252D01*
X148123588Y-127194348D01*
X148059578Y-127223796D01*
X148003401Y-127273850D01*
X147962639Y-127333811D01*
X147938095Y-127401363D01*
X147929630Y-127478721D01*
X147722208Y-127478721D01*
X147722033Y-127476698D01*
X147730782Y-127376916D01*
X147756268Y-127286902D01*
X147798270Y-127204741D01*
X147857793Y-127129033D01*
X147931443Y-127064029D01*
X148011624Y-127018555D01*
X148099812Y-126991091D01*
X148198160Y-126981667D01*
X148297015Y-126991094D01*
G37*
G36*
X147099507Y-126580190D02*
G01*
X147238168Y-126584059D01*
X147398988Y-126583092D01*
X147558840Y-126582125D01*
X147578941Y-126587907D01*
X147584427Y-126603755D01*
X147583459Y-126618527D01*
X147566308Y-126965026D01*
X147560862Y-127277015D01*
X147570182Y-127601380D01*
X147579503Y-127924689D01*
X147572907Y-127948099D01*
X147554883Y-127955200D01*
X147503797Y-127952210D01*
X147451656Y-127949220D01*
X147389228Y-127953705D01*
X147326711Y-127958189D01*
X147312507Y-127953824D01*
X147307983Y-127941307D01*
X147314401Y-127784005D01*
X147320820Y-127626703D01*
X147316727Y-127602741D01*
X147306448Y-127590431D01*
X147289342Y-127586168D01*
X147118675Y-127590652D01*
X146948975Y-127595049D01*
X146836489Y-127585344D01*
X146741517Y-127557864D01*
X146660774Y-127513852D01*
X146591902Y-127452870D01*
X146538765Y-127380601D01*
X146499936Y-127296643D01*
X146475560Y-127198787D01*
X146468132Y-127099842D01*
X146714824Y-127099842D01*
X146723566Y-127189065D01*
X146747927Y-127260769D01*
X146786661Y-127318693D01*
X146842909Y-127364953D01*
X146913009Y-127393520D01*
X147001116Y-127403719D01*
X147224014Y-127400009D01*
X147301124Y-127392992D01*
X147318743Y-127386130D01*
X147322755Y-127379275D01*
X147325217Y-127256176D01*
X147327678Y-127133078D01*
X147324631Y-126839498D01*
X147320820Y-126796932D01*
X147303112Y-126791589D01*
X147184093Y-126781280D01*
X147022746Y-126773455D01*
X146951076Y-126779705D01*
X146890428Y-126797426D01*
X146838725Y-126825860D01*
X146794487Y-126865339D01*
X146751345Y-126928241D01*
X146724426Y-127005138D01*
X146714824Y-127099842D01*
X146468132Y-127099842D01*
X146466957Y-127084190D01*
X146475948Y-126977807D01*
X146501909Y-126883587D01*
X146544259Y-126799311D01*
X146603684Y-126723336D01*
X146678160Y-126659142D01*
X146761214Y-126613671D01*
X146854589Y-126585869D01*
X146960757Y-126576234D01*
X147099507Y-126580190D01*
G37*
G36*
X146018187Y-126980227D02*
G01*
X146104692Y-127008990D01*
X146184112Y-127057042D01*
X146257866Y-127126484D01*
X146314900Y-127205229D01*
X146355118Y-127289338D01*
X146379433Y-127380046D01*
X146387734Y-127478985D01*
X146378525Y-127590950D01*
X146352319Y-127686953D01*
X146310232Y-127769853D01*
X146251974Y-127841773D01*
X146180182Y-127900043D01*
X146097169Y-127942188D01*
X146000764Y-127968464D01*
X145888043Y-127977709D01*
X145777475Y-127967719D01*
X145680409Y-127938917D01*
X145594250Y-127891863D01*
X145517165Y-127825507D01*
X145501426Y-127803085D01*
X145535893Y-127732303D01*
X145572735Y-127664511D01*
X145583110Y-127662577D01*
X145614501Y-127687724D01*
X145705020Y-127743052D01*
X145799438Y-127775508D01*
X145899825Y-127786379D01*
X145958261Y-127779982D01*
X146014262Y-127760729D01*
X146068997Y-127727643D01*
X146117595Y-127682050D01*
X146148623Y-127632652D01*
X146164399Y-127578167D01*
X145654334Y-127536282D01*
X145555501Y-127521893D01*
X145520492Y-127500182D01*
X145499934Y-127468928D01*
X145492545Y-127424909D01*
X145497706Y-127364327D01*
X145726696Y-127364327D01*
X145734957Y-127372035D01*
X145783761Y-127382352D01*
X145979676Y-127403174D01*
X146131953Y-127409346D01*
X146160107Y-127403380D01*
X146167388Y-127389387D01*
X146159830Y-127334037D01*
X146137002Y-127282099D01*
X146097046Y-127231996D01*
X146046786Y-127192285D01*
X145993725Y-127169386D01*
X145936227Y-127161742D01*
X145884854Y-127168414D01*
X145836957Y-127188449D01*
X145791147Y-127223204D01*
X145754617Y-127267346D01*
X145733670Y-127313885D01*
X145726696Y-127364327D01*
X145497706Y-127364327D01*
X145500391Y-127332805D01*
X145523197Y-127249968D01*
X145560660Y-127174651D01*
X145613533Y-127105557D01*
X145679973Y-127045964D01*
X145752579Y-127004271D01*
X145832722Y-126979070D01*
X145922422Y-126970412D01*
X146018187Y-126980227D01*
G37*
G36*
X144807063Y-127770904D02*
G01*
X144811020Y-127831661D01*
X144816911Y-127893474D01*
X144819812Y-127915808D01*
X144838541Y-127929173D01*
X144894150Y-127947911D01*
X144976053Y-127961264D01*
X145092387Y-127966454D01*
X145168526Y-127959528D01*
X145225127Y-127940915D01*
X145266819Y-127912488D01*
X145296648Y-127874091D01*
X145315634Y-127823580D01*
X145322581Y-127757187D01*
X145318625Y-127505011D01*
X145314668Y-127252835D01*
X145319373Y-127229582D01*
X145332168Y-127215810D01*
X145355027Y-127209399D01*
X145426775Y-127208432D01*
X145440193Y-127192731D01*
X145447438Y-127128330D01*
X145443482Y-127068803D01*
X145434638Y-127050469D01*
X145412004Y-127040490D01*
X145363819Y-127039523D01*
X145337481Y-127033623D01*
X145323537Y-127020692D01*
X145318625Y-126999516D01*
X145321087Y-126880463D01*
X145323549Y-126760354D01*
X145318970Y-126714044D01*
X145309082Y-126694436D01*
X145296027Y-126689045D01*
X145111028Y-126717181D01*
X145093731Y-126724427D01*
X145088431Y-126738812D01*
X145094849Y-126868504D01*
X145101180Y-126998197D01*
X145094388Y-127019727D01*
X145074626Y-127026686D01*
X144838629Y-127026686D01*
X144825560Y-127029983D01*
X144821835Y-127038468D01*
X144825352Y-127076189D01*
X144828781Y-127114877D01*
X144827814Y-127159984D01*
X144826759Y-127205003D01*
X144832803Y-127218365D01*
X144854368Y-127223643D01*
X144973334Y-127218016D01*
X145092387Y-127212389D01*
X145097554Y-127219775D01*
X145104170Y-127268574D01*
X145109094Y-127464564D01*
X145109094Y-127611315D01*
X145104257Y-127689510D01*
X145093355Y-127729490D01*
X145073015Y-127757110D01*
X145041926Y-127774313D01*
X144995931Y-127780751D01*
X144906421Y-127766683D01*
X144818845Y-127752615D01*
X144810447Y-127756554D01*
X144807063Y-127770904D01*
G37*
G36*
X173239942Y-95902990D02*
G01*
X173352599Y-95908852D01*
X173364341Y-95914192D01*
X173368994Y-95933306D01*
X173365971Y-96036438D01*
X173362857Y-96138470D01*
X173362857Y-96469023D01*
X173371009Y-96483311D01*
X173458112Y-96406557D01*
X173525647Y-96364684D01*
X173600108Y-96339526D01*
X173683517Y-96330903D01*
X173787568Y-96341029D01*
X173878516Y-96370247D01*
X173959042Y-96418211D01*
X174030922Y-96486425D01*
X174085878Y-96563884D01*
X174125305Y-96649645D01*
X174149557Y-96745270D01*
X174157959Y-96852789D01*
X174149734Y-96955948D01*
X174125852Y-97048887D01*
X174086764Y-97133412D01*
X174031930Y-97210910D01*
X173959871Y-97280500D01*
X173880378Y-97329027D01*
X173791837Y-97358350D01*
X173691761Y-97368447D01*
X173604278Y-97359260D01*
X173522405Y-97331920D01*
X173444376Y-97285523D01*
X173368994Y-97217596D01*
X173353606Y-97204316D01*
X173350436Y-97213178D01*
X173345913Y-97278138D01*
X173338234Y-97340338D01*
X173329060Y-97350861D01*
X173283997Y-97347747D01*
X173238843Y-97344725D01*
X173198909Y-97347747D01*
X173143588Y-97347747D01*
X173120234Y-97341783D01*
X173115928Y-97334467D01*
X173116935Y-97321186D01*
X173129260Y-97088496D01*
X173132487Y-96847294D01*
X173366979Y-96847294D01*
X173375446Y-96929066D01*
X173400017Y-97001078D01*
X173440710Y-97065464D01*
X173499558Y-97120338D01*
X173566225Y-97152357D01*
X173643584Y-97163283D01*
X173720477Y-97152552D01*
X173787883Y-97120927D01*
X173848473Y-97066563D01*
X173893571Y-97001688D01*
X173920327Y-96930676D01*
X173929439Y-96851415D01*
X173920504Y-96767743D01*
X173894583Y-96694381D01*
X173851587Y-96629032D01*
X173807106Y-96585207D01*
X173758344Y-96554791D01*
X173704340Y-96536489D01*
X173643584Y-96530205D01*
X173568321Y-96541195D01*
X173502300Y-96573708D01*
X173442816Y-96630040D01*
X173400681Y-96695829D01*
X173375547Y-96767604D01*
X173366979Y-96847294D01*
X173132487Y-96847294D01*
X173134337Y-96708991D01*
X173122614Y-96314325D01*
X173110799Y-95918652D01*
X173115458Y-95902140D01*
X173128201Y-95897128D01*
X173239942Y-95902990D01*
G37*
G36*
X172608617Y-96329403D02*
G01*
X172698726Y-96359365D01*
X172781455Y-96409418D01*
X172858282Y-96481754D01*
X172917693Y-96563781D01*
X172959586Y-96651394D01*
X172984915Y-96745881D01*
X172993562Y-96848942D01*
X172983969Y-96965573D01*
X172956671Y-97065576D01*
X172912830Y-97151931D01*
X172852145Y-97226847D01*
X172777361Y-97287545D01*
X172690890Y-97331446D01*
X172590468Y-97358817D01*
X172473050Y-97368447D01*
X172357875Y-97358040D01*
X172256765Y-97328039D01*
X172167016Y-97279024D01*
X172086719Y-97209903D01*
X172070324Y-97186547D01*
X172106228Y-97112816D01*
X172144604Y-97042199D01*
X172155412Y-97040184D01*
X172188110Y-97066379D01*
X172282401Y-97124013D01*
X172380754Y-97157821D01*
X172485323Y-97169145D01*
X172546194Y-97162481D01*
X172604528Y-97142426D01*
X172661544Y-97107962D01*
X172712167Y-97060469D01*
X172744488Y-97009012D01*
X172760921Y-96952257D01*
X172229604Y-96908627D01*
X172126653Y-96893639D01*
X172090185Y-96871023D01*
X172068770Y-96838467D01*
X172061073Y-96792614D01*
X172066449Y-96729508D01*
X172304980Y-96729508D01*
X172313586Y-96737537D01*
X172364423Y-96748284D01*
X172568501Y-96769973D01*
X172727124Y-96776402D01*
X172756451Y-96770188D01*
X172764035Y-96755611D01*
X172756162Y-96697955D01*
X172732382Y-96643853D01*
X172690762Y-96591663D01*
X172638407Y-96550297D01*
X172583136Y-96526444D01*
X172523242Y-96518482D01*
X172469728Y-96525431D01*
X172419835Y-96546301D01*
X172372117Y-96582504D01*
X172334065Y-96628485D01*
X172312245Y-96676964D01*
X172304980Y-96729508D01*
X172066449Y-96729508D01*
X172069246Y-96696672D01*
X172093002Y-96610383D01*
X172132026Y-96531928D01*
X172187103Y-96459955D01*
X172256311Y-96397879D01*
X172331942Y-96354449D01*
X172415424Y-96328198D01*
X172508862Y-96319180D01*
X172608617Y-96329403D01*
G37*
G36*
X171438254Y-97027453D02*
G01*
X171446081Y-97101035D01*
X171468728Y-97165177D01*
X171506202Y-97221960D01*
X171560162Y-97272643D01*
X171637766Y-97318660D01*
X171726677Y-97346883D01*
X171829714Y-97356723D01*
X171899415Y-97353701D01*
X171911456Y-97339863D01*
X171916817Y-97304150D01*
X171922496Y-97237380D01*
X171928083Y-97171618D01*
X171923966Y-97161192D01*
X171909673Y-97154398D01*
X171871755Y-97154398D01*
X171840980Y-97157421D01*
X171760760Y-97150718D01*
X171707584Y-97133624D01*
X171673735Y-97109020D01*
X171654134Y-97077163D01*
X171647265Y-97035605D01*
X171655085Y-97002247D01*
X171680928Y-96968290D01*
X171732353Y-96932015D01*
X171891172Y-96838684D01*
X171938366Y-96785243D01*
X171966499Y-96722632D01*
X171976260Y-96647900D01*
X171968634Y-96573375D01*
X171946820Y-96509924D01*
X171911192Y-96455226D01*
X171860489Y-96407840D01*
X171787196Y-96366182D01*
X171700153Y-96340133D01*
X171596065Y-96330903D01*
X171583677Y-96334195D01*
X171575091Y-96344184D01*
X171549446Y-96426616D01*
X171530486Y-96510055D01*
X171534554Y-96518625D01*
X171549995Y-96524344D01*
X171682161Y-96542021D01*
X171728087Y-96562965D01*
X171752715Y-96591485D01*
X171761021Y-96629398D01*
X171753963Y-96656409D01*
X171729357Y-96686814D01*
X171678039Y-96722730D01*
X171567216Y-96788734D01*
X171522243Y-96822289D01*
X171475847Y-96880174D01*
X171447951Y-96947590D01*
X171438254Y-97027453D01*
G37*
G36*
X171024171Y-96117954D02*
G01*
X171033269Y-96173502D01*
X171057949Y-96210518D01*
X171099329Y-96233971D01*
X171164580Y-96242976D01*
X171230943Y-96233915D01*
X171272904Y-96210369D01*
X171297837Y-96173344D01*
X171307004Y-96117954D01*
X171302081Y-96082750D01*
X171287652Y-96052344D01*
X171262949Y-96025447D01*
X171218257Y-95999697D01*
X171164580Y-95990917D01*
X171110830Y-95999935D01*
X171065662Y-96026546D01*
X171034605Y-96067032D01*
X171024171Y-96117954D01*
G37*
G36*
X171031315Y-96397307D02*
G01*
X171041115Y-96636085D01*
X171050824Y-96875778D01*
X171047801Y-97100085D01*
X171044687Y-97323476D01*
X171049529Y-97339891D01*
X171063097Y-97345000D01*
X171262857Y-97345000D01*
X171277836Y-97336623D01*
X171284473Y-97302868D01*
X171280901Y-97089918D01*
X171277237Y-96875778D01*
X171289052Y-96635535D01*
X171300867Y-96395292D01*
X171295846Y-96382474D01*
X171279344Y-96377798D01*
X171222465Y-96382927D01*
X171164580Y-96388056D01*
X171106694Y-96382927D01*
X171048717Y-96377798D01*
X171035830Y-96382494D01*
X171031315Y-96397307D01*
G37*
G36*
X170168495Y-96333867D02*
G01*
X170173198Y-96385858D01*
X170171183Y-96428906D01*
X170169077Y-96470946D01*
X170171698Y-96485706D01*
X170177320Y-96489173D01*
X170200859Y-96467557D01*
X170255363Y-96409950D01*
X170317144Y-96369715D01*
X170387668Y-96345258D01*
X170469312Y-96336765D01*
X170562013Y-96346117D01*
X170643367Y-96373187D01*
X170715783Y-96417847D01*
X170780813Y-96481754D01*
X170829697Y-96552477D01*
X170864692Y-96630073D01*
X170886152Y-96715847D01*
X170893562Y-96811482D01*
X170885900Y-96905316D01*
X170863727Y-96989064D01*
X170827525Y-97064526D01*
X170776783Y-97133058D01*
X170711301Y-97192632D01*
X170638660Y-97234523D01*
X170557360Y-97259995D01*
X170465191Y-97268796D01*
X170380917Y-97259891D01*
X170305953Y-97233922D01*
X170238164Y-97190657D01*
X170176221Y-97128112D01*
X170172191Y-97225473D01*
X170181065Y-97286979D01*
X170206361Y-97335988D01*
X170248944Y-97375591D01*
X170295424Y-97400212D01*
X170350769Y-97415701D01*
X170417014Y-97421203D01*
X170518258Y-97412297D01*
X170620625Y-97385099D01*
X170725492Y-97338130D01*
X170738865Y-97333276D01*
X170747577Y-97337018D01*
X170753153Y-97350495D01*
X170783927Y-97500338D01*
X170779734Y-97509589D01*
X170761396Y-97523968D01*
X170689011Y-97559152D01*
X170603701Y-97585706D01*
X170503299Y-97602720D01*
X170385323Y-97608782D01*
X170264013Y-97599725D01*
X170168361Y-97574951D01*
X170093261Y-97536903D01*
X170034804Y-97486325D01*
X169992230Y-97426482D01*
X169959613Y-97349635D01*
X169938163Y-97251825D01*
X169930299Y-97128203D01*
X169928567Y-96812123D01*
X170172191Y-96812123D01*
X170179607Y-96884285D01*
X170201130Y-96947901D01*
X170236762Y-97004830D01*
X170288251Y-97054310D01*
X170346795Y-97083114D01*
X170414999Y-97092941D01*
X170483824Y-97083060D01*
X170542332Y-97054214D01*
X170593235Y-97004830D01*
X170628280Y-96947968D01*
X170649485Y-96884346D01*
X170656799Y-96812123D01*
X170649529Y-96738388D01*
X170628610Y-96674456D01*
X170594334Y-96618316D01*
X170543350Y-96568992D01*
X170484494Y-96540116D01*
X170414999Y-96530205D01*
X170344763Y-96540056D01*
X170285590Y-96568663D01*
X170234656Y-96617308D01*
X170200422Y-96673466D01*
X170179482Y-96737714D01*
X170172191Y-96812123D01*
X169928567Y-96812123D01*
X169928284Y-96760465D01*
X169926269Y-96392636D01*
X169930228Y-96374631D01*
X169940648Y-96366074D01*
X170050283Y-96343543D01*
X170160925Y-96325041D01*
X170168495Y-96333867D01*
G37*
G36*
X168834503Y-97324483D02*
G01*
X168839775Y-97341562D01*
X168854928Y-97347015D01*
X168955861Y-97346007D01*
X169056886Y-97345000D01*
X169069948Y-97338692D01*
X169075296Y-97315324D01*
X169072274Y-97162733D01*
X169069159Y-97009043D01*
X169070167Y-96886586D01*
X169071174Y-96764221D01*
X169075947Y-96686232D01*
X169088073Y-96633503D01*
X169105063Y-96599265D01*
X169137008Y-96569313D01*
X169185386Y-96549513D01*
X169256646Y-96541929D01*
X169310931Y-96553616D01*
X169399071Y-96599540D01*
X169459708Y-96644901D01*
X169487764Y-96679625D01*
X169495424Y-96707251D01*
X169495424Y-97321461D01*
X169500743Y-97341179D01*
X169514933Y-97347015D01*
X169613210Y-97346007D01*
X169711579Y-97345000D01*
X169727556Y-97339272D01*
X169733103Y-97321369D01*
X169730539Y-97078195D01*
X169727974Y-96834013D01*
X169733339Y-96688744D01*
X169748915Y-96554619D01*
X169774044Y-96430646D01*
X169777158Y-96417365D01*
X169774130Y-96408967D01*
X169763878Y-96402985D01*
X169646550Y-96384026D01*
X169531236Y-96366074D01*
X169526783Y-96369055D01*
X169523085Y-96382744D01*
X169514709Y-96447000D01*
X169499546Y-96512620D01*
X169359137Y-96408206D01*
X169285295Y-96370580D01*
X169216418Y-96349403D01*
X169151133Y-96342627D01*
X169054841Y-96350973D01*
X168982137Y-96373502D01*
X168927661Y-96407936D01*
X168887718Y-96454185D01*
X168861329Y-96511759D01*
X168842737Y-96597083D01*
X168835511Y-96719433D01*
X168837068Y-96816702D01*
X168838533Y-96914979D01*
X168836518Y-97119777D01*
X168834503Y-97324483D01*
G37*
G36*
X168319224Y-96329403D02*
G01*
X168409333Y-96359365D01*
X168492062Y-96409418D01*
X168568889Y-96481754D01*
X168628300Y-96563781D01*
X168670194Y-96651394D01*
X168695522Y-96745881D01*
X168704169Y-96848942D01*
X168694576Y-96965573D01*
X168667279Y-97065576D01*
X168623438Y-97151931D01*
X168562752Y-97226847D01*
X168487968Y-97287545D01*
X168401497Y-97331446D01*
X168301075Y-97358817D01*
X168183657Y-97368447D01*
X168068482Y-97358040D01*
X167967372Y-97328039D01*
X167877623Y-97279024D01*
X167797326Y-97209903D01*
X167780931Y-97186547D01*
X167816835Y-97112816D01*
X167855211Y-97042199D01*
X167866019Y-97040184D01*
X167898717Y-97066379D01*
X167993008Y-97124013D01*
X168091361Y-97157821D01*
X168195930Y-97169145D01*
X168256801Y-97162481D01*
X168315135Y-97142426D01*
X168372151Y-97107962D01*
X168422774Y-97060469D01*
X168455095Y-97009012D01*
X168471528Y-96952257D01*
X167940211Y-96908627D01*
X167837260Y-96893639D01*
X167800792Y-96871023D01*
X167779378Y-96838467D01*
X167771680Y-96792614D01*
X167777056Y-96729508D01*
X168015587Y-96729508D01*
X168024193Y-96737537D01*
X168075030Y-96748284D01*
X168279108Y-96769973D01*
X168437731Y-96776402D01*
X168467058Y-96770188D01*
X168474642Y-96755611D01*
X168466769Y-96697955D01*
X168442989Y-96643853D01*
X168401369Y-96591663D01*
X168349014Y-96550297D01*
X168293743Y-96526444D01*
X168233849Y-96518482D01*
X168180335Y-96525431D01*
X168130442Y-96546301D01*
X168082724Y-96582504D01*
X168044672Y-96628485D01*
X168022853Y-96676964D01*
X168015587Y-96729508D01*
X167777056Y-96729508D01*
X167779853Y-96696672D01*
X167803610Y-96610383D01*
X167842633Y-96531928D01*
X167897710Y-96459955D01*
X167966918Y-96397879D01*
X168042549Y-96354449D01*
X168126031Y-96328198D01*
X168219469Y-96319180D01*
X168319224Y-96329403D01*
G37*
G36*
X166772880Y-95902990D02*
G01*
X166885537Y-95908852D01*
X166897279Y-95914192D01*
X166901932Y-95933306D01*
X166898909Y-96036438D01*
X166895795Y-96138470D01*
X166895795Y-96469023D01*
X166903947Y-96483311D01*
X166991050Y-96406557D01*
X167058585Y-96364684D01*
X167133046Y-96339526D01*
X167216455Y-96330903D01*
X167320505Y-96341029D01*
X167411454Y-96370247D01*
X167491980Y-96418211D01*
X167563860Y-96486425D01*
X167618816Y-96563884D01*
X167658243Y-96649645D01*
X167682495Y-96745270D01*
X167690897Y-96852789D01*
X167682672Y-96955948D01*
X167658790Y-97048887D01*
X167619702Y-97133412D01*
X167564868Y-97210910D01*
X167492809Y-97280500D01*
X167413316Y-97329027D01*
X167324775Y-97358350D01*
X167224699Y-97368447D01*
X167137216Y-97359260D01*
X167055343Y-97331920D01*
X166977314Y-97285523D01*
X166901932Y-97217596D01*
X166886544Y-97204316D01*
X166883374Y-97213178D01*
X166878851Y-97278138D01*
X166871172Y-97340338D01*
X166861998Y-97350861D01*
X166816935Y-97347747D01*
X166771781Y-97344725D01*
X166731847Y-97347747D01*
X166676526Y-97347747D01*
X166653172Y-97341783D01*
X166648866Y-97334467D01*
X166649873Y-97321186D01*
X166662198Y-97088496D01*
X166665425Y-96847294D01*
X166899917Y-96847294D01*
X166908384Y-96929066D01*
X166932955Y-97001078D01*
X166973647Y-97065464D01*
X167032496Y-97120338D01*
X167099163Y-97152357D01*
X167176522Y-97163283D01*
X167253415Y-97152552D01*
X167320821Y-97120927D01*
X167381411Y-97066563D01*
X167426509Y-97001688D01*
X167453265Y-96930676D01*
X167462377Y-96851415D01*
X167453441Y-96767743D01*
X167427521Y-96694381D01*
X167384525Y-96629032D01*
X167340044Y-96585207D01*
X167291282Y-96554791D01*
X167237278Y-96536489D01*
X167176522Y-96530205D01*
X167101259Y-96541195D01*
X167035238Y-96573708D01*
X166975754Y-96630040D01*
X166933619Y-96695829D01*
X166908485Y-96767604D01*
X166899917Y-96847294D01*
X166665425Y-96847294D01*
X166667275Y-96708991D01*
X166655552Y-96314325D01*
X166643736Y-95918652D01*
X166648396Y-95902140D01*
X166661139Y-95897128D01*
X166772880Y-95902990D01*
G37*
G36*
X165771331Y-95885771D02*
G01*
X165829675Y-95893006D01*
X165939310Y-95897128D01*
X165959321Y-95906128D01*
X165965963Y-95926803D01*
X165955704Y-96131418D01*
X165939310Y-96687101D01*
X165944515Y-97112499D01*
X165955796Y-97313309D01*
X165957811Y-97331719D01*
X165954663Y-97341765D01*
X165945538Y-97345000D01*
X165729291Y-97345000D01*
X165720334Y-97336168D01*
X165712347Y-97287206D01*
X165705112Y-97236959D01*
X165697509Y-97226297D01*
X165615535Y-97294991D01*
X165545217Y-97332197D01*
X165467595Y-97354805D01*
X165380879Y-97362585D01*
X165284767Y-97352531D01*
X165198450Y-97323109D01*
X165119630Y-97273965D01*
X165046846Y-97202850D01*
X164991640Y-97124182D01*
X164952582Y-97039943D01*
X164928910Y-96948911D01*
X164920817Y-96849492D01*
X164921514Y-96840333D01*
X165152359Y-96840333D01*
X165160870Y-96920725D01*
X165185726Y-96992477D01*
X165227189Y-97057587D01*
X165286752Y-97113856D01*
X165353126Y-97146400D01*
X165429056Y-97157421D01*
X165507964Y-97146574D01*
X165576006Y-97114844D01*
X165636051Y-97060701D01*
X165679739Y-96995265D01*
X165705925Y-96922544D01*
X165714911Y-96840333D01*
X165705974Y-96759521D01*
X165679834Y-96687503D01*
X165636051Y-96622163D01*
X165575972Y-96567228D01*
X165508571Y-96535229D01*
X165431071Y-96524344D01*
X165355762Y-96535310D01*
X165289359Y-96567811D01*
X165229204Y-96624178D01*
X165186425Y-96690015D01*
X165161002Y-96761431D01*
X165152359Y-96840333D01*
X164921514Y-96840333D01*
X164928940Y-96742758D01*
X164952413Y-96647425D01*
X164990581Y-96561592D01*
X165043732Y-96483769D01*
X165114863Y-96413939D01*
X165194459Y-96365035D01*
X165284273Y-96335325D01*
X165387015Y-96325041D01*
X165476671Y-96334216D01*
X165554772Y-96360709D01*
X165623776Y-96404356D01*
X165685236Y-96466824D01*
X165700532Y-96478182D01*
X165710087Y-96471274D01*
X165714911Y-96439164D01*
X165710332Y-96278513D01*
X165705752Y-96117771D01*
X165700623Y-96009968D01*
X165695494Y-95903173D01*
X165700098Y-95884764D01*
X165711889Y-95879542D01*
X165771331Y-95885771D01*
G37*
G36*
X163910934Y-96631963D02*
G01*
X163914517Y-96790467D01*
X163921192Y-96843355D01*
X163963273Y-96921730D01*
X164174808Y-97244890D01*
X164395608Y-97562300D01*
X164460205Y-97642304D01*
X164492826Y-97658649D01*
X164570537Y-97672782D01*
X164724537Y-97679124D01*
X164758884Y-97673537D01*
X164793688Y-97600355D01*
X164820799Y-97519572D01*
X164810836Y-97504651D01*
X164766486Y-97497407D01*
X164689983Y-97492968D01*
X164635392Y-97481434D01*
X164597500Y-97464892D01*
X164578327Y-97446728D01*
X164541630Y-97394825D01*
X164510884Y-97339629D01*
X164504261Y-97315690D01*
X164524848Y-97272520D01*
X164652821Y-97098070D01*
X164789685Y-96912124D01*
X164828035Y-96843355D01*
X164837553Y-96786683D01*
X164842323Y-96641214D01*
X164841316Y-96523153D01*
X164840308Y-96403993D01*
X164834320Y-96387185D01*
X164815670Y-96381370D01*
X164718859Y-96385491D01*
X164622047Y-96389521D01*
X164610130Y-96394447D01*
X164605652Y-96411137D01*
X164608766Y-96497874D01*
X164611789Y-96584427D01*
X164603637Y-96772189D01*
X164582321Y-96823270D01*
X164491987Y-96967644D01*
X164413599Y-97076181D01*
X164376669Y-97116028D01*
X164361745Y-97123715D01*
X164339601Y-97104086D01*
X164251103Y-96970209D01*
X164170965Y-96828957D01*
X164151727Y-96780432D01*
X164146113Y-96717988D01*
X164143575Y-96591755D01*
X164149712Y-96503094D01*
X164155848Y-96415442D01*
X164151113Y-96395068D01*
X164139453Y-96389521D01*
X164040627Y-96384942D01*
X163941708Y-96380271D01*
X163930180Y-96391283D01*
X163917632Y-96451894D01*
X163910934Y-96631963D01*
G37*
G36*
X162920219Y-96340723D02*
G01*
X163012596Y-96369343D01*
X163096613Y-96416719D01*
X163173809Y-96484410D01*
X163235312Y-96563691D01*
X163278767Y-96649768D01*
X163305156Y-96744100D01*
X163314218Y-96848668D01*
X163305156Y-96953235D01*
X163278767Y-97047567D01*
X163235312Y-97133644D01*
X163173809Y-97212925D01*
X163096987Y-97281509D01*
X163013123Y-97329492D01*
X162920646Y-97358488D01*
X162817245Y-97368447D01*
X162714436Y-97358454D01*
X162622313Y-97329323D01*
X162538582Y-97281044D01*
X162461688Y-97211918D01*
X162400150Y-97132100D01*
X162356695Y-97045646D01*
X162330326Y-96951116D01*
X162321461Y-96848668D01*
X162537526Y-96848668D01*
X162546253Y-96927902D01*
X162571742Y-96998308D01*
X162614371Y-97061983D01*
X162673635Y-97115498D01*
X162740341Y-97146764D01*
X162817245Y-97157421D01*
X162893524Y-97146816D01*
X162960262Y-97115593D01*
X163020119Y-97061983D01*
X163063342Y-96998240D01*
X163089144Y-96927839D01*
X163097971Y-96848668D01*
X163089174Y-96768061D01*
X163063622Y-96697339D01*
X163021127Y-96634253D01*
X162962067Y-96582690D01*
X162895034Y-96552331D01*
X162817245Y-96541929D01*
X162739565Y-96552445D01*
X162672889Y-96583120D01*
X162614371Y-96635260D01*
X162571910Y-96697720D01*
X162546344Y-96768087D01*
X162537526Y-96848668D01*
X162321461Y-96848668D01*
X162321279Y-96846561D01*
X162330393Y-96742621D01*
X162356940Y-96648856D01*
X162400692Y-96563272D01*
X162462696Y-96484410D01*
X162539414Y-96416697D01*
X162622936Y-96369329D01*
X162714799Y-96340720D01*
X162817245Y-96330903D01*
X162920219Y-96340723D01*
G37*
G36*
X161917637Y-95925246D02*
G01*
X161918645Y-95938527D01*
X161936066Y-96305828D01*
X161941268Y-96592670D01*
X161937146Y-96957569D01*
X161933025Y-97321461D01*
X161937641Y-97339781D01*
X161949511Y-97345000D01*
X162145150Y-97345000D01*
X162158579Y-97339579D01*
X162163559Y-97321461D01*
X162161544Y-96957569D01*
X162159529Y-96592670D01*
X162170337Y-96260470D01*
X162181053Y-95929368D01*
X162175757Y-95914062D01*
X162159529Y-95908852D01*
X162104208Y-95911966D01*
X162048796Y-95914988D01*
X161991460Y-95911966D01*
X161935040Y-95908852D01*
X161921319Y-95913109D01*
X161917637Y-95925246D01*
G37*
G36*
X161456018Y-95925246D02*
G01*
X161457026Y-95938527D01*
X161474447Y-96305828D01*
X161479649Y-96592670D01*
X161475527Y-96957569D01*
X161471406Y-97321461D01*
X161476022Y-97339781D01*
X161487892Y-97345000D01*
X161683531Y-97345000D01*
X161696960Y-97339579D01*
X161701940Y-97321461D01*
X161699925Y-96957569D01*
X161697910Y-96592670D01*
X161708718Y-96260470D01*
X161719434Y-95929368D01*
X161714138Y-95914062D01*
X161697910Y-95908852D01*
X161642589Y-95911966D01*
X161587177Y-95914988D01*
X161529841Y-95911966D01*
X161473421Y-95908852D01*
X161459700Y-95913109D01*
X161456018Y-95925246D01*
G37*
G36*
X160390906Y-96631963D02*
G01*
X160394489Y-96790467D01*
X160401164Y-96843355D01*
X160443245Y-96921730D01*
X160654780Y-97244890D01*
X160875580Y-97562300D01*
X160940177Y-97642304D01*
X160972798Y-97658649D01*
X161050509Y-97672782D01*
X161204509Y-97679124D01*
X161238856Y-97673537D01*
X161273661Y-97600355D01*
X161300771Y-97519572D01*
X161290808Y-97504651D01*
X161246458Y-97497407D01*
X161169955Y-97492968D01*
X161115364Y-97481434D01*
X161077472Y-97464892D01*
X161058299Y-97446728D01*
X161021602Y-97394825D01*
X160990856Y-97339629D01*
X160984233Y-97315690D01*
X161004820Y-97272520D01*
X161132793Y-97098070D01*
X161269657Y-96912124D01*
X161308007Y-96843355D01*
X161317525Y-96786683D01*
X161322295Y-96641214D01*
X161321288Y-96523153D01*
X161320280Y-96403993D01*
X161314292Y-96387185D01*
X161295642Y-96381370D01*
X161198831Y-96385491D01*
X161102019Y-96389521D01*
X161090103Y-96394447D01*
X161085624Y-96411137D01*
X161088738Y-96497874D01*
X161091761Y-96584427D01*
X161083609Y-96772189D01*
X161062293Y-96823270D01*
X160971960Y-96967644D01*
X160893571Y-97076181D01*
X160856641Y-97116028D01*
X160841717Y-97123715D01*
X160819573Y-97104086D01*
X160731075Y-96970209D01*
X160650937Y-96828957D01*
X160631699Y-96780432D01*
X160626085Y-96717988D01*
X160623547Y-96591755D01*
X160629684Y-96503094D01*
X160635820Y-96415442D01*
X160631085Y-96395068D01*
X160619426Y-96389521D01*
X160520599Y-96384942D01*
X160421680Y-96380271D01*
X160410152Y-96391283D01*
X160397605Y-96451894D01*
X160390906Y-96631963D01*
G37*
G36*
X159456036Y-96113100D02*
G01*
X159465202Y-96167875D01*
X159490203Y-96204613D01*
X159532447Y-96228066D01*
X159599467Y-96237114D01*
X159655788Y-96229027D01*
X159698844Y-96206339D01*
X159722630Y-96181149D01*
X159736892Y-96150635D01*
X159741892Y-96113100D01*
X159731098Y-96060802D01*
X159698844Y-96018852D01*
X159654134Y-95993712D01*
X159599467Y-95985055D01*
X159544801Y-95993712D01*
X159500091Y-96018852D01*
X159475467Y-96045952D01*
X159460997Y-96076917D01*
X159456036Y-96113100D01*
G37*
G36*
X159469316Y-96392819D02*
G01*
X159475453Y-96596792D01*
X159481590Y-96801864D01*
X159479575Y-97027453D01*
X159477560Y-97254141D01*
X159485837Y-97351661D01*
X159508954Y-97431522D01*
X159545454Y-97497154D01*
X159595452Y-97551022D01*
X159660618Y-97594393D01*
X159743998Y-97627192D01*
X159815228Y-97645276D01*
X159854640Y-97649815D01*
X159867511Y-97644916D01*
X159875157Y-97628382D01*
X159877172Y-97585426D01*
X159874149Y-97551721D01*
X159877721Y-97511329D01*
X159881293Y-97471945D01*
X159877663Y-97456901D01*
X159868012Y-97450512D01*
X159775889Y-97426701D01*
X159736762Y-97404167D01*
X159719483Y-97378023D01*
X159706990Y-97334275D01*
X159701958Y-97265132D01*
X159706079Y-97043756D01*
X159710109Y-96822381D01*
X159715199Y-96661552D01*
X159733740Y-96413518D01*
X159734747Y-96402161D01*
X159730516Y-96390731D01*
X159716338Y-96383660D01*
X159604688Y-96373951D01*
X159485711Y-96366074D01*
X159474096Y-96371735D01*
X159469316Y-96392819D01*
G37*
G36*
X158946160Y-96329403D02*
G01*
X159036270Y-96359365D01*
X159118999Y-96409418D01*
X159195826Y-96481754D01*
X159255237Y-96563781D01*
X159297130Y-96651394D01*
X159322458Y-96745881D01*
X159331106Y-96848942D01*
X159321513Y-96965573D01*
X159294215Y-97065576D01*
X159250374Y-97151931D01*
X159189689Y-97226847D01*
X159114905Y-97287545D01*
X159028434Y-97331446D01*
X158928012Y-97358817D01*
X158810594Y-97368447D01*
X158695418Y-97358040D01*
X158594309Y-97328039D01*
X158504559Y-97279024D01*
X158424262Y-97209903D01*
X158407868Y-97186547D01*
X158443771Y-97112816D01*
X158482148Y-97042199D01*
X158492956Y-97040184D01*
X158525654Y-97066379D01*
X158619945Y-97124013D01*
X158718297Y-97157821D01*
X158822867Y-97169145D01*
X158883737Y-97162481D01*
X158942071Y-97142426D01*
X158999088Y-97107962D01*
X159049711Y-97060469D01*
X159082031Y-97009012D01*
X159098464Y-96952257D01*
X158567147Y-96908627D01*
X158464196Y-96893639D01*
X158427728Y-96871023D01*
X158406314Y-96838467D01*
X158398617Y-96792614D01*
X158403992Y-96729508D01*
X158642524Y-96729508D01*
X158651129Y-96737537D01*
X158701967Y-96748284D01*
X158906044Y-96769973D01*
X159064667Y-96776402D01*
X159093994Y-96770188D01*
X159101578Y-96755611D01*
X159093705Y-96697955D01*
X159069926Y-96643853D01*
X159028306Y-96591663D01*
X158975951Y-96550297D01*
X158920679Y-96526444D01*
X158860785Y-96518482D01*
X158807272Y-96525431D01*
X158757379Y-96546301D01*
X158709660Y-96582504D01*
X158671609Y-96628485D01*
X158649789Y-96676964D01*
X158642524Y-96729508D01*
X158403992Y-96729508D01*
X158406789Y-96696672D01*
X158430546Y-96610383D01*
X158469569Y-96531928D01*
X158524646Y-96459955D01*
X158593855Y-96397879D01*
X158669486Y-96354449D01*
X158752968Y-96328198D01*
X158846406Y-96319180D01*
X158946160Y-96329403D01*
G37*
G36*
X157726613Y-96029385D02*
G01*
X157730639Y-96038621D01*
X157745023Y-96043674D01*
X157844491Y-96052924D01*
X157897476Y-96068141D01*
X157933609Y-96094232D01*
X157957055Y-96136072D01*
X157975777Y-96220548D01*
X157983801Y-96371936D01*
X157877281Y-96374043D01*
X157767554Y-96376058D01*
X157748580Y-96381104D01*
X157743008Y-96394467D01*
X157740993Y-96480197D01*
X157738886Y-96564827D01*
X157743931Y-96579378D01*
X157759403Y-96584336D01*
X157868121Y-96580764D01*
X157975649Y-96577100D01*
X157975649Y-96883197D01*
X157970520Y-97100360D01*
X157965391Y-97317339D01*
X157971035Y-97338745D01*
X157985908Y-97345000D01*
X158173394Y-97345000D01*
X158192994Y-97337506D01*
X158200047Y-97313217D01*
X158200047Y-96608882D01*
X158205095Y-96595473D01*
X158222563Y-96586002D01*
X158262513Y-96582229D01*
X158322912Y-96580614D01*
X158334228Y-96577100D01*
X158337342Y-96539181D01*
X158339449Y-96471953D01*
X158341464Y-96404817D01*
X158334862Y-96395814D01*
X158302327Y-96385462D01*
X158211313Y-96376058D01*
X158214336Y-96269079D01*
X158205666Y-96148740D01*
X158182995Y-96062775D01*
X158149856Y-96002732D01*
X158107365Y-95957144D01*
X158052103Y-95917354D01*
X157981786Y-95883481D01*
X157880579Y-95854145D01*
X157775798Y-95844371D01*
X157767238Y-95847061D01*
X157761418Y-95855637D01*
X157743558Y-95942008D01*
X157726613Y-96029385D01*
G37*
G36*
X157109656Y-96029385D02*
G01*
X157113682Y-96038621D01*
X157128066Y-96043674D01*
X157227534Y-96052924D01*
X157280519Y-96068141D01*
X157316652Y-96094232D01*
X157340098Y-96136072D01*
X157358820Y-96220548D01*
X157366844Y-96371936D01*
X157260323Y-96374043D01*
X157150597Y-96376058D01*
X157131622Y-96381104D01*
X157126051Y-96394467D01*
X157124036Y-96480197D01*
X157121929Y-96564827D01*
X157126974Y-96579378D01*
X157142445Y-96584336D01*
X157251164Y-96580764D01*
X157358692Y-96577100D01*
X157358692Y-96883197D01*
X157353563Y-97100360D01*
X157348434Y-97317339D01*
X157354077Y-97338745D01*
X157368950Y-97345000D01*
X157556437Y-97345000D01*
X157576036Y-97337506D01*
X157583090Y-97313217D01*
X157583090Y-96608882D01*
X157588137Y-96595473D01*
X157605605Y-96586002D01*
X157645555Y-96582229D01*
X157705955Y-96580614D01*
X157717271Y-96577100D01*
X157720385Y-96539181D01*
X157722492Y-96471953D01*
X157724507Y-96404817D01*
X157717904Y-96395814D01*
X157685369Y-96385462D01*
X157594356Y-96376058D01*
X157597378Y-96269079D01*
X157588708Y-96148740D01*
X157566037Y-96062775D01*
X157532898Y-96002732D01*
X157490408Y-95957144D01*
X157435146Y-95917354D01*
X157364829Y-95883481D01*
X157263622Y-95854145D01*
X157158840Y-95844371D01*
X157150280Y-95847061D01*
X157144460Y-95855637D01*
X157126600Y-95942008D01*
X157109656Y-96029385D01*
G37*
G36*
X156701080Y-96329403D02*
G01*
X156791189Y-96359365D01*
X156873918Y-96409418D01*
X156950745Y-96481754D01*
X157010156Y-96563781D01*
X157052050Y-96651394D01*
X157077378Y-96745881D01*
X157086025Y-96848942D01*
X157076433Y-96965573D01*
X157049135Y-97065576D01*
X157005294Y-97151931D01*
X156944609Y-97226847D01*
X156869824Y-97287545D01*
X156783353Y-97331446D01*
X156682931Y-97358817D01*
X156565513Y-97368447D01*
X156450338Y-97358040D01*
X156349228Y-97328039D01*
X156259479Y-97279024D01*
X156179182Y-97209903D01*
X156162787Y-97186547D01*
X156198691Y-97112816D01*
X156237068Y-97042199D01*
X156247875Y-97040184D01*
X156280573Y-97066379D01*
X156374864Y-97124013D01*
X156473217Y-97157821D01*
X156577786Y-97169145D01*
X156638657Y-97162481D01*
X156696991Y-97142426D01*
X156754008Y-97107962D01*
X156804631Y-97060469D01*
X156836951Y-97009012D01*
X156853384Y-96952257D01*
X156322067Y-96908627D01*
X156219116Y-96893639D01*
X156182648Y-96871023D01*
X156161234Y-96838467D01*
X156153537Y-96792614D01*
X156158912Y-96729508D01*
X156397444Y-96729508D01*
X156406049Y-96737537D01*
X156456886Y-96748284D01*
X156660964Y-96769973D01*
X156819587Y-96776402D01*
X156848914Y-96770188D01*
X156856498Y-96755611D01*
X156848625Y-96697955D01*
X156824846Y-96643853D01*
X156783225Y-96591663D01*
X156730871Y-96550297D01*
X156675599Y-96526444D01*
X156615705Y-96518482D01*
X156562192Y-96525431D01*
X156512299Y-96546301D01*
X156464580Y-96582504D01*
X156426528Y-96628485D01*
X156404709Y-96676964D01*
X156397444Y-96729508D01*
X156158912Y-96729508D01*
X156161709Y-96696672D01*
X156185466Y-96610383D01*
X156224489Y-96531928D01*
X156279566Y-96459955D01*
X156348774Y-96397879D01*
X156424405Y-96354449D01*
X156507887Y-96328198D01*
X156601325Y-96319180D01*
X156701080Y-96329403D01*
G37*
G36*
X155424197Y-96381645D02*
G01*
X155428236Y-96491603D01*
X155439584Y-96586259D01*
X155446706Y-96604470D01*
X155460009Y-96609798D01*
X155525130Y-96605218D01*
X155591168Y-96600547D01*
X155673304Y-96610343D01*
X155725161Y-96635422D01*
X155756123Y-96673454D01*
X155770727Y-96729591D01*
X155777647Y-96857277D01*
X155777647Y-96970209D01*
X155773067Y-97144781D01*
X155768488Y-97319354D01*
X155774688Y-97340461D01*
X155792027Y-97347015D01*
X155888381Y-97346007D01*
X155984734Y-97345000D01*
X156002153Y-97338790D01*
X156008182Y-97319446D01*
X156005709Y-97069860D01*
X156003144Y-96819358D01*
X156009268Y-96650201D01*
X156025800Y-96516863D01*
X156050314Y-96413335D01*
X156052329Y-96401062D01*
X156049149Y-96390762D01*
X156039048Y-96383660D01*
X155932436Y-96370471D01*
X155829945Y-96348489D01*
X155818635Y-96358389D01*
X155808422Y-96410404D01*
X155799066Y-96463057D01*
X155790012Y-96472320D01*
X155784883Y-96470213D01*
X155700894Y-96415167D01*
X155653771Y-96390165D01*
X155606555Y-96372943D01*
X155563681Y-96363741D01*
X155504156Y-96360212D01*
X155450236Y-96364163D01*
X155429254Y-96372220D01*
X155424197Y-96381645D01*
G37*
G36*
X154448477Y-96631963D02*
G01*
X154452061Y-96790467D01*
X154458736Y-96843355D01*
X154500816Y-96921730D01*
X154712351Y-97244890D01*
X154933152Y-97562300D01*
X154997749Y-97642304D01*
X155030370Y-97658649D01*
X155108081Y-97672782D01*
X155262081Y-97679124D01*
X155296427Y-97673537D01*
X155331232Y-97600355D01*
X155358343Y-97519572D01*
X155348379Y-97504651D01*
X155304030Y-97497407D01*
X155227527Y-97492968D01*
X155172935Y-97481434D01*
X155135044Y-97464892D01*
X155115870Y-97446728D01*
X155079173Y-97394825D01*
X155048428Y-97339629D01*
X155041804Y-97315690D01*
X155062391Y-97272520D01*
X155190365Y-97098070D01*
X155327229Y-96912124D01*
X155365579Y-96843355D01*
X155375096Y-96786683D01*
X155379867Y-96641214D01*
X155378859Y-96523153D01*
X155377852Y-96403993D01*
X155371864Y-96387185D01*
X155353214Y-96381370D01*
X155256402Y-96385491D01*
X155159590Y-96389521D01*
X155147674Y-96394447D01*
X155143196Y-96411137D01*
X155146310Y-96497874D01*
X155149332Y-96584427D01*
X155141181Y-96772189D01*
X155119865Y-96823270D01*
X155029531Y-96967644D01*
X154951143Y-97076181D01*
X154914213Y-97116028D01*
X154899289Y-97123715D01*
X154877145Y-97104086D01*
X154788647Y-96970209D01*
X154708508Y-96828957D01*
X154689270Y-96780432D01*
X154683656Y-96717988D01*
X154681119Y-96591755D01*
X154687255Y-96503094D01*
X154693392Y-96415442D01*
X154688657Y-96395068D01*
X154676997Y-96389521D01*
X154578170Y-96384942D01*
X154479252Y-96380271D01*
X154467724Y-96391283D01*
X154455176Y-96451894D01*
X154448477Y-96631963D01*
G37*
G36*
X166772376Y-80871853D02*
G01*
X166783545Y-80868571D01*
X166802699Y-80854945D01*
X166876794Y-80780641D01*
X166932738Y-80701598D01*
X166972275Y-80617041D01*
X166996219Y-80525733D01*
X167004401Y-80426061D01*
X166996178Y-80321071D01*
X166972442Y-80227697D01*
X166933851Y-80143954D01*
X166880046Y-80068312D01*
X166809684Y-79999796D01*
X166735154Y-79947074D01*
X166653626Y-79905790D01*
X166564149Y-79875712D01*
X166465525Y-79857088D01*
X166356351Y-79850643D01*
X166247364Y-79857172D01*
X166148626Y-79876065D01*
X166058760Y-79906636D01*
X165976591Y-79948682D01*
X165901192Y-80002495D01*
X165829676Y-80071848D01*
X165775120Y-80148032D01*
X165736087Y-80231987D01*
X165712138Y-80325206D01*
X165703856Y-80429633D01*
X165711803Y-80536840D01*
X165734488Y-80630053D01*
X165770885Y-80711572D01*
X165820954Y-80783199D01*
X165885634Y-80846134D01*
X165903982Y-80857366D01*
X165916671Y-80860343D01*
X165937633Y-80853074D01*
X166005814Y-80813271D01*
X166069979Y-80768499D01*
X166079795Y-80756436D01*
X166073019Y-80742538D01*
X166036137Y-80702300D01*
X165987473Y-80649247D01*
X165955805Y-80603711D01*
X165931660Y-80551328D01*
X165917100Y-80495378D01*
X165912147Y-80434952D01*
X165920968Y-80349915D01*
X165946204Y-80277600D01*
X165987467Y-80215314D01*
X166046297Y-80161412D01*
X166107960Y-80124432D01*
X166177896Y-80097320D01*
X166257508Y-80080356D01*
X166348493Y-80074412D01*
X166439448Y-80080268D01*
X166519555Y-80097025D01*
X166590403Y-80123869D01*
X166653308Y-80160539D01*
X166713953Y-80214668D01*
X166756272Y-80276916D01*
X166782045Y-80348870D01*
X166791030Y-80433205D01*
X166786260Y-80490146D01*
X166771908Y-80545848D01*
X166747531Y-80601012D01*
X166714390Y-80653165D01*
X166666882Y-80709364D01*
X166623382Y-80760008D01*
X166631587Y-80769169D01*
X166694347Y-80818590D01*
X166759163Y-80865072D01*
X166772376Y-80871853D01*
G37*
G36*
X166958599Y-82090478D02*
G01*
X166973441Y-82084384D01*
X166979000Y-82063807D01*
X166976380Y-82017212D01*
X166973681Y-81969743D01*
X166976380Y-81918623D01*
X166979000Y-81867582D01*
X166973913Y-81852276D01*
X166958678Y-81847182D01*
X166720462Y-81852024D01*
X166482167Y-81856946D01*
X166453642Y-81851070D01*
X166442477Y-81836545D01*
X166438211Y-81781893D01*
X166435413Y-81529190D01*
X166438197Y-81277346D01*
X166442477Y-81221914D01*
X166453532Y-81208073D01*
X166482167Y-81202387D01*
X166716017Y-81206832D01*
X166949867Y-81211277D01*
X166972348Y-81205217D01*
X166979000Y-81189051D01*
X166976380Y-81138487D01*
X166973681Y-81087843D01*
X166976380Y-81040375D01*
X166979000Y-80992906D01*
X166973755Y-80976081D01*
X166958599Y-80970680D01*
X166665453Y-80979967D01*
X166372227Y-80989255D01*
X166063046Y-80979967D01*
X165753865Y-80970680D01*
X165739429Y-80976003D01*
X165734338Y-80992906D01*
X165737037Y-81041724D01*
X165739656Y-81091415D01*
X165737037Y-81141106D01*
X165734338Y-81190877D01*
X165738655Y-81206580D01*
X165750293Y-81211277D01*
X165979778Y-81204610D01*
X166209262Y-81198021D01*
X166229774Y-81203034D01*
X166239426Y-81216675D01*
X166244175Y-81267770D01*
X166247443Y-81529190D01*
X166244263Y-81785005D01*
X166239426Y-81840038D01*
X166228463Y-81854636D01*
X166201245Y-81860438D01*
X165976682Y-81855517D01*
X165752119Y-81850675D01*
X165738986Y-81855547D01*
X165734338Y-81871075D01*
X165737037Y-81920369D01*
X165739656Y-81969664D01*
X165737037Y-82017688D01*
X165734338Y-82065633D01*
X165739493Y-82083271D01*
X165753865Y-82088732D01*
X166063046Y-82079842D01*
X166372227Y-82070951D01*
X166665453Y-82080715D01*
X166958599Y-82090478D01*
G37*
G36*
X165766328Y-82270669D02*
G01*
X166080278Y-82286137D01*
X166365559Y-82291069D01*
X166662039Y-82281782D01*
X166958520Y-82272494D01*
X166973741Y-82277903D01*
X166979000Y-82294720D01*
X166976380Y-82340840D01*
X166973681Y-82387038D01*
X166977729Y-82441651D01*
X166981698Y-82495311D01*
X166977095Y-82508570D01*
X166962965Y-82513092D01*
X166777456Y-82507297D01*
X166591075Y-82501582D01*
X166555621Y-82507499D01*
X166545670Y-82520236D01*
X166542098Y-82665817D01*
X166542971Y-82746625D01*
X166551408Y-82778891D01*
X166564629Y-82799430D01*
X166582264Y-82811477D01*
X166956773Y-82973093D01*
X166973729Y-82986598D01*
X166979000Y-83004209D01*
X166976301Y-83059695D01*
X166973602Y-83115181D01*
X166976301Y-83166698D01*
X166979000Y-83218215D01*
X166976793Y-83229619D01*
X166971855Y-83232424D01*
X166936898Y-83219710D01*
X166733719Y-83126294D01*
X166530442Y-83032516D01*
X166497328Y-83020164D01*
X166487465Y-83023655D01*
X166475102Y-83037072D01*
X166423133Y-83100700D01*
X166372599Y-83145794D01*
X166323012Y-83175588D01*
X166271288Y-83194083D01*
X166203497Y-83206522D01*
X166115833Y-83211150D01*
X166022373Y-83202280D01*
X165943840Y-83177126D01*
X165877252Y-83136567D01*
X165820623Y-83079699D01*
X165780938Y-83018301D01*
X165751575Y-82946483D01*
X165732988Y-82862339D01*
X165726400Y-82763532D01*
X165728365Y-82650735D01*
X165912147Y-82650735D01*
X165917978Y-82770446D01*
X165932505Y-82848565D01*
X165952154Y-82896730D01*
X165983293Y-82934845D01*
X166027028Y-82963334D01*
X166086715Y-82982115D01*
X166167271Y-82989127D01*
X166231921Y-82981995D01*
X166281558Y-82962369D01*
X166319758Y-82931181D01*
X166348406Y-82887009D01*
X166367355Y-82826329D01*
X166374450Y-82744005D01*
X166370004Y-82561989D01*
X166365559Y-82509520D01*
X166361987Y-82498010D01*
X166192196Y-82498010D01*
X166002589Y-82500136D01*
X165935246Y-82504201D01*
X165926020Y-82512562D01*
X165916842Y-82549727D01*
X165912147Y-82650735D01*
X165728365Y-82650735D01*
X165730369Y-82535715D01*
X165734338Y-82307103D01*
X165739965Y-82276504D01*
X165752119Y-82269795D01*
X165766328Y-82270669D01*
G37*
G36*
X166938993Y-84440253D02*
G01*
X166953429Y-84435927D01*
X166958678Y-84418027D01*
X166954442Y-84400775D01*
X166933515Y-84353651D01*
X166897715Y-84288401D01*
X166943566Y-84204772D01*
X166976802Y-84113250D01*
X166997313Y-84012564D01*
X167004401Y-83901191D01*
X166996325Y-83798763D01*
X166972839Y-83706092D01*
X166934357Y-83621457D01*
X166880347Y-83543524D01*
X166809367Y-83471434D01*
X166732875Y-83414216D01*
X166650626Y-83369892D01*
X166561784Y-83337925D01*
X166465262Y-83318307D01*
X166359765Y-83311564D01*
X166251381Y-83318271D01*
X166152877Y-83337717D01*
X166062883Y-83369268D01*
X165980242Y-83412805D01*
X165904050Y-83468735D01*
X165833366Y-83539701D01*
X165779394Y-83617256D01*
X165740780Y-83702327D01*
X165717109Y-83796354D01*
X165708937Y-83901191D01*
X165716007Y-83990880D01*
X165737217Y-84078313D01*
X165773075Y-84164491D01*
X165821677Y-84244020D01*
X165880025Y-84310976D01*
X165948661Y-84366590D01*
X165974300Y-84378100D01*
X165991749Y-84369074D01*
X166056140Y-84314596D01*
X166116301Y-84255586D01*
X166125517Y-84241330D01*
X166118424Y-84230926D01*
X166071460Y-84187193D01*
X166011425Y-84129286D01*
X165971284Y-84078841D01*
X165940777Y-84023073D01*
X165923072Y-83967153D01*
X165917227Y-83910081D01*
X165926057Y-83829663D01*
X165951835Y-83758256D01*
X165994931Y-83693725D01*
X166057569Y-83634795D01*
X166123864Y-83592345D01*
X166195584Y-83561995D01*
X166273758Y-83543451D01*
X166359685Y-83537080D01*
X166443035Y-83543505D01*
X166520114Y-83562351D01*
X166592093Y-83593479D01*
X166659896Y-83637415D01*
X166723229Y-83697299D01*
X166766596Y-83762055D01*
X166792396Y-83832888D01*
X166801191Y-83911828D01*
X166795571Y-83991815D01*
X166778943Y-84067674D01*
X166751307Y-84140241D01*
X166712207Y-84210213D01*
X166543130Y-84195131D01*
X166375005Y-84184494D01*
X166363955Y-84188980D01*
X166359844Y-84204022D01*
X166362066Y-84254665D01*
X166364289Y-84305230D01*
X166362543Y-84356747D01*
X166360717Y-84408264D01*
X166366900Y-84421581D01*
X166389293Y-84426918D01*
X166483596Y-84424695D01*
X166577898Y-84422472D01*
X166718106Y-84426164D01*
X166926530Y-84439380D01*
X166938993Y-84440253D01*
G37*
G36*
X152065106Y-122624647D02*
G01*
X152349258Y-122616880D01*
X152633337Y-122609113D01*
X152726247Y-122609919D01*
X152818205Y-122610725D01*
X152933722Y-122606041D01*
X153009069Y-122594391D01*
X153055316Y-122578778D01*
X153100247Y-122549819D01*
X153137957Y-122509735D01*
X153168932Y-122456667D01*
X153192702Y-122387756D01*
X153208401Y-122292003D01*
X153214757Y-122142658D01*
X153209436Y-122017864D01*
X153195288Y-121923293D01*
X153174642Y-121853102D01*
X153149198Y-121802205D01*
X153119869Y-121766402D01*
X153081904Y-121740213D01*
X153024734Y-121718601D01*
X152941877Y-121703394D01*
X152825532Y-121697526D01*
X152734381Y-121698332D01*
X152633337Y-121699211D01*
X152277671Y-121691004D01*
X152077343Y-121683604D01*
X152064227Y-121682798D01*
X152051680Y-121687754D01*
X152047081Y-121704120D01*
X152047887Y-121795125D01*
X152048693Y-121885324D01*
X152052678Y-121899819D01*
X152063421Y-121904155D01*
X152437332Y-121898806D01*
X152811170Y-121893457D01*
X152883258Y-121898468D01*
X152936327Y-121911739D01*
X152974711Y-121931355D01*
X153001753Y-121956545D01*
X153023740Y-121995795D01*
X153039607Y-122058974D01*
X153045937Y-122155774D01*
X153040872Y-122244076D01*
X153027985Y-122304186D01*
X153009960Y-122343499D01*
X152984578Y-122372650D01*
X152949818Y-122394415D01*
X152903262Y-122408690D01*
X152841432Y-122413988D01*
X152453306Y-122409884D01*
X152065106Y-122405781D01*
X152055235Y-122410656D01*
X152048693Y-122429521D01*
X152048693Y-122478761D01*
X152051990Y-122514811D01*
X152049572Y-122559434D01*
X152047081Y-122604131D01*
X152051781Y-122619734D01*
X152065106Y-122624647D01*
G37*
G36*
X152129147Y-123450945D02*
G01*
X152208868Y-123405882D01*
X152279063Y-123373862D01*
X152286244Y-123360746D01*
X152258107Y-123281612D01*
X152236113Y-123204518D01*
X152229970Y-123150087D01*
X152236322Y-123091605D01*
X152253110Y-123050836D01*
X152278829Y-123022979D01*
X152314683Y-123005609D01*
X152364279Y-122999218D01*
X152397330Y-123004814D01*
X152429183Y-123022205D01*
X152461058Y-123054044D01*
X152493386Y-123104951D01*
X152600364Y-123301762D01*
X152646462Y-123348056D01*
X152698957Y-123380637D01*
X152759132Y-123400556D01*
X152828976Y-123407494D01*
X152901135Y-123401417D01*
X152964938Y-123383882D01*
X153021906Y-123355304D01*
X153073164Y-123315238D01*
X153119356Y-123262414D01*
X153160208Y-123195286D01*
X153189909Y-123120410D01*
X153208343Y-123036467D01*
X153214757Y-122941845D01*
X153211146Y-122881180D01*
X153203559Y-122855069D01*
X153194974Y-122846810D01*
X153103456Y-122832009D01*
X153029304Y-122811566D01*
X153015235Y-122809075D01*
X153006672Y-122812084D01*
X153003732Y-122821385D01*
X153008421Y-122881615D01*
X153013110Y-122942725D01*
X153006755Y-123032626D01*
X152990108Y-123096973D01*
X152965786Y-123141931D01*
X152934789Y-123172176D01*
X152896308Y-123190393D01*
X152847880Y-123196835D01*
X152811220Y-123191187D01*
X152776391Y-123173881D01*
X152742177Y-123142864D01*
X152708076Y-123094326D01*
X152597067Y-122903377D01*
X152551491Y-122858155D01*
X152499682Y-122826310D01*
X152440387Y-122806841D01*
X152371680Y-122800062D01*
X152296668Y-122806742D01*
X152232011Y-122825841D01*
X152175753Y-122856775D01*
X152126509Y-122900080D01*
X152088402Y-122951186D01*
X152060835Y-123009353D01*
X152043701Y-123075906D01*
X152037702Y-123152578D01*
X152042746Y-123220148D01*
X152059538Y-123303374D01*
X152088338Y-123389109D01*
X152118229Y-123442739D01*
X152129147Y-123450945D01*
G37*
G36*
X153191158Y-123582473D02*
G01*
X153196000Y-123598004D01*
X153192702Y-123713921D01*
X153189405Y-123829986D01*
X153191896Y-123987742D01*
X153194387Y-124145572D01*
X153187523Y-124213294D01*
X153167561Y-124273372D01*
X153134478Y-124327472D01*
X153086969Y-124376674D01*
X153033458Y-124414194D01*
X152975402Y-124440894D01*
X152911887Y-124457175D01*
X152841725Y-124462770D01*
X152794564Y-124458641D01*
X152748441Y-124446207D01*
X152702727Y-124425034D01*
X152661215Y-124396723D01*
X152627736Y-124363502D01*
X152601464Y-124325017D01*
X152588468Y-124304833D01*
X152583438Y-124301277D01*
X152562995Y-124325017D01*
X152525678Y-124367217D01*
X152471038Y-124404518D01*
X152409694Y-124429556D01*
X152353655Y-124437344D01*
X152274555Y-124428948D01*
X152209868Y-124405282D01*
X152156462Y-124367042D01*
X152112514Y-124312780D01*
X152078739Y-124241577D01*
X152056730Y-124151542D01*
X152048693Y-124038154D01*
X152048280Y-123925020D01*
X152192454Y-123925020D01*
X152199589Y-124056768D01*
X152216122Y-124129159D01*
X152241329Y-124174946D01*
X152274540Y-124206297D01*
X152316917Y-124225519D01*
X152371387Y-124232400D01*
X152412009Y-124226323D01*
X152445055Y-124208796D01*
X152472488Y-124178798D01*
X152494619Y-124132791D01*
X152510065Y-124065275D01*
X152514807Y-123988914D01*
X152675469Y-123988914D01*
X152682307Y-124100539D01*
X152698550Y-124165209D01*
X152720726Y-124204760D01*
X152749863Y-124231899D01*
X152787004Y-124248561D01*
X152834691Y-124254528D01*
X152893505Y-124249073D01*
X152938410Y-124234231D01*
X152972558Y-124211261D01*
X152998016Y-124179937D01*
X153015008Y-124140327D01*
X153027125Y-124080581D01*
X153031868Y-123993824D01*
X153027765Y-123838119D01*
X153020888Y-123792794D01*
X153015382Y-123785655D01*
X152923791Y-123783970D01*
X152833079Y-123782358D01*
X152697744Y-123782358D01*
X152689602Y-123790909D01*
X152680421Y-123840051D01*
X152675469Y-123988914D01*
X152514807Y-123988914D01*
X152516027Y-123969277D01*
X152510915Y-123837110D01*
X152501303Y-123792309D01*
X152492360Y-123784043D01*
X152433522Y-123783164D01*
X152375490Y-123782358D01*
X152293791Y-123784849D01*
X152212898Y-123787341D01*
X152204938Y-123793918D01*
X152196750Y-123827728D01*
X152192454Y-123925020D01*
X152048280Y-123925020D01*
X152047887Y-123817602D01*
X152047081Y-123598004D01*
X152051781Y-123582401D01*
X152065106Y-123577487D01*
X152350504Y-123586060D01*
X152635902Y-123594633D01*
X152906572Y-123586060D01*
X153177168Y-123577487D01*
X153191158Y-123582473D01*
G37*
G36*
X146380102Y-101132119D02*
G01*
X146417288Y-101135844D01*
X146455573Y-101132424D01*
X146493797Y-101129005D01*
X146501674Y-101133659D01*
X146511566Y-101154895D01*
X146563468Y-101286908D01*
X146691939Y-101606378D01*
X146859307Y-102064699D01*
X146868832Y-102095413D01*
X146865808Y-102102320D01*
X146855216Y-102105000D01*
X146701465Y-102105000D01*
X146694224Y-102099979D01*
X146681243Y-102074104D01*
X146658784Y-102001807D01*
X146635610Y-101932088D01*
X146618814Y-101904427D01*
X146606516Y-101897882D01*
X146478105Y-101896477D01*
X146370211Y-101896477D01*
X146238319Y-101897882D01*
X146222520Y-101904840D01*
X146202892Y-101933055D01*
X146177869Y-102001502D01*
X146153660Y-102072769D01*
X146138471Y-102099417D01*
X146129021Y-102105000D01*
X146090064Y-102102984D01*
X146051168Y-102100908D01*
X146013250Y-102102984D01*
X145975331Y-102105000D01*
X145962191Y-102102469D01*
X145958967Y-102096817D01*
X146104408Y-101721660D01*
X146277276Y-101721660D01*
X146283629Y-101733996D01*
X146309446Y-101744347D01*
X146374973Y-101749382D01*
X146445315Y-101749382D01*
X146512299Y-101748710D01*
X146545509Y-101742724D01*
X146560082Y-101733795D01*
X146564200Y-101722821D01*
X146548123Y-101671660D01*
X146422784Y-101340764D01*
X146338764Y-101544340D01*
X146285968Y-101687570D01*
X146277276Y-101721660D01*
X146104408Y-101721660D01*
X146164558Y-101566505D01*
X146326430Y-101154406D01*
X146337906Y-101132409D01*
X146343527Y-101128333D01*
X146380102Y-101132119D01*
G37*
G36*
X145874169Y-101151411D02*
G01*
X145878306Y-101161917D01*
X145872871Y-101400054D01*
X145867376Y-101638251D01*
X145873176Y-101863443D01*
X145878977Y-102087964D01*
X145874708Y-102100736D01*
X145861880Y-102105000D01*
X145765282Y-102102313D01*
X145668562Y-102099565D01*
X145561706Y-102102313D01*
X145454788Y-102105000D01*
X145382539Y-102098806D01*
X145317090Y-102080745D01*
X145257118Y-102050974D01*
X145201644Y-102008822D01*
X145150095Y-101952836D01*
X145102595Y-101880239D01*
X145068657Y-101801588D01*
X145047923Y-101715717D01*
X145040848Y-101621826D01*
X145208164Y-101621826D01*
X145213816Y-101696267D01*
X145230135Y-101762630D01*
X145256644Y-101822259D01*
X145293527Y-101876205D01*
X145326338Y-101910010D01*
X145360621Y-101934884D01*
X145396720Y-101951859D01*
X145447320Y-101963608D01*
X145521711Y-101968224D01*
X145621423Y-101968895D01*
X145675704Y-101961651D01*
X145697790Y-101950992D01*
X145703428Y-101938914D01*
X145705809Y-101783454D01*
X145708190Y-101627993D01*
X145705809Y-101470823D01*
X145703428Y-101313653D01*
X145697934Y-101301882D01*
X145676406Y-101291470D01*
X145623499Y-101284344D01*
X145525802Y-101285687D01*
X145454161Y-101292112D01*
X145392517Y-101310474D01*
X145338970Y-101340211D01*
X145292184Y-101381857D01*
X145256145Y-101430406D01*
X145230061Y-101485680D01*
X145213843Y-101548938D01*
X145208164Y-101621826D01*
X145040848Y-101621826D01*
X145040797Y-101621154D01*
X145045604Y-101548352D01*
X145059922Y-101478054D01*
X145083845Y-101409640D01*
X145119334Y-101340914D01*
X145162307Y-101283818D01*
X145212927Y-101236960D01*
X145272160Y-101200849D01*
X145348122Y-101172865D01*
X145444607Y-101154360D01*
X145566102Y-101147568D01*
X145638520Y-101148239D01*
X145709595Y-101148911D01*
X145785066Y-101148239D01*
X145860537Y-101147568D01*
X145874169Y-101151411D01*
G37*
G36*
X144176666Y-101946058D02*
G01*
X144179191Y-101954650D01*
X144189672Y-101969384D01*
X144246829Y-102026380D01*
X144307631Y-102069414D01*
X144372675Y-102099827D01*
X144442912Y-102118245D01*
X144519583Y-102124539D01*
X144600344Y-102118214D01*
X144672170Y-102099956D01*
X144736588Y-102070270D01*
X144794774Y-102028882D01*
X144847479Y-101974757D01*
X144888034Y-101917426D01*
X144919791Y-101854712D01*
X144942928Y-101785884D01*
X144957254Y-101710019D01*
X144962212Y-101626039D01*
X144957190Y-101542203D01*
X144942656Y-101466251D01*
X144919140Y-101397123D01*
X144886797Y-101333916D01*
X144845403Y-101275917D01*
X144792054Y-101220904D01*
X144733451Y-101178938D01*
X144668870Y-101148913D01*
X144597163Y-101130491D01*
X144516835Y-101124120D01*
X144434368Y-101130233D01*
X144362665Y-101147683D01*
X144299959Y-101175681D01*
X144244861Y-101214195D01*
X144196449Y-101263949D01*
X144187809Y-101278063D01*
X144185519Y-101287824D01*
X144191111Y-101303948D01*
X144221728Y-101356395D01*
X144256168Y-101405753D01*
X144265448Y-101413304D01*
X144276139Y-101408092D01*
X144307091Y-101379720D01*
X144347901Y-101342287D01*
X144382929Y-101317927D01*
X144423223Y-101299354D01*
X144466262Y-101288154D01*
X144512744Y-101284344D01*
X144578156Y-101291129D01*
X144633784Y-101310542D01*
X144681695Y-101342282D01*
X144723159Y-101387536D01*
X144751605Y-101434969D01*
X144772460Y-101488766D01*
X144785510Y-101550006D01*
X144790081Y-101619994D01*
X144785577Y-101689960D01*
X144772687Y-101751581D01*
X144752038Y-101806079D01*
X144723831Y-101854467D01*
X144682192Y-101901118D01*
X144634310Y-101933670D01*
X144578960Y-101953496D01*
X144514087Y-101960408D01*
X144470286Y-101956738D01*
X144427439Y-101945698D01*
X144385005Y-101926946D01*
X144344887Y-101901454D01*
X144301657Y-101864909D01*
X144262700Y-101831448D01*
X144255654Y-101837759D01*
X144217637Y-101886036D01*
X144181882Y-101935895D01*
X144176666Y-101946058D01*
G37*
G36*
X165690964Y-123917951D02*
G01*
X165722777Y-123912456D01*
X165754590Y-123904945D01*
X165827252Y-123895420D01*
X165836397Y-123889418D01*
X165839586Y-123877651D01*
X165836838Y-123851700D01*
X165828121Y-123756083D01*
X165824443Y-123591460D01*
X165827252Y-123441128D01*
X165830000Y-123290858D01*
X165824840Y-123273721D01*
X165810216Y-123268326D01*
X165580566Y-123276814D01*
X165350917Y-123285362D01*
X165060940Y-123277180D01*
X164897847Y-123269670D01*
X164888260Y-123268998D01*
X164876703Y-123272870D01*
X164872568Y-123286767D01*
X164875254Y-123430198D01*
X164877941Y-123573630D01*
X164875254Y-123710589D01*
X164872568Y-123847609D01*
X164878192Y-123873626D01*
X164891985Y-123882414D01*
X165001772Y-123896763D01*
X165013343Y-123892978D01*
X165017159Y-123881742D01*
X165011297Y-123705826D01*
X165005436Y-123528567D01*
X165010270Y-123478397D01*
X165020518Y-123457859D01*
X165041719Y-123447965D01*
X165095195Y-123443204D01*
X165197349Y-123443204D01*
X165246015Y-123445280D01*
X165261494Y-123456464D01*
X165267264Y-123480757D01*
X165266592Y-123504021D01*
X165266592Y-123527224D01*
X165262074Y-123767681D01*
X165255540Y-123866050D01*
X165257975Y-123876892D01*
X165267691Y-123880399D01*
X165333881Y-123875270D01*
X165400682Y-123870141D01*
X165409354Y-123865844D01*
X165412955Y-123849685D01*
X165408131Y-123788869D01*
X165404040Y-123616739D01*
X165406788Y-123473918D01*
X165411055Y-123458020D01*
X165420295Y-123447965D01*
X165435547Y-123442533D01*
X165488304Y-123443204D01*
X165589726Y-123443204D01*
X165637432Y-123446567D01*
X165664705Y-123454556D01*
X165678813Y-123465064D01*
X165688478Y-123488927D01*
X165693224Y-123550427D01*
X165692491Y-123625593D01*
X165674417Y-123894016D01*
X165673684Y-123904274D01*
X165676864Y-123914165D01*
X165690964Y-123917951D01*
G37*
G36*
X165690964Y-124671196D02*
G01*
X165722777Y-124665701D01*
X165754590Y-124658190D01*
X165827252Y-124648665D01*
X165836397Y-124642663D01*
X165839586Y-124630896D01*
X165836838Y-124604945D01*
X165828121Y-124509328D01*
X165824443Y-124344705D01*
X165827252Y-124194373D01*
X165830000Y-124044103D01*
X165824840Y-124026966D01*
X165810216Y-124021571D01*
X165580566Y-124030059D01*
X165350917Y-124038607D01*
X165060940Y-124030425D01*
X164897847Y-124022915D01*
X164888260Y-124022243D01*
X164876703Y-124026115D01*
X164872568Y-124040012D01*
X164875254Y-124183443D01*
X164877941Y-124326875D01*
X164875254Y-124463834D01*
X164872568Y-124600854D01*
X164878192Y-124626871D01*
X164891985Y-124635659D01*
X165001772Y-124650008D01*
X165013343Y-124646223D01*
X165017159Y-124634987D01*
X165011297Y-124459071D01*
X165005436Y-124281812D01*
X165010270Y-124231642D01*
X165020518Y-124211104D01*
X165041719Y-124201210D01*
X165095195Y-124196449D01*
X165197349Y-124196449D01*
X165246015Y-124198525D01*
X165261494Y-124209709D01*
X165267264Y-124234002D01*
X165266592Y-124257266D01*
X165266592Y-124280469D01*
X165262074Y-124520926D01*
X165255540Y-124619295D01*
X165257975Y-124630137D01*
X165267691Y-124633644D01*
X165333881Y-124628515D01*
X165400682Y-124623386D01*
X165409354Y-124619089D01*
X165412955Y-124602930D01*
X165408131Y-124542114D01*
X165404040Y-124369984D01*
X165406788Y-124227163D01*
X165411055Y-124211264D01*
X165420295Y-124201210D01*
X165435547Y-124195778D01*
X165488304Y-124196449D01*
X165589726Y-124196449D01*
X165637432Y-124199812D01*
X165664705Y-124207801D01*
X165678813Y-124218309D01*
X165688478Y-124242172D01*
X165693224Y-124303672D01*
X165692491Y-124378838D01*
X165674417Y-124647260D01*
X165673684Y-124657519D01*
X165676864Y-124667410D01*
X165690964Y-124671196D01*
G37*
G36*
X164901755Y-124776160D02*
G01*
X165142379Y-124788070D01*
X165359038Y-124791852D01*
X165584291Y-124785380D01*
X165808811Y-124778907D01*
X165825069Y-124783488D01*
X165830000Y-124796004D01*
X165827923Y-124831481D01*
X165825847Y-124867690D01*
X165828961Y-124911043D01*
X165832076Y-124954457D01*
X165829044Y-124964321D01*
X165820352Y-124967463D01*
X165711114Y-124963005D01*
X165601877Y-124958548D01*
X165585236Y-124961390D01*
X165576688Y-124968529D01*
X165573728Y-124980408D01*
X165576842Y-125098927D01*
X165579895Y-125216774D01*
X165573155Y-125294889D01*
X165554072Y-125360842D01*
X165523508Y-125416913D01*
X165481160Y-125464741D01*
X165430973Y-125501642D01*
X165372669Y-125528607D01*
X165304713Y-125545534D01*
X165225132Y-125551509D01*
X165151255Y-125545265D01*
X165085824Y-125527236D01*
X165027299Y-125497826D01*
X164974539Y-125456559D01*
X164929960Y-125404840D01*
X164898382Y-125347163D01*
X164879075Y-125282320D01*
X164872384Y-125208592D01*
X164873612Y-125165544D01*
X165009344Y-125165544D01*
X165013684Y-125215315D01*
X165025990Y-125257431D01*
X165045736Y-125293336D01*
X165073152Y-125324057D01*
X165116834Y-125354017D01*
X165170234Y-125372711D01*
X165236001Y-125379378D01*
X165297962Y-125373308D01*
X165347756Y-125356390D01*
X165387981Y-125329492D01*
X165420106Y-125290431D01*
X165439944Y-125241750D01*
X165447027Y-125180565D01*
X165444451Y-125025774D01*
X165439577Y-124972226D01*
X165434813Y-124959990D01*
X165430052Y-124957205D01*
X165344567Y-124955495D01*
X165259082Y-124953785D01*
X165055207Y-124955901D01*
X165025647Y-124958548D01*
X165021937Y-124970846D01*
X165014778Y-125053497D01*
X165009344Y-125165544D01*
X164873612Y-125165544D01*
X164875132Y-125112238D01*
X164877819Y-125015945D01*
X164877147Y-124904265D01*
X164876475Y-124793257D01*
X164880491Y-124779297D01*
X164891496Y-124775488D01*
X164901755Y-124776160D01*
G37*
G36*
X164897175Y-125649572D02*
G01*
X165138676Y-125661471D01*
X165358122Y-125665265D01*
X165586184Y-125658121D01*
X165814246Y-125650976D01*
X165825955Y-125655137D01*
X165830000Y-125668073D01*
X165827984Y-125703550D01*
X165825908Y-125739087D01*
X165829023Y-125781097D01*
X165832076Y-125822374D01*
X165828534Y-125832573D01*
X165817665Y-125836051D01*
X165674966Y-125831594D01*
X165531596Y-125827198D01*
X165504324Y-125831750D01*
X165496669Y-125841547D01*
X165493921Y-125953532D01*
X165494593Y-126015692D01*
X165501083Y-126040513D01*
X165511253Y-126056312D01*
X165524818Y-126065579D01*
X165812903Y-126189898D01*
X165825945Y-126200287D01*
X165830000Y-126213834D01*
X165827923Y-126256516D01*
X165825847Y-126299197D01*
X165827923Y-126338825D01*
X165830000Y-126378454D01*
X165828303Y-126387226D01*
X165824504Y-126389384D01*
X165797614Y-126379604D01*
X165641322Y-126307745D01*
X165484955Y-126235608D01*
X165459483Y-126226107D01*
X165451896Y-126228793D01*
X165442386Y-126239113D01*
X165402410Y-126288057D01*
X165363538Y-126322746D01*
X165325394Y-126345664D01*
X165285606Y-126359891D01*
X165233459Y-126369459D01*
X165166025Y-126373019D01*
X165094133Y-126366196D01*
X165033723Y-126346847D01*
X164982502Y-126315648D01*
X164938941Y-126271903D01*
X164908414Y-126224674D01*
X164885827Y-126169429D01*
X164871529Y-126104703D01*
X164866461Y-126028698D01*
X164867973Y-125941931D01*
X165009344Y-125941931D01*
X165013829Y-126034016D01*
X165025003Y-126094108D01*
X165040118Y-126131158D01*
X165064071Y-126160477D01*
X165097714Y-126182392D01*
X165143627Y-126196838D01*
X165205593Y-126202233D01*
X165255324Y-126196746D01*
X165293506Y-126181649D01*
X165322890Y-126157659D01*
X165344927Y-126123680D01*
X165359504Y-126077003D01*
X165364961Y-126013677D01*
X165361542Y-125873665D01*
X165358122Y-125833304D01*
X165355375Y-125824450D01*
X165224766Y-125824450D01*
X165078914Y-125826085D01*
X165027112Y-125829213D01*
X165020016Y-125835644D01*
X165012955Y-125864233D01*
X165009344Y-125941931D01*
X164867973Y-125941931D01*
X164869515Y-125853454D01*
X164872568Y-125677599D01*
X164876896Y-125654061D01*
X164886245Y-125648900D01*
X164897175Y-125649572D01*
G37*
G36*
X165430424Y-126458348D02*
G01*
X165504809Y-126474120D01*
X165573831Y-126499950D01*
X165638304Y-126535972D01*
X165698841Y-126582763D01*
X165753808Y-126640151D01*
X165795578Y-126701652D01*
X165825274Y-126767904D01*
X165843344Y-126839883D01*
X165849539Y-126918841D01*
X165843337Y-126997457D01*
X165825227Y-127069280D01*
X165795428Y-127135546D01*
X165753461Y-127197216D01*
X165698169Y-127254919D01*
X165637332Y-127301784D01*
X165572757Y-127337819D01*
X165503848Y-127363622D01*
X165429812Y-127379355D01*
X165349696Y-127384734D01*
X165269609Y-127379331D01*
X165195591Y-127363527D01*
X165126684Y-127337600D01*
X165062094Y-127301377D01*
X165001222Y-127254248D01*
X164945599Y-127196492D01*
X164903422Y-127134857D01*
X164873505Y-127068720D01*
X164855338Y-126997125D01*
X164849120Y-126918841D01*
X164849227Y-126917498D01*
X165009344Y-126917498D01*
X165015988Y-126980936D01*
X165035402Y-127037690D01*
X165067787Y-127089308D01*
X165114612Y-127136767D01*
X165166374Y-127173266D01*
X165221877Y-127199096D01*
X165281938Y-127214758D01*
X165347620Y-127220115D01*
X165414040Y-127214785D01*
X165474691Y-127199218D01*
X165530637Y-127173586D01*
X165582704Y-127137438D01*
X165630153Y-127089902D01*
X165662942Y-127038156D01*
X165682591Y-126981213D01*
X165689316Y-126917498D01*
X165682621Y-126854847D01*
X165663028Y-126798688D01*
X165630253Y-126747474D01*
X165582704Y-126700244D01*
X165530651Y-126664351D01*
X165475028Y-126638949D01*
X165415049Y-126623558D01*
X165349696Y-126618300D01*
X165283954Y-126623569D01*
X165223731Y-126638978D01*
X165167998Y-126664383D01*
X165115956Y-126700244D01*
X165068406Y-126747474D01*
X165035631Y-126798688D01*
X165016038Y-126854847D01*
X165009344Y-126917498D01*
X164849227Y-126917498D01*
X164855329Y-126840853D01*
X164873479Y-126769465D01*
X164903384Y-126703455D01*
X164945565Y-126641875D01*
X165001222Y-126584106D01*
X165062414Y-126536664D01*
X165127175Y-126500246D01*
X165196093Y-126474212D01*
X165269952Y-126458362D01*
X165349696Y-126452948D01*
X165430424Y-126458348D01*
G37*
G36*
X165812903Y-128457876D02*
G01*
X165825725Y-128453602D01*
X165830000Y-128440779D01*
X165827984Y-128403532D01*
X165825908Y-128366346D01*
X165827984Y-128328733D01*
X165830000Y-128291181D01*
X165824871Y-128278803D01*
X165807468Y-128274145D01*
X165547655Y-128279579D01*
X165287780Y-128285075D01*
X165277243Y-128283297D01*
X165274836Y-128279579D01*
X165282346Y-128269993D01*
X165386669Y-128224825D01*
X165679424Y-128105434D01*
X165834274Y-128044617D01*
X165838982Y-128034736D01*
X165841723Y-127995464D01*
X165837525Y-127938763D01*
X165830244Y-127924389D01*
X165675699Y-127858138D01*
X165274103Y-127683871D01*
X165264577Y-127675017D01*
X165279598Y-127669583D01*
X165543625Y-127672636D01*
X165807651Y-127675689D01*
X165825054Y-127671030D01*
X165830183Y-127658653D01*
X165828168Y-127623115D01*
X165826092Y-127587578D01*
X165828168Y-127551064D01*
X165830183Y-127514549D01*
X165826645Y-127501346D01*
X165817238Y-127497452D01*
X165590336Y-127504596D01*
X165363496Y-127511741D01*
X165127801Y-127504596D01*
X164892046Y-127497452D01*
X164882057Y-127501133D01*
X164877025Y-127513145D01*
X164867326Y-127600389D01*
X164864752Y-127653157D01*
X164869059Y-127659490D01*
X164891802Y-127672330D01*
X165245861Y-127830435D01*
X165540816Y-127956507D01*
X165599844Y-127983570D01*
X165607739Y-127989968D01*
X165600575Y-127996982D01*
X165553150Y-128019338D01*
X165304697Y-128119868D01*
X164896809Y-128276831D01*
X164873994Y-128289078D01*
X164868660Y-128299424D01*
X164871407Y-128369399D01*
X164874155Y-128439436D01*
X164878305Y-128452320D01*
X164890519Y-128456533D01*
X165126580Y-128451404D01*
X165362641Y-128446275D01*
X165588138Y-128452076D01*
X165812903Y-128457876D01*
G37*
G36*
X166076610Y-87683604D02*
G01*
X166366411Y-87697883D01*
X166629747Y-87702435D01*
X166903421Y-87693862D01*
X167177095Y-87685289D01*
X167191146Y-87690281D01*
X167196000Y-87705806D01*
X167193581Y-87748377D01*
X167191090Y-87791022D01*
X167194827Y-87841434D01*
X167198491Y-87890966D01*
X167194241Y-87903205D01*
X167181198Y-87907379D01*
X167009960Y-87902030D01*
X166837915Y-87896755D01*
X166805188Y-87902217D01*
X166796003Y-87913974D01*
X166792706Y-88048356D01*
X166793512Y-88122948D01*
X166801300Y-88152733D01*
X166813503Y-88171692D01*
X166829782Y-88182812D01*
X167175483Y-88331995D01*
X167191134Y-88344462D01*
X167196000Y-88360718D01*
X167193508Y-88411936D01*
X167191017Y-88463154D01*
X167193508Y-88510708D01*
X167196000Y-88558262D01*
X167193963Y-88568789D01*
X167189405Y-88571378D01*
X167157136Y-88559643D01*
X166969586Y-88473412D01*
X166781946Y-88386848D01*
X166751380Y-88375446D01*
X166742275Y-88378668D01*
X166730863Y-88391053D01*
X166682892Y-88449786D01*
X166636246Y-88491412D01*
X166590473Y-88518914D01*
X166542727Y-88535986D01*
X166480151Y-88547469D01*
X166399230Y-88551741D01*
X166312959Y-88543553D01*
X166240468Y-88520334D01*
X166179002Y-88482895D01*
X166126729Y-88430401D01*
X166090097Y-88373726D01*
X166062992Y-88307433D01*
X166045835Y-88229761D01*
X166039754Y-88138555D01*
X166041568Y-88034434D01*
X166211212Y-88034434D01*
X166216595Y-88144937D01*
X166230004Y-88217047D01*
X166248142Y-88261507D01*
X166276886Y-88296690D01*
X166317257Y-88322988D01*
X166372352Y-88340323D01*
X166446711Y-88346796D01*
X166506389Y-88340213D01*
X166552207Y-88322096D01*
X166587469Y-88293308D01*
X166613913Y-88252533D01*
X166631405Y-88196521D01*
X166637953Y-88120530D01*
X166633850Y-87952515D01*
X166629747Y-87904082D01*
X166626450Y-87893457D01*
X166469719Y-87893457D01*
X166294697Y-87895420D01*
X166232535Y-87899173D01*
X166224019Y-87906890D01*
X166215546Y-87941197D01*
X166211212Y-88034434D01*
X166041568Y-88034434D01*
X166043418Y-87928262D01*
X166047081Y-87717236D01*
X166052276Y-87688991D01*
X166063494Y-87682798D01*
X166076610Y-87683604D01*
G37*
G36*
X167029157Y-89459225D02*
G01*
X167067332Y-89452630D01*
X167105508Y-89443618D01*
X167192702Y-89432187D01*
X167203676Y-89424985D01*
X167207503Y-89410865D01*
X167204206Y-89379724D01*
X167193745Y-89264982D01*
X167189332Y-89067435D01*
X167192702Y-88887037D01*
X167196000Y-88706713D01*
X167189808Y-88686149D01*
X167172259Y-88679675D01*
X166896680Y-88689860D01*
X166621101Y-88700118D01*
X166273128Y-88690300D01*
X166077416Y-88681287D01*
X166065912Y-88680481D01*
X166052044Y-88685127D01*
X166047081Y-88701803D01*
X166050305Y-88873921D01*
X166053529Y-89046039D01*
X166050305Y-89210390D01*
X166047081Y-89374815D01*
X166053831Y-89406035D01*
X166070382Y-89416580D01*
X166202127Y-89433799D01*
X166216012Y-89429257D01*
X166220591Y-89415774D01*
X166213557Y-89204675D01*
X166206523Y-88991964D01*
X166212324Y-88931760D01*
X166224621Y-88907114D01*
X166250063Y-88895242D01*
X166314234Y-88889528D01*
X166436819Y-88889528D01*
X166495218Y-88892020D01*
X166513793Y-88905440D01*
X166520717Y-88934591D01*
X166519911Y-88962508D01*
X166519911Y-88990352D01*
X166514489Y-89278900D01*
X166506648Y-89396943D01*
X166509570Y-89409953D01*
X166521230Y-89414162D01*
X166600658Y-89408007D01*
X166680818Y-89401852D01*
X166691225Y-89396696D01*
X166695546Y-89377306D01*
X166689757Y-89304326D01*
X166684848Y-89097770D01*
X166688145Y-88926385D01*
X166693266Y-88907307D01*
X166704354Y-88895242D01*
X166722657Y-88888722D01*
X166785965Y-88889528D01*
X166907671Y-88889528D01*
X166964918Y-88893564D01*
X166997646Y-88903150D01*
X167014576Y-88915760D01*
X167026174Y-88944396D01*
X167031868Y-89018196D01*
X167030989Y-89108394D01*
X167009300Y-89430502D01*
X167008421Y-89442812D01*
X167012237Y-89454681D01*
X167029157Y-89459225D01*
G37*
G36*
X167159070Y-90590191D02*
G01*
X167172396Y-90586198D01*
X167177242Y-90569675D01*
X167173331Y-90553750D01*
X167154014Y-90510251D01*
X167120968Y-90450020D01*
X167163291Y-90372824D01*
X167193971Y-90288343D01*
X167212905Y-90195401D01*
X167219447Y-90092595D01*
X167211992Y-89998046D01*
X167190313Y-89912504D01*
X167154791Y-89834379D01*
X167104935Y-89762442D01*
X167039415Y-89695896D01*
X166968808Y-89643080D01*
X166892885Y-89602166D01*
X166810877Y-89572658D01*
X166721780Y-89554549D01*
X166624398Y-89548325D01*
X166524351Y-89554516D01*
X166433425Y-89572466D01*
X166350354Y-89601589D01*
X166274069Y-89641778D01*
X166203739Y-89693405D01*
X166138492Y-89758913D01*
X166088672Y-89830501D01*
X166053027Y-89909029D01*
X166031177Y-89995823D01*
X166023634Y-90092595D01*
X166030160Y-90175385D01*
X166049739Y-90256092D01*
X166082838Y-90335642D01*
X166127702Y-90409053D01*
X166181562Y-90470858D01*
X166244918Y-90522194D01*
X166268585Y-90532819D01*
X166284691Y-90524488D01*
X166344129Y-90474200D01*
X166399662Y-90419730D01*
X166408170Y-90406570D01*
X166401622Y-90396966D01*
X166358271Y-90356598D01*
X166302854Y-90303145D01*
X166265801Y-90256580D01*
X166237641Y-90205102D01*
X166221298Y-90153483D01*
X166215902Y-90100802D01*
X166224053Y-90026570D01*
X166247848Y-89960656D01*
X166287629Y-89901088D01*
X166345448Y-89846692D01*
X166406644Y-89807507D01*
X166472846Y-89779491D01*
X166545008Y-89762374D01*
X166624325Y-89756493D01*
X166701263Y-89762423D01*
X166772413Y-89779820D01*
X166838855Y-89808553D01*
X166901443Y-89849110D01*
X166959903Y-89904388D01*
X166999935Y-89964162D01*
X167023750Y-90029546D01*
X167031868Y-90102414D01*
X167026681Y-90176248D01*
X167011332Y-90246272D01*
X166985821Y-90313257D01*
X166949729Y-90377847D01*
X166793658Y-90363925D01*
X166638466Y-90354106D01*
X166628266Y-90358246D01*
X166624471Y-90372131D01*
X166626523Y-90418879D01*
X166628575Y-90465554D01*
X166626963Y-90513108D01*
X166625277Y-90560662D01*
X166630984Y-90572956D01*
X166651655Y-90577882D01*
X166738704Y-90575830D01*
X166825752Y-90573778D01*
X166955175Y-90577185D01*
X167147566Y-90589385D01*
X167159070Y-90590191D01*
G37*
G36*
X148871058Y-80224502D02*
G01*
X148879650Y-80221977D01*
X148894384Y-80211496D01*
X148951380Y-80154339D01*
X148994414Y-80093537D01*
X149024827Y-80028493D01*
X149043245Y-79958256D01*
X149049539Y-79881585D01*
X149043214Y-79800824D01*
X149024956Y-79728998D01*
X148995270Y-79664580D01*
X148953882Y-79606394D01*
X148899757Y-79553689D01*
X148842426Y-79513133D01*
X148779712Y-79481377D01*
X148710884Y-79458240D01*
X148635019Y-79443914D01*
X148551039Y-79438956D01*
X148467203Y-79443978D01*
X148391251Y-79458511D01*
X148322123Y-79482027D01*
X148258916Y-79514371D01*
X148200917Y-79555765D01*
X148145904Y-79609114D01*
X148103938Y-79667717D01*
X148073913Y-79732298D01*
X148055491Y-79804004D01*
X148049120Y-79884333D01*
X148055233Y-79966800D01*
X148072683Y-80038502D01*
X148100681Y-80101209D01*
X148139195Y-80156307D01*
X148188949Y-80204719D01*
X148203063Y-80213359D01*
X148212824Y-80215648D01*
X148228948Y-80210057D01*
X148281395Y-80179439D01*
X148330753Y-80144999D01*
X148338304Y-80135720D01*
X148333092Y-80125029D01*
X148304720Y-80094077D01*
X148267287Y-80053267D01*
X148242927Y-80018239D01*
X148224354Y-79977945D01*
X148213154Y-79934906D01*
X148209344Y-79888424D01*
X148216129Y-79823012D01*
X148235542Y-79767384D01*
X148267282Y-79719472D01*
X148312536Y-79678009D01*
X148359969Y-79649563D01*
X148413766Y-79628708D01*
X148475006Y-79615658D01*
X148544994Y-79611086D01*
X148614960Y-79615591D01*
X148676581Y-79628481D01*
X148731079Y-79649130D01*
X148779467Y-79677337D01*
X148826118Y-79718975D01*
X148858670Y-79766858D01*
X148878496Y-79822208D01*
X148885408Y-79887081D01*
X148881738Y-79930882D01*
X148870698Y-79973729D01*
X148851946Y-80016163D01*
X148826454Y-80056281D01*
X148789909Y-80099511D01*
X148756448Y-80138468D01*
X148762759Y-80145514D01*
X148811036Y-80183531D01*
X148860895Y-80219286D01*
X148871058Y-80224502D01*
G37*
G36*
X148630424Y-80276492D02*
G01*
X148704809Y-80292263D01*
X148773831Y-80318093D01*
X148838304Y-80354116D01*
X148898841Y-80400907D01*
X148953808Y-80458295D01*
X148995578Y-80519795D01*
X149025274Y-80586048D01*
X149043344Y-80658027D01*
X149049539Y-80736985D01*
X149043337Y-80815600D01*
X149025227Y-80887423D01*
X148995428Y-80953689D01*
X148953461Y-81015359D01*
X148898169Y-81073063D01*
X148837332Y-81119928D01*
X148772757Y-81155963D01*
X148703848Y-81181766D01*
X148629812Y-81197498D01*
X148549696Y-81202878D01*
X148469609Y-81197475D01*
X148395591Y-81181671D01*
X148326684Y-81155743D01*
X148262094Y-81119521D01*
X148201222Y-81072391D01*
X148145599Y-81014636D01*
X148103422Y-80953001D01*
X148073505Y-80886864D01*
X148055338Y-80815269D01*
X148049120Y-80736985D01*
X148049227Y-80735642D01*
X148209344Y-80735642D01*
X148215988Y-80799080D01*
X148235402Y-80855834D01*
X148267787Y-80907452D01*
X148314612Y-80954911D01*
X148366374Y-80991409D01*
X148421877Y-81017240D01*
X148481938Y-81032901D01*
X148547620Y-81038258D01*
X148614040Y-81032929D01*
X148674691Y-81017362D01*
X148730637Y-80991729D01*
X148782704Y-80955582D01*
X148830153Y-80908046D01*
X148862942Y-80856300D01*
X148882591Y-80799357D01*
X148889316Y-80735642D01*
X148882621Y-80672991D01*
X148863028Y-80616832D01*
X148830253Y-80565617D01*
X148782704Y-80518387D01*
X148730651Y-80482495D01*
X148675028Y-80457093D01*
X148615049Y-80441702D01*
X148549696Y-80436444D01*
X148483954Y-80441713D01*
X148423731Y-80457122D01*
X148367998Y-80482527D01*
X148315956Y-80518387D01*
X148268406Y-80565617D01*
X148235631Y-80616832D01*
X148216038Y-80672991D01*
X148209344Y-80735642D01*
X148049227Y-80735642D01*
X148055329Y-80658997D01*
X148073479Y-80587609D01*
X148103384Y-80521599D01*
X148145565Y-80460019D01*
X148201222Y-80402250D01*
X148262414Y-80354808D01*
X148327175Y-80318390D01*
X148396093Y-80292355D01*
X148469952Y-80276505D01*
X148549696Y-80271092D01*
X148630424Y-80276492D01*
G37*
G36*
X149015650Y-81503419D02*
G01*
X149026025Y-81498980D01*
X149030000Y-81483635D01*
X149027984Y-81446022D01*
X149025908Y-81408469D01*
X149027984Y-81370245D01*
X149030000Y-81332693D01*
X149025965Y-81319751D01*
X149014307Y-81315596D01*
X148779895Y-81322740D01*
X148544811Y-81329884D01*
X148317238Y-81322740D01*
X148089603Y-81315596D01*
X148076712Y-81319626D01*
X148072568Y-81331289D01*
X148074644Y-81370917D01*
X148076659Y-81411217D01*
X148074644Y-81448098D01*
X148072568Y-81484979D01*
X148076287Y-81498678D01*
X148086245Y-81502747D01*
X148315528Y-81497252D01*
X148544811Y-81491817D01*
X148780261Y-81497618D01*
X149015650Y-81503419D01*
G37*
G36*
X148083742Y-82506097D02*
G01*
X148321512Y-82500601D01*
X148559954Y-82495167D01*
X148783681Y-82496510D01*
X149007407Y-82497915D01*
X149024856Y-82493241D01*
X149030000Y-82480818D01*
X149027984Y-82450043D01*
X149025908Y-82419330D01*
X149027984Y-82385868D01*
X149030000Y-82352407D01*
X149025850Y-82340506D01*
X149009117Y-82323037D01*
X148413531Y-81875645D01*
X148346303Y-81821667D01*
X148350629Y-81817353D01*
X148374391Y-81814829D01*
X148690929Y-81818248D01*
X149007407Y-81821667D01*
X149025238Y-81817665D01*
X149030000Y-81807990D01*
X149027984Y-81772452D01*
X149025908Y-81736976D01*
X149027984Y-81700401D01*
X149030000Y-81663886D01*
X149026325Y-81650757D01*
X149016322Y-81646789D01*
X148789481Y-81653934D01*
X148561908Y-81661078D01*
X148263504Y-81654972D01*
X148095160Y-81648133D01*
X148086245Y-81647461D01*
X148078855Y-81650566D01*
X148075315Y-81663825D01*
X148072568Y-81733496D01*
X148068110Y-81769705D01*
X148064752Y-81805242D01*
X148067812Y-81811803D01*
X148082887Y-81826430D01*
X148726161Y-82307344D01*
X148756936Y-82333967D01*
X148719059Y-82337155D01*
X148625289Y-82338729D01*
X148357965Y-82332257D01*
X148091252Y-82325785D01*
X148073421Y-82329787D01*
X148068660Y-82339462D01*
X148070736Y-82376648D01*
X148072751Y-82413895D01*
X148070736Y-82452791D01*
X148068660Y-82491748D01*
X148072369Y-82502451D01*
X148083742Y-82506097D01*
G37*
G36*
X149182457Y-75894036D02*
G01*
X149187500Y-75910214D01*
X149184065Y-76030962D01*
X149180630Y-76151862D01*
X149183225Y-76316191D01*
X149185820Y-76480597D01*
X149178670Y-76551141D01*
X149157877Y-76613722D01*
X149123414Y-76670077D01*
X149073927Y-76721329D01*
X149018185Y-76760412D01*
X148957710Y-76788225D01*
X148891549Y-76805184D01*
X148818464Y-76811012D01*
X148769338Y-76806712D01*
X148721293Y-76793759D01*
X148673674Y-76771704D01*
X148630433Y-76742213D01*
X148595559Y-76707608D01*
X148568191Y-76667520D01*
X148554655Y-76646495D01*
X148549415Y-76642790D01*
X148528120Y-76667520D01*
X148489248Y-76711478D01*
X148432331Y-76750333D01*
X148368432Y-76776415D01*
X148310057Y-76784527D01*
X148227661Y-76775781D01*
X148160279Y-76751129D01*
X148104648Y-76711296D01*
X148058869Y-76654773D01*
X148023687Y-76580603D01*
X148000760Y-76486817D01*
X147992389Y-76368704D01*
X147991958Y-76250857D01*
X148142140Y-76250857D01*
X148149572Y-76388093D01*
X148166793Y-76463500D01*
X148193051Y-76511195D01*
X148227646Y-76543853D01*
X148271788Y-76563875D01*
X148328528Y-76571044D01*
X148370843Y-76564713D01*
X148405266Y-76546456D01*
X148433842Y-76515208D01*
X148456895Y-76467284D01*
X148472984Y-76396955D01*
X148477924Y-76317413D01*
X148645280Y-76317413D01*
X148652403Y-76433688D01*
X148669323Y-76501053D01*
X148692423Y-76542252D01*
X148722774Y-76570522D01*
X148761463Y-76587878D01*
X148811137Y-76594094D01*
X148872401Y-76588411D01*
X148919177Y-76572951D01*
X148954748Y-76549024D01*
X148981267Y-76516394D01*
X148998966Y-76475134D01*
X149011589Y-76412899D01*
X149016530Y-76322527D01*
X149012255Y-76160334D01*
X149005092Y-76113121D01*
X148999356Y-76105685D01*
X148903949Y-76103929D01*
X148809457Y-76102250D01*
X148668483Y-76102250D01*
X148660002Y-76111157D01*
X148650439Y-76162347D01*
X148645280Y-76317413D01*
X148477924Y-76317413D01*
X148479195Y-76296957D01*
X148473870Y-76159283D01*
X148463857Y-76112616D01*
X148454542Y-76104006D01*
X148393252Y-76103090D01*
X148332802Y-76102250D01*
X148247699Y-76104845D01*
X148163435Y-76107440D01*
X148155143Y-76114292D01*
X148146615Y-76149511D01*
X148142140Y-76250857D01*
X147991958Y-76250857D01*
X147991549Y-76138963D01*
X147990710Y-75910214D01*
X147995605Y-75893961D01*
X148009486Y-75888843D01*
X148306775Y-75897773D01*
X148604064Y-75906703D01*
X148886012Y-75897773D01*
X149167884Y-75888843D01*
X149182457Y-75894036D01*
G37*
G36*
X149184150Y-76880051D02*
G01*
X149187500Y-76893292D01*
X149187500Y-77085480D01*
X149181224Y-77094532D01*
X149148880Y-77110758D01*
X149058509Y-77138832D01*
X148971360Y-77167799D01*
X148936784Y-77188794D01*
X148928602Y-77204167D01*
X148926847Y-77364680D01*
X148926847Y-77499548D01*
X148928602Y-77664412D01*
X148937300Y-77684161D01*
X148972569Y-77708696D01*
X149058127Y-77739975D01*
X149147212Y-77770237D01*
X149180522Y-77789223D01*
X149187500Y-77801035D01*
X149184981Y-77849731D01*
X149182386Y-77898351D01*
X149184981Y-77945749D01*
X149187500Y-77993148D01*
X149184336Y-78009573D01*
X149177272Y-78013603D01*
X148514381Y-77756614D01*
X147999258Y-77554274D01*
X147971761Y-77539928D01*
X147966667Y-77532903D01*
X147971399Y-77487183D01*
X147976055Y-77440701D01*
X147975441Y-77433831D01*
X148232205Y-77433831D01*
X148486675Y-77538856D01*
X148665713Y-77604852D01*
X148708326Y-77615716D01*
X148723745Y-77607775D01*
X148736684Y-77575504D01*
X148742978Y-77493595D01*
X148742978Y-77405667D01*
X148742138Y-77321938D01*
X148734655Y-77280425D01*
X148723494Y-77262209D01*
X148709776Y-77257061D01*
X148645825Y-77277158D01*
X148232205Y-77433831D01*
X147975441Y-77433831D01*
X147971781Y-77392844D01*
X147967506Y-77345064D01*
X147973324Y-77335218D01*
X147999869Y-77322854D01*
X148164885Y-77257977D01*
X148564222Y-77097387D01*
X149137124Y-76888178D01*
X149175516Y-76876271D01*
X149184150Y-76880051D01*
G37*
G36*
X148149391Y-78904326D02*
G01*
X148166562Y-78900006D01*
X148171449Y-78888908D01*
X148161680Y-78586658D01*
X148579716Y-78578949D01*
X148874640Y-78586200D01*
X149169563Y-78593527D01*
X149182531Y-78587978D01*
X149187500Y-78568797D01*
X149184981Y-78521781D01*
X149182386Y-78474001D01*
X149184981Y-78426984D01*
X149187500Y-78380044D01*
X149182157Y-78364015D01*
X149166128Y-78358672D01*
X148873342Y-78366763D01*
X148579716Y-78374930D01*
X148161680Y-78365542D01*
X148176334Y-78042683D01*
X148174069Y-78034864D01*
X148167786Y-78032455D01*
X148123364Y-78040164D01*
X148078942Y-78051232D01*
X147996052Y-78063215D01*
X147987635Y-78069133D01*
X147984985Y-78077717D01*
X147985825Y-78087944D01*
X148001726Y-78365163D01*
X148005364Y-78486747D01*
X147991549Y-78765947D01*
X147982390Y-78876162D01*
X147986639Y-78894078D01*
X147997655Y-78900891D01*
X148079858Y-78899212D01*
X148114281Y-78901731D01*
X148149391Y-78904326D01*
G37*
G36*
X162929147Y-116341887D02*
G01*
X163008868Y-116296824D01*
X163079063Y-116264804D01*
X163086244Y-116251688D01*
X163058107Y-116172554D01*
X163036113Y-116095460D01*
X163029970Y-116041029D01*
X163036322Y-115982547D01*
X163053110Y-115941778D01*
X163078829Y-115913922D01*
X163114683Y-115896551D01*
X163164279Y-115890160D01*
X163197330Y-115895756D01*
X163229183Y-115913148D01*
X163261058Y-115944986D01*
X163293386Y-115995893D01*
X163400364Y-116192704D01*
X163446462Y-116238998D01*
X163498957Y-116271579D01*
X163559132Y-116291498D01*
X163628976Y-116298436D01*
X163701135Y-116292359D01*
X163764938Y-116274825D01*
X163821906Y-116246246D01*
X163873164Y-116206180D01*
X163919356Y-116153356D01*
X163960208Y-116086228D01*
X163989909Y-116011352D01*
X164008343Y-115927409D01*
X164014757Y-115832787D01*
X164011146Y-115772122D01*
X164003559Y-115746011D01*
X163994974Y-115737752D01*
X163903456Y-115722951D01*
X163829304Y-115702508D01*
X163815235Y-115700017D01*
X163806672Y-115703026D01*
X163803732Y-115712327D01*
X163808421Y-115772557D01*
X163813110Y-115833667D01*
X163806755Y-115923568D01*
X163790108Y-115987915D01*
X163765786Y-116032873D01*
X163734789Y-116063118D01*
X163696308Y-116081335D01*
X163647880Y-116087777D01*
X163611220Y-116082129D01*
X163576391Y-116064823D01*
X163542177Y-116033806D01*
X163508076Y-115985268D01*
X163397067Y-115794319D01*
X163351491Y-115749097D01*
X163299682Y-115717253D01*
X163240387Y-115697783D01*
X163171680Y-115691004D01*
X163096668Y-115697684D01*
X163032011Y-115716783D01*
X162975753Y-115747717D01*
X162926509Y-115791022D01*
X162888402Y-115842128D01*
X162860835Y-115900295D01*
X162843701Y-115966848D01*
X162837702Y-116043520D01*
X162842746Y-116111090D01*
X162859538Y-116194316D01*
X162888338Y-116280051D01*
X162918229Y-116333681D01*
X162929147Y-116341887D01*
G37*
G36*
X162882106Y-116466744D02*
G01*
X163170855Y-116481037D01*
X163430846Y-116485575D01*
X163701150Y-116477808D01*
X163970574Y-116470041D01*
X163990082Y-116475538D01*
X163996000Y-116490558D01*
X163993508Y-116533129D01*
X163991017Y-116576580D01*
X163994754Y-116628604D01*
X163998491Y-116680701D01*
X163994853Y-116692538D01*
X163984422Y-116696308D01*
X163853337Y-116690959D01*
X163722252Y-116685610D01*
X163702284Y-116689021D01*
X163692026Y-116697587D01*
X163688473Y-116711842D01*
X163692210Y-116854064D01*
X163695874Y-116995481D01*
X163687786Y-117089219D01*
X163664887Y-117168362D01*
X163628210Y-117235649D01*
X163577392Y-117293042D01*
X163517168Y-117337323D01*
X163447203Y-117369681D01*
X163365655Y-117389993D01*
X163270159Y-117397163D01*
X163181506Y-117389670D01*
X163102989Y-117368036D01*
X163032759Y-117332744D01*
X162969447Y-117283224D01*
X162915952Y-117221160D01*
X162878059Y-117151948D01*
X162854890Y-117074136D01*
X162846861Y-116985662D01*
X162848334Y-116934005D01*
X163011212Y-116934005D01*
X163016421Y-116993730D01*
X163031188Y-117044270D01*
X163054883Y-117087356D01*
X163087782Y-117124221D01*
X163140201Y-117160173D01*
X163204281Y-117182606D01*
X163283201Y-117190607D01*
X163357554Y-117183322D01*
X163417307Y-117163021D01*
X163465577Y-117130743D01*
X163504127Y-117083869D01*
X163527933Y-117025453D01*
X163536432Y-116952030D01*
X163533341Y-116766282D01*
X163527493Y-116702023D01*
X163521775Y-116687341D01*
X163516062Y-116683998D01*
X163413480Y-116681946D01*
X163310898Y-116679895D01*
X163066248Y-116682434D01*
X163030776Y-116685610D01*
X163026324Y-116700367D01*
X163017734Y-116799549D01*
X163011212Y-116934005D01*
X162848334Y-116934005D01*
X162850159Y-116870038D01*
X162853383Y-116754487D01*
X162852577Y-116620471D01*
X162851771Y-116487260D01*
X162856589Y-116470509D01*
X162869796Y-116465938D01*
X162882106Y-116466744D01*
G37*
G36*
X163957458Y-118423935D02*
G01*
X163981035Y-118420563D01*
X163992352Y-118412555D01*
X163996000Y-118400195D01*
X163996000Y-118211664D01*
X163987825Y-118197805D01*
X163944002Y-118162979D01*
X163821683Y-118087906D01*
X163683840Y-118011839D01*
X163608826Y-117975579D01*
X163538411Y-117943558D01*
X163506041Y-117915437D01*
X163495033Y-117886186D01*
X163494227Y-117831231D01*
X163499004Y-117761055D01*
X163508633Y-117734247D01*
X163519579Y-117727990D01*
X163744747Y-117733265D01*
X163968962Y-117738614D01*
X163989838Y-117733011D01*
X163996000Y-117718098D01*
X163993581Y-117671423D01*
X163991090Y-117624675D01*
X163993581Y-117580858D01*
X163996000Y-117537041D01*
X163991158Y-117521510D01*
X163977168Y-117516524D01*
X163706572Y-117525097D01*
X163435902Y-117533670D01*
X163150504Y-117525097D01*
X162865106Y-117516524D01*
X162851781Y-117521438D01*
X162847081Y-117537041D01*
X162849572Y-117582103D01*
X162851990Y-117627972D01*
X162849572Y-117672229D01*
X162847081Y-117716559D01*
X162851052Y-117731062D01*
X162861736Y-117735390D01*
X163070563Y-117730847D01*
X163280124Y-117726378D01*
X163320131Y-117730481D01*
X163330548Y-117740911D01*
X163334785Y-117764113D01*
X163326898Y-117869007D01*
X163306213Y-117944163D01*
X163275801Y-117996901D01*
X163236939Y-118033942D01*
X163175488Y-118073787D01*
X163084265Y-118116556D01*
X162865839Y-118198548D01*
X162854616Y-118207244D01*
X162847081Y-118223974D01*
X162843784Y-118310875D01*
X162848399Y-118371374D01*
X162857875Y-118395165D01*
X162869136Y-118401001D01*
X162895097Y-118395581D01*
X163001614Y-118363265D01*
X163091513Y-118330028D01*
X163171902Y-118291707D01*
X163243634Y-118248520D01*
X163312994Y-118195921D01*
X163386736Y-118124762D01*
X163404406Y-118109168D01*
X163417803Y-118105052D01*
X163444596Y-118114083D01*
X163564349Y-118171437D01*
X163672053Y-118228953D01*
X163747385Y-118275558D01*
X163941851Y-118419832D01*
X163957458Y-118423935D01*
G37*
G36*
X162876610Y-118516039D02*
G01*
X163166411Y-118530318D01*
X163429747Y-118534870D01*
X163703421Y-118526297D01*
X163977095Y-118517725D01*
X163991146Y-118522717D01*
X163996000Y-118538241D01*
X163993581Y-118580812D01*
X163991090Y-118623457D01*
X163994827Y-118673869D01*
X163998491Y-118723401D01*
X163994241Y-118735641D01*
X163981198Y-118739815D01*
X163809960Y-118734466D01*
X163637915Y-118729190D01*
X163605188Y-118734652D01*
X163596003Y-118746409D01*
X163592706Y-118880792D01*
X163593512Y-118955383D01*
X163601300Y-118985168D01*
X163613503Y-119004127D01*
X163629782Y-119015247D01*
X163975483Y-119164431D01*
X163991134Y-119176897D01*
X163996000Y-119193154D01*
X163993508Y-119244371D01*
X163991017Y-119295589D01*
X163993508Y-119343143D01*
X163996000Y-119390697D01*
X163993963Y-119401224D01*
X163989405Y-119403813D01*
X163957136Y-119392078D01*
X163769586Y-119305847D01*
X163581946Y-119219283D01*
X163551380Y-119207882D01*
X163542275Y-119211104D01*
X163530863Y-119223489D01*
X163482892Y-119282222D01*
X163436246Y-119323847D01*
X163390473Y-119351350D01*
X163342727Y-119368422D01*
X163280151Y-119379904D01*
X163199230Y-119384176D01*
X163112959Y-119375988D01*
X163040468Y-119352769D01*
X162979002Y-119315330D01*
X162926729Y-119262836D01*
X162890097Y-119206162D01*
X162862992Y-119139868D01*
X162845835Y-119062196D01*
X162839754Y-118970990D01*
X162841568Y-118866870D01*
X163011212Y-118866870D01*
X163016595Y-118977372D01*
X163030004Y-119049482D01*
X163048142Y-119093942D01*
X163076886Y-119129125D01*
X163117257Y-119155423D01*
X163172352Y-119172759D01*
X163246711Y-119179232D01*
X163306389Y-119172649D01*
X163352207Y-119154532D01*
X163387469Y-119125743D01*
X163413913Y-119084969D01*
X163431405Y-119028957D01*
X163437953Y-118952965D01*
X163433850Y-118784951D01*
X163429747Y-118736517D01*
X163426450Y-118725893D01*
X163269719Y-118725893D01*
X163094697Y-118727855D01*
X163032535Y-118731608D01*
X163024019Y-118739325D01*
X163015546Y-118773632D01*
X163011212Y-118866870D01*
X162841568Y-118866870D01*
X162843418Y-118760697D01*
X162847081Y-118549672D01*
X162852276Y-118521426D01*
X162863494Y-118515233D01*
X162876610Y-118516039D01*
G37*
G36*
X146647522Y-124425316D02*
G01*
X146650753Y-124513282D01*
X146659832Y-124589007D01*
X146665529Y-124603576D01*
X146676172Y-124607838D01*
X146728269Y-124604175D01*
X146781099Y-124600438D01*
X146846808Y-124608275D01*
X146888294Y-124628338D01*
X146913063Y-124658763D01*
X146924746Y-124703673D01*
X146930282Y-124805822D01*
X146930282Y-124896167D01*
X146926618Y-125035825D01*
X146922955Y-125175483D01*
X146927915Y-125192368D01*
X146941786Y-125197612D01*
X147018869Y-125196806D01*
X147095952Y-125196000D01*
X147109887Y-125191032D01*
X147114710Y-125175556D01*
X147112732Y-124975888D01*
X147110680Y-124775487D01*
X147115579Y-124640161D01*
X147128805Y-124533491D01*
X147148415Y-124450668D01*
X147150027Y-124440849D01*
X147147484Y-124432609D01*
X147139403Y-124426928D01*
X147054113Y-124416376D01*
X146972121Y-124398791D01*
X146963073Y-124406711D01*
X146954902Y-124448323D01*
X146947417Y-124490446D01*
X146940174Y-124497856D01*
X146936071Y-124496170D01*
X146868879Y-124452133D01*
X146831181Y-124432132D01*
X146793408Y-124418355D01*
X146759109Y-124410993D01*
X146711489Y-124408170D01*
X146668354Y-124411330D01*
X146651568Y-124417776D01*
X146647522Y-124425316D01*
G37*
G36*
X146300878Y-124383522D02*
G01*
X146372965Y-124407492D01*
X146439148Y-124447535D01*
X146500610Y-124505403D01*
X146548139Y-124571024D01*
X146581654Y-124641115D01*
X146601916Y-124716705D01*
X146608834Y-124799154D01*
X146601160Y-124892458D01*
X146579322Y-124972461D01*
X146544249Y-125041544D01*
X146495701Y-125101478D01*
X146435873Y-125150036D01*
X146366697Y-125185157D01*
X146286359Y-125207054D01*
X146192424Y-125214757D01*
X146100284Y-125206432D01*
X146019397Y-125182431D01*
X145947597Y-125143219D01*
X145883360Y-125087922D01*
X145870244Y-125069237D01*
X145898967Y-125010253D01*
X145929668Y-124953759D01*
X145938314Y-124952147D01*
X145964473Y-124973103D01*
X146039905Y-125019210D01*
X146118587Y-125046257D01*
X146202243Y-125055316D01*
X146250939Y-125049985D01*
X146297607Y-125033940D01*
X146343220Y-125006369D01*
X146383718Y-124968375D01*
X146409575Y-124927210D01*
X146422721Y-124881806D01*
X145997667Y-124846902D01*
X145915307Y-124834911D01*
X145886132Y-124816818D01*
X145869001Y-124790773D01*
X145862843Y-124754091D01*
X145867143Y-124703606D01*
X146057969Y-124703606D01*
X146064853Y-124710029D01*
X146105523Y-124718627D01*
X146268785Y-124735978D01*
X146395683Y-124741122D01*
X146419145Y-124736150D01*
X146425212Y-124724489D01*
X146418914Y-124678364D01*
X146399890Y-124635082D01*
X146366594Y-124593330D01*
X146324710Y-124560237D01*
X146280493Y-124541155D01*
X146232578Y-124534785D01*
X146189767Y-124540345D01*
X146149853Y-124557041D01*
X146111678Y-124586003D01*
X146081237Y-124622788D01*
X146063781Y-124661571D01*
X146057969Y-124703606D01*
X145867143Y-124703606D01*
X145869381Y-124677337D01*
X145888386Y-124608307D01*
X145919605Y-124545542D01*
X145963667Y-124487964D01*
X146019033Y-124438303D01*
X146079538Y-124403559D01*
X146146324Y-124382558D01*
X146221074Y-124375344D01*
X146300878Y-124383522D01*
G37*
G36*
X145364588Y-124941963D02*
G01*
X145370850Y-125000828D01*
X145388967Y-125052142D01*
X145418946Y-125097568D01*
X145462114Y-125138114D01*
X145524197Y-125174928D01*
X145595326Y-125197506D01*
X145677756Y-125205378D01*
X145733517Y-125202960D01*
X145743150Y-125191891D01*
X145747438Y-125163320D01*
X145751981Y-125109904D01*
X145756451Y-125057294D01*
X145753157Y-125048953D01*
X145741723Y-125043519D01*
X145711388Y-125043519D01*
X145686769Y-125045937D01*
X145622593Y-125040575D01*
X145580051Y-125026899D01*
X145552973Y-125007216D01*
X145537292Y-124981730D01*
X145531796Y-124948484D01*
X145538052Y-124921798D01*
X145558727Y-124894632D01*
X145599867Y-124865612D01*
X145726922Y-124790947D01*
X145764677Y-124748195D01*
X145787184Y-124698105D01*
X145794993Y-124638320D01*
X145788892Y-124578700D01*
X145771441Y-124527939D01*
X145742938Y-124484181D01*
X145702376Y-124446272D01*
X145643742Y-124412946D01*
X145574107Y-124392106D01*
X145490837Y-124384722D01*
X145480926Y-124387356D01*
X145474057Y-124395347D01*
X145453541Y-124461293D01*
X145438374Y-124528044D01*
X145441627Y-124534900D01*
X145453981Y-124539475D01*
X145559713Y-124553616D01*
X145596455Y-124570372D01*
X145616157Y-124593188D01*
X145622801Y-124623519D01*
X145617155Y-124645127D01*
X145597470Y-124669451D01*
X145556416Y-124698184D01*
X145467757Y-124750987D01*
X145431779Y-124777831D01*
X145394663Y-124824139D01*
X145372346Y-124878072D01*
X145364588Y-124941963D01*
G37*
G36*
X144990173Y-124383522D02*
G01*
X145062261Y-124407492D01*
X145128444Y-124447535D01*
X145189905Y-124505403D01*
X145237434Y-124571024D01*
X145270949Y-124641115D01*
X145291211Y-124716705D01*
X145298129Y-124799154D01*
X145290455Y-124892458D01*
X145268617Y-124972461D01*
X145233544Y-125041544D01*
X145184996Y-125101478D01*
X145125169Y-125150036D01*
X145055992Y-125185157D01*
X144975654Y-125207054D01*
X144881720Y-125214757D01*
X144789579Y-125206432D01*
X144708692Y-125182431D01*
X144636892Y-125143219D01*
X144572655Y-125087922D01*
X144559539Y-125069237D01*
X144588262Y-125010253D01*
X144618963Y-124953759D01*
X144627609Y-124952147D01*
X144653768Y-124973103D01*
X144729201Y-125019210D01*
X144807883Y-125046257D01*
X144891538Y-125055316D01*
X144940235Y-125049985D01*
X144986902Y-125033940D01*
X145032515Y-125006369D01*
X145073014Y-124968375D01*
X145098870Y-124927210D01*
X145112016Y-124881806D01*
X144686963Y-124846902D01*
X144604602Y-124834911D01*
X144575427Y-124816818D01*
X144558296Y-124790773D01*
X144552138Y-124754091D01*
X144556438Y-124703606D01*
X144747264Y-124703606D01*
X144754148Y-124710029D01*
X144794818Y-124718627D01*
X144958080Y-124735978D01*
X145084979Y-124741122D01*
X145108440Y-124736150D01*
X145114508Y-124724489D01*
X145108209Y-124678364D01*
X145089186Y-124635082D01*
X145055889Y-124593330D01*
X145014006Y-124560237D01*
X144969788Y-124541155D01*
X144921873Y-124534785D01*
X144879062Y-124540345D01*
X144839148Y-124557041D01*
X144800973Y-124586003D01*
X144770532Y-124622788D01*
X144753076Y-124661571D01*
X144747264Y-124703606D01*
X144556438Y-124703606D01*
X144558676Y-124677337D01*
X144577682Y-124608307D01*
X144608900Y-124545542D01*
X144652962Y-124487964D01*
X144708329Y-124438303D01*
X144768833Y-124403559D01*
X144835619Y-124382558D01*
X144910369Y-124375344D01*
X144990173Y-124383522D01*
G37*
G36*
X143980903Y-125042420D02*
G01*
X143984200Y-125093051D01*
X143989110Y-125144562D01*
X143991528Y-125163173D01*
X144007135Y-125174311D01*
X144053476Y-125189926D01*
X144121728Y-125201053D01*
X144218674Y-125205378D01*
X144282122Y-125199607D01*
X144329290Y-125184096D01*
X144364033Y-125160407D01*
X144388891Y-125128409D01*
X144404713Y-125086317D01*
X144410502Y-125030989D01*
X144407205Y-124820842D01*
X144403907Y-124610696D01*
X144407828Y-124591318D01*
X144418490Y-124579841D01*
X144437540Y-124574499D01*
X144497330Y-124573693D01*
X144508511Y-124560609D01*
X144514549Y-124506942D01*
X144511252Y-124457336D01*
X144503882Y-124442057D01*
X144485020Y-124433742D01*
X144444867Y-124432936D01*
X144422919Y-124428019D01*
X144411298Y-124417243D01*
X144407205Y-124399597D01*
X144409256Y-124300385D01*
X144411308Y-124200295D01*
X144407492Y-124161703D01*
X144399252Y-124145363D01*
X144388374Y-124140870D01*
X144234207Y-124164318D01*
X144219793Y-124170356D01*
X144215376Y-124182343D01*
X144220725Y-124290420D01*
X144226001Y-124398498D01*
X144220340Y-124416439D01*
X144203872Y-124422238D01*
X144007208Y-124422238D01*
X143996318Y-124424986D01*
X143993213Y-124432057D01*
X143996144Y-124463491D01*
X143999002Y-124495731D01*
X143998196Y-124533320D01*
X143997316Y-124570836D01*
X144002353Y-124581971D01*
X144020324Y-124586369D01*
X144119462Y-124581680D01*
X144218674Y-124576990D01*
X144222979Y-124583146D01*
X144228492Y-124623812D01*
X144232595Y-124787137D01*
X144232595Y-124909429D01*
X144228565Y-124974592D01*
X144219480Y-125007908D01*
X144202530Y-125030925D01*
X144176623Y-125045260D01*
X144138293Y-125050626D01*
X144063702Y-125038903D01*
X143990722Y-125027179D01*
X143983723Y-125030461D01*
X143980903Y-125042420D01*
G37*
G36*
X160435497Y-105761058D02*
G01*
X160438022Y-105769650D01*
X160448503Y-105784384D01*
X160505660Y-105841380D01*
X160566462Y-105884414D01*
X160631506Y-105914827D01*
X160701743Y-105933245D01*
X160778414Y-105939539D01*
X160859175Y-105933214D01*
X160931001Y-105914956D01*
X160995419Y-105885270D01*
X161053605Y-105843882D01*
X161106310Y-105789757D01*
X161146866Y-105732426D01*
X161178622Y-105669712D01*
X161201759Y-105600884D01*
X161216085Y-105525019D01*
X161221043Y-105441039D01*
X161216021Y-105357203D01*
X161201488Y-105281251D01*
X161177972Y-105212123D01*
X161145628Y-105148916D01*
X161104234Y-105090917D01*
X161050885Y-105035904D01*
X160992282Y-104993938D01*
X160927701Y-104963913D01*
X160855995Y-104945491D01*
X160775666Y-104939120D01*
X160693199Y-104945233D01*
X160621497Y-104962683D01*
X160558790Y-104990681D01*
X160503692Y-105029195D01*
X160455280Y-105078949D01*
X160446640Y-105093063D01*
X160444351Y-105102824D01*
X160449942Y-105118948D01*
X160480560Y-105171395D01*
X160515000Y-105220753D01*
X160524279Y-105228304D01*
X160534970Y-105223092D01*
X160565922Y-105194720D01*
X160606732Y-105157287D01*
X160641760Y-105132927D01*
X160682054Y-105114354D01*
X160725093Y-105103154D01*
X160771575Y-105099344D01*
X160836987Y-105106129D01*
X160892615Y-105125542D01*
X160940527Y-105157282D01*
X160981990Y-105202536D01*
X161010436Y-105249969D01*
X161031291Y-105303766D01*
X161044341Y-105365006D01*
X161048913Y-105434994D01*
X161044408Y-105504960D01*
X161031518Y-105566581D01*
X161010869Y-105621079D01*
X160982662Y-105669467D01*
X160941024Y-105716118D01*
X160893141Y-105748670D01*
X160837791Y-105768496D01*
X160772918Y-105775408D01*
X160729117Y-105771738D01*
X160686270Y-105760698D01*
X160643836Y-105741946D01*
X160603718Y-105716454D01*
X160560488Y-105679909D01*
X160521531Y-105646448D01*
X160514485Y-105652759D01*
X160476468Y-105701036D01*
X160440713Y-105750895D01*
X160435497Y-105761058D01*
G37*
G36*
X160024802Y-104965132D02*
G01*
X160121095Y-104967819D01*
X160232775Y-104967147D01*
X160343784Y-104966475D01*
X160357743Y-104970491D01*
X160361552Y-104981496D01*
X160360881Y-104991755D01*
X160348970Y-105232379D01*
X160345188Y-105449038D01*
X160351660Y-105674291D01*
X160358133Y-105898811D01*
X160353553Y-105915069D01*
X160341036Y-105920000D01*
X160305560Y-105917923D01*
X160269351Y-105915847D01*
X160225997Y-105918961D01*
X160182583Y-105922076D01*
X160172719Y-105919044D01*
X160169577Y-105910352D01*
X160174035Y-105801114D01*
X160178492Y-105691877D01*
X160175650Y-105675236D01*
X160168512Y-105666688D01*
X160156632Y-105663728D01*
X160038114Y-105666842D01*
X159920266Y-105669895D01*
X159842151Y-105663155D01*
X159776199Y-105644072D01*
X159720127Y-105613508D01*
X159672299Y-105571160D01*
X159635398Y-105520973D01*
X159608433Y-105462669D01*
X159591506Y-105394713D01*
X159586348Y-105326001D01*
X159757662Y-105326001D01*
X159763732Y-105387962D01*
X159780650Y-105437756D01*
X159807548Y-105477981D01*
X159846609Y-105510106D01*
X159895290Y-105529944D01*
X159956475Y-105537027D01*
X160111266Y-105534451D01*
X160164815Y-105529577D01*
X160177050Y-105524813D01*
X160179836Y-105520052D01*
X160181545Y-105434567D01*
X160183255Y-105349082D01*
X160181139Y-105145207D01*
X160178492Y-105115647D01*
X160166195Y-105111937D01*
X160083543Y-105104778D01*
X159971496Y-105099344D01*
X159921726Y-105103684D01*
X159879609Y-105115990D01*
X159843704Y-105135736D01*
X159812983Y-105163152D01*
X159783023Y-105206834D01*
X159764329Y-105260234D01*
X159757662Y-105326001D01*
X159586348Y-105326001D01*
X159585532Y-105315132D01*
X159591775Y-105241255D01*
X159609804Y-105175824D01*
X159639214Y-105117299D01*
X159680481Y-105064539D01*
X159732200Y-105019960D01*
X159789877Y-104988382D01*
X159854720Y-104969075D01*
X159928449Y-104962384D01*
X160024802Y-104965132D01*
G37*
G36*
X158703265Y-104977588D02*
G01*
X158709738Y-105214382D01*
X158716210Y-105451114D01*
X158715539Y-105528539D01*
X158714867Y-105605170D01*
X158718770Y-105701435D01*
X158728479Y-105764224D01*
X158741489Y-105802763D01*
X158765622Y-105840206D01*
X158799026Y-105871631D01*
X158843249Y-105897443D01*
X158900675Y-105917252D01*
X158980468Y-105930334D01*
X159104923Y-105935631D01*
X159208918Y-105931196D01*
X159287727Y-105919406D01*
X159346219Y-105902201D01*
X159388634Y-105880998D01*
X159418469Y-105856557D01*
X159440294Y-105824920D01*
X159458304Y-105777278D01*
X159470976Y-105708231D01*
X159475867Y-105611277D01*
X159475195Y-105535317D01*
X159474462Y-105451114D01*
X159481301Y-105154726D01*
X159487468Y-104987786D01*
X159488140Y-104976856D01*
X159484010Y-104966400D01*
X159470371Y-104962568D01*
X159394534Y-104963239D01*
X159319368Y-104963911D01*
X159307289Y-104967231D01*
X159303675Y-104976184D01*
X159308133Y-105287777D01*
X159312590Y-105599309D01*
X159308414Y-105659382D01*
X159297355Y-105703606D01*
X159281008Y-105735593D01*
X159260017Y-105758128D01*
X159227309Y-105776450D01*
X159174660Y-105789672D01*
X159093993Y-105794947D01*
X159020408Y-105790726D01*
X158970316Y-105779987D01*
X158937555Y-105764966D01*
X158913263Y-105743815D01*
X158895126Y-105714848D01*
X158883229Y-105676052D01*
X158878815Y-105624527D01*
X158882234Y-105301088D01*
X158885654Y-104977588D01*
X158881591Y-104969363D01*
X158865870Y-104963911D01*
X158824837Y-104963911D01*
X158794795Y-104966659D01*
X158757609Y-104964644D01*
X158720362Y-104962568D01*
X158707360Y-104966484D01*
X158703265Y-104977588D01*
G37*
X165600000Y-106900000D02*
X170600000Y-106900000D01*
X170600000Y-111900000D01*
X165600000Y-111900000D01*
X165600000Y-106900000D01*
G36*
X165600000Y-106900000D02*
G01*
X170600000Y-106900000D01*
X170600000Y-111900000D01*
X165600000Y-111900000D01*
X165600000Y-106900000D01*
G37*
G36*
X152562630Y-128462813D02*
G01*
X152564425Y-128532318D01*
X152567564Y-128552450D01*
X152585650Y-128587143D01*
X152656078Y-128695870D01*
X152733283Y-128803008D01*
X152754459Y-128824000D01*
X152765797Y-128826124D01*
X152800376Y-128827272D01*
X152848443Y-128824000D01*
X152869305Y-128804799D01*
X152948436Y-128700755D01*
X153021093Y-128595433D01*
X153040809Y-128560608D01*
X153050059Y-128521470D01*
X153053949Y-128454265D01*
X153052875Y-128387244D01*
X153051751Y-128320175D01*
X153048747Y-128311163D01*
X153039734Y-128308159D01*
X152985903Y-128309819D01*
X152932023Y-128311431D01*
X152924744Y-128314063D01*
X152922205Y-128322325D01*
X152924403Y-128373860D01*
X152926601Y-128425395D01*
X152925166Y-128474484D01*
X152921130Y-128516986D01*
X152910636Y-128543753D01*
X152865687Y-128618347D01*
X152826446Y-128674439D01*
X152807915Y-128694989D01*
X152800376Y-128698947D01*
X152786558Y-128688067D01*
X152740781Y-128619959D01*
X152700544Y-128548598D01*
X152690516Y-128522457D01*
X152687466Y-128490180D01*
X152686120Y-128428424D01*
X152689685Y-128374348D01*
X152693251Y-128320175D01*
X152691200Y-128314020D01*
X152685045Y-128311969D01*
X152632044Y-128310064D01*
X152579581Y-128308159D01*
X152573365Y-128314606D01*
X152566389Y-128351457D01*
X152562630Y-128462813D01*
G37*
G36*
X152243289Y-128159290D02*
G01*
X152290871Y-128171878D01*
X152334453Y-128192575D01*
X152374730Y-128221762D01*
X152412128Y-128260336D01*
X152447837Y-128311870D01*
X152473263Y-128367741D01*
X152488768Y-128428819D01*
X152494096Y-128496226D01*
X152488783Y-128563590D01*
X152473298Y-128624843D01*
X152447873Y-128681078D01*
X152412128Y-128733141D01*
X152374671Y-128772178D01*
X152334363Y-128801679D01*
X152290782Y-128822575D01*
X152243233Y-128835274D01*
X152190795Y-128839631D01*
X152138120Y-128835267D01*
X152090405Y-128822554D01*
X152046723Y-128801646D01*
X152006372Y-128772149D01*
X151968925Y-128733141D01*
X151933471Y-128681380D01*
X151908206Y-128625259D01*
X151892792Y-128563912D01*
X151887494Y-128496226D01*
X152015917Y-128496226D01*
X152021091Y-128548420D01*
X152036324Y-128596265D01*
X152061835Y-128640817D01*
X152090243Y-128672714D01*
X152120765Y-128694347D01*
X152153952Y-128707118D01*
X152190795Y-128711452D01*
X152229143Y-128707105D01*
X152262854Y-128694445D01*
X152293030Y-128673280D01*
X152320293Y-128642429D01*
X152344301Y-128599341D01*
X152358945Y-128551034D01*
X152364012Y-128496226D01*
X152358946Y-128440627D01*
X152344427Y-128392538D01*
X152320830Y-128350510D01*
X152293955Y-128320578D01*
X152263846Y-128299899D01*
X152229840Y-128287447D01*
X152190795Y-128283148D01*
X152151749Y-128287438D01*
X152117634Y-128299881D01*
X152087328Y-128320562D01*
X152060174Y-128350510D01*
X152035876Y-128393296D01*
X152021052Y-128441426D01*
X152015917Y-128496226D01*
X151887494Y-128496226D01*
X151892800Y-128428505D01*
X151908225Y-128367238D01*
X151933490Y-128311294D01*
X151968925Y-128259799D01*
X152006285Y-128221474D01*
X152046590Y-128192440D01*
X152090275Y-128171828D01*
X152138037Y-128159279D01*
X152190795Y-128154969D01*
X152243289Y-128159290D01*
G37*
G36*
X151652044Y-128743448D02*
G01*
X151654766Y-128766522D01*
X151662786Y-128787305D01*
X151676371Y-128806414D01*
X151694027Y-128821519D01*
X151713721Y-128830366D01*
X151736210Y-128833378D01*
X151758631Y-128830284D01*
X151778220Y-128821184D01*
X151795757Y-128805584D01*
X151812925Y-128777119D01*
X151818715Y-128743448D01*
X151816040Y-128720030D01*
X151808249Y-128699462D01*
X151795219Y-128681069D01*
X151778150Y-128666642D01*
X151758744Y-128658109D01*
X151736210Y-128655179D01*
X151713290Y-128658141D01*
X151693510Y-128666772D01*
X151676078Y-128681362D01*
X151662694Y-128699934D01*
X151654753Y-128720413D01*
X151652044Y-128743448D01*
G37*
G36*
X151364570Y-128177831D02*
G01*
X151365108Y-128187649D01*
X151373870Y-128302228D01*
X151377662Y-128511564D01*
X151376587Y-128656058D01*
X151375464Y-128800552D01*
X151377730Y-128812936D01*
X151383556Y-128819475D01*
X151393538Y-128821801D01*
X151445464Y-128822925D01*
X151496266Y-128824000D01*
X151509267Y-128820326D01*
X151513217Y-128810273D01*
X151506085Y-128608382D01*
X151502812Y-128339519D01*
X151504571Y-128329279D01*
X151508283Y-128326916D01*
X151523027Y-128328796D01*
X151549560Y-128336295D01*
X151576127Y-128343773D01*
X151591374Y-128345674D01*
X151601431Y-128343695D01*
X151603928Y-128339226D01*
X151602561Y-128319882D01*
X151601193Y-128300587D01*
X151602316Y-128282855D01*
X151603391Y-128265123D01*
X151600903Y-128259191D01*
X151591374Y-128253204D01*
X151560163Y-128236379D01*
X151524159Y-128208361D01*
X151494068Y-128175535D01*
X151466762Y-128148717D01*
X151421381Y-128158926D01*
X151372240Y-128167475D01*
X151366500Y-128171146D01*
X151364570Y-128177831D01*
G37*
G36*
X146874815Y-128288386D02*
G01*
X146924082Y-128303650D01*
X146968891Y-128328917D01*
X147010062Y-128365018D01*
X147042864Y-128407302D01*
X147066040Y-128453209D01*
X147080114Y-128503520D01*
X147084947Y-128559289D01*
X147080114Y-128615059D01*
X147066040Y-128665369D01*
X147042864Y-128711277D01*
X147010062Y-128753560D01*
X146969090Y-128790138D01*
X146924363Y-128815729D01*
X146875042Y-128831194D01*
X146819895Y-128836505D01*
X146765063Y-128831175D01*
X146715931Y-128815639D01*
X146671275Y-128789890D01*
X146630265Y-128753023D01*
X146597444Y-128710453D01*
X146574268Y-128664344D01*
X146560205Y-128613928D01*
X146555477Y-128559289D01*
X146670711Y-128559289D01*
X146675366Y-128601547D01*
X146688960Y-128639098D01*
X146711695Y-128673057D01*
X146743303Y-128701599D01*
X146778880Y-128718274D01*
X146819895Y-128723958D01*
X146860577Y-128718301D01*
X146896171Y-128701649D01*
X146928094Y-128673057D01*
X146951147Y-128639061D01*
X146964908Y-128601514D01*
X146969616Y-128559289D01*
X146964924Y-128516299D01*
X146951296Y-128478581D01*
X146928632Y-128444935D01*
X146897133Y-128417434D01*
X146861382Y-128401243D01*
X146819895Y-128395695D01*
X146778466Y-128401304D01*
X146742905Y-128417664D01*
X146711695Y-128445472D01*
X146689050Y-128478784D01*
X146675414Y-128516313D01*
X146670711Y-128559289D01*
X146555477Y-128559289D01*
X146555380Y-128558166D01*
X146560240Y-128502731D01*
X146574399Y-128452723D01*
X146597733Y-128407078D01*
X146630802Y-128365018D01*
X146671719Y-128328905D01*
X146716264Y-128303642D01*
X146765257Y-128288384D01*
X146819895Y-128283148D01*
X146874815Y-128288386D01*
G37*
G36*
X146340104Y-128066798D02*
G01*
X146340642Y-128073881D01*
X146349933Y-128269775D01*
X146352707Y-128422757D01*
X146350509Y-128617370D01*
X146348311Y-128811445D01*
X146350773Y-128821216D01*
X146357103Y-128824000D01*
X146461444Y-128824000D01*
X146468606Y-128821109D01*
X146471263Y-128811445D01*
X146470188Y-128617370D01*
X146469113Y-128422757D01*
X146474877Y-128245584D01*
X146480593Y-128068996D01*
X146477768Y-128060833D01*
X146469113Y-128058054D01*
X146439609Y-128059715D01*
X146410055Y-128061327D01*
X146379476Y-128059715D01*
X146349385Y-128058054D01*
X146342068Y-128060325D01*
X146340104Y-128066798D01*
G37*
G36*
X146093907Y-128066798D02*
G01*
X146094445Y-128073881D01*
X146103736Y-128269775D01*
X146106510Y-128422757D01*
X146104312Y-128617370D01*
X146102114Y-128811445D01*
X146104576Y-128821216D01*
X146110907Y-128824000D01*
X146215247Y-128824000D01*
X146222409Y-128821109D01*
X146225066Y-128811445D01*
X146223991Y-128617370D01*
X146222916Y-128422757D01*
X146228681Y-128245584D01*
X146234396Y-128068996D01*
X146231571Y-128060833D01*
X146222916Y-128058054D01*
X146193412Y-128059715D01*
X146163859Y-128061327D01*
X146133279Y-128059715D01*
X146103189Y-128058054D01*
X146095871Y-128060325D01*
X146093907Y-128066798D01*
G37*
G36*
X145525847Y-128443713D02*
G01*
X145527759Y-128528249D01*
X145531318Y-128556456D01*
X145553761Y-128598256D01*
X145666580Y-128770608D01*
X145784341Y-128939893D01*
X145818792Y-128982562D01*
X145836190Y-128991279D01*
X145877636Y-128998817D01*
X145959769Y-129002199D01*
X145978087Y-128999219D01*
X145996650Y-128960189D01*
X146011109Y-128917105D01*
X146005795Y-128909147D01*
X145982142Y-128905284D01*
X145941340Y-128902916D01*
X145912225Y-128896765D01*
X145892016Y-128887942D01*
X145881790Y-128878255D01*
X145862219Y-128850573D01*
X145845821Y-128821135D01*
X145842288Y-128808368D01*
X145853268Y-128785344D01*
X145921521Y-128692304D01*
X145994515Y-128593133D01*
X146014968Y-128556456D01*
X146020044Y-128526231D01*
X146022588Y-128448647D01*
X146022051Y-128385681D01*
X146021514Y-128322129D01*
X146018320Y-128313165D01*
X146008374Y-128310064D01*
X145956741Y-128312262D01*
X145905108Y-128314411D01*
X145898752Y-128317038D01*
X145896364Y-128325939D01*
X145898025Y-128372199D01*
X145899637Y-128418361D01*
X145895289Y-128518501D01*
X145883921Y-128545744D01*
X145835743Y-128622743D01*
X145793936Y-128680630D01*
X145774240Y-128701881D01*
X145766280Y-128705981D01*
X145754470Y-128695512D01*
X145707271Y-128624111D01*
X145664531Y-128548777D01*
X145654270Y-128522897D01*
X145651276Y-128489593D01*
X145649923Y-128422269D01*
X145653196Y-128374983D01*
X145656468Y-128328235D01*
X145653943Y-128317369D01*
X145647725Y-128314411D01*
X145595017Y-128311969D01*
X145542260Y-128309478D01*
X145536112Y-128315351D01*
X145529420Y-128347677D01*
X145525847Y-128443713D01*
G37*
G36*
X145027250Y-128166986D02*
G01*
X145032139Y-128196200D01*
X145045472Y-128215793D01*
X145068003Y-128228302D01*
X145103747Y-128233127D01*
X145133785Y-128228814D01*
X145156748Y-128216714D01*
X145169433Y-128203279D01*
X145177040Y-128187005D01*
X145179706Y-128166986D01*
X145173950Y-128139094D01*
X145156748Y-128116721D01*
X145132902Y-128103313D01*
X145103747Y-128098696D01*
X145074591Y-128103313D01*
X145050746Y-128116721D01*
X145037613Y-128131174D01*
X145029896Y-128147689D01*
X145027250Y-128166986D01*
G37*
G36*
X145034333Y-128316170D02*
G01*
X145037606Y-128424956D01*
X145040879Y-128534327D01*
X145039804Y-128654642D01*
X145038729Y-128775542D01*
X145043144Y-128827552D01*
X145055473Y-128870145D01*
X145074940Y-128905148D01*
X145101605Y-128933878D01*
X145136361Y-128957009D01*
X145180830Y-128974502D01*
X145218819Y-128984147D01*
X145239839Y-128986568D01*
X145246704Y-128983955D01*
X145250781Y-128975137D01*
X145251856Y-128952227D01*
X145250244Y-128934251D01*
X145252149Y-128912709D01*
X145254054Y-128891704D01*
X145252118Y-128883680D01*
X145246971Y-128880273D01*
X145197839Y-128867574D01*
X145176971Y-128855556D01*
X145167755Y-128841612D01*
X145161092Y-128818280D01*
X145158408Y-128781404D01*
X145160607Y-128663337D01*
X145162756Y-128545270D01*
X145165471Y-128459494D01*
X145175359Y-128327210D01*
X145175896Y-128321152D01*
X145173639Y-128315056D01*
X145166078Y-128311285D01*
X145106531Y-128306107D01*
X145043077Y-128301906D01*
X145036882Y-128304925D01*
X145034333Y-128316170D01*
G37*
G36*
X144778073Y-128743448D02*
G01*
X144780795Y-128766522D01*
X144788816Y-128787305D01*
X144802400Y-128806414D01*
X144820056Y-128821519D01*
X144839750Y-128830366D01*
X144862240Y-128833378D01*
X144884660Y-128830284D01*
X144904249Y-128821184D01*
X144921786Y-128805584D01*
X144938955Y-128777119D01*
X144944745Y-128743448D01*
X144942070Y-128720030D01*
X144934279Y-128699462D01*
X144921249Y-128681069D01*
X144904179Y-128666642D01*
X144884773Y-128658109D01*
X144862240Y-128655179D01*
X144839319Y-128658141D01*
X144819540Y-128666772D01*
X144802107Y-128681362D01*
X144788723Y-128699934D01*
X144780783Y-128720413D01*
X144778073Y-128743448D01*
G37*
D11*
X163847200Y-76066667D02*
X163894819Y-76209524D01*
X163894819Y-76209524D02*
X163894819Y-76447619D01*
X163894819Y-76447619D02*
X163847200Y-76542857D01*
X163847200Y-76542857D02*
X163799580Y-76590476D01*
X163799580Y-76590476D02*
X163704342Y-76638095D01*
X163704342Y-76638095D02*
X163609104Y-76638095D01*
X163609104Y-76638095D02*
X163513866Y-76590476D01*
X163513866Y-76590476D02*
X163466247Y-76542857D01*
X163466247Y-76542857D02*
X163418628Y-76447619D01*
X163418628Y-76447619D02*
X163371009Y-76257143D01*
X163371009Y-76257143D02*
X163323390Y-76161905D01*
X163323390Y-76161905D02*
X163275771Y-76114286D01*
X163275771Y-76114286D02*
X163180533Y-76066667D01*
X163180533Y-76066667D02*
X163085295Y-76066667D01*
X163085295Y-76066667D02*
X162990057Y-76114286D01*
X162990057Y-76114286D02*
X162942438Y-76161905D01*
X162942438Y-76161905D02*
X162894819Y-76257143D01*
X162894819Y-76257143D02*
X162894819Y-76495238D01*
X162894819Y-76495238D02*
X162942438Y-76638095D01*
X162894819Y-76971429D02*
X163894819Y-77209524D01*
X163894819Y-77209524D02*
X163180533Y-77400000D01*
X163180533Y-77400000D02*
X163894819Y-77590476D01*
X163894819Y-77590476D02*
X162894819Y-77828572D01*
X163228152Y-78638095D02*
X163894819Y-78638095D01*
X162847200Y-78400000D02*
X163561485Y-78161905D01*
X163561485Y-78161905D02*
X163561485Y-78780952D01*
X147066666Y-87854819D02*
X147399999Y-87378628D01*
X147638094Y-87854819D02*
X147638094Y-86854819D01*
X147638094Y-86854819D02*
X147257142Y-86854819D01*
X147257142Y-86854819D02*
X147161904Y-86902438D01*
X147161904Y-86902438D02*
X147114285Y-86950057D01*
X147114285Y-86950057D02*
X147066666Y-87045295D01*
X147066666Y-87045295D02*
X147066666Y-87188152D01*
X147066666Y-87188152D02*
X147114285Y-87283390D01*
X147114285Y-87283390D02*
X147161904Y-87331009D01*
X147161904Y-87331009D02*
X147257142Y-87378628D01*
X147257142Y-87378628D02*
X147638094Y-87378628D01*
X146209523Y-86854819D02*
X146399999Y-86854819D01*
X146399999Y-86854819D02*
X146495237Y-86902438D01*
X146495237Y-86902438D02*
X146542856Y-86950057D01*
X146542856Y-86950057D02*
X146638094Y-87092914D01*
X146638094Y-87092914D02*
X146685713Y-87283390D01*
X146685713Y-87283390D02*
X146685713Y-87664342D01*
X146685713Y-87664342D02*
X146638094Y-87759580D01*
X146638094Y-87759580D02*
X146590475Y-87807200D01*
X146590475Y-87807200D02*
X146495237Y-87854819D01*
X146495237Y-87854819D02*
X146304761Y-87854819D01*
X146304761Y-87854819D02*
X146209523Y-87807200D01*
X146209523Y-87807200D02*
X146161904Y-87759580D01*
X146161904Y-87759580D02*
X146114285Y-87664342D01*
X146114285Y-87664342D02*
X146114285Y-87426247D01*
X146114285Y-87426247D02*
X146161904Y-87331009D01*
X146161904Y-87331009D02*
X146209523Y-87283390D01*
X146209523Y-87283390D02*
X146304761Y-87235771D01*
X146304761Y-87235771D02*
X146495237Y-87235771D01*
X146495237Y-87235771D02*
X146590475Y-87283390D01*
X146590475Y-87283390D02*
X146638094Y-87331009D01*
X146638094Y-87331009D02*
X146685713Y-87426247D01*
X169842857Y-118054819D02*
X170319047Y-118054819D01*
X170319047Y-118054819D02*
X170319047Y-117054819D01*
X169557142Y-118007200D02*
X169414285Y-118054819D01*
X169414285Y-118054819D02*
X169176190Y-118054819D01*
X169176190Y-118054819D02*
X169080952Y-118007200D01*
X169080952Y-118007200D02*
X169033333Y-117959580D01*
X169033333Y-117959580D02*
X168985714Y-117864342D01*
X168985714Y-117864342D02*
X168985714Y-117769104D01*
X168985714Y-117769104D02*
X169033333Y-117673866D01*
X169033333Y-117673866D02*
X169080952Y-117626247D01*
X169080952Y-117626247D02*
X169176190Y-117578628D01*
X169176190Y-117578628D02*
X169366666Y-117531009D01*
X169366666Y-117531009D02*
X169461904Y-117483390D01*
X169461904Y-117483390D02*
X169509523Y-117435771D01*
X169509523Y-117435771D02*
X169557142Y-117340533D01*
X169557142Y-117340533D02*
X169557142Y-117245295D01*
X169557142Y-117245295D02*
X169509523Y-117150057D01*
X169509523Y-117150057D02*
X169461904Y-117102438D01*
X169461904Y-117102438D02*
X169366666Y-117054819D01*
X169366666Y-117054819D02*
X169128571Y-117054819D01*
X169128571Y-117054819D02*
X168985714Y-117102438D01*
X168033333Y-118054819D02*
X168604761Y-118054819D01*
X168319047Y-118054819D02*
X168319047Y-117054819D01*
X168319047Y-117054819D02*
X168414285Y-117197676D01*
X168414285Y-117197676D02*
X168509523Y-117292914D01*
X168509523Y-117292914D02*
X168604761Y-117340533D01*
D10*
X146933332Y-122809800D02*
X146790475Y-122857419D01*
X146790475Y-122857419D02*
X146552380Y-122857419D01*
X146552380Y-122857419D02*
X146457142Y-122809800D01*
X146457142Y-122809800D02*
X146409523Y-122762180D01*
X146409523Y-122762180D02*
X146361904Y-122666942D01*
X146361904Y-122666942D02*
X146361904Y-122571704D01*
X146361904Y-122571704D02*
X146409523Y-122476466D01*
X146409523Y-122476466D02*
X146457142Y-122428847D01*
X146457142Y-122428847D02*
X146552380Y-122381228D01*
X146552380Y-122381228D02*
X146742856Y-122333609D01*
X146742856Y-122333609D02*
X146838094Y-122285990D01*
X146838094Y-122285990D02*
X146885713Y-122238371D01*
X146885713Y-122238371D02*
X146933332Y-122143133D01*
X146933332Y-122143133D02*
X146933332Y-122047895D01*
X146933332Y-122047895D02*
X146885713Y-121952657D01*
X146885713Y-121952657D02*
X146838094Y-121905038D01*
X146838094Y-121905038D02*
X146742856Y-121857419D01*
X146742856Y-121857419D02*
X146504761Y-121857419D01*
X146504761Y-121857419D02*
X146361904Y-121905038D01*
X146028570Y-121857419D02*
X145790475Y-122857419D01*
X145790475Y-122857419D02*
X145599999Y-122143133D01*
X145599999Y-122143133D02*
X145409523Y-122857419D01*
X145409523Y-122857419D02*
X145171428Y-121857419D01*
X144314285Y-121857419D02*
X144790475Y-121857419D01*
X144790475Y-121857419D02*
X144838094Y-122333609D01*
X144838094Y-122333609D02*
X144790475Y-122285990D01*
X144790475Y-122285990D02*
X144695237Y-122238371D01*
X144695237Y-122238371D02*
X144457142Y-122238371D01*
X144457142Y-122238371D02*
X144361904Y-122285990D01*
X144361904Y-122285990D02*
X144314285Y-122333609D01*
X144314285Y-122333609D02*
X144266666Y-122428847D01*
X144266666Y-122428847D02*
X144266666Y-122666942D01*
X144266666Y-122666942D02*
X144314285Y-122762180D01*
X144314285Y-122762180D02*
X144361904Y-122809800D01*
X144361904Y-122809800D02*
X144457142Y-122857419D01*
X144457142Y-122857419D02*
X144695237Y-122857419D01*
X144695237Y-122857419D02*
X144790475Y-122809800D01*
X144790475Y-122809800D02*
X144838094Y-122762180D01*
D11*
X147066666Y-84854819D02*
X147399999Y-84378628D01*
X147638094Y-84854819D02*
X147638094Y-83854819D01*
X147638094Y-83854819D02*
X147257142Y-83854819D01*
X147257142Y-83854819D02*
X147161904Y-83902438D01*
X147161904Y-83902438D02*
X147114285Y-83950057D01*
X147114285Y-83950057D02*
X147066666Y-84045295D01*
X147066666Y-84045295D02*
X147066666Y-84188152D01*
X147066666Y-84188152D02*
X147114285Y-84283390D01*
X147114285Y-84283390D02*
X147161904Y-84331009D01*
X147161904Y-84331009D02*
X147257142Y-84378628D01*
X147257142Y-84378628D02*
X147638094Y-84378628D01*
X146495237Y-84283390D02*
X146590475Y-84235771D01*
X146590475Y-84235771D02*
X146638094Y-84188152D01*
X146638094Y-84188152D02*
X146685713Y-84092914D01*
X146685713Y-84092914D02*
X146685713Y-84045295D01*
X146685713Y-84045295D02*
X146638094Y-83950057D01*
X146638094Y-83950057D02*
X146590475Y-83902438D01*
X146590475Y-83902438D02*
X146495237Y-83854819D01*
X146495237Y-83854819D02*
X146304761Y-83854819D01*
X146304761Y-83854819D02*
X146209523Y-83902438D01*
X146209523Y-83902438D02*
X146161904Y-83950057D01*
X146161904Y-83950057D02*
X146114285Y-84045295D01*
X146114285Y-84045295D02*
X146114285Y-84092914D01*
X146114285Y-84092914D02*
X146161904Y-84188152D01*
X146161904Y-84188152D02*
X146209523Y-84235771D01*
X146209523Y-84235771D02*
X146304761Y-84283390D01*
X146304761Y-84283390D02*
X146495237Y-84283390D01*
X146495237Y-84283390D02*
X146590475Y-84331009D01*
X146590475Y-84331009D02*
X146638094Y-84378628D01*
X146638094Y-84378628D02*
X146685713Y-84473866D01*
X146685713Y-84473866D02*
X146685713Y-84664342D01*
X146685713Y-84664342D02*
X146638094Y-84759580D01*
X146638094Y-84759580D02*
X146590475Y-84807200D01*
X146590475Y-84807200D02*
X146495237Y-84854819D01*
X146495237Y-84854819D02*
X146304761Y-84854819D01*
X146304761Y-84854819D02*
X146209523Y-84807200D01*
X146209523Y-84807200D02*
X146161904Y-84759580D01*
X146161904Y-84759580D02*
X146114285Y-84664342D01*
X146114285Y-84664342D02*
X146114285Y-84473866D01*
X146114285Y-84473866D02*
X146161904Y-84378628D01*
X146161904Y-84378628D02*
X146209523Y-84331009D01*
X146209523Y-84331009D02*
X146304761Y-84283390D01*
X147056666Y-93854819D02*
X147389999Y-93378628D01*
X147628094Y-93854819D02*
X147628094Y-92854819D01*
X147628094Y-92854819D02*
X147247142Y-92854819D01*
X147247142Y-92854819D02*
X147151904Y-92902438D01*
X147151904Y-92902438D02*
X147104285Y-92950057D01*
X147104285Y-92950057D02*
X147056666Y-93045295D01*
X147056666Y-93045295D02*
X147056666Y-93188152D01*
X147056666Y-93188152D02*
X147104285Y-93283390D01*
X147104285Y-93283390D02*
X147151904Y-93331009D01*
X147151904Y-93331009D02*
X147247142Y-93378628D01*
X147247142Y-93378628D02*
X147628094Y-93378628D01*
X146723332Y-92854819D02*
X146104285Y-92854819D01*
X146104285Y-92854819D02*
X146437618Y-93235771D01*
X146437618Y-93235771D02*
X146294761Y-93235771D01*
X146294761Y-93235771D02*
X146199523Y-93283390D01*
X146199523Y-93283390D02*
X146151904Y-93331009D01*
X146151904Y-93331009D02*
X146104285Y-93426247D01*
X146104285Y-93426247D02*
X146104285Y-93664342D01*
X146104285Y-93664342D02*
X146151904Y-93759580D01*
X146151904Y-93759580D02*
X146199523Y-93807200D01*
X146199523Y-93807200D02*
X146294761Y-93854819D01*
X146294761Y-93854819D02*
X146580475Y-93854819D01*
X146580475Y-93854819D02*
X146675713Y-93807200D01*
X146675713Y-93807200D02*
X146723332Y-93759580D01*
X165854819Y-85038095D02*
X166664342Y-85038095D01*
X166664342Y-85038095D02*
X166759580Y-85085714D01*
X166759580Y-85085714D02*
X166807200Y-85133333D01*
X166807200Y-85133333D02*
X166854819Y-85228571D01*
X166854819Y-85228571D02*
X166854819Y-85419047D01*
X166854819Y-85419047D02*
X166807200Y-85514285D01*
X166807200Y-85514285D02*
X166759580Y-85561904D01*
X166759580Y-85561904D02*
X166664342Y-85609523D01*
X166664342Y-85609523D02*
X165854819Y-85609523D01*
X165854819Y-85990476D02*
X165854819Y-86609523D01*
X165854819Y-86609523D02*
X166235771Y-86276190D01*
X166235771Y-86276190D02*
X166235771Y-86419047D01*
X166235771Y-86419047D02*
X166283390Y-86514285D01*
X166283390Y-86514285D02*
X166331009Y-86561904D01*
X166331009Y-86561904D02*
X166426247Y-86609523D01*
X166426247Y-86609523D02*
X166664342Y-86609523D01*
X166664342Y-86609523D02*
X166759580Y-86561904D01*
X166759580Y-86561904D02*
X166807200Y-86514285D01*
X166807200Y-86514285D02*
X166854819Y-86419047D01*
X166854819Y-86419047D02*
X166854819Y-86133333D01*
X166854819Y-86133333D02*
X166807200Y-86038095D01*
X166807200Y-86038095D02*
X166759580Y-85990476D01*
X164494819Y-99666666D02*
X165209104Y-99666666D01*
X165209104Y-99666666D02*
X165351961Y-99619047D01*
X165351961Y-99619047D02*
X165447200Y-99523809D01*
X165447200Y-99523809D02*
X165494819Y-99380952D01*
X165494819Y-99380952D02*
X165494819Y-99285714D01*
X164590057Y-100095238D02*
X164542438Y-100142857D01*
X164542438Y-100142857D02*
X164494819Y-100238095D01*
X164494819Y-100238095D02*
X164494819Y-100476190D01*
X164494819Y-100476190D02*
X164542438Y-100571428D01*
X164542438Y-100571428D02*
X164590057Y-100619047D01*
X164590057Y-100619047D02*
X164685295Y-100666666D01*
X164685295Y-100666666D02*
X164780533Y-100666666D01*
X164780533Y-100666666D02*
X164923390Y-100619047D01*
X164923390Y-100619047D02*
X165494819Y-100047619D01*
X165494819Y-100047619D02*
X165494819Y-100666666D01*
X174054819Y-88861905D02*
X173054819Y-88861905D01*
X173054819Y-88861905D02*
X173054819Y-89100000D01*
X173054819Y-89100000D02*
X173102438Y-89242857D01*
X173102438Y-89242857D02*
X173197676Y-89338095D01*
X173197676Y-89338095D02*
X173292914Y-89385714D01*
X173292914Y-89385714D02*
X173483390Y-89433333D01*
X173483390Y-89433333D02*
X173626247Y-89433333D01*
X173626247Y-89433333D02*
X173816723Y-89385714D01*
X173816723Y-89385714D02*
X173911961Y-89338095D01*
X173911961Y-89338095D02*
X174007200Y-89242857D01*
X174007200Y-89242857D02*
X174054819Y-89100000D01*
X174054819Y-89100000D02*
X174054819Y-88861905D01*
X174054819Y-90385714D02*
X174054819Y-89814286D01*
X174054819Y-90100000D02*
X173054819Y-90100000D01*
X173054819Y-90100000D02*
X173197676Y-90004762D01*
X173197676Y-90004762D02*
X173292914Y-89909524D01*
X173292914Y-89909524D02*
X173340533Y-89814286D01*
X174054819Y-94538095D02*
X173054819Y-94538095D01*
X174054819Y-95109523D02*
X173483390Y-94680952D01*
X173054819Y-95109523D02*
X173626247Y-94538095D01*
X169061904Y-104654819D02*
X169061904Y-105464342D01*
X169061904Y-105464342D02*
X169014285Y-105559580D01*
X169014285Y-105559580D02*
X168966666Y-105607200D01*
X168966666Y-105607200D02*
X168871428Y-105654819D01*
X168871428Y-105654819D02*
X168680952Y-105654819D01*
X168680952Y-105654819D02*
X168585714Y-105607200D01*
X168585714Y-105607200D02*
X168538095Y-105559580D01*
X168538095Y-105559580D02*
X168490476Y-105464342D01*
X168490476Y-105464342D02*
X168490476Y-104654819D01*
X167490476Y-105654819D02*
X168061904Y-105654819D01*
X167776190Y-105654819D02*
X167776190Y-104654819D01*
X167776190Y-104654819D02*
X167871428Y-104797676D01*
X167871428Y-104797676D02*
X167966666Y-104892914D01*
X167966666Y-104892914D02*
X168061904Y-104940533D01*
X168054819Y-87038095D02*
X168864342Y-87038095D01*
X168864342Y-87038095D02*
X168959580Y-87085714D01*
X168959580Y-87085714D02*
X169007200Y-87133333D01*
X169007200Y-87133333D02*
X169054819Y-87228571D01*
X169054819Y-87228571D02*
X169054819Y-87419047D01*
X169054819Y-87419047D02*
X169007200Y-87514285D01*
X169007200Y-87514285D02*
X168959580Y-87561904D01*
X168959580Y-87561904D02*
X168864342Y-87609523D01*
X168864342Y-87609523D02*
X168054819Y-87609523D01*
X168054819Y-88514285D02*
X168054819Y-88323809D01*
X168054819Y-88323809D02*
X168102438Y-88228571D01*
X168102438Y-88228571D02*
X168150057Y-88180952D01*
X168150057Y-88180952D02*
X168292914Y-88085714D01*
X168292914Y-88085714D02*
X168483390Y-88038095D01*
X168483390Y-88038095D02*
X168864342Y-88038095D01*
X168864342Y-88038095D02*
X168959580Y-88085714D01*
X168959580Y-88085714D02*
X169007200Y-88133333D01*
X169007200Y-88133333D02*
X169054819Y-88228571D01*
X169054819Y-88228571D02*
X169054819Y-88419047D01*
X169054819Y-88419047D02*
X169007200Y-88514285D01*
X169007200Y-88514285D02*
X168959580Y-88561904D01*
X168959580Y-88561904D02*
X168864342Y-88609523D01*
X168864342Y-88609523D02*
X168626247Y-88609523D01*
X168626247Y-88609523D02*
X168531009Y-88561904D01*
X168531009Y-88561904D02*
X168483390Y-88514285D01*
X168483390Y-88514285D02*
X168435771Y-88419047D01*
X168435771Y-88419047D02*
X168435771Y-88228571D01*
X168435771Y-88228571D02*
X168483390Y-88133333D01*
X168483390Y-88133333D02*
X168531009Y-88085714D01*
X168531009Y-88085714D02*
X168626247Y-88038095D01*
X147056666Y-99854819D02*
X147389999Y-99378628D01*
X147628094Y-99854819D02*
X147628094Y-98854819D01*
X147628094Y-98854819D02*
X147247142Y-98854819D01*
X147247142Y-98854819D02*
X147151904Y-98902438D01*
X147151904Y-98902438D02*
X147104285Y-98950057D01*
X147104285Y-98950057D02*
X147056666Y-99045295D01*
X147056666Y-99045295D02*
X147056666Y-99188152D01*
X147056666Y-99188152D02*
X147104285Y-99283390D01*
X147104285Y-99283390D02*
X147151904Y-99331009D01*
X147151904Y-99331009D02*
X147247142Y-99378628D01*
X147247142Y-99378628D02*
X147628094Y-99378628D01*
X146675713Y-98950057D02*
X146628094Y-98902438D01*
X146628094Y-98902438D02*
X146532856Y-98854819D01*
X146532856Y-98854819D02*
X146294761Y-98854819D01*
X146294761Y-98854819D02*
X146199523Y-98902438D01*
X146199523Y-98902438D02*
X146151904Y-98950057D01*
X146151904Y-98950057D02*
X146104285Y-99045295D01*
X146104285Y-99045295D02*
X146104285Y-99140533D01*
X146104285Y-99140533D02*
X146151904Y-99283390D01*
X146151904Y-99283390D02*
X146723332Y-99854819D01*
X146723332Y-99854819D02*
X146104285Y-99854819D01*
X147056666Y-90854819D02*
X147389999Y-90378628D01*
X147628094Y-90854819D02*
X147628094Y-89854819D01*
X147628094Y-89854819D02*
X147247142Y-89854819D01*
X147247142Y-89854819D02*
X147151904Y-89902438D01*
X147151904Y-89902438D02*
X147104285Y-89950057D01*
X147104285Y-89950057D02*
X147056666Y-90045295D01*
X147056666Y-90045295D02*
X147056666Y-90188152D01*
X147056666Y-90188152D02*
X147104285Y-90283390D01*
X147104285Y-90283390D02*
X147151904Y-90331009D01*
X147151904Y-90331009D02*
X147247142Y-90378628D01*
X147247142Y-90378628D02*
X147628094Y-90378628D01*
X146199523Y-90188152D02*
X146199523Y-90854819D01*
X146437618Y-89807200D02*
X146675713Y-90521485D01*
X146675713Y-90521485D02*
X146056666Y-90521485D01*
X169079819Y-125038095D02*
X169889342Y-125038095D01*
X169889342Y-125038095D02*
X169984580Y-125085714D01*
X169984580Y-125085714D02*
X170032200Y-125133333D01*
X170032200Y-125133333D02*
X170079819Y-125228571D01*
X170079819Y-125228571D02*
X170079819Y-125419047D01*
X170079819Y-125419047D02*
X170032200Y-125514285D01*
X170032200Y-125514285D02*
X169984580Y-125561904D01*
X169984580Y-125561904D02*
X169889342Y-125609523D01*
X169889342Y-125609523D02*
X169079819Y-125609523D01*
X169079819Y-125990476D02*
X169079819Y-126657142D01*
X169079819Y-126657142D02*
X170079819Y-126228571D01*
X156866666Y-93854819D02*
X157199999Y-93378628D01*
X157438094Y-93854819D02*
X157438094Y-92854819D01*
X157438094Y-92854819D02*
X157057142Y-92854819D01*
X157057142Y-92854819D02*
X156961904Y-92902438D01*
X156961904Y-92902438D02*
X156914285Y-92950057D01*
X156914285Y-92950057D02*
X156866666Y-93045295D01*
X156866666Y-93045295D02*
X156866666Y-93188152D01*
X156866666Y-93188152D02*
X156914285Y-93283390D01*
X156914285Y-93283390D02*
X156961904Y-93331009D01*
X156961904Y-93331009D02*
X157057142Y-93378628D01*
X157057142Y-93378628D02*
X157438094Y-93378628D01*
X156533332Y-92854819D02*
X155866666Y-92854819D01*
X155866666Y-92854819D02*
X156295237Y-93854819D01*
X145961904Y-103254819D02*
X145961904Y-104064342D01*
X145961904Y-104064342D02*
X145914285Y-104159580D01*
X145914285Y-104159580D02*
X145866666Y-104207200D01*
X145866666Y-104207200D02*
X145771428Y-104254819D01*
X145771428Y-104254819D02*
X145580952Y-104254819D01*
X145580952Y-104254819D02*
X145485714Y-104207200D01*
X145485714Y-104207200D02*
X145438095Y-104159580D01*
X145438095Y-104159580D02*
X145390476Y-104064342D01*
X145390476Y-104064342D02*
X145390476Y-103254819D01*
X144438095Y-103254819D02*
X144914285Y-103254819D01*
X144914285Y-103254819D02*
X144961904Y-103731009D01*
X144961904Y-103731009D02*
X144914285Y-103683390D01*
X144914285Y-103683390D02*
X144819047Y-103635771D01*
X144819047Y-103635771D02*
X144580952Y-103635771D01*
X144580952Y-103635771D02*
X144485714Y-103683390D01*
X144485714Y-103683390D02*
X144438095Y-103731009D01*
X144438095Y-103731009D02*
X144390476Y-103826247D01*
X144390476Y-103826247D02*
X144390476Y-104064342D01*
X144390476Y-104064342D02*
X144438095Y-104159580D01*
X144438095Y-104159580D02*
X144485714Y-104207200D01*
X144485714Y-104207200D02*
X144580952Y-104254819D01*
X144580952Y-104254819D02*
X144819047Y-104254819D01*
X144819047Y-104254819D02*
X144914285Y-104207200D01*
X144914285Y-104207200D02*
X144961904Y-104159580D01*
X161316666Y-82259580D02*
X161364285Y-82307200D01*
X161364285Y-82307200D02*
X161507142Y-82354819D01*
X161507142Y-82354819D02*
X161602380Y-82354819D01*
X161602380Y-82354819D02*
X161745237Y-82307200D01*
X161745237Y-82307200D02*
X161840475Y-82211961D01*
X161840475Y-82211961D02*
X161888094Y-82116723D01*
X161888094Y-82116723D02*
X161935713Y-81926247D01*
X161935713Y-81926247D02*
X161935713Y-81783390D01*
X161935713Y-81783390D02*
X161888094Y-81592914D01*
X161888094Y-81592914D02*
X161840475Y-81497676D01*
X161840475Y-81497676D02*
X161745237Y-81402438D01*
X161745237Y-81402438D02*
X161602380Y-81354819D01*
X161602380Y-81354819D02*
X161507142Y-81354819D01*
X161507142Y-81354819D02*
X161364285Y-81402438D01*
X161364285Y-81402438D02*
X161316666Y-81450057D01*
X160364285Y-82354819D02*
X160935713Y-82354819D01*
X160649999Y-82354819D02*
X160649999Y-81354819D01*
X160649999Y-81354819D02*
X160745237Y-81497676D01*
X160745237Y-81497676D02*
X160840475Y-81592914D01*
X160840475Y-81592914D02*
X160935713Y-81640533D01*
X147056666Y-96854819D02*
X147389999Y-96378628D01*
X147628094Y-96854819D02*
X147628094Y-95854819D01*
X147628094Y-95854819D02*
X147247142Y-95854819D01*
X147247142Y-95854819D02*
X147151904Y-95902438D01*
X147151904Y-95902438D02*
X147104285Y-95950057D01*
X147104285Y-95950057D02*
X147056666Y-96045295D01*
X147056666Y-96045295D02*
X147056666Y-96188152D01*
X147056666Y-96188152D02*
X147104285Y-96283390D01*
X147104285Y-96283390D02*
X147151904Y-96331009D01*
X147151904Y-96331009D02*
X147247142Y-96378628D01*
X147247142Y-96378628D02*
X147628094Y-96378628D01*
X146151904Y-95854819D02*
X146628094Y-95854819D01*
X146628094Y-95854819D02*
X146675713Y-96331009D01*
X146675713Y-96331009D02*
X146628094Y-96283390D01*
X146628094Y-96283390D02*
X146532856Y-96235771D01*
X146532856Y-96235771D02*
X146294761Y-96235771D01*
X146294761Y-96235771D02*
X146199523Y-96283390D01*
X146199523Y-96283390D02*
X146151904Y-96331009D01*
X146151904Y-96331009D02*
X146104285Y-96426247D01*
X146104285Y-96426247D02*
X146104285Y-96664342D01*
X146104285Y-96664342D02*
X146151904Y-96759580D01*
X146151904Y-96759580D02*
X146199523Y-96807200D01*
X146199523Y-96807200D02*
X146294761Y-96854819D01*
X146294761Y-96854819D02*
X146532856Y-96854819D01*
X146532856Y-96854819D02*
X146628094Y-96807200D01*
X146628094Y-96807200D02*
X146675713Y-96759580D01*
X159038094Y-127054819D02*
X159038094Y-126054819D01*
X159038094Y-126054819D02*
X158657142Y-126054819D01*
X158657142Y-126054819D02*
X158561904Y-126102438D01*
X158561904Y-126102438D02*
X158514285Y-126150057D01*
X158514285Y-126150057D02*
X158466666Y-126245295D01*
X158466666Y-126245295D02*
X158466666Y-126388152D01*
X158466666Y-126388152D02*
X158514285Y-126483390D01*
X158514285Y-126483390D02*
X158561904Y-126531009D01*
X158561904Y-126531009D02*
X158657142Y-126578628D01*
X158657142Y-126578628D02*
X159038094Y-126578628D01*
X157514285Y-127054819D02*
X158085713Y-127054819D01*
X157799999Y-127054819D02*
X157799999Y-126054819D01*
X157799999Y-126054819D02*
X157895237Y-126197676D01*
X157895237Y-126197676D02*
X157990475Y-126292914D01*
X157990475Y-126292914D02*
X158085713Y-126340533D01*
X156866666Y-84854819D02*
X157199999Y-84378628D01*
X157438094Y-84854819D02*
X157438094Y-83854819D01*
X157438094Y-83854819D02*
X157057142Y-83854819D01*
X157057142Y-83854819D02*
X156961904Y-83902438D01*
X156961904Y-83902438D02*
X156914285Y-83950057D01*
X156914285Y-83950057D02*
X156866666Y-84045295D01*
X156866666Y-84045295D02*
X156866666Y-84188152D01*
X156866666Y-84188152D02*
X156914285Y-84283390D01*
X156914285Y-84283390D02*
X156961904Y-84331009D01*
X156961904Y-84331009D02*
X157057142Y-84378628D01*
X157057142Y-84378628D02*
X157438094Y-84378628D01*
X156390475Y-84854819D02*
X156199999Y-84854819D01*
X156199999Y-84854819D02*
X156104761Y-84807200D01*
X156104761Y-84807200D02*
X156057142Y-84759580D01*
X156057142Y-84759580D02*
X155961904Y-84616723D01*
X155961904Y-84616723D02*
X155914285Y-84426247D01*
X155914285Y-84426247D02*
X155914285Y-84045295D01*
X155914285Y-84045295D02*
X155961904Y-83950057D01*
X155961904Y-83950057D02*
X156009523Y-83902438D01*
X156009523Y-83902438D02*
X156104761Y-83854819D01*
X156104761Y-83854819D02*
X156295237Y-83854819D01*
X156295237Y-83854819D02*
X156390475Y-83902438D01*
X156390475Y-83902438D02*
X156438094Y-83950057D01*
X156438094Y-83950057D02*
X156485713Y-84045295D01*
X156485713Y-84045295D02*
X156485713Y-84283390D01*
X156485713Y-84283390D02*
X156438094Y-84378628D01*
X156438094Y-84378628D02*
X156390475Y-84426247D01*
X156390475Y-84426247D02*
X156295237Y-84473866D01*
X156295237Y-84473866D02*
X156104761Y-84473866D01*
X156104761Y-84473866D02*
X156009523Y-84426247D01*
X156009523Y-84426247D02*
X155961904Y-84378628D01*
X155961904Y-84378628D02*
X155914285Y-84283390D01*
X157342857Y-90854819D02*
X157676190Y-90378628D01*
X157914285Y-90854819D02*
X157914285Y-89854819D01*
X157914285Y-89854819D02*
X157533333Y-89854819D01*
X157533333Y-89854819D02*
X157438095Y-89902438D01*
X157438095Y-89902438D02*
X157390476Y-89950057D01*
X157390476Y-89950057D02*
X157342857Y-90045295D01*
X157342857Y-90045295D02*
X157342857Y-90188152D01*
X157342857Y-90188152D02*
X157390476Y-90283390D01*
X157390476Y-90283390D02*
X157438095Y-90331009D01*
X157438095Y-90331009D02*
X157533333Y-90378628D01*
X157533333Y-90378628D02*
X157914285Y-90378628D01*
X156390476Y-90854819D02*
X156961904Y-90854819D01*
X156676190Y-90854819D02*
X156676190Y-89854819D01*
X156676190Y-89854819D02*
X156771428Y-89997676D01*
X156771428Y-89997676D02*
X156866666Y-90092914D01*
X156866666Y-90092914D02*
X156961904Y-90140533D01*
X156009523Y-89950057D02*
X155961904Y-89902438D01*
X155961904Y-89902438D02*
X155866666Y-89854819D01*
X155866666Y-89854819D02*
X155628571Y-89854819D01*
X155628571Y-89854819D02*
X155533333Y-89902438D01*
X155533333Y-89902438D02*
X155485714Y-89950057D01*
X155485714Y-89950057D02*
X155438095Y-90045295D01*
X155438095Y-90045295D02*
X155438095Y-90140533D01*
X155438095Y-90140533D02*
X155485714Y-90283390D01*
X155485714Y-90283390D02*
X156057142Y-90854819D01*
X156057142Y-90854819D02*
X155438095Y-90854819D01*
X151961904Y-110654819D02*
X151961904Y-111464342D01*
X151961904Y-111464342D02*
X151914285Y-111559580D01*
X151914285Y-111559580D02*
X151866666Y-111607200D01*
X151866666Y-111607200D02*
X151771428Y-111654819D01*
X151771428Y-111654819D02*
X151580952Y-111654819D01*
X151580952Y-111654819D02*
X151485714Y-111607200D01*
X151485714Y-111607200D02*
X151438095Y-111559580D01*
X151438095Y-111559580D02*
X151390476Y-111464342D01*
X151390476Y-111464342D02*
X151390476Y-110654819D01*
X150485714Y-110988152D02*
X150485714Y-111654819D01*
X150723809Y-110607200D02*
X150961904Y-111321485D01*
X150961904Y-111321485D02*
X150342857Y-111321485D01*
X157342857Y-87854819D02*
X157676190Y-87378628D01*
X157914285Y-87854819D02*
X157914285Y-86854819D01*
X157914285Y-86854819D02*
X157533333Y-86854819D01*
X157533333Y-86854819D02*
X157438095Y-86902438D01*
X157438095Y-86902438D02*
X157390476Y-86950057D01*
X157390476Y-86950057D02*
X157342857Y-87045295D01*
X157342857Y-87045295D02*
X157342857Y-87188152D01*
X157342857Y-87188152D02*
X157390476Y-87283390D01*
X157390476Y-87283390D02*
X157438095Y-87331009D01*
X157438095Y-87331009D02*
X157533333Y-87378628D01*
X157533333Y-87378628D02*
X157914285Y-87378628D01*
X156390476Y-87854819D02*
X156961904Y-87854819D01*
X156676190Y-87854819D02*
X156676190Y-86854819D01*
X156676190Y-86854819D02*
X156771428Y-86997676D01*
X156771428Y-86997676D02*
X156866666Y-87092914D01*
X156866666Y-87092914D02*
X156961904Y-87140533D01*
X155771428Y-86854819D02*
X155676190Y-86854819D01*
X155676190Y-86854819D02*
X155580952Y-86902438D01*
X155580952Y-86902438D02*
X155533333Y-86950057D01*
X155533333Y-86950057D02*
X155485714Y-87045295D01*
X155485714Y-87045295D02*
X155438095Y-87235771D01*
X155438095Y-87235771D02*
X155438095Y-87473866D01*
X155438095Y-87473866D02*
X155485714Y-87664342D01*
X155485714Y-87664342D02*
X155533333Y-87759580D01*
X155533333Y-87759580D02*
X155580952Y-87807200D01*
X155580952Y-87807200D02*
X155676190Y-87854819D01*
X155676190Y-87854819D02*
X155771428Y-87854819D01*
X155771428Y-87854819D02*
X155866666Y-87807200D01*
X155866666Y-87807200D02*
X155914285Y-87759580D01*
X155914285Y-87759580D02*
X155961904Y-87664342D01*
X155961904Y-87664342D02*
X156009523Y-87473866D01*
X156009523Y-87473866D02*
X156009523Y-87235771D01*
X156009523Y-87235771D02*
X155961904Y-87045295D01*
X155961904Y-87045295D02*
X155914285Y-86950057D01*
X155914285Y-86950057D02*
X155866666Y-86902438D01*
X155866666Y-86902438D02*
X155771428Y-86854819D01*
D12*
%TO.C,SW4*%
X171610000Y-78670000D02*
X171610000Y-77400000D01*
X170340000Y-78670000D02*
X171610000Y-78670000D01*
%TO.C,R6*%
X143630000Y-86030000D02*
X143630000Y-86360000D01*
X143630000Y-88770000D02*
X143630000Y-88440000D01*
X150170000Y-86030000D02*
X143630000Y-86030000D01*
X150170000Y-86360000D02*
X150170000Y-86030000D01*
X150170000Y-88440000D02*
X150170000Y-88770000D01*
X150170000Y-88770000D02*
X143630000Y-88770000D01*
%TO.C,LS1*%
X164690000Y-112990000D02*
X164690000Y-115640000D01*
X164690000Y-119560000D02*
X164690000Y-122210000D01*
X164690000Y-122210000D02*
X173910000Y-122210000D01*
X173910000Y-112990000D02*
X164690000Y-112990000D01*
X173910000Y-115640000D02*
X173910000Y-112990000D01*
X173910000Y-115640000D02*
X174240000Y-115640000D01*
X173910000Y-122210000D02*
X173910000Y-119560000D01*
%TO.C,SW5*%
X147650000Y-120900000D02*
X143650000Y-120900000D01*
X147650000Y-123900000D02*
X143650000Y-123900000D01*
%TO.C,R8*%
X143630000Y-83030000D02*
X150170000Y-83030000D01*
X143630000Y-83360000D02*
X143630000Y-83030000D01*
X143630000Y-85440000D02*
X143630000Y-85770000D01*
X143630000Y-85770000D02*
X150170000Y-85770000D01*
X150170000Y-83030000D02*
X150170000Y-83360000D01*
X150170000Y-85770000D02*
X150170000Y-85440000D01*
%TO.C,R3*%
X143620000Y-92030000D02*
X143620000Y-92360000D01*
X143620000Y-94770000D02*
X143620000Y-94440000D01*
X150160000Y-92030000D02*
X143620000Y-92030000D01*
X150160000Y-92360000D02*
X150160000Y-92030000D01*
X150160000Y-94440000D02*
X150160000Y-94770000D01*
X150160000Y-94770000D02*
X143620000Y-94770000D01*
%TO.C,U3*%
X170800000Y-79640000D02*
X168850000Y-79640000D01*
X170800000Y-79640000D02*
X172750000Y-79640000D01*
X170800000Y-84760000D02*
X168850000Y-84760000D01*
X170800000Y-84760000D02*
X172750000Y-84760000D01*
X173500000Y-79735000D02*
X173260000Y-79405000D01*
X173740000Y-79405000D01*
X173500000Y-79735000D01*
G36*
X173500000Y-79735000D02*
G01*
X173260000Y-79405000D01*
X173740000Y-79405000D01*
X173500000Y-79735000D01*
G37*
%TO.C,J2*%
X166040000Y-98620000D02*
X166040000Y-100000000D01*
X167420000Y-98620000D02*
X166040000Y-98620000D01*
X168690000Y-98620000D02*
X168690000Y-101380000D01*
X168690000Y-98620000D02*
X173880000Y-98620000D01*
X168690000Y-101380000D02*
X173880000Y-101380000D01*
X173880000Y-98620000D02*
X173880000Y-101380000D01*
%TO.C,D1*%
X173500000Y-86990000D02*
X173500000Y-88170000D01*
X173500000Y-92630000D02*
X173500000Y-91450000D01*
X174420000Y-90754000D02*
X172580000Y-90754000D01*
X174420000Y-90874000D02*
X172580000Y-90874000D01*
X174420000Y-90994000D02*
X172580000Y-90994000D01*
X174420000Y-91450000D02*
X172580000Y-91450000D01*
X172580000Y-88170000D01*
X174420000Y-88170000D01*
X174420000Y-91450000D01*
%TO.C,U1*%
X164440000Y-102140000D02*
X164440000Y-102395000D01*
X164440000Y-112660000D02*
X164440000Y-112405000D01*
X168300000Y-102140000D02*
X164440000Y-102140000D01*
X168300000Y-102140000D02*
X172160000Y-102140000D01*
X168300000Y-112660000D02*
X164440000Y-112660000D01*
X168300000Y-112660000D02*
X172160000Y-112660000D01*
X172160000Y-102140000D02*
X172160000Y-102395000D01*
X172160000Y-112660000D02*
X172160000Y-112405000D01*
X173012500Y-102395000D02*
X172672500Y-101925000D01*
X173352500Y-101925000D01*
X173012500Y-102395000D01*
G36*
X173012500Y-102395000D02*
G01*
X172672500Y-101925000D01*
X173352500Y-101925000D01*
X173012500Y-102395000D01*
G37*
%TO.C,U6*%
X171950000Y-86000000D02*
X171950000Y-89600000D01*
X167500000Y-87800000D02*
G75*
G02*
X171938478Y-85961522I2600000J0D01*
G01*
X171938478Y-89638478D02*
G75*
G02*
X167499999Y-87800000I-1838478J1838478D01*
G01*
%TO.C,R2*%
X143620000Y-98030000D02*
X143620000Y-98360000D01*
X143620000Y-100770000D02*
X143620000Y-100440000D01*
X150160000Y-98030000D02*
X143620000Y-98030000D01*
X150160000Y-98360000D02*
X150160000Y-98030000D01*
X150160000Y-100440000D02*
X150160000Y-100770000D01*
X150160000Y-100770000D02*
X143620000Y-100770000D01*
%TO.C,R4*%
X143620000Y-89030000D02*
X143620000Y-89360000D01*
X143620000Y-91770000D02*
X143620000Y-91440000D01*
X150160000Y-89030000D02*
X143620000Y-89030000D01*
X150160000Y-89360000D02*
X150160000Y-89030000D01*
X150160000Y-91440000D02*
X150160000Y-91770000D01*
X150160000Y-91770000D02*
X143620000Y-91770000D01*
%TO.C,U7*%
X169625000Y-123335000D02*
X167675000Y-123335000D01*
X169625000Y-123335000D02*
X171575000Y-123335000D01*
X169625000Y-128455000D02*
X167675000Y-128455000D01*
X169625000Y-128455000D02*
X171575000Y-128455000D01*
X172325000Y-123430000D02*
X172085000Y-123100000D01*
X172565000Y-123100000D01*
X172325000Y-123430000D01*
G36*
X172325000Y-123430000D02*
G01*
X172085000Y-123100000D01*
X172565000Y-123100000D01*
X172325000Y-123430000D01*
G37*
%TO.C,R7*%
X153430000Y-92030000D02*
X153430000Y-92360000D01*
X153430000Y-94770000D02*
X153430000Y-94440000D01*
X159970000Y-92030000D02*
X153430000Y-92030000D01*
X159970000Y-92360000D02*
X159970000Y-92030000D01*
X159970000Y-94440000D02*
X159970000Y-94770000D01*
X159970000Y-94770000D02*
X153430000Y-94770000D01*
D11*
%TO.C,U5*%
X143625000Y-102275000D02*
X143625000Y-102500000D01*
X143625000Y-102275000D02*
X146875000Y-102275000D01*
X143625000Y-105525000D02*
X143625000Y-105300000D01*
X143625000Y-105525000D02*
X146875000Y-105525000D01*
X146875000Y-102275000D02*
X146875000Y-102500000D01*
X146875000Y-105525000D02*
X146875000Y-105300000D01*
D12*
X143390000Y-105630000D02*
X142910000Y-105630000D01*
X143150000Y-105300000D01*
X143390000Y-105630000D01*
G36*
X143390000Y-105630000D02*
G01*
X142910000Y-105630000D01*
X143150000Y-105300000D01*
X143390000Y-105630000D01*
G37*
%TO.C,C1*%
X159530000Y-78780000D02*
X159530000Y-78928000D01*
X159530000Y-80872000D02*
X159530000Y-81020000D01*
X159530000Y-81020000D02*
X162770000Y-81020000D01*
X162770000Y-78780000D02*
X159530000Y-78780000D01*
X162770000Y-78928000D02*
X162770000Y-78780000D01*
X162770000Y-81020000D02*
X162770000Y-80872000D01*
%TO.C,R5*%
X143620000Y-95030000D02*
X143620000Y-95360000D01*
X143620000Y-97770000D02*
X143620000Y-97440000D01*
X150160000Y-95030000D02*
X143620000Y-95030000D01*
X150160000Y-95360000D02*
X150160000Y-95030000D01*
X150160000Y-97440000D02*
X150160000Y-97770000D01*
X150160000Y-97770000D02*
X143620000Y-97770000D01*
%TO.C,P1*%
X153600000Y-124700000D02*
X153600000Y-126700000D01*
X163000000Y-124700000D02*
X163000000Y-126700000D01*
%TO.C,BT2*%
X142245000Y-79620000D02*
X142245000Y-81000000D01*
X143625000Y-79620000D02*
X142245000Y-79620000D01*
X144895000Y-79620000D02*
X144895000Y-82380000D01*
X144895000Y-79620000D02*
X147545000Y-79620000D01*
X144895000Y-82380000D02*
X147545000Y-82380000D01*
X147545000Y-79620000D02*
X147545000Y-82380000D01*
%TO.C,R9*%
X153430000Y-83030000D02*
X153430000Y-83360000D01*
X153430000Y-85770000D02*
X153430000Y-85440000D01*
X159970000Y-83030000D02*
X153430000Y-83030000D01*
X159970000Y-83360000D02*
X159970000Y-83030000D01*
X159970000Y-85440000D02*
X159970000Y-85770000D01*
X159970000Y-85770000D02*
X153430000Y-85770000D01*
%TO.C,R12*%
X153430000Y-89030000D02*
X153430000Y-89360000D01*
X153430000Y-91770000D02*
X153430000Y-91440000D01*
X159970000Y-89030000D02*
X153430000Y-89030000D01*
X159970000Y-89360000D02*
X159970000Y-89030000D01*
X159970000Y-91440000D02*
X159970000Y-91770000D01*
X159970000Y-91770000D02*
X153430000Y-91770000D01*
%TO.C,U4*%
X143040000Y-106090000D02*
X143040000Y-106890000D01*
X143040000Y-120310000D02*
X143040000Y-120610000D01*
X161260000Y-106090000D02*
X143040000Y-106090000D01*
X161260000Y-106090000D02*
X161260000Y-106890000D01*
X161260000Y-120310000D02*
X161260000Y-120610000D01*
X161260000Y-120610000D02*
X143040000Y-120610000D01*
X162050000Y-106900000D02*
X161550000Y-106900000D01*
X161550000Y-106400000D01*
X162050000Y-106900000D01*
G36*
X162050000Y-106900000D02*
G01*
X161550000Y-106900000D01*
X161550000Y-106400000D01*
X162050000Y-106900000D01*
G37*
%TO.C,BT1*%
X142245000Y-76020000D02*
X142245000Y-77400000D01*
X143625000Y-76020000D02*
X142245000Y-76020000D01*
X144895000Y-76020000D02*
X144895000Y-78780000D01*
X144895000Y-76020000D02*
X147545000Y-76020000D01*
X144895000Y-78780000D02*
X147545000Y-78780000D01*
X147545000Y-76020000D02*
X147545000Y-78780000D01*
%TO.C,R10*%
X153430000Y-86030000D02*
X153430000Y-86360000D01*
X153430000Y-88770000D02*
X153430000Y-88440000D01*
X159970000Y-86030000D02*
X153430000Y-86030000D01*
X159970000Y-86360000D02*
X159970000Y-86030000D01*
X159970000Y-88440000D02*
X159970000Y-88770000D01*
X159970000Y-88770000D02*
X153430000Y-88770000D01*
%TD*%
M02*
