M48
; DRILL file {KiCad 9.0.3} date 2025-09-07T19:35:55+0100
; FORMAT={-:-/ absolute / metric / decimal}
; #@! TF.CreationDate,2025-09-07T19:35:55+01:00
; #@! TF.GenerationSoftware,Kicad,Pcbnew,9.0.3
; #@! TF.FileFunction,Plated,1,2,PTH
FMAT,2
METRIC
; #@! TA.AperFunction,Plated,PTH,ViaDrill
T1C0.200
; #@! TA.AperFunction,Plated,PTH,ComponentDrill
T2C0.200
; #@! TA.AperFunction,Plated,PTH,ViaDrill
T3C0.300
; #@! TA.AperFunction,Plated,PTH,ComponentDrill
T4C0.500
; #@! TA.AperFunction,Plated,PTH,ComponentDrill
T5C0.600
; #@! TA.AperFunction,Plated,PTH,ComponentDrill
T6C1.000
%
G90
G05
T1
X150.2Y-101.4
T2
X150.09Y-113.25
X150.09Y-114.35
X150.64Y-112.7
X150.64Y-113.8
X150.64Y-114.9
X151.19Y-113.25
X151.19Y-114.35
X151.74Y-112.7
X151.74Y-113.8
X151.74Y-114.9
X152.29Y-113.25
X152.29Y-114.35
X170.1Y-81.0
X170.1Y-82.2
X170.1Y-83.4
X171.5Y-81.0
X171.5Y-82.2
X171.5Y-83.4
T3
X143.0Y-105.8
X143.4Y-109.1
X143.4Y-110.6
X143.4Y-112.1
X143.4Y-113.6
X143.4Y-115.1
X143.4Y-118.1
X144.2Y-92.05
X144.35Y-102.95
X144.55Y-101.45
X144.7Y-79.6
X145.8Y-122.5
X145.8Y-123.8
X145.85Y-119.1
X146.0Y-104.1
X148.0Y-95.8
X148.5Y-126.4
X148.7Y-103.9
X149.0Y-105.4
X149.2Y-104.6
X149.4Y-85.8
X149.95Y-119.1
X150.0Y-123.5
X150.6Y-109.0
X150.9Y-76.5
X151.65Y-108.1
X152.0Y-104.0
X152.4Y-97.8
X153.0Y-99.6
X153.141Y-119.8
X153.4Y-95.2
X153.4Y-108.3
X153.45Y-96.6
X154.8Y-105.8
X155.0Y-115.6
X155.2Y-94.05
X155.2Y-98.0
X155.2Y-108.6
X155.3Y-82.0
X155.6Y-99.2
X155.8Y-78.75
X155.95Y-111.65
X156.55Y-91.525
X156.65Y-95.35
X156.7Y-92.75
X156.7Y-94.05
X156.75Y-83.9
X156.9Y-97.8
X157.7Y-104.4
X157.8Y-124.2
X157.95Y-95.15
X158.15Y-112.8
X158.2Y-109.05
X158.2Y-120.0
X158.35Y-85.7
X158.55Y-106.65
X158.874Y-97.8
X159.0Y-98.6
X159.2Y-115.8
X159.2Y-127.6
X159.55Y-120.95
X159.624Y-108.626
X159.75Y-80.1
X159.9Y-104.25
X160.3Y-97.999
X160.6Y-101.6
X160.6Y-125.0
X160.75Y-91.3
X160.75Y-122.555
X160.765Y-116.05
X160.8Y-84.9
X160.9Y-110.6
X160.9Y-112.1
X160.9Y-113.6
X160.9Y-115.1
X160.9Y-118.1
X160.9Y-119.6
X161.1Y-99.85
X161.466Y-103.644
X161.55Y-122.555
X162.2Y-108.6
X163.05Y-88.2
X163.05Y-89.6
X163.2Y-114.8
X163.45Y-95.383
X163.45Y-98.9
X163.6Y-86.35
X163.6Y-105.4
X163.65Y-82.45
X163.65Y-106.765
X163.8Y-83.4
X164.2Y-101.8
X164.8Y-112.0
X165.15Y-104.7
X165.2Y-85.8
X165.5Y-87.15
X165.6Y-114.2
X165.691Y-93.914
X166.2Y-102.4
X166.25Y-84.2
X166.45Y-100.85
X166.575Y-92.175
X167.15Y-98.55
X167.4Y-121.3
X167.401Y-84.952
X167.8Y-122.15
X167.85Y-89.65
X168.2Y-92.0
X168.2Y-127.8
X168.325Y-80.295
X168.33Y-126.53
X168.741Y-92.591
X168.75Y-88.35
X168.8Y-102.8
X169.7Y-93.55
X169.7Y-97.65
X170.0Y-104.2
X170.1Y-89.05
X170.5Y-119.65
X170.6Y-106.4
X171.025Y-89.825
X171.15Y-90.699
X171.15Y-91.95
X171.5Y-98.2
X171.6Y-85.2
X171.95Y-100.35
X172.4Y-91.45
X173.2Y-121.2
X173.275Y-80.295
X173.275Y-81.565
X173.275Y-82.835
X173.275Y-84.105
X173.463Y-92.587
X173.725Y-117.525
X174.2Y-86.05
T4
X168.45Y-95.3
X168.45Y-96.3
X169.45Y-95.3
X169.45Y-96.3
X170.45Y-95.3
X170.45Y-96.3
X171.45Y-95.3
X171.45Y-96.3
X172.45Y-95.3
X172.45Y-96.3
X173.45Y-95.3
X173.45Y-96.3
T6
X143.625Y-77.4
X143.625Y-81.0
X146.165Y-77.4
X146.165Y-81.0
X154.36Y-77.4
X156.9Y-77.4
X159.44Y-77.4
X161.98Y-77.4
X165.26Y-77.4
X167.8Y-77.4
X170.34Y-77.4
T5
G00X153.98Y-124.02
M15
G01X153.98Y-122.92
M16
G05
G00X153.98Y-127.95
M15
G01X153.98Y-127.35
M16
G05
G00X162.62Y-124.02
M15
G01X162.62Y-122.92
M16
G05
G00X162.62Y-127.95
M15
G01X162.62Y-127.35
M16
G05
M30
