%TF.GenerationSoftware,KiCad,Pcbnew,9.0.3*%
%TF.CreationDate,2025-08-16T12:14:02+01:00*%
%TF.ProjectId,cheetoPet,63686565-746f-4506-9574-2e6b69636164,rev?*%
%TF.SameCoordinates,Original*%
%TF.FileFunction,Soldermask,Bot*%
%TF.FilePolarity,Negative*%
%FSLAX46Y46*%
G04 Gerber Fmt 4.6, Leading zero omitted, Abs format (unit mm)*
G04 Created by KiCad (PCBNEW 9.0.3) date 2025-08-16 12:14:02*
%MOMM*%
%LPD*%
G01*
G04 APERTURE LIST*
G04 Aperture macros list*
%AMRoundRect*
0 Rectangle with rounded corners*
0 $1 Rounding radius*
0 $2 $3 $4 $5 $6 $7 $8 $9 X,Y pos of 4 corners*
0 Add a 4 corners polygon primitive as box body*
4,1,4,$2,$3,$4,$5,$6,$7,$8,$9,$2,$3,0*
0 Add four circle primitives for the rounded corners*
1,1,$1+$1,$2,$3*
1,1,$1+$1,$4,$5*
1,1,$1+$1,$6,$7*
1,1,$1+$1,$8,$9*
0 Add four rect primitives between the rounded corners*
20,1,$1+$1,$2,$3,$4,$5,0*
20,1,$1+$1,$4,$5,$6,$7,0*
20,1,$1+$1,$6,$7,$8,$9,0*
20,1,$1+$1,$8,$9,$2,$3,0*%
G04 Aperture macros list end*
%ADD10C,1.700000*%
%ADD11R,1.700000X1.700000*%
%ADD12C,1.600000*%
%ADD13R,1.300000X3.400000*%
%ADD14R,1.600000X1.500000*%
%ADD15RoundRect,0.150000X0.825000X0.150000X-0.825000X0.150000X-0.825000X-0.150000X0.825000X-0.150000X0*%
%ADD16R,2.410000X3.300000*%
%ADD17RoundRect,0.250001X0.499999X-0.499999X0.499999X0.499999X-0.499999X0.499999X-0.499999X-0.499999X0*%
%ADD18C,1.500000*%
%ADD19RoundRect,0.150000X0.875000X0.150000X-0.875000X0.150000X-0.875000X-0.150000X0.875000X-0.150000X0*%
%ADD20R,1.500000X1.050000*%
%ADD21O,1.500000X1.050000*%
%ADD22R,1.100000X0.250000*%
%ADD23C,0.650000*%
%ADD24R,0.600000X1.450000*%
%ADD25R,0.300000X1.450000*%
%ADD26O,1.000000X1.600000*%
%ADD27O,1.000000X2.100000*%
%ADD28R,1.500000X0.900000*%
%ADD29C,0.600000*%
%ADD30R,2.900000X2.900000*%
G04 APERTURE END LIST*
D10*
%TO.C,SW4*%
X165260000Y-77400000D03*
X167800000Y-77400000D03*
D11*
X170340000Y-77400000D03*
%TD*%
%TO.C,J1*%
X154360000Y-77400000D03*
D10*
X156900000Y-77400000D03*
X159440000Y-77400000D03*
X161980000Y-77400000D03*
%TD*%
D12*
%TO.C,R6*%
X150710000Y-87400000D03*
X143090000Y-87400000D03*
%TD*%
D13*
%TO.C,LS1*%
X173650000Y-117600000D03*
X164950000Y-117600000D03*
%TD*%
D14*
%TO.C,SW5*%
X147900000Y-122400000D03*
X143400000Y-122400000D03*
%TD*%
D12*
%TO.C,R8*%
X143090000Y-84400000D03*
X150710000Y-84400000D03*
%TD*%
%TO.C,R3*%
X150700000Y-93400000D03*
X143080000Y-93400000D03*
%TD*%
D15*
%TO.C,U3*%
X173275000Y-80295000D03*
X173275000Y-81565000D03*
X173275000Y-82835000D03*
X173275000Y-84105000D03*
X168325000Y-84105000D03*
X168325000Y-82835000D03*
X168325000Y-81565000D03*
X168325000Y-80295000D03*
D16*
X170800000Y-82200000D03*
%TD*%
D11*
%TO.C,J2*%
X167420000Y-100000000D03*
D10*
X169960000Y-100000000D03*
X172500000Y-100000000D03*
%TD*%
D17*
%TO.C,D1*%
X173500000Y-93620000D03*
D18*
X173500000Y-86000000D03*
%TD*%
D19*
%TO.C,U1*%
X172950000Y-102955000D03*
X172950000Y-104225000D03*
X172950000Y-105495000D03*
X172950000Y-106765000D03*
X172950000Y-108035000D03*
X172950000Y-109305000D03*
X172950000Y-110575000D03*
X172950000Y-111845000D03*
X163650000Y-111845000D03*
X163650000Y-110575000D03*
X163650000Y-109305000D03*
X163650000Y-108035000D03*
X163650000Y-106765000D03*
X163650000Y-105495000D03*
X163650000Y-104225000D03*
X163650000Y-102955000D03*
%TD*%
D20*
%TO.C,U6*%
X170100000Y-86530000D03*
D21*
X170100000Y-87800000D03*
X170100000Y-89070000D03*
%TD*%
D12*
%TO.C,R2*%
X150700000Y-99400000D03*
X143080000Y-99400000D03*
%TD*%
%TO.C,R4*%
X150700000Y-90400000D03*
X143080000Y-90400000D03*
%TD*%
D15*
%TO.C,U7*%
X172100000Y-123990000D03*
X172100000Y-125260000D03*
X172100000Y-126530000D03*
X172100000Y-127800000D03*
X167150000Y-127800000D03*
X167150000Y-126530000D03*
X167150000Y-125260000D03*
X167150000Y-123990000D03*
%TD*%
D12*
%TO.C,R7*%
X160510000Y-93400000D03*
X152890000Y-93400000D03*
%TD*%
D22*
%TO.C,U5*%
X143100000Y-104900000D03*
X143100000Y-104400000D03*
X143100000Y-103900000D03*
X143100000Y-103400000D03*
X143100000Y-102900000D03*
X147400000Y-102900000D03*
X147400000Y-103400000D03*
X147400000Y-103900000D03*
X147400000Y-104400000D03*
X147400000Y-104900000D03*
%TD*%
D12*
%TO.C,C1*%
X159900000Y-79900000D03*
X162400000Y-79900000D03*
%TD*%
%TO.C,R5*%
X150700000Y-96400000D03*
X143080000Y-96400000D03*
%TD*%
D23*
%TO.C,P1*%
X161190000Y-124000000D03*
X155410000Y-124000000D03*
D24*
X161550000Y-122555000D03*
X160750000Y-122555000D03*
D25*
X159550000Y-122555000D03*
X158550000Y-122555000D03*
X158050000Y-122555000D03*
X157050000Y-122555000D03*
D24*
X155850000Y-122555000D03*
X155050000Y-122555000D03*
X155050000Y-122555000D03*
X155850000Y-122555000D03*
D25*
X156550000Y-122555000D03*
X157550000Y-122555000D03*
X159050000Y-122555000D03*
X160050000Y-122555000D03*
D24*
X160750000Y-122555000D03*
X161550000Y-122555000D03*
D26*
X162620000Y-127650000D03*
D27*
X162620000Y-123470000D03*
D26*
X153980000Y-127650000D03*
D27*
X153980000Y-123470000D03*
%TD*%
D11*
%TO.C,BT2*%
X143625000Y-81000000D03*
D10*
X146165000Y-81000000D03*
%TD*%
D12*
%TO.C,R9*%
X160510000Y-84400000D03*
X152890000Y-84400000D03*
%TD*%
%TO.C,R12*%
X160510000Y-90400000D03*
X152890000Y-90400000D03*
%TD*%
D28*
%TO.C,U4*%
X160900000Y-107600000D03*
X160900000Y-109100000D03*
X160900000Y-110600000D03*
X160900000Y-112100000D03*
X160900000Y-113600000D03*
X160900000Y-115100000D03*
X160900000Y-116600000D03*
X160900000Y-118100000D03*
X160900000Y-119600000D03*
X143400000Y-119600000D03*
X143400000Y-118100000D03*
X143400000Y-116600000D03*
X143400000Y-115100000D03*
X143400000Y-113600000D03*
X143400000Y-112100000D03*
X143400000Y-110600000D03*
X143400000Y-109100000D03*
X143400000Y-107600000D03*
D29*
X152290000Y-114350000D03*
X152290000Y-113250000D03*
X151740000Y-114900000D03*
X151740000Y-113800000D03*
X151740000Y-112700000D03*
X151190000Y-114350000D03*
D30*
X151190000Y-113800000D03*
D29*
X151190000Y-113250000D03*
X150640000Y-114900000D03*
X150640000Y-113800000D03*
X150640000Y-112700000D03*
X150090000Y-114350000D03*
X150090000Y-113250000D03*
%TD*%
D11*
%TO.C,BT1*%
X143625000Y-77400000D03*
D10*
X146165000Y-77400000D03*
%TD*%
D12*
%TO.C,R10*%
X160510000Y-87400000D03*
X152890000Y-87400000D03*
%TD*%
M02*
