%TF.GenerationSoftware,KiCad,Pcbnew,9.0.3*%
%TF.CreationDate,2025-08-16T12:14:01+01:00*%
%TF.ProjectId,cheetoPet,63686565-746f-4506-9574-2e6b69636164,rev?*%
%TF.SameCoordinates,Original*%
%TF.FileFunction,Copper,L1,Top*%
%TF.FilePolarity,Positive*%
%FSLAX46Y46*%
G04 Gerber Fmt 4.6, Leading zero omitted, Abs format (unit mm)*
G04 Created by KiCad (PCBNEW 9.0.3) date 2025-08-16 12:14:01*
%MOMM*%
%LPD*%
G01*
G04 APERTURE LIST*
G04 Aperture macros list*
%AMRoundRect*
0 Rectangle with rounded corners*
0 $1 Rounding radius*
0 $2 $3 $4 $5 $6 $7 $8 $9 X,Y pos of 4 corners*
0 Add a 4 corners polygon primitive as box body*
4,1,4,$2,$3,$4,$5,$6,$7,$8,$9,$2,$3,0*
0 Add four circle primitives for the rounded corners*
1,1,$1+$1,$2,$3*
1,1,$1+$1,$4,$5*
1,1,$1+$1,$6,$7*
1,1,$1+$1,$8,$9*
0 Add four rect primitives between the rounded corners*
20,1,$1+$1,$2,$3,$4,$5,0*
20,1,$1+$1,$4,$5,$6,$7,0*
20,1,$1+$1,$6,$7,$8,$9,0*
20,1,$1+$1,$8,$9,$2,$3,0*%
G04 Aperture macros list end*
%TA.AperFunction,ComponentPad*%
%ADD10C,1.700000*%
%TD*%
%TA.AperFunction,ComponentPad*%
%ADD11R,1.700000X1.700000*%
%TD*%
%TA.AperFunction,SMDPad,CuDef*%
%ADD12R,1.600000X1.500000*%
%TD*%
%TA.AperFunction,SMDPad,CuDef*%
%ADD13RoundRect,0.050000X-0.225000X-0.050000X0.225000X-0.050000X0.225000X0.050000X-0.225000X0.050000X0*%
%TD*%
%TA.AperFunction,SMDPad,CuDef*%
%ADD14RoundRect,0.050000X0.050000X-0.225000X0.050000X0.225000X-0.050000X0.225000X-0.050000X-0.225000X0*%
%TD*%
%TA.AperFunction,ComponentPad*%
%ADD15C,1.600000*%
%TD*%
%TA.AperFunction,HeatsinkPad*%
%ADD16C,0.500000*%
%TD*%
%TA.AperFunction,HeatsinkPad*%
%ADD17R,1.900000X2.900000*%
%TD*%
%TA.AperFunction,ComponentPad*%
%ADD18RoundRect,0.250001X0.499999X-0.499999X0.499999X0.499999X-0.499999X0.499999X-0.499999X-0.499999X0*%
%TD*%
%TA.AperFunction,ComponentPad*%
%ADD19C,1.500000*%
%TD*%
%TA.AperFunction,ComponentPad*%
%ADD20R,1.500000X1.050000*%
%TD*%
%TA.AperFunction,ComponentPad*%
%ADD21O,1.500000X1.050000*%
%TD*%
%TA.AperFunction,HeatsinkPad*%
%ADD22O,1.000000X1.600000*%
%TD*%
%TA.AperFunction,HeatsinkPad*%
%ADD23O,1.000000X2.100000*%
%TD*%
%TA.AperFunction,HeatsinkPad*%
%ADD24C,0.600000*%
%TD*%
%TA.AperFunction,ViaPad*%
%ADD25C,0.600000*%
%TD*%
%TA.AperFunction,Conductor*%
%ADD26C,0.200000*%
%TD*%
G04 APERTURE END LIST*
D10*
%TO.P,SW4,3,C*%
%TO.N,unconnected-(SW4-C-Pad3)*%
X165260000Y-77400000D03*
%TO.P,SW4,2,B*%
%TO.N,Net-(SW4-B)*%
X167800000Y-77400000D03*
D11*
%TO.P,SW4,1,A*%
%TO.N,GND*%
X170340000Y-77400000D03*
%TD*%
D12*
%TO.P,SW1,1,1*%
%TO.N,B*%
X146050000Y-125800000D03*
%TO.P,SW1,2,2*%
%TO.N,GND*%
X150550000Y-125800000D03*
%TD*%
D13*
%TO.P,U2,1,RESV_VDDIO*%
%TO.N,+3.3V*%
X156800000Y-100400000D03*
%TO.P,U2,2*%
%TO.N,N/C*%
X156800000Y-100800000D03*
%TO.P,U2,3*%
X156800000Y-101200000D03*
%TO.P,U2,4*%
X156800000Y-101600000D03*
%TO.P,U2,5*%
X156800000Y-102000000D03*
%TO.P,U2,6*%
X156800000Y-102400000D03*
D14*
%TO.P,U2,7,AUX_CL*%
%TO.N,unconnected-(U2-AUX_CL-Pad7)*%
X157300000Y-102900000D03*
%TO.P,U2,8,VDDIO*%
%TO.N,+3.3V*%
X157700000Y-102900000D03*
%TO.P,U2,9,AD0/MISO*%
%TO.N,Net-(U2-AD0{slash}MISO)*%
X158100000Y-102900000D03*
%TO.P,U2,10,REGOUT*%
%TO.N,unconnected-(U2-REGOUT-Pad10)*%
X158500000Y-102900000D03*
%TO.P,U2,11,FSYNC*%
%TO.N,GND*%
X158900000Y-102900000D03*
%TO.P,U2,12,INT*%
%TO.N,unconnected-(U2-INT-Pad12)*%
X159300000Y-102900000D03*
D13*
%TO.P,U2,13,VDD*%
%TO.N,+3.3V*%
X159800000Y-102400000D03*
%TO.P,U2,14*%
%TO.N,N/C*%
X159800000Y-102000000D03*
%TO.P,U2,15*%
X159800000Y-101600000D03*
%TO.P,U2,16*%
X159800000Y-101200000D03*
%TO.P,U2,17*%
X159800000Y-100800000D03*
%TO.P,U2,18,GND*%
%TO.N,GND*%
X159800000Y-100400000D03*
D14*
%TO.P,U2,19*%
%TO.N,N/C*%
X159300000Y-99900000D03*
%TO.P,U2,20,RESV_GND*%
%TO.N,GND*%
X158900000Y-99900000D03*
%TO.P,U2,21,AUX_DA*%
%TO.N,unconnected-(U2-AUX_DA-Pad21)*%
X158500000Y-99900000D03*
%TO.P,U2,22,~{CS}*%
%TO.N,Net-(U2-~{CS})*%
X158100000Y-99900000D03*
%TO.P,U2,23,SCL/SCLK*%
%TO.N,SCL*%
X157700000Y-99900000D03*
%TO.P,U2,24,SDA/MOSI*%
%TO.N,SDA*%
X157300000Y-99900000D03*
%TD*%
D12*
%TO.P,SW3,1,1*%
%TO.N,A*%
X166050000Y-125800000D03*
%TO.P,SW3,2,2*%
%TO.N,GND*%
X170550000Y-125800000D03*
%TD*%
%TO.P,SW2,1,1*%
%TO.N,X*%
X156050000Y-125800000D03*
%TO.P,SW2,2,2*%
%TO.N,GND*%
X160550000Y-125800000D03*
%TD*%
D11*
%TO.P,J1,1,Pin_1*%
%TO.N,SDA*%
X154360000Y-77400000D03*
D10*
%TO.P,J1,2,Pin_2*%
%TO.N,SCL*%
X156900000Y-77400000D03*
%TO.P,J1,3,Pin_3*%
%TO.N,GND*%
X159440000Y-77400000D03*
%TO.P,J1,4,Pin_4*%
%TO.N,+3.3V*%
X161980000Y-77400000D03*
%TD*%
D15*
%TO.P,R6,1*%
%TO.N,+3.3V*%
X150710000Y-87400000D03*
%TO.P,R6,2*%
%TO.N,Net-(U4-EN)*%
X143090000Y-87400000D03*
%TD*%
%TO.P,R8,1*%
%TO.N,SDA*%
X143090000Y-84400000D03*
%TO.P,R8,2*%
%TO.N,+3.3V*%
X150710000Y-84400000D03*
%TD*%
%TO.P,R3,1*%
%TO.N,+3.3V*%
X150700000Y-93400000D03*
%TO.P,R3,2*%
%TO.N,Net-(U2-~{CS})*%
X143080000Y-93400000D03*
%TD*%
D16*
%TO.P,U3,9,EPAD*%
%TO.N,unconnected-(U3-EPAD-Pad9)*%
X171500000Y-83400000D03*
X171500000Y-82200000D03*
X171500000Y-81000000D03*
D17*
X170800000Y-82200000D03*
D16*
X170100000Y-83400000D03*
X170100000Y-82200000D03*
X170100000Y-81000000D03*
%TD*%
D11*
%TO.P,J2,1,Pin_1*%
%TO.N,Net-(J2-Pin_1)*%
X167420000Y-100000000D03*
D10*
%TO.P,J2,2,Pin_2*%
%TO.N,Net-(J2-Pin_2)*%
X169960000Y-100000000D03*
%TO.P,J2,3,Pin_3*%
%TO.N,Net-(J2-Pin_3)*%
X172500000Y-100000000D03*
%TD*%
D18*
%TO.P,D1,1,K*%
%TO.N,Net-(D1-K)*%
X173500000Y-93620000D03*
D19*
%TO.P,D1,2,A*%
%TO.N,+BATT*%
X173500000Y-86000000D03*
%TD*%
D20*
%TO.P,U6,1,GND*%
%TO.N,GND*%
X170100000Y-86530000D03*
D21*
%TO.P,U6,2,VI*%
%TO.N,Net-(D1-K)*%
X170100000Y-87800000D03*
%TO.P,U6,3,VO*%
%TO.N,+3.3V*%
X170100000Y-89070000D03*
%TD*%
D15*
%TO.P,R2,1*%
%TO.N,Net-(P1-CC)*%
X150700000Y-99400000D03*
%TO.P,R2,2*%
%TO.N,GND*%
X143080000Y-99400000D03*
%TD*%
%TO.P,R4,1*%
%TO.N,+3.3V*%
X150700000Y-90400000D03*
%TO.P,R4,2*%
%TO.N,Net-(U2-AD0{slash}MISO)*%
X143080000Y-90400000D03*
%TD*%
%TO.P,R7,1*%
%TO.N,SCL*%
X160510000Y-93400000D03*
%TO.P,R7,2*%
%TO.N,+3.3V*%
X152890000Y-93400000D03*
%TD*%
%TO.P,C1,1*%
%TO.N,GND*%
X159900000Y-79900000D03*
%TO.P,C1,2*%
%TO.N,+3.3V*%
X162400000Y-79900000D03*
%TD*%
%TO.P,R5,1*%
%TO.N,Net-(U3-PROG)*%
X150700000Y-96400000D03*
%TO.P,R5,2*%
%TO.N,GND*%
X143080000Y-96400000D03*
%TD*%
D22*
%TO.P,P1,S1,SHIELD*%
%TO.N,GND*%
X162620000Y-127650000D03*
D23*
X162620000Y-123470000D03*
D22*
X153980000Y-127650000D03*
D23*
X153980000Y-123470000D03*
%TD*%
D11*
%TO.P,BT2,1,+*%
%TO.N,Net-(BT2-+)*%
X143625000Y-81000000D03*
D10*
%TO.P,BT2,2,-*%
%TO.N,GND*%
X146165000Y-81000000D03*
%TD*%
D15*
%TO.P,R9,1*%
%TO.N,Net-(P1-D-)*%
X160510000Y-84400000D03*
%TO.P,R9,2*%
%TO.N,D-*%
X152890000Y-84400000D03*
%TD*%
%TO.P,R12,1*%
%TO.N,D+*%
X160510000Y-90400000D03*
%TO.P,R12,2*%
%TO.N,+3.3V*%
X152890000Y-90400000D03*
%TD*%
D24*
%TO.P,U4,19,GND*%
%TO.N,GND*%
X152290000Y-114350000D03*
X152290000Y-113250000D03*
X151740000Y-114900000D03*
X151740000Y-113800000D03*
X151740000Y-112700000D03*
X151190000Y-114350000D03*
X151190000Y-113250000D03*
X150640000Y-114900000D03*
X150640000Y-113800000D03*
X150640000Y-112700000D03*
X150090000Y-114350000D03*
X150090000Y-113250000D03*
%TD*%
D11*
%TO.P,BT1,1,+*%
%TO.N,+BATT*%
X143625000Y-77400000D03*
D10*
%TO.P,BT1,2,-*%
%TO.N,GND*%
X146165000Y-77400000D03*
%TD*%
D15*
%TO.P,R10,1*%
%TO.N,Net-(P1-D+)*%
X160510000Y-87400000D03*
%TO.P,R10,2*%
%TO.N,D+*%
X152890000Y-87400000D03*
%TD*%
D25*
%TO.N,GND*%
X158350000Y-85700000D03*
X166250000Y-84200000D03*
X166200000Y-102400000D03*
X152400000Y-97800000D03*
X155600000Y-99200000D03*
X156400000Y-104000000D03*
X145800000Y-123800000D03*
%TO.N,+BATT*%
X142800000Y-79200000D03*
%TO.N,GND*%
X154800000Y-118800000D03*
X161550000Y-122555000D03*
X168200000Y-92000000D03*
X163200000Y-114800000D03*
X167401001Y-84952381D03*
X158200000Y-95200000D03*
X149400000Y-80000000D03*
X173200000Y-121200000D03*
X170000000Y-104200000D03*
X159000000Y-98600000D03*
X150600000Y-78000000D03*
X150200000Y-101400000D03*
X164800000Y-112000000D03*
X166200000Y-106000000D03*
X159200000Y-127600000D03*
X153800000Y-96400000D03*
X165600000Y-114200000D03*
X159200000Y-103800000D03*
X149400000Y-85800000D03*
X149800000Y-127999000D03*
X173275000Y-82835000D03*
X152000000Y-104000000D03*
X156600000Y-106000000D03*
X149000000Y-124200000D03*
X150600000Y-109000000D03*
X143000000Y-105800000D03*
X168800000Y-102800000D03*
X147200000Y-92400000D03*
X160900000Y-119600000D03*
X154600000Y-87200000D03*
X151800000Y-121400000D03*
X153650000Y-79350000D03*
X154600000Y-93600000D03*
X172800000Y-88000000D03*
X163000000Y-89000000D03*
X165200000Y-85800000D03*
X148000000Y-95800000D03*
X160600000Y-125000000D03*
X173275000Y-80295000D03*
X163650000Y-106765000D03*
X164400000Y-99800000D03*
X147200000Y-88400000D03*
X156000000Y-79000000D03*
%TO.N,Net-(BT2-+)*%
X163600000Y-105400000D03*
%TO.N,+3.3V*%
X151200000Y-82699000D03*
X160600000Y-101600000D03*
X149200000Y-96200000D03*
X158600000Y-83200000D03*
X148700000Y-103900000D03*
%TO.N,SDA*%
X155200000Y-108600000D03*
X155200000Y-98000000D03*
X162200000Y-108600000D03*
X149200000Y-104600000D03*
X160900000Y-118100000D03*
X153000000Y-99600000D03*
X168200000Y-127800000D03*
%TO.N,SCL*%
X157200000Y-97670849D03*
X154800000Y-105800000D03*
X149000000Y-105400000D03*
X164200000Y-101800000D03*
X160900000Y-116600000D03*
X168330000Y-126530000D03*
%TO.N,Net-(J2-Pin_3)*%
X143100000Y-101700000D03*
%TO.N,Net-(U1-~{INT}{slash}SQW)*%
X143400000Y-112100000D03*
X173725000Y-117525000D03*
%TO.N,Net-(U3-CE)*%
X171600000Y-85200000D03*
X165223265Y-104376735D03*
X160750000Y-122555000D03*
X168325000Y-80295000D03*
X173275000Y-84105000D03*
X157800000Y-124200000D03*
%TO.N,Net-(P1-D+)*%
X162400000Y-87400000D03*
%TO.N,Net-(U2-~{CS})*%
X156049057Y-95987261D03*
X157800000Y-98200000D03*
%TO.N,Net-(U2-AD0{slash}MISO)*%
X146400000Y-91450000D03*
X158400000Y-104000000D03*
%TO.N,Net-(U3-PROG)*%
X173275000Y-81565000D03*
%TO.N,Net-(U4-EN)*%
X143400000Y-122400000D03*
X156200000Y-108600000D03*
X147801000Y-94397584D03*
X160900000Y-109100000D03*
%TO.N,B*%
X160900000Y-112100000D03*
%TO.N,X*%
X160900000Y-113600000D03*
%TO.N,A*%
X160900000Y-115100000D03*
%TO.N,Net-(SW4-B)*%
X150900000Y-76500000D03*
X144100000Y-79500000D03*
%TO.N,Net-(U3-~{CHRG})*%
X158117318Y-109756396D03*
X143400000Y-110600000D03*
X162600000Y-83400000D03*
X160800000Y-103200000D03*
%TO.N,Net-(U3-~{STDBY})*%
X163800000Y-83400000D03*
X161465642Y-103643761D03*
X143400000Y-109100000D03*
X159624127Y-108626391D03*
%TD*%
D26*
%TO.N,Net-(BT2-+)*%
X172906000Y-79694000D02*
X173523943Y-79694000D01*
X172883550Y-79716450D02*
X172906000Y-79694000D01*
X168294000Y-84506000D02*
X168001000Y-84799000D01*
X161900000Y-78750000D02*
X171917100Y-78750000D01*
X143625000Y-81000000D02*
X143625000Y-83025000D01*
X168001000Y-84799000D02*
X168001000Y-85202325D01*
X160829000Y-77679000D02*
X160829000Y-77876760D01*
X167203325Y-86000000D02*
X167201000Y-86000000D01*
X143625000Y-83025000D02*
X144599000Y-83999000D01*
X171917100Y-78750000D02*
X172883550Y-79716450D01*
X147193900Y-83999000D02*
X153209000Y-77983900D01*
X168001000Y-85202325D02*
X167203325Y-86000000D01*
X173523943Y-79694000D02*
X174299000Y-80469057D01*
X160829000Y-77876760D02*
X161503240Y-78551000D01*
X167201000Y-86000000D02*
X167201000Y-94166100D01*
X153209000Y-77983900D02*
X153209000Y-76249000D01*
X167201000Y-94166100D02*
X163600000Y-97767100D01*
X161503240Y-78551000D02*
X161701000Y-78551000D01*
X144599000Y-83999000D02*
X147193900Y-83999000D01*
X173523943Y-84706000D02*
X173026057Y-84706000D01*
X159916760Y-76249000D02*
X160591000Y-76923240D01*
X174299000Y-80469057D02*
X174299000Y-83930943D01*
X173026057Y-84706000D02*
X172826057Y-84506000D01*
X160591000Y-76923240D02*
X160591000Y-77441000D01*
X174299000Y-83930943D02*
X173523943Y-84706000D01*
X153209000Y-76249000D02*
X159916760Y-76249000D01*
X161701000Y-78551000D02*
X161900000Y-78750000D01*
X163600000Y-97767100D02*
X163600000Y-105400000D01*
X172826057Y-84506000D02*
X168294000Y-84506000D01*
X160591000Y-77441000D02*
X160829000Y-77679000D01*
%TO.N,Net-(U1-~{INT}{slash}SQW)*%
X153648215Y-126549000D02*
X152600000Y-127597215D01*
X161600000Y-127237215D02*
X161600000Y-128599000D01*
X168931000Y-122319000D02*
X168931000Y-127918943D01*
X142301000Y-124026679D02*
X142301000Y-113199000D01*
X154311785Y-126549000D02*
X153648215Y-126549000D01*
X162288215Y-126549000D02*
X161600000Y-127237215D01*
X144184322Y-125910000D02*
X142301000Y-124026679D01*
X156361785Y-128599000D02*
X154311785Y-126549000D01*
X162951785Y-126549000D02*
X162288215Y-126549000D01*
X144949000Y-125910000D02*
X144184322Y-125910000D01*
X165001785Y-128599000D02*
X162951785Y-126549000D01*
X168931000Y-127918943D02*
X168250943Y-128599000D01*
X152600000Y-127597215D02*
X152600000Y-128599000D01*
X161600000Y-128599000D02*
X156361785Y-128599000D01*
X142301000Y-113199000D02*
X143400000Y-112100000D01*
X168250943Y-128599000D02*
X165001785Y-128599000D01*
X173725000Y-117525000D02*
X168931000Y-122319000D01*
X152600000Y-128599000D02*
X146873321Y-128599000D01*
X146873321Y-128599000D02*
X144882161Y-126607839D01*
X144882161Y-126607839D02*
X144949000Y-126541000D01*
X144949000Y-126541000D02*
X144949000Y-125910000D01*
%TO.N,GND*%
X159440000Y-77400000D02*
X159440000Y-79440000D01*
X159440000Y-79440000D02*
X159900000Y-79900000D01*
X157999000Y-82951057D02*
X159900000Y-81050057D01*
X159900000Y-81050057D02*
X159900000Y-79900000D01*
%TO.N,+3.3V*%
X161050000Y-83200000D02*
X158600000Y-83200000D01*
X161050000Y-83200000D02*
X162400000Y-81850000D01*
X162400000Y-81850000D02*
X162400000Y-79900000D01*
%TO.N,GND*%
X158350000Y-85700000D02*
X157999000Y-85349000D01*
X157999000Y-85349000D02*
X157999000Y-82951057D01*
X166250000Y-84200000D02*
X165367100Y-84200000D01*
X172776507Y-81213550D02*
X172674000Y-81316057D01*
X172674000Y-81316057D02*
X172674000Y-81813943D01*
X172273000Y-80710043D02*
X172776507Y-81213550D01*
X171584900Y-79552000D02*
X172273000Y-80240100D01*
X172674000Y-81813943D02*
X173060057Y-82200000D01*
X166116100Y-79552000D02*
X171584900Y-79552000D01*
X165902000Y-79766100D02*
X166116100Y-79552000D01*
X165902000Y-80622150D02*
X165902000Y-79766100D01*
X165001000Y-83833900D02*
X165001000Y-81523150D01*
X173060057Y-82200000D02*
X173300000Y-82200000D01*
X172273000Y-80240100D02*
X172273000Y-80710043D01*
X165001000Y-81523150D02*
X165902000Y-80622150D01*
X165367100Y-84200000D02*
X165001000Y-83833900D01*
X167600000Y-84200000D02*
X166250000Y-84200000D01*
X167600000Y-84753382D02*
X167600000Y-84200000D01*
X167401001Y-84952381D02*
X167600000Y-84753382D01*
X173275000Y-82375000D02*
X173275000Y-82835000D01*
X173300000Y-82200000D02*
X173300000Y-82350000D01*
X173300000Y-82350000D02*
X173275000Y-82375000D01*
%TO.N,Net-(U3-PROG)*%
X162400000Y-104200000D02*
X162400000Y-98400000D01*
X164600000Y-84000000D02*
X164600000Y-81200000D01*
X154400000Y-105200000D02*
X161400000Y-105200000D01*
X153601000Y-99351057D02*
X153601000Y-99848943D01*
X166800000Y-84950000D02*
X165550000Y-84950000D01*
X164600000Y-81200000D02*
X164757050Y-81200000D01*
X161400000Y-105200000D02*
X162400000Y-104200000D01*
X154000000Y-100600000D02*
X154000000Y-104800000D01*
X152575028Y-99175028D02*
X152751057Y-98999000D01*
X154000000Y-104800000D02*
X154400000Y-105200000D01*
X153601000Y-99848943D02*
X153424971Y-100024971D01*
X153424971Y-100024971D02*
X154000000Y-100600000D01*
X172674000Y-80074000D02*
X172674000Y-80543943D01*
X173275000Y-80896000D02*
X173275000Y-81565000D01*
X153248943Y-98999000D02*
X153601000Y-99351057D01*
X162400000Y-98400000D02*
X166800000Y-94000000D01*
X152751057Y-98999000D02*
X153248943Y-98999000D01*
X150700000Y-97300000D02*
X152575028Y-99175028D01*
X164757050Y-81200000D02*
X165501000Y-80456050D01*
X150700000Y-96400000D02*
X150700000Y-97300000D01*
X166800000Y-94000000D02*
X166800000Y-84950000D01*
X165550000Y-84950000D02*
X164600000Y-84000000D01*
X165501000Y-79543950D02*
X165108050Y-79151000D01*
X165501000Y-80456050D02*
X165501000Y-79543950D01*
X171751000Y-79151000D02*
X172674000Y-80074000D01*
X165108050Y-79151000D02*
X171751000Y-79151000D01*
X172674000Y-80543943D02*
X173026057Y-80896000D01*
X173026057Y-80896000D02*
X173275000Y-80896000D01*
%TO.N,Net-(U3-CE)*%
X173275000Y-84105000D02*
X168072100Y-84105000D01*
X165402000Y-81689250D02*
X166303000Y-80788250D01*
X168072100Y-84105000D02*
X167600000Y-83632900D01*
X167600000Y-83632900D02*
X167367100Y-83632900D01*
X168153000Y-79953000D02*
X168325000Y-80125000D01*
X167367100Y-83632900D02*
X167132200Y-83398000D01*
X167132200Y-83398000D02*
X165402000Y-83398000D01*
X165402000Y-83398000D02*
X165402000Y-81689250D01*
X166303000Y-80788250D02*
X166303000Y-79953000D01*
X166303000Y-79953000D02*
X168153000Y-79953000D01*
X168325000Y-80125000D02*
X168325000Y-80295000D01*
%TO.N,Net-(U4-EN)*%
X144800000Y-87400000D02*
X143090000Y-87400000D01*
X148000000Y-94200000D02*
X148000000Y-90600000D01*
X147801000Y-94397584D02*
X147802416Y-94397584D01*
X147802416Y-94397584D02*
X148000000Y-94200000D01*
X148000000Y-90600000D02*
X144800000Y-87400000D01*
%TO.N,Net-(U2-AD0{slash}MISO)*%
X146200000Y-91400000D02*
X145200000Y-90400000D01*
X146400000Y-91450000D02*
X146350000Y-91400000D01*
X146350000Y-91400000D02*
X146200000Y-91400000D01*
X145200000Y-90400000D02*
X143080000Y-90400000D01*
%TO.N,SCL*%
X157200000Y-97670849D02*
X157200000Y-99000000D01*
X160510000Y-95490000D02*
X160510000Y-93400000D01*
X157270849Y-97600000D02*
X158400000Y-97600000D01*
X157700000Y-99500000D02*
X157700000Y-99900000D01*
X157200000Y-97670849D02*
X157270849Y-97600000D01*
X158400000Y-97600000D02*
X160510000Y-95490000D01*
X157200000Y-99000000D02*
X157700000Y-99500000D01*
%TO.N,Net-(U2-~{CS})*%
X147551057Y-95001000D02*
X145950056Y-93400000D01*
X148401000Y-94648943D02*
X148048943Y-95001000D01*
X150600000Y-81800000D02*
X148401000Y-83999000D01*
X155300000Y-83300000D02*
X153800000Y-81800000D01*
X155300000Y-95500000D02*
X155300000Y-83300000D01*
X148048943Y-95001000D02*
X147551057Y-95001000D01*
X155699000Y-95899000D02*
X155300000Y-95500000D01*
X156049057Y-95987261D02*
X155960796Y-95899000D01*
X155960796Y-95899000D02*
X155699000Y-95899000D01*
X148401000Y-83999000D02*
X148401000Y-94648943D01*
X153800000Y-81800000D02*
X150600000Y-81800000D01*
X145950056Y-93400000D02*
X143080000Y-93400000D01*
%TO.N,GND*%
X163200000Y-114800000D02*
X164000000Y-115600000D01*
X164000000Y-115600000D02*
X164200000Y-115600000D01*
X164200000Y-115600000D02*
X165600000Y-114200000D01*
%TO.N,+BATT*%
X142400000Y-78800000D02*
X142400000Y-78625000D01*
X142400000Y-78625000D02*
X143625000Y-77400000D01*
X142800000Y-79200000D02*
X142400000Y-78800000D01*
%TO.N,GND*%
X159200000Y-99324000D02*
X159200000Y-98600000D01*
X153302000Y-94898000D02*
X154600000Y-93600000D01*
X158900000Y-102900000D02*
X158900000Y-103500000D01*
X164852043Y-106765000D02*
X166208522Y-105408522D01*
X166208522Y-105408522D02*
X166200000Y-105417044D01*
X160900000Y-119600000D02*
X161550000Y-120250000D01*
X159200000Y-99324000D02*
X159076000Y-99324000D01*
X161550000Y-120250000D02*
X161550000Y-122555000D01*
X142499000Y-105299000D02*
X142499000Y-99981000D01*
X173275000Y-80295000D02*
X173876000Y-80896000D01*
X143000000Y-105800000D02*
X142499000Y-105299000D01*
X173876000Y-82234000D02*
X173275000Y-82835000D01*
X159800000Y-99627226D02*
X159496774Y-99324000D01*
X149400000Y-80000000D02*
X147165000Y-80000000D01*
X163650000Y-106765000D02*
X162885000Y-106000000D01*
X158900000Y-99500000D02*
X158900000Y-99900000D01*
X166200000Y-105417044D02*
X166200000Y-106000000D01*
X143151057Y-111201000D02*
X148041000Y-111201000D01*
X148902000Y-94898000D02*
X153302000Y-94898000D01*
X143000000Y-105800000D02*
X142799000Y-106001000D01*
X159200000Y-98600000D02*
X159000000Y-98600000D01*
X159496774Y-99324000D02*
X159200000Y-99324000D01*
X163650000Y-106765000D02*
X164852043Y-106765000D01*
X142799000Y-110848943D02*
X143151057Y-111201000D01*
X158900000Y-103500000D02*
X159200000Y-103800000D01*
X166208522Y-105408522D02*
X168800000Y-102817043D01*
X162885000Y-106000000D02*
X156600000Y-106000000D01*
X142499000Y-99981000D02*
X143080000Y-99400000D01*
X159076000Y-99324000D02*
X158900000Y-99500000D01*
X173876000Y-80896000D02*
X173876000Y-82234000D01*
X159800000Y-100400000D02*
X159800000Y-99627226D01*
X147165000Y-80000000D02*
X146165000Y-81000000D01*
X148041000Y-111201000D02*
X150090000Y-113250000D01*
X148000000Y-95800000D02*
X148902000Y-94898000D01*
X142799000Y-106001000D02*
X142799000Y-110848943D01*
%TO.N,+3.3V*%
X159400000Y-104800000D02*
X157600000Y-104800000D01*
X151200000Y-82699000D02*
X151200000Y-83910000D01*
X155000000Y-104400000D02*
X155000000Y-100400000D01*
X157700000Y-104700000D02*
X157600000Y-104800000D01*
X150243950Y-95299000D02*
X151156050Y-95299000D01*
X148700000Y-96842950D02*
X150243950Y-95299000D01*
X155000000Y-99142950D02*
X155000000Y-100400000D01*
X151200000Y-83910000D02*
X150710000Y-84400000D01*
X150710000Y-84400000D02*
X150710000Y-93390000D01*
X160600000Y-101600000D02*
X160800000Y-101600000D01*
X159800000Y-102800000D02*
X160600000Y-102000000D01*
X148700000Y-103900000D02*
X148700000Y-96842950D01*
X155000000Y-100400000D02*
X156800000Y-100400000D01*
X159800000Y-103600000D02*
X159800000Y-102800000D01*
X150700000Y-93400000D02*
X152890000Y-93400000D01*
X159800000Y-104400000D02*
X159400000Y-104800000D01*
X155400000Y-104800000D02*
X155000000Y-104400000D01*
X157700000Y-102900000D02*
X157700000Y-104700000D01*
X159800000Y-103600000D02*
X159800000Y-104400000D01*
X150700000Y-90400000D02*
X152890000Y-90400000D01*
X160600000Y-102000000D02*
X160600000Y-101600000D01*
X150710000Y-93390000D02*
X150700000Y-93400000D01*
X157600000Y-104800000D02*
X155400000Y-104800000D01*
X151156050Y-95299000D02*
X155000000Y-99142950D01*
X159800000Y-102400000D02*
X159800000Y-103600000D01*
%TO.N,SDA*%
X156800000Y-95999000D02*
X156800000Y-81200000D01*
X155200000Y-108600000D02*
X155801000Y-107999000D01*
X156648943Y-97201000D02*
X157001000Y-96848943D01*
X160900000Y-118100000D02*
X164200000Y-121400000D01*
X156648943Y-95999000D02*
X156800000Y-95999000D01*
X160651057Y-108499000D02*
X162099000Y-108499000D01*
X153000000Y-99600000D02*
X153000000Y-100800000D01*
X159790347Y-109359710D02*
X160651057Y-108499000D01*
X156600000Y-97201000D02*
X156648943Y-97201000D01*
X168200000Y-127800000D02*
X165330900Y-127800000D01*
X156800000Y-81200000D02*
X154360000Y-78760000D01*
X159507503Y-109359710D02*
X159790347Y-109359710D01*
X157001000Y-96848943D02*
X157001000Y-96351057D01*
X164200000Y-121400000D02*
X164200000Y-121600000D01*
X143090000Y-84400000D02*
X147360000Y-84400000D01*
X147360000Y-84400000D02*
X154360000Y-77400000D01*
X157300000Y-99900000D02*
X155400000Y-98000000D01*
X156600000Y-99200000D02*
X156600000Y-97201000D01*
X157300000Y-99900000D02*
X156600000Y-99200000D01*
X155801000Y-107999000D02*
X158146793Y-107999000D01*
X154360000Y-78760000D02*
X154360000Y-77400000D01*
X158146793Y-107999000D02*
X159507503Y-109359710D01*
X155400000Y-98000000D02*
X155200000Y-98000000D01*
X164200000Y-126669100D02*
X164200000Y-121600000D01*
X157001000Y-96351057D02*
X156648943Y-95999000D01*
X162099000Y-108499000D02*
X162200000Y-108600000D01*
X153000000Y-100800000D02*
X149200000Y-104600000D01*
X165330900Y-127800000D02*
X164200000Y-126669100D01*
%TO.N,SCL*%
X172976760Y-98849000D02*
X172023240Y-98849000D01*
X165848943Y-105201000D02*
X165351057Y-105201000D01*
X154800000Y-105800000D02*
X149400000Y-105800000D01*
X165275028Y-105124972D02*
X165199000Y-105201000D01*
X164200000Y-104202000D02*
X164200000Y-101800000D01*
X165351057Y-105201000D02*
X165275028Y-105124972D01*
X166124971Y-104275029D02*
X166201000Y-104351057D01*
X156800000Y-77500000D02*
X156800000Y-80632900D01*
X169483240Y-101151000D02*
X169366120Y-101033880D01*
X166201000Y-104848943D02*
X165848943Y-105201000D01*
X170436760Y-101151000D02*
X169483240Y-101151000D01*
X157284933Y-90174933D02*
X160510000Y-93400000D01*
X171349000Y-99523240D02*
X171111000Y-99523240D01*
X159800000Y-115500000D02*
X159800000Y-115052057D01*
X149400000Y-105800000D02*
X149000000Y-105400000D01*
X166201000Y-104351057D02*
X166201000Y-104848943D01*
X164800000Y-126702000D02*
X164949000Y-126851000D01*
X160900000Y-116600000D02*
X159800000Y-115500000D01*
X168009000Y-126851000D02*
X168330000Y-126530000D01*
X171111000Y-99523240D02*
X171111000Y-100476760D01*
X160900000Y-116600000D02*
X164800000Y-120500000D01*
X156800000Y-80632900D02*
X157284933Y-81117833D01*
X160651057Y-114201000D02*
X161148943Y-114201000D01*
X159800000Y-115052057D02*
X160651057Y-114201000D01*
X164949000Y-126851000D02*
X168009000Y-126851000D01*
X173651000Y-101698943D02*
X173651000Y-99523240D01*
X172023240Y-98849000D02*
X171349000Y-99523240D01*
X157284933Y-81117833D02*
X157284933Y-90174933D01*
X165199000Y-105201000D02*
X164200000Y-104202000D01*
X156900000Y-77400000D02*
X156800000Y-77500000D01*
X171111000Y-100476760D02*
X170436760Y-101151000D01*
X161148943Y-114201000D02*
X173651000Y-101698943D01*
X173651000Y-99523240D02*
X172976760Y-98849000D01*
X169366120Y-101033880D02*
X166124971Y-104275029D01*
X164800000Y-120500000D02*
X164800000Y-126702000D01*
%TO.N,Net-(J2-Pin_3)*%
X165800000Y-107400000D02*
X172500000Y-100700000D01*
X160201000Y-107234900D02*
X160201000Y-107400000D01*
X160201000Y-107400000D02*
X165800000Y-107400000D01*
X172500000Y-100700000D02*
X172500000Y-100000000D01*
X148400000Y-107000000D02*
X159966100Y-107000000D01*
X159966100Y-107000000D02*
X160201000Y-107234900D01*
X143100000Y-101700000D02*
X148400000Y-107000000D01*
%TO.N,Net-(U3-CE)*%
X171400000Y-85200000D02*
X171600000Y-85200000D01*
X165600000Y-104000000D02*
X165600000Y-96334200D01*
X165600000Y-96334200D02*
X171400000Y-90534200D01*
X171400000Y-90534200D02*
X171400000Y-85200000D01*
X157800000Y-124200000D02*
X159445000Y-122555000D01*
X165223265Y-104376735D02*
X165600000Y-104000000D01*
X159445000Y-122555000D02*
X160750000Y-122555000D01*
%TO.N,Net-(P1-D+)*%
X162400000Y-87400000D02*
X160510000Y-87400000D01*
%TO.N,Net-(U2-~{CS})*%
X158067100Y-99300000D02*
X157683550Y-98916450D01*
X157683550Y-98916450D02*
X157800000Y-98800000D01*
X157800000Y-98800000D02*
X157800000Y-98200000D01*
X158100000Y-99300000D02*
X158067100Y-99300000D01*
X158100000Y-99300000D02*
X158100000Y-99900000D01*
%TO.N,Net-(U2-AD0{slash}MISO)*%
X158100000Y-103700000D02*
X158400000Y-104000000D01*
X158100000Y-102900000D02*
X158100000Y-103700000D01*
%TO.N,Net-(U4-EN)*%
X156200000Y-108600000D02*
X156400000Y-108800000D01*
X158600000Y-109275346D02*
X158600000Y-109400000D01*
X159600000Y-110400000D02*
X160900000Y-109100000D01*
X158600000Y-109400000D02*
X159600000Y-110400000D01*
X147600000Y-122400000D02*
X159600000Y-110400000D01*
X158124654Y-108800000D02*
X158600000Y-109275346D01*
X156400000Y-108800000D02*
X158124654Y-108800000D01*
X143400000Y-122400000D02*
X147600000Y-122400000D01*
%TO.N,B*%
X155799000Y-115033900D02*
X157116450Y-113716450D01*
X155799000Y-120000000D02*
X155799000Y-115033900D01*
X157116450Y-113716450D02*
X158916450Y-113716450D01*
X151850000Y-120000000D02*
X155799000Y-120000000D01*
X158916450Y-113716450D02*
X159600000Y-113032900D01*
X160900000Y-112100000D02*
X160532900Y-112100000D01*
X146050000Y-125800000D02*
X151850000Y-120000000D01*
X160532900Y-112100000D02*
X159600000Y-113032900D01*
%TO.N,X*%
X159600000Y-113600000D02*
X160900000Y-113600000D01*
X156050000Y-125800000D02*
X156200000Y-125650000D01*
X156200000Y-115200000D02*
X157200000Y-114200000D01*
X157200000Y-114200000D02*
X159000000Y-114200000D01*
X156200000Y-125650000D02*
X156200000Y-115200000D01*
X159000000Y-114200000D02*
X159600000Y-113600000D01*
%TO.N,A*%
X166050000Y-120250000D02*
X166050000Y-125800000D01*
X160900000Y-115100000D02*
X166050000Y-120250000D01*
%TO.N,Net-(SW4-B)*%
X144100000Y-79500000D02*
X146900000Y-79500000D01*
X148400000Y-79000000D02*
X150900000Y-76500000D01*
X146900000Y-79500000D02*
X147400000Y-79000000D01*
X147400000Y-79000000D02*
X148400000Y-79000000D01*
%TO.N,Net-(U3-~{CHRG})*%
X161399000Y-102601000D02*
X161399000Y-97433900D01*
X163800000Y-84600000D02*
X162600000Y-83400000D01*
X161399000Y-97433900D02*
X161600000Y-97232900D01*
X161600000Y-97000000D02*
X163800000Y-94800000D01*
X161600000Y-97232900D02*
X161600000Y-97000000D01*
X156843604Y-109756396D02*
X156000000Y-110600000D01*
X160800000Y-103200000D02*
X161399000Y-102601000D01*
X158117318Y-109756396D02*
X156843604Y-109756396D01*
X163800000Y-94800000D02*
X163800000Y-84600000D01*
X156000000Y-110600000D02*
X143400000Y-110600000D01*
%TO.N,Net-(U3-~{STDBY})*%
X159800000Y-108450518D02*
X159800000Y-107401000D01*
X159800000Y-107401000D02*
X148233900Y-107401000D01*
X161800000Y-103309403D02*
X161800000Y-97600000D01*
X161465642Y-103643761D02*
X161800000Y-103309403D01*
X148233900Y-107401000D02*
X148032900Y-107200000D01*
X159624127Y-108626391D02*
X159800000Y-108450518D01*
X164200000Y-95200000D02*
X164200000Y-83800000D01*
X161800000Y-97600000D02*
X164200000Y-95200000D01*
X145300000Y-107200000D02*
X143400000Y-109100000D01*
X148032900Y-107200000D02*
X145300000Y-107200000D01*
X164200000Y-83800000D02*
X163800000Y-83400000D01*
%TD*%
%TA.AperFunction,Conductor*%
%TO.N,GND*%
G36*
X174340666Y-118163558D02*
G01*
X174387357Y-118215537D01*
X174399500Y-118269054D01*
X174399500Y-128193038D01*
X174398720Y-128206923D01*
X174388540Y-128297264D01*
X174382362Y-128324333D01*
X174354648Y-128403537D01*
X174342600Y-128428555D01*
X174297957Y-128499604D01*
X174280644Y-128521313D01*
X174221313Y-128580644D01*
X174199604Y-128597957D01*
X174128555Y-128642600D01*
X174103537Y-128654648D01*
X174024333Y-128682362D01*
X173997264Y-128688540D01*
X173917075Y-128697576D01*
X173906921Y-128698720D01*
X173893038Y-128699500D01*
X169299039Y-128699500D01*
X169277793Y-128693261D01*
X169255706Y-128691682D01*
X169244922Y-128683609D01*
X169232000Y-128679815D01*
X169217501Y-128663083D01*
X169199772Y-128649811D01*
X169195064Y-128637188D01*
X169186245Y-128627011D01*
X169183093Y-128605095D01*
X169175355Y-128584347D01*
X169178217Y-128571185D01*
X169176301Y-128557853D01*
X169185499Y-128537711D01*
X169190206Y-128516074D01*
X169203477Y-128498345D01*
X169205326Y-128494297D01*
X169211339Y-128487837D01*
X169289509Y-128409667D01*
X169289514Y-128409664D01*
X169299714Y-128399463D01*
X169299716Y-128399463D01*
X169411520Y-128287659D01*
X169433262Y-128250000D01*
X169464229Y-128196364D01*
X169490575Y-128150731D01*
X169490574Y-128150731D01*
X169490577Y-128150728D01*
X169531501Y-127998000D01*
X169531501Y-127839886D01*
X169531501Y-127832291D01*
X169531500Y-127832273D01*
X169531500Y-127169696D01*
X169551185Y-127102657D01*
X169603989Y-127056902D01*
X169668759Y-127046407D01*
X169702163Y-127049999D01*
X169702172Y-127050000D01*
X170300000Y-127050000D01*
X170800000Y-127050000D01*
X171397828Y-127050000D01*
X171397844Y-127049999D01*
X171457372Y-127043598D01*
X171457379Y-127043596D01*
X171592086Y-126993354D01*
X171592093Y-126993350D01*
X171707187Y-126907190D01*
X171707190Y-126907187D01*
X171793350Y-126792093D01*
X171793354Y-126792086D01*
X171843596Y-126657379D01*
X171843598Y-126657372D01*
X171849999Y-126597844D01*
X171850000Y-126597827D01*
X171850000Y-126050000D01*
X170800000Y-126050000D01*
X170800000Y-127050000D01*
X170300000Y-127050000D01*
X170300000Y-125550000D01*
X170800000Y-125550000D01*
X171850000Y-125550000D01*
X171850000Y-125002172D01*
X171849999Y-125002155D01*
X171843598Y-124942627D01*
X171843596Y-124942620D01*
X171793354Y-124807913D01*
X171793350Y-124807906D01*
X171707190Y-124692812D01*
X171707187Y-124692809D01*
X171592093Y-124606649D01*
X171592086Y-124606645D01*
X171457379Y-124556403D01*
X171457372Y-124556401D01*
X171397844Y-124550000D01*
X170800000Y-124550000D01*
X170800000Y-125550000D01*
X170300000Y-125550000D01*
X170300000Y-124550000D01*
X169702155Y-124550000D01*
X169668756Y-124553592D01*
X169599996Y-124541187D01*
X169548859Y-124493577D01*
X169531500Y-124430303D01*
X169531500Y-122619097D01*
X169551185Y-122552058D01*
X169567819Y-122531416D01*
X171649499Y-120449736D01*
X173739662Y-118359572D01*
X173800983Y-118326089D01*
X173803150Y-118325638D01*
X173861085Y-118314113D01*
X173958497Y-118294737D01*
X174104179Y-118234394D01*
X174206610Y-118165951D01*
X174273286Y-118145074D01*
X174340666Y-118163558D01*
G37*
%TD.AperFunction*%
%TA.AperFunction,Conductor*%
G36*
X155542539Y-120620185D02*
G01*
X155588294Y-120672989D01*
X155599500Y-120724500D01*
X155599500Y-123300500D01*
X155579815Y-123367539D01*
X155527011Y-123413294D01*
X155475500Y-123424500D01*
X155334234Y-123424500D01*
X155187863Y-123463719D01*
X155056635Y-123539485D01*
X155056632Y-123539487D01*
X154949486Y-123646633D01*
X154949482Y-123646638D01*
X154942923Y-123658000D01*
X154892356Y-123706216D01*
X154835536Y-123720000D01*
X154280000Y-123720000D01*
X154280000Y-123220000D01*
X154980000Y-123220000D01*
X154980000Y-122821508D01*
X154979999Y-122821504D01*
X154941572Y-122628318D01*
X154941569Y-122628306D01*
X154866192Y-122446328D01*
X154866185Y-122446315D01*
X154756751Y-122282537D01*
X154756748Y-122282533D01*
X154617466Y-122143251D01*
X154617462Y-122143248D01*
X154453684Y-122033814D01*
X154453671Y-122033807D01*
X154271691Y-121958429D01*
X154271683Y-121958427D01*
X154230000Y-121950135D01*
X154230000Y-122753011D01*
X154220060Y-122735795D01*
X154164205Y-122679940D01*
X154095796Y-122640444D01*
X154019496Y-122620000D01*
X153940504Y-122620000D01*
X153864204Y-122640444D01*
X153795795Y-122679940D01*
X153739940Y-122735795D01*
X153730000Y-122753011D01*
X153730000Y-121950136D01*
X153729999Y-121950135D01*
X153688316Y-121958427D01*
X153688308Y-121958429D01*
X153506328Y-122033807D01*
X153506315Y-122033814D01*
X153342537Y-122143248D01*
X153342533Y-122143251D01*
X153203251Y-122282533D01*
X153203248Y-122282537D01*
X153093814Y-122446315D01*
X153093807Y-122446328D01*
X153018430Y-122628306D01*
X153018427Y-122628318D01*
X152980000Y-122821504D01*
X152980000Y-123220000D01*
X153680000Y-123220000D01*
X153680000Y-123720000D01*
X152980000Y-123720000D01*
X152980000Y-124118495D01*
X153018427Y-124311681D01*
X153018430Y-124311693D01*
X153093807Y-124493671D01*
X153093814Y-124493684D01*
X153203248Y-124657462D01*
X153203251Y-124657466D01*
X153342533Y-124796748D01*
X153342537Y-124796751D01*
X153506315Y-124906185D01*
X153506328Y-124906192D01*
X153688308Y-124981569D01*
X153730000Y-124989862D01*
X153730000Y-124186988D01*
X153739940Y-124204205D01*
X153795795Y-124260060D01*
X153864204Y-124299556D01*
X153940504Y-124320000D01*
X154019496Y-124320000D01*
X154095796Y-124299556D01*
X154164205Y-124260060D01*
X154220060Y-124204205D01*
X154230000Y-124186988D01*
X154230000Y-124989862D01*
X154271690Y-124981569D01*
X154271692Y-124981569D01*
X154453671Y-124906192D01*
X154453683Y-124906185D01*
X154562976Y-124833158D01*
X154629653Y-124812280D01*
X154697033Y-124830764D01*
X154743724Y-124882743D01*
X154755156Y-124949512D01*
X154749500Y-125002127D01*
X154749500Y-125002128D01*
X154749500Y-125002132D01*
X154749500Y-125893542D01*
X154729815Y-125960581D01*
X154677011Y-126006336D01*
X154607853Y-126016280D01*
X154563503Y-126000931D01*
X154553522Y-125995169D01*
X154543570Y-125989423D01*
X154390842Y-125948499D01*
X154232728Y-125948499D01*
X154225132Y-125948499D01*
X154225116Y-125948500D01*
X153734884Y-125948500D01*
X153734868Y-125948499D01*
X153727272Y-125948499D01*
X153569158Y-125948499D01*
X153489225Y-125969917D01*
X153416431Y-125989422D01*
X153385399Y-126007339D01*
X153385398Y-126007338D01*
X153279502Y-126068477D01*
X153279497Y-126068481D01*
X152119481Y-127228497D01*
X152119480Y-127228499D01*
X152078351Y-127299737D01*
X152040423Y-127365430D01*
X151999499Y-127518158D01*
X151999499Y-127518160D01*
X151999499Y-127686261D01*
X151999500Y-127686274D01*
X151999500Y-127874500D01*
X151979815Y-127941539D01*
X151927011Y-127987294D01*
X151875500Y-127998500D01*
X147173418Y-127998500D01*
X147106379Y-127978815D01*
X147085737Y-127962181D01*
X146385736Y-127262180D01*
X146352251Y-127200857D01*
X146357235Y-127131165D01*
X146399107Y-127075232D01*
X146464571Y-127050815D01*
X146473417Y-127050499D01*
X146897871Y-127050499D01*
X146897872Y-127050499D01*
X146957483Y-127044091D01*
X147092331Y-126993796D01*
X147207546Y-126907546D01*
X147293796Y-126792331D01*
X147344091Y-126657483D01*
X147350500Y-126597873D01*
X147350500Y-126597844D01*
X149250000Y-126597844D01*
X149256401Y-126657372D01*
X149256403Y-126657379D01*
X149306645Y-126792086D01*
X149306649Y-126792093D01*
X149392809Y-126907187D01*
X149392812Y-126907190D01*
X149507906Y-126993350D01*
X149507913Y-126993354D01*
X149642620Y-127043596D01*
X149642627Y-127043598D01*
X149702155Y-127049999D01*
X149702172Y-127050000D01*
X150300000Y-127050000D01*
X150800000Y-127050000D01*
X151397828Y-127050000D01*
X151397844Y-127049999D01*
X151457372Y-127043598D01*
X151457379Y-127043596D01*
X151592086Y-126993354D01*
X151592093Y-126993350D01*
X151707187Y-126907190D01*
X151707190Y-126907187D01*
X151793350Y-126792093D01*
X151793354Y-126792086D01*
X151843596Y-126657379D01*
X151843598Y-126657372D01*
X151849999Y-126597844D01*
X151850000Y-126597827D01*
X151850000Y-126050000D01*
X150800000Y-126050000D01*
X150800000Y-127050000D01*
X150300000Y-127050000D01*
X150300000Y-126050000D01*
X149250000Y-126050000D01*
X149250000Y-126597844D01*
X147350500Y-126597844D01*
X147350499Y-125400095D01*
X147370184Y-125333057D01*
X147386813Y-125312420D01*
X147697078Y-125002155D01*
X149250000Y-125002155D01*
X149250000Y-125550000D01*
X150300000Y-125550000D01*
X150800000Y-125550000D01*
X151850000Y-125550000D01*
X151850000Y-125002172D01*
X151849999Y-125002155D01*
X151843598Y-124942627D01*
X151843596Y-124942620D01*
X151793354Y-124807913D01*
X151793350Y-124807906D01*
X151707190Y-124692812D01*
X151707187Y-124692809D01*
X151592093Y-124606649D01*
X151592086Y-124606645D01*
X151457379Y-124556403D01*
X151457372Y-124556401D01*
X151397844Y-124550000D01*
X150800000Y-124550000D01*
X150800000Y-125550000D01*
X150300000Y-125550000D01*
X150300000Y-124550000D01*
X149702155Y-124550000D01*
X149642627Y-124556401D01*
X149642620Y-124556403D01*
X149507913Y-124606645D01*
X149507906Y-124606649D01*
X149392812Y-124692809D01*
X149392809Y-124692812D01*
X149306649Y-124807906D01*
X149306645Y-124807913D01*
X149256403Y-124942620D01*
X149256401Y-124942627D01*
X149250000Y-125002155D01*
X147697078Y-125002155D01*
X152062417Y-120636819D01*
X152123740Y-120603334D01*
X152150098Y-120600500D01*
X155475500Y-120600500D01*
X155542539Y-120620185D01*
G37*
%TD.AperFunction*%
%TA.AperFunction,Conductor*%
G36*
X160237273Y-123175185D02*
G01*
X160239125Y-123176398D01*
X160370814Y-123264390D01*
X160370827Y-123264397D01*
X160457989Y-123300500D01*
X160516503Y-123324737D01*
X160671153Y-123355499D01*
X160671156Y-123355500D01*
X160721258Y-123355500D01*
X160788297Y-123375185D01*
X160834052Y-123427989D01*
X160843996Y-123497147D01*
X160814971Y-123560703D01*
X160808939Y-123567181D01*
X160729487Y-123646632D01*
X160729485Y-123646635D01*
X160653719Y-123777863D01*
X160614500Y-123924234D01*
X160614500Y-124075765D01*
X160653719Y-124222136D01*
X160675615Y-124260060D01*
X160729485Y-124353365D01*
X160729487Y-124353367D01*
X160775379Y-124399259D01*
X160808864Y-124460582D01*
X160803880Y-124530274D01*
X160800000Y-124536311D01*
X160800000Y-125550000D01*
X161850000Y-125550000D01*
X161850000Y-125002172D01*
X161849999Y-125002157D01*
X161844300Y-124949154D01*
X161856704Y-124880394D01*
X161904314Y-124829256D01*
X161972013Y-124811976D01*
X162036480Y-124832795D01*
X162146315Y-124906185D01*
X162146328Y-124906192D01*
X162328308Y-124981569D01*
X162370000Y-124989862D01*
X162370000Y-124186988D01*
X162379940Y-124204205D01*
X162435795Y-124260060D01*
X162504204Y-124299556D01*
X162580504Y-124320000D01*
X162659496Y-124320000D01*
X162735796Y-124299556D01*
X162804205Y-124260060D01*
X162860060Y-124204205D01*
X162870000Y-124186988D01*
X162870000Y-124989862D01*
X162911690Y-124981569D01*
X162911692Y-124981569D01*
X163093671Y-124906192D01*
X163093684Y-124906185D01*
X163257462Y-124796751D01*
X163257466Y-124796748D01*
X163387819Y-124666396D01*
X163449142Y-124632911D01*
X163518834Y-124637895D01*
X163574767Y-124679767D01*
X163599184Y-124745231D01*
X163599500Y-124754077D01*
X163599500Y-126048117D01*
X163579815Y-126115156D01*
X163527011Y-126160911D01*
X163457853Y-126170855D01*
X163401423Y-126147559D01*
X163394197Y-126142176D01*
X163320501Y-126068480D01*
X163214599Y-126007338D01*
X163183570Y-125989423D01*
X163183569Y-125989422D01*
X163183568Y-125989422D01*
X163127666Y-125974443D01*
X163030842Y-125948499D01*
X162872728Y-125948499D01*
X162865132Y-125948499D01*
X162865116Y-125948500D01*
X162374884Y-125948500D01*
X162374868Y-125948499D01*
X162367272Y-125948499D01*
X162209158Y-125948499D01*
X162129225Y-125969917D01*
X162056431Y-125989422D01*
X162025399Y-126007339D01*
X162025398Y-126007338D01*
X161969555Y-126039580D01*
X161901655Y-126056053D01*
X161884167Y-126050000D01*
X160800000Y-126050000D01*
X160800000Y-127050000D01*
X160875499Y-127050000D01*
X160884184Y-127052550D01*
X160893145Y-127051262D01*
X160917183Y-127062240D01*
X160942538Y-127069685D01*
X160948465Y-127076526D01*
X160956701Y-127080287D01*
X160970989Y-127102520D01*
X160988293Y-127122489D01*
X160990580Y-127133002D01*
X160994476Y-127139064D01*
X160999498Y-127173997D01*
X160999499Y-127173999D01*
X160999499Y-127316272D01*
X160999499Y-127316274D01*
X160999500Y-127326268D01*
X160999500Y-127874500D01*
X160979815Y-127941539D01*
X160927011Y-127987294D01*
X160875500Y-127998500D01*
X156661883Y-127998500D01*
X156594844Y-127978815D01*
X156574202Y-127962181D01*
X155874201Y-127262180D01*
X155840716Y-127200857D01*
X155845700Y-127131165D01*
X155887572Y-127075232D01*
X155953036Y-127050815D01*
X155961882Y-127050499D01*
X156897871Y-127050499D01*
X156897872Y-127050499D01*
X156957483Y-127044091D01*
X157092331Y-126993796D01*
X157207546Y-126907546D01*
X157293796Y-126792331D01*
X157344091Y-126657483D01*
X157350500Y-126597873D01*
X157350500Y-126597844D01*
X159250000Y-126597844D01*
X159256401Y-126657372D01*
X159256403Y-126657379D01*
X159306645Y-126792086D01*
X159306649Y-126792093D01*
X159392809Y-126907187D01*
X159392812Y-126907190D01*
X159507906Y-126993350D01*
X159507913Y-126993354D01*
X159642620Y-127043596D01*
X159642627Y-127043598D01*
X159702155Y-127049999D01*
X159702172Y-127050000D01*
X160300000Y-127050000D01*
X160300000Y-126050000D01*
X159250000Y-126050000D01*
X159250000Y-126597844D01*
X157350500Y-126597844D01*
X157350499Y-125770978D01*
X157350499Y-125065844D01*
X157369199Y-125002155D01*
X159250000Y-125002155D01*
X159250000Y-125550000D01*
X160300000Y-125550000D01*
X160300000Y-124550000D01*
X159702155Y-124550000D01*
X159642627Y-124556401D01*
X159642620Y-124556403D01*
X159507913Y-124606645D01*
X159507906Y-124606649D01*
X159392812Y-124692809D01*
X159392809Y-124692812D01*
X159306649Y-124807906D01*
X159306645Y-124807913D01*
X159256403Y-124942620D01*
X159256401Y-124942627D01*
X159250000Y-125002155D01*
X157369199Y-125002155D01*
X157370183Y-124998805D01*
X157422987Y-124953050D01*
X157492146Y-124943106D01*
X157521948Y-124951281D01*
X157566503Y-124969737D01*
X157667678Y-124989862D01*
X157721153Y-125000499D01*
X157721156Y-125000500D01*
X157721158Y-125000500D01*
X157878844Y-125000500D01*
X157878845Y-125000499D01*
X158033497Y-124969737D01*
X158146166Y-124923067D01*
X158179172Y-124909397D01*
X158179172Y-124909396D01*
X158179179Y-124909394D01*
X158183982Y-124906185D01*
X158199601Y-124895749D01*
X158250046Y-124862041D01*
X158310289Y-124821789D01*
X158421789Y-124710289D01*
X158509394Y-124579179D01*
X158569737Y-124433497D01*
X158592313Y-124320000D01*
X158600638Y-124278150D01*
X158633023Y-124216239D01*
X158634518Y-124214716D01*
X159657416Y-123191819D01*
X159718739Y-123158334D01*
X159745097Y-123155500D01*
X160170234Y-123155500D01*
X160237273Y-123175185D01*
G37*
%TD.AperFunction*%
%TA.AperFunction,Conductor*%
G36*
X174352151Y-101968806D02*
G01*
X174392680Y-102025719D01*
X174399500Y-102066277D01*
X174399500Y-116780945D01*
X174379815Y-116847984D01*
X174327011Y-116893739D01*
X174257853Y-116903683D01*
X174206609Y-116884047D01*
X174104185Y-116815609D01*
X174104172Y-116815602D01*
X173958501Y-116755264D01*
X173958489Y-116755261D01*
X173803845Y-116724500D01*
X173803842Y-116724500D01*
X173646158Y-116724500D01*
X173646155Y-116724500D01*
X173491510Y-116755261D01*
X173491498Y-116755264D01*
X173345827Y-116815602D01*
X173345814Y-116815609D01*
X173214711Y-116903210D01*
X173214707Y-116903213D01*
X173103213Y-117014707D01*
X173103210Y-117014711D01*
X173015609Y-117145814D01*
X173015602Y-117145827D01*
X172955264Y-117291498D01*
X172955261Y-117291508D01*
X172924361Y-117446850D01*
X172891976Y-117508761D01*
X172890425Y-117510339D01*
X168450481Y-121950282D01*
X168450479Y-121950284D01*
X168424419Y-121995423D01*
X168409756Y-122020821D01*
X168395965Y-122044707D01*
X168371423Y-122087214D01*
X168371423Y-122087215D01*
X168330499Y-122239943D01*
X168330499Y-122239945D01*
X168330499Y-122408046D01*
X168330500Y-122408059D01*
X168330500Y-125611953D01*
X168310815Y-125678992D01*
X168258011Y-125724747D01*
X168230692Y-125733570D01*
X168096508Y-125760261D01*
X168096498Y-125760264D01*
X167950827Y-125820602D01*
X167950814Y-125820609D01*
X167819711Y-125908210D01*
X167819707Y-125908213D01*
X167708213Y-126019707D01*
X167708210Y-126019711D01*
X167620609Y-126150814D01*
X167620604Y-126150824D01*
X167611024Y-126173953D01*
X167598480Y-126189517D01*
X167590176Y-126207703D01*
X167577005Y-126216167D01*
X167567182Y-126228357D01*
X167548214Y-126234669D01*
X167531398Y-126245477D01*
X167503835Y-126249439D01*
X167500888Y-126250421D01*
X167496463Y-126250500D01*
X167474500Y-126250500D01*
X167407461Y-126230815D01*
X167361706Y-126178011D01*
X167350500Y-126126500D01*
X167350499Y-125002129D01*
X167350498Y-125002123D01*
X167350497Y-125002116D01*
X167344843Y-124949514D01*
X167344091Y-124942516D01*
X167293797Y-124807671D01*
X167293793Y-124807664D01*
X167207547Y-124692455D01*
X167207544Y-124692452D01*
X167092335Y-124606206D01*
X167092328Y-124606202D01*
X166957482Y-124555908D01*
X166957483Y-124555908D01*
X166897883Y-124549501D01*
X166897881Y-124549500D01*
X166897873Y-124549500D01*
X166897865Y-124549500D01*
X166774500Y-124549500D01*
X166707461Y-124529815D01*
X166661706Y-124477011D01*
X166650500Y-124425500D01*
X166650500Y-120339059D01*
X166650501Y-120339046D01*
X166650501Y-120170945D01*
X166650501Y-120170943D01*
X166609577Y-120018215D01*
X166580639Y-119968095D01*
X166530520Y-119881284D01*
X166418716Y-119769480D01*
X166418715Y-119769479D01*
X166414385Y-119765149D01*
X166414374Y-119765139D01*
X161734574Y-115085339D01*
X161701089Y-115024016D01*
X161700638Y-115021849D01*
X161669738Y-114866510D01*
X161669737Y-114866503D01*
X161609394Y-114720821D01*
X161609393Y-114720819D01*
X161607105Y-114716539D01*
X161601825Y-114691191D01*
X161592777Y-114666937D01*
X161594818Y-114657546D01*
X161592859Y-114648137D01*
X161602121Y-114623961D01*
X161607622Y-114598663D01*
X161616207Y-114587194D01*
X161617856Y-114582892D01*
X161628764Y-114570414D01*
X161629463Y-114569716D01*
X161629463Y-114569714D01*
X161634215Y-114564961D01*
X174131520Y-102067659D01*
X174168113Y-102004276D01*
X174218679Y-101956062D01*
X174287286Y-101942838D01*
X174352151Y-101968806D01*
G37*
%TD.AperFunction*%
%TA.AperFunction,Conductor*%
G36*
X147728370Y-123005965D02*
G01*
X147755826Y-123010246D01*
X147761530Y-123015308D01*
X147768872Y-123017377D01*
X147787299Y-123038177D01*
X147808084Y-123056624D01*
X147810145Y-123063967D01*
X147815203Y-123069676D01*
X147819459Y-123097137D01*
X147826971Y-123123892D01*
X147824735Y-123131183D01*
X147825904Y-123138722D01*
X147814638Y-123164123D01*
X147806493Y-123190694D01*
X147798517Y-123200470D01*
X147797577Y-123202592D01*
X147795871Y-123203714D01*
X147790661Y-123210102D01*
X146487582Y-124513181D01*
X146426259Y-124546666D01*
X146399901Y-124549500D01*
X145202129Y-124549500D01*
X145202123Y-124549501D01*
X145142516Y-124555908D01*
X145007671Y-124606202D01*
X145007664Y-124606206D01*
X144892455Y-124692452D01*
X144892452Y-124692455D01*
X144806206Y-124807664D01*
X144806202Y-124807671D01*
X144755908Y-124942517D01*
X144749857Y-124998805D01*
X144749501Y-125002123D01*
X144749500Y-125002135D01*
X144749500Y-125185500D01*
X144746949Y-125194185D01*
X144748238Y-125203147D01*
X144737259Y-125227187D01*
X144729815Y-125252539D01*
X144722974Y-125258466D01*
X144719213Y-125266703D01*
X144696978Y-125280992D01*
X144677011Y-125298294D01*
X144666496Y-125300581D01*
X144660435Y-125304477D01*
X144625500Y-125309500D01*
X144484419Y-125309500D01*
X144417380Y-125289815D01*
X144396738Y-125273181D01*
X142937819Y-123814262D01*
X142904334Y-123752939D01*
X142901500Y-123726581D01*
X142901500Y-123245548D01*
X142921185Y-123178509D01*
X142973989Y-123132754D01*
X143043147Y-123122810D01*
X143072948Y-123130985D01*
X143166503Y-123169737D01*
X143321007Y-123200470D01*
X143321153Y-123200499D01*
X143321156Y-123200500D01*
X143321158Y-123200500D01*
X143478844Y-123200500D01*
X143478845Y-123200499D01*
X143633497Y-123169737D01*
X143779179Y-123109394D01*
X143838464Y-123069781D01*
X143910875Y-123021398D01*
X143977553Y-123000520D01*
X143979766Y-123000500D01*
X147520939Y-123000500D01*
X147520943Y-123000501D01*
X147679057Y-123000501D01*
X147686160Y-122998597D01*
X147701621Y-122998428D01*
X147728370Y-123005965D01*
G37*
%TD.AperFunction*%
%TA.AperFunction,Conductor*%
G36*
X158913347Y-114800501D02*
G01*
X159084120Y-114800501D01*
X159151159Y-114820186D01*
X159196914Y-114872990D01*
X159206858Y-114942148D01*
X159203895Y-114956593D01*
X159199499Y-114972997D01*
X159199499Y-115141103D01*
X159199500Y-115141116D01*
X159199500Y-115413330D01*
X159199499Y-115413348D01*
X159199499Y-115579054D01*
X159199498Y-115579054D01*
X159199499Y-115579057D01*
X159240423Y-115731785D01*
X159240424Y-115731786D01*
X159256468Y-115759577D01*
X159256469Y-115759578D01*
X159319475Y-115868709D01*
X159319481Y-115868717D01*
X159438349Y-115987585D01*
X159438355Y-115987590D01*
X160065425Y-116614660D01*
X160098910Y-116675983D01*
X160099361Y-116678149D01*
X160130261Y-116833491D01*
X160130264Y-116833501D01*
X160190602Y-116979172D01*
X160190609Y-116979185D01*
X160278210Y-117110288D01*
X160278213Y-117110292D01*
X160389707Y-117221786D01*
X160427289Y-117246898D01*
X160472093Y-117300511D01*
X160480800Y-117369836D01*
X160450645Y-117432863D01*
X160427289Y-117453102D01*
X160389707Y-117478213D01*
X160278213Y-117589707D01*
X160278210Y-117589711D01*
X160190609Y-117720814D01*
X160190602Y-117720827D01*
X160130264Y-117866498D01*
X160130261Y-117866510D01*
X160099500Y-118021153D01*
X160099500Y-118178846D01*
X160130261Y-118333489D01*
X160130264Y-118333501D01*
X160190602Y-118479172D01*
X160190609Y-118479185D01*
X160278210Y-118610288D01*
X160278213Y-118610292D01*
X160389707Y-118721786D01*
X160389711Y-118721789D01*
X160520814Y-118809390D01*
X160520827Y-118809397D01*
X160666498Y-118869735D01*
X160666503Y-118869737D01*
X160731147Y-118882595D01*
X160821849Y-118900638D01*
X160883760Y-118933023D01*
X160885339Y-118934574D01*
X163563181Y-121612416D01*
X163596666Y-121673739D01*
X163599500Y-121700097D01*
X163599500Y-122185923D01*
X163579815Y-122252962D01*
X163527011Y-122298717D01*
X163457853Y-122308661D01*
X163394297Y-122279636D01*
X163387819Y-122273604D01*
X163257466Y-122143251D01*
X163257462Y-122143248D01*
X163093684Y-122033814D01*
X163093671Y-122033807D01*
X162911691Y-121958429D01*
X162911683Y-121958427D01*
X162870000Y-121950135D01*
X162870000Y-122753011D01*
X162860060Y-122735795D01*
X162804205Y-122679940D01*
X162735796Y-122640444D01*
X162659496Y-122620000D01*
X162580504Y-122620000D01*
X162504204Y-122640444D01*
X162435795Y-122679940D01*
X162379940Y-122735795D01*
X162370000Y-122753011D01*
X162370000Y-121950136D01*
X162369999Y-121950135D01*
X162328316Y-121958427D01*
X162328308Y-121958429D01*
X162146328Y-122033807D01*
X162146315Y-122033814D01*
X161982537Y-122143248D01*
X161982533Y-122143251D01*
X161843251Y-122282533D01*
X161843248Y-122282537D01*
X161754295Y-122415664D01*
X161700682Y-122460469D01*
X161631357Y-122469176D01*
X161568330Y-122439021D01*
X161531611Y-122379578D01*
X161529576Y-122370964D01*
X161519738Y-122321510D01*
X161519737Y-122321503D01*
X161463728Y-122186284D01*
X161459397Y-122175827D01*
X161459390Y-122175814D01*
X161371789Y-122044711D01*
X161371786Y-122044707D01*
X161260292Y-121933213D01*
X161260288Y-121933210D01*
X161129185Y-121845609D01*
X161129172Y-121845602D01*
X160983501Y-121785264D01*
X160983489Y-121785261D01*
X160828845Y-121754500D01*
X160828842Y-121754500D01*
X160671158Y-121754500D01*
X160671155Y-121754500D01*
X160516510Y-121785261D01*
X160516498Y-121785264D01*
X160370827Y-121845602D01*
X160370814Y-121845609D01*
X160239125Y-121933602D01*
X160172447Y-121954480D01*
X160170234Y-121954500D01*
X159365942Y-121954500D01*
X159213213Y-121995423D01*
X159169225Y-122020821D01*
X159169224Y-122020821D01*
X159076287Y-122074477D01*
X159076282Y-122074481D01*
X157785339Y-123365425D01*
X157724016Y-123398910D01*
X157721850Y-123399361D01*
X157566508Y-123430261D01*
X157566498Y-123430264D01*
X157420827Y-123490602D01*
X157420814Y-123490609D01*
X157289711Y-123578210D01*
X157289707Y-123578213D01*
X157178213Y-123689707D01*
X157178210Y-123689711D01*
X157090609Y-123820814D01*
X157090602Y-123820827D01*
X157039061Y-123945261D01*
X156995220Y-123999665D01*
X156928926Y-124021730D01*
X156861227Y-124004451D01*
X156813616Y-123953314D01*
X156800500Y-123897809D01*
X156800500Y-115500097D01*
X156820185Y-115433058D01*
X156836819Y-115412416D01*
X157412417Y-114836819D01*
X157473740Y-114803334D01*
X157500098Y-114800500D01*
X158913331Y-114800500D01*
X158913347Y-114800501D01*
G37*
%TD.AperFunction*%
%TA.AperFunction,Conductor*%
G36*
X161578862Y-123010339D02*
G01*
X161615581Y-123069781D01*
X161620000Y-123102588D01*
X161620000Y-123220000D01*
X162320000Y-123220000D01*
X162320000Y-123720000D01*
X161764464Y-123720000D01*
X161697425Y-123700315D01*
X161657077Y-123658000D01*
X161650517Y-123646638D01*
X161650513Y-123646633D01*
X161543367Y-123539487D01*
X161543365Y-123539485D01*
X161458710Y-123490609D01*
X161412136Y-123463719D01*
X161287274Y-123430263D01*
X161265766Y-123424500D01*
X161261593Y-123423382D01*
X161201932Y-123387017D01*
X161171403Y-123324170D01*
X161179698Y-123254795D01*
X161224183Y-123200917D01*
X161224671Y-123200587D01*
X161260289Y-123176789D01*
X161371789Y-123065289D01*
X161392898Y-123033697D01*
X161446509Y-122988893D01*
X161515834Y-122980185D01*
X161578862Y-123010339D01*
G37*
%TD.AperFunction*%
%TA.AperFunction,Conductor*%
G36*
X157604591Y-110376581D02*
G01*
X157606443Y-110377794D01*
X157738132Y-110465786D01*
X157738145Y-110465793D01*
X157871798Y-110521153D01*
X157883821Y-110526133D01*
X158038471Y-110556895D01*
X158038474Y-110556896D01*
X158038476Y-110556896D01*
X158196162Y-110556896D01*
X158291699Y-110537892D01*
X158361291Y-110544119D01*
X158416468Y-110586982D01*
X158439713Y-110652871D01*
X158423646Y-110720868D01*
X158403572Y-110747190D01*
X147387584Y-121763181D01*
X147326261Y-121796666D01*
X147299903Y-121799500D01*
X143979766Y-121799500D01*
X143912727Y-121779815D01*
X143910875Y-121778602D01*
X143779185Y-121690609D01*
X143779172Y-121690602D01*
X143633501Y-121630264D01*
X143633489Y-121630261D01*
X143478845Y-121599500D01*
X143478842Y-121599500D01*
X143321158Y-121599500D01*
X143321155Y-121599500D01*
X143166510Y-121630261D01*
X143166498Y-121630264D01*
X143072952Y-121669012D01*
X143003482Y-121676481D01*
X142941003Y-121645205D01*
X142905352Y-121585116D01*
X142901500Y-121554451D01*
X142901500Y-113499097D01*
X142921185Y-113432058D01*
X142937819Y-113411416D01*
X143414664Y-112934571D01*
X143475985Y-112901088D01*
X143478152Y-112900637D01*
X143478841Y-112900500D01*
X143478842Y-112900500D01*
X143633497Y-112869737D01*
X143779179Y-112809394D01*
X143910289Y-112721789D01*
X144021789Y-112610289D01*
X144109394Y-112479179D01*
X144169737Y-112333497D01*
X144200500Y-112178842D01*
X144200500Y-112021158D01*
X144200500Y-112021155D01*
X144200499Y-112021153D01*
X144169738Y-111866510D01*
X144169738Y-111866508D01*
X144169737Y-111866503D01*
X144113728Y-111731284D01*
X144109397Y-111720827D01*
X144109390Y-111720814D01*
X144021789Y-111589711D01*
X144021786Y-111589707D01*
X143910292Y-111478213D01*
X143910284Y-111478207D01*
X143872712Y-111453102D01*
X143851678Y-111427934D01*
X143829745Y-111403516D01*
X143829378Y-111401251D01*
X143827906Y-111399490D01*
X143823816Y-111366930D01*
X143818569Y-111334546D01*
X143819484Y-111332441D01*
X143819199Y-111330165D01*
X143833358Y-111300568D01*
X143846455Y-111270482D01*
X143848731Y-111268437D01*
X143849353Y-111267138D01*
X143872712Y-111246897D01*
X143910876Y-111221397D01*
X143977554Y-111200520D01*
X143979766Y-111200500D01*
X155913331Y-111200500D01*
X155913347Y-111200501D01*
X155920943Y-111200501D01*
X156079054Y-111200501D01*
X156079057Y-111200501D01*
X156231785Y-111159577D01*
X156281904Y-111130639D01*
X156368716Y-111080520D01*
X156480520Y-110968716D01*
X156480520Y-110968714D01*
X156490728Y-110958507D01*
X156490729Y-110958504D01*
X157056020Y-110393215D01*
X157117343Y-110359730D01*
X157143701Y-110356896D01*
X157537552Y-110356896D01*
X157604591Y-110376581D01*
G37*
%TD.AperFunction*%
%TA.AperFunction,Conductor*%
G36*
X155117834Y-115833914D02*
G01*
X155173767Y-115875786D01*
X155198184Y-115941250D01*
X155198500Y-115950096D01*
X155198500Y-119275500D01*
X155178815Y-119342539D01*
X155126011Y-119388294D01*
X155074500Y-119399500D01*
X151929062Y-119399500D01*
X151929058Y-119399499D01*
X151770943Y-119399499D01*
X151763839Y-119401402D01*
X151748376Y-119401572D01*
X151721625Y-119394034D01*
X151694168Y-119389753D01*
X151688464Y-119384691D01*
X151681125Y-119382623D01*
X151662695Y-119361819D01*
X151641912Y-119343373D01*
X151639851Y-119336032D01*
X151634794Y-119330324D01*
X151630537Y-119302858D01*
X151623026Y-119276105D01*
X151625261Y-119268814D01*
X151624093Y-119261278D01*
X151635360Y-119235872D01*
X151643506Y-119209304D01*
X151651478Y-119199530D01*
X151652420Y-119197408D01*
X151654125Y-119196285D01*
X151659333Y-119189900D01*
X154986821Y-115862413D01*
X155048142Y-115828930D01*
X155117834Y-115833914D01*
G37*
%TD.AperFunction*%
%TA.AperFunction,Conductor*%
G36*
X172908766Y-101298971D02*
G01*
X172938827Y-101298112D01*
X172943302Y-101300811D01*
X172948520Y-101301089D01*
X172972907Y-101318662D01*
X172998660Y-101334192D01*
X173000966Y-101338882D01*
X173005205Y-101341937D01*
X173016220Y-101369907D01*
X173029489Y-101396893D01*
X173028893Y-101402085D01*
X173030808Y-101406947D01*
X173024952Y-101436435D01*
X173021525Y-101466307D01*
X173017972Y-101471582D01*
X173017199Y-101475479D01*
X173011067Y-101481837D01*
X172994986Y-101505720D01*
X161549509Y-112951196D01*
X161488186Y-112984681D01*
X161418494Y-112979697D01*
X161392936Y-112966616D01*
X161372710Y-112953101D01*
X161327905Y-112899488D01*
X161319199Y-112830163D01*
X161349355Y-112767136D01*
X161372712Y-112746898D01*
X161399279Y-112729145D01*
X161410289Y-112721789D01*
X161521789Y-112610289D01*
X161609394Y-112479179D01*
X161669737Y-112333497D01*
X161700500Y-112178842D01*
X161700500Y-112021158D01*
X161700500Y-112021155D01*
X161700499Y-112021153D01*
X161669738Y-111866510D01*
X161669738Y-111866508D01*
X161669737Y-111866503D01*
X161613728Y-111731284D01*
X161609397Y-111720827D01*
X161609390Y-111720814D01*
X161521789Y-111589711D01*
X161521786Y-111589707D01*
X161410292Y-111478213D01*
X161410288Y-111478210D01*
X161279185Y-111390609D01*
X161279172Y-111390602D01*
X161133501Y-111330264D01*
X161133489Y-111330261D01*
X160978845Y-111299500D01*
X160978842Y-111299500D01*
X160821158Y-111299500D01*
X160821155Y-111299500D01*
X160666510Y-111330261D01*
X160666498Y-111330264D01*
X160520827Y-111390602D01*
X160520814Y-111390609D01*
X160389714Y-111478208D01*
X160360648Y-111507273D01*
X160328842Y-111530288D01*
X160317416Y-111536054D01*
X160301115Y-111540423D01*
X160250995Y-111569360D01*
X160247982Y-111571099D01*
X160247977Y-111571102D01*
X160164185Y-111619479D01*
X160164182Y-111619481D01*
X159632762Y-112150902D01*
X159231286Y-112552378D01*
X159231284Y-112552380D01*
X158953502Y-112830163D01*
X158704034Y-113079631D01*
X158642711Y-113113116D01*
X158616353Y-113115950D01*
X158032648Y-113115950D01*
X157965609Y-113096265D01*
X157919854Y-113043461D01*
X157909910Y-112974303D01*
X157938935Y-112910747D01*
X157944967Y-112904269D01*
X158982738Y-111866498D01*
X160080520Y-110768716D01*
X160080520Y-110768714D01*
X160090724Y-110758511D01*
X160090727Y-110758506D01*
X160914665Y-109934570D01*
X160975984Y-109901088D01*
X160978151Y-109900637D01*
X160978840Y-109900500D01*
X160978842Y-109900500D01*
X161133497Y-109869737D01*
X161279179Y-109809394D01*
X161410289Y-109721789D01*
X161521789Y-109610289D01*
X161609394Y-109479179D01*
X161652942Y-109374042D01*
X161696781Y-109319642D01*
X161763075Y-109297576D01*
X161814222Y-109309402D01*
X161815192Y-109307063D01*
X161966498Y-109369735D01*
X161966503Y-109369737D01*
X162096992Y-109395693D01*
X162121153Y-109400499D01*
X162121156Y-109400500D01*
X162121158Y-109400500D01*
X162278844Y-109400500D01*
X162278845Y-109400499D01*
X162433497Y-109369737D01*
X162579179Y-109309394D01*
X162710289Y-109221789D01*
X162821789Y-109110289D01*
X162909394Y-108979179D01*
X162969737Y-108833497D01*
X163000500Y-108678842D01*
X163000500Y-108521158D01*
X163000500Y-108521155D01*
X163000499Y-108521153D01*
X162974531Y-108390606D01*
X162969737Y-108366503D01*
X162969735Y-108366498D01*
X162909397Y-108220827D01*
X162909389Y-108220812D01*
X162891067Y-108193392D01*
X162870188Y-108126715D01*
X162888672Y-108059334D01*
X162940650Y-108012644D01*
X162994168Y-108000500D01*
X165713331Y-108000500D01*
X165713347Y-108000501D01*
X165720943Y-108000501D01*
X165879054Y-108000501D01*
X165879057Y-108000501D01*
X166031785Y-107959577D01*
X166081904Y-107930639D01*
X166168716Y-107880520D01*
X166280520Y-107768716D01*
X166280520Y-107768714D01*
X166290728Y-107758507D01*
X166290730Y-107758504D01*
X172687644Y-101361589D01*
X172702681Y-101353200D01*
X172713928Y-101341538D01*
X172739964Y-101332400D01*
X172746768Y-101328605D01*
X172751314Y-101327529D01*
X172816243Y-101317246D01*
X172873812Y-101298540D01*
X172878750Y-101297372D01*
X172908766Y-101298971D01*
G37*
%TD.AperFunction*%
%TA.AperFunction,Conductor*%
G36*
X142405703Y-102109726D02*
G01*
X142427602Y-102134548D01*
X142478210Y-102210288D01*
X142478213Y-102210292D01*
X142589707Y-102321786D01*
X142589711Y-102321789D01*
X142720814Y-102409390D01*
X142720827Y-102409397D01*
X142866498Y-102469735D01*
X142866503Y-102469737D01*
X142931147Y-102482595D01*
X143021849Y-102500638D01*
X143083760Y-102533023D01*
X143085339Y-102534574D01*
X146938584Y-106387819D01*
X146972069Y-106449142D01*
X146967085Y-106518834D01*
X146925213Y-106574767D01*
X146859749Y-106599184D01*
X146850903Y-106599500D01*
X145386670Y-106599500D01*
X145386654Y-106599499D01*
X145379058Y-106599499D01*
X145220943Y-106599499D01*
X145144579Y-106619961D01*
X145068214Y-106640423D01*
X145068209Y-106640426D01*
X144931290Y-106719475D01*
X144931282Y-106719481D01*
X143385339Y-108265425D01*
X143324016Y-108298910D01*
X143321850Y-108299361D01*
X143166508Y-108330261D01*
X143166498Y-108330264D01*
X143020827Y-108390602D01*
X143020814Y-108390609D01*
X142889711Y-108478210D01*
X142889707Y-108478213D01*
X142778213Y-108589707D01*
X142778210Y-108589711D01*
X142690609Y-108720814D01*
X142690602Y-108720827D01*
X142630264Y-108866498D01*
X142630261Y-108866510D01*
X142599500Y-109021153D01*
X142599500Y-109178846D01*
X142630261Y-109333489D01*
X142630264Y-109333501D01*
X142690602Y-109479172D01*
X142690609Y-109479185D01*
X142778210Y-109610288D01*
X142778213Y-109610292D01*
X142889707Y-109721786D01*
X142889710Y-109721788D01*
X142889711Y-109721789D01*
X142915219Y-109738833D01*
X142927289Y-109746898D01*
X142972093Y-109800511D01*
X142980800Y-109869836D01*
X142950645Y-109932863D01*
X142927289Y-109953102D01*
X142889707Y-109978213D01*
X142778213Y-110089707D01*
X142778210Y-110089711D01*
X142690609Y-110220814D01*
X142690602Y-110220827D01*
X142630264Y-110366498D01*
X142630261Y-110366510D01*
X142599500Y-110521153D01*
X142599500Y-110678846D01*
X142630261Y-110833489D01*
X142630264Y-110833501D01*
X142690602Y-110979172D01*
X142690609Y-110979185D01*
X142778210Y-111110288D01*
X142778213Y-111110292D01*
X142889707Y-111221786D01*
X142927289Y-111246898D01*
X142972093Y-111300511D01*
X142980800Y-111369836D01*
X142950645Y-111432863D01*
X142927289Y-111453102D01*
X142889707Y-111478213D01*
X142778213Y-111589707D01*
X142778210Y-111589711D01*
X142690609Y-111720814D01*
X142690602Y-111720827D01*
X142630264Y-111866498D01*
X142630261Y-111866508D01*
X142599362Y-112021848D01*
X142590596Y-112038604D01*
X142586577Y-112057083D01*
X142567832Y-112082123D01*
X142566977Y-112083759D01*
X142565427Y-112085337D01*
X142412179Y-112238584D01*
X142350858Y-112272068D01*
X142281167Y-112267084D01*
X142225233Y-112225213D01*
X142200816Y-112159748D01*
X142200500Y-112150902D01*
X142200500Y-102203439D01*
X142220185Y-102136400D01*
X142272989Y-102090645D01*
X142342147Y-102080701D01*
X142405703Y-102109726D01*
G37*
%TD.AperFunction*%
%TA.AperFunction,Conductor*%
G36*
X147753299Y-107806518D02*
G01*
X147774627Y-107807767D01*
X147795899Y-107819027D01*
X147799841Y-107820185D01*
X147803201Y-107822892D01*
X147805820Y-107824279D01*
X147813641Y-107829977D01*
X147865184Y-107881520D01*
X147951995Y-107931639D01*
X147957688Y-107934926D01*
X147957695Y-107934931D01*
X147992472Y-107955009D01*
X148002115Y-107960577D01*
X148154843Y-108001501D01*
X148154846Y-108001501D01*
X148320553Y-108001501D01*
X148320569Y-108001500D01*
X154405163Y-108001500D01*
X154472202Y-108021185D01*
X154517957Y-108073989D01*
X154527901Y-108143147D01*
X154508266Y-108194390D01*
X154490608Y-108220816D01*
X154490602Y-108220827D01*
X154430264Y-108366498D01*
X154430261Y-108366510D01*
X154399500Y-108521153D01*
X154399500Y-108678846D01*
X154430261Y-108833489D01*
X154430264Y-108833501D01*
X154490602Y-108979172D01*
X154490609Y-108979185D01*
X154578210Y-109110288D01*
X154578213Y-109110292D01*
X154689707Y-109221786D01*
X154689711Y-109221789D01*
X154820814Y-109309390D01*
X154820827Y-109309397D01*
X154966498Y-109369735D01*
X154966503Y-109369737D01*
X155096992Y-109395693D01*
X155121153Y-109400499D01*
X155121156Y-109400500D01*
X155121158Y-109400500D01*
X155278844Y-109400500D01*
X155278845Y-109400499D01*
X155433497Y-109369737D01*
X155579179Y-109309394D01*
X155631110Y-109274694D01*
X155697785Y-109253816D01*
X155765165Y-109272300D01*
X155768863Y-109274676D01*
X155820821Y-109309394D01*
X155820823Y-109309395D01*
X155820825Y-109309396D01*
X155966498Y-109369735D01*
X155966503Y-109369737D01*
X156023533Y-109381081D01*
X156084723Y-109393253D01*
X156146634Y-109425638D01*
X156181208Y-109486353D01*
X156177469Y-109556123D01*
X156148213Y-109602551D01*
X155787584Y-109963181D01*
X155726261Y-109996666D01*
X155699903Y-109999500D01*
X143979766Y-109999500D01*
X143961622Y-109994172D01*
X143942714Y-109993835D01*
X143914493Y-109980333D01*
X143912727Y-109979815D01*
X143910876Y-109978603D01*
X143872712Y-109953103D01*
X143827907Y-109899491D01*
X143819199Y-109830166D01*
X143849353Y-109767138D01*
X143872712Y-109746898D01*
X143899279Y-109729145D01*
X143910289Y-109721789D01*
X144021789Y-109610289D01*
X144109394Y-109479179D01*
X144169737Y-109333497D01*
X144191958Y-109221786D01*
X144200638Y-109178150D01*
X144233023Y-109116239D01*
X144234517Y-109114717D01*
X145512417Y-107836819D01*
X145573740Y-107803334D01*
X145600098Y-107800500D01*
X147732802Y-107800500D01*
X147753299Y-107806518D01*
G37*
%TD.AperFunction*%
%TA.AperFunction,Conductor*%
G36*
X170366941Y-101771185D02*
G01*
X170412696Y-101823989D01*
X170422640Y-101893147D01*
X170393615Y-101956703D01*
X170387583Y-101963181D01*
X165587584Y-106763181D01*
X165526261Y-106796666D01*
X165499903Y-106799500D01*
X160666199Y-106799500D01*
X160599160Y-106779815D01*
X160578518Y-106763182D01*
X160446620Y-106631285D01*
X160446620Y-106631284D01*
X160334817Y-106519481D01*
X160334816Y-106519480D01*
X160248004Y-106469360D01*
X160248004Y-106469359D01*
X160248000Y-106469358D01*
X160197885Y-106440423D01*
X160045157Y-106399499D01*
X159887043Y-106399499D01*
X159879447Y-106399499D01*
X159879431Y-106399500D01*
X155594168Y-106399500D01*
X155527129Y-106379815D01*
X155481374Y-106327011D01*
X155471430Y-106257853D01*
X155491067Y-106206608D01*
X155509389Y-106179187D01*
X155509390Y-106179184D01*
X155509394Y-106179179D01*
X155569737Y-106033497D01*
X155574505Y-106009524D01*
X155596231Y-105900308D01*
X155628616Y-105838397D01*
X155689332Y-105803823D01*
X155717848Y-105800500D01*
X161313331Y-105800500D01*
X161313347Y-105800501D01*
X161320943Y-105800501D01*
X161479054Y-105800501D01*
X161479057Y-105800501D01*
X161631785Y-105759577D01*
X161698328Y-105721158D01*
X161768716Y-105680520D01*
X161880520Y-105568716D01*
X161880520Y-105568714D01*
X161890724Y-105558511D01*
X161890727Y-105558506D01*
X162787820Y-104661415D01*
X162807255Y-104650803D01*
X162823989Y-104636303D01*
X162837320Y-104634386D01*
X162849142Y-104627931D01*
X162871228Y-104629510D01*
X162893147Y-104626359D01*
X162905398Y-104631954D01*
X162918834Y-104632915D01*
X162936560Y-104646185D01*
X162956703Y-104655384D01*
X162963985Y-104666715D01*
X162974767Y-104674787D01*
X162982504Y-104695532D01*
X162994477Y-104714162D01*
X162997628Y-104736080D01*
X162999184Y-104740251D01*
X162999500Y-104749097D01*
X162999500Y-104820234D01*
X162979815Y-104887273D01*
X162978602Y-104889125D01*
X162890609Y-105020814D01*
X162890602Y-105020827D01*
X162830264Y-105166498D01*
X162830261Y-105166510D01*
X162799500Y-105321153D01*
X162799500Y-105478846D01*
X162830261Y-105633489D01*
X162830264Y-105633501D01*
X162890602Y-105779172D01*
X162890609Y-105779185D01*
X162978210Y-105910288D01*
X162978213Y-105910292D01*
X163089707Y-106021786D01*
X163089711Y-106021789D01*
X163220814Y-106109390D01*
X163220827Y-106109397D01*
X163366498Y-106169735D01*
X163366503Y-106169737D01*
X163521153Y-106200499D01*
X163521156Y-106200500D01*
X163521158Y-106200500D01*
X163678844Y-106200500D01*
X163678845Y-106200499D01*
X163833497Y-106169737D01*
X163979179Y-106109394D01*
X164110289Y-106021789D01*
X164221789Y-105910289D01*
X164309394Y-105779179D01*
X164369737Y-105633497D01*
X164392921Y-105516944D01*
X164425305Y-105455033D01*
X164486021Y-105420459D01*
X164555791Y-105424198D01*
X164602219Y-105453454D01*
X164718481Y-105569716D01*
X164830284Y-105681519D01*
X164967215Y-105760577D01*
X165119943Y-105801501D01*
X165119946Y-105801501D01*
X165329411Y-105801501D01*
X165329420Y-105801500D01*
X165430119Y-105801500D01*
X165762274Y-105801500D01*
X165762290Y-105801501D01*
X165769886Y-105801501D01*
X165927997Y-105801501D01*
X165928000Y-105801501D01*
X166080728Y-105760577D01*
X166149003Y-105721158D01*
X166217659Y-105681520D01*
X166329463Y-105569716D01*
X166329465Y-105569713D01*
X166681520Y-105217659D01*
X166760577Y-105080728D01*
X166801501Y-104928000D01*
X166801501Y-104769885D01*
X166801501Y-104762290D01*
X166801500Y-104762272D01*
X166801500Y-104499097D01*
X166821185Y-104432058D01*
X166837819Y-104411416D01*
X169461415Y-101787820D01*
X169488342Y-101773116D01*
X169514155Y-101756526D01*
X169520359Y-101755633D01*
X169522738Y-101754335D01*
X169549090Y-101751501D01*
X169562298Y-101751501D01*
X169562300Y-101751500D01*
X169569904Y-101751500D01*
X170299902Y-101751500D01*
X170366941Y-101771185D01*
G37*
%TD.AperFunction*%
%TA.AperFunction,Conductor*%
G36*
X149356835Y-83994912D02*
G01*
X149412769Y-84036783D01*
X149437186Y-84102248D01*
X149435975Y-84130492D01*
X149409500Y-84297648D01*
X149409500Y-84502351D01*
X149441522Y-84704534D01*
X149504781Y-84899223D01*
X149556385Y-85000500D01*
X149579656Y-85046172D01*
X149597715Y-85081613D01*
X149718028Y-85247213D01*
X149718034Y-85247219D01*
X149862781Y-85391966D01*
X150028390Y-85512287D01*
X150041793Y-85519116D01*
X150092589Y-85567088D01*
X150109500Y-85629601D01*
X150109500Y-86170397D01*
X150089815Y-86237436D01*
X150041800Y-86280879D01*
X150028389Y-86287712D01*
X149862786Y-86408028D01*
X149718028Y-86552786D01*
X149597715Y-86718386D01*
X149504781Y-86900776D01*
X149441522Y-87095465D01*
X149409500Y-87297648D01*
X149409500Y-87502351D01*
X149441522Y-87704534D01*
X149504781Y-87899223D01*
X149597715Y-88081613D01*
X149718028Y-88247213D01*
X149718034Y-88247219D01*
X149862781Y-88391966D01*
X150028390Y-88512287D01*
X150041793Y-88519116D01*
X150092589Y-88567088D01*
X150109500Y-88629601D01*
X150109500Y-89165302D01*
X150089815Y-89232341D01*
X150041797Y-89275786D01*
X150018386Y-89287714D01*
X149852786Y-89408028D01*
X149708028Y-89552786D01*
X149587715Y-89718386D01*
X149494781Y-89900776D01*
X149431522Y-90095465D01*
X149399500Y-90297648D01*
X149399500Y-90502351D01*
X149431522Y-90704534D01*
X149494781Y-90899223D01*
X149546385Y-91000500D01*
X149587712Y-91081609D01*
X149587715Y-91081613D01*
X149708028Y-91247213D01*
X149708034Y-91247219D01*
X149852781Y-91391966D01*
X150018390Y-91512287D01*
X150041793Y-91524211D01*
X150092589Y-91572183D01*
X150109500Y-91634696D01*
X150109500Y-92165302D01*
X150089815Y-92232341D01*
X150041797Y-92275786D01*
X150018386Y-92287714D01*
X149852786Y-92408028D01*
X149708028Y-92552786D01*
X149587715Y-92718386D01*
X149494781Y-92900776D01*
X149431522Y-93095465D01*
X149399500Y-93297648D01*
X149399500Y-93502351D01*
X149431522Y-93704534D01*
X149494781Y-93899223D01*
X149587715Y-94081613D01*
X149708028Y-94247213D01*
X149852786Y-94391971D01*
X150015479Y-94510172D01*
X150018390Y-94512287D01*
X150021813Y-94514031D01*
X150021819Y-94514034D01*
X150072618Y-94562005D01*
X150089418Y-94629825D01*
X150066884Y-94695961D01*
X150018709Y-94734508D01*
X150019202Y-94735361D01*
X150013606Y-94738591D01*
X150013001Y-94739076D01*
X150012172Y-94739419D01*
X149977256Y-94759578D01*
X149977255Y-94759577D01*
X149875237Y-94818477D01*
X149875232Y-94818481D01*
X149330533Y-95363181D01*
X149269210Y-95396666D01*
X149242852Y-95399500D01*
X149121155Y-95399500D01*
X148966510Y-95430261D01*
X148966498Y-95430264D01*
X148820827Y-95490602D01*
X148820814Y-95490609D01*
X148689711Y-95578210D01*
X148689707Y-95578213D01*
X148578213Y-95689707D01*
X148578210Y-95689711D01*
X148490609Y-95820814D01*
X148490602Y-95820827D01*
X148430264Y-95966498D01*
X148430261Y-95966510D01*
X148399500Y-96121153D01*
X148399500Y-96242852D01*
X148379815Y-96309891D01*
X148363181Y-96330533D01*
X148219481Y-96474232D01*
X148219479Y-96474235D01*
X148170786Y-96558576D01*
X148170784Y-96558578D01*
X148140425Y-96611159D01*
X148140424Y-96611160D01*
X148131194Y-96645606D01*
X148099499Y-96763893D01*
X148099499Y-96763895D01*
X148099499Y-96931996D01*
X148099500Y-96932009D01*
X148099500Y-103320234D01*
X148079815Y-103387273D01*
X148078602Y-103389125D01*
X147990609Y-103520814D01*
X147990602Y-103520827D01*
X147930264Y-103666498D01*
X147930261Y-103666510D01*
X147899500Y-103821153D01*
X147899500Y-103978846D01*
X147930261Y-104133489D01*
X147930264Y-104133501D01*
X147990602Y-104279172D01*
X147990609Y-104279185D01*
X148078210Y-104410288D01*
X148078213Y-104410292D01*
X148189710Y-104521789D01*
X148320815Y-104609390D01*
X148320821Y-104609394D01*
X148330277Y-104613310D01*
X148336457Y-104618291D01*
X148344183Y-104620117D01*
X148363271Y-104639899D01*
X148384678Y-104657150D01*
X148388421Y-104665963D01*
X148392699Y-104670397D01*
X148404440Y-104703680D01*
X148418022Y-104771963D01*
X148411795Y-104841555D01*
X148384091Y-104883831D01*
X148378208Y-104889714D01*
X148290609Y-105020814D01*
X148290602Y-105020827D01*
X148230264Y-105166498D01*
X148230261Y-105166510D01*
X148199500Y-105321153D01*
X148199500Y-105478846D01*
X148230261Y-105633489D01*
X148230264Y-105633501D01*
X148237444Y-105650835D01*
X148244911Y-105720304D01*
X148213635Y-105782783D01*
X148153545Y-105818434D01*
X148083720Y-105815939D01*
X148035201Y-105785966D01*
X143934574Y-101685339D01*
X143901089Y-101624016D01*
X143900638Y-101621849D01*
X143871522Y-101475479D01*
X143869737Y-101466503D01*
X143848314Y-101414783D01*
X143809397Y-101320827D01*
X143809390Y-101320814D01*
X143721789Y-101189711D01*
X143721786Y-101189707D01*
X143610292Y-101078213D01*
X143610288Y-101078210D01*
X143479185Y-100990609D01*
X143479172Y-100990602D01*
X143333501Y-100930264D01*
X143333492Y-100930262D01*
X143303054Y-100924207D01*
X143241144Y-100891821D01*
X143206570Y-100831105D01*
X143210311Y-100761336D01*
X143251178Y-100704664D01*
X143307850Y-100680117D01*
X143384416Y-100667990D01*
X143384417Y-100667990D01*
X143579031Y-100604755D01*
X143761349Y-100511859D01*
X143805921Y-100479474D01*
X143126447Y-99800000D01*
X143132661Y-99800000D01*
X143234394Y-99772741D01*
X143325606Y-99720080D01*
X143400080Y-99645606D01*
X143452741Y-99554394D01*
X143480000Y-99452661D01*
X143480000Y-99446447D01*
X144159474Y-100125921D01*
X144191859Y-100081349D01*
X144284755Y-99899031D01*
X144347990Y-99704417D01*
X144380000Y-99502317D01*
X144380000Y-99297682D01*
X144347990Y-99095582D01*
X144284755Y-98900968D01*
X144191859Y-98718650D01*
X144159474Y-98674077D01*
X144159474Y-98674076D01*
X143480000Y-99353551D01*
X143480000Y-99347339D01*
X143452741Y-99245606D01*
X143400080Y-99154394D01*
X143325606Y-99079920D01*
X143234394Y-99027259D01*
X143132661Y-99000000D01*
X143126446Y-99000000D01*
X143805922Y-98320524D01*
X143805921Y-98320523D01*
X143761359Y-98288147D01*
X143761350Y-98288141D01*
X143579031Y-98195244D01*
X143384417Y-98132009D01*
X143182317Y-98100000D01*
X142977683Y-98100000D01*
X142775582Y-98132009D01*
X142580968Y-98195244D01*
X142398647Y-98288141D01*
X142397384Y-98289060D01*
X142396820Y-98289261D01*
X142394495Y-98290686D01*
X142394195Y-98290197D01*
X142331577Y-98312539D01*
X142263524Y-98296713D01*
X142214830Y-98246606D01*
X142200500Y-98188741D01*
X142200500Y-97611258D01*
X142220185Y-97544219D01*
X142272989Y-97498464D01*
X142342147Y-97488520D01*
X142394271Y-97509679D01*
X142394495Y-97509314D01*
X142396699Y-97510664D01*
X142397397Y-97510948D01*
X142398653Y-97511861D01*
X142580968Y-97604755D01*
X142775582Y-97667990D01*
X142977683Y-97700000D01*
X143182317Y-97700000D01*
X143384417Y-97667990D01*
X143579031Y-97604755D01*
X143761349Y-97511859D01*
X143805921Y-97479474D01*
X143126447Y-96800000D01*
X143132661Y-96800000D01*
X143234394Y-96772741D01*
X143325606Y-96720080D01*
X143400080Y-96645606D01*
X143452741Y-96554394D01*
X143480000Y-96452661D01*
X143480000Y-96446447D01*
X144159474Y-97125921D01*
X144191859Y-97081349D01*
X144284755Y-96899031D01*
X144347990Y-96704417D01*
X144380000Y-96502317D01*
X144380000Y-96297682D01*
X144347990Y-96095582D01*
X144284755Y-95900968D01*
X144191859Y-95718650D01*
X144159474Y-95674077D01*
X144159474Y-95674076D01*
X143480000Y-96353551D01*
X143480000Y-96347339D01*
X143452741Y-96245606D01*
X143400080Y-96154394D01*
X143325606Y-96079920D01*
X143234394Y-96027259D01*
X143132661Y-96000000D01*
X143126446Y-96000000D01*
X143805922Y-95320524D01*
X143805921Y-95320523D01*
X143761359Y-95288147D01*
X143761350Y-95288141D01*
X143579031Y-95195244D01*
X143384417Y-95132009D01*
X143182317Y-95100000D01*
X142977683Y-95100000D01*
X142775582Y-95132009D01*
X142580968Y-95195244D01*
X142398647Y-95288141D01*
X142397384Y-95289060D01*
X142396820Y-95289261D01*
X142394495Y-95290686D01*
X142394195Y-95290197D01*
X142331577Y-95312539D01*
X142263524Y-95296713D01*
X142214830Y-95246606D01*
X142200500Y-95188741D01*
X142200500Y-94611875D01*
X142220185Y-94544836D01*
X142272989Y-94499081D01*
X142342147Y-94489137D01*
X142393969Y-94510172D01*
X142394234Y-94509741D01*
X142396840Y-94511337D01*
X142397392Y-94511562D01*
X142398388Y-94512286D01*
X142580776Y-94605218D01*
X142580778Y-94605218D01*
X142580781Y-94605220D01*
X142685137Y-94639127D01*
X142775465Y-94668477D01*
X142870872Y-94683588D01*
X142977648Y-94700500D01*
X142977649Y-94700500D01*
X143182351Y-94700500D01*
X143182352Y-94700500D01*
X143384534Y-94668477D01*
X143579219Y-94605220D01*
X143761610Y-94512287D01*
X143862022Y-94439334D01*
X143927213Y-94391971D01*
X143927215Y-94391968D01*
X143927219Y-94391966D01*
X144071966Y-94247219D01*
X144071968Y-94247215D01*
X144071971Y-94247213D01*
X144192284Y-94081614D01*
X144192285Y-94081613D01*
X144192287Y-94081610D01*
X144199117Y-94068204D01*
X144247091Y-94017409D01*
X144309602Y-94000500D01*
X145649959Y-94000500D01*
X145716998Y-94020185D01*
X145737640Y-94036819D01*
X147066196Y-95365374D01*
X147066206Y-95365385D01*
X147070536Y-95369715D01*
X147070537Y-95369716D01*
X147182341Y-95481520D01*
X147300087Y-95549500D01*
X147319273Y-95560577D01*
X147472000Y-95601501D01*
X147472002Y-95601501D01*
X147637711Y-95601501D01*
X147637727Y-95601500D01*
X147962274Y-95601500D01*
X147962290Y-95601501D01*
X147969886Y-95601501D01*
X148127997Y-95601501D01*
X148128000Y-95601501D01*
X148280728Y-95560577D01*
X148353640Y-95518481D01*
X148417659Y-95481520D01*
X148529463Y-95369716D01*
X148529464Y-95369714D01*
X148881520Y-95017659D01*
X148960577Y-94880728D01*
X149001501Y-94728000D01*
X149001501Y-94569885D01*
X149001501Y-94562290D01*
X149001500Y-94562272D01*
X149001500Y-84299097D01*
X149021185Y-84232058D01*
X149037819Y-84211416D01*
X149118743Y-84130492D01*
X149225823Y-84023411D01*
X149287144Y-83989928D01*
X149356835Y-83994912D01*
G37*
%TD.AperFunction*%
%TA.AperFunction,Conductor*%
G36*
X153318834Y-101432915D02*
G01*
X153374767Y-101474787D01*
X153399184Y-101540251D01*
X153399500Y-101549097D01*
X153399500Y-104713330D01*
X153399499Y-104713348D01*
X153399499Y-104879054D01*
X153399498Y-104879054D01*
X153412613Y-104927997D01*
X153437483Y-105020814D01*
X153442527Y-105039636D01*
X153440186Y-105040263D01*
X153446346Y-105097505D01*
X153415077Y-105159987D01*
X153354991Y-105195645D01*
X153324314Y-105199500D01*
X149994168Y-105199500D01*
X149927129Y-105179815D01*
X149881374Y-105127011D01*
X149871430Y-105057853D01*
X149891067Y-105006608D01*
X149909389Y-104979187D01*
X149909390Y-104979184D01*
X149909394Y-104979179D01*
X149969737Y-104833497D01*
X149992126Y-104720939D01*
X150000638Y-104678150D01*
X150033023Y-104616239D01*
X150034518Y-104614716D01*
X153187819Y-101461416D01*
X153249142Y-101427931D01*
X153318834Y-101432915D01*
G37*
%TD.AperFunction*%
%TA.AperFunction,Conductor*%
G36*
X155967539Y-101020185D02*
G01*
X156013294Y-101072989D01*
X156024500Y-101124500D01*
X156024500Y-101293102D01*
X156029219Y-101332400D01*
X156035561Y-101385217D01*
X156035561Y-101414783D01*
X156031308Y-101450207D01*
X156024500Y-101506898D01*
X156024500Y-101693102D01*
X156027845Y-101720956D01*
X156035561Y-101785217D01*
X156035561Y-101814783D01*
X156034456Y-101823989D01*
X156024500Y-101906898D01*
X156024500Y-102093102D01*
X156030222Y-102140754D01*
X156035561Y-102185217D01*
X156035561Y-102214783D01*
X156031389Y-102249529D01*
X156024500Y-102306898D01*
X156024500Y-102493102D01*
X156029294Y-102533023D01*
X156035122Y-102581561D01*
X156090639Y-102722343D01*
X156182077Y-102842922D01*
X156302656Y-102934360D01*
X156302657Y-102934360D01*
X156302658Y-102934361D01*
X156443436Y-102989877D01*
X156531898Y-103000500D01*
X156575500Y-103000500D01*
X156642539Y-103020185D01*
X156688294Y-103072989D01*
X156699500Y-103124500D01*
X156699500Y-103168102D01*
X156705126Y-103214954D01*
X156710122Y-103256561D01*
X156765639Y-103397343D01*
X156857077Y-103517922D01*
X156971989Y-103605062D01*
X156977658Y-103609361D01*
X157020990Y-103626448D01*
X157076134Y-103669354D01*
X157099327Y-103735261D01*
X157099500Y-103741803D01*
X157099500Y-104075500D01*
X157079815Y-104142539D01*
X157027011Y-104188294D01*
X156975500Y-104199500D01*
X155724500Y-104199500D01*
X155657461Y-104179815D01*
X155611706Y-104127011D01*
X155600500Y-104075500D01*
X155600500Y-101124500D01*
X155603050Y-101115814D01*
X155601762Y-101106853D01*
X155612740Y-101082812D01*
X155620185Y-101057461D01*
X155627025Y-101051533D01*
X155630787Y-101043297D01*
X155653021Y-101029007D01*
X155672989Y-101011706D01*
X155683503Y-101009418D01*
X155689565Y-101005523D01*
X155724500Y-101000500D01*
X155900500Y-101000500D01*
X155967539Y-101020185D01*
G37*
%TD.AperFunction*%
%TA.AperFunction,Conductor*%
G36*
X152140743Y-99632731D02*
G01*
X152192219Y-99679975D01*
X152207649Y-99719816D01*
X152230261Y-99833491D01*
X152230264Y-99833501D01*
X152290602Y-99979172D01*
X152290609Y-99979185D01*
X152378602Y-100110874D01*
X152399480Y-100177551D01*
X152399500Y-100179765D01*
X152399500Y-100499901D01*
X152379815Y-100566940D01*
X152363181Y-100587582D01*
X149524464Y-103426298D01*
X149505972Y-103436394D01*
X149490299Y-103450474D01*
X149475922Y-103452803D01*
X149463141Y-103459783D01*
X149442125Y-103458280D01*
X149421329Y-103461650D01*
X149407976Y-103455837D01*
X149393449Y-103454799D01*
X149376582Y-103442172D01*
X149357265Y-103433764D01*
X149340667Y-103415286D01*
X149337516Y-103412927D01*
X149333680Y-103407507D01*
X149321397Y-103389124D01*
X149300520Y-103322447D01*
X149300500Y-103320234D01*
X149300500Y-100034420D01*
X149320185Y-99967381D01*
X149372989Y-99921626D01*
X149442147Y-99911682D01*
X149505703Y-99940707D01*
X149534984Y-99978123D01*
X149582146Y-100070684D01*
X149587715Y-100081614D01*
X149708028Y-100247213D01*
X149852786Y-100391971D01*
X149973226Y-100479474D01*
X150018390Y-100512287D01*
X150134607Y-100571503D01*
X150200776Y-100605218D01*
X150200778Y-100605218D01*
X150200781Y-100605220D01*
X150241456Y-100618436D01*
X150395465Y-100668477D01*
X150468957Y-100680117D01*
X150597648Y-100700500D01*
X150597649Y-100700500D01*
X150802351Y-100700500D01*
X150802352Y-100700500D01*
X151004534Y-100668477D01*
X151199219Y-100605220D01*
X151381610Y-100512287D01*
X151474590Y-100444732D01*
X151547213Y-100391971D01*
X151547215Y-100391968D01*
X151547219Y-100391966D01*
X151691966Y-100247219D01*
X151691968Y-100247215D01*
X151691971Y-100247213D01*
X151749447Y-100168102D01*
X151812287Y-100081610D01*
X151905220Y-99899219D01*
X151968101Y-99705688D01*
X152007538Y-99648014D01*
X152071897Y-99620816D01*
X152140743Y-99632731D01*
G37*
%TD.AperFunction*%
%TA.AperFunction,Conductor*%
G36*
X166339466Y-101302605D02*
G01*
X166342147Y-101302220D01*
X166367831Y-101308775D01*
X166462517Y-101344091D01*
X166462516Y-101344091D01*
X166469444Y-101344835D01*
X166522127Y-101350500D01*
X167900902Y-101350499D01*
X167967941Y-101370184D01*
X168013696Y-101422987D01*
X168023640Y-101492146D01*
X167994615Y-101555702D01*
X167988583Y-101562180D01*
X166412181Y-103138583D01*
X166350858Y-103172068D01*
X166281166Y-103167084D01*
X166225233Y-103125212D01*
X166200816Y-103059748D01*
X166200500Y-103050902D01*
X166200500Y-101424958D01*
X166209144Y-101395517D01*
X166215668Y-101365531D01*
X166218898Y-101362300D01*
X166220185Y-101357919D01*
X166243369Y-101337829D01*
X166265073Y-101316126D01*
X166269537Y-101315154D01*
X166272989Y-101312164D01*
X166303360Y-101307796D01*
X166333346Y-101301274D01*
X166339466Y-101302605D01*
G37*
%TD.AperFunction*%
%TA.AperFunction,Conductor*%
G36*
X142394271Y-100509679D02*
G01*
X142394495Y-100509314D01*
X142396699Y-100510664D01*
X142397397Y-100510948D01*
X142398653Y-100511861D01*
X142580968Y-100604755D01*
X142775582Y-100667989D01*
X142874419Y-100683644D01*
X142937553Y-100713573D01*
X142974485Y-100772884D01*
X142973487Y-100842747D01*
X142934877Y-100900980D01*
X142879215Y-100927734D01*
X142866506Y-100930262D01*
X142866498Y-100930264D01*
X142720827Y-100990602D01*
X142720814Y-100990609D01*
X142589711Y-101078210D01*
X142589707Y-101078213D01*
X142478213Y-101189707D01*
X142478210Y-101189711D01*
X142427602Y-101265451D01*
X142373989Y-101310256D01*
X142304664Y-101318963D01*
X142241637Y-101288808D01*
X142204918Y-101229365D01*
X142200500Y-101196560D01*
X142200500Y-100611258D01*
X142220185Y-100544219D01*
X142272989Y-100498464D01*
X142342147Y-100488520D01*
X142394271Y-100509679D01*
G37*
%TD.AperFunction*%
%TA.AperFunction,Conductor*%
G36*
X164918834Y-97400015D02*
G01*
X164974767Y-97441887D01*
X164999184Y-97507351D01*
X164999500Y-97516197D01*
X164999500Y-101168059D01*
X164979815Y-101235098D01*
X164927011Y-101280853D01*
X164857853Y-101290797D01*
X164794297Y-101261772D01*
X164787819Y-101255740D01*
X164710292Y-101178213D01*
X164710288Y-101178210D01*
X164579185Y-101090609D01*
X164579172Y-101090602D01*
X164433501Y-101030264D01*
X164433491Y-101030261D01*
X164300308Y-101003769D01*
X164238397Y-100971384D01*
X164203823Y-100910668D01*
X164200500Y-100882152D01*
X164200500Y-98067197D01*
X164220185Y-98000158D01*
X164236819Y-97979516D01*
X164787819Y-97428516D01*
X164849142Y-97395031D01*
X164918834Y-97400015D01*
G37*
%TD.AperFunction*%
%TA.AperFunction,Conductor*%
G36*
X158084366Y-83818823D02*
G01*
X158084646Y-83818405D01*
X158087024Y-83819994D01*
X158088104Y-83820470D01*
X158089707Y-83821785D01*
X158089711Y-83821789D01*
X158102242Y-83830162D01*
X158220814Y-83909390D01*
X158220827Y-83909397D01*
X158366498Y-83969735D01*
X158366503Y-83969737D01*
X158512692Y-83998816D01*
X158521153Y-84000499D01*
X158521156Y-84000500D01*
X158521158Y-84000500D01*
X158678844Y-84000500D01*
X158678845Y-84000499D01*
X158833497Y-83969737D01*
X158979179Y-83909394D01*
X159094175Y-83832555D01*
X159160852Y-83811678D01*
X159228232Y-83830162D01*
X159274923Y-83882141D01*
X159286099Y-83951111D01*
X159280997Y-83973976D01*
X159241523Y-84095461D01*
X159241523Y-84095464D01*
X159209500Y-84297648D01*
X159209500Y-84502351D01*
X159241522Y-84704534D01*
X159304781Y-84899223D01*
X159356385Y-85000500D01*
X159379656Y-85046172D01*
X159397715Y-85081613D01*
X159518028Y-85247213D01*
X159662786Y-85391971D01*
X159786527Y-85481872D01*
X159828390Y-85512287D01*
X159927060Y-85562562D01*
X160010776Y-85605218D01*
X160010778Y-85605218D01*
X160010781Y-85605220D01*
X160085818Y-85629601D01*
X160205465Y-85668477D01*
X160306557Y-85684488D01*
X160407648Y-85700500D01*
X160407649Y-85700500D01*
X160612351Y-85700500D01*
X160612352Y-85700500D01*
X160814534Y-85668477D01*
X161009219Y-85605220D01*
X161191610Y-85512287D01*
X161304154Y-85430520D01*
X161357213Y-85391971D01*
X161357215Y-85391968D01*
X161357219Y-85391966D01*
X161501966Y-85247219D01*
X161501968Y-85247215D01*
X161501971Y-85247213D01*
X161586874Y-85130352D01*
X161622287Y-85081610D01*
X161715220Y-84899219D01*
X161778477Y-84704534D01*
X161810500Y-84502352D01*
X161810500Y-84297648D01*
X161781321Y-84113420D01*
X161778477Y-84095465D01*
X161759410Y-84036783D01*
X161749324Y-84005745D01*
X161747330Y-83935906D01*
X161783410Y-83876073D01*
X161846110Y-83845244D01*
X161915525Y-83853208D01*
X161969614Y-83897436D01*
X161970358Y-83898536D01*
X161978213Y-83910292D01*
X162089707Y-84021786D01*
X162089711Y-84021789D01*
X162220814Y-84109390D01*
X162220827Y-84109397D01*
X162316096Y-84148858D01*
X162366503Y-84169737D01*
X162431147Y-84182595D01*
X162521849Y-84200638D01*
X162583760Y-84233023D01*
X162585339Y-84234574D01*
X163163181Y-84812416D01*
X163196666Y-84873739D01*
X163199500Y-84900097D01*
X163199500Y-86768059D01*
X163179815Y-86835098D01*
X163127011Y-86880853D01*
X163057853Y-86890797D01*
X162994297Y-86861772D01*
X162987819Y-86855740D01*
X162910292Y-86778213D01*
X162910288Y-86778210D01*
X162779185Y-86690609D01*
X162779172Y-86690602D01*
X162633501Y-86630264D01*
X162633489Y-86630261D01*
X162478845Y-86599500D01*
X162478842Y-86599500D01*
X162321158Y-86599500D01*
X162321155Y-86599500D01*
X162166510Y-86630261D01*
X162166498Y-86630264D01*
X162020827Y-86690602D01*
X162020814Y-86690609D01*
X161889125Y-86778602D01*
X161871078Y-86784252D01*
X161855169Y-86794477D01*
X161824207Y-86798928D01*
X161822447Y-86799480D01*
X161820234Y-86799500D01*
X161739602Y-86799500D01*
X161672563Y-86779815D01*
X161629117Y-86731795D01*
X161627974Y-86729551D01*
X161622287Y-86718390D01*
X161622285Y-86718387D01*
X161622284Y-86718385D01*
X161501971Y-86552786D01*
X161357213Y-86408028D01*
X161191613Y-86287715D01*
X161191612Y-86287714D01*
X161191610Y-86287713D01*
X161119675Y-86251060D01*
X161009223Y-86194781D01*
X160814534Y-86131522D01*
X160639995Y-86103878D01*
X160612352Y-86099500D01*
X160407648Y-86099500D01*
X160383329Y-86103351D01*
X160205465Y-86131522D01*
X160010776Y-86194781D01*
X159828386Y-86287715D01*
X159662786Y-86408028D01*
X159518028Y-86552786D01*
X159397715Y-86718386D01*
X159304781Y-86900776D01*
X159241522Y-87095465D01*
X159209500Y-87297648D01*
X159209500Y-87502351D01*
X159241522Y-87704534D01*
X159304781Y-87899223D01*
X159397715Y-88081613D01*
X159518028Y-88247213D01*
X159662786Y-88391971D01*
X159786527Y-88481872D01*
X159828390Y-88512287D01*
X159909499Y-88553614D01*
X160010776Y-88605218D01*
X160010778Y-88605218D01*
X160010781Y-88605220D01*
X160085818Y-88629601D01*
X160205465Y-88668477D01*
X160306557Y-88684488D01*
X160407648Y-88700500D01*
X160407649Y-88700500D01*
X160612351Y-88700500D01*
X160612352Y-88700500D01*
X160814534Y-88668477D01*
X161009219Y-88605220D01*
X161191610Y-88512287D01*
X161301033Y-88432787D01*
X161357213Y-88391971D01*
X161357215Y-88391968D01*
X161357219Y-88391966D01*
X161501966Y-88247219D01*
X161501968Y-88247215D01*
X161501971Y-88247213D01*
X161622284Y-88081614D01*
X161622285Y-88081613D01*
X161622287Y-88081610D01*
X161629117Y-88068204D01*
X161639566Y-88057140D01*
X161645889Y-88043297D01*
X161663068Y-88032256D01*
X161677091Y-88017409D01*
X161692772Y-88013167D01*
X161704667Y-88005523D01*
X161739602Y-88000500D01*
X161820234Y-88000500D01*
X161887273Y-88020185D01*
X161889125Y-88021398D01*
X162020814Y-88109390D01*
X162020827Y-88109397D01*
X162166498Y-88169735D01*
X162166503Y-88169737D01*
X162321153Y-88200499D01*
X162321156Y-88200500D01*
X162321158Y-88200500D01*
X162478844Y-88200500D01*
X162478845Y-88200499D01*
X162633497Y-88169737D01*
X162746166Y-88123067D01*
X162779172Y-88109397D01*
X162779172Y-88109396D01*
X162779179Y-88109394D01*
X162910289Y-88021789D01*
X162931578Y-88000500D01*
X162987819Y-87944260D01*
X163049142Y-87910775D01*
X163118834Y-87915759D01*
X163174767Y-87957631D01*
X163199184Y-88023095D01*
X163199500Y-88031941D01*
X163199500Y-94499902D01*
X163179815Y-94566941D01*
X163163181Y-94587583D01*
X161119481Y-96631282D01*
X161119480Y-96631284D01*
X161076761Y-96705276D01*
X161040423Y-96768215D01*
X160999499Y-96920943D01*
X160999499Y-96920945D01*
X160999499Y-96932803D01*
X160979814Y-96999842D01*
X160975720Y-97005822D01*
X160970023Y-97013640D01*
X160918480Y-97065184D01*
X160868360Y-97151995D01*
X160865073Y-97157687D01*
X160865065Y-97157699D01*
X160839425Y-97202109D01*
X160839424Y-97202110D01*
X160831880Y-97230264D01*
X160798499Y-97354843D01*
X160798499Y-97354845D01*
X160798499Y-97522946D01*
X160798500Y-97522959D01*
X160798500Y-100159776D01*
X160778815Y-100226815D01*
X160726011Y-100272570D01*
X160656853Y-100282514D01*
X160593297Y-100253489D01*
X160559145Y-100205266D01*
X160508920Y-100077904D01*
X160417564Y-99957435D01*
X160297095Y-99866079D01*
X160156443Y-99810613D01*
X160068054Y-99800000D01*
X160024500Y-99800000D01*
X159957461Y-99780315D01*
X159911706Y-99727511D01*
X159900500Y-99676000D01*
X159900500Y-99631903D01*
X159900500Y-99631898D01*
X159889877Y-99543436D01*
X159834361Y-99402658D01*
X159834360Y-99402657D01*
X159834360Y-99402656D01*
X159742922Y-99282077D01*
X159622343Y-99190639D01*
X159483316Y-99135814D01*
X159481564Y-99135123D01*
X159481563Y-99135122D01*
X159481561Y-99135122D01*
X159435926Y-99129642D01*
X159393102Y-99124500D01*
X159206898Y-99124500D01*
X159146228Y-99131785D01*
X159112679Y-99135814D01*
X159083113Y-99135814D01*
X158993055Y-99125000D01*
X158806943Y-99125000D01*
X158781039Y-99128110D01*
X158712131Y-99116557D01*
X158660408Y-99069584D01*
X158658903Y-99067048D01*
X158580520Y-98931284D01*
X158468807Y-98819571D01*
X158435322Y-98758248D01*
X158440306Y-98688556D01*
X158453384Y-98663003D01*
X158509394Y-98579179D01*
X158569737Y-98433497D01*
X158600500Y-98278842D01*
X158600500Y-98249230D01*
X158603881Y-98237714D01*
X158602740Y-98225765D01*
X158613544Y-98204807D01*
X158620185Y-98182191D01*
X158630054Y-98172780D01*
X158634755Y-98163662D01*
X158662494Y-98141846D01*
X158698328Y-98121158D01*
X158768716Y-98080520D01*
X158880520Y-97968716D01*
X158880520Y-97968714D01*
X158890724Y-97958511D01*
X158890727Y-97958506D01*
X160990520Y-95858716D01*
X161069577Y-95721784D01*
X161110501Y-95569057D01*
X161110501Y-95410942D01*
X161110501Y-95403347D01*
X161110500Y-95403329D01*
X161110500Y-94629601D01*
X161130185Y-94562562D01*
X161178206Y-94519116D01*
X161191610Y-94512287D01*
X161357219Y-94391966D01*
X161501966Y-94247219D01*
X161501968Y-94247215D01*
X161501971Y-94247213D01*
X161554732Y-94174590D01*
X161622287Y-94081610D01*
X161715220Y-93899219D01*
X161778477Y-93704534D01*
X161810500Y-93502352D01*
X161810500Y-93297648D01*
X161778477Y-93095466D01*
X161770197Y-93069984D01*
X161721296Y-92919481D01*
X161715220Y-92900781D01*
X161715218Y-92900778D01*
X161715218Y-92900776D01*
X161681503Y-92834607D01*
X161622287Y-92718390D01*
X161573579Y-92651348D01*
X161501971Y-92552786D01*
X161357213Y-92408028D01*
X161191613Y-92287715D01*
X161191612Y-92287714D01*
X161191610Y-92287713D01*
X161120499Y-92251480D01*
X161009223Y-92194781D01*
X160814534Y-92131522D01*
X160639995Y-92103878D01*
X160612352Y-92099500D01*
X160407648Y-92099500D01*
X160369599Y-92105526D01*
X160205468Y-92131522D01*
X160196717Y-92134365D01*
X160191154Y-92136173D01*
X160121313Y-92138167D01*
X160065157Y-92105922D01*
X159637464Y-91678229D01*
X159603979Y-91616906D01*
X159608963Y-91547214D01*
X159650835Y-91491281D01*
X159716299Y-91466864D01*
X159784572Y-91481716D01*
X159798030Y-91490230D01*
X159799477Y-91491281D01*
X159828390Y-91512287D01*
X159944607Y-91571503D01*
X160010776Y-91605218D01*
X160010778Y-91605218D01*
X160010781Y-91605220D01*
X160081719Y-91628269D01*
X160205465Y-91668477D01*
X160300297Y-91683497D01*
X160407648Y-91700500D01*
X160407649Y-91700500D01*
X160612351Y-91700500D01*
X160612352Y-91700500D01*
X160814534Y-91668477D01*
X161009219Y-91605220D01*
X161191610Y-91512287D01*
X161292348Y-91439097D01*
X161357213Y-91391971D01*
X161357215Y-91391968D01*
X161357219Y-91391966D01*
X161501966Y-91247219D01*
X161501968Y-91247215D01*
X161501971Y-91247213D01*
X161600230Y-91111969D01*
X161622287Y-91081610D01*
X161715220Y-90899219D01*
X161778477Y-90704534D01*
X161810500Y-90502352D01*
X161810500Y-90297648D01*
X161780223Y-90106489D01*
X161778477Y-90095465D01*
X161721296Y-89919481D01*
X161715220Y-89900781D01*
X161715218Y-89900778D01*
X161715218Y-89900776D01*
X161681503Y-89834607D01*
X161622287Y-89718390D01*
X161605000Y-89694596D01*
X161501971Y-89552786D01*
X161357213Y-89408028D01*
X161191613Y-89287715D01*
X161191612Y-89287714D01*
X161191610Y-89287713D01*
X161120499Y-89251480D01*
X161009223Y-89194781D01*
X160814534Y-89131522D01*
X160639995Y-89103878D01*
X160612352Y-89099500D01*
X160407648Y-89099500D01*
X160383329Y-89103351D01*
X160205465Y-89131522D01*
X160010776Y-89194781D01*
X159828386Y-89287715D01*
X159662786Y-89408028D01*
X159518028Y-89552786D01*
X159397715Y-89718386D01*
X159304781Y-89900776D01*
X159241522Y-90095465D01*
X159209500Y-90297648D01*
X159209500Y-90502351D01*
X159241522Y-90704534D01*
X159304781Y-90899223D01*
X159397712Y-91081609D01*
X159419770Y-91111969D01*
X159443249Y-91177776D01*
X159427423Y-91245830D01*
X159377317Y-91294524D01*
X159308839Y-91308399D01*
X159243730Y-91283049D01*
X159231770Y-91272535D01*
X157921752Y-89962517D01*
X157888267Y-89901194D01*
X157885433Y-89874836D01*
X157885433Y-83916318D01*
X157905118Y-83849279D01*
X157957922Y-83803524D01*
X158027080Y-83793580D01*
X158084366Y-83818823D01*
G37*
%TD.AperFunction*%
%TA.AperFunction,Conductor*%
G36*
X155805703Y-99255385D02*
G01*
X155812181Y-99261417D01*
X156138583Y-99587819D01*
X156172068Y-99649142D01*
X156167084Y-99718834D01*
X156125212Y-99774767D01*
X156059748Y-99799184D01*
X156050902Y-99799500D01*
X155724500Y-99799500D01*
X155657461Y-99779815D01*
X155611706Y-99727011D01*
X155600500Y-99675500D01*
X155600500Y-99349098D01*
X155620185Y-99282059D01*
X155672989Y-99236304D01*
X155742147Y-99226360D01*
X155805703Y-99255385D01*
G37*
%TD.AperFunction*%
%TA.AperFunction,Conductor*%
G36*
X172133889Y-85839683D02*
G01*
X172141281Y-85838567D01*
X172159385Y-85846681D01*
X172190680Y-85855271D01*
X172198850Y-85864368D01*
X172205040Y-85867143D01*
X172214877Y-85882215D01*
X172237364Y-85907255D01*
X172240636Y-85921682D01*
X172243228Y-85925653D01*
X172246593Y-85947944D01*
X172249500Y-85960758D01*
X172249500Y-86098422D01*
X172280290Y-86292826D01*
X172341117Y-86480029D01*
X172417666Y-86630264D01*
X172430476Y-86655405D01*
X172546172Y-86814646D01*
X172685354Y-86953828D01*
X172844595Y-87069524D01*
X172909990Y-87102844D01*
X173019970Y-87158882D01*
X173019972Y-87158882D01*
X173019975Y-87158884D01*
X173120317Y-87191487D01*
X173207173Y-87219709D01*
X173401578Y-87250500D01*
X173401583Y-87250500D01*
X173598422Y-87250500D01*
X173792826Y-87219709D01*
X173980025Y-87158884D01*
X174155405Y-87069524D01*
X174202615Y-87035223D01*
X174268420Y-87011744D01*
X174336474Y-87027569D01*
X174385169Y-87077674D01*
X174399500Y-87135542D01*
X174399500Y-92290030D01*
X174379815Y-92357069D01*
X174327011Y-92402824D01*
X174257853Y-92412768D01*
X174236497Y-92407736D01*
X174152799Y-92380001D01*
X174152795Y-92380000D01*
X174050015Y-92369500D01*
X174050008Y-92369500D01*
X172949992Y-92369500D01*
X172949984Y-92369500D01*
X172847204Y-92380000D01*
X172847203Y-92380001D01*
X172680664Y-92435186D01*
X172680662Y-92435187D01*
X172531348Y-92527286D01*
X172531344Y-92527289D01*
X172407289Y-92651344D01*
X172407286Y-92651348D01*
X172315187Y-92800662D01*
X172315186Y-92800664D01*
X172260001Y-92967203D01*
X172260000Y-92967204D01*
X172249500Y-93069984D01*
X172249500Y-94170015D01*
X172260000Y-94272795D01*
X172260001Y-94272796D01*
X172315186Y-94439335D01*
X172315187Y-94439337D01*
X172407286Y-94588651D01*
X172407289Y-94588655D01*
X172531344Y-94712710D01*
X172531348Y-94712713D01*
X172680662Y-94804812D01*
X172680664Y-94804813D01*
X172680666Y-94804814D01*
X172847203Y-94859999D01*
X172949992Y-94870500D01*
X172949997Y-94870500D01*
X174050003Y-94870500D01*
X174050008Y-94870500D01*
X174152797Y-94859999D01*
X174236498Y-94832262D01*
X174306324Y-94829861D01*
X174366366Y-94865592D01*
X174397559Y-94928113D01*
X174399500Y-94949969D01*
X174399500Y-99155905D01*
X174379815Y-99222944D01*
X174327011Y-99268699D01*
X174257853Y-99278643D01*
X174194297Y-99249618D01*
X174168113Y-99217905D01*
X174131522Y-99154527D01*
X174131521Y-99154526D01*
X174131520Y-99154524D01*
X174019716Y-99042720D01*
X174019715Y-99042719D01*
X174015385Y-99038389D01*
X174015374Y-99038379D01*
X173464350Y-98487355D01*
X173464348Y-98487352D01*
X173345477Y-98368481D01*
X173345469Y-98368475D01*
X173240942Y-98308127D01*
X173240939Y-98308126D01*
X173208547Y-98289424D01*
X173208546Y-98289423D01*
X173208545Y-98289423D01*
X173055817Y-98248499D01*
X172897703Y-98248499D01*
X172890107Y-98248499D01*
X172890091Y-98248500D01*
X171944180Y-98248500D01*
X171903259Y-98259464D01*
X171903259Y-98259465D01*
X171865991Y-98269451D01*
X171791454Y-98289423D01*
X171791449Y-98289426D01*
X171654530Y-98368475D01*
X171654522Y-98368481D01*
X171595840Y-98427164D01*
X171542720Y-98480284D01*
X171542718Y-98480286D01*
X171326798Y-98696207D01*
X171136584Y-98886421D01*
X171075352Y-98919886D01*
X171062280Y-98922740D01*
X171031943Y-98922740D01*
X170898480Y-98958501D01*
X170895632Y-98959123D01*
X170863573Y-98956854D01*
X170831426Y-98956089D01*
X170827961Y-98954334D01*
X170825937Y-98954191D01*
X170822273Y-98951452D01*
X170796298Y-98938295D01*
X170667820Y-98844951D01*
X170478414Y-98748444D01*
X170478413Y-98748443D01*
X170478412Y-98748443D01*
X170276243Y-98682754D01*
X170276241Y-98682753D01*
X170276240Y-98682753D01*
X170114957Y-98657208D01*
X170066287Y-98649500D01*
X169853713Y-98649500D01*
X169805042Y-98657208D01*
X169643760Y-98682753D01*
X169559013Y-98710289D01*
X169534094Y-98718386D01*
X169441585Y-98748444D01*
X169252179Y-98844951D01*
X169080215Y-98969889D01*
X168966673Y-99083431D01*
X168905350Y-99116915D01*
X168835658Y-99111931D01*
X168779725Y-99070059D01*
X168762810Y-99039082D01*
X168713797Y-98907671D01*
X168713793Y-98907664D01*
X168627547Y-98792455D01*
X168627544Y-98792452D01*
X168512335Y-98706206D01*
X168512328Y-98706202D01*
X168377482Y-98655908D01*
X168377483Y-98655908D01*
X168317883Y-98649501D01*
X168317881Y-98649500D01*
X168317873Y-98649500D01*
X168317864Y-98649500D01*
X166522129Y-98649500D01*
X166522123Y-98649501D01*
X166462515Y-98655909D01*
X166367832Y-98691223D01*
X166298141Y-98696207D01*
X166236818Y-98662721D01*
X166203334Y-98601398D01*
X166200500Y-98575041D01*
X166200500Y-96634297D01*
X166220185Y-96567258D01*
X166236819Y-96546616D01*
X169033287Y-93750148D01*
X171880520Y-90902916D01*
X171959577Y-90765984D01*
X172000501Y-90613257D01*
X172000501Y-90455142D01*
X172000501Y-90447547D01*
X172000500Y-90447529D01*
X172000500Y-85961426D01*
X172010222Y-85928316D01*
X172019715Y-85895124D01*
X172020056Y-85894823D01*
X172020185Y-85894387D01*
X172055619Y-85858317D01*
X172056624Y-85857646D01*
X172065524Y-85854860D01*
X172072195Y-85848998D01*
X172095496Y-85845479D01*
X172123302Y-85836777D01*
X172133889Y-85839683D01*
G37*
%TD.AperFunction*%
%TA.AperFunction,Conductor*%
G36*
X152010279Y-97005032D02*
G01*
X152026515Y-97018700D01*
X153194634Y-98186819D01*
X153228119Y-98248142D01*
X153223135Y-98317834D01*
X153181263Y-98373767D01*
X153115799Y-98398184D01*
X153106953Y-98398500D01*
X152830116Y-98398500D01*
X152699095Y-98398499D01*
X152632056Y-98378814D01*
X152611415Y-98362180D01*
X151681891Y-97432656D01*
X151648406Y-97371333D01*
X151653390Y-97301641D01*
X151681891Y-97257294D01*
X151691966Y-97247219D01*
X151691968Y-97247215D01*
X151691971Y-97247213D01*
X151812284Y-97081614D01*
X151812285Y-97081613D01*
X151812287Y-97081610D01*
X151828349Y-97050085D01*
X151876323Y-96999290D01*
X151944144Y-96982495D01*
X152010279Y-97005032D01*
G37*
%TD.AperFunction*%
%TA.AperFunction,Conductor*%
G36*
X153566942Y-82420185D02*
G01*
X153587584Y-82436819D01*
X154663181Y-83512416D01*
X154696666Y-83573739D01*
X154699500Y-83600097D01*
X154699500Y-95413330D01*
X154699499Y-95413348D01*
X154699499Y-95579054D01*
X154699498Y-95579054D01*
X154740423Y-95731787D01*
X154741529Y-95733701D01*
X154741538Y-95733716D01*
X154819477Y-95868712D01*
X154819481Y-95868717D01*
X154938349Y-95987585D01*
X154938355Y-95987590D01*
X155218478Y-96267713D01*
X155218480Y-96267716D01*
X155330284Y-96379520D01*
X155347374Y-96389386D01*
X155357970Y-96399413D01*
X155363654Y-96409172D01*
X155375844Y-96420589D01*
X155427267Y-96497549D01*
X155427270Y-96497553D01*
X155538764Y-96609047D01*
X155538768Y-96609050D01*
X155669871Y-96696651D01*
X155669884Y-96696658D01*
X155726431Y-96720080D01*
X155815560Y-96756998D01*
X155880327Y-96769881D01*
X155957444Y-96785221D01*
X156019355Y-96817606D01*
X156053929Y-96878321D01*
X156050190Y-96948091D01*
X156040648Y-96968825D01*
X156040426Y-96969209D01*
X156040423Y-96969214D01*
X156040423Y-96969216D01*
X156011808Y-97076008D01*
X155999500Y-97121943D01*
X155999500Y-97368059D01*
X155979815Y-97435098D01*
X155927011Y-97480853D01*
X155857853Y-97490797D01*
X155794297Y-97461772D01*
X155787819Y-97455740D01*
X155710292Y-97378213D01*
X155710288Y-97378210D01*
X155579185Y-97290609D01*
X155579172Y-97290602D01*
X155433501Y-97230264D01*
X155433489Y-97230261D01*
X155278845Y-97199500D01*
X155278842Y-97199500D01*
X155121158Y-97199500D01*
X155121155Y-97199500D01*
X154966510Y-97230261D01*
X154966498Y-97230264D01*
X154820827Y-97290602D01*
X154820814Y-97290609D01*
X154689711Y-97378210D01*
X154689707Y-97378213D01*
X154578213Y-97489707D01*
X154578208Y-97489713D01*
X154509058Y-97593202D01*
X154455446Y-97638006D01*
X154386121Y-97646713D01*
X154323093Y-97616558D01*
X154318276Y-97611991D01*
X151643640Y-94937355D01*
X151643638Y-94937352D01*
X151524767Y-94818481D01*
X151524766Y-94818480D01*
X151422742Y-94759577D01*
X151387835Y-94739423D01*
X151384388Y-94738499D01*
X151374681Y-94733157D01*
X151354690Y-94713033D01*
X151332604Y-94695231D01*
X151330387Y-94688568D01*
X151325440Y-94683588D01*
X151319502Y-94655851D01*
X151310547Y-94628935D01*
X151312283Y-94622132D01*
X151310814Y-94615267D01*
X151320815Y-94588720D01*
X151327833Y-94561237D01*
X151332991Y-94556400D01*
X151335447Y-94549884D01*
X151357165Y-94533737D01*
X151378182Y-94514033D01*
X151381610Y-94512287D01*
X151382918Y-94511337D01*
X151547213Y-94391971D01*
X151547215Y-94391968D01*
X151547219Y-94391966D01*
X151691966Y-94247219D01*
X151694681Y-94243481D01*
X151750011Y-94200815D01*
X151819624Y-94194836D01*
X151881419Y-94227441D01*
X151895319Y-94243482D01*
X151898033Y-94247217D01*
X151898035Y-94247220D01*
X152042786Y-94391971D01*
X152176526Y-94489137D01*
X152208390Y-94512287D01*
X152307060Y-94562562D01*
X152390776Y-94605218D01*
X152390778Y-94605218D01*
X152390781Y-94605220D01*
X152495137Y-94639127D01*
X152585465Y-94668477D01*
X152680872Y-94683588D01*
X152787648Y-94700500D01*
X152787649Y-94700500D01*
X152992351Y-94700500D01*
X152992352Y-94700500D01*
X153194534Y-94668477D01*
X153389219Y-94605220D01*
X153571610Y-94512287D01*
X153672022Y-94439334D01*
X153737213Y-94391971D01*
X153737215Y-94391968D01*
X153737219Y-94391966D01*
X153881966Y-94247219D01*
X153881968Y-94247215D01*
X153881971Y-94247213D01*
X153934732Y-94174590D01*
X154002287Y-94081610D01*
X154095220Y-93899219D01*
X154158477Y-93704534D01*
X154190500Y-93502352D01*
X154190500Y-93297648D01*
X154158477Y-93095466D01*
X154150197Y-93069984D01*
X154101296Y-92919481D01*
X154095220Y-92900781D01*
X154095218Y-92900778D01*
X154095218Y-92900776D01*
X154061503Y-92834607D01*
X154002287Y-92718390D01*
X153953579Y-92651348D01*
X153881971Y-92552786D01*
X153737213Y-92408028D01*
X153571613Y-92287715D01*
X153571612Y-92287714D01*
X153571610Y-92287713D01*
X153500499Y-92251480D01*
X153389223Y-92194781D01*
X153194534Y-92131522D01*
X153019995Y-92103878D01*
X152992352Y-92099500D01*
X152787648Y-92099500D01*
X152763329Y-92103351D01*
X152585465Y-92131522D01*
X152390776Y-92194781D01*
X152208386Y-92287715D01*
X152042786Y-92408028D01*
X151898028Y-92552786D01*
X151895314Y-92556523D01*
X151839982Y-92599185D01*
X151770368Y-92605161D01*
X151708575Y-92572552D01*
X151694686Y-92556523D01*
X151691971Y-92552786D01*
X151547213Y-92408028D01*
X151381613Y-92287714D01*
X151378203Y-92285977D01*
X151327408Y-92238001D01*
X151310500Y-92175493D01*
X151310500Y-91624506D01*
X151330185Y-91557467D01*
X151378207Y-91514020D01*
X151381610Y-91512287D01*
X151547219Y-91391966D01*
X151691966Y-91247219D01*
X151694681Y-91243481D01*
X151750011Y-91200815D01*
X151819624Y-91194836D01*
X151881419Y-91227441D01*
X151895319Y-91243482D01*
X151898033Y-91247217D01*
X151898035Y-91247220D01*
X152042786Y-91391971D01*
X152166312Y-91481716D01*
X152208390Y-91512287D01*
X152324607Y-91571503D01*
X152390776Y-91605218D01*
X152390778Y-91605218D01*
X152390781Y-91605220D01*
X152461719Y-91628269D01*
X152585465Y-91668477D01*
X152680297Y-91683497D01*
X152787648Y-91700500D01*
X152787649Y-91700500D01*
X152992351Y-91700500D01*
X152992352Y-91700500D01*
X153194534Y-91668477D01*
X153389219Y-91605220D01*
X153571610Y-91512287D01*
X153672348Y-91439097D01*
X153737213Y-91391971D01*
X153737215Y-91391968D01*
X153737219Y-91391966D01*
X153881966Y-91247219D01*
X153881968Y-91247215D01*
X153881971Y-91247213D01*
X153980230Y-91111969D01*
X154002287Y-91081610D01*
X154095220Y-90899219D01*
X154158477Y-90704534D01*
X154190500Y-90502352D01*
X154190500Y-90297648D01*
X154160223Y-90106489D01*
X154158477Y-90095465D01*
X154101296Y-89919481D01*
X154095220Y-89900781D01*
X154095218Y-89900778D01*
X154095218Y-89900776D01*
X154061503Y-89834607D01*
X154002287Y-89718390D01*
X153985000Y-89694596D01*
X153881971Y-89552786D01*
X153737213Y-89408028D01*
X153571613Y-89287715D01*
X153571612Y-89287714D01*
X153571610Y-89287713D01*
X153500499Y-89251480D01*
X153389223Y-89194781D01*
X153194534Y-89131522D01*
X153019995Y-89103878D01*
X152992352Y-89099500D01*
X152787648Y-89099500D01*
X152763329Y-89103351D01*
X152585465Y-89131522D01*
X152390776Y-89194781D01*
X152208386Y-89287715D01*
X152042786Y-89408028D01*
X151898028Y-89552786D01*
X151895314Y-89556523D01*
X151839982Y-89599185D01*
X151770368Y-89605161D01*
X151708575Y-89572552D01*
X151694686Y-89556523D01*
X151691971Y-89552786D01*
X151547213Y-89408028D01*
X151381613Y-89287714D01*
X151378203Y-89285977D01*
X151327408Y-89238001D01*
X151310500Y-89175493D01*
X151310500Y-88629601D01*
X151330185Y-88562562D01*
X151378206Y-88519116D01*
X151391610Y-88512287D01*
X151557219Y-88391966D01*
X151701966Y-88247219D01*
X151701972Y-88247210D01*
X151705132Y-88243512D01*
X151706762Y-88244904D01*
X151755007Y-88207699D01*
X151824620Y-88201717D01*
X151886416Y-88234320D01*
X151894588Y-88243751D01*
X151894868Y-88243512D01*
X151898035Y-88247220D01*
X152042786Y-88391971D01*
X152166527Y-88481872D01*
X152208390Y-88512287D01*
X152289499Y-88553614D01*
X152390776Y-88605218D01*
X152390778Y-88605218D01*
X152390781Y-88605220D01*
X152465818Y-88629601D01*
X152585465Y-88668477D01*
X152686557Y-88684488D01*
X152787648Y-88700500D01*
X152787649Y-88700500D01*
X152992351Y-88700500D01*
X152992352Y-88700500D01*
X153194534Y-88668477D01*
X153389219Y-88605220D01*
X153571610Y-88512287D01*
X153681033Y-88432787D01*
X153737213Y-88391971D01*
X153737215Y-88391968D01*
X153737219Y-88391966D01*
X153881966Y-88247219D01*
X153881968Y-88247215D01*
X153881971Y-88247213D01*
X153938259Y-88169738D01*
X154002287Y-88081610D01*
X154095220Y-87899219D01*
X154158477Y-87704534D01*
X154190500Y-87502352D01*
X154190500Y-87297648D01*
X154183032Y-87250500D01*
X154158477Y-87095465D01*
X154101296Y-86919481D01*
X154095220Y-86900781D01*
X154095218Y-86900778D01*
X154095218Y-86900776D01*
X154050956Y-86813909D01*
X154002287Y-86718390D01*
X153994556Y-86707749D01*
X153881971Y-86552786D01*
X153737213Y-86408028D01*
X153571613Y-86287715D01*
X153571612Y-86287714D01*
X153571610Y-86287713D01*
X153499675Y-86251060D01*
X153389223Y-86194781D01*
X153194534Y-86131522D01*
X153019995Y-86103878D01*
X152992352Y-86099500D01*
X152787648Y-86099500D01*
X152763329Y-86103351D01*
X152585465Y-86131522D01*
X152390776Y-86194781D01*
X152208386Y-86287715D01*
X152042786Y-86408028D01*
X151898032Y-86552782D01*
X151894862Y-86556494D01*
X151893242Y-86555110D01*
X151844924Y-86592326D01*
X151775308Y-86598267D01*
X151713531Y-86565627D01*
X151705413Y-86556258D01*
X151705138Y-86556494D01*
X151701967Y-86552782D01*
X151557213Y-86408028D01*
X151391610Y-86287712D01*
X151378200Y-86280879D01*
X151327406Y-86232903D01*
X151310500Y-86170397D01*
X151310500Y-85629601D01*
X151330185Y-85562562D01*
X151378206Y-85519116D01*
X151391610Y-85512287D01*
X151557219Y-85391966D01*
X151701966Y-85247219D01*
X151701972Y-85247210D01*
X151705132Y-85243512D01*
X151706762Y-85244904D01*
X151755007Y-85207699D01*
X151824620Y-85201717D01*
X151886416Y-85234320D01*
X151894588Y-85243751D01*
X151894868Y-85243512D01*
X151898035Y-85247220D01*
X152042786Y-85391971D01*
X152166527Y-85481872D01*
X152208390Y-85512287D01*
X152307060Y-85562562D01*
X152390776Y-85605218D01*
X152390778Y-85605218D01*
X152390781Y-85605220D01*
X152465818Y-85629601D01*
X152585465Y-85668477D01*
X152686557Y-85684488D01*
X152787648Y-85700500D01*
X152787649Y-85700500D01*
X152992351Y-85700500D01*
X152992352Y-85700500D01*
X153194534Y-85668477D01*
X153389219Y-85605220D01*
X153571610Y-85512287D01*
X153684154Y-85430520D01*
X153737213Y-85391971D01*
X153737215Y-85391968D01*
X153737219Y-85391966D01*
X153881966Y-85247219D01*
X153881968Y-85247215D01*
X153881971Y-85247213D01*
X153966874Y-85130352D01*
X154002287Y-85081610D01*
X154095220Y-84899219D01*
X154158477Y-84704534D01*
X154190500Y-84502352D01*
X154190500Y-84297648D01*
X154161321Y-84113420D01*
X154158477Y-84095465D01*
X154127620Y-84000499D01*
X154095220Y-83900781D01*
X154095218Y-83900778D01*
X154095218Y-83900776D01*
X154054972Y-83821790D01*
X154002287Y-83718390D01*
X153979500Y-83687026D01*
X153881971Y-83552786D01*
X153737213Y-83408028D01*
X153571613Y-83287715D01*
X153571612Y-83287714D01*
X153571610Y-83287713D01*
X153503975Y-83253251D01*
X153389223Y-83194781D01*
X153194534Y-83131522D01*
X153019995Y-83103878D01*
X152992352Y-83099500D01*
X152787648Y-83099500D01*
X152763329Y-83103351D01*
X152585465Y-83131522D01*
X152390776Y-83194781D01*
X152208386Y-83287715D01*
X152042786Y-83408028D01*
X152042782Y-83408032D01*
X152012181Y-83438634D01*
X151992744Y-83449246D01*
X151976011Y-83463747D01*
X151962679Y-83465663D01*
X151950858Y-83472119D01*
X151928771Y-83470539D01*
X151906853Y-83473691D01*
X151894601Y-83468095D01*
X151881166Y-83467135D01*
X151863439Y-83453864D01*
X151843297Y-83444666D01*
X151836014Y-83433334D01*
X151825233Y-83425263D01*
X151817495Y-83404517D01*
X151805523Y-83385888D01*
X151802371Y-83363969D01*
X151800816Y-83359799D01*
X151800500Y-83350953D01*
X151800500Y-83278765D01*
X151820185Y-83211726D01*
X151821398Y-83209874D01*
X151909390Y-83078185D01*
X151909390Y-83078184D01*
X151909394Y-83078179D01*
X151969737Y-82932497D01*
X152000500Y-82777842D01*
X152000500Y-82620158D01*
X152000500Y-82620155D01*
X152000499Y-82620153D01*
X151986285Y-82548691D01*
X151992512Y-82479100D01*
X152035375Y-82423922D01*
X152101265Y-82400678D01*
X152107902Y-82400500D01*
X153499903Y-82400500D01*
X153566942Y-82420185D01*
G37*
%TD.AperFunction*%
%TA.AperFunction,Conductor*%
G36*
X157605703Y-91345384D02*
G01*
X157612181Y-91351416D01*
X159215922Y-92955157D01*
X159249407Y-93016480D01*
X159246173Y-93081155D01*
X159241522Y-93095468D01*
X159209500Y-93297648D01*
X159209500Y-93502351D01*
X159241522Y-93704534D01*
X159304781Y-93899223D01*
X159397715Y-94081613D01*
X159518028Y-94247213D01*
X159518034Y-94247219D01*
X159662781Y-94391966D01*
X159828390Y-94512287D01*
X159841793Y-94519116D01*
X159892589Y-94567088D01*
X159909500Y-94629601D01*
X159909500Y-95189902D01*
X159889815Y-95256941D01*
X159873181Y-95277583D01*
X158187584Y-96963181D01*
X158126261Y-96996666D01*
X158099903Y-96999500D01*
X157725501Y-96999500D01*
X157716815Y-96996949D01*
X157707855Y-96998238D01*
X157683813Y-96987259D01*
X157658462Y-96979815D01*
X157652535Y-96972975D01*
X157644299Y-96969214D01*
X157630008Y-96946978D01*
X157612707Y-96927011D01*
X157610419Y-96916498D01*
X157606524Y-96910436D01*
X157601501Y-96875500D01*
X157601501Y-96859784D01*
X157601501Y-96817606D01*
X157601501Y-96769885D01*
X157601500Y-96769881D01*
X157601500Y-96440117D01*
X157601501Y-96440104D01*
X157601501Y-96272002D01*
X157601501Y-96272000D01*
X157560577Y-96119272D01*
X157481520Y-95982341D01*
X157436819Y-95937640D01*
X157403334Y-95876317D01*
X157400500Y-95849959D01*
X157400500Y-91439097D01*
X157420185Y-91372058D01*
X157472989Y-91326303D01*
X157542147Y-91316359D01*
X157605703Y-91345384D01*
G37*
%TD.AperFunction*%
%TA.AperFunction,Conductor*%
G36*
X153721439Y-78959494D02*
G01*
X153726673Y-78958742D01*
X153729598Y-78960077D01*
X153750196Y-78961551D01*
X153777372Y-78981895D01*
X153790229Y-78987767D01*
X153798342Y-78997593D01*
X153806129Y-79003423D01*
X153814248Y-79015731D01*
X153816412Y-79019479D01*
X153816411Y-79019479D01*
X153816413Y-79019481D01*
X153879475Y-79128709D01*
X153879481Y-79128717D01*
X153998349Y-79247585D01*
X153998355Y-79247590D01*
X156163181Y-81412416D01*
X156196666Y-81473739D01*
X156199500Y-81500097D01*
X156199500Y-95062761D01*
X156196949Y-95071446D01*
X156198238Y-95080408D01*
X156187259Y-95104448D01*
X156179815Y-95129800D01*
X156172974Y-95135727D01*
X156169213Y-95143964D01*
X156146978Y-95158253D01*
X156127011Y-95175555D01*
X156116496Y-95177842D01*
X156110435Y-95181738D01*
X156075500Y-95186761D01*
X156024500Y-95186761D01*
X155957461Y-95167076D01*
X155911706Y-95114272D01*
X155900500Y-95062761D01*
X155900500Y-83220942D01*
X155897636Y-83210256D01*
X155897636Y-83210255D01*
X155897634Y-83210249D01*
X155893652Y-83195389D01*
X155882129Y-83152381D01*
X155859577Y-83068216D01*
X155813126Y-82987760D01*
X155780524Y-82931290D01*
X155780521Y-82931286D01*
X155780520Y-82931284D01*
X155668716Y-82819480D01*
X155668715Y-82819479D01*
X155664385Y-82815149D01*
X155664374Y-82815139D01*
X154287590Y-81438355D01*
X154287588Y-81438352D01*
X154168717Y-81319481D01*
X154168716Y-81319480D01*
X154073861Y-81264716D01*
X154073860Y-81264715D01*
X154031783Y-81240422D01*
X153975881Y-81225443D01*
X153879057Y-81199499D01*
X153720943Y-81199499D01*
X153713347Y-81199499D01*
X153713331Y-81199500D01*
X151709097Y-81199500D01*
X151642058Y-81179815D01*
X151596303Y-81127011D01*
X151586359Y-81057853D01*
X151615384Y-80994297D01*
X151621416Y-80987819D01*
X152109235Y-80500000D01*
X153619183Y-78990050D01*
X153656160Y-78969859D01*
X153657515Y-78968686D01*
X153658593Y-78968530D01*
X153680504Y-78956567D01*
X153721439Y-78959494D01*
G37*
%TD.AperFunction*%
%TA.AperFunction,Conductor*%
G36*
X164928814Y-85228275D02*
G01*
X164942147Y-85226359D01*
X164962290Y-85235558D01*
X164983927Y-85240265D01*
X165001652Y-85253533D01*
X165005703Y-85255384D01*
X165012181Y-85261416D01*
X165065139Y-85314374D01*
X165065149Y-85314385D01*
X165069479Y-85318715D01*
X165069480Y-85318716D01*
X165181284Y-85430520D01*
X165211629Y-85448039D01*
X165268095Y-85480639D01*
X165268097Y-85480641D01*
X165287453Y-85491816D01*
X165318215Y-85509577D01*
X165470943Y-85550501D01*
X165470946Y-85550501D01*
X165636653Y-85550501D01*
X165636669Y-85550500D01*
X166075500Y-85550500D01*
X166142539Y-85570185D01*
X166188294Y-85622989D01*
X166199500Y-85674500D01*
X166199500Y-93699902D01*
X166179815Y-93766941D01*
X166163181Y-93787583D01*
X165012181Y-94938583D01*
X164950858Y-94972068D01*
X164881166Y-94967084D01*
X164825233Y-94925212D01*
X164800816Y-94859748D01*
X164800500Y-94850902D01*
X164800500Y-85349097D01*
X164806738Y-85327851D01*
X164808318Y-85305763D01*
X164816390Y-85294979D01*
X164820185Y-85282058D01*
X164836918Y-85267558D01*
X164850190Y-85249830D01*
X164862810Y-85245122D01*
X164872989Y-85236303D01*
X164894906Y-85233151D01*
X164915654Y-85225413D01*
X164928814Y-85228275D01*
G37*
%TD.AperFunction*%
%TA.AperFunction,Conductor*%
G36*
X144966942Y-91020185D02*
G01*
X144987583Y-91036818D01*
X145302180Y-91351416D01*
X145609993Y-91659229D01*
X145636873Y-91699457D01*
X145690604Y-91829175D01*
X145690609Y-91829185D01*
X145778210Y-91960288D01*
X145778213Y-91960292D01*
X145889707Y-92071786D01*
X145889711Y-92071789D01*
X146020814Y-92159390D01*
X146020827Y-92159397D01*
X146106253Y-92194781D01*
X146166503Y-92219737D01*
X146274857Y-92241290D01*
X146321153Y-92250499D01*
X146321156Y-92250500D01*
X146321158Y-92250500D01*
X146478844Y-92250500D01*
X146478845Y-92250499D01*
X146633497Y-92219737D01*
X146779179Y-92159394D01*
X146910289Y-92071789D01*
X147021789Y-91960289D01*
X147109394Y-91829179D01*
X147160939Y-91704738D01*
X147204779Y-91650334D01*
X147271074Y-91628269D01*
X147338773Y-91645548D01*
X147386384Y-91696685D01*
X147399500Y-91752190D01*
X147399500Y-93636824D01*
X147397263Y-93644441D01*
X147398533Y-93652278D01*
X147387559Y-93677487D01*
X147379815Y-93703863D01*
X147373105Y-93710693D01*
X147370647Y-93716342D01*
X147344390Y-93739927D01*
X147306012Y-93765570D01*
X147239334Y-93786447D01*
X147171954Y-93767962D01*
X147149441Y-93750148D01*
X146437646Y-93038355D01*
X146437644Y-93038352D01*
X146318773Y-92919481D01*
X146318765Y-92919475D01*
X146181846Y-92840426D01*
X146181841Y-92840423D01*
X146130931Y-92826781D01*
X146029113Y-92799499D01*
X145870998Y-92799499D01*
X145863402Y-92799499D01*
X145863386Y-92799500D01*
X144309602Y-92799500D01*
X144242563Y-92779815D01*
X144199117Y-92731795D01*
X144192284Y-92718385D01*
X144071971Y-92552786D01*
X143927213Y-92408028D01*
X143761613Y-92287715D01*
X143761612Y-92287714D01*
X143761610Y-92287713D01*
X143690499Y-92251480D01*
X143579223Y-92194781D01*
X143384534Y-92131522D01*
X143209995Y-92103878D01*
X143182352Y-92099500D01*
X142977648Y-92099500D01*
X142953329Y-92103351D01*
X142775465Y-92131522D01*
X142580776Y-92194781D01*
X142398387Y-92287714D01*
X142397379Y-92288447D01*
X142396929Y-92288607D01*
X142394234Y-92290259D01*
X142393886Y-92289692D01*
X142331571Y-92311922D01*
X142263518Y-92296093D01*
X142214827Y-92245984D01*
X142200500Y-92188124D01*
X142200500Y-91611875D01*
X142220185Y-91544836D01*
X142272989Y-91499081D01*
X142342147Y-91489137D01*
X142393969Y-91510172D01*
X142394234Y-91509741D01*
X142396840Y-91511337D01*
X142397392Y-91511562D01*
X142398388Y-91512286D01*
X142580776Y-91605218D01*
X142580778Y-91605218D01*
X142580781Y-91605220D01*
X142651719Y-91628269D01*
X142775465Y-91668477D01*
X142870297Y-91683497D01*
X142977648Y-91700500D01*
X142977649Y-91700500D01*
X143182351Y-91700500D01*
X143182352Y-91700500D01*
X143384534Y-91668477D01*
X143579219Y-91605220D01*
X143761610Y-91512287D01*
X143862348Y-91439097D01*
X143927213Y-91391971D01*
X143927215Y-91391968D01*
X143927219Y-91391966D01*
X144071966Y-91247219D01*
X144071968Y-91247215D01*
X144071971Y-91247213D01*
X144192284Y-91081614D01*
X144192285Y-91081613D01*
X144192287Y-91081610D01*
X144199117Y-91068204D01*
X144247091Y-91017409D01*
X144309602Y-91000500D01*
X144899903Y-91000500D01*
X144966942Y-91020185D01*
G37*
%TD.AperFunction*%
%TA.AperFunction,Conductor*%
G36*
X170742539Y-85126185D02*
G01*
X170788294Y-85178989D01*
X170799500Y-85230500D01*
X170799500Y-85381000D01*
X170779815Y-85448039D01*
X170727011Y-85493794D01*
X170675500Y-85505000D01*
X170350000Y-85505000D01*
X170350000Y-86249670D01*
X170330255Y-86229925D01*
X170244745Y-86180556D01*
X170149370Y-86155000D01*
X170050630Y-86155000D01*
X169955255Y-86180556D01*
X169869745Y-86229925D01*
X169850000Y-86249670D01*
X169850000Y-85505000D01*
X169302155Y-85505000D01*
X169242627Y-85511401D01*
X169242620Y-85511403D01*
X169107913Y-85561645D01*
X169107906Y-85561649D01*
X168992812Y-85647809D01*
X168992809Y-85647812D01*
X168906649Y-85762906D01*
X168906645Y-85762913D01*
X168856403Y-85897620D01*
X168856401Y-85897627D01*
X168850000Y-85957155D01*
X168850000Y-86280000D01*
X169819670Y-86280000D01*
X169799925Y-86299745D01*
X169750556Y-86385255D01*
X169725000Y-86480630D01*
X169725000Y-86579370D01*
X169750556Y-86674745D01*
X169799925Y-86760255D01*
X169814170Y-86774500D01*
X169773997Y-86774500D01*
X169747740Y-86779722D01*
X169736953Y-86779968D01*
X169736284Y-86779788D01*
X169734134Y-86780000D01*
X168850000Y-86780000D01*
X168850000Y-87102844D01*
X168856401Y-87162372D01*
X168856403Y-87162379D01*
X168906645Y-87297086D01*
X168907251Y-87297895D01*
X168907604Y-87298841D01*
X168910897Y-87304872D01*
X168910030Y-87305345D01*
X168931670Y-87363359D01*
X168922547Y-87419661D01*
X168888910Y-87500868D01*
X168888907Y-87500880D01*
X168849500Y-87698992D01*
X168849500Y-87901007D01*
X168888907Y-88099119D01*
X168888909Y-88099127D01*
X168966213Y-88285755D01*
X169019904Y-88366109D01*
X169040782Y-88432787D01*
X169022297Y-88500167D01*
X169019908Y-88503883D01*
X169014294Y-88512287D01*
X168966213Y-88584244D01*
X168888909Y-88770872D01*
X168888907Y-88770880D01*
X168849500Y-88968992D01*
X168849500Y-89171007D01*
X168888907Y-89369119D01*
X168888909Y-89369127D01*
X168966212Y-89555752D01*
X168966217Y-89555762D01*
X169078441Y-89723718D01*
X169221281Y-89866558D01*
X169389237Y-89978782D01*
X169389241Y-89978784D01*
X169389244Y-89978786D01*
X169575873Y-90056091D01*
X169773821Y-90095465D01*
X169773992Y-90095499D01*
X169773996Y-90095500D01*
X169773997Y-90095500D01*
X170426004Y-90095500D01*
X170426005Y-90095499D01*
X170624127Y-90056091D01*
X170628048Y-90054466D01*
X170660678Y-90050958D01*
X170693147Y-90046290D01*
X170695234Y-90047243D01*
X170697516Y-90046998D01*
X170726859Y-90061685D01*
X170756703Y-90075315D01*
X170757943Y-90077245D01*
X170759995Y-90078272D01*
X170776737Y-90106489D01*
X170794477Y-90134093D01*
X170794912Y-90137121D01*
X170795648Y-90138361D01*
X170799500Y-90169028D01*
X170799500Y-90234102D01*
X170779815Y-90301141D01*
X170763181Y-90321783D01*
X168013181Y-93071783D01*
X167951858Y-93105268D01*
X167882166Y-93100284D01*
X167826233Y-93058412D01*
X167801816Y-92992948D01*
X167801500Y-92984102D01*
X167801500Y-86302422D01*
X167821185Y-86235383D01*
X167837819Y-86214741D01*
X168186391Y-85866170D01*
X168289655Y-85762906D01*
X168481520Y-85571041D01*
X168560577Y-85434110D01*
X168601501Y-85281382D01*
X168601501Y-85230500D01*
X168621186Y-85163461D01*
X168673990Y-85117706D01*
X168725501Y-85106500D01*
X170675500Y-85106500D01*
X170742539Y-85126185D01*
G37*
%TD.AperFunction*%
%TA.AperFunction,Conductor*%
G36*
X147748424Y-84952840D02*
G01*
X147791616Y-85007760D01*
X147800500Y-85053849D01*
X147800500Y-89251903D01*
X147780815Y-89318942D01*
X147728011Y-89364697D01*
X147658853Y-89374641D01*
X147595297Y-89345616D01*
X147588819Y-89339584D01*
X145287590Y-87038355D01*
X145287588Y-87038352D01*
X145168717Y-86919481D01*
X145168716Y-86919480D01*
X145081904Y-86869360D01*
X145081904Y-86869359D01*
X145081900Y-86869358D01*
X145031785Y-86840423D01*
X144879057Y-86799499D01*
X144720943Y-86799499D01*
X144713347Y-86799499D01*
X144713331Y-86799500D01*
X144319602Y-86799500D01*
X144252563Y-86779815D01*
X144209117Y-86731795D01*
X144207974Y-86729551D01*
X144202287Y-86718390D01*
X144202285Y-86718387D01*
X144202284Y-86718385D01*
X144081971Y-86552786D01*
X143937213Y-86408028D01*
X143771613Y-86287715D01*
X143771612Y-86287714D01*
X143771610Y-86287713D01*
X143699675Y-86251060D01*
X143589223Y-86194781D01*
X143394534Y-86131522D01*
X143219995Y-86103878D01*
X143192352Y-86099500D01*
X142987648Y-86099500D01*
X142963329Y-86103351D01*
X142785465Y-86131522D01*
X142590776Y-86194781D01*
X142408385Y-86287715D01*
X142397381Y-86295710D01*
X142331574Y-86319187D01*
X142263521Y-86303359D01*
X142214828Y-86253251D01*
X142200500Y-86195389D01*
X142200500Y-85604610D01*
X142220185Y-85537571D01*
X142272989Y-85491816D01*
X142342147Y-85481872D01*
X142397385Y-85504291D01*
X142408390Y-85512287D01*
X142421791Y-85519115D01*
X142590776Y-85605218D01*
X142590778Y-85605218D01*
X142590781Y-85605220D01*
X142665818Y-85629601D01*
X142785465Y-85668477D01*
X142886557Y-85684488D01*
X142987648Y-85700500D01*
X142987649Y-85700500D01*
X143192351Y-85700500D01*
X143192352Y-85700500D01*
X143394534Y-85668477D01*
X143589219Y-85605220D01*
X143771610Y-85512287D01*
X143884154Y-85430520D01*
X143937213Y-85391971D01*
X143937215Y-85391968D01*
X143937219Y-85391966D01*
X144081966Y-85247219D01*
X144081968Y-85247215D01*
X144081971Y-85247213D01*
X144202284Y-85081614D01*
X144202285Y-85081613D01*
X144202287Y-85081610D01*
X144209117Y-85068204D01*
X144257091Y-85017409D01*
X144319602Y-85000500D01*
X147273331Y-85000500D01*
X147273347Y-85000501D01*
X147280943Y-85000501D01*
X147439054Y-85000501D01*
X147439057Y-85000501D01*
X147591785Y-84959577D01*
X147614497Y-84946463D01*
X147682397Y-84929989D01*
X147748424Y-84952840D01*
G37*
%TD.AperFunction*%
%TA.AperFunction,Conductor*%
G36*
X166899141Y-84018185D02*
G01*
X166919783Y-84034819D01*
X166998384Y-84113420D01*
X167050450Y-84143480D01*
X167051793Y-84144302D01*
X167074219Y-84169062D01*
X167097276Y-84193244D01*
X167097588Y-84194865D01*
X167098696Y-84196088D01*
X167104174Y-84229032D01*
X167110500Y-84261851D01*
X167109886Y-84263383D01*
X167110157Y-84265011D01*
X167096953Y-84295687D01*
X167084532Y-84326716D01*
X167083187Y-84327673D01*
X167082535Y-84329189D01*
X167054849Y-84347853D01*
X167027619Y-84367245D01*
X167025969Y-84367323D01*
X167024601Y-84368246D01*
X166991204Y-84368979D01*
X166957828Y-84370570D01*
X166954968Y-84369840D01*
X166918084Y-84359957D01*
X166879057Y-84349500D01*
X166879056Y-84349500D01*
X165850097Y-84349500D01*
X165820656Y-84340855D01*
X165790670Y-84334332D01*
X165785654Y-84330577D01*
X165783058Y-84329815D01*
X165762416Y-84313181D01*
X165659416Y-84210181D01*
X165625931Y-84148858D01*
X165630915Y-84079166D01*
X165672787Y-84023233D01*
X165738251Y-83998816D01*
X165747097Y-83998500D01*
X166832102Y-83998500D01*
X166899141Y-84018185D01*
G37*
%TD.AperFunction*%
%TA.AperFunction,Conductor*%
G36*
X152551539Y-76120185D02*
G01*
X152597294Y-76172989D01*
X152608500Y-76224500D01*
X152608500Y-77683803D01*
X152588815Y-77750842D01*
X152572181Y-77771484D01*
X146981484Y-83362181D01*
X146920161Y-83395666D01*
X146893803Y-83398500D01*
X144899097Y-83398500D01*
X144832058Y-83378815D01*
X144811416Y-83362181D01*
X144261819Y-82812584D01*
X144228334Y-82751261D01*
X144225500Y-82724903D01*
X144225500Y-82474499D01*
X144245185Y-82407460D01*
X144297989Y-82361705D01*
X144349500Y-82350499D01*
X144522871Y-82350499D01*
X144522872Y-82350499D01*
X144582483Y-82344091D01*
X144717331Y-82293796D01*
X144832546Y-82207546D01*
X144918796Y-82092331D01*
X144969091Y-81957483D01*
X144975500Y-81897873D01*
X144975499Y-81873979D01*
X144978330Y-81860963D01*
X144988940Y-81841525D01*
X144995179Y-81820275D01*
X145011803Y-81799643D01*
X145011808Y-81799636D01*
X145011811Y-81799634D01*
X145011818Y-81799626D01*
X145682036Y-81129407D01*
X145699075Y-81192993D01*
X145764901Y-81307007D01*
X145857993Y-81400099D01*
X145972007Y-81465925D01*
X146035590Y-81482962D01*
X145403282Y-82115269D01*
X145403282Y-82115270D01*
X145457449Y-82154624D01*
X145646782Y-82251095D01*
X145848870Y-82316757D01*
X146058754Y-82350000D01*
X146271246Y-82350000D01*
X146481127Y-82316757D01*
X146481130Y-82316757D01*
X146683217Y-82251095D01*
X146872554Y-82154622D01*
X146926716Y-82115270D01*
X146926717Y-82115270D01*
X146294408Y-81482962D01*
X146357993Y-81465925D01*
X146472007Y-81400099D01*
X146565099Y-81307007D01*
X146630925Y-81192993D01*
X146647962Y-81129409D01*
X147280270Y-81761717D01*
X147280270Y-81761716D01*
X147319622Y-81707554D01*
X147416095Y-81518217D01*
X147481757Y-81316130D01*
X147481757Y-81316127D01*
X147515000Y-81106246D01*
X147515000Y-80893753D01*
X147481757Y-80683872D01*
X147481757Y-80683869D01*
X147416095Y-80481782D01*
X147319620Y-80292442D01*
X147225871Y-80163405D01*
X147202391Y-80097598D01*
X147218217Y-80029545D01*
X147240922Y-80000490D01*
X147251532Y-79990440D01*
X147268716Y-79980520D01*
X147380520Y-79868716D01*
X147380521Y-79868714D01*
X147612418Y-79636816D01*
X147673740Y-79603334D01*
X147700098Y-79600500D01*
X148313331Y-79600500D01*
X148313347Y-79600501D01*
X148320943Y-79600501D01*
X148479054Y-79600501D01*
X148479057Y-79600501D01*
X148631785Y-79559577D01*
X148631787Y-79559575D01*
X148631789Y-79559575D01*
X148631790Y-79559574D01*
X148691218Y-79525263D01*
X148768716Y-79480520D01*
X148880520Y-79368716D01*
X148880520Y-79368714D01*
X148890724Y-79358511D01*
X148890727Y-79358506D01*
X150914662Y-77334572D01*
X150975983Y-77301089D01*
X150978150Y-77300638D01*
X151036085Y-77289113D01*
X151133497Y-77269737D01*
X151279179Y-77209394D01*
X151410289Y-77121789D01*
X151521789Y-77010289D01*
X151609394Y-76879179D01*
X151669737Y-76733497D01*
X151700500Y-76578842D01*
X151700500Y-76421158D01*
X151700500Y-76421155D01*
X151700499Y-76421153D01*
X151693089Y-76383901D01*
X151669737Y-76266503D01*
X151669732Y-76266492D01*
X151667969Y-76260676D01*
X151670720Y-76259841D01*
X151664497Y-76202641D01*
X151695691Y-76140122D01*
X151755734Y-76104392D01*
X151786555Y-76100500D01*
X152484500Y-76100500D01*
X152551539Y-76120185D01*
G37*
%TD.AperFunction*%
%TA.AperFunction,Conductor*%
G36*
X173658995Y-82350859D02*
G01*
X173694648Y-82410947D01*
X173698500Y-82441614D01*
X173698500Y-83228385D01*
X173678815Y-83295424D01*
X173626011Y-83341179D01*
X173556853Y-83351123D01*
X173527051Y-83342947D01*
X173508505Y-83335265D01*
X173508489Y-83335261D01*
X173353845Y-83304500D01*
X173353842Y-83304500D01*
X173249291Y-83304500D01*
X173182252Y-83284815D01*
X173136497Y-83232011D01*
X173130956Y-83217552D01*
X173113113Y-83160565D01*
X173113110Y-83160558D01*
X173113110Y-83160557D01*
X173051013Y-83030767D01*
X173020356Y-82984886D01*
X173008900Y-82963454D01*
X172996007Y-82932326D01*
X172988955Y-82909080D01*
X172982381Y-82876030D01*
X172980000Y-82851844D01*
X172980000Y-82818149D01*
X172982383Y-82793958D01*
X173005425Y-82678119D01*
X173006071Y-82675070D01*
X173006664Y-82672466D01*
X173006664Y-82672439D01*
X173008104Y-82666059D01*
X173008134Y-82666003D01*
X173008139Y-82665985D01*
X173008144Y-82665986D01*
X173008566Y-82665226D01*
X173008587Y-82664467D01*
X173010449Y-82638426D01*
X173010449Y-82638418D01*
X173010762Y-82634039D01*
X173010764Y-82634032D01*
X173010849Y-82632835D01*
X173010848Y-82632834D01*
X173010934Y-82631637D01*
X173010935Y-82631638D01*
X173015730Y-82564596D01*
X173015730Y-82564595D01*
X173010280Y-82488401D01*
X173025131Y-82420132D01*
X173074536Y-82370726D01*
X173142809Y-82355874D01*
X173158156Y-82357941D01*
X173196156Y-82365500D01*
X173196158Y-82365500D01*
X173353844Y-82365500D01*
X173353845Y-82365499D01*
X173508497Y-82334737D01*
X173527048Y-82327052D01*
X173596516Y-82319584D01*
X173658995Y-82350859D01*
G37*
%TD.AperFunction*%
%TA.AperFunction,Conductor*%
G36*
X158974075Y-77592993D02*
G01*
X159039901Y-77707007D01*
X159132993Y-77800099D01*
X159247007Y-77865925D01*
X159310590Y-77882962D01*
X158678282Y-78515269D01*
X158678282Y-78515270D01*
X158732449Y-78554624D01*
X158921782Y-78651095D01*
X159087818Y-78705043D01*
X159145493Y-78744480D01*
X159172692Y-78808839D01*
X159172879Y-78819326D01*
X159853554Y-79500000D01*
X159847339Y-79500000D01*
X159745606Y-79527259D01*
X159654394Y-79579920D01*
X159579920Y-79654394D01*
X159527259Y-79745606D01*
X159500000Y-79847339D01*
X159500000Y-79853553D01*
X158820524Y-79174077D01*
X158820523Y-79174077D01*
X158788143Y-79218644D01*
X158695244Y-79400968D01*
X158632009Y-79595582D01*
X158600000Y-79797682D01*
X158600000Y-80002317D01*
X158632009Y-80204417D01*
X158695244Y-80399031D01*
X158788141Y-80581350D01*
X158788147Y-80581359D01*
X158820523Y-80625921D01*
X158820524Y-80625922D01*
X159500000Y-79946446D01*
X159500000Y-79952661D01*
X159527259Y-80054394D01*
X159579920Y-80145606D01*
X159654394Y-80220080D01*
X159745606Y-80272741D01*
X159847339Y-80300000D01*
X159853553Y-80300000D01*
X159174076Y-80979474D01*
X159218650Y-81011859D01*
X159400968Y-81104755D01*
X159595582Y-81167990D01*
X159797683Y-81200000D01*
X160002317Y-81200000D01*
X160204417Y-81167990D01*
X160399031Y-81104755D01*
X160581349Y-81011859D01*
X160625921Y-80979474D01*
X159946447Y-80300000D01*
X159952661Y-80300000D01*
X160054394Y-80272741D01*
X160145606Y-80220080D01*
X160220080Y-80145606D01*
X160272741Y-80054394D01*
X160300000Y-79952661D01*
X160300000Y-79946446D01*
X160979474Y-80625921D01*
X161011859Y-80581349D01*
X161039233Y-80527624D01*
X161087207Y-80476827D01*
X161155028Y-80460031D01*
X161221163Y-80482567D01*
X161260203Y-80527621D01*
X161287713Y-80581611D01*
X161408028Y-80747213D01*
X161408034Y-80747219D01*
X161552781Y-80891966D01*
X161718390Y-81012287D01*
X161731793Y-81019116D01*
X161782589Y-81067088D01*
X161799500Y-81129601D01*
X161799500Y-81549903D01*
X161779815Y-81616942D01*
X161763181Y-81637584D01*
X160837584Y-82563181D01*
X160776261Y-82596666D01*
X160749903Y-82599500D01*
X159179766Y-82599500D01*
X159112727Y-82579815D01*
X159110875Y-82578602D01*
X158979185Y-82490609D01*
X158979172Y-82490602D01*
X158833501Y-82430264D01*
X158833489Y-82430261D01*
X158678845Y-82399500D01*
X158678842Y-82399500D01*
X158521158Y-82399500D01*
X158521155Y-82399500D01*
X158366510Y-82430261D01*
X158366498Y-82430264D01*
X158220827Y-82490602D01*
X158220814Y-82490609D01*
X158089712Y-82578209D01*
X158088095Y-82579537D01*
X158087082Y-82579966D01*
X158084646Y-82581595D01*
X158084337Y-82581132D01*
X158023784Y-82606848D01*
X157954917Y-82595054D01*
X157903358Y-82547900D01*
X157885433Y-82483681D01*
X157885433Y-81206892D01*
X157885434Y-81206879D01*
X157885434Y-81038778D01*
X157885434Y-81038776D01*
X157844510Y-80886048D01*
X157809217Y-80824920D01*
X157765453Y-80749117D01*
X157653649Y-80637313D01*
X157653648Y-80637312D01*
X157649318Y-80632982D01*
X157649307Y-80632972D01*
X157436819Y-80420484D01*
X157403334Y-80359161D01*
X157400500Y-80332803D01*
X157400500Y-78736670D01*
X157420185Y-78669631D01*
X157468204Y-78626186D01*
X157607816Y-78555051D01*
X157694138Y-78492335D01*
X157779786Y-78430109D01*
X157779788Y-78430106D01*
X157779792Y-78430104D01*
X157930104Y-78279792D01*
X157930106Y-78279788D01*
X157930109Y-78279786D01*
X157997515Y-78187007D01*
X158055051Y-78107816D01*
X158059793Y-78098508D01*
X158107763Y-78047711D01*
X158175583Y-78030911D01*
X158241719Y-78053445D01*
X158280763Y-78098500D01*
X158285373Y-78107547D01*
X158324728Y-78161716D01*
X158957036Y-77529407D01*
X158974075Y-77592993D01*
G37*
%TD.AperFunction*%
%TA.AperFunction,Conductor*%
G36*
X155878418Y-78295417D02*
G01*
X155906673Y-78316569D01*
X156020211Y-78430107D01*
X156091200Y-78481682D01*
X156148385Y-78523229D01*
X156191051Y-78578558D01*
X156199500Y-78623547D01*
X156199500Y-79450903D01*
X156179815Y-79517942D01*
X156127011Y-79563697D01*
X156057853Y-79573641D01*
X155994297Y-79544616D01*
X155987819Y-79538584D01*
X155363489Y-78914254D01*
X155330004Y-78852931D01*
X155334988Y-78783239D01*
X155376860Y-78727306D01*
X155407838Y-78710391D01*
X155452326Y-78693798D01*
X155452326Y-78693797D01*
X155452331Y-78693796D01*
X155567546Y-78607546D01*
X155653796Y-78492331D01*
X155702810Y-78360916D01*
X155744681Y-78304984D01*
X155810145Y-78280566D01*
X155878418Y-78295417D01*
G37*
%TD.AperFunction*%
%TA.AperFunction,Conductor*%
G36*
X145699075Y-77592993D02*
G01*
X145764901Y-77707007D01*
X145857993Y-77800099D01*
X145972007Y-77865925D01*
X146035590Y-77882962D01*
X145403282Y-78515269D01*
X145403282Y-78515270D01*
X145457449Y-78554624D01*
X145646782Y-78651095D01*
X145666706Y-78657569D01*
X145724381Y-78697006D01*
X145751580Y-78761365D01*
X145739665Y-78830211D01*
X145692421Y-78881687D01*
X145628388Y-78899500D01*
X144815103Y-78899500D01*
X144748064Y-78879815D01*
X144702309Y-78827011D01*
X144692365Y-78757853D01*
X144721390Y-78694297D01*
X144740792Y-78676234D01*
X144800240Y-78631730D01*
X144832546Y-78607546D01*
X144918796Y-78492331D01*
X144969091Y-78357483D01*
X144975500Y-78297873D01*
X144975499Y-78287312D01*
X144995179Y-78220275D01*
X145011818Y-78199626D01*
X145682037Y-77529408D01*
X145699075Y-77592993D01*
G37*
%TD.AperFunction*%
%TA.AperFunction,Conductor*%
G36*
X159995148Y-77601594D02*
G01*
X160021505Y-77640579D01*
X160024963Y-77648678D01*
X160031423Y-77672785D01*
X160042422Y-77691835D01*
X160046144Y-77698283D01*
X160046149Y-77698293D01*
X160110475Y-77809709D01*
X160110481Y-77809717D01*
X160194726Y-77893962D01*
X160201994Y-77905988D01*
X160210257Y-77912916D01*
X160222360Y-77939686D01*
X160225438Y-77944778D01*
X160228499Y-77954608D01*
X160228499Y-77955817D01*
X160269423Y-78108545D01*
X160277731Y-78122934D01*
X160284632Y-78134887D01*
X160284634Y-78134893D01*
X160348475Y-78245469D01*
X160348481Y-78245477D01*
X160467342Y-78364338D01*
X160467355Y-78364350D01*
X160659377Y-78556372D01*
X160692862Y-78617695D01*
X160687878Y-78687387D01*
X160646006Y-78743320D01*
X160580542Y-78767737D01*
X160515401Y-78754538D01*
X160399031Y-78695244D01*
X160285794Y-78658451D01*
X160265914Y-78644857D01*
X160243901Y-78635083D01*
X160237593Y-78625491D01*
X160228119Y-78619013D01*
X160218744Y-78596828D01*
X160205510Y-78576705D01*
X160205389Y-78565227D01*
X160200921Y-78554654D01*
X160200495Y-78530790D01*
X160201716Y-78515269D01*
X159569408Y-77882962D01*
X159632993Y-77865925D01*
X159747007Y-77800099D01*
X159840099Y-77707007D01*
X159905925Y-77592993D01*
X159922962Y-77529408D01*
X159995148Y-77601594D01*
G37*
%TD.AperFunction*%
%TA.AperFunction,Conductor*%
G36*
X150080484Y-76120185D02*
G01*
X150126239Y-76172989D01*
X150136183Y-76242147D01*
X150134891Y-76249539D01*
X150132513Y-76261069D01*
X150130263Y-76266503D01*
X150099500Y-76421158D01*
X150099500Y-76421193D01*
X150099190Y-76422697D01*
X150082978Y-76453167D01*
X150066976Y-76483761D01*
X150066380Y-76484366D01*
X150066373Y-76484381D01*
X150066358Y-76484388D01*
X150065425Y-76485339D01*
X148187584Y-78363181D01*
X148126261Y-78396666D01*
X148099903Y-78399500D01*
X147486670Y-78399500D01*
X147486654Y-78399499D01*
X147479058Y-78399499D01*
X147350877Y-78399499D01*
X147283838Y-78379814D01*
X147238083Y-78327010D01*
X147228139Y-78257852D01*
X147250559Y-78202614D01*
X147319620Y-78107557D01*
X147416095Y-77918217D01*
X147481757Y-77716130D01*
X147481757Y-77716127D01*
X147515000Y-77506246D01*
X147515000Y-77293753D01*
X147481757Y-77083872D01*
X147481757Y-77083869D01*
X147416095Y-76881782D01*
X147319624Y-76692449D01*
X147280270Y-76638282D01*
X147280269Y-76638282D01*
X146647962Y-77270590D01*
X146630925Y-77207007D01*
X146565099Y-77092993D01*
X146472007Y-76999901D01*
X146357993Y-76934075D01*
X146294409Y-76917037D01*
X146926716Y-76284728D01*
X146922742Y-76234230D01*
X146937106Y-76165852D01*
X146986157Y-76116095D01*
X147046360Y-76100500D01*
X150013445Y-76100500D01*
X150080484Y-76120185D01*
G37*
%TD.AperFunction*%
%TA.AperFunction,Conductor*%
G36*
X145350678Y-76120185D02*
G01*
X145396433Y-76172989D01*
X145407257Y-76234230D01*
X145403282Y-76284728D01*
X146035591Y-76917037D01*
X145972007Y-76934075D01*
X145857993Y-76999901D01*
X145764901Y-77092993D01*
X145699075Y-77207007D01*
X145682037Y-77270591D01*
X145011818Y-76600372D01*
X144978333Y-76539049D01*
X144975499Y-76512691D01*
X144975499Y-76502129D01*
X144975498Y-76502123D01*
X144974483Y-76492682D01*
X144969091Y-76442517D01*
X144961123Y-76421155D01*
X144918797Y-76307671D01*
X144918793Y-76307665D01*
X144912165Y-76298810D01*
X144887748Y-76233346D01*
X144902600Y-76165073D01*
X144952005Y-76115668D01*
X145011432Y-76100500D01*
X145283639Y-76100500D01*
X145350678Y-76120185D01*
G37*
%TD.AperFunction*%
%TD*%
%TA.AperFunction,Conductor*%
%TO.N,unconnected-(U3-EPAD-Pad9)*%
G36*
X171351842Y-80172185D02*
G01*
X171372484Y-80188819D01*
X171636181Y-80452516D01*
X171650884Y-80479443D01*
X171667477Y-80505262D01*
X171668368Y-80511462D01*
X171669666Y-80513839D01*
X171672500Y-80540197D01*
X171672500Y-80623373D01*
X171672499Y-80623391D01*
X171672499Y-80789097D01*
X171672498Y-80789097D01*
X171713423Y-80941828D01*
X171732608Y-80975057D01*
X171732607Y-80975057D01*
X171732608Y-80975058D01*
X171792475Y-81078752D01*
X171792481Y-81078760D01*
X171911349Y-81197628D01*
X171911355Y-81197633D01*
X172037181Y-81323459D01*
X172070666Y-81384782D01*
X172073500Y-81411140D01*
X172073500Y-81727273D01*
X172073499Y-81727291D01*
X172073499Y-81892997D01*
X172073498Y-81892997D01*
X172114423Y-82045730D01*
X172121488Y-82057966D01*
X172121490Y-82057968D01*
X172193477Y-82182655D01*
X172193481Y-82182660D01*
X172312349Y-82301528D01*
X172312355Y-82301533D01*
X172478033Y-82467211D01*
X172511518Y-82528534D01*
X172506723Y-82595576D01*
X172507032Y-82595670D01*
X172506619Y-82597029D01*
X172506534Y-82598226D01*
X172505323Y-82601301D01*
X172505261Y-82601505D01*
X172474500Y-82756153D01*
X172474500Y-82913846D01*
X172505261Y-83068489D01*
X172505264Y-83068501D01*
X172565602Y-83214172D01*
X172565609Y-83214185D01*
X172630706Y-83311609D01*
X172651584Y-83378287D01*
X172633099Y-83445667D01*
X172581121Y-83492357D01*
X172527604Y-83504500D01*
X168372197Y-83504500D01*
X168305158Y-83484815D01*
X168284516Y-83468181D01*
X168087590Y-83271255D01*
X168087588Y-83271252D01*
X167968717Y-83152381D01*
X167968716Y-83152380D01*
X167863914Y-83091873D01*
X167863913Y-83091872D01*
X167831783Y-83073322D01*
X167775881Y-83058343D01*
X167679057Y-83032399D01*
X167679054Y-83032399D01*
X167667197Y-83032399D01*
X167644926Y-83025859D01*
X167621804Y-83023792D01*
X167608748Y-83015236D01*
X167600158Y-83012714D01*
X167591133Y-83006329D01*
X167585006Y-83001570D01*
X167500916Y-82917480D01*
X167414104Y-82867360D01*
X167363985Y-82838423D01*
X167211257Y-82797499D01*
X167053143Y-82797499D01*
X167045547Y-82797499D01*
X167045531Y-82797500D01*
X166126500Y-82797500D01*
X166059461Y-82777815D01*
X166013706Y-82725011D01*
X166002500Y-82673500D01*
X166002500Y-81989346D01*
X166022185Y-81922307D01*
X166038815Y-81901669D01*
X166661506Y-81278977D01*
X166661511Y-81278974D01*
X166671714Y-81268770D01*
X166671716Y-81268770D01*
X166783520Y-81156966D01*
X166862577Y-81020034D01*
X166903500Y-80867307D01*
X166903500Y-80677500D01*
X166923185Y-80610461D01*
X166975989Y-80564706D01*
X167027500Y-80553500D01*
X167482766Y-80553500D01*
X167549805Y-80573185D01*
X167595560Y-80625989D01*
X167597309Y-80630005D01*
X167615603Y-80674172D01*
X167615608Y-80674183D01*
X167703210Y-80805288D01*
X167703213Y-80805292D01*
X167814707Y-80916786D01*
X167814711Y-80916789D01*
X167945814Y-81004390D01*
X167945827Y-81004397D01*
X168064649Y-81053614D01*
X168091503Y-81064737D01*
X168246153Y-81095499D01*
X168246156Y-81095500D01*
X168246158Y-81095500D01*
X168403844Y-81095500D01*
X168403845Y-81095499D01*
X168558497Y-81064737D01*
X168685121Y-81012288D01*
X168704172Y-81004397D01*
X168704172Y-81004396D01*
X168704179Y-81004394D01*
X168835289Y-80916789D01*
X168946789Y-80805289D01*
X169034394Y-80674179D01*
X169094737Y-80528497D01*
X169125500Y-80373842D01*
X169125500Y-80276500D01*
X169145185Y-80209461D01*
X169197989Y-80163706D01*
X169249500Y-80152500D01*
X171284803Y-80152500D01*
X171351842Y-80172185D01*
G37*
%TD.AperFunction*%
%TD*%
M02*
