%TF.GenerationSoftware,KiCad,Pcbnew,9.0.3*%
%TF.CreationDate,2025-09-07T19:35:51+01:00*%
%TF.ProjectId,cheetoPet,63686565-746f-4506-9574-2e6b69636164,v0.2*%
%TF.SameCoordinates,Original*%
%TF.FileFunction,Copper,L2,Bot*%
%TF.FilePolarity,Positive*%
%FSLAX46Y46*%
G04 Gerber Fmt 4.6, Leading zero omitted, Abs format (unit mm)*
G04 Created by KiCad (PCBNEW 9.0.3) date 2025-09-07 19:35:51*
%MOMM*%
%LPD*%
G01*
G04 APERTURE LIST*
G04 Aperture macros list*
%AMRoundRect*
0 Rectangle with rounded corners*
0 $1 Rounding radius*
0 $2 $3 $4 $5 $6 $7 $8 $9 X,Y pos of 4 corners*
0 Add a 4 corners polygon primitive as box body*
4,1,4,$2,$3,$4,$5,$6,$7,$8,$9,$2,$3,0*
0 Add four circle primitives for the rounded corners*
1,1,$1+$1,$2,$3*
1,1,$1+$1,$4,$5*
1,1,$1+$1,$6,$7*
1,1,$1+$1,$8,$9*
0 Add four rect primitives between the rounded corners*
20,1,$1+$1,$2,$3,$4,$5,0*
20,1,$1+$1,$4,$5,$6,$7,0*
20,1,$1+$1,$6,$7,$8,$9,0*
20,1,$1+$1,$8,$9,$2,$3,0*%
G04 Aperture macros list end*
%TA.AperFunction,ComponentPad*%
%ADD10R,0.850000X0.850000*%
%TD*%
%TA.AperFunction,ComponentPad*%
%ADD11C,0.850000*%
%TD*%
%TA.AperFunction,ComponentPad*%
%ADD12R,1.700000X1.700000*%
%TD*%
%TA.AperFunction,ComponentPad*%
%ADD13C,1.700000*%
%TD*%
%TA.AperFunction,SMDPad,CuDef*%
%ADD14RoundRect,0.250000X-0.350000X-0.450000X0.350000X-0.450000X0.350000X0.450000X-0.350000X0.450000X0*%
%TD*%
%TA.AperFunction,SMDPad,CuDef*%
%ADD15R,1.300000X3.400000*%
%TD*%
%TA.AperFunction,SMDPad,CuDef*%
%ADD16R,1.600000X1.500000*%
%TD*%
%TA.AperFunction,SMDPad,CuDef*%
%ADD17RoundRect,0.150000X0.825000X0.150000X-0.825000X0.150000X-0.825000X-0.150000X0.825000X-0.150000X0*%
%TD*%
%TA.AperFunction,HeatsinkPad*%
%ADD18C,0.500000*%
%TD*%
%TA.AperFunction,HeatsinkPad*%
%ADD19R,2.410000X3.300000*%
%TD*%
%TA.AperFunction,SMDPad,CuDef*%
%ADD20RoundRect,0.250000X-0.450000X0.350000X-0.450000X-0.350000X0.450000X-0.350000X0.450000X0.350000X0*%
%TD*%
%TA.AperFunction,SMDPad,CuDef*%
%ADD21RoundRect,0.250000X0.450000X-0.325000X0.450000X0.325000X-0.450000X0.325000X-0.450000X-0.325000X0*%
%TD*%
%TA.AperFunction,SMDPad,CuDef*%
%ADD22RoundRect,0.150000X0.875000X0.150000X-0.875000X0.150000X-0.875000X-0.150000X0.875000X-0.150000X0*%
%TD*%
%TA.AperFunction,SMDPad,CuDef*%
%ADD23RoundRect,0.250000X0.350000X0.450000X-0.350000X0.450000X-0.350000X-0.450000X0.350000X-0.450000X0*%
%TD*%
%TA.AperFunction,SMDPad,CuDef*%
%ADD24R,1.100000X0.250000*%
%TD*%
%TA.AperFunction,SMDPad,CuDef*%
%ADD25RoundRect,0.250000X-0.337500X-0.475000X0.337500X-0.475000X0.337500X0.475000X-0.337500X0.475000X0*%
%TD*%
%TA.AperFunction,SMDPad,CuDef*%
%ADD26R,0.600000X1.450000*%
%TD*%
%TA.AperFunction,SMDPad,CuDef*%
%ADD27R,0.300000X1.450000*%
%TD*%
%TA.AperFunction,HeatsinkPad*%
%ADD28O,1.000000X1.600000*%
%TD*%
%TA.AperFunction,HeatsinkPad*%
%ADD29O,1.000000X2.100000*%
%TD*%
%TA.AperFunction,SMDPad,CuDef*%
%ADD30RoundRect,0.150000X0.150000X-0.587500X0.150000X0.587500X-0.150000X0.587500X-0.150000X-0.587500X0*%
%TD*%
%TA.AperFunction,SMDPad,CuDef*%
%ADD31R,1.500000X0.900000*%
%TD*%
%TA.AperFunction,HeatsinkPad*%
%ADD32C,0.600000*%
%TD*%
%TA.AperFunction,HeatsinkPad*%
%ADD33R,2.900000X2.900000*%
%TD*%
%TA.AperFunction,ViaPad*%
%ADD34C,0.600000*%
%TD*%
%TA.AperFunction,Conductor*%
%ADD35C,0.200000*%
%TD*%
G04 APERTURE END LIST*
D10*
%TO.P,J4,1,Pin_1*%
%TO.N,GND*%
X168450000Y-96300000D03*
D11*
%TO.P,J4,2,Pin_2*%
%TO.N,+3.3V*%
X168450000Y-95300000D03*
%TO.P,J4,3,Pin_3*%
%TO.N,SCL*%
X169450000Y-96300000D03*
%TO.P,J4,4,Pin_4*%
%TO.N,SDA*%
X169450000Y-95300000D03*
%TO.P,J4,5,Pin_5*%
%TO.N,IO2*%
X170450000Y-96300000D03*
%TO.P,J4,6,Pin_6*%
%TO.N,IO0*%
X170450000Y-95300000D03*
%TO.P,J4,7,Pin_7*%
%TO.N,VI*%
X171450000Y-96300000D03*
%TO.P,J4,8,Pin_8*%
%TO.N,AIN3*%
X171450000Y-95300000D03*
%TO.P,J4,9,Pin_9*%
%TO.N,AIN2*%
X172450000Y-96300000D03*
%TO.P,J4,10,Pin_10*%
%TO.N,AIN1*%
X172450000Y-95300000D03*
%TO.P,J4,11,Pin_11*%
%TO.N,TXD*%
X173450000Y-96300000D03*
%TO.P,J4,12,Pin_12*%
%TO.N,RXD*%
X173450000Y-95300000D03*
%TD*%
D12*
%TO.P,J1,1,Pin_1*%
%TO.N,SDA*%
X154360000Y-77400000D03*
D13*
%TO.P,J1,2,Pin_2*%
%TO.N,SCL*%
X156900000Y-77400000D03*
%TO.P,J1,3,Pin_3*%
%TO.N,GND*%
X159440000Y-77400000D03*
%TO.P,J1,4,Pin_4*%
%TO.N,+3.3V*%
X161980000Y-77400000D03*
%TD*%
D14*
%TO.P,R6,1*%
%TO.N,+3.3V*%
X156850000Y-102000000D03*
%TO.P,R6,2*%
%TO.N,Net-(U4-EN)*%
X158850000Y-102000000D03*
%TD*%
D15*
%TO.P,LS1,1,1*%
%TO.N,Net-(U1-~{INT}{slash}SQW)*%
X173650000Y-117600000D03*
%TO.P,LS1,2,2*%
%TO.N,GND*%
X164950000Y-117600000D03*
%TD*%
D16*
%TO.P,SW5,1,1*%
%TO.N,GND*%
X147900000Y-122400000D03*
%TO.P,SW5,2,2*%
%TO.N,Net-(U4-EN)*%
X143400000Y-122400000D03*
%TD*%
D12*
%TO.P,SW4,1,A*%
%TO.N,GND*%
X170340000Y-77400000D03*
D13*
%TO.P,SW4,2,B*%
%TO.N,Net-(SW4-B)*%
X167800000Y-77400000D03*
%TO.P,SW4,3,C*%
%TO.N,unconnected-(SW4-C-Pad3)*%
X165260000Y-77400000D03*
%TD*%
D17*
%TO.P,U3,1,TEMP*%
%TO.N,GND*%
X173275000Y-80295000D03*
%TO.P,U3,2,PROG*%
%TO.N,Net-(U3-PROG)*%
X173275000Y-81565000D03*
%TO.P,U3,3,GND*%
%TO.N,GND*%
X173275000Y-82835000D03*
%TO.P,U3,4,V_{CC}*%
%TO.N,VI*%
X173275000Y-84105000D03*
%TO.P,U3,5,BAT*%
%TO.N,+BATT*%
X168325000Y-84105000D03*
%TO.P,U3,6,~{STDBY}*%
%TO.N,Net-(U3-~{STDBY})*%
X168325000Y-82835000D03*
%TO.P,U3,7,~{CHRG}*%
%TO.N,Net-(U3-~{CHRG})*%
X168325000Y-81565000D03*
%TO.P,U3,8,CE*%
%TO.N,VI*%
X168325000Y-80295000D03*
D18*
%TO.P,U3,9,EPAD*%
%TO.N,unconnected-(U3-EPAD-Pad9)*%
X171500000Y-83400000D03*
X171500000Y-82200000D03*
X171500000Y-81000000D03*
D19*
X170800000Y-82200000D03*
D18*
X170100000Y-83400000D03*
X170100000Y-82200000D03*
X170100000Y-81000000D03*
%TD*%
D16*
%TO.P,SW6,1,1*%
%TO.N,GND*%
X147900000Y-124750000D03*
%TO.P,SW6,2,2*%
%TO.N,SDA*%
X143400000Y-124750000D03*
%TD*%
D20*
%TO.P,R11,1*%
%TO.N,Net-(U5-AIN0)*%
X143600000Y-88400000D03*
%TO.P,R11,2*%
%TO.N,GND*%
X143600000Y-90400000D03*
%TD*%
D21*
%TO.P,D1,1,K*%
%TO.N,VI*%
X173450000Y-92575000D03*
%TO.P,D1,2,A*%
%TO.N,+BATT*%
X173450000Y-90525000D03*
%TD*%
D22*
%TO.P,U1,1,32KHZ*%
%TO.N,unconnected-(U1-32KHZ-Pad1)*%
X172950000Y-102955000D03*
%TO.P,U1,2,VCC*%
%TO.N,+3.3V*%
X172950000Y-104225000D03*
%TO.P,U1,3,~{INT}/SQW*%
%TO.N,Net-(U1-~{INT}{slash}SQW)*%
X172950000Y-105495000D03*
%TO.P,U1,4,~{RST}*%
%TO.N,+3.3V*%
X172950000Y-106765000D03*
%TO.P,U1,5,GND*%
%TO.N,GND*%
X172950000Y-108035000D03*
%TO.P,U1,6,GND*%
X172950000Y-109305000D03*
%TO.P,U1,7,GND*%
X172950000Y-110575000D03*
%TO.P,U1,8,GND*%
X172950000Y-111845000D03*
%TO.P,U1,9,GND*%
X163650000Y-111845000D03*
%TO.P,U1,10,GND*%
X163650000Y-110575000D03*
%TO.P,U1,11,GND*%
X163650000Y-109305000D03*
%TO.P,U1,12,GND*%
X163650000Y-108035000D03*
%TO.P,U1,13,GND*%
X163650000Y-106765000D03*
%TO.P,U1,14,VBAT*%
%TO.N,Net-(BT2-+)*%
X163650000Y-105495000D03*
%TO.P,U1,15,SDA*%
%TO.N,SDA*%
X163650000Y-104225000D03*
%TO.P,U1,16,SCL*%
%TO.N,SCL*%
X163650000Y-102955000D03*
%TD*%
D23*
%TO.P,R2,1*%
%TO.N,Net-(P1-CC)*%
X151700000Y-99400000D03*
%TO.P,R2,2*%
%TO.N,GND*%
X149700000Y-99400000D03*
%TD*%
D17*
%TO.P,U7,1,NC*%
%TO.N,unconnected-(U7-NC-Pad1)*%
X172100000Y-123990000D03*
%TO.P,U7,2,A1*%
%TO.N,GND*%
X172100000Y-125260000D03*
%TO.P,U7,3,A2*%
X172100000Y-126530000D03*
%TO.P,U7,4,GND*%
X172100000Y-127800000D03*
%TO.P,U7,5,SDA*%
%TO.N,SDA*%
X167150000Y-127800000D03*
%TO.P,U7,6,SCL*%
%TO.N,SCL*%
X167150000Y-126530000D03*
%TO.P,U7,7,WP*%
%TO.N,GND*%
X167150000Y-125260000D03*
%TO.P,U7,8,VCC*%
%TO.N,+3.3V*%
X167150000Y-123990000D03*
%TD*%
D20*
%TO.P,R7,1*%
%TO.N,SCL*%
X156950000Y-79750000D03*
%TO.P,R7,2*%
%TO.N,+3.3V*%
X156950000Y-81750000D03*
%TD*%
D24*
%TO.P,U5,1,ADDR*%
%TO.N,GND*%
X143100000Y-104900000D03*
%TO.P,U5,2,ALERT/RDY*%
%TO.N,unconnected-(U5-ALERT{slash}RDY-Pad2)*%
X143100000Y-104400000D03*
%TO.P,U5,3,GND*%
%TO.N,GND*%
X143100000Y-103900000D03*
%TO.P,U5,4,AIN0*%
%TO.N,Net-(U5-AIN0)*%
X143100000Y-103400000D03*
%TO.P,U5,5,AIN1*%
%TO.N,AIN1*%
X143100000Y-102900000D03*
%TO.P,U5,6,AIN2*%
%TO.N,AIN2*%
X147400000Y-102900000D03*
%TO.P,U5,7,AIN3*%
%TO.N,AIN3*%
X147400000Y-103400000D03*
%TO.P,U5,8,VDD*%
%TO.N,+3.3V*%
X147400000Y-103900000D03*
%TO.P,U5,9,SDA*%
%TO.N,SDA*%
X147400000Y-104400000D03*
%TO.P,U5,10,SCL*%
%TO.N,SCL*%
X147400000Y-104900000D03*
%TD*%
D25*
%TO.P,C1,1*%
%TO.N,GND*%
X156475000Y-104500000D03*
%TO.P,C1,2*%
%TO.N,+3.3V*%
X158550000Y-104500000D03*
%TD*%
D23*
%TO.P,R5,1*%
%TO.N,Net-(U3-PROG)*%
X169900000Y-87050000D03*
%TO.P,R5,2*%
%TO.N,GND*%
X167900000Y-87050000D03*
%TD*%
D26*
%TO.P,P1,A1,GND*%
%TO.N,GND*%
X161550000Y-122555000D03*
%TO.P,P1,A4,VBUS*%
%TO.N,VI*%
X160750000Y-122555000D03*
D27*
%TO.P,P1,A5,CC*%
%TO.N,Net-(P1-CC)*%
X159550000Y-122555000D03*
%TO.P,P1,A6,D+*%
%TO.N,Net-(P1-D+)*%
X158550000Y-122555000D03*
%TO.P,P1,A7,D-*%
%TO.N,Net-(P1-D-)*%
X158050000Y-122555000D03*
%TO.P,P1,A8*%
%TO.N,N/C*%
X157050000Y-122555000D03*
D26*
%TO.P,P1,A9,VBUS*%
%TO.N,VI*%
X155850000Y-122555000D03*
%TO.P,P1,A12,GND*%
%TO.N,GND*%
X155050000Y-122555000D03*
%TO.P,P1,B1,GND*%
X155050000Y-122555000D03*
%TO.P,P1,B4,VBUS*%
%TO.N,VI*%
X155850000Y-122555000D03*
D27*
%TO.P,P1,B5,VCONN*%
%TO.N,unconnected-(P1-VCONN-PadB5)*%
X156550000Y-122555000D03*
%TO.P,P1,B6*%
%TO.N,N/C*%
X157550000Y-122555000D03*
%TO.P,P1,B7*%
X159050000Y-122555000D03*
%TO.P,P1,B8*%
X160050000Y-122555000D03*
D26*
%TO.P,P1,B9,VBUS*%
%TO.N,VI*%
X160750000Y-122555000D03*
%TO.P,P1,B12,GND*%
%TO.N,GND*%
X161550000Y-122555000D03*
D28*
%TO.P,P1,S1,SHIELD*%
X162620000Y-127650000D03*
D29*
X162620000Y-123470000D03*
D28*
X153980000Y-127650000D03*
D29*
X153980000Y-123470000D03*
%TD*%
D12*
%TO.P,BT2,1,+*%
%TO.N,Net-(BT2-+)*%
X143625000Y-81000000D03*
D13*
%TO.P,BT2,2,-*%
%TO.N,GND*%
X146165000Y-81000000D03*
%TD*%
D30*
%TO.P,U8,1,GND*%
%TO.N,GND*%
X173650000Y-88350000D03*
%TO.P,U8,2,VO*%
%TO.N,+3.3V*%
X171750000Y-88350000D03*
%TO.P,U8,3,VI*%
%TO.N,VI*%
X172700000Y-86475000D03*
%TD*%
D31*
%TO.P,U4,1,3V3*%
%TO.N,+3.3V*%
X160900000Y-107600000D03*
%TO.P,U4,2,EN*%
%TO.N,Net-(U4-EN)*%
X160900000Y-109100000D03*
%TO.P,U4,3,IO4*%
%TO.N,Net-(U3-~{CHRG})*%
X160900000Y-110600000D03*
%TO.P,U4,4,IO5*%
%TO.N,B*%
X160900000Y-112100000D03*
%TO.P,U4,5,IO6*%
%TO.N,X*%
X160900000Y-113600000D03*
%TO.P,U4,6,IO7*%
%TO.N,A*%
X160900000Y-115100000D03*
%TO.P,U4,7,IO8*%
%TO.N,SCL*%
X160900000Y-116600000D03*
%TO.P,U4,8,IO9*%
%TO.N,SDA*%
X160900000Y-118100000D03*
%TO.P,U4,9,GND*%
%TO.N,GND*%
X160900000Y-119600000D03*
%TO.P,U4,10,IO10*%
%TO.N,Net-(SW4-B)*%
X143400000Y-119600000D03*
%TO.P,U4,11,IO20/RXD*%
%TO.N,RXD*%
X143400000Y-118100000D03*
%TO.P,U4,12,IO21/TXD*%
%TO.N,TXD*%
X143400000Y-116600000D03*
%TO.P,U4,13,IO18*%
%TO.N,D-*%
X143400000Y-115100000D03*
%TO.P,U4,14,IO19*%
%TO.N,D+*%
X143400000Y-113600000D03*
%TO.P,U4,15,IO3*%
%TO.N,Net-(U1-~{INT}{slash}SQW)*%
X143400000Y-112100000D03*
%TO.P,U4,16,IO2*%
%TO.N,IO2*%
X143400000Y-110600000D03*
%TO.P,U4,17,IO1*%
%TO.N,Net-(U3-~{STDBY})*%
X143400000Y-109100000D03*
%TO.P,U4,18,IO0*%
%TO.N,IO0*%
X143400000Y-107600000D03*
D32*
%TO.P,U4,19,GND*%
%TO.N,GND*%
X152290000Y-114350000D03*
X152290000Y-113250000D03*
X151740000Y-114900000D03*
X151740000Y-113800000D03*
X151740000Y-112700000D03*
X151190000Y-114350000D03*
D33*
X151190000Y-113800000D03*
D32*
X151190000Y-113250000D03*
X150640000Y-114900000D03*
X150640000Y-113800000D03*
X150640000Y-112700000D03*
X150090000Y-114350000D03*
X150090000Y-113250000D03*
%TD*%
D12*
%TO.P,BT1,1,+*%
%TO.N,+BATT*%
X143625000Y-77400000D03*
D13*
%TO.P,BT1,2,-*%
%TO.N,GND*%
X146165000Y-77400000D03*
%TD*%
D20*
%TO.P,R1,1*%
%TO.N,+BATT*%
X143600000Y-84200000D03*
%TO.P,R1,2*%
%TO.N,Net-(U5-AIN0)*%
X143600000Y-86200000D03*
%TD*%
D34*
%TO.N,+BATT*%
X155300000Y-82000000D03*
X163650000Y-82450000D03*
X156750000Y-83900000D03*
X160800000Y-84900000D03*
%TO.N,GND*%
X155000000Y-115600000D03*
X161550000Y-122555000D03*
X168200000Y-92000000D03*
X163200000Y-114800000D03*
X167401001Y-84952381D03*
X168750000Y-88350000D03*
X159750000Y-80100000D03*
X155800000Y-78750000D03*
X173200000Y-121200000D03*
X170000000Y-104200000D03*
X170600000Y-106400000D03*
X159000000Y-98600000D03*
X163600000Y-86350000D03*
X171025000Y-89825000D03*
X150200000Y-101400000D03*
X145800000Y-123800000D03*
X164800000Y-112000000D03*
X166250000Y-84200000D03*
X159200000Y-127600000D03*
X165600000Y-114200000D03*
X153400000Y-108300000D03*
X149400000Y-85800000D03*
X148500000Y-126400000D03*
X173275000Y-82835000D03*
X152000000Y-104000000D03*
X155600000Y-99200000D03*
X166200000Y-102400000D03*
X150600000Y-109000000D03*
X170500000Y-119650000D03*
X153141401Y-119800000D03*
X143000000Y-105800000D03*
X172400000Y-91450000D03*
X168800000Y-102800000D03*
X160750000Y-91300000D03*
X158550000Y-106650000D03*
X158200000Y-120000000D03*
X160900000Y-119600000D03*
X144350000Y-102950000D03*
X156550000Y-91525000D03*
X144200000Y-92050000D03*
X174200000Y-86050000D03*
X165200000Y-85800000D03*
X148000000Y-95800000D03*
X150000000Y-123500000D03*
X160600000Y-125000000D03*
X173275000Y-80295000D03*
X163650000Y-106765000D03*
X158350000Y-85700000D03*
X153400000Y-95200000D03*
X152400000Y-97800000D03*
X170100000Y-89050000D03*
%TO.N,Net-(BT2-+)*%
X163600000Y-105400000D03*
%TO.N,+3.3V*%
X157700000Y-104400000D03*
X158874000Y-97800000D03*
X146000000Y-104100000D03*
X167150000Y-98550000D03*
X160600000Y-101600000D03*
X159900000Y-104250000D03*
X160300000Y-97999000D03*
X148700000Y-103900000D03*
%TO.N,SDA*%
X155200000Y-108600000D03*
X155200000Y-98000000D03*
X162200000Y-108600000D03*
X149200000Y-104600000D03*
X160900000Y-118100000D03*
X166450000Y-100850000D03*
X153000000Y-99600000D03*
X168200000Y-127800000D03*
%TO.N,SCL*%
X156900000Y-97800000D03*
X154800000Y-105800000D03*
X149000000Y-105400000D03*
X164200000Y-101800000D03*
X160764717Y-116050002D03*
X168330000Y-126530000D03*
%TO.N,VI*%
X171600000Y-85200000D03*
X165150000Y-104700000D03*
X160750000Y-122555000D03*
X168325000Y-80295000D03*
X173275000Y-84105000D03*
X173462500Y-92587500D03*
X157800000Y-124200000D03*
%TO.N,AIN1*%
X165691302Y-93914496D03*
X171150000Y-91950000D03*
X168741450Y-92591450D03*
X156700000Y-92750000D03*
X166575000Y-92175000D03*
X144550000Y-101450000D03*
%TO.N,TXD*%
X167400000Y-121300000D03*
%TO.N,Net-(U1-~{INT}{slash}SQW)*%
X143400000Y-112100000D03*
X173725000Y-117525000D03*
%TO.N,AIN3*%
X163050000Y-89600000D03*
X167850000Y-89650000D03*
X157950000Y-95150000D03*
X156650000Y-95350000D03*
X153450000Y-96600000D03*
X171150000Y-90698528D03*
%TO.N,Net-(P1-CC)*%
X158150000Y-112800000D03*
X159200000Y-115800000D03*
X159550000Y-120950000D03*
X151650000Y-108100000D03*
%TO.N,Net-(P1-D+)*%
X145850000Y-119100000D03*
%TO.N,Net-(P1-D-)*%
X149950000Y-119100000D03*
%TO.N,RXD*%
X143400000Y-118100000D03*
X167800000Y-122150000D03*
X145800000Y-122500000D03*
%TO.N,IO0*%
X169700000Y-93550000D03*
X163450000Y-98900000D03*
%TO.N,Net-(U3-PROG)*%
X165500000Y-87150000D03*
X173275000Y-81565000D03*
%TO.N,D-*%
X143400000Y-115100000D03*
%TO.N,D+*%
X143400000Y-113600000D03*
%TO.N,B*%
X160900000Y-112100000D03*
%TO.N,X*%
X160900000Y-113600000D03*
%TO.N,A*%
X160900000Y-115100000D03*
%TO.N,Net-(SW4-B)*%
X150900000Y-76500000D03*
X144700000Y-79600000D03*
%TO.N,IO2*%
X143400000Y-110600000D03*
X155950000Y-111650000D03*
X158200000Y-109050000D03*
X171950000Y-100350000D03*
%TO.N,Net-(U3-~{CHRG})*%
X160900000Y-110600000D03*
X161100000Y-99850000D03*
X163050000Y-88200000D03*
X163450000Y-95382900D03*
%TO.N,Net-(U3-~{STDBY})*%
X163800000Y-83400000D03*
X161465642Y-103643761D03*
X143400000Y-109100000D03*
X159624127Y-108626391D03*
%TO.N,AIN2*%
X156700000Y-94050000D03*
X171500000Y-98200000D03*
X169700000Y-97650000D03*
X155200000Y-94050000D03*
%TD*%
D35*
%TO.N,Net-(SW4-B)*%
X145200000Y-105400000D02*
X143751000Y-106849000D01*
X145200000Y-82151000D02*
X145200000Y-105400000D01*
X144700000Y-79949000D02*
X145014000Y-80263000D01*
X144700000Y-79600000D02*
X144700000Y-79949000D01*
X145014000Y-81965000D02*
X145200000Y-82151000D01*
X142349000Y-118849000D02*
X143100000Y-119600000D01*
X145014000Y-80263000D02*
X145014000Y-81965000D01*
X142349000Y-106849000D02*
X142349000Y-118849000D01*
X143751000Y-106849000D02*
X142349000Y-106849000D01*
X143100000Y-119600000D02*
X143400000Y-119600000D01*
%TO.N,+BATT*%
X143673000Y-78650000D02*
X151950000Y-78650000D01*
X142474000Y-83074000D02*
X142474000Y-79849000D01*
X163650000Y-82450000D02*
X163199000Y-82901000D01*
X173450000Y-90525000D02*
X172351000Y-89426000D01*
X167109032Y-83236000D02*
X167978032Y-84105000D01*
X163199000Y-82901000D02*
X163199000Y-83648943D01*
X142474000Y-78551000D02*
X142474000Y-83074000D01*
X157750000Y-84900000D02*
X160800000Y-84900000D01*
X142474000Y-79849000D02*
X143673000Y-78650000D01*
X168884468Y-84105000D02*
X168325000Y-84105000D01*
X167978032Y-84105000D02*
X168325000Y-84105000D01*
X156750000Y-83900000D02*
X157750000Y-84900000D01*
X164864000Y-83236000D02*
X167109032Y-83236000D01*
X163551057Y-84001000D02*
X164099000Y-84001000D01*
X160800000Y-84900000D02*
X160850000Y-84900000D01*
X164099000Y-84001000D02*
X164864000Y-83236000D01*
X163199000Y-83648943D02*
X163551057Y-84001000D01*
X172351000Y-89426000D02*
X172351000Y-87571532D01*
X172351000Y-87571532D02*
X168884468Y-84105000D01*
X151950000Y-78650000D02*
X155300000Y-82000000D01*
X142474000Y-83074000D02*
X143600000Y-84200000D01*
X143625000Y-77400000D02*
X142474000Y-78551000D01*
%TO.N,GND*%
X171250000Y-89950000D02*
X171200000Y-89950000D01*
X155050000Y-122555000D02*
X154895000Y-122555000D01*
X155448943Y-97399000D02*
X152801000Y-97399000D01*
X173275000Y-80295000D02*
X172887900Y-80295000D01*
X143951000Y-104826000D02*
X143951000Y-103974000D01*
X171225000Y-90025000D02*
X171025000Y-89825000D01*
X172400000Y-91450000D02*
X172400000Y-91100000D01*
X172400000Y-91100000D02*
X171525000Y-90225000D01*
X166250000Y-84200000D02*
X166250000Y-84750000D01*
X143100000Y-105700000D02*
X143000000Y-105800000D01*
X163650000Y-111845000D02*
X164645000Y-111845000D01*
X143951000Y-103974000D02*
X143877000Y-103900000D01*
X171325000Y-90025000D02*
X171225000Y-90025000D01*
X163200000Y-112295000D02*
X163650000Y-111845000D01*
X171025000Y-89825000D02*
X171000000Y-89800000D01*
X155600000Y-99200000D02*
X155801000Y-98999000D01*
X172887900Y-80295000D02*
X170166450Y-77573550D01*
X171325000Y-90025000D02*
X171250000Y-89950000D01*
X143877000Y-103900000D02*
X143100000Y-103900000D01*
X168200000Y-92000000D02*
X168200000Y-90950000D01*
X155801000Y-98999000D02*
X155801000Y-97751057D01*
X143877000Y-104900000D02*
X143951000Y-104826000D01*
X163200000Y-114800000D02*
X163200000Y-112295000D01*
X168200000Y-90950000D02*
X170100000Y-89050000D01*
X155801000Y-97751057D02*
X155448943Y-97399000D01*
X164645000Y-111845000D02*
X164800000Y-112000000D01*
X171525000Y-90225000D02*
X171325000Y-90025000D01*
X152801000Y-97399000D02*
X152400000Y-97800000D01*
X172950000Y-109305000D02*
X172950000Y-108035000D01*
X162465000Y-123470000D02*
X161550000Y-122555000D01*
X154895000Y-122555000D02*
X153980000Y-123470000D01*
X166250000Y-84750000D02*
X165200000Y-85800000D01*
X162620000Y-123470000D02*
X162465000Y-123470000D01*
X143100000Y-104900000D02*
X143100000Y-105700000D01*
X173100000Y-80120000D02*
X173275000Y-80295000D01*
X143100000Y-104900000D02*
X143877000Y-104900000D01*
%TO.N,+3.3V*%
X170000000Y-89717100D02*
X170066100Y-89651000D01*
X170701000Y-89298943D02*
X170701000Y-88899000D01*
X171349000Y-100099000D02*
X169800000Y-98550000D01*
X167900000Y-95300000D02*
X168450000Y-95300000D01*
X146200000Y-103900000D02*
X147400000Y-103900000D01*
X171250000Y-88350000D02*
X171750000Y-88350000D01*
X162584032Y-103556000D02*
X162270016Y-103870016D01*
X157700000Y-104400000D02*
X158450000Y-104400000D01*
X148700000Y-103900000D02*
X147400000Y-103900000D01*
X168450000Y-95300000D02*
X168450000Y-93149943D01*
X161980000Y-81420000D02*
X161980000Y-77400000D01*
X156850000Y-102000000D02*
X156850000Y-102800000D01*
X167150000Y-123990000D02*
X171500000Y-119640000D01*
X169850000Y-92900000D02*
X170000000Y-92750000D01*
X159073000Y-97999000D02*
X160300000Y-97999000D01*
X166600000Y-93400000D02*
X167250000Y-94050000D01*
X161650000Y-89050000D02*
X166000000Y-93400000D01*
X171349000Y-103020968D02*
X171349000Y-100099000D01*
X170348943Y-89651000D02*
X170701000Y-89298943D01*
X169282843Y-92900000D02*
X169850000Y-92900000D01*
X146000000Y-104100000D02*
X146200000Y-103900000D01*
X172553032Y-104225000D02*
X171349000Y-103020968D01*
X160900000Y-107600000D02*
X160900000Y-105240032D01*
X160349000Y-97999000D02*
X160400000Y-98050000D01*
X167300000Y-94700000D02*
X167900000Y-95300000D01*
X171500000Y-119640000D02*
X171500000Y-106100000D01*
X170000000Y-92750000D02*
X170000000Y-89717100D01*
X170701000Y-88899000D02*
X171250000Y-88350000D01*
X167250000Y-94050000D02*
X167300000Y-94050000D01*
X170066100Y-89651000D02*
X170348943Y-89651000D01*
X167300000Y-94050000D02*
X167300000Y-94700000D01*
X172950000Y-106765000D02*
X172165000Y-106765000D01*
X171349000Y-105949000D02*
X171349000Y-103020968D01*
X168450000Y-93149943D02*
X168492507Y-93192450D01*
X156850000Y-102800000D02*
X158550000Y-104500000D01*
X162270016Y-103270016D02*
X162270016Y-103870016D01*
X161650000Y-81750000D02*
X161650000Y-89050000D01*
X168990393Y-93192450D02*
X169282843Y-92900000D01*
X158550000Y-104500000D02*
X159650000Y-104500000D01*
X158874000Y-97800000D02*
X159073000Y-97999000D01*
X160300000Y-97999000D02*
X160349000Y-97999000D01*
X160600000Y-101600000D02*
X162270016Y-103270016D01*
X158450000Y-104400000D02*
X158550000Y-104500000D01*
X161650000Y-81750000D02*
X161980000Y-81420000D01*
X169800000Y-98550000D02*
X165000000Y-98550000D01*
X164715968Y-103556000D02*
X162584032Y-103556000D01*
X158550000Y-104500000D02*
X157850000Y-104500000D01*
X172950000Y-104225000D02*
X172553032Y-104225000D01*
X156950000Y-81750000D02*
X161650000Y-81750000D01*
X160900000Y-105240032D02*
X162270016Y-103870016D01*
X165000000Y-98550000D02*
X165000000Y-103271968D01*
X159650000Y-104500000D02*
X159900000Y-104250000D01*
X171500000Y-106100000D02*
X171349000Y-105949000D01*
X159900000Y-104250000D02*
X160000000Y-104150000D01*
X168492507Y-93192450D02*
X168990393Y-93192450D01*
X172165000Y-106765000D02*
X171500000Y-106100000D01*
X166000000Y-93400000D02*
X166600000Y-93400000D01*
X165000000Y-103271968D02*
X164715968Y-103556000D01*
%TO.N,SDA*%
X153197215Y-127000000D02*
X153747215Y-126450000D01*
X164674999Y-104225000D02*
X163650000Y-104225000D01*
X160900000Y-118100000D02*
X162100000Y-118100000D01*
X166450000Y-100850000D02*
X165401000Y-101899000D01*
X148350057Y-104400000D02*
X148550057Y-104600000D01*
X162100000Y-118100000D02*
X162200000Y-118000000D01*
X153799000Y-105648943D02*
X154675029Y-106524971D01*
X153799000Y-100399000D02*
X153799000Y-105648943D01*
X153747215Y-126450000D02*
X163100000Y-126450000D01*
X154600000Y-98000000D02*
X153000000Y-99600000D01*
X162200000Y-105278032D02*
X163253032Y-104225000D01*
X155200000Y-108600000D02*
X155200000Y-107049942D01*
X165401000Y-103498999D02*
X164674999Y-104225000D01*
X155200000Y-98000000D02*
X154600000Y-98000000D01*
X147400000Y-104400000D02*
X148350057Y-104400000D01*
X143400000Y-124750000D02*
X145650000Y-127000000D01*
X167150000Y-127800000D02*
X168200000Y-127800000D01*
X163100000Y-126450000D02*
X164450000Y-127800000D01*
X163253032Y-104225000D02*
X163650000Y-104225000D01*
X164450000Y-127800000D02*
X167150000Y-127800000D01*
X155200000Y-107049942D02*
X154675029Y-106524971D01*
X145650000Y-127000000D02*
X153197215Y-127000000D01*
X153000000Y-99600000D02*
X153799000Y-100399000D01*
X165401000Y-101899000D02*
X165401000Y-103498999D01*
X162200000Y-118000000D02*
X162200000Y-105278032D01*
X148550057Y-104600000D02*
X149200000Y-104600000D01*
%TO.N,SCL*%
X155949000Y-96419849D02*
X155949000Y-80751000D01*
X147900000Y-105400000D02*
X149000000Y-105400000D01*
X155200000Y-100800000D02*
X155200000Y-102600000D01*
X164200000Y-101800000D02*
X164200000Y-102405000D01*
X157200000Y-98800000D02*
X155375000Y-100625000D01*
X164200000Y-102405000D02*
X163650000Y-102955000D01*
X163698943Y-98299000D02*
X163201057Y-98299000D01*
X163000029Y-99382871D02*
X161784900Y-100598000D01*
X164200000Y-101800000D02*
X164200000Y-98800057D01*
X155200000Y-102600000D02*
X154200000Y-103600000D01*
X156900000Y-97800000D02*
X157200000Y-98100000D01*
X155402000Y-100598000D02*
X155375000Y-100625000D01*
X162849000Y-99148943D02*
X163000029Y-99299972D01*
X167150000Y-126530000D02*
X168330000Y-126530000D01*
X154200000Y-103600000D02*
X154200000Y-105200000D01*
X157200000Y-98100000D02*
X157200000Y-98800000D01*
X156900000Y-97800000D02*
X156900000Y-97370849D01*
X161784900Y-100598000D02*
X155402000Y-100598000D01*
X163000029Y-99299972D02*
X163000029Y-99382871D01*
X156900000Y-97370849D02*
X155949000Y-96419849D01*
X156900000Y-79700000D02*
X156950000Y-79750000D01*
X164200000Y-98800057D02*
X163698943Y-98299000D01*
X147400000Y-104900000D02*
X147900000Y-105400000D01*
X155375000Y-100625000D02*
X155200000Y-100800000D01*
X154200000Y-105200000D02*
X154800000Y-105800000D01*
X155949000Y-80751000D02*
X156950000Y-79750000D01*
X163201057Y-98299000D02*
X162849000Y-98651057D01*
X162849000Y-98651057D02*
X162849000Y-99148943D01*
X156900000Y-77400000D02*
X156900000Y-79700000D01*
%TO.N,VI*%
X160750000Y-121728000D02*
X160750000Y-122555000D01*
X171176000Y-96600720D02*
X171176000Y-96574000D01*
X163999000Y-113801000D02*
X163999000Y-118479000D01*
X172133200Y-99749000D02*
X170851000Y-98466800D01*
X173450000Y-92575000D02*
X173462500Y-92587500D01*
X165200000Y-104750000D02*
X165200000Y-111550057D01*
X165401000Y-112248943D02*
X165200000Y-112449943D01*
X156570000Y-124200000D02*
X157800000Y-124200000D01*
X174250000Y-99750000D02*
X172199943Y-99750000D01*
X172198943Y-99749000D02*
X172133200Y-99749000D01*
X165150000Y-104700000D02*
X165200000Y-104750000D01*
X165200000Y-112449943D02*
X165200000Y-112600000D01*
X163999000Y-118479000D02*
X160750000Y-121728000D01*
X171176000Y-96574000D02*
X171450000Y-96300000D01*
X174250000Y-93375000D02*
X174250000Y-99750000D01*
X170851000Y-98466800D02*
X170851000Y-96925720D01*
X173462500Y-92587500D02*
X174250000Y-93375000D01*
X170851000Y-96925720D02*
X171176000Y-96600720D01*
X165200000Y-112600000D02*
X163999000Y-113801000D01*
X172700000Y-86300000D02*
X171600000Y-85200000D01*
X171600000Y-85200000D02*
X171600000Y-84600000D01*
X165401000Y-111751057D02*
X165401000Y-112248943D01*
X155850000Y-122555000D02*
X155850000Y-123480000D01*
X165200000Y-111550057D02*
X165401000Y-111751057D01*
X155850000Y-123480000D02*
X156570000Y-124200000D01*
X171600000Y-84600000D02*
X171800000Y-84600000D01*
X172700000Y-86475000D02*
X172700000Y-86300000D01*
X172199943Y-99750000D02*
X172198943Y-99749000D01*
X171800000Y-84600000D02*
X172295000Y-84105000D01*
X172295000Y-84105000D02*
X173275000Y-84105000D01*
%TO.N,AIN1*%
X167001000Y-92601000D02*
X168731900Y-92601000D01*
X171150000Y-92450000D02*
X172450000Y-93750000D01*
X168731900Y-92601000D02*
X168741450Y-92591450D01*
X164782900Y-92750000D02*
X156700000Y-92750000D01*
X144550000Y-101450000D02*
X144650000Y-101350000D01*
X165691302Y-93914496D02*
X165691302Y-93658402D01*
X165691302Y-93658402D02*
X164782900Y-92750000D01*
X143100000Y-102900000D02*
X144550000Y-101450000D01*
X171150000Y-91950000D02*
X171150000Y-92450000D01*
X166575000Y-92175000D02*
X167001000Y-92601000D01*
X172450000Y-93750000D02*
X172450000Y-95300000D01*
%TO.N,TXD*%
X163099000Y-125601000D02*
X167400000Y-121300000D01*
X144451000Y-116951000D02*
X144451000Y-120351000D01*
X142299000Y-121349000D02*
X142299000Y-123451000D01*
X144501000Y-123451000D02*
X144501000Y-122351000D01*
X144501000Y-122351000D02*
X145801000Y-121051000D01*
X143297000Y-120351000D02*
X142299000Y-121349000D01*
X144451000Y-120351000D02*
X143297000Y-120351000D01*
X143400000Y-116600000D02*
X144100000Y-116600000D01*
X145801000Y-121051000D02*
X148901000Y-121051000D01*
X148901000Y-121051000D02*
X153451000Y-125601000D01*
X142299000Y-123451000D02*
X144501000Y-123451000D01*
X153451000Y-125601000D02*
X163099000Y-125601000D01*
X144100000Y-116600000D02*
X144451000Y-116951000D01*
%TO.N,Net-(U1-~{INT}{slash}SQW)*%
X173346968Y-105495000D02*
X174299000Y-106447032D01*
X172950000Y-105495000D02*
X173346968Y-105495000D01*
X174299000Y-106447032D02*
X174299000Y-116951000D01*
X174299000Y-116951000D02*
X173725000Y-117525000D01*
X173725000Y-117525000D02*
X173650000Y-117600000D01*
%TO.N,AIN3*%
X147801000Y-98299000D02*
X147801000Y-102474000D01*
X148177000Y-103400000D02*
X147400000Y-103400000D01*
X147801000Y-102474000D02*
X148251000Y-102474000D01*
X171023528Y-90825000D02*
X170875000Y-90825000D01*
X163100000Y-89650000D02*
X163050000Y-89600000D01*
X148251000Y-103326000D02*
X148177000Y-103400000D01*
X156650000Y-95350000D02*
X156600000Y-95350000D01*
X163050000Y-89600000D02*
X163000000Y-89550000D01*
X170875000Y-90825000D02*
X170549000Y-91151000D01*
X149500000Y-96600000D02*
X147801000Y-98299000D01*
X153450000Y-96600000D02*
X149500000Y-96600000D01*
X167850000Y-89650000D02*
X163100000Y-89650000D01*
X171150000Y-90698528D02*
X171023528Y-90825000D01*
X171450000Y-93317100D02*
X171450000Y-95300000D01*
X157950000Y-95150000D02*
X157750000Y-95350000D01*
X148251000Y-102474000D02*
X148251000Y-103326000D01*
X157750000Y-95350000D02*
X156650000Y-95350000D01*
X170549000Y-91151000D02*
X170549000Y-92416100D01*
X170549000Y-92416100D02*
X171450000Y-93317100D01*
%TO.N,Net-(P1-CC)*%
X159200000Y-115800000D02*
X158150000Y-114750000D01*
X151250000Y-99850000D02*
X151700000Y-99400000D01*
X151250000Y-107700000D02*
X151250000Y-99850000D01*
X151650000Y-108100000D02*
X151250000Y-107700000D01*
X159550000Y-122555000D02*
X159550000Y-120950000D01*
X158150000Y-114750000D02*
X158150000Y-112800000D01*
%TO.N,Net-(P1-D+)*%
X155022000Y-118050000D02*
X151000000Y-118050000D01*
X150800000Y-118250000D02*
X148550000Y-118250000D01*
X147700000Y-119100000D02*
X145850000Y-119100000D01*
X158550000Y-122555000D02*
X158550000Y-121578000D01*
X148550000Y-118250000D02*
X147700000Y-119100000D01*
X158550000Y-121578000D02*
X155022000Y-118050000D01*
X151000000Y-118050000D02*
X150800000Y-118250000D01*
%TO.N,Net-(P1-D-)*%
X158099000Y-122506000D02*
X158050000Y-122555000D01*
X154849000Y-118451000D02*
X158099000Y-121701000D01*
X149950000Y-119100000D02*
X150350000Y-118700000D01*
X151166100Y-118451000D02*
X154849000Y-118451000D01*
X150966100Y-118651000D02*
X151166100Y-118451000D01*
X150682900Y-118700000D02*
X150731900Y-118651000D01*
X150731900Y-118651000D02*
X150966100Y-118651000D01*
X158099000Y-121701000D02*
X158099000Y-122506000D01*
X150350000Y-118700000D02*
X150682900Y-118700000D01*
%TO.N,RXD*%
X146999000Y-123699000D02*
X145800000Y-122500000D01*
X167800000Y-122150000D02*
X167117100Y-122150000D01*
X163265100Y-126002000D02*
X151304000Y-126002000D01*
X167117100Y-122150000D02*
X163265100Y-126002000D01*
X151304000Y-126002000D02*
X149001000Y-123699000D01*
X149001000Y-123699000D02*
X146999000Y-123699000D01*
%TO.N,IO0*%
X156264840Y-100999000D02*
X155902340Y-101361500D01*
X155801000Y-107083842D02*
X155801000Y-108848943D01*
X169700000Y-93550000D02*
X169800000Y-93450000D01*
X163450000Y-99500000D02*
X161951000Y-100999000D01*
X155448943Y-109201000D02*
X151650943Y-109201000D01*
X170450000Y-94650000D02*
X169650000Y-93850000D01*
X155801000Y-108848943D02*
X155448943Y-109201000D01*
X155902340Y-103474000D02*
X155550000Y-103826340D01*
X155902340Y-101361500D02*
X155902340Y-103474000D01*
X150049943Y-107600000D02*
X143400000Y-107600000D01*
X163450000Y-98900000D02*
X163450000Y-99500000D01*
X169650000Y-93600000D02*
X169700000Y-93550000D01*
X170450000Y-95300000D02*
X170450000Y-94650000D01*
X161951000Y-100999000D02*
X156264840Y-100999000D01*
X151650943Y-109201000D02*
X150049943Y-107600000D01*
X155550000Y-103826340D02*
X155550000Y-106832842D01*
X169650000Y-93850000D02*
X169650000Y-93600000D01*
X155550000Y-106832842D02*
X155801000Y-107083842D01*
%TO.N,Net-(U3-PROG)*%
X166200000Y-88399000D02*
X166850000Y-89049000D01*
X166200000Y-87850000D02*
X166200000Y-88399000D01*
X166850000Y-89049000D02*
X169101000Y-89049000D01*
X169900000Y-88250000D02*
X169900000Y-87050000D01*
X169101000Y-89049000D02*
X169900000Y-88250000D01*
X165500000Y-87150000D02*
X166200000Y-87850000D01*
%TO.N,Net-(U4-EN)*%
X145249000Y-118851057D02*
X145601057Y-118499000D01*
X159023127Y-108875334D02*
X159375184Y-109227391D01*
X159600000Y-109227391D02*
X159600000Y-110100000D01*
X145601057Y-118499000D02*
X146149000Y-118499000D01*
X145249000Y-120551000D02*
X145249000Y-118851057D01*
X159202000Y-108198575D02*
X159023127Y-108377448D01*
X143400000Y-122400000D02*
X145249000Y-120551000D01*
X160550000Y-104455832D02*
X159202000Y-105803832D01*
X159375184Y-109227391D02*
X159600000Y-109227391D01*
X159600000Y-110100000D02*
X158975000Y-110725000D01*
X160550000Y-103700000D02*
X160550000Y-104455832D01*
X159023127Y-108377448D02*
X159023127Y-108875334D01*
X154149000Y-115551000D02*
X158975000Y-110725000D01*
X158975000Y-110725000D02*
X160600000Y-109100000D01*
X159202000Y-105803832D02*
X159202000Y-108198575D01*
X160600000Y-109100000D02*
X160900000Y-109100000D01*
X146149000Y-118499000D02*
X146200000Y-118550000D01*
X146200000Y-118550000D02*
X149199000Y-115551000D01*
X149199000Y-115551000D02*
X154149000Y-115551000D01*
X158850000Y-102000000D02*
X160550000Y-103700000D01*
%TO.N,Net-(SW4-B)*%
X166750000Y-76201000D02*
X151199000Y-76201000D01*
X166750000Y-76201000D02*
X166750000Y-76350000D01*
X151199000Y-76201000D02*
X150900000Y-76500000D01*
X166750000Y-76350000D02*
X167800000Y-77400000D01*
%TO.N,IO2*%
X171950000Y-100300000D02*
X171750000Y-100100000D01*
X171750000Y-99932900D02*
X170450000Y-98632900D01*
X171750000Y-100100000D02*
X171750000Y-99932900D01*
X158200000Y-109400000D02*
X158200000Y-109050000D01*
X170450000Y-98632900D02*
X170450000Y-96300000D01*
X171950000Y-100350000D02*
X171950000Y-100300000D01*
X155950000Y-111650000D02*
X158200000Y-109400000D01*
%TO.N,Net-(U3-~{CHRG})*%
X161100000Y-97732900D02*
X161100000Y-99850000D01*
X163585000Y-81565000D02*
X162650000Y-82500000D01*
X162650000Y-87800000D02*
X163050000Y-88200000D01*
X162650000Y-82500000D02*
X162650000Y-87800000D01*
X163450000Y-95382900D02*
X161100000Y-97732900D01*
X161100000Y-99850000D02*
X161100000Y-100000000D01*
X168325000Y-81565000D02*
X163585000Y-81565000D01*
%TO.N,Net-(U3-~{STDBY})*%
X159600000Y-108602264D02*
X159624127Y-108626391D01*
X161465642Y-103643761D02*
X161465642Y-104107290D01*
X159600000Y-108400000D02*
X159600000Y-108602264D01*
X159603000Y-108397000D02*
X159600000Y-108400000D01*
X161465642Y-104107290D02*
X159603000Y-105969932D01*
X164365000Y-82835000D02*
X163800000Y-83400000D01*
X159603000Y-105969932D02*
X159603000Y-108397000D01*
X168325000Y-82835000D02*
X164365000Y-82835000D01*
%TO.N,AIN2*%
X165100000Y-94050000D02*
X165100000Y-94402000D01*
X155200000Y-94050000D02*
X155350000Y-94050000D01*
X151450000Y-94050000D02*
X155200000Y-94050000D01*
X171500000Y-98200000D02*
X172450000Y-97250000D01*
X147400000Y-98100000D02*
X151450000Y-94050000D01*
X156700000Y-94050000D02*
X165100000Y-94050000D01*
X168348000Y-97650000D02*
X169700000Y-97650000D01*
X172450000Y-97250000D02*
X172450000Y-96300000D01*
X147400000Y-102900000D02*
X147400000Y-98100000D01*
X165100000Y-94402000D02*
X168348000Y-97650000D01*
%TO.N,Net-(U5-AIN0)*%
X142058107Y-103300000D02*
X142058107Y-87691893D01*
X143600000Y-87300000D02*
X143600000Y-88400000D01*
X142058107Y-87691893D02*
X142450000Y-87300000D01*
X143600000Y-86200000D02*
X143600000Y-87300000D01*
X142450000Y-87300000D02*
X143600000Y-87300000D01*
X142158107Y-103400000D02*
X142058107Y-103300000D01*
X143100000Y-103400000D02*
X142158107Y-103400000D01*
%TD*%
%TA.AperFunction,Conductor*%
%TO.N,unconnected-(U3-EPAD-Pad9)*%
G36*
X163930833Y-76821185D02*
G01*
X163976588Y-76873989D01*
X163986532Y-76943147D01*
X163981725Y-76963818D01*
X163942753Y-77083760D01*
X163938458Y-77110880D01*
X163909500Y-77293713D01*
X163909500Y-77506287D01*
X163942754Y-77716243D01*
X163994198Y-77874572D01*
X164008444Y-77918414D01*
X164104951Y-78107820D01*
X164229890Y-78279786D01*
X164380213Y-78430109D01*
X164552179Y-78555048D01*
X164552181Y-78555049D01*
X164552184Y-78555051D01*
X164741588Y-78651557D01*
X164943757Y-78717246D01*
X165153713Y-78750500D01*
X165153714Y-78750500D01*
X165366286Y-78750500D01*
X165366287Y-78750500D01*
X165576243Y-78717246D01*
X165778412Y-78651557D01*
X165967816Y-78555051D01*
X166054138Y-78492335D01*
X166139786Y-78430109D01*
X166139788Y-78430106D01*
X166139792Y-78430104D01*
X166290104Y-78279792D01*
X166290106Y-78279788D01*
X166290109Y-78279786D01*
X166415048Y-78107820D01*
X166415047Y-78107820D01*
X166415051Y-78107816D01*
X166419514Y-78099054D01*
X166467488Y-78048259D01*
X166535308Y-78031463D01*
X166601444Y-78053999D01*
X166640486Y-78099056D01*
X166644951Y-78107820D01*
X166769890Y-78279786D01*
X166920213Y-78430109D01*
X167092179Y-78555048D01*
X167092181Y-78555049D01*
X167092184Y-78555051D01*
X167281588Y-78651557D01*
X167483757Y-78717246D01*
X167693713Y-78750500D01*
X167693714Y-78750500D01*
X167906286Y-78750500D01*
X167906287Y-78750500D01*
X168116243Y-78717246D01*
X168318412Y-78651557D01*
X168507816Y-78555051D01*
X168679792Y-78430104D01*
X168793329Y-78316566D01*
X168854648Y-78283084D01*
X168924340Y-78288068D01*
X168980274Y-78329939D01*
X168997189Y-78360917D01*
X169046202Y-78492328D01*
X169046206Y-78492335D01*
X169132452Y-78607544D01*
X169132455Y-78607547D01*
X169247664Y-78693793D01*
X169247671Y-78693797D01*
X169382517Y-78744091D01*
X169382516Y-78744091D01*
X169389444Y-78744835D01*
X169442127Y-78750500D01*
X170442802Y-78750499D01*
X170509841Y-78770183D01*
X170530483Y-78786818D01*
X171763181Y-80019516D01*
X171796666Y-80080839D01*
X171799500Y-80107197D01*
X171799500Y-80510701D01*
X171802401Y-80547567D01*
X171802402Y-80547573D01*
X171848254Y-80705393D01*
X171848255Y-80705396D01*
X171931917Y-80846862D01*
X171936702Y-80853031D01*
X171934256Y-80854927D01*
X171960857Y-80903642D01*
X171955873Y-80973334D01*
X171935069Y-81005703D01*
X171936702Y-81006969D01*
X171931917Y-81013137D01*
X171848255Y-81154603D01*
X171848254Y-81154606D01*
X171802402Y-81312426D01*
X171802401Y-81312432D01*
X171799500Y-81349298D01*
X171799500Y-81780701D01*
X171802401Y-81817567D01*
X171802402Y-81817573D01*
X171848254Y-81975393D01*
X171848255Y-81975396D01*
X171931917Y-82116862D01*
X171936702Y-82123031D01*
X171934256Y-82124927D01*
X171960857Y-82173642D01*
X171955873Y-82243334D01*
X171935069Y-82275703D01*
X171936702Y-82276969D01*
X171931917Y-82283137D01*
X171848255Y-82424603D01*
X171848254Y-82424606D01*
X171802402Y-82582426D01*
X171802401Y-82582432D01*
X171799500Y-82619298D01*
X171799500Y-83050701D01*
X171802401Y-83087567D01*
X171802402Y-83087573D01*
X171848254Y-83245393D01*
X171848255Y-83245396D01*
X171931917Y-83386862D01*
X171936702Y-83393031D01*
X171934256Y-83394927D01*
X171960857Y-83443642D01*
X171955873Y-83513334D01*
X171945675Y-83534369D01*
X171937925Y-83547128D01*
X171931919Y-83553135D01*
X171848256Y-83694602D01*
X171848161Y-83694927D01*
X171844042Y-83701710D01*
X171843290Y-83702395D01*
X171825740Y-83725022D01*
X171585625Y-83965139D01*
X171528506Y-83996328D01*
X171528793Y-83997397D01*
X171524387Y-83998577D01*
X171524302Y-83998624D01*
X171524049Y-83998668D01*
X171520944Y-83999500D01*
X171520943Y-83999500D01*
X171368216Y-84040423D01*
X171368209Y-84040426D01*
X171231290Y-84119475D01*
X171231282Y-84119481D01*
X171119481Y-84231282D01*
X171119479Y-84231285D01*
X171057869Y-84337999D01*
X171007302Y-84386215D01*
X170950481Y-84400000D01*
X170080066Y-84400000D01*
X170050625Y-84391355D01*
X170020639Y-84384832D01*
X170015623Y-84381077D01*
X170013027Y-84380315D01*
X169992385Y-84363681D01*
X169836819Y-84208115D01*
X169803334Y-84146792D01*
X169800500Y-84120434D01*
X169800500Y-83889313D01*
X169800499Y-83889298D01*
X169799202Y-83872819D01*
X169797598Y-83852431D01*
X169751744Y-83694602D01*
X169668081Y-83553135D01*
X169668078Y-83553132D01*
X169663298Y-83546969D01*
X169665750Y-83545066D01*
X169639155Y-83496421D01*
X169644104Y-83426726D01*
X169664940Y-83394304D01*
X169663298Y-83393031D01*
X169668075Y-83386870D01*
X169668081Y-83386865D01*
X169751744Y-83245398D01*
X169797598Y-83087569D01*
X169800500Y-83050694D01*
X169800500Y-82619306D01*
X169797598Y-82582431D01*
X169751744Y-82424602D01*
X169668081Y-82283135D01*
X169668078Y-82283132D01*
X169663298Y-82276969D01*
X169665750Y-82275066D01*
X169639155Y-82226421D01*
X169644104Y-82156726D01*
X169664940Y-82124304D01*
X169663298Y-82123031D01*
X169668075Y-82116870D01*
X169668081Y-82116865D01*
X169751744Y-81975398D01*
X169797598Y-81817569D01*
X169800500Y-81780694D01*
X169800500Y-81349306D01*
X169797598Y-81312431D01*
X169751744Y-81154602D01*
X169668081Y-81013135D01*
X169668078Y-81013132D01*
X169663298Y-81006969D01*
X169665750Y-81005066D01*
X169639155Y-80956421D01*
X169644104Y-80886726D01*
X169664940Y-80854304D01*
X169663298Y-80853031D01*
X169668075Y-80846870D01*
X169668081Y-80846865D01*
X169751744Y-80705398D01*
X169797598Y-80547569D01*
X169800500Y-80510694D01*
X169800500Y-80079306D01*
X169797598Y-80042431D01*
X169751744Y-79884602D01*
X169668081Y-79743135D01*
X169668079Y-79743133D01*
X169668076Y-79743129D01*
X169551870Y-79626923D01*
X169551862Y-79626917D01*
X169410396Y-79543255D01*
X169410393Y-79543254D01*
X169252573Y-79497402D01*
X169252567Y-79497401D01*
X169215701Y-79494500D01*
X169215694Y-79494500D01*
X167434306Y-79494500D01*
X167434298Y-79494500D01*
X167397432Y-79497401D01*
X167397426Y-79497402D01*
X167239606Y-79543254D01*
X167239603Y-79543255D01*
X167098137Y-79626917D01*
X167098129Y-79626923D01*
X166981923Y-79743129D01*
X166981917Y-79743137D01*
X166898255Y-79884603D01*
X166898254Y-79884606D01*
X166852402Y-80042426D01*
X166852401Y-80042432D01*
X166849500Y-80079298D01*
X166849500Y-80510701D01*
X166852401Y-80547567D01*
X166852402Y-80547573D01*
X166898254Y-80705393D01*
X166898257Y-80705400D01*
X166940825Y-80777380D01*
X166958008Y-80845104D01*
X166935848Y-80911366D01*
X166881381Y-80955129D01*
X166834093Y-80964500D01*
X163671670Y-80964500D01*
X163671654Y-80964499D01*
X163664058Y-80964499D01*
X163505943Y-80964499D01*
X163429579Y-80984961D01*
X163353214Y-81005423D01*
X163353209Y-81005426D01*
X163216290Y-81084475D01*
X163216282Y-81084481D01*
X163011681Y-81289083D01*
X162950358Y-81322568D01*
X162880666Y-81317584D01*
X162824733Y-81275712D01*
X162800316Y-81210248D01*
X162800000Y-81201402D01*
X162800000Y-78536726D01*
X162819685Y-78469687D01*
X162851118Y-78436405D01*
X162859792Y-78430104D01*
X163010104Y-78279792D01*
X163010106Y-78279788D01*
X163010109Y-78279786D01*
X163135048Y-78107820D01*
X163135047Y-78107820D01*
X163135051Y-78107816D01*
X163231557Y-77918412D01*
X163297246Y-77716243D01*
X163330500Y-77506287D01*
X163330500Y-77293713D01*
X163297246Y-77083757D01*
X163258274Y-76963817D01*
X163256280Y-76893977D01*
X163292360Y-76834144D01*
X163355061Y-76803316D01*
X163376206Y-76801500D01*
X163863794Y-76801500D01*
X163930833Y-76821185D01*
G37*
%TD.AperFunction*%
%TD*%
%TA.AperFunction,Conductor*%
%TO.N,GND*%
G36*
X144769163Y-126981273D02*
G01*
X144808575Y-127007811D01*
X145281284Y-127480520D01*
X145281286Y-127480521D01*
X145281290Y-127480524D01*
X145418209Y-127559573D01*
X145418216Y-127559577D01*
X145570943Y-127600501D01*
X145570945Y-127600501D01*
X145736654Y-127600501D01*
X145736670Y-127600500D01*
X153110546Y-127600500D01*
X153110562Y-127600501D01*
X153118158Y-127600501D01*
X153276269Y-127600501D01*
X153276272Y-127600501D01*
X153429000Y-127559577D01*
X153479119Y-127530639D01*
X153565931Y-127480520D01*
X153677735Y-127368716D01*
X153677736Y-127368713D01*
X153959632Y-127086816D01*
X154020954Y-127053334D01*
X154047312Y-127050500D01*
X162799903Y-127050500D01*
X162866942Y-127070185D01*
X162887584Y-127086819D01*
X163965139Y-128164374D01*
X163965149Y-128164385D01*
X163969479Y-128168715D01*
X163969480Y-128168716D01*
X164081284Y-128280520D01*
X164168095Y-128330639D01*
X164168097Y-128330641D01*
X164218213Y-128359576D01*
X164218215Y-128359577D01*
X164370942Y-128400500D01*
X164370943Y-128400500D01*
X165804192Y-128400500D01*
X165830467Y-128408215D01*
X165857507Y-128412547D01*
X165866250Y-128418722D01*
X165871231Y-128420185D01*
X165886888Y-128432102D01*
X165889440Y-128434386D01*
X165923135Y-128468081D01*
X165934787Y-128474972D01*
X165943871Y-128483102D01*
X165956120Y-128502852D01*
X165971980Y-128519839D01*
X165974189Y-128531986D01*
X165980697Y-128542479D01*
X165980324Y-128565715D01*
X165984483Y-128588581D01*
X165979774Y-128599994D01*
X165979576Y-128612340D01*
X165966699Y-128631686D01*
X165957836Y-128653170D01*
X165947703Y-128660226D01*
X165940863Y-128670504D01*
X165919571Y-128679817D01*
X165900500Y-128693099D01*
X165882516Y-128696026D01*
X165876850Y-128698505D01*
X165872030Y-128697732D01*
X165861175Y-128699500D01*
X144449353Y-128699500D01*
X144382314Y-128679815D01*
X144336559Y-128627011D01*
X144326615Y-128557853D01*
X144349035Y-128502615D01*
X144400265Y-128432102D01*
X144413345Y-128414099D01*
X144531432Y-128182340D01*
X144611810Y-127934961D01*
X144652500Y-127678055D01*
X144652500Y-127417945D01*
X144611810Y-127161039D01*
X144602963Y-127133810D01*
X144600968Y-127063969D01*
X144637048Y-127004136D01*
X144699749Y-126973308D01*
X144769163Y-126981273D01*
G37*
%TD.AperFunction*%
%TA.AperFunction,Conductor*%
G36*
X173641539Y-107585185D02*
G01*
X173687294Y-107637989D01*
X173698500Y-107689500D01*
X173698500Y-115275500D01*
X173678815Y-115342539D01*
X173626011Y-115388294D01*
X173574500Y-115399500D01*
X172952129Y-115399500D01*
X172952123Y-115399501D01*
X172892516Y-115405908D01*
X172757671Y-115456202D01*
X172757664Y-115456206D01*
X172642455Y-115542452D01*
X172642452Y-115542455D01*
X172556206Y-115657664D01*
X172556202Y-115657671D01*
X172505908Y-115792517D01*
X172499501Y-115852116D01*
X172499500Y-115852135D01*
X172499500Y-119347870D01*
X172499501Y-119347876D01*
X172505908Y-119407483D01*
X172556202Y-119542328D01*
X172556206Y-119542335D01*
X172642452Y-119657544D01*
X172642455Y-119657547D01*
X172757664Y-119743793D01*
X172757671Y-119743797D01*
X172892517Y-119794091D01*
X172892516Y-119794091D01*
X172899444Y-119794835D01*
X172952127Y-119800500D01*
X174347872Y-119800499D01*
X174407483Y-119794091D01*
X174542331Y-119743796D01*
X174657546Y-119657546D01*
X174701135Y-119599318D01*
X174757066Y-119557448D01*
X174826758Y-119552464D01*
X174888081Y-119585948D01*
X174921566Y-119647271D01*
X174924389Y-119675249D01*
X174808811Y-128525251D01*
X174806200Y-128533730D01*
X174807374Y-128542526D01*
X174796078Y-128566607D01*
X174788253Y-128592028D01*
X174780690Y-128599417D01*
X174777704Y-128605784D01*
X174750797Y-128628624D01*
X174728559Y-128642598D01*
X174703537Y-128654648D01*
X174624332Y-128682362D01*
X174597264Y-128688540D01*
X174530831Y-128696026D01*
X174506921Y-128698720D01*
X174493038Y-128699500D01*
X168703439Y-128699500D01*
X168636400Y-128679815D01*
X168590645Y-128627011D01*
X168580701Y-128557853D01*
X168609726Y-128494297D01*
X168634548Y-128472398D01*
X168663981Y-128452730D01*
X168710289Y-128421789D01*
X168821789Y-128310289D01*
X168909394Y-128179179D01*
X168969737Y-128033497D01*
X169000500Y-127878842D01*
X169000500Y-127721158D01*
X169000500Y-127721155D01*
X169000499Y-127721153D01*
X168991926Y-127678054D01*
X168969737Y-127566503D01*
X168954882Y-127530639D01*
X168909397Y-127420827D01*
X168909390Y-127420814D01*
X168830493Y-127302736D01*
X168809615Y-127236058D01*
X168828100Y-127168678D01*
X168845910Y-127146167D01*
X168951789Y-127040289D01*
X169039394Y-126909179D01*
X169099737Y-126763497D01*
X169130500Y-126608842D01*
X169130500Y-126451158D01*
X169130500Y-126451155D01*
X169130499Y-126451153D01*
X169122415Y-126410511D01*
X169099737Y-126296503D01*
X169068409Y-126220869D01*
X169039397Y-126150827D01*
X169039390Y-126150814D01*
X168951789Y-126019711D01*
X168951786Y-126019707D01*
X168840292Y-125908213D01*
X168840288Y-125908210D01*
X168709185Y-125820609D01*
X168709172Y-125820602D01*
X168563501Y-125760264D01*
X168563489Y-125760261D01*
X168408845Y-125729500D01*
X168408842Y-125729500D01*
X168251158Y-125729500D01*
X168218842Y-125735927D01*
X168171888Y-125745267D01*
X168113105Y-125742726D01*
X168077569Y-125732402D01*
X168077563Y-125732401D01*
X168040701Y-125729500D01*
X168040694Y-125729500D01*
X166259306Y-125729500D01*
X166259298Y-125729500D01*
X166222432Y-125732401D01*
X166222426Y-125732402D01*
X166064606Y-125778254D01*
X166064603Y-125778255D01*
X165923137Y-125861917D01*
X165923129Y-125861923D01*
X165806923Y-125978129D01*
X165806917Y-125978137D01*
X165723255Y-126119603D01*
X165723254Y-126119606D01*
X165677402Y-126277426D01*
X165677401Y-126277432D01*
X165674500Y-126314298D01*
X165674500Y-126745701D01*
X165677401Y-126782567D01*
X165677402Y-126782573D01*
X165723254Y-126940393D01*
X165723257Y-126940400D01*
X165765825Y-127012380D01*
X165783008Y-127080104D01*
X165760848Y-127146366D01*
X165706381Y-127190129D01*
X165659093Y-127199500D01*
X164750097Y-127199500D01*
X164683058Y-127179815D01*
X164662416Y-127163181D01*
X163895466Y-126396231D01*
X163861981Y-126334908D01*
X163866965Y-126265216D01*
X163895466Y-126220869D01*
X164751154Y-125365181D01*
X165607499Y-124508835D01*
X165668820Y-124475352D01*
X165738512Y-124480336D01*
X165794445Y-124522208D01*
X165801908Y-124533393D01*
X165806916Y-124541861D01*
X165806923Y-124541870D01*
X165923129Y-124658076D01*
X165923133Y-124658079D01*
X165923135Y-124658081D01*
X166064602Y-124741744D01*
X166106224Y-124753836D01*
X166222426Y-124787597D01*
X166222429Y-124787597D01*
X166222431Y-124787598D01*
X166259306Y-124790500D01*
X166259314Y-124790500D01*
X168040686Y-124790500D01*
X168040694Y-124790500D01*
X168077569Y-124787598D01*
X168077571Y-124787597D01*
X168077573Y-124787597D01*
X168165890Y-124761938D01*
X168235398Y-124741744D01*
X168376865Y-124658081D01*
X168493081Y-124541865D01*
X168576744Y-124400398D01*
X168617947Y-124258577D01*
X168622597Y-124242573D01*
X168622598Y-124242567D01*
X168624206Y-124222135D01*
X168625500Y-124205694D01*
X168625500Y-123774306D01*
X168625499Y-123774298D01*
X170624500Y-123774298D01*
X170624500Y-124205701D01*
X170627401Y-124242567D01*
X170627402Y-124242573D01*
X170673254Y-124400393D01*
X170673255Y-124400396D01*
X170756917Y-124541862D01*
X170756923Y-124541870D01*
X170873129Y-124658076D01*
X170873133Y-124658079D01*
X170873135Y-124658081D01*
X171014602Y-124741744D01*
X171056224Y-124753836D01*
X171172426Y-124787597D01*
X171172429Y-124787597D01*
X171172431Y-124787598D01*
X171209306Y-124790500D01*
X171209314Y-124790500D01*
X172990686Y-124790500D01*
X172990694Y-124790500D01*
X173027569Y-124787598D01*
X173027571Y-124787597D01*
X173027573Y-124787597D01*
X173115890Y-124761938D01*
X173185398Y-124741744D01*
X173326865Y-124658081D01*
X173443081Y-124541865D01*
X173526744Y-124400398D01*
X173567947Y-124258577D01*
X173572597Y-124242573D01*
X173572598Y-124242567D01*
X173574206Y-124222135D01*
X173575500Y-124205694D01*
X173575500Y-123774306D01*
X173572598Y-123737431D01*
X173556721Y-123682784D01*
X173526745Y-123579606D01*
X173526744Y-123579603D01*
X173526744Y-123579602D01*
X173443081Y-123438135D01*
X173443079Y-123438133D01*
X173443076Y-123438129D01*
X173326870Y-123321923D01*
X173326862Y-123321917D01*
X173185396Y-123238255D01*
X173185393Y-123238254D01*
X173027573Y-123192402D01*
X173027567Y-123192401D01*
X172990701Y-123189500D01*
X172990694Y-123189500D01*
X171209306Y-123189500D01*
X171209298Y-123189500D01*
X171172432Y-123192401D01*
X171172426Y-123192402D01*
X171014606Y-123238254D01*
X171014603Y-123238255D01*
X170873137Y-123321917D01*
X170873129Y-123321923D01*
X170756923Y-123438129D01*
X170756917Y-123438137D01*
X170673255Y-123579603D01*
X170673254Y-123579606D01*
X170627402Y-123737426D01*
X170627401Y-123737432D01*
X170624500Y-123774298D01*
X168625499Y-123774298D01*
X168622598Y-123737431D01*
X168606721Y-123682784D01*
X168576745Y-123579606D01*
X168576744Y-123579603D01*
X168576744Y-123579602D01*
X168563602Y-123557379D01*
X168546421Y-123489655D01*
X168568581Y-123423393D01*
X168582648Y-123406585D01*
X171858506Y-120130728D01*
X171858511Y-120130724D01*
X171868714Y-120120520D01*
X171868716Y-120120520D01*
X171980520Y-120008716D01*
X172042998Y-119900500D01*
X172059577Y-119871785D01*
X172100501Y-119719057D01*
X172100501Y-119560943D01*
X172100501Y-119553348D01*
X172100500Y-119553330D01*
X172100500Y-107689500D01*
X172120185Y-107622461D01*
X172172989Y-107576706D01*
X172224500Y-107565500D01*
X173574500Y-107565500D01*
X173641539Y-107585185D01*
G37*
%TD.AperFunction*%
%TA.AperFunction,Conductor*%
G36*
X145294391Y-123124916D02*
G01*
X145420814Y-123209390D01*
X145420827Y-123209397D01*
X145566498Y-123269735D01*
X145566503Y-123269737D01*
X145631147Y-123282595D01*
X145721849Y-123300638D01*
X145783760Y-123333023D01*
X145785339Y-123334574D01*
X146514139Y-124063374D01*
X146514149Y-124063385D01*
X146518479Y-124067715D01*
X146518480Y-124067716D01*
X146630284Y-124179520D01*
X146703490Y-124221785D01*
X146767215Y-124258577D01*
X146919943Y-124299500D01*
X148700903Y-124299500D01*
X148767942Y-124319185D01*
X148788584Y-124335819D01*
X150640584Y-126187819D01*
X150674069Y-126249142D01*
X150669085Y-126318834D01*
X150627213Y-126374767D01*
X150561749Y-126399184D01*
X150552903Y-126399500D01*
X145950098Y-126399500D01*
X145883059Y-126379815D01*
X145862417Y-126363181D01*
X144736818Y-125237582D01*
X144703333Y-125176259D01*
X144700499Y-125149901D01*
X144700499Y-124100808D01*
X144720184Y-124033769D01*
X144762498Y-123993421D01*
X144869716Y-123931520D01*
X144981520Y-123819716D01*
X145060577Y-123682784D01*
X145101500Y-123530057D01*
X145101500Y-123228018D01*
X145121185Y-123160979D01*
X145173989Y-123115224D01*
X145243147Y-123105280D01*
X145294391Y-123124916D01*
G37*
%TD.AperFunction*%
%TA.AperFunction,Conductor*%
G36*
X148667942Y-121671185D02*
G01*
X148688584Y-121687819D01*
X152190583Y-125189819D01*
X152224068Y-125251142D01*
X152219084Y-125320834D01*
X152177212Y-125376767D01*
X152111748Y-125401184D01*
X152102902Y-125401500D01*
X151604097Y-125401500D01*
X151537058Y-125381815D01*
X151516416Y-125365181D01*
X149488590Y-123337355D01*
X149488588Y-123337352D01*
X149369717Y-123218481D01*
X149369716Y-123218480D01*
X149282904Y-123168360D01*
X149282904Y-123168359D01*
X149282900Y-123168358D01*
X149232785Y-123139423D01*
X149080057Y-123098499D01*
X148921943Y-123098499D01*
X148914347Y-123098499D01*
X148914331Y-123098500D01*
X147299097Y-123098500D01*
X147232058Y-123078815D01*
X147211416Y-123062181D01*
X146634574Y-122485339D01*
X146601089Y-122424016D01*
X146600638Y-122421849D01*
X146569738Y-122266510D01*
X146569737Y-122266503D01*
X146569735Y-122266498D01*
X146509397Y-122120827D01*
X146509390Y-122120814D01*
X146421789Y-121989711D01*
X146421786Y-121989707D01*
X146310292Y-121878213D01*
X146305581Y-121874347D01*
X146306441Y-121873298D01*
X146266068Y-121824986D01*
X146257363Y-121755661D01*
X146287520Y-121692634D01*
X146346965Y-121655917D01*
X146379766Y-121651500D01*
X148600903Y-121651500D01*
X148667942Y-121671185D01*
G37*
%TD.AperFunction*%
%TA.AperFunction,Conductor*%
G36*
X149052565Y-118856435D02*
G01*
X149073603Y-118857563D01*
X149085416Y-118866082D01*
X149099390Y-118870185D01*
X149113185Y-118886105D01*
X149130275Y-118898429D01*
X149135607Y-118911982D01*
X149145145Y-118922989D01*
X149148143Y-118943842D01*
X149155857Y-118963447D01*
X149154528Y-118988248D01*
X149155089Y-118992147D01*
X149153969Y-118998690D01*
X149149500Y-119021158D01*
X149149500Y-119178846D01*
X149180261Y-119333489D01*
X149180264Y-119333501D01*
X149240602Y-119479172D01*
X149240609Y-119479185D01*
X149328210Y-119610288D01*
X149328213Y-119610292D01*
X149439707Y-119721786D01*
X149439711Y-119721789D01*
X149570814Y-119809390D01*
X149570827Y-119809397D01*
X149716498Y-119869735D01*
X149716503Y-119869737D01*
X149850692Y-119896429D01*
X149871153Y-119900499D01*
X149871156Y-119900500D01*
X149871158Y-119900500D01*
X150028844Y-119900500D01*
X150028845Y-119900499D01*
X150183497Y-119869737D01*
X150329179Y-119809394D01*
X150460289Y-119721789D01*
X150571789Y-119610289D01*
X150659394Y-119479179D01*
X150706439Y-119365599D01*
X150708663Y-119362840D01*
X150709237Y-119359338D01*
X150730429Y-119335829D01*
X150750278Y-119311199D01*
X150754343Y-119309302D01*
X150756020Y-119307443D01*
X150786169Y-119294457D01*
X150788406Y-119293414D01*
X150788428Y-119293407D01*
X150914685Y-119259577D01*
X150916535Y-119258508D01*
X150926254Y-119255861D01*
X150935965Y-119256051D01*
X150958847Y-119251501D01*
X151045154Y-119251501D01*
X151045157Y-119251501D01*
X151197885Y-119210577D01*
X151252851Y-119178842D01*
X151334816Y-119131520D01*
X151385271Y-119081064D01*
X151392981Y-119075424D01*
X151417224Y-119066683D01*
X151439840Y-119054334D01*
X151456419Y-119052551D01*
X151458709Y-119051726D01*
X151460429Y-119052120D01*
X151466198Y-119051500D01*
X154548903Y-119051500D01*
X154615942Y-119071185D01*
X154636584Y-119087819D01*
X156666584Y-121117819D01*
X156700069Y-121179142D01*
X156695085Y-121248834D01*
X156653213Y-121304767D01*
X156587749Y-121329184D01*
X156578904Y-121329500D01*
X156352130Y-121329500D01*
X156352120Y-121329501D01*
X156288248Y-121336367D01*
X156261742Y-121336367D01*
X156257483Y-121335909D01*
X156197873Y-121329500D01*
X156197864Y-121329500D01*
X155502129Y-121329500D01*
X155502123Y-121329501D01*
X155442516Y-121335908D01*
X155307671Y-121386202D01*
X155307664Y-121386206D01*
X155192455Y-121472452D01*
X155192452Y-121472455D01*
X155106206Y-121587664D01*
X155106202Y-121587671D01*
X155055908Y-121722517D01*
X155049501Y-121782116D01*
X155049500Y-121782135D01*
X155049500Y-123327870D01*
X155049501Y-123327876D01*
X155055908Y-123387481D01*
X155069550Y-123424057D01*
X155074533Y-123493749D01*
X155041049Y-123555069D01*
X154949488Y-123646631D01*
X154949485Y-123646635D01*
X154873719Y-123777863D01*
X154834500Y-123924234D01*
X154834500Y-124075765D01*
X154873719Y-124222136D01*
X154885519Y-124242573D01*
X154949485Y-124353365D01*
X155056635Y-124460515D01*
X155187865Y-124536281D01*
X155334234Y-124575500D01*
X155334236Y-124575500D01*
X155485764Y-124575500D01*
X155485766Y-124575500D01*
X155632135Y-124536281D01*
X155763365Y-124460515D01*
X155784641Y-124439239D01*
X155845964Y-124405754D01*
X155915656Y-124410738D01*
X155960003Y-124439239D01*
X156201284Y-124680520D01*
X156201286Y-124680521D01*
X156201290Y-124680524D01*
X156338209Y-124759574D01*
X156343917Y-124761938D01*
X156398321Y-124805779D01*
X156420387Y-124872073D01*
X156403108Y-124939772D01*
X156351972Y-124987383D01*
X156296466Y-125000500D01*
X153751098Y-125000500D01*
X153684059Y-124980815D01*
X153663417Y-124964181D01*
X149388590Y-120689355D01*
X149388588Y-120689352D01*
X149269717Y-120570481D01*
X149269716Y-120570480D01*
X149182904Y-120520360D01*
X149182904Y-120520359D01*
X149182900Y-120520358D01*
X149132785Y-120491423D01*
X148980057Y-120450499D01*
X148821943Y-120450499D01*
X148814347Y-120450499D01*
X148814331Y-120450500D01*
X145973500Y-120450500D01*
X145906461Y-120430815D01*
X145860706Y-120378011D01*
X145849500Y-120326500D01*
X145849500Y-120018046D01*
X145869185Y-119951007D01*
X145921989Y-119905252D01*
X145949309Y-119896429D01*
X145978848Y-119890552D01*
X146083497Y-119869737D01*
X146229179Y-119809394D01*
X146327352Y-119743797D01*
X146360875Y-119721398D01*
X146427553Y-119700520D01*
X146429766Y-119700500D01*
X147613331Y-119700500D01*
X147613347Y-119700501D01*
X147620943Y-119700501D01*
X147779054Y-119700501D01*
X147779057Y-119700501D01*
X147931785Y-119659577D01*
X147981904Y-119630639D01*
X148068716Y-119580520D01*
X148180520Y-119468716D01*
X148180520Y-119468714D01*
X148190728Y-119458507D01*
X148190729Y-119458504D01*
X148762417Y-118886819D01*
X148823740Y-118853334D01*
X148850098Y-118850500D01*
X149032351Y-118850500D01*
X149052565Y-118856435D01*
G37*
%TD.AperFunction*%
%TA.AperFunction,Conductor*%
G36*
X166637273Y-99170185D02*
G01*
X166639125Y-99171398D01*
X166770814Y-99259390D01*
X166770827Y-99259397D01*
X166870893Y-99300845D01*
X166916503Y-99319737D01*
X167071153Y-99350499D01*
X167071156Y-99350500D01*
X167071158Y-99350500D01*
X167228844Y-99350500D01*
X167228845Y-99350499D01*
X167383497Y-99319737D01*
X167529179Y-99259394D01*
X167567477Y-99233804D01*
X167660875Y-99171398D01*
X167727553Y-99150520D01*
X167729766Y-99150500D01*
X169499903Y-99150500D01*
X169566942Y-99170185D01*
X169587584Y-99186819D01*
X170712181Y-100311416D01*
X170745666Y-100372739D01*
X170748500Y-100399097D01*
X170748500Y-102941907D01*
X170748499Y-102941911D01*
X170748499Y-103100025D01*
X170748500Y-103100028D01*
X170748500Y-105862330D01*
X170748499Y-105862348D01*
X170748499Y-106028054D01*
X170748498Y-106028054D01*
X170786462Y-106169735D01*
X170789423Y-106180785D01*
X170818360Y-106230904D01*
X170868480Y-106317716D01*
X170873912Y-106323148D01*
X170881737Y-106336147D01*
X170886902Y-106355858D01*
X170896666Y-106373740D01*
X170899500Y-106400098D01*
X170899500Y-119339902D01*
X170879815Y-119406941D01*
X170863181Y-119427583D01*
X168620459Y-121670304D01*
X168559136Y-121703789D01*
X168489444Y-121698805D01*
X168433511Y-121656933D01*
X168429676Y-121651514D01*
X168421789Y-121639711D01*
X168421786Y-121639707D01*
X168310292Y-121528213D01*
X168310288Y-121528210D01*
X168255272Y-121491449D01*
X168210467Y-121437836D01*
X168202143Y-121384934D01*
X168200500Y-121384934D01*
X168200500Y-121221155D01*
X168200499Y-121221153D01*
X168179944Y-121117819D01*
X168169737Y-121066503D01*
X168164232Y-121053212D01*
X168109397Y-120920827D01*
X168109390Y-120920814D01*
X168021789Y-120789711D01*
X168021786Y-120789707D01*
X167910292Y-120678213D01*
X167910288Y-120678210D01*
X167779185Y-120590609D01*
X167779172Y-120590602D01*
X167633501Y-120530264D01*
X167633489Y-120530261D01*
X167478845Y-120499500D01*
X167478842Y-120499500D01*
X167321158Y-120499500D01*
X167321155Y-120499500D01*
X167166510Y-120530261D01*
X167166498Y-120530264D01*
X167020827Y-120590602D01*
X167020814Y-120590609D01*
X166889711Y-120678210D01*
X166889707Y-120678213D01*
X166778213Y-120789707D01*
X166778210Y-120789711D01*
X166690609Y-120920814D01*
X166690602Y-120920827D01*
X166630264Y-121066498D01*
X166630261Y-121066508D01*
X166599362Y-121221848D01*
X166566977Y-121283759D01*
X166565426Y-121285337D01*
X162886584Y-124964181D01*
X162825261Y-124997666D01*
X162798903Y-125000500D01*
X158430941Y-125000500D01*
X158363902Y-124980815D01*
X158318147Y-124928011D01*
X158308203Y-124858853D01*
X158337228Y-124795297D01*
X158343260Y-124788819D01*
X158421786Y-124710292D01*
X158421789Y-124710289D01*
X158509394Y-124579179D01*
X158569737Y-124433497D01*
X158600500Y-124278842D01*
X158600500Y-124121158D01*
X158600500Y-124121155D01*
X158600499Y-124121153D01*
X158591471Y-124075765D01*
X158569737Y-123966503D01*
X158563709Y-123951950D01*
X158560458Y-123921704D01*
X158554924Y-123891793D01*
X158556760Y-123887303D01*
X158556242Y-123882480D01*
X158569856Y-123855283D01*
X158581374Y-123827123D01*
X158585347Y-123824337D01*
X158587518Y-123820002D01*
X158613676Y-123804481D01*
X158638589Y-123787020D01*
X158644837Y-123785993D01*
X158647607Y-123784350D01*
X158673294Y-123780599D01*
X158675783Y-123780499D01*
X158747872Y-123780499D01*
X158790878Y-123775875D01*
X158795024Y-123775709D01*
X158797463Y-123776320D01*
X158813252Y-123776320D01*
X158852127Y-123780500D01*
X159247872Y-123780499D01*
X159247873Y-123780498D01*
X159247885Y-123780498D01*
X159286744Y-123776320D01*
X159313252Y-123776320D01*
X159352127Y-123780500D01*
X159747872Y-123780499D01*
X159747873Y-123780498D01*
X159747885Y-123780498D01*
X159786744Y-123776320D01*
X159813252Y-123776320D01*
X159852127Y-123780500D01*
X160247872Y-123780499D01*
X160307483Y-123774091D01*
X160307486Y-123774089D01*
X160311744Y-123773632D01*
X160330618Y-123773049D01*
X160340984Y-123773519D01*
X160342517Y-123774091D01*
X160402127Y-123780500D01*
X160494861Y-123780499D01*
X160497647Y-123780626D01*
X160528138Y-123791101D01*
X160559066Y-123800183D01*
X160560972Y-123802382D01*
X160563726Y-123803329D01*
X160583710Y-123828623D01*
X160604822Y-123852986D01*
X160605257Y-123855895D01*
X160607041Y-123858152D01*
X160609753Y-123885890D01*
X160614281Y-123916107D01*
X160614500Y-123916107D01*
X160614500Y-123917565D01*
X160614967Y-123920682D01*
X160614500Y-123924229D01*
X160614500Y-124075765D01*
X160653719Y-124222136D01*
X160665519Y-124242573D01*
X160729485Y-124353365D01*
X160836635Y-124460515D01*
X160967865Y-124536281D01*
X161114234Y-124575500D01*
X161114236Y-124575500D01*
X161265764Y-124575500D01*
X161265766Y-124575500D01*
X161412135Y-124536281D01*
X161543365Y-124460515D01*
X161650515Y-124353365D01*
X161726281Y-124222135D01*
X161765500Y-124075766D01*
X161765500Y-123924234D01*
X161726281Y-123777865D01*
X161723500Y-123773049D01*
X161671389Y-123682790D01*
X161650515Y-123646635D01*
X161558951Y-123555071D01*
X161525466Y-123493748D01*
X161530450Y-123424056D01*
X161530926Y-123422778D01*
X161544091Y-123387483D01*
X161550500Y-123327873D01*
X161550500Y-122564069D01*
X161550500Y-122476158D01*
X161550500Y-122466169D01*
X161550499Y-122466155D01*
X161550499Y-121828097D01*
X161570184Y-121761058D01*
X161586818Y-121740416D01*
X162949223Y-120378011D01*
X164357506Y-118969728D01*
X164357511Y-118969724D01*
X164367714Y-118959520D01*
X164367716Y-118959520D01*
X164479520Y-118847716D01*
X164535647Y-118750500D01*
X164558577Y-118710785D01*
X164599501Y-118558057D01*
X164599501Y-118399943D01*
X164599501Y-118392348D01*
X164599500Y-118392330D01*
X164599500Y-114101096D01*
X164619185Y-114034057D01*
X164635815Y-114013419D01*
X165558506Y-113090727D01*
X165558511Y-113090724D01*
X165568714Y-113080520D01*
X165568716Y-113080520D01*
X165680520Y-112968716D01*
X165759577Y-112831784D01*
X165784719Y-112737951D01*
X165788183Y-112730870D01*
X165788554Y-112726066D01*
X165796686Y-112713488D01*
X165805642Y-112695184D01*
X165810784Y-112688393D01*
X165881520Y-112617659D01*
X165932707Y-112529000D01*
X165960577Y-112480728D01*
X166001501Y-112328000D01*
X166001501Y-112169886D01*
X166001501Y-112162291D01*
X166001500Y-112162273D01*
X166001500Y-111840116D01*
X166001501Y-111840103D01*
X166001501Y-111672002D01*
X166001501Y-111672000D01*
X165960577Y-111519272D01*
X165920294Y-111449500D01*
X165881520Y-111382341D01*
X165830591Y-111331412D01*
X165825309Y-111324371D01*
X165816027Y-111299562D01*
X165803334Y-111276317D01*
X165801722Y-111261330D01*
X165800825Y-111258931D01*
X165801252Y-111256956D01*
X165800500Y-111249959D01*
X165800500Y-105204935D01*
X165820185Y-105137896D01*
X165821366Y-105136090D01*
X165859394Y-105079179D01*
X165862007Y-105072872D01*
X165882043Y-105024500D01*
X165919737Y-104933497D01*
X165950500Y-104778842D01*
X165950500Y-104621158D01*
X165950500Y-104621155D01*
X165950499Y-104621153D01*
X165940894Y-104572864D01*
X165919737Y-104466503D01*
X165859532Y-104321153D01*
X165859397Y-104320827D01*
X165859390Y-104320814D01*
X165771789Y-104189711D01*
X165771786Y-104189707D01*
X165753337Y-104171258D01*
X165748998Y-104163312D01*
X165741751Y-104157887D01*
X165732516Y-104133127D01*
X165719852Y-104109935D01*
X165720497Y-104100905D01*
X165717334Y-104092423D01*
X165722950Y-104066602D01*
X165724836Y-104040243D01*
X165730654Y-104031189D01*
X165732186Y-104024150D01*
X165753337Y-103995896D01*
X165759504Y-103989729D01*
X165759509Y-103989725D01*
X165769714Y-103979519D01*
X165769716Y-103979519D01*
X165881520Y-103867715D01*
X165960577Y-103730783D01*
X166001500Y-103578056D01*
X166001500Y-102199097D01*
X166021185Y-102132058D01*
X166037819Y-102111416D01*
X166236774Y-101912461D01*
X166464662Y-101684572D01*
X166525983Y-101651089D01*
X166528150Y-101650638D01*
X166586085Y-101639113D01*
X166683497Y-101619737D01*
X166829179Y-101559394D01*
X166960289Y-101471789D01*
X167071789Y-101360289D01*
X167159394Y-101229179D01*
X167164643Y-101216508D01*
X167193670Y-101146429D01*
X167219737Y-101083497D01*
X167250500Y-100928842D01*
X167250500Y-100771158D01*
X167250500Y-100771155D01*
X167250499Y-100771153D01*
X167241219Y-100724499D01*
X167219737Y-100616503D01*
X167208759Y-100589999D01*
X167159397Y-100470827D01*
X167159390Y-100470814D01*
X167071789Y-100339711D01*
X167071786Y-100339707D01*
X166960292Y-100228213D01*
X166960288Y-100228210D01*
X166829185Y-100140609D01*
X166829172Y-100140602D01*
X166683501Y-100080264D01*
X166683489Y-100080261D01*
X166528845Y-100049500D01*
X166528842Y-100049500D01*
X166371158Y-100049500D01*
X166371155Y-100049500D01*
X166216510Y-100080261D01*
X166216498Y-100080264D01*
X166070827Y-100140602D01*
X166070814Y-100140609D01*
X165939711Y-100228210D01*
X165939707Y-100228213D01*
X165828213Y-100339707D01*
X165828206Y-100339716D01*
X165827597Y-100340628D01*
X165827155Y-100340997D01*
X165824347Y-100344419D01*
X165823697Y-100343886D01*
X165773982Y-100385429D01*
X165704656Y-100394132D01*
X165641631Y-100363973D01*
X165604916Y-100304527D01*
X165600500Y-100271730D01*
X165600500Y-99274500D01*
X165620185Y-99207461D01*
X165672989Y-99161706D01*
X165724500Y-99150500D01*
X166570234Y-99150500D01*
X166637273Y-99170185D01*
G37*
%TD.AperFunction*%
%TA.AperFunction,Conductor*%
G36*
X164542539Y-106315185D02*
G01*
X164588294Y-106367989D01*
X164599500Y-106419500D01*
X164599500Y-111463387D01*
X164599499Y-111463405D01*
X164599499Y-111629111D01*
X164599498Y-111629111D01*
X164599499Y-111629114D01*
X164640423Y-111781842D01*
X164668293Y-111830114D01*
X164719480Y-111918773D01*
X164724268Y-111923561D01*
X164731894Y-111936296D01*
X164738949Y-111963480D01*
X164749079Y-111989682D01*
X164747609Y-111996846D01*
X164749447Y-112003925D01*
X164740684Y-112030611D01*
X164735041Y-112058127D01*
X164728106Y-112068918D01*
X164727650Y-112070308D01*
X164726735Y-112071050D01*
X164723885Y-112075487D01*
X164719476Y-112081231D01*
X164697227Y-112119771D01*
X164697226Y-112119773D01*
X164681916Y-112146290D01*
X164640422Y-112218158D01*
X164640422Y-112218159D01*
X164615278Y-112311993D01*
X164583185Y-112367578D01*
X163630286Y-113320478D01*
X163518481Y-113432282D01*
X163518479Y-113432285D01*
X163473962Y-113509393D01*
X163473960Y-113509395D01*
X163439425Y-113569209D01*
X163439424Y-113569210D01*
X163439423Y-113569215D01*
X163398499Y-113721943D01*
X163398499Y-113721945D01*
X163398499Y-113890046D01*
X163398500Y-113890059D01*
X163398500Y-118178902D01*
X163378815Y-118245941D01*
X163362181Y-118266583D01*
X160562181Y-121066583D01*
X160500858Y-121100068D01*
X160431166Y-121095084D01*
X160375233Y-121053212D01*
X160350816Y-120987748D01*
X160350500Y-120978902D01*
X160350500Y-120871155D01*
X160350499Y-120871153D01*
X160330566Y-120770945D01*
X160319737Y-120716503D01*
X160316111Y-120707748D01*
X160259397Y-120570827D01*
X160259390Y-120570814D01*
X160171789Y-120439711D01*
X160171786Y-120439707D01*
X160060292Y-120328213D01*
X160060288Y-120328210D01*
X159929185Y-120240609D01*
X159929172Y-120240602D01*
X159783501Y-120180264D01*
X159783489Y-120180261D01*
X159628845Y-120149500D01*
X159628842Y-120149500D01*
X159471158Y-120149500D01*
X159471155Y-120149500D01*
X159316510Y-120180261D01*
X159316498Y-120180264D01*
X159170827Y-120240602D01*
X159170814Y-120240609D01*
X159039711Y-120328210D01*
X159039707Y-120328213D01*
X158928213Y-120439707D01*
X158928210Y-120439711D01*
X158840609Y-120570814D01*
X158840602Y-120570827D01*
X158780247Y-120716541D01*
X158736406Y-120770945D01*
X158670112Y-120793010D01*
X158602413Y-120775731D01*
X158578005Y-120756770D01*
X155509590Y-117688355D01*
X155509588Y-117688352D01*
X155390717Y-117569481D01*
X155390716Y-117569480D01*
X155288692Y-117510577D01*
X155288691Y-117510576D01*
X155253783Y-117490422D01*
X155197881Y-117475443D01*
X155101057Y-117449499D01*
X154942943Y-117449499D01*
X154935347Y-117449499D01*
X154935331Y-117449500D01*
X151086670Y-117449500D01*
X151086654Y-117449499D01*
X151079058Y-117449499D01*
X150920943Y-117449499D01*
X150844579Y-117469961D01*
X150768214Y-117490423D01*
X150768209Y-117490426D01*
X150631290Y-117569475D01*
X150631282Y-117569481D01*
X150587583Y-117613181D01*
X150526260Y-117646666D01*
X150499902Y-117649500D01*
X148636670Y-117649500D01*
X148636654Y-117649499D01*
X148629058Y-117649499D01*
X148470943Y-117649499D01*
X148394579Y-117669961D01*
X148318214Y-117690423D01*
X148318209Y-117690426D01*
X148181290Y-117769475D01*
X148181282Y-117769481D01*
X147487584Y-118463181D01*
X147460656Y-118477884D01*
X147434838Y-118494477D01*
X147428637Y-118495368D01*
X147426261Y-118496666D01*
X147399903Y-118499500D01*
X147399097Y-118499500D01*
X147332058Y-118479815D01*
X147286303Y-118427011D01*
X147276359Y-118357853D01*
X147305384Y-118294297D01*
X147311416Y-118287819D01*
X149411416Y-116187819D01*
X149472739Y-116154334D01*
X149499097Y-116151500D01*
X154062331Y-116151500D01*
X154062347Y-116151501D01*
X154069943Y-116151501D01*
X154228054Y-116151501D01*
X154228057Y-116151501D01*
X154380785Y-116110577D01*
X154430904Y-116081639D01*
X154517716Y-116031520D01*
X154629520Y-115919716D01*
X154629520Y-115919714D01*
X154639728Y-115909507D01*
X154639730Y-115909504D01*
X157305509Y-113243724D01*
X157323995Y-113233630D01*
X157339671Y-113219550D01*
X157354048Y-113217220D01*
X157366830Y-113210241D01*
X157387844Y-113211743D01*
X157408641Y-113208374D01*
X157421993Y-113214186D01*
X157436522Y-113215225D01*
X157453387Y-113227850D01*
X157472705Y-113236259D01*
X157489302Y-113254737D01*
X157492455Y-113257097D01*
X157496290Y-113262516D01*
X157528602Y-113310874D01*
X157549480Y-113377551D01*
X157549500Y-113379765D01*
X157549500Y-114663330D01*
X157549499Y-114663348D01*
X157549499Y-114829054D01*
X157549498Y-114829054D01*
X157581281Y-114947666D01*
X157590423Y-114981785D01*
X157599764Y-114997963D01*
X157600651Y-114999500D01*
X157669477Y-115118712D01*
X157669481Y-115118717D01*
X157788349Y-115237585D01*
X157788355Y-115237590D01*
X158365425Y-115814660D01*
X158398910Y-115875983D01*
X158399361Y-115878149D01*
X158430261Y-116033491D01*
X158430264Y-116033501D01*
X158490602Y-116179172D01*
X158490609Y-116179185D01*
X158578210Y-116310288D01*
X158578213Y-116310292D01*
X158689707Y-116421786D01*
X158689711Y-116421789D01*
X158820814Y-116509390D01*
X158820827Y-116509397D01*
X158966498Y-116569735D01*
X158966503Y-116569737D01*
X159121153Y-116600499D01*
X159121156Y-116600500D01*
X159121158Y-116600500D01*
X159278844Y-116600500D01*
X159278845Y-116600499D01*
X159433497Y-116569737D01*
X159478050Y-116551282D01*
X159547515Y-116543814D01*
X159609995Y-116575088D01*
X159645648Y-116635177D01*
X159649500Y-116665844D01*
X159649500Y-117097870D01*
X159649501Y-117097876D01*
X159655908Y-117157483D01*
X159709303Y-117300641D01*
X159707575Y-117301285D01*
X159720095Y-117358853D01*
X159708310Y-117398988D01*
X159709303Y-117399359D01*
X159655908Y-117542517D01*
X159649501Y-117602116D01*
X159649500Y-117602135D01*
X159649500Y-118597870D01*
X159649501Y-118597876D01*
X159655908Y-118657483D01*
X159706202Y-118792328D01*
X159706206Y-118792335D01*
X159792452Y-118907544D01*
X159792455Y-118907547D01*
X159907664Y-118993793D01*
X159907671Y-118993797D01*
X160042517Y-119044091D01*
X160042516Y-119044091D01*
X160049444Y-119044835D01*
X160102127Y-119050500D01*
X161697872Y-119050499D01*
X161757483Y-119044091D01*
X161892331Y-118993796D01*
X162007546Y-118907546D01*
X162093796Y-118792331D01*
X162100041Y-118775586D01*
X162100556Y-118774898D01*
X162100629Y-118774041D01*
X162121435Y-118747003D01*
X162141908Y-118719652D01*
X162142889Y-118719124D01*
X162143240Y-118718669D01*
X162147698Y-118716539D01*
X162174439Y-118702167D01*
X162179203Y-118700461D01*
X162331785Y-118659577D01*
X162384647Y-118629057D01*
X162468716Y-118580520D01*
X162580520Y-118468716D01*
X162680520Y-118368716D01*
X162759577Y-118231784D01*
X162799021Y-118084577D01*
X162799023Y-118084577D01*
X162799023Y-118084566D01*
X162800500Y-118079058D01*
X162800500Y-117920943D01*
X162800500Y-109179765D01*
X162820185Y-109112726D01*
X162821398Y-109110874D01*
X162909390Y-108979185D01*
X162909390Y-108979184D01*
X162909394Y-108979179D01*
X162912719Y-108971153D01*
X162969735Y-108833501D01*
X162969737Y-108833497D01*
X163000500Y-108678842D01*
X163000500Y-108521158D01*
X163000500Y-108521155D01*
X163000499Y-108521153D01*
X162982012Y-108428213D01*
X162969737Y-108366503D01*
X162959241Y-108341163D01*
X162909397Y-108220827D01*
X162909390Y-108220814D01*
X162821398Y-108089125D01*
X162800520Y-108022447D01*
X162800500Y-108020234D01*
X162800500Y-106419500D01*
X162820185Y-106352461D01*
X162872989Y-106306706D01*
X162924500Y-106295500D01*
X164475500Y-106295500D01*
X164542539Y-106315185D01*
G37*
%TD.AperFunction*%
%TA.AperFunction,Conductor*%
G36*
X156638378Y-103477028D02*
G01*
X156668878Y-103480675D01*
X156673439Y-103483762D01*
X156676816Y-103484411D01*
X156682756Y-103490068D01*
X156707747Y-103506982D01*
X157011165Y-103810400D01*
X157044650Y-103871723D01*
X157039666Y-103941415D01*
X157026586Y-103966972D01*
X156990609Y-104020814D01*
X156990602Y-104020827D01*
X156930264Y-104166498D01*
X156930261Y-104166510D01*
X156899500Y-104321153D01*
X156899500Y-104478846D01*
X156930261Y-104633489D01*
X156930264Y-104633501D01*
X156990602Y-104779172D01*
X156990609Y-104779185D01*
X157078210Y-104910288D01*
X157078213Y-104910292D01*
X157189707Y-105021786D01*
X157189711Y-105021789D01*
X157320814Y-105109390D01*
X157320827Y-105109397D01*
X157437153Y-105157580D01*
X157491557Y-105201420D01*
X157507406Y-105233134D01*
X157527686Y-105294334D01*
X157619788Y-105443656D01*
X157743844Y-105567712D01*
X157893166Y-105659814D01*
X158059703Y-105714999D01*
X158162491Y-105725500D01*
X158477499Y-105725499D01*
X158486184Y-105728049D01*
X158495143Y-105726761D01*
X158519179Y-105737737D01*
X158544538Y-105745183D01*
X158550465Y-105752023D01*
X158558700Y-105755784D01*
X158572988Y-105778016D01*
X158590293Y-105797987D01*
X158592580Y-105808501D01*
X158596475Y-105814561D01*
X158601497Y-105849490D01*
X158601499Y-105849496D01*
X158601499Y-105882889D01*
X158601499Y-105882891D01*
X158601500Y-105892885D01*
X158601500Y-107898477D01*
X158581815Y-107965516D01*
X158565181Y-107986158D01*
X158542608Y-108008730D01*
X158542606Y-108008732D01*
X158525890Y-108037686D01*
X158518824Y-108049926D01*
X158498591Y-108084968D01*
X158463549Y-108145663D01*
X158463549Y-108145664D01*
X158457846Y-108166948D01*
X158421480Y-108226607D01*
X158358633Y-108257136D01*
X158313881Y-108256469D01*
X158278846Y-108249500D01*
X158278842Y-108249500D01*
X158121158Y-108249500D01*
X158121155Y-108249500D01*
X157966510Y-108280261D01*
X157966498Y-108280264D01*
X157820827Y-108340602D01*
X157820814Y-108340609D01*
X157689711Y-108428210D01*
X157689707Y-108428213D01*
X157578213Y-108539707D01*
X157578210Y-108539711D01*
X157490609Y-108670814D01*
X157490602Y-108670827D01*
X157430264Y-108816498D01*
X157430261Y-108816510D01*
X157399500Y-108971153D01*
X157399500Y-109128846D01*
X157423471Y-109249355D01*
X157417244Y-109318946D01*
X157389535Y-109361227D01*
X155935339Y-110815425D01*
X155874016Y-110848910D01*
X155871850Y-110849361D01*
X155716508Y-110880261D01*
X155716498Y-110880264D01*
X155570827Y-110940602D01*
X155570814Y-110940609D01*
X155439711Y-111028210D01*
X155439707Y-111028213D01*
X155328213Y-111139707D01*
X155328210Y-111139711D01*
X155240609Y-111270814D01*
X155240602Y-111270827D01*
X155180264Y-111416498D01*
X155180261Y-111416510D01*
X155149500Y-111571153D01*
X155149500Y-111728846D01*
X155180261Y-111883489D01*
X155180264Y-111883501D01*
X155240602Y-112029172D01*
X155240609Y-112029185D01*
X155328210Y-112160288D01*
X155328213Y-112160292D01*
X155439707Y-112271786D01*
X155439711Y-112271789D01*
X155570814Y-112359390D01*
X155570827Y-112359397D01*
X155716498Y-112419735D01*
X155716503Y-112419737D01*
X155871153Y-112450499D01*
X155871156Y-112450500D01*
X155871158Y-112450500D01*
X156028843Y-112450500D01*
X156042136Y-112447855D01*
X156091571Y-112438022D01*
X156161161Y-112444248D01*
X156216339Y-112487111D01*
X156239584Y-112553000D01*
X156223517Y-112620997D01*
X156203443Y-112647320D01*
X153936584Y-114914181D01*
X153875261Y-114947666D01*
X153848903Y-114950500D01*
X149119940Y-114950500D01*
X149079019Y-114961464D01*
X149079019Y-114961465D01*
X149058452Y-114966976D01*
X148967214Y-114991423D01*
X148967209Y-114991426D01*
X148830290Y-115070475D01*
X148830282Y-115070481D01*
X148718478Y-115182286D01*
X146038584Y-117862181D01*
X145977261Y-117895666D01*
X145950903Y-117898500D01*
X145687727Y-117898500D01*
X145687711Y-117898499D01*
X145680115Y-117898499D01*
X145522000Y-117898499D01*
X145381793Y-117936067D01*
X145369268Y-117939424D01*
X145237500Y-118015501D01*
X145169600Y-118031974D01*
X145103573Y-118009121D01*
X145060382Y-117954200D01*
X145051500Y-117908114D01*
X145051500Y-117040059D01*
X145051501Y-117040046D01*
X145051501Y-116871945D01*
X145051501Y-116871943D01*
X145010577Y-116719215D01*
X144981639Y-116669095D01*
X144931520Y-116582284D01*
X144819716Y-116470480D01*
X144819715Y-116470479D01*
X144815385Y-116466149D01*
X144815374Y-116466139D01*
X144686818Y-116337583D01*
X144653333Y-116276260D01*
X144650499Y-116249902D01*
X144650499Y-116102129D01*
X144650498Y-116102123D01*
X144648296Y-116081642D01*
X144644091Y-116042517D01*
X144593796Y-115907669D01*
X144593794Y-115907666D01*
X144590696Y-115899360D01*
X144592426Y-115898714D01*
X144579902Y-115841163D01*
X144591691Y-115801011D01*
X144590696Y-115800640D01*
X144593794Y-115792333D01*
X144593796Y-115792331D01*
X144644091Y-115657483D01*
X144650500Y-115597873D01*
X144650499Y-114602128D01*
X144644091Y-114542517D01*
X144593796Y-114407669D01*
X144593794Y-114407666D01*
X144590696Y-114399360D01*
X144592426Y-114398714D01*
X144579902Y-114341163D01*
X144591691Y-114301011D01*
X144590696Y-114300640D01*
X144593794Y-114292333D01*
X144593796Y-114292331D01*
X144644091Y-114157483D01*
X144650500Y-114097873D01*
X144650499Y-113102128D01*
X144644091Y-113042517D01*
X144593796Y-112907669D01*
X144593794Y-112907666D01*
X144590696Y-112899360D01*
X144592426Y-112898714D01*
X144579902Y-112841163D01*
X144591691Y-112801011D01*
X144590696Y-112800640D01*
X144593794Y-112792333D01*
X144593796Y-112792331D01*
X144644091Y-112657483D01*
X144650500Y-112597873D01*
X144650499Y-111602128D01*
X144644091Y-111542517D01*
X144593796Y-111407669D01*
X144593794Y-111407666D01*
X144590696Y-111399360D01*
X144592426Y-111398714D01*
X144579902Y-111341163D01*
X144591691Y-111301011D01*
X144590696Y-111300640D01*
X144593794Y-111292333D01*
X144593796Y-111292331D01*
X144644091Y-111157483D01*
X144650500Y-111097873D01*
X144650499Y-110102128D01*
X144644091Y-110042517D01*
X144593796Y-109907669D01*
X144593794Y-109907666D01*
X144590696Y-109899360D01*
X144592426Y-109898714D01*
X144579902Y-109841163D01*
X144591691Y-109801011D01*
X144590696Y-109800640D01*
X144593794Y-109792333D01*
X144593796Y-109792331D01*
X144644091Y-109657483D01*
X144650500Y-109597873D01*
X144650499Y-108602128D01*
X144644091Y-108542517D01*
X144593796Y-108407669D01*
X144593792Y-108407664D01*
X144593186Y-108406038D01*
X144592719Y-108405536D01*
X144592455Y-108404076D01*
X144590696Y-108399360D01*
X144591545Y-108399043D01*
X144586884Y-108373248D01*
X144579902Y-108341163D01*
X144580572Y-108338322D01*
X144580294Y-108336780D01*
X144582912Y-108328413D01*
X144589013Y-108302580D01*
X144592585Y-108293947D01*
X144593796Y-108292331D01*
X144598730Y-108279101D01*
X144599567Y-108277080D01*
X144620151Y-108251520D01*
X144639829Y-108225234D01*
X144641963Y-108224437D01*
X144643392Y-108222664D01*
X144674536Y-108212288D01*
X144705293Y-108200816D01*
X144709413Y-108200668D01*
X144709680Y-108200580D01*
X144709952Y-108200649D01*
X144714141Y-108200500D01*
X149749846Y-108200500D01*
X149816885Y-108220185D01*
X149837527Y-108236819D01*
X151166082Y-109565374D01*
X151166092Y-109565385D01*
X151170422Y-109569715D01*
X151170423Y-109569716D01*
X151282227Y-109681520D01*
X151351976Y-109721789D01*
X151419158Y-109760577D01*
X151571886Y-109801501D01*
X151571889Y-109801501D01*
X151737596Y-109801501D01*
X151737612Y-109801500D01*
X155362274Y-109801500D01*
X155362290Y-109801501D01*
X155369886Y-109801501D01*
X155527997Y-109801501D01*
X155528000Y-109801501D01*
X155680728Y-109760577D01*
X155747910Y-109721789D01*
X155817659Y-109681520D01*
X155929463Y-109569716D01*
X155929464Y-109569714D01*
X156281520Y-109217659D01*
X156360577Y-109080728D01*
X156401501Y-108928000D01*
X156401501Y-108769885D01*
X156401501Y-108762290D01*
X156401500Y-108762272D01*
X156401500Y-107172902D01*
X156401501Y-107172889D01*
X156401501Y-107004786D01*
X156400085Y-106999500D01*
X156360577Y-106852058D01*
X156323489Y-106787819D01*
X156281524Y-106715132D01*
X156281518Y-106715124D01*
X156186819Y-106620425D01*
X156153334Y-106559102D01*
X156150500Y-106532744D01*
X156150500Y-104126437D01*
X156159143Y-104097000D01*
X156165667Y-104067011D01*
X156169422Y-104061993D01*
X156170185Y-104059398D01*
X156186815Y-104038759D01*
X156260845Y-103964728D01*
X156260850Y-103964725D01*
X156271054Y-103954520D01*
X156271056Y-103954520D01*
X156382860Y-103842716D01*
X156439435Y-103744724D01*
X156461917Y-103705785D01*
X156501432Y-103558315D01*
X156502860Y-103554181D01*
X156520664Y-103529144D01*
X156536656Y-103502909D01*
X156540729Y-103500930D01*
X156543353Y-103497241D01*
X156571866Y-103485804D01*
X156599503Y-103472380D01*
X156603998Y-103472917D01*
X156608201Y-103471232D01*
X156638378Y-103477028D01*
G37*
%TD.AperFunction*%
%TA.AperFunction,Conductor*%
G36*
X152712178Y-100348381D02*
G01*
X152715277Y-100348603D01*
X152719317Y-100350192D01*
X152766503Y-100369737D01*
X152766509Y-100369738D01*
X152766510Y-100369739D01*
X152921849Y-100400638D01*
X152983760Y-100433023D01*
X152985339Y-100434574D01*
X153162181Y-100611416D01*
X153195666Y-100672739D01*
X153198500Y-100699097D01*
X153198500Y-105562274D01*
X153198499Y-105562292D01*
X153198499Y-105727998D01*
X153198499Y-105727999D01*
X153198500Y-105728001D01*
X153239423Y-105880728D01*
X153256490Y-105910289D01*
X153308573Y-106000500D01*
X153318481Y-106017660D01*
X153437349Y-106136528D01*
X153437355Y-106136533D01*
X154194509Y-106893686D01*
X154563181Y-107262358D01*
X154596666Y-107323681D01*
X154599500Y-107350039D01*
X154599500Y-108020234D01*
X154579815Y-108087273D01*
X154578602Y-108089125D01*
X154490609Y-108220814D01*
X154490602Y-108220827D01*
X154430264Y-108366498D01*
X154430261Y-108366510D01*
X154403571Y-108500691D01*
X154371186Y-108562602D01*
X154310471Y-108597176D01*
X154281954Y-108600500D01*
X152494720Y-108600500D01*
X152427681Y-108580815D01*
X152381926Y-108528011D01*
X152371982Y-108458853D01*
X152380159Y-108429048D01*
X152406063Y-108366510D01*
X152419737Y-108333497D01*
X152450500Y-108178842D01*
X152450500Y-108021158D01*
X152450500Y-108021155D01*
X152450499Y-108021153D01*
X152439432Y-107965516D01*
X152419737Y-107866503D01*
X152419735Y-107866498D01*
X152359397Y-107720827D01*
X152359390Y-107720814D01*
X152271789Y-107589711D01*
X152271786Y-107589707D01*
X152160292Y-107478213D01*
X152160288Y-107478210D01*
X152029185Y-107390609D01*
X152029175Y-107390604D01*
X151927047Y-107348301D01*
X151872644Y-107304460D01*
X151850579Y-107238166D01*
X151850500Y-107233740D01*
X151850500Y-100724499D01*
X151870185Y-100657460D01*
X151922989Y-100611705D01*
X151974500Y-100600499D01*
X152100002Y-100600499D01*
X152100008Y-100600499D01*
X152202797Y-100589999D01*
X152369334Y-100534814D01*
X152518656Y-100442712D01*
X152584266Y-100377101D01*
X152601809Y-100367522D01*
X152616440Y-100353901D01*
X152631844Y-100351121D01*
X152645585Y-100343619D01*
X152665527Y-100345045D01*
X152685200Y-100341496D01*
X152712178Y-100348381D01*
G37*
%TD.AperFunction*%
%TA.AperFunction,Conductor*%
G36*
X154687273Y-94670185D02*
G01*
X154689125Y-94671398D01*
X154820814Y-94759390D01*
X154820827Y-94759397D01*
X154966498Y-94819735D01*
X154966503Y-94819737D01*
X155121153Y-94850499D01*
X155121156Y-94850500D01*
X155224500Y-94850500D01*
X155291539Y-94870185D01*
X155337294Y-94922989D01*
X155348500Y-94974500D01*
X155348500Y-96333179D01*
X155348499Y-96333197D01*
X155348499Y-96498903D01*
X155348498Y-96498903D01*
X155389423Y-96651635D01*
X155405130Y-96678838D01*
X155405131Y-96678843D01*
X155405133Y-96678843D01*
X155468479Y-96788563D01*
X155468481Y-96788566D01*
X155587349Y-96907434D01*
X155587355Y-96907439D01*
X155868315Y-97188399D01*
X155901800Y-97249722D01*
X155896816Y-97319414D01*
X155854944Y-97375347D01*
X155789480Y-97399764D01*
X155721207Y-97384912D01*
X155711743Y-97379182D01*
X155579185Y-97290609D01*
X155579172Y-97290602D01*
X155433501Y-97230264D01*
X155433489Y-97230261D01*
X155278845Y-97199500D01*
X155278842Y-97199500D01*
X155121158Y-97199500D01*
X155121155Y-97199500D01*
X154966510Y-97230261D01*
X154966498Y-97230264D01*
X154820827Y-97290602D01*
X154820814Y-97290609D01*
X154689127Y-97378601D01*
X154622450Y-97399479D01*
X154620236Y-97399499D01*
X154520943Y-97399499D01*
X154444579Y-97419961D01*
X154368214Y-97440423D01*
X154368209Y-97440426D01*
X154231290Y-97519475D01*
X154231282Y-97519481D01*
X152985338Y-98765426D01*
X152968742Y-98774488D01*
X152955132Y-98787621D01*
X152925636Y-98798025D01*
X152924015Y-98798911D01*
X152921848Y-98799362D01*
X152906263Y-98802462D01*
X152836671Y-98796235D01*
X152781494Y-98753371D01*
X152764366Y-98719849D01*
X152763549Y-98717382D01*
X152734814Y-98630666D01*
X152642712Y-98481344D01*
X152518656Y-98357288D01*
X152425888Y-98300069D01*
X152369336Y-98265187D01*
X152369331Y-98265185D01*
X152319688Y-98248735D01*
X152202797Y-98210001D01*
X152202795Y-98210000D01*
X152100010Y-98199500D01*
X151299998Y-98199500D01*
X151299980Y-98199501D01*
X151197203Y-98210000D01*
X151197200Y-98210001D01*
X151030668Y-98265185D01*
X151030663Y-98265187D01*
X150881342Y-98357289D01*
X150757289Y-98481342D01*
X150665187Y-98630663D01*
X150665185Y-98630668D01*
X150638640Y-98710777D01*
X150610001Y-98797203D01*
X150610001Y-98797204D01*
X150610000Y-98797204D01*
X150599500Y-98899983D01*
X150599500Y-99900001D01*
X150599501Y-99900019D01*
X150610000Y-100002796D01*
X150643206Y-100103001D01*
X150649500Y-100142006D01*
X150649500Y-107050959D01*
X150629815Y-107117998D01*
X150577011Y-107163753D01*
X150507853Y-107173697D01*
X150456470Y-107153968D01*
X150446395Y-107147216D01*
X150418659Y-107119480D01*
X150323648Y-107064626D01*
X150320064Y-107062557D01*
X150320057Y-107062552D01*
X150281726Y-107040422D01*
X150225824Y-107025443D01*
X150129000Y-106999499D01*
X149970886Y-106999499D01*
X149963290Y-106999499D01*
X149963274Y-106999500D01*
X144749096Y-106999500D01*
X144682057Y-106979815D01*
X144636302Y-106927011D01*
X144626358Y-106857853D01*
X144655383Y-106794297D01*
X144661415Y-106787819D01*
X145100498Y-106348736D01*
X145558506Y-105890728D01*
X145558511Y-105890724D01*
X145568714Y-105880520D01*
X145568716Y-105880520D01*
X145680520Y-105768716D01*
X145759577Y-105631784D01*
X145792258Y-105509817D01*
X145800500Y-105479058D01*
X145800500Y-105320943D01*
X145800500Y-105024500D01*
X145820185Y-104957461D01*
X145872989Y-104911706D01*
X145924500Y-104900500D01*
X146078844Y-104900500D01*
X146201308Y-104876140D01*
X146270900Y-104882367D01*
X146326077Y-104925230D01*
X146349322Y-104991120D01*
X146349500Y-104997755D01*
X146349500Y-105072869D01*
X146349501Y-105072876D01*
X146355908Y-105132483D01*
X146406202Y-105267328D01*
X146406206Y-105267335D01*
X146492452Y-105382544D01*
X146492455Y-105382547D01*
X146607664Y-105468793D01*
X146607671Y-105468797D01*
X146634609Y-105478844D01*
X146742517Y-105519091D01*
X146802127Y-105525500D01*
X147124902Y-105525499D01*
X147191941Y-105545183D01*
X147212582Y-105561817D01*
X147531284Y-105880520D01*
X147531286Y-105880521D01*
X147531290Y-105880524D01*
X147668209Y-105959573D01*
X147668216Y-105959577D01*
X147820943Y-106000501D01*
X147820945Y-106000501D01*
X147986654Y-106000501D01*
X147986670Y-106000500D01*
X148420234Y-106000500D01*
X148487273Y-106020185D01*
X148489125Y-106021398D01*
X148620814Y-106109390D01*
X148620827Y-106109397D01*
X148766498Y-106169735D01*
X148766503Y-106169737D01*
X148921153Y-106200499D01*
X148921156Y-106200500D01*
X148921158Y-106200500D01*
X149078844Y-106200500D01*
X149078845Y-106200499D01*
X149233497Y-106169737D01*
X149379179Y-106109394D01*
X149510289Y-106021789D01*
X149621789Y-105910289D01*
X149709394Y-105779179D01*
X149713728Y-105768717D01*
X149737761Y-105710694D01*
X149769737Y-105633497D01*
X149800500Y-105478842D01*
X149800500Y-105321158D01*
X149800500Y-105321155D01*
X149781977Y-105228037D01*
X149788204Y-105158445D01*
X149815913Y-105116164D01*
X149821789Y-105110289D01*
X149909394Y-104979179D01*
X149969737Y-104833497D01*
X150000500Y-104678842D01*
X150000500Y-104521158D01*
X150000500Y-104521155D01*
X150000499Y-104521153D01*
X149969737Y-104366503D01*
X149950812Y-104320814D01*
X149909397Y-104220827D01*
X149909390Y-104220814D01*
X149821789Y-104089711D01*
X149821786Y-104089707D01*
X149710292Y-103978213D01*
X149710288Y-103978210D01*
X149579185Y-103890609D01*
X149579176Y-103890604D01*
X149569723Y-103886689D01*
X149515320Y-103842848D01*
X149495559Y-103796319D01*
X149482523Y-103730782D01*
X149469737Y-103666503D01*
X149438049Y-103590000D01*
X149409397Y-103520827D01*
X149409390Y-103520814D01*
X149321789Y-103389711D01*
X149321786Y-103389707D01*
X149210292Y-103278213D01*
X149210288Y-103278210D01*
X149079185Y-103190609D01*
X149079176Y-103190604D01*
X148928047Y-103128005D01*
X148873644Y-103084164D01*
X148851579Y-103017870D01*
X148851500Y-103013444D01*
X148851500Y-102394945D01*
X148851500Y-102394943D01*
X148810577Y-102242216D01*
X148788083Y-102203255D01*
X148731524Y-102105290D01*
X148731518Y-102105282D01*
X148619717Y-101993481D01*
X148619709Y-101993475D01*
X148482786Y-101914423D01*
X148478048Y-101912461D01*
X148423644Y-101868620D01*
X148401579Y-101802326D01*
X148401500Y-101797900D01*
X148401500Y-98599097D01*
X148421185Y-98532058D01*
X148437819Y-98511416D01*
X149712416Y-97236819D01*
X149773739Y-97203334D01*
X149800097Y-97200500D01*
X152870234Y-97200500D01*
X152937273Y-97220185D01*
X152939125Y-97221398D01*
X153070814Y-97309390D01*
X153070827Y-97309397D01*
X153167646Y-97349500D01*
X153216503Y-97369737D01*
X153364949Y-97399265D01*
X153371153Y-97400499D01*
X153371156Y-97400500D01*
X153371158Y-97400500D01*
X153528844Y-97400500D01*
X153528845Y-97400499D01*
X153683497Y-97369737D01*
X153829179Y-97309394D01*
X153960289Y-97221789D01*
X154071789Y-97110289D01*
X154159394Y-96979179D01*
X154219737Y-96833497D01*
X154250500Y-96678842D01*
X154250500Y-96521158D01*
X154250500Y-96521155D01*
X154250499Y-96521153D01*
X154246073Y-96498903D01*
X154219737Y-96366503D01*
X154212694Y-96349500D01*
X154159397Y-96220827D01*
X154159390Y-96220814D01*
X154071789Y-96089711D01*
X154071786Y-96089707D01*
X153960292Y-95978213D01*
X153960288Y-95978210D01*
X153829185Y-95890609D01*
X153829172Y-95890602D01*
X153683501Y-95830264D01*
X153683489Y-95830261D01*
X153528845Y-95799500D01*
X153528842Y-95799500D01*
X153371158Y-95799500D01*
X153371155Y-95799500D01*
X153216510Y-95830261D01*
X153216498Y-95830264D01*
X153070827Y-95890602D01*
X153070814Y-95890609D01*
X152939125Y-95978602D01*
X152872447Y-95999480D01*
X152870234Y-95999500D01*
X150649097Y-95999500D01*
X150582058Y-95979815D01*
X150536303Y-95927011D01*
X150526359Y-95857853D01*
X150555384Y-95794297D01*
X150561416Y-95787819D01*
X151662416Y-94686819D01*
X151723739Y-94653334D01*
X151750097Y-94650500D01*
X154620234Y-94650500D01*
X154687273Y-94670185D01*
G37*
%TD.AperFunction*%
%TA.AperFunction,Conductor*%
G36*
X144518834Y-102432915D02*
G01*
X144574767Y-102474787D01*
X144599184Y-102540251D01*
X144599500Y-102549097D01*
X144599500Y-105099903D01*
X144579815Y-105166942D01*
X144563181Y-105187584D01*
X143538584Y-106212181D01*
X143477261Y-106245666D01*
X143450903Y-106248500D01*
X142269943Y-106248500D01*
X142117216Y-106289423D01*
X142117215Y-106289423D01*
X141986499Y-106364891D01*
X141918599Y-106381362D01*
X141852572Y-106358510D01*
X141809382Y-106303588D01*
X141800500Y-106257503D01*
X141800500Y-104087462D01*
X141820185Y-104020423D01*
X141872989Y-103974668D01*
X141942147Y-103964724D01*
X141956591Y-103967687D01*
X141970838Y-103971504D01*
X141982890Y-103974734D01*
X142042550Y-104011099D01*
X142073078Y-104073946D01*
X142066977Y-104137840D01*
X142055910Y-104167511D01*
X142055909Y-104167515D01*
X142055909Y-104167517D01*
X142049500Y-104227127D01*
X142049500Y-104227134D01*
X142049500Y-104227135D01*
X142049500Y-104572869D01*
X142049501Y-104572876D01*
X142055908Y-104632483D01*
X142106202Y-104767328D01*
X142106206Y-104767335D01*
X142192452Y-104882544D01*
X142192455Y-104882547D01*
X142307664Y-104968793D01*
X142307671Y-104968797D01*
X142442517Y-105019091D01*
X142442516Y-105019091D01*
X142449444Y-105019835D01*
X142502127Y-105025500D01*
X143697872Y-105025499D01*
X143757483Y-105019091D01*
X143892331Y-104968796D01*
X144007546Y-104882546D01*
X144093796Y-104767331D01*
X144144091Y-104632483D01*
X144150500Y-104572873D01*
X144150499Y-104227128D01*
X144144091Y-104167517D01*
X144143715Y-104166510D01*
X144093797Y-104032671D01*
X144093796Y-104032669D01*
X144061505Y-103989534D01*
X144050108Y-103974310D01*
X144025692Y-103908847D01*
X144040543Y-103840574D01*
X144050109Y-103825689D01*
X144058409Y-103814602D01*
X144093796Y-103767331D01*
X144144091Y-103632483D01*
X144150500Y-103572873D01*
X144150499Y-103227128D01*
X144144091Y-103167517D01*
X144144089Y-103167513D01*
X144143632Y-103163255D01*
X144143632Y-103136745D01*
X144144089Y-103132486D01*
X144144091Y-103132483D01*
X144150500Y-103072873D01*
X144150499Y-102750097D01*
X144170183Y-102683059D01*
X144186818Y-102662417D01*
X144325653Y-102523582D01*
X144387820Y-102461415D01*
X144449142Y-102427931D01*
X144518834Y-102432915D01*
G37*
%TD.AperFunction*%
%TA.AperFunction,Conductor*%
G36*
X151716942Y-79270185D02*
G01*
X151737584Y-79286819D01*
X154465425Y-82014660D01*
X154498910Y-82075983D01*
X154499361Y-82078149D01*
X154530261Y-82233491D01*
X154530264Y-82233501D01*
X154590602Y-82379172D01*
X154590609Y-82379185D01*
X154678210Y-82510288D01*
X154678213Y-82510292D01*
X154789707Y-82621786D01*
X154789711Y-82621789D01*
X154920814Y-82709390D01*
X154920827Y-82709397D01*
X155066498Y-82769735D01*
X155066503Y-82769737D01*
X155221153Y-82800499D01*
X155221156Y-82800500D01*
X155221158Y-82800500D01*
X155224500Y-82800500D01*
X155226187Y-82800995D01*
X155227218Y-82801097D01*
X155227198Y-82801292D01*
X155291539Y-82820185D01*
X155337294Y-82872989D01*
X155348500Y-82924500D01*
X155348500Y-93125500D01*
X155328815Y-93192539D01*
X155276011Y-93238294D01*
X155224500Y-93249500D01*
X155121155Y-93249500D01*
X154966510Y-93280261D01*
X154966498Y-93280264D01*
X154820827Y-93340602D01*
X154820814Y-93340609D01*
X154689125Y-93428602D01*
X154622447Y-93449480D01*
X154620234Y-93449500D01*
X151536669Y-93449500D01*
X151536653Y-93449499D01*
X151529057Y-93449499D01*
X151370943Y-93449499D01*
X151256397Y-93480192D01*
X151218214Y-93490423D01*
X151200762Y-93500500D01*
X151200759Y-93500501D01*
X151081290Y-93569475D01*
X151081282Y-93569481D01*
X146919481Y-97731282D01*
X146919475Y-97731290D01*
X146874463Y-97809255D01*
X146874463Y-97809256D01*
X146840423Y-97868215D01*
X146799499Y-98020943D01*
X146799499Y-98020945D01*
X146799499Y-98189046D01*
X146799500Y-98189059D01*
X146799500Y-102173560D01*
X146779815Y-102240599D01*
X146727011Y-102286354D01*
X146718833Y-102289742D01*
X146607671Y-102331202D01*
X146607664Y-102331206D01*
X146492455Y-102417452D01*
X146492452Y-102417455D01*
X146406206Y-102532664D01*
X146406202Y-102532671D01*
X146357811Y-102662417D01*
X146355909Y-102667517D01*
X146349500Y-102727127D01*
X146349500Y-102727134D01*
X146349500Y-102727135D01*
X146349500Y-103072869D01*
X146349501Y-103072879D01*
X146356367Y-103136751D01*
X146356367Y-103163253D01*
X146355909Y-103167517D01*
X146353625Y-103188751D01*
X146326892Y-103253301D01*
X146269501Y-103293152D01*
X146230337Y-103299499D01*
X146120939Y-103299499D01*
X146115902Y-103300162D01*
X146085000Y-103299150D01*
X146084907Y-103300097D01*
X146078845Y-103299500D01*
X146078842Y-103299500D01*
X145924500Y-103299500D01*
X145857461Y-103279815D01*
X145811706Y-103227011D01*
X145800500Y-103175500D01*
X145800500Y-82240060D01*
X145800501Y-82240047D01*
X145800501Y-82071944D01*
X145786443Y-82019480D01*
X145759577Y-81919216D01*
X145748783Y-81900520D01*
X145680524Y-81782290D01*
X145680518Y-81782282D01*
X145650819Y-81752583D01*
X145617334Y-81691260D01*
X145614500Y-81664902D01*
X145614500Y-80183945D01*
X145614500Y-80183943D01*
X145583625Y-80068716D01*
X145573577Y-80031215D01*
X145532367Y-79959838D01*
X145529464Y-79954811D01*
X145529462Y-79954805D01*
X145490457Y-79887246D01*
X145493506Y-79885485D01*
X145474218Y-79835200D01*
X145476198Y-79801016D01*
X145500500Y-79678844D01*
X145500500Y-79521155D01*
X145476140Y-79398692D01*
X145482367Y-79329100D01*
X145525230Y-79273923D01*
X145591120Y-79250678D01*
X145597757Y-79250500D01*
X151649903Y-79250500D01*
X151716942Y-79270185D01*
G37*
%TD.AperFunction*%
%TA.AperFunction,Conductor*%
G36*
X144544459Y-89411965D02*
G01*
X144589229Y-89465607D01*
X144599500Y-89515021D01*
X144599500Y-100525500D01*
X144579815Y-100592539D01*
X144527011Y-100638294D01*
X144475500Y-100649500D01*
X144471155Y-100649500D01*
X144316510Y-100680261D01*
X144316498Y-100680264D01*
X144170827Y-100740602D01*
X144170814Y-100740609D01*
X144039711Y-100828210D01*
X144039707Y-100828213D01*
X143928213Y-100939707D01*
X143928210Y-100939711D01*
X143840609Y-101070814D01*
X143840602Y-101070827D01*
X143780264Y-101216498D01*
X143780261Y-101216508D01*
X143749362Y-101371848D01*
X143716977Y-101433759D01*
X143715426Y-101435337D01*
X142912583Y-102238181D01*
X142885655Y-102252884D01*
X142859837Y-102269477D01*
X142853636Y-102270368D01*
X142851260Y-102271666D01*
X142824902Y-102274500D01*
X142782607Y-102274500D01*
X142715568Y-102254815D01*
X142669813Y-102202011D01*
X142658607Y-102150500D01*
X142658607Y-89549222D01*
X142678292Y-89482183D01*
X142731096Y-89436428D01*
X142800254Y-89426484D01*
X142823521Y-89433416D01*
X142823811Y-89432542D01*
X142830664Y-89434812D01*
X142830666Y-89434814D01*
X142997203Y-89489999D01*
X143099991Y-89500500D01*
X144100008Y-89500499D01*
X144100016Y-89500498D01*
X144100019Y-89500498D01*
X144156302Y-89494748D01*
X144202797Y-89489999D01*
X144369334Y-89434814D01*
X144410404Y-89409481D01*
X144477796Y-89391042D01*
X144544459Y-89411965D01*
G37*
%TD.AperFunction*%
%TA.AperFunction,Conductor*%
G36*
X156119743Y-98137057D02*
G01*
X156133192Y-98137778D01*
X156151157Y-98150731D01*
X156171462Y-98159570D01*
X156186255Y-98176038D01*
X156189866Y-98178642D01*
X156195047Y-98185826D01*
X156278210Y-98310288D01*
X156278213Y-98310292D01*
X156389707Y-98421786D01*
X156389711Y-98421789D01*
X156467454Y-98473736D01*
X156512259Y-98527348D01*
X156520966Y-98596673D01*
X156490811Y-98659701D01*
X156486244Y-98664519D01*
X155033286Y-100117478D01*
X154719481Y-100431282D01*
X154719479Y-100431285D01*
X154696653Y-100470821D01*
X154692474Y-100478061D01*
X154669361Y-100518094D01*
X154669358Y-100518096D01*
X154669359Y-100518096D01*
X154640425Y-100568209D01*
X154638062Y-100573915D01*
X154594221Y-100628319D01*
X154527927Y-100650385D01*
X154460228Y-100633106D01*
X154412617Y-100581970D01*
X154399500Y-100526464D01*
X154399500Y-100488060D01*
X154399501Y-100488047D01*
X154399501Y-100319944D01*
X154399156Y-100318656D01*
X154358577Y-100167216D01*
X154343212Y-100140602D01*
X154279524Y-100030290D01*
X154279518Y-100030282D01*
X153936916Y-99687680D01*
X153903431Y-99626357D01*
X153908415Y-99556665D01*
X153936916Y-99512318D01*
X154299734Y-99149500D01*
X154704974Y-98744260D01*
X154766295Y-98710777D01*
X154835987Y-98715761D01*
X154840105Y-98717382D01*
X154956095Y-98765426D01*
X154966503Y-98769737D01*
X155113170Y-98798911D01*
X155121153Y-98800499D01*
X155121156Y-98800500D01*
X155121158Y-98800500D01*
X155278844Y-98800500D01*
X155278845Y-98800499D01*
X155433497Y-98769737D01*
X155579179Y-98709394D01*
X155710289Y-98621789D01*
X155821789Y-98510289D01*
X155909394Y-98379179D01*
X155918462Y-98357288D01*
X155949505Y-98282341D01*
X155969737Y-98233497D01*
X155970327Y-98230529D01*
X155971064Y-98229119D01*
X155971506Y-98227665D01*
X155971781Y-98227748D01*
X155980591Y-98210904D01*
X155986450Y-98189550D01*
X155996466Y-98180552D01*
X156002708Y-98168619D01*
X156021953Y-98157658D01*
X156038428Y-98142860D01*
X156051720Y-98140706D01*
X156063422Y-98134042D01*
X156085537Y-98135226D01*
X156107398Y-98131684D01*
X156119743Y-98137057D01*
G37*
%TD.AperFunction*%
%TA.AperFunction,Conductor*%
G36*
X162817998Y-94670185D02*
G01*
X162863753Y-94722989D01*
X162873697Y-94792147D01*
X162844672Y-94855703D01*
X162838640Y-94862181D01*
X162828213Y-94872607D01*
X162828210Y-94872611D01*
X162740609Y-95003714D01*
X162740602Y-95003727D01*
X162680264Y-95149398D01*
X162680261Y-95149408D01*
X162649361Y-95304750D01*
X162616976Y-95366661D01*
X162615425Y-95368239D01*
X160748286Y-97235377D01*
X160686963Y-97268862D01*
X160617271Y-97263878D01*
X160613153Y-97262257D01*
X160533501Y-97229264D01*
X160533489Y-97229261D01*
X160378845Y-97198500D01*
X160378842Y-97198500D01*
X160221158Y-97198500D01*
X160221155Y-97198500D01*
X160066510Y-97229261D01*
X160066498Y-97229264D01*
X159920827Y-97289602D01*
X159920814Y-97289609D01*
X159789125Y-97377602D01*
X159771078Y-97383252D01*
X159755169Y-97393477D01*
X159724207Y-97397928D01*
X159722447Y-97398480D01*
X159720234Y-97398500D01*
X159634759Y-97398500D01*
X159567720Y-97378815D01*
X159531657Y-97343391D01*
X159495789Y-97289710D01*
X159384292Y-97178213D01*
X159384288Y-97178210D01*
X159253185Y-97090609D01*
X159253172Y-97090602D01*
X159107501Y-97030264D01*
X159107489Y-97030261D01*
X158952845Y-96999500D01*
X158952842Y-96999500D01*
X158795158Y-96999500D01*
X158795155Y-96999500D01*
X158640510Y-97030261D01*
X158640498Y-97030264D01*
X158494827Y-97090602D01*
X158494814Y-97090609D01*
X158363711Y-97178210D01*
X158363707Y-97178213D01*
X158252213Y-97289707D01*
X158252210Y-97289711D01*
X158164609Y-97420814D01*
X158164602Y-97420827D01*
X158104264Y-97566498D01*
X158104261Y-97566510D01*
X158073500Y-97721153D01*
X158073500Y-97878846D01*
X158104261Y-98033489D01*
X158104264Y-98033501D01*
X158164602Y-98179172D01*
X158164609Y-98179185D01*
X158252210Y-98310288D01*
X158252213Y-98310292D01*
X158363707Y-98421786D01*
X158363711Y-98421789D01*
X158494814Y-98509390D01*
X158494827Y-98509397D01*
X158640498Y-98569735D01*
X158640503Y-98569737D01*
X158775919Y-98596673D01*
X158795153Y-98600499D01*
X158795156Y-98600500D01*
X158795158Y-98600500D01*
X158952844Y-98600500D01*
X158958902Y-98599903D01*
X158958952Y-98600416D01*
X158985813Y-98599535D01*
X158985813Y-98599500D01*
X158986898Y-98599500D01*
X158992539Y-98599315D01*
X158993941Y-98599499D01*
X158993942Y-98599500D01*
X158993943Y-98599500D01*
X159720234Y-98599500D01*
X159787273Y-98619185D01*
X159789125Y-98620398D01*
X159920814Y-98708390D01*
X159920827Y-98708397D01*
X160035724Y-98755988D01*
X160066503Y-98768737D01*
X160161439Y-98787621D01*
X160221153Y-98799499D01*
X160221156Y-98799500D01*
X160375500Y-98799500D01*
X160442539Y-98819185D01*
X160488294Y-98871989D01*
X160499500Y-98923500D01*
X160499500Y-99270234D01*
X160479815Y-99337273D01*
X160478602Y-99339125D01*
X160390609Y-99470814D01*
X160390602Y-99470827D01*
X160330264Y-99616498D01*
X160330261Y-99616510D01*
X160299500Y-99771153D01*
X160299500Y-99873500D01*
X160279815Y-99940539D01*
X160227011Y-99986294D01*
X160175500Y-99997500D01*
X157151098Y-99997500D01*
X157084059Y-99977815D01*
X157038304Y-99925011D01*
X157028360Y-99855853D01*
X157057385Y-99792297D01*
X157063417Y-99785819D01*
X157370658Y-99478578D01*
X157680520Y-99168716D01*
X157759577Y-99031784D01*
X157800501Y-98879057D01*
X157800501Y-98720942D01*
X157800501Y-98713347D01*
X157800500Y-98713329D01*
X157800500Y-98020945D01*
X157800500Y-98020943D01*
X157759577Y-97868216D01*
X157759577Y-97868215D01*
X157725537Y-97809256D01*
X157724232Y-97806996D01*
X157724227Y-97806986D01*
X157717111Y-97794660D01*
X157700500Y-97732664D01*
X157700500Y-97721155D01*
X157700499Y-97721153D01*
X157692949Y-97683197D01*
X157669737Y-97566503D01*
X157634647Y-97481787D01*
X157609397Y-97420827D01*
X157609390Y-97420814D01*
X157521789Y-97289711D01*
X157521788Y-97289709D01*
X157515443Y-97283365D01*
X157510233Y-97275427D01*
X157505289Y-97271871D01*
X157497101Y-97255417D01*
X157487786Y-97241223D01*
X157485184Y-97234634D01*
X157484013Y-97230263D01*
X157459577Y-97139064D01*
X157425776Y-97080520D01*
X157421192Y-97072581D01*
X157421191Y-97072577D01*
X157380524Y-97002139D01*
X157380521Y-97002135D01*
X157380520Y-97002133D01*
X157268716Y-96890329D01*
X157268715Y-96890328D01*
X157264385Y-96885998D01*
X157264374Y-96885988D01*
X156726100Y-96347714D01*
X156692615Y-96286391D01*
X156697599Y-96216699D01*
X156739471Y-96160766D01*
X156789586Y-96138417D01*
X156883497Y-96119737D01*
X157029179Y-96059394D01*
X157111051Y-96004689D01*
X157160875Y-95971398D01*
X157227553Y-95950520D01*
X157229766Y-95950500D01*
X157670939Y-95950500D01*
X157670943Y-95950501D01*
X157829057Y-95950501D01*
X157834987Y-95948911D01*
X157849137Y-95948781D01*
X157855314Y-95950533D01*
X157865004Y-95950850D01*
X157865098Y-95949903D01*
X157871156Y-95950500D01*
X157871158Y-95950500D01*
X158028844Y-95950500D01*
X158028845Y-95950499D01*
X158183497Y-95919737D01*
X158329179Y-95859394D01*
X158460289Y-95771789D01*
X158571789Y-95660289D01*
X158659394Y-95529179D01*
X158719737Y-95383497D01*
X158750500Y-95228842D01*
X158750500Y-95071158D01*
X158750500Y-95071155D01*
X158750499Y-95071153D01*
X158737084Y-95003714D01*
X158719737Y-94916503D01*
X158680572Y-94821951D01*
X158673104Y-94752483D01*
X158704379Y-94690004D01*
X158764468Y-94654352D01*
X158795134Y-94650500D01*
X162750959Y-94650500D01*
X162817998Y-94670185D01*
G37*
%TD.AperFunction*%
%TA.AperFunction,Conductor*%
G36*
X168005823Y-96118219D02*
G01*
X168005982Y-96117836D01*
X168008055Y-96118694D01*
X168009386Y-96118978D01*
X168011613Y-96120168D01*
X168164270Y-96183400D01*
X168180042Y-96189933D01*
X168180046Y-96189933D01*
X168180047Y-96189934D01*
X168358843Y-96225500D01*
X168358846Y-96225500D01*
X168400500Y-96225500D01*
X168467539Y-96245185D01*
X168513294Y-96297989D01*
X168524500Y-96349500D01*
X168524500Y-96391154D01*
X168524500Y-96391156D01*
X168524499Y-96391156D01*
X168560065Y-96569952D01*
X168560068Y-96569962D01*
X168629831Y-96738385D01*
X168631021Y-96740612D01*
X168631291Y-96741911D01*
X168632164Y-96744018D01*
X168631764Y-96744183D01*
X168645262Y-96809015D01*
X168620261Y-96874258D01*
X168563956Y-96915628D01*
X168494223Y-96919990D01*
X168433981Y-96886745D01*
X168198870Y-96651634D01*
X167863252Y-96316016D01*
X167829768Y-96254695D01*
X167834752Y-96185004D01*
X167876623Y-96129070D01*
X167942088Y-96104653D01*
X168005823Y-96118219D01*
G37*
%TD.AperFunction*%
%TA.AperFunction,Conductor*%
G36*
X174504945Y-84800766D02*
G01*
X174509977Y-84800043D01*
X174543841Y-84809987D01*
X174646223Y-84856744D01*
X174665041Y-84865338D01*
X174732080Y-84885023D01*
X174732084Y-84885024D01*
X174874500Y-84905500D01*
X174874503Y-84905500D01*
X174875500Y-84905500D01*
X174875821Y-84905594D01*
X174878920Y-84905816D01*
X174878871Y-84906490D01*
X174942539Y-84925185D01*
X174988294Y-84977989D01*
X174999500Y-85029500D01*
X174999500Y-93009398D01*
X174990881Y-93038748D01*
X174984422Y-93068660D01*
X174981128Y-93071963D01*
X174979815Y-93076437D01*
X174956695Y-93096469D01*
X174935091Y-93118140D01*
X174930535Y-93119138D01*
X174927011Y-93122192D01*
X174896725Y-93126546D01*
X174866841Y-93133095D01*
X174862469Y-93131472D01*
X174857853Y-93132136D01*
X174830016Y-93119423D01*
X174801340Y-93108777D01*
X174797674Y-93104653D01*
X174794297Y-93103111D01*
X174776345Y-93083858D01*
X174771854Y-93077878D01*
X174730520Y-93006284D01*
X174680611Y-92956375D01*
X174675344Y-92949361D01*
X174666038Y-92924528D01*
X174653333Y-92901259D01*
X174651728Y-92886337D01*
X174650828Y-92883934D01*
X174651256Y-92881948D01*
X174650499Y-92874901D01*
X174650499Y-92199998D01*
X174650498Y-92199981D01*
X174639999Y-92097203D01*
X174639998Y-92097200D01*
X174627580Y-92059724D01*
X174584814Y-91930666D01*
X174492712Y-91781344D01*
X174368656Y-91657288D01*
X174365819Y-91655538D01*
X174364283Y-91653830D01*
X174362989Y-91652807D01*
X174363163Y-91652585D01*
X174319096Y-91603594D01*
X174307872Y-91534632D01*
X174335713Y-91470549D01*
X174365817Y-91444462D01*
X174368656Y-91442712D01*
X174492712Y-91318656D01*
X174584814Y-91169334D01*
X174639999Y-91002797D01*
X174650500Y-90900009D01*
X174650499Y-90149992D01*
X174649214Y-90137416D01*
X174639999Y-90047203D01*
X174639998Y-90047200D01*
X174600441Y-89927826D01*
X174584814Y-89880666D01*
X174492712Y-89731344D01*
X174368656Y-89607288D01*
X174261385Y-89541123D01*
X174219336Y-89515187D01*
X174219331Y-89515185D01*
X174217862Y-89514698D01*
X174052797Y-89460001D01*
X174052795Y-89460000D01*
X173950016Y-89449500D01*
X173950009Y-89449500D01*
X173275098Y-89449500D01*
X173208059Y-89429815D01*
X173187417Y-89413181D01*
X172987819Y-89213583D01*
X172954334Y-89152260D01*
X172951500Y-89125902D01*
X172951500Y-87803510D01*
X172971185Y-87736471D01*
X173023989Y-87690716D01*
X173040895Y-87684436D01*
X173110398Y-87664244D01*
X173251865Y-87580581D01*
X173368081Y-87464365D01*
X173451744Y-87322898D01*
X173497598Y-87165069D01*
X173500500Y-87128194D01*
X173500500Y-85821806D01*
X173497598Y-85784931D01*
X173486031Y-85745119D01*
X173451745Y-85627106D01*
X173451744Y-85627103D01*
X173451744Y-85627102D01*
X173368081Y-85485635D01*
X173368079Y-85485633D01*
X173368076Y-85485629D01*
X173251870Y-85369423D01*
X173251862Y-85369417D01*
X173110396Y-85285755D01*
X173110393Y-85285754D01*
X172952573Y-85239902D01*
X172952567Y-85239901D01*
X172915701Y-85237000D01*
X172915694Y-85237000D01*
X172537597Y-85237000D01*
X172508156Y-85228355D01*
X172478170Y-85221832D01*
X172473154Y-85218077D01*
X172470558Y-85217315D01*
X172449916Y-85200681D01*
X172434574Y-85185339D01*
X172401089Y-85124016D01*
X172400638Y-85121850D01*
X172387080Y-85053692D01*
X172393307Y-84984100D01*
X172436169Y-84928923D01*
X172502059Y-84905678D01*
X172508697Y-84905500D01*
X174165686Y-84905500D01*
X174165694Y-84905500D01*
X174202569Y-84902598D01*
X174202571Y-84902597D01*
X174202573Y-84902597D01*
X174244191Y-84890505D01*
X174360398Y-84856744D01*
X174429207Y-84816049D01*
X174435729Y-84814394D01*
X174440818Y-84809986D01*
X174469169Y-84805909D01*
X174496930Y-84798866D01*
X174504945Y-84800766D01*
G37*
%TD.AperFunction*%
%TA.AperFunction,Conductor*%
G36*
X171346980Y-89542787D02*
G01*
X171348842Y-89542593D01*
X171350604Y-89543481D01*
X171361085Y-89545486D01*
X171497426Y-89585097D01*
X171497429Y-89585097D01*
X171497431Y-89585098D01*
X171534306Y-89588000D01*
X171679663Y-89588000D01*
X171691365Y-89591436D01*
X171703510Y-89590315D01*
X171724264Y-89601096D01*
X171746702Y-89607685D01*
X171756217Y-89617695D01*
X171765512Y-89622524D01*
X171777546Y-89640134D01*
X171787243Y-89650335D01*
X171791343Y-89657489D01*
X171791423Y-89657785D01*
X171803705Y-89679057D01*
X171803783Y-89679192D01*
X171870479Y-89794715D01*
X171989349Y-89913585D01*
X171989355Y-89913590D01*
X172213181Y-90137416D01*
X172246666Y-90198739D01*
X172249500Y-90225097D01*
X172249500Y-90900001D01*
X172249501Y-90900019D01*
X172260000Y-91002796D01*
X172260001Y-91002799D01*
X172315185Y-91169331D01*
X172315187Y-91169336D01*
X172407289Y-91318657D01*
X172531346Y-91442714D01*
X172534182Y-91444463D01*
X172535717Y-91446170D01*
X172537011Y-91447193D01*
X172536836Y-91447414D01*
X172580905Y-91496411D01*
X172592126Y-91565374D01*
X172564282Y-91629456D01*
X172534182Y-91655537D01*
X172531346Y-91657285D01*
X172407289Y-91781342D01*
X172315187Y-91930663D01*
X172315185Y-91930668D01*
X172298752Y-91980261D01*
X172260001Y-92097203D01*
X172260001Y-92097204D01*
X172260000Y-92097204D01*
X172249500Y-92199983D01*
X172249500Y-92400903D01*
X172243261Y-92422148D01*
X172241682Y-92444237D01*
X172233609Y-92455020D01*
X172229815Y-92467942D01*
X172213081Y-92482441D01*
X172199810Y-92500170D01*
X172187189Y-92504877D01*
X172177011Y-92513697D01*
X172155093Y-92516848D01*
X172134346Y-92524587D01*
X172121185Y-92521724D01*
X172107853Y-92523641D01*
X172087709Y-92514441D01*
X172066073Y-92509735D01*
X172048347Y-92496466D01*
X172044297Y-92494616D01*
X172037819Y-92488584D01*
X171923551Y-92374316D01*
X171890066Y-92312993D01*
X171895050Y-92243301D01*
X171896671Y-92239182D01*
X171919737Y-92183497D01*
X171950500Y-92028842D01*
X171950500Y-91871158D01*
X171950500Y-91871155D01*
X171950499Y-91871153D01*
X171940664Y-91821711D01*
X171919737Y-91716503D01*
X171898283Y-91664707D01*
X171859397Y-91570827D01*
X171859390Y-91570814D01*
X171771790Y-91439712D01*
X171771789Y-91439711D01*
X171744022Y-91411944D01*
X171710538Y-91350624D01*
X171715522Y-91280932D01*
X171744022Y-91236583D01*
X171771789Y-91208817D01*
X171859394Y-91077707D01*
X171919737Y-90932025D01*
X171950500Y-90777370D01*
X171950500Y-90619686D01*
X171950500Y-90619683D01*
X171950499Y-90619681D01*
X171919738Y-90465038D01*
X171919737Y-90465031D01*
X171893156Y-90400858D01*
X171859397Y-90319355D01*
X171859390Y-90319342D01*
X171771789Y-90188239D01*
X171771786Y-90188235D01*
X171660292Y-90076741D01*
X171660288Y-90076738D01*
X171529185Y-89989137D01*
X171529172Y-89989130D01*
X171383501Y-89928792D01*
X171383489Y-89928789D01*
X171224753Y-89897214D01*
X171162842Y-89864829D01*
X171128267Y-89804113D01*
X171132007Y-89734344D01*
X171147283Y-89704597D01*
X171153537Y-89695640D01*
X171181520Y-89667659D01*
X171221775Y-89597933D01*
X171224829Y-89593562D01*
X171248093Y-89574919D01*
X171269669Y-89554347D01*
X171275063Y-89553307D01*
X171279352Y-89549871D01*
X171309001Y-89546765D01*
X171338276Y-89541123D01*
X171346980Y-89542787D01*
G37*
%TD.AperFunction*%
%TA.AperFunction,Conductor*%
G36*
X169313255Y-89634189D02*
G01*
X169371118Y-89673351D01*
X169398622Y-89737579D01*
X169399499Y-89752301D01*
X169399499Y-89806146D01*
X169399500Y-89806159D01*
X169399500Y-91836403D01*
X169379815Y-91903442D01*
X169327011Y-91949197D01*
X169257853Y-91959141D01*
X169206610Y-91939505D01*
X169120640Y-91882062D01*
X169120622Y-91882052D01*
X168974951Y-91821714D01*
X168974939Y-91821711D01*
X168820295Y-91790950D01*
X168820292Y-91790950D01*
X168662608Y-91790950D01*
X168662605Y-91790950D01*
X168507960Y-91821711D01*
X168507948Y-91821714D01*
X168362277Y-91882052D01*
X168362264Y-91882059D01*
X168231161Y-91969660D01*
X168227878Y-91972355D01*
X168163568Y-91999667D01*
X168149215Y-92000500D01*
X167452028Y-92000500D01*
X167384989Y-91980815D01*
X167339234Y-91928011D01*
X167337467Y-91923952D01*
X167284397Y-91795826D01*
X167284390Y-91795814D01*
X167196789Y-91664711D01*
X167196786Y-91664707D01*
X167085292Y-91553213D01*
X167085288Y-91553210D01*
X166954185Y-91465609D01*
X166954172Y-91465602D01*
X166808501Y-91405264D01*
X166808489Y-91405261D01*
X166653845Y-91374500D01*
X166653842Y-91374500D01*
X166496158Y-91374500D01*
X166496155Y-91374500D01*
X166341510Y-91405261D01*
X166341498Y-91405264D01*
X166195827Y-91465602D01*
X166195814Y-91465609D01*
X166064711Y-91553210D01*
X166064707Y-91553213D01*
X165953213Y-91664707D01*
X165953210Y-91664711D01*
X165865609Y-91795814D01*
X165865602Y-91795827D01*
X165805264Y-91941498D01*
X165805261Y-91941508D01*
X165781746Y-92059724D01*
X165749361Y-92121635D01*
X165688645Y-92156209D01*
X165618875Y-92152468D01*
X165572448Y-92123213D01*
X163911416Y-90462181D01*
X163877931Y-90400858D01*
X163882915Y-90331166D01*
X163924787Y-90275233D01*
X163990251Y-90250816D01*
X163999097Y-90250500D01*
X167270234Y-90250500D01*
X167337273Y-90270185D01*
X167339125Y-90271398D01*
X167470814Y-90359390D01*
X167470827Y-90359397D01*
X167616498Y-90419735D01*
X167616503Y-90419737D01*
X167771153Y-90450499D01*
X167771156Y-90450500D01*
X167771158Y-90450500D01*
X167928844Y-90450500D01*
X167928845Y-90450499D01*
X168083497Y-90419737D01*
X168229179Y-90359394D01*
X168360289Y-90271789D01*
X168471789Y-90160289D01*
X168559394Y-90029179D01*
X168619737Y-89883497D01*
X168646429Y-89749309D01*
X168661139Y-89721185D01*
X168674333Y-89692297D01*
X168677222Y-89690439D01*
X168678814Y-89687398D01*
X168706396Y-89671691D01*
X168733111Y-89654523D01*
X168737705Y-89653862D01*
X168739529Y-89652824D01*
X168768046Y-89649500D01*
X169014331Y-89649500D01*
X169014347Y-89649501D01*
X169021943Y-89649501D01*
X169180054Y-89649501D01*
X169180057Y-89649501D01*
X169243407Y-89632526D01*
X169313255Y-89634189D01*
G37*
%TD.AperFunction*%
%TA.AperFunction,Conductor*%
G36*
X156754703Y-84754384D02*
G01*
X156761179Y-84760414D01*
X157381284Y-85380520D01*
X157381286Y-85380521D01*
X157381290Y-85380524D01*
X157518209Y-85459573D01*
X157518216Y-85459577D01*
X157670943Y-85500501D01*
X157670945Y-85500501D01*
X157836654Y-85500501D01*
X157836670Y-85500500D01*
X160220234Y-85500500D01*
X160287273Y-85520185D01*
X160289125Y-85521398D01*
X160420814Y-85609390D01*
X160420827Y-85609397D01*
X160492422Y-85639052D01*
X160566503Y-85669737D01*
X160698691Y-85696031D01*
X160721153Y-85700499D01*
X160721156Y-85700500D01*
X160721158Y-85700500D01*
X160878842Y-85700500D01*
X160901308Y-85696031D01*
X160970898Y-85702257D01*
X161026076Y-85745119D01*
X161049322Y-85811008D01*
X161049500Y-85817648D01*
X161049500Y-88963330D01*
X161049499Y-88963348D01*
X161049499Y-89129054D01*
X161049498Y-89129054D01*
X161090424Y-89281789D01*
X161090425Y-89281790D01*
X161111455Y-89318214D01*
X161111456Y-89318216D01*
X161169475Y-89418709D01*
X161169481Y-89418717D01*
X161288349Y-89537585D01*
X161288355Y-89537590D01*
X163688584Y-91937819D01*
X163722069Y-91999142D01*
X163717085Y-92068834D01*
X163675213Y-92124767D01*
X163609749Y-92149184D01*
X163600903Y-92149500D01*
X157279766Y-92149500D01*
X157212727Y-92129815D01*
X157210875Y-92128602D01*
X157079185Y-92040609D01*
X157079172Y-92040602D01*
X156933501Y-91980264D01*
X156933489Y-91980261D01*
X156778845Y-91949500D01*
X156778842Y-91949500D01*
X156673500Y-91949500D01*
X156606461Y-91929815D01*
X156560706Y-91877011D01*
X156549500Y-91825500D01*
X156549500Y-84848097D01*
X156569185Y-84781058D01*
X156621989Y-84735303D01*
X156691147Y-84725359D01*
X156754703Y-84754384D01*
G37*
%TD.AperFunction*%
%TA.AperFunction,Conductor*%
G36*
X166792539Y-83856185D02*
G01*
X166838294Y-83908989D01*
X166849500Y-83960500D01*
X166849500Y-84320701D01*
X166852401Y-84357567D01*
X166852402Y-84357573D01*
X166898254Y-84515393D01*
X166898255Y-84515396D01*
X166981917Y-84656862D01*
X166981923Y-84656870D01*
X167098129Y-84773076D01*
X167098133Y-84773079D01*
X167098135Y-84773081D01*
X167239602Y-84856744D01*
X167281224Y-84868836D01*
X167397426Y-84902597D01*
X167397429Y-84902597D01*
X167397431Y-84902598D01*
X167434306Y-84905500D01*
X168784371Y-84905500D01*
X168851410Y-84925185D01*
X168872052Y-84941819D01*
X169569285Y-85639052D01*
X169602770Y-85700375D01*
X169597786Y-85770067D01*
X169555914Y-85826000D01*
X169494207Y-85850091D01*
X169397202Y-85860001D01*
X169397200Y-85860001D01*
X169230668Y-85915185D01*
X169230663Y-85915187D01*
X169081342Y-86007289D01*
X168957289Y-86131342D01*
X168865187Y-86280663D01*
X168865186Y-86280666D01*
X168810001Y-86447203D01*
X168810001Y-86447204D01*
X168810000Y-86447204D01*
X168799500Y-86549983D01*
X168799500Y-87550001D01*
X168799501Y-87550019D01*
X168810000Y-87652796D01*
X168810001Y-87652799D01*
X168842045Y-87749500D01*
X168865186Y-87819334D01*
X168955964Y-87966510D01*
X168957289Y-87968657D01*
X169057016Y-88068384D01*
X169061353Y-88076328D01*
X169068602Y-88081754D01*
X169077838Y-88106516D01*
X169090501Y-88129707D01*
X169089855Y-88138735D01*
X169093019Y-88147218D01*
X169087402Y-88173040D01*
X169085517Y-88199399D01*
X169079699Y-88208451D01*
X169078168Y-88215491D01*
X169057017Y-88243746D01*
X168888584Y-88412181D01*
X168827261Y-88445666D01*
X168800902Y-88448500D01*
X167150097Y-88448500D01*
X167083058Y-88428815D01*
X167062416Y-88412181D01*
X166836819Y-88186584D01*
X166803334Y-88125261D01*
X166800500Y-88098903D01*
X166800500Y-87770943D01*
X166794754Y-87749500D01*
X166769507Y-87655276D01*
X166759577Y-87618216D01*
X166759574Y-87618210D01*
X166759574Y-87618209D01*
X166680524Y-87481290D01*
X166680521Y-87481286D01*
X166680520Y-87481284D01*
X166568716Y-87369480D01*
X166568715Y-87369479D01*
X166564385Y-87365149D01*
X166564374Y-87365139D01*
X166334574Y-87135339D01*
X166301089Y-87074016D01*
X166300638Y-87071849D01*
X166282595Y-86981147D01*
X166269737Y-86916503D01*
X166252634Y-86875212D01*
X166209397Y-86770827D01*
X166209390Y-86770814D01*
X166121789Y-86639711D01*
X166121786Y-86639707D01*
X166010292Y-86528213D01*
X166010288Y-86528210D01*
X165879185Y-86440609D01*
X165879172Y-86440602D01*
X165733501Y-86380264D01*
X165733489Y-86380261D01*
X165578845Y-86349500D01*
X165578842Y-86349500D01*
X165421158Y-86349500D01*
X165421155Y-86349500D01*
X165266510Y-86380261D01*
X165266498Y-86380264D01*
X165120827Y-86440602D01*
X165120814Y-86440609D01*
X164989711Y-86528210D01*
X164989707Y-86528213D01*
X164878213Y-86639707D01*
X164878210Y-86639711D01*
X164790609Y-86770814D01*
X164790602Y-86770827D01*
X164730264Y-86916498D01*
X164730261Y-86916510D01*
X164699500Y-87071153D01*
X164699500Y-87228846D01*
X164730261Y-87383489D01*
X164730264Y-87383501D01*
X164790602Y-87529172D01*
X164790609Y-87529185D01*
X164878210Y-87660288D01*
X164878213Y-87660292D01*
X164989707Y-87771786D01*
X164989711Y-87771789D01*
X165120814Y-87859390D01*
X165120827Y-87859397D01*
X165266498Y-87919735D01*
X165266503Y-87919737D01*
X165331147Y-87932595D01*
X165421849Y-87950638D01*
X165438605Y-87959402D01*
X165457085Y-87963423D01*
X165482123Y-87982167D01*
X165483760Y-87983023D01*
X165485339Y-87984574D01*
X165563181Y-88062416D01*
X165596666Y-88123739D01*
X165599500Y-88150097D01*
X165599500Y-88312330D01*
X165599499Y-88312348D01*
X165599499Y-88478054D01*
X165599498Y-88478054D01*
X165640423Y-88630785D01*
X165640425Y-88630790D01*
X165641001Y-88631787D01*
X165641010Y-88631802D01*
X165719477Y-88767712D01*
X165719481Y-88767717D01*
X165789583Y-88837819D01*
X165823068Y-88899142D01*
X165818084Y-88968834D01*
X165776212Y-89024767D01*
X165710748Y-89049184D01*
X165701902Y-89049500D01*
X163682940Y-89049500D01*
X163653499Y-89040855D01*
X163623513Y-89034332D01*
X163618497Y-89030577D01*
X163615901Y-89029815D01*
X163595259Y-89013181D01*
X163569759Y-88987681D01*
X163536274Y-88926358D01*
X163541258Y-88856666D01*
X163569757Y-88812320D01*
X163671789Y-88710289D01*
X163759394Y-88579179D01*
X163819737Y-88433497D01*
X163850500Y-88278842D01*
X163850500Y-88121158D01*
X163850500Y-88121155D01*
X163850499Y-88121153D01*
X163819737Y-87966503D01*
X163813166Y-87950638D01*
X163759397Y-87820827D01*
X163759390Y-87820814D01*
X163671789Y-87689711D01*
X163671786Y-87689707D01*
X163560292Y-87578213D01*
X163560288Y-87578210D01*
X163429185Y-87490609D01*
X163429175Y-87490604D01*
X163327047Y-87448301D01*
X163272644Y-87404460D01*
X163250579Y-87338166D01*
X163250500Y-87333740D01*
X163250500Y-84703749D01*
X163270185Y-84636710D01*
X163322989Y-84590955D01*
X163392147Y-84581011D01*
X163406587Y-84583973D01*
X163472000Y-84601501D01*
X163472002Y-84601501D01*
X163637711Y-84601501D01*
X163637727Y-84601500D01*
X164019939Y-84601500D01*
X164019943Y-84601501D01*
X164178057Y-84601501D01*
X164221664Y-84589816D01*
X164234519Y-84589110D01*
X164256498Y-84594273D01*
X164279072Y-84594810D01*
X164289857Y-84602109D01*
X164302537Y-84605088D01*
X164318237Y-84621316D01*
X164336936Y-84633971D01*
X164345633Y-84645882D01*
X164353764Y-84658533D01*
X164353775Y-84658548D01*
X164399519Y-84711340D01*
X164399522Y-84711343D01*
X164399526Y-84711347D01*
X164508260Y-84805567D01*
X164508263Y-84805568D01*
X164508264Y-84805569D01*
X164620314Y-84856742D01*
X164639137Y-84865338D01*
X164706176Y-84885023D01*
X164706180Y-84885024D01*
X164848596Y-84905500D01*
X164848599Y-84905500D01*
X165325490Y-84905500D01*
X165325500Y-84905500D01*
X165432956Y-84893947D01*
X165484467Y-84882741D01*
X165524757Y-84869331D01*
X165586997Y-84848616D01*
X165587001Y-84848613D01*
X165587004Y-84848613D01*
X165708043Y-84770825D01*
X165760847Y-84725070D01*
X165855067Y-84616336D01*
X165914838Y-84485459D01*
X165934523Y-84418420D01*
X165934524Y-84418416D01*
X165955000Y-84276000D01*
X165955000Y-84183153D01*
X165955663Y-84170346D01*
X165956257Y-84164617D01*
X165972431Y-84083313D01*
X165974890Y-84070029D01*
X165976011Y-84063484D01*
X165978121Y-84050083D01*
X165978120Y-83954074D01*
X165978783Y-83947693D01*
X165989697Y-83921070D01*
X165997804Y-83893462D01*
X166002786Y-83889144D01*
X166005287Y-83883045D01*
X166028858Y-83866551D01*
X166050607Y-83847706D01*
X166058132Y-83846069D01*
X166062534Y-83842989D01*
X166074445Y-83842520D01*
X166102120Y-83836500D01*
X166725500Y-83836500D01*
X166792539Y-83856185D01*
G37*
%TD.AperFunction*%
%TA.AperFunction,Conductor*%
G36*
X174042152Y-82371730D02*
G01*
X174064211Y-82373297D01*
X174075022Y-82381382D01*
X174087974Y-82385185D01*
X174102453Y-82401895D01*
X174120165Y-82415140D01*
X174130821Y-82434634D01*
X174133729Y-82437989D01*
X174137095Y-82446109D01*
X174139758Y-82453238D01*
X174140846Y-82456824D01*
X174145452Y-82468559D01*
X174145612Y-82468909D01*
X174160065Y-82495344D01*
X174162266Y-82505437D01*
X174182975Y-82540454D01*
X174182975Y-82540455D01*
X174199653Y-82568657D01*
X174226157Y-82613472D01*
X174238498Y-82641985D01*
X174240073Y-82647404D01*
X174245000Y-82682012D01*
X174245000Y-82987986D01*
X174240075Y-83022585D01*
X174238501Y-83028002D01*
X174226158Y-83056524D01*
X174184859Y-83126355D01*
X174183043Y-83129428D01*
X174173784Y-83143315D01*
X174171618Y-83148835D01*
X174169574Y-83152304D01*
X174168848Y-83153435D01*
X174168507Y-83154115D01*
X174168502Y-83154125D01*
X174150252Y-83190609D01*
X174127557Y-83235976D01*
X174079962Y-83287125D01*
X174016660Y-83304500D01*
X172629500Y-83304500D01*
X172562461Y-83284815D01*
X172516706Y-83232011D01*
X172505500Y-83180500D01*
X172505500Y-82489500D01*
X172525185Y-82422461D01*
X172577989Y-82376706D01*
X172629500Y-82365500D01*
X173196158Y-82365500D01*
X173353842Y-82365500D01*
X174020935Y-82365500D01*
X174042152Y-82371730D01*
G37*
%TD.AperFunction*%
%TA.AperFunction,Conductor*%
G36*
X160610784Y-76809425D02*
G01*
X160638506Y-76814223D01*
X160643860Y-76819137D01*
X160650833Y-76821185D01*
X160669252Y-76842442D01*
X160689981Y-76861467D01*
X160691828Y-76868496D01*
X160696588Y-76873989D01*
X160700591Y-76901835D01*
X160707743Y-76929041D01*
X160705973Y-76939264D01*
X160706532Y-76943147D01*
X160701725Y-76963818D01*
X160662753Y-77083760D01*
X160642855Y-77209394D01*
X160629500Y-77293713D01*
X160629500Y-77506287D01*
X160662754Y-77716243D01*
X160722871Y-77901264D01*
X160728444Y-77918414D01*
X160824951Y-78107820D01*
X160949890Y-78279786D01*
X161100213Y-78430109D01*
X161272184Y-78555051D01*
X161272184Y-78555052D01*
X161311793Y-78575233D01*
X161362590Y-78623206D01*
X161379500Y-78685718D01*
X161379500Y-81025500D01*
X161359815Y-81092539D01*
X161307011Y-81138294D01*
X161255500Y-81149500D01*
X158195908Y-81149500D01*
X158128869Y-81129815D01*
X158090363Y-81085728D01*
X158088605Y-81086813D01*
X158084814Y-81080666D01*
X157992712Y-80931344D01*
X157899049Y-80837681D01*
X157865564Y-80776358D01*
X157870548Y-80706666D01*
X157899049Y-80662319D01*
X157920868Y-80640500D01*
X157992712Y-80568656D01*
X158084814Y-80419334D01*
X158139999Y-80252797D01*
X158150500Y-80150009D01*
X158150499Y-79349992D01*
X158142728Y-79273923D01*
X158139999Y-79247203D01*
X158139998Y-79247200D01*
X158084814Y-79080666D01*
X157992712Y-78931344D01*
X157868656Y-78807288D01*
X157766197Y-78744091D01*
X157719336Y-78715187D01*
X157712791Y-78712136D01*
X157713490Y-78710635D01*
X157663290Y-78675878D01*
X157636468Y-78611362D01*
X157648783Y-78542586D01*
X157686855Y-78497627D01*
X157779786Y-78430109D01*
X157779788Y-78430106D01*
X157779792Y-78430104D01*
X157930104Y-78279792D01*
X157930106Y-78279788D01*
X157930109Y-78279786D01*
X158055048Y-78107820D01*
X158055050Y-78107817D01*
X158055051Y-78107816D01*
X158151557Y-77918412D01*
X158217246Y-77716243D01*
X158250500Y-77506287D01*
X158250500Y-77293713D01*
X158217246Y-77083757D01*
X158178274Y-76963817D01*
X158176280Y-76893977D01*
X158212360Y-76834144D01*
X158275061Y-76803316D01*
X158296206Y-76801500D01*
X160583794Y-76801500D01*
X160610784Y-76809425D01*
G37*
%TD.AperFunction*%
%TA.AperFunction,Conductor*%
G36*
X150080484Y-76120185D02*
G01*
X150126239Y-76172989D01*
X150136183Y-76242147D01*
X150131159Y-76260411D01*
X150132031Y-76260676D01*
X150130261Y-76266510D01*
X150099500Y-76421153D01*
X150099500Y-76578846D01*
X150130261Y-76733489D01*
X150130264Y-76733501D01*
X150190602Y-76879172D01*
X150190609Y-76879185D01*
X150278210Y-77010288D01*
X150278213Y-77010292D01*
X150389707Y-77121786D01*
X150389711Y-77121789D01*
X150520814Y-77209390D01*
X150520827Y-77209397D01*
X150666498Y-77269735D01*
X150666503Y-77269737D01*
X150787038Y-77293713D01*
X150821153Y-77300499D01*
X150821156Y-77300500D01*
X150821158Y-77300500D01*
X150978844Y-77300500D01*
X150978845Y-77300499D01*
X151133497Y-77269737D01*
X151279179Y-77209394D01*
X151410289Y-77121789D01*
X151521789Y-77010289D01*
X151609394Y-76879179D01*
X151609865Y-76878042D01*
X151610268Y-76877540D01*
X151612264Y-76873808D01*
X151612972Y-76874186D01*
X151653708Y-76823641D01*
X151720003Y-76801579D01*
X151724424Y-76801500D01*
X152885500Y-76801500D01*
X152952539Y-76821185D01*
X152998294Y-76873989D01*
X153009500Y-76925500D01*
X153009500Y-78297870D01*
X153009501Y-78297876D01*
X153015908Y-78357483D01*
X153066202Y-78492328D01*
X153066206Y-78492335D01*
X153152452Y-78607544D01*
X153152455Y-78607547D01*
X153267664Y-78693793D01*
X153267671Y-78693797D01*
X153402517Y-78744091D01*
X153402516Y-78744091D01*
X153409444Y-78744835D01*
X153462127Y-78750500D01*
X155257872Y-78750499D01*
X155317483Y-78744091D01*
X155452331Y-78693796D01*
X155567546Y-78607546D01*
X155653796Y-78492331D01*
X155702810Y-78360916D01*
X155744681Y-78304984D01*
X155810145Y-78280566D01*
X155878418Y-78295417D01*
X155906673Y-78316569D01*
X156020208Y-78430104D01*
X156156436Y-78529079D01*
X156199101Y-78584407D01*
X156205080Y-78654020D01*
X156172475Y-78715816D01*
X156148647Y-78734935D01*
X156031342Y-78807289D01*
X155907289Y-78931342D01*
X155815187Y-79080663D01*
X155815186Y-79080666D01*
X155760001Y-79247203D01*
X155760001Y-79247204D01*
X155760000Y-79247204D01*
X155749500Y-79349983D01*
X155749500Y-80049901D01*
X155740854Y-80079344D01*
X155734332Y-80109327D01*
X155730577Y-80114342D01*
X155729815Y-80116940D01*
X155713185Y-80137577D01*
X155580286Y-80270478D01*
X155580285Y-80270478D01*
X155580284Y-80270479D01*
X155468481Y-80382282D01*
X155468479Y-80382285D01*
X155441210Y-80429518D01*
X155441209Y-80429519D01*
X155389424Y-80519211D01*
X155389423Y-80519212D01*
X155371382Y-80586543D01*
X155348499Y-80671943D01*
X155348499Y-80671945D01*
X155348499Y-80840046D01*
X155348500Y-80840059D01*
X155348500Y-80899903D01*
X155328815Y-80966942D01*
X155276011Y-81012697D01*
X155206853Y-81022641D01*
X155143297Y-80993616D01*
X155136819Y-80987584D01*
X152437590Y-78288355D01*
X152437588Y-78288352D01*
X152318717Y-78169481D01*
X152318716Y-78169480D01*
X152211910Y-78107816D01*
X152211909Y-78107815D01*
X152181783Y-78090422D01*
X152125881Y-78075443D01*
X152029057Y-78049499D01*
X151870943Y-78049499D01*
X151863347Y-78049499D01*
X151863331Y-78049500D01*
X145099500Y-78049500D01*
X145032461Y-78029815D01*
X144986706Y-77977011D01*
X144975500Y-77925500D01*
X144975499Y-76502129D01*
X144975498Y-76502123D01*
X144975497Y-76502116D01*
X144969091Y-76442517D01*
X144947140Y-76383664D01*
X144918797Y-76307671D01*
X144918793Y-76307665D01*
X144912165Y-76298810D01*
X144887748Y-76233346D01*
X144902600Y-76165073D01*
X144952005Y-76115668D01*
X145011432Y-76100500D01*
X150013445Y-76100500D01*
X150080484Y-76120185D01*
G37*
%TD.AperFunction*%
%TA.AperFunction,Conductor*%
G36*
X172379068Y-79692137D02*
G01*
X172405427Y-79694023D01*
X172414480Y-79699841D01*
X172421521Y-79701373D01*
X172449775Y-79722524D01*
X172542874Y-79815623D01*
X172542890Y-79815637D01*
X172542897Y-79815644D01*
X172583115Y-79851771D01*
X172583127Y-79851781D01*
X172583135Y-79851788D01*
X172603777Y-79868422D01*
X172647661Y-79900067D01*
X172778538Y-79959838D01*
X172845577Y-79979523D01*
X172845581Y-79979524D01*
X172987997Y-80000000D01*
X174102991Y-80000000D01*
X174137566Y-80004917D01*
X174142987Y-80006492D01*
X174171525Y-80018840D01*
X174176109Y-80021551D01*
X174200654Y-80040593D01*
X174204404Y-80044343D01*
X174223454Y-80068901D01*
X174226155Y-80073468D01*
X174238496Y-80101981D01*
X174240072Y-80107403D01*
X174245000Y-80142013D01*
X174245000Y-80447986D01*
X174240075Y-80482585D01*
X174238501Y-80488002D01*
X174226158Y-80516524D01*
X174184749Y-80586543D01*
X174181189Y-80592208D01*
X174173783Y-80603316D01*
X174170710Y-80609205D01*
X174170669Y-80609184D01*
X174170114Y-80610347D01*
X174170337Y-80610459D01*
X174168849Y-80613432D01*
X174168848Y-80613435D01*
X174127557Y-80695976D01*
X174079962Y-80747125D01*
X174016660Y-80764500D01*
X172629499Y-80764500D01*
X172562460Y-80744815D01*
X172516705Y-80692011D01*
X172505499Y-80640500D01*
X172505499Y-80502129D01*
X172505498Y-80502123D01*
X172499091Y-80442516D01*
X172448797Y-80307671D01*
X172448793Y-80307664D01*
X172362547Y-80192455D01*
X172362544Y-80192452D01*
X172353760Y-80185876D01*
X172311891Y-80129941D01*
X172304252Y-80093249D01*
X172303915Y-80086955D01*
X172302103Y-80053157D01*
X172299269Y-80026799D01*
X172290614Y-79973387D01*
X172290611Y-79973378D01*
X172245913Y-79853539D01*
X172245267Y-79844509D01*
X172240928Y-79836563D01*
X172242813Y-79810202D01*
X172240928Y-79783848D01*
X172245266Y-79775903D01*
X172245912Y-79766871D01*
X172261748Y-79745716D01*
X172274412Y-79722524D01*
X172282359Y-79718184D01*
X172287784Y-79710938D01*
X172312540Y-79701704D01*
X172335735Y-79689039D01*
X172344765Y-79689684D01*
X172353248Y-79686521D01*
X172379068Y-79692137D01*
G37*
%TD.AperFunction*%
%TA.AperFunction,Conductor*%
G36*
X171325813Y-76120185D02*
G01*
X171371568Y-76172989D01*
X171381512Y-76242147D01*
X171352487Y-76305703D01*
X171352486Y-76305703D01*
X171284934Y-76383660D01*
X171284929Y-76383668D01*
X171225163Y-76514534D01*
X171205475Y-76581582D01*
X171184999Y-76724001D01*
X171184999Y-78197004D01*
X171187896Y-78251052D01*
X171187896Y-78251053D01*
X171190728Y-78277386D01*
X171190731Y-78277413D01*
X171199384Y-78330809D01*
X171199384Y-78330811D01*
X171244086Y-78450658D01*
X171249070Y-78520349D01*
X171215586Y-78581673D01*
X171154263Y-78615158D01*
X171084571Y-78610174D01*
X171040223Y-78581673D01*
X170887929Y-78429379D01*
X170847685Y-78393229D01*
X170847679Y-78393223D01*
X170827038Y-78376589D01*
X170783135Y-78344930D01*
X170783130Y-78344927D01*
X170695667Y-78304984D01*
X170652254Y-78285158D01*
X170652252Y-78285157D01*
X170652249Y-78285156D01*
X170609056Y-78272474D01*
X170585215Y-78265474D01*
X170585212Y-78265473D01*
X170585207Y-78265472D01*
X170442801Y-78244999D01*
X169578244Y-78244999D01*
X169511205Y-78225314D01*
X169465450Y-78172510D01*
X169440857Y-78118660D01*
X169425439Y-78090423D01*
X169423945Y-78087686D01*
X169423936Y-78087672D01*
X169384943Y-78026998D01*
X169283211Y-77925268D01*
X169283206Y-77925263D01*
X169283200Y-77925258D01*
X169283196Y-77925255D01*
X169227273Y-77883393D01*
X169227274Y-77883393D01*
X169227272Y-77883392D01*
X169202342Y-77869779D01*
X169177823Y-77856391D01*
X169128418Y-77806986D01*
X169113566Y-77738713D01*
X169116680Y-77718596D01*
X169117238Y-77716265D01*
X169117246Y-77716243D01*
X169150500Y-77506287D01*
X169150500Y-77293713D01*
X169117246Y-77083757D01*
X169051557Y-76881588D01*
X168955051Y-76692184D01*
X168955049Y-76692181D01*
X168955048Y-76692179D01*
X168830109Y-76520213D01*
X168679792Y-76369896D01*
X168617748Y-76324819D01*
X168575082Y-76269489D01*
X168569103Y-76199876D01*
X168601708Y-76138080D01*
X168662547Y-76103723D01*
X168690633Y-76100500D01*
X171258774Y-76100500D01*
X171325813Y-76120185D01*
G37*
%TD.AperFunction*%
%TD*%
M02*
