%TF.GenerationSoftware,KiCad,Pcbnew,9.0.3*%
%TF.CreationDate,2025-08-16T12:14:02+01:00*%
%TF.ProjectId,cheetoPet,63686565-746f-4506-9574-2e6b69636164,rev?*%
%TF.SameCoordinates,Original*%
%TF.FileFunction,Soldermask,Top*%
%TF.FilePolarity,Negative*%
%FSLAX46Y46*%
G04 Gerber Fmt 4.6, Leading zero omitted, Abs format (unit mm)*
G04 Created by KiCad (PCBNEW 9.0.3) date 2025-08-16 12:14:02*
%MOMM*%
%LPD*%
G01*
G04 APERTURE LIST*
G04 Aperture macros list*
%AMRoundRect*
0 Rectangle with rounded corners*
0 $1 Rounding radius*
0 $2 $3 $4 $5 $6 $7 $8 $9 X,Y pos of 4 corners*
0 Add a 4 corners polygon primitive as box body*
4,1,4,$2,$3,$4,$5,$6,$7,$8,$9,$2,$3,0*
0 Add four circle primitives for the rounded corners*
1,1,$1+$1,$2,$3*
1,1,$1+$1,$4,$5*
1,1,$1+$1,$6,$7*
1,1,$1+$1,$8,$9*
0 Add four rect primitives between the rounded corners*
20,1,$1+$1,$2,$3,$4,$5,0*
20,1,$1+$1,$4,$5,$6,$7,0*
20,1,$1+$1,$6,$7,$8,$9,0*
20,1,$1+$1,$8,$9,$2,$3,0*%
G04 Aperture macros list end*
%ADD10C,1.700000*%
%ADD11R,1.700000X1.700000*%
%ADD12R,1.600000X1.500000*%
%ADD13RoundRect,0.050000X-0.225000X-0.050000X0.225000X-0.050000X0.225000X0.050000X-0.225000X0.050000X0*%
%ADD14RoundRect,0.050000X0.050000X-0.225000X0.050000X0.225000X-0.050000X0.225000X-0.050000X-0.225000X0*%
%ADD15C,1.600000*%
%ADD16RoundRect,0.250001X0.499999X-0.499999X0.499999X0.499999X-0.499999X0.499999X-0.499999X-0.499999X0*%
%ADD17C,1.500000*%
%ADD18R,1.500000X1.050000*%
%ADD19O,1.500000X1.050000*%
%ADD20C,0.650000*%
%ADD21O,1.000000X1.600000*%
%ADD22O,1.000000X2.100000*%
G04 APERTURE END LIST*
D10*
%TO.C,SW4*%
X165260000Y-77400000D03*
X167800000Y-77400000D03*
D11*
X170340000Y-77400000D03*
%TD*%
D12*
%TO.C,SW1*%
X146050000Y-125800000D03*
X150550000Y-125800000D03*
%TD*%
D13*
%TO.C,U2*%
X156800000Y-100400000D03*
X156800000Y-100800000D03*
X156800000Y-101200000D03*
X156800000Y-101600000D03*
X156800000Y-102000000D03*
X156800000Y-102400000D03*
D14*
X157300000Y-102900000D03*
X157700000Y-102900000D03*
X158100000Y-102900000D03*
X158500000Y-102900000D03*
X158900000Y-102900000D03*
X159300000Y-102900000D03*
D13*
X159800000Y-102400000D03*
X159800000Y-102000000D03*
X159800000Y-101600000D03*
X159800000Y-101200000D03*
X159800000Y-100800000D03*
X159800000Y-100400000D03*
D14*
X159300000Y-99900000D03*
X158900000Y-99900000D03*
X158500000Y-99900000D03*
X158100000Y-99900000D03*
X157700000Y-99900000D03*
X157300000Y-99900000D03*
%TD*%
D12*
%TO.C,SW3*%
X166050000Y-125800000D03*
X170550000Y-125800000D03*
%TD*%
%TO.C,SW2*%
X156050000Y-125800000D03*
X160550000Y-125800000D03*
%TD*%
D11*
%TO.C,J1*%
X154360000Y-77400000D03*
D10*
X156900000Y-77400000D03*
X159440000Y-77400000D03*
X161980000Y-77400000D03*
%TD*%
D15*
%TO.C,R6*%
X150710000Y-87400000D03*
X143090000Y-87400000D03*
%TD*%
%TO.C,R8*%
X143090000Y-84400000D03*
X150710000Y-84400000D03*
%TD*%
%TO.C,R3*%
X150700000Y-93400000D03*
X143080000Y-93400000D03*
%TD*%
D11*
%TO.C,J2*%
X167420000Y-100000000D03*
D10*
X169960000Y-100000000D03*
X172500000Y-100000000D03*
%TD*%
D16*
%TO.C,D1*%
X173500000Y-93620000D03*
D17*
X173500000Y-86000000D03*
%TD*%
D18*
%TO.C,U6*%
X170100000Y-86530000D03*
D19*
X170100000Y-87800000D03*
X170100000Y-89070000D03*
%TD*%
D15*
%TO.C,R2*%
X150700000Y-99400000D03*
X143080000Y-99400000D03*
%TD*%
%TO.C,R4*%
X150700000Y-90400000D03*
X143080000Y-90400000D03*
%TD*%
%TO.C,R7*%
X160510000Y-93400000D03*
X152890000Y-93400000D03*
%TD*%
%TO.C,C1*%
X159900000Y-79900000D03*
X162400000Y-79900000D03*
%TD*%
%TO.C,R5*%
X150700000Y-96400000D03*
X143080000Y-96400000D03*
%TD*%
D20*
%TO.C,P1*%
X161190000Y-124000000D03*
X155410000Y-124000000D03*
D21*
X162620000Y-127650000D03*
D22*
X162620000Y-123470000D03*
D21*
X153980000Y-127650000D03*
D22*
X153980000Y-123470000D03*
%TD*%
D11*
%TO.C,BT2*%
X143625000Y-81000000D03*
D10*
X146165000Y-81000000D03*
%TD*%
D15*
%TO.C,R9*%
X160510000Y-84400000D03*
X152890000Y-84400000D03*
%TD*%
%TO.C,R12*%
X160510000Y-90400000D03*
X152890000Y-90400000D03*
%TD*%
D11*
%TO.C,BT1*%
X143625000Y-77400000D03*
D10*
X146165000Y-77400000D03*
%TD*%
D15*
%TO.C,R10*%
X160510000Y-87400000D03*
X152890000Y-87400000D03*
%TD*%
M02*
