%TF.GenerationSoftware,KiCad,Pcbnew,9.0.3*%
%TF.CreationDate,2025-09-07T19:35:52+01:00*%
%TF.ProjectId,cheetoPet,63686565-746f-4506-9574-2e6b69636164,v0.2*%
%TF.SameCoordinates,Original*%
%TF.FileFunction,Profile,NP*%
%FSLAX46Y46*%
G04 Gerber Fmt 4.6, Leading zero omitted, Abs format (unit mm)*
G04 Created by KiCad (PCBNEW 9.0.3) date 2025-09-07 19:35:52*
%MOMM*%
%LPD*%
G01*
G04 APERTURE LIST*
%TA.AperFunction,Profile*%
%ADD10C,0.050000*%
%TD*%
G04 APERTURE END LIST*
D10*
X142457107Y-129200000D02*
X142300000Y-129200000D01*
X174500000Y-129200000D02*
X174150000Y-129200000D01*
X174150000Y-75600000D02*
X174500000Y-75600000D01*
X142457107Y-75600000D02*
X142300000Y-75600000D01*
X141300000Y-76600000D02*
G75*
G02*
X142300000Y-75600007I999993J0D01*
G01*
X174150000Y-129200000D02*
X173900000Y-129200000D01*
X175500000Y-128200000D02*
G75*
G02*
X174500000Y-129200000I-1000000J0D01*
G01*
X175000000Y-77300000D02*
G75*
G02*
X172696000Y-77300000I-1152000J0D01*
G01*
X172696000Y-77300000D02*
G75*
G02*
X175000000Y-77300000I1152000J0D01*
G01*
X142700000Y-129200000D02*
X142457107Y-129200000D01*
X141300000Y-128200000D02*
X141300000Y-76600000D01*
X173900000Y-129200000D02*
X142700000Y-129200000D01*
X174500000Y-75600000D02*
G75*
G02*
X175500000Y-76600000I0J-1000000D01*
G01*
X142300000Y-129200000D02*
G75*
G02*
X141299993Y-128200000I-7J1000000D01*
G01*
X175500000Y-76600000D02*
X175500000Y-128200000D01*
X142700000Y-75600000D02*
X173900000Y-75600000D01*
X142457107Y-75600000D02*
X142700000Y-75600000D01*
X144152000Y-127548000D02*
G75*
G02*
X141848000Y-127548000I-1152000J0D01*
G01*
X141848000Y-127548000D02*
G75*
G02*
X144152000Y-127548000I1152000J0D01*
G01*
X174150000Y-75600000D02*
X173900000Y-75600000D01*
M02*
