%TF.GenerationSoftware,KiCad,Pcbnew,9.0.3*%
%TF.CreationDate,2025-09-07T19:35:51+01:00*%
%TF.ProjectId,cheetoPet,63686565-746f-4506-9574-2e6b69636164,v0.2*%
%TF.SameCoordinates,Original*%
%TF.FileFunction,Copper,L1,Top*%
%TF.FilePolarity,Positive*%
%FSLAX46Y46*%
G04 Gerber Fmt 4.6, Leading zero omitted, Abs format (unit mm)*
G04 Created by KiCad (PCBNEW 9.0.3) date 2025-09-07 19:35:51*
%MOMM*%
%LPD*%
G01*
G04 APERTURE LIST*
G04 Aperture macros list*
%AMRoundRect*
0 Rectangle with rounded corners*
0 $1 Rounding radius*
0 $2 $3 $4 $5 $6 $7 $8 $9 X,Y pos of 4 corners*
0 Add a 4 corners polygon primitive as box body*
4,1,4,$2,$3,$4,$5,$6,$7,$8,$9,$2,$3,0*
0 Add four circle primitives for the rounded corners*
1,1,$1+$1,$2,$3*
1,1,$1+$1,$4,$5*
1,1,$1+$1,$6,$7*
1,1,$1+$1,$8,$9*
0 Add four rect primitives between the rounded corners*
20,1,$1+$1,$2,$3,$4,$5,0*
20,1,$1+$1,$4,$5,$6,$7,0*
20,1,$1+$1,$6,$7,$8,$9,0*
20,1,$1+$1,$8,$9,$2,$3,0*%
G04 Aperture macros list end*
%TA.AperFunction,SMDPad,CuDef*%
%ADD10R,1.600000X1.500000*%
%TD*%
%TA.AperFunction,SMDPad,CuDef*%
%ADD11RoundRect,0.050000X-0.225000X-0.050000X0.225000X-0.050000X0.225000X0.050000X-0.225000X0.050000X0*%
%TD*%
%TA.AperFunction,SMDPad,CuDef*%
%ADD12RoundRect,0.050000X0.050000X-0.225000X0.050000X0.225000X-0.050000X0.225000X-0.050000X-0.225000X0*%
%TD*%
%TA.AperFunction,SMDPad,CuDef*%
%ADD13RoundRect,0.250000X0.450000X-0.350000X0.450000X0.350000X-0.450000X0.350000X-0.450000X-0.350000X0*%
%TD*%
%TA.AperFunction,ComponentPad*%
%ADD14R,0.850000X0.850000*%
%TD*%
%TA.AperFunction,ComponentPad*%
%ADD15C,0.850000*%
%TD*%
%TA.AperFunction,SMDPad,CuDef*%
%ADD16RoundRect,0.250000X0.475000X-0.337500X0.475000X0.337500X-0.475000X0.337500X-0.475000X-0.337500X0*%
%TD*%
%TA.AperFunction,SMDPad,CuDef*%
%ADD17RoundRect,0.250000X-0.450000X0.350000X-0.450000X-0.350000X0.450000X-0.350000X0.450000X0.350000X0*%
%TD*%
%TA.AperFunction,SMDPad,CuDef*%
%ADD18RoundRect,0.250000X-0.337500X-0.475000X0.337500X-0.475000X0.337500X0.475000X-0.337500X0.475000X0*%
%TD*%
%TA.AperFunction,ComponentPad*%
%ADD19R,1.700000X1.700000*%
%TD*%
%TA.AperFunction,ComponentPad*%
%ADD20C,1.700000*%
%TD*%
%TA.AperFunction,HeatsinkPad*%
%ADD21C,0.500000*%
%TD*%
%TA.AperFunction,HeatsinkPad*%
%ADD22R,1.900000X2.900000*%
%TD*%
%TA.AperFunction,HeatsinkPad*%
%ADD23O,1.000000X1.600000*%
%TD*%
%TA.AperFunction,HeatsinkPad*%
%ADD24O,1.000000X2.100000*%
%TD*%
%TA.AperFunction,HeatsinkPad*%
%ADD25C,0.600000*%
%TD*%
%TA.AperFunction,ViaPad*%
%ADD26C,0.600000*%
%TD*%
%TA.AperFunction,Conductor*%
%ADD27C,0.200000*%
%TD*%
G04 APERTURE END LIST*
D10*
%TO.P,SW1,1,1*%
%TO.N,B*%
X146050000Y-125800000D03*
%TO.P,SW1,2,2*%
%TO.N,GND*%
X150550000Y-125800000D03*
%TD*%
D11*
%TO.P,U2,1,RESV_VDDIO*%
%TO.N,+3.3V*%
X156800000Y-100400000D03*
%TO.P,U2,2*%
%TO.N,N/C*%
X156800000Y-100800000D03*
%TO.P,U2,3*%
X156800000Y-101200000D03*
%TO.P,U2,4*%
X156800000Y-101600000D03*
%TO.P,U2,5*%
X156800000Y-102000000D03*
%TO.P,U2,6*%
X156800000Y-102400000D03*
D12*
%TO.P,U2,7,AUX_CL*%
%TO.N,unconnected-(U2-AUX_CL-Pad7)*%
X157300000Y-102900000D03*
%TO.P,U2,8,VDDIO*%
%TO.N,+3.3V*%
X157700000Y-102900000D03*
%TO.P,U2,9,AD0/MISO*%
X158100000Y-102900000D03*
%TO.P,U2,10,REGOUT*%
%TO.N,Net-(U2-REGOUT)*%
X158500000Y-102900000D03*
%TO.P,U2,11,FSYNC*%
%TO.N,GND*%
X158900000Y-102900000D03*
%TO.P,U2,12,INT*%
%TO.N,unconnected-(U2-INT-Pad12)*%
X159300000Y-102900000D03*
D11*
%TO.P,U2,13,VDD*%
%TO.N,+3.3V*%
X159800000Y-102400000D03*
%TO.P,U2,14*%
%TO.N,N/C*%
X159800000Y-102000000D03*
%TO.P,U2,15*%
X159800000Y-101600000D03*
%TO.P,U2,16*%
X159800000Y-101200000D03*
%TO.P,U2,17*%
X159800000Y-100800000D03*
%TO.P,U2,18,GND*%
%TO.N,GND*%
X159800000Y-100400000D03*
D12*
%TO.P,U2,19*%
%TO.N,N/C*%
X159300000Y-99900000D03*
%TO.P,U2,20,RESV_GND*%
%TO.N,GND*%
X158900000Y-99900000D03*
%TO.P,U2,21,AUX_DA*%
%TO.N,unconnected-(U2-AUX_DA-Pad21)*%
X158500000Y-99900000D03*
%TO.P,U2,22,~{CS}*%
%TO.N,+3.3V*%
X158100000Y-99900000D03*
%TO.P,U2,23,SCL/SCLK*%
%TO.N,SCL*%
X157700000Y-99900000D03*
%TO.P,U2,24,SDA/MOSI*%
%TO.N,SDA*%
X157300000Y-99900000D03*
%TD*%
D13*
%TO.P,R8,1*%
%TO.N,SDA*%
X147150000Y-99950000D03*
%TO.P,R8,2*%
%TO.N,+3.3V*%
X147150000Y-97950000D03*
%TD*%
D10*
%TO.P,SW3,1,1*%
%TO.N,A*%
X166050000Y-125800000D03*
%TO.P,SW3,2,2*%
%TO.N,GND*%
X170550000Y-125800000D03*
%TD*%
D14*
%TO.P,J4,1,Pin_1*%
%TO.N,GND*%
X168450000Y-96300000D03*
D15*
%TO.P,J4,2,Pin_2*%
%TO.N,+3.3V*%
X168450000Y-95300000D03*
%TO.P,J4,3,Pin_3*%
%TO.N,SCL*%
X169450000Y-96300000D03*
%TO.P,J4,4,Pin_4*%
%TO.N,SDA*%
X169450000Y-95300000D03*
%TO.P,J4,5,Pin_5*%
%TO.N,IO2*%
X170450000Y-96300000D03*
%TO.P,J4,6,Pin_6*%
%TO.N,IO0*%
X170450000Y-95300000D03*
%TO.P,J4,7,Pin_7*%
%TO.N,VI*%
X171450000Y-96300000D03*
%TO.P,J4,8,Pin_8*%
%TO.N,AIN3*%
X171450000Y-95300000D03*
%TO.P,J4,9,Pin_9*%
%TO.N,AIN2*%
X172450000Y-96300000D03*
%TO.P,J4,10,Pin_10*%
%TO.N,AIN1*%
X172450000Y-95300000D03*
%TO.P,J4,11,Pin_11*%
%TO.N,TXD*%
X173450000Y-96300000D03*
%TO.P,J4,12,Pin_12*%
%TO.N,RXD*%
X173450000Y-95300000D03*
%TD*%
D16*
%TO.P,C4,1*%
%TO.N,+3.3V*%
X162500000Y-94087500D03*
%TO.P,C4,2*%
%TO.N,GND*%
X162500000Y-92012500D03*
%TD*%
D13*
%TO.P,R13,1*%
%TO.N,GND*%
X145850000Y-112200000D03*
%TO.P,R13,2*%
%TO.N,IO2*%
X145850000Y-110200000D03*
%TD*%
D10*
%TO.P,SW2,1,1*%
%TO.N,X*%
X156050000Y-125800000D03*
%TO.P,SW2,2,2*%
%TO.N,GND*%
X160550000Y-125800000D03*
%TD*%
D13*
%TO.P,R9,1*%
%TO.N,Net-(P1-D-)*%
X149950000Y-119100000D03*
%TO.P,R9,2*%
%TO.N,D-*%
X149950000Y-117100000D03*
%TD*%
D16*
%TO.P,C3,1*%
%TO.N,+3.3V*%
X160500000Y-98037500D03*
%TO.P,C3,2*%
%TO.N,GND*%
X160500000Y-95962500D03*
%TD*%
D17*
%TO.P,R12,1*%
%TO.N,D+*%
X147900000Y-117100000D03*
%TO.P,R12,2*%
%TO.N,+3.3V*%
X147900000Y-119100000D03*
%TD*%
D18*
%TO.P,C2,1*%
%TO.N,Net-(U2-REGOUT)*%
X157212500Y-106050000D03*
%TO.P,C2,2*%
%TO.N,GND*%
X159287500Y-106050000D03*
%TD*%
D19*
%TO.P,J1,1,Pin_1*%
%TO.N,SDA*%
X154360000Y-77400000D03*
D20*
%TO.P,J1,2,Pin_2*%
%TO.N,SCL*%
X156900000Y-77400000D03*
%TO.P,J1,3,Pin_3*%
%TO.N,GND*%
X159440000Y-77400000D03*
%TO.P,J1,4,Pin_4*%
%TO.N,+3.3V*%
X161980000Y-77400000D03*
%TD*%
D13*
%TO.P,R10,1*%
%TO.N,Net-(P1-D+)*%
X145850000Y-119100000D03*
%TO.P,R10,2*%
%TO.N,D+*%
X145850000Y-117100000D03*
%TD*%
D19*
%TO.P,SW4,1,A*%
%TO.N,GND*%
X170340000Y-77400000D03*
D20*
%TO.P,SW4,2,B*%
%TO.N,Net-(SW4-B)*%
X167800000Y-77400000D03*
%TO.P,SW4,3,C*%
%TO.N,unconnected-(SW4-C-Pad3)*%
X165260000Y-77400000D03*
%TD*%
D21*
%TO.P,U3,9,EPAD*%
%TO.N,unconnected-(U3-EPAD-Pad9)*%
X171500000Y-83400000D03*
X171500000Y-82200000D03*
X171500000Y-81000000D03*
D22*
X170800000Y-82200000D03*
D21*
X170100000Y-83400000D03*
X170100000Y-82200000D03*
X170100000Y-81000000D03*
%TD*%
D23*
%TO.P,P1,S1,SHIELD*%
%TO.N,GND*%
X162620000Y-127650000D03*
D24*
X162620000Y-123470000D03*
D23*
X153980000Y-127650000D03*
D24*
X153980000Y-123470000D03*
%TD*%
D19*
%TO.P,BT2,1,+*%
%TO.N,Net-(BT2-+)*%
X143625000Y-81000000D03*
D20*
%TO.P,BT2,2,-*%
%TO.N,GND*%
X146165000Y-81000000D03*
%TD*%
D25*
%TO.P,U4,19,GND*%
%TO.N,GND*%
X152290000Y-114350000D03*
X152290000Y-113250000D03*
X151740000Y-114900000D03*
X151740000Y-113800000D03*
X151740000Y-112700000D03*
X151190000Y-114350000D03*
X151190000Y-113250000D03*
X150640000Y-114900000D03*
X150640000Y-113800000D03*
X150640000Y-112700000D03*
X150090000Y-114350000D03*
X150090000Y-113250000D03*
%TD*%
D19*
%TO.P,BT1,1,+*%
%TO.N,+BATT*%
X143625000Y-77400000D03*
D20*
%TO.P,BT1,2,-*%
%TO.N,GND*%
X146165000Y-77400000D03*
%TD*%
D26*
%TO.N,+BATT*%
X155300000Y-82000000D03*
X163650000Y-82450000D03*
X156750000Y-83900000D03*
X160800000Y-84900000D03*
%TO.N,GND*%
X155000000Y-115600000D03*
X161550000Y-122555000D03*
X168200000Y-92000000D03*
X163200000Y-114800000D03*
X167401001Y-84952381D03*
X168750000Y-88350000D03*
X159750000Y-80100000D03*
X155800000Y-78750000D03*
X173200000Y-121200000D03*
X170000000Y-104200000D03*
X170600000Y-106400000D03*
X159000000Y-98600000D03*
X163600000Y-86350000D03*
X171025000Y-89825000D03*
X150200000Y-101400000D03*
X145800000Y-123800000D03*
X164800000Y-112000000D03*
X166250000Y-84200000D03*
X159200000Y-127600000D03*
X165600000Y-114200000D03*
X153400000Y-108300000D03*
X149400000Y-85800000D03*
X148500000Y-126400000D03*
X173275000Y-82835000D03*
X152000000Y-104000000D03*
X155600000Y-99200000D03*
X166200000Y-102400000D03*
X150600000Y-109000000D03*
X170500000Y-119650000D03*
X153141401Y-119800000D03*
X143000000Y-105800000D03*
X172400000Y-91450000D03*
X168800000Y-102800000D03*
X160750000Y-91300000D03*
X158550000Y-106650000D03*
X158200000Y-120000000D03*
X160900000Y-119600000D03*
X144350000Y-102950000D03*
X156550000Y-91525000D03*
X144200000Y-92050000D03*
X174200000Y-86050000D03*
X165200000Y-85800000D03*
X148000000Y-95800000D03*
X150000000Y-123500000D03*
X160600000Y-125000000D03*
X173275000Y-80295000D03*
X163650000Y-106765000D03*
X158350000Y-85700000D03*
X153400000Y-95200000D03*
X152400000Y-97800000D03*
X170100000Y-89050000D03*
%TO.N,Net-(BT2-+)*%
X163600000Y-105400000D03*
%TO.N,+3.3V*%
X157700000Y-104400000D03*
X158874000Y-97800000D03*
X146000000Y-104100000D03*
X167150000Y-98550000D03*
X160600000Y-101600000D03*
X159900000Y-104250000D03*
X160300000Y-97999000D03*
X148700000Y-103900000D03*
%TO.N,SDA*%
X155200000Y-108600000D03*
X155200000Y-98000000D03*
X162200000Y-108600000D03*
X149200000Y-104600000D03*
X160900000Y-118100000D03*
X166450000Y-100850000D03*
X153000000Y-99600000D03*
X168200000Y-127800000D03*
%TO.N,SCL*%
X156900000Y-97800000D03*
X154800000Y-105800000D03*
X149000000Y-105400000D03*
X164200000Y-101800000D03*
X160764717Y-116050002D03*
X168330000Y-126530000D03*
%TO.N,VI*%
X171600000Y-85200000D03*
X165150000Y-104700000D03*
X160750000Y-122555000D03*
X168325000Y-80295000D03*
X173275000Y-84105000D03*
X173462500Y-92587500D03*
X157800000Y-124200000D03*
%TO.N,AIN1*%
X165691302Y-93914496D03*
X171150000Y-91950000D03*
X168741450Y-92591450D03*
X156700000Y-92750000D03*
X166575000Y-92175000D03*
X144550000Y-101450000D03*
%TO.N,TXD*%
X167400000Y-121300000D03*
%TO.N,Net-(U1-~{INT}{slash}SQW)*%
X143400000Y-112100000D03*
X173725000Y-117525000D03*
%TO.N,AIN3*%
X163050000Y-89600000D03*
X167850000Y-89650000D03*
X157950000Y-95150000D03*
X156650000Y-95350000D03*
X153450000Y-96600000D03*
X171150000Y-90698528D03*
%TO.N,Net-(P1-CC)*%
X158150000Y-112800000D03*
X159200000Y-115800000D03*
X159550000Y-120950000D03*
X151650000Y-108100000D03*
%TO.N,Net-(P1-D+)*%
X145850000Y-119100000D03*
%TO.N,Net-(P1-D-)*%
X149950000Y-119100000D03*
%TO.N,RXD*%
X143400000Y-118100000D03*
X167800000Y-122150000D03*
X145800000Y-122500000D03*
%TO.N,IO0*%
X169700000Y-93550000D03*
X163450000Y-98900000D03*
%TO.N,Net-(U3-PROG)*%
X165500000Y-87150000D03*
X173275000Y-81565000D03*
%TO.N,D-*%
X143400000Y-115100000D03*
%TO.N,D+*%
X143400000Y-113600000D03*
%TO.N,B*%
X160900000Y-112100000D03*
%TO.N,X*%
X160900000Y-113600000D03*
%TO.N,A*%
X160900000Y-115100000D03*
%TO.N,Net-(SW4-B)*%
X150900000Y-76500000D03*
X144700000Y-79600000D03*
%TO.N,IO2*%
X143400000Y-110600000D03*
X155950000Y-111650000D03*
X158200000Y-109050000D03*
X171950000Y-100350000D03*
%TO.N,Net-(U3-~{CHRG})*%
X160900000Y-110600000D03*
X161100000Y-99850000D03*
X163050000Y-88200000D03*
X163450000Y-95382900D03*
%TO.N,Net-(U3-~{STDBY})*%
X163800000Y-83400000D03*
X161465642Y-103643761D03*
X143400000Y-109100000D03*
X159624127Y-108626391D03*
%TO.N,AIN2*%
X156700000Y-94050000D03*
X171500000Y-98200000D03*
X169700000Y-97650000D03*
X155200000Y-94050000D03*
%TD*%
D27*
%TO.N,Net-(SW4-B)*%
X147400000Y-79000000D02*
X148400000Y-79000000D01*
X146900000Y-79500000D02*
X147400000Y-79000000D01*
X148400000Y-79000000D02*
X150900000Y-76500000D01*
X144800000Y-79500000D02*
X146900000Y-79500000D01*
X144700000Y-79600000D02*
X144800000Y-79500000D01*
%TO.N,+BATT*%
X155300000Y-82450000D02*
X156750000Y-83900000D01*
X155300000Y-82000000D02*
X155300000Y-82450000D01*
X156750000Y-83900000D02*
X156800000Y-83950000D01*
X163250000Y-82450000D02*
X163650000Y-82450000D01*
X160800000Y-84900000D02*
X163250000Y-82450000D01*
%TO.N,GND*%
X172273000Y-80710043D02*
X172776507Y-81213550D01*
X160700000Y-76400000D02*
X160440000Y-76400000D01*
X159200000Y-99324000D02*
X159200000Y-98600000D01*
X166250000Y-84200000D02*
X165367100Y-84200000D01*
X164200000Y-115600000D02*
X165600000Y-114200000D01*
X172674000Y-81813943D02*
X173060057Y-82200000D01*
X159474000Y-98176000D02*
X159474000Y-97464840D01*
X160900000Y-119600000D02*
X161550000Y-120250000D01*
X159200000Y-99324000D02*
X159076000Y-99324000D01*
X158900000Y-102900000D02*
X158900000Y-103500000D01*
X161550000Y-120250000D02*
X161550000Y-122555000D01*
X159474000Y-97464840D02*
X159788840Y-97150000D01*
X160300000Y-97150000D02*
X160300000Y-97000000D01*
X159287500Y-103887500D02*
X159287500Y-106050000D01*
X173275000Y-80295000D02*
X173876000Y-80896000D01*
X165902000Y-80622150D02*
X165902000Y-79766100D01*
X167600000Y-84200000D02*
X166250000Y-84200000D01*
X165001000Y-81523150D02*
X165902000Y-80622150D01*
X164852043Y-106765000D02*
X168800000Y-102817043D01*
X173876000Y-82234000D02*
X173275000Y-82835000D01*
X159800000Y-99627226D02*
X159496774Y-99324000D01*
X165001000Y-83833900D02*
X165001000Y-81523150D01*
X158900000Y-99500000D02*
X158900000Y-99900000D01*
X172674000Y-81316057D02*
X172674000Y-81813943D01*
X172273000Y-80240100D02*
X172273000Y-80710043D01*
X170340000Y-77400000D02*
X169141000Y-76201000D01*
X173060057Y-82200000D02*
X173300000Y-82200000D01*
X163200000Y-114800000D02*
X164000000Y-115600000D01*
X169400000Y-88350000D02*
X170100000Y-89050000D01*
X173300000Y-82200000D02*
X173300000Y-82350000D01*
X165367100Y-84200000D02*
X165001000Y-83833900D01*
X164000000Y-115600000D02*
X164200000Y-115600000D01*
X159200000Y-98600000D02*
X159000000Y-98600000D01*
X171584900Y-79552000D02*
X172273000Y-80240100D01*
X165902000Y-79766100D02*
X166116100Y-79552000D01*
X159496774Y-99324000D02*
X159200000Y-99324000D01*
X163650000Y-106765000D02*
X164852043Y-106765000D01*
X167401001Y-84952381D02*
X167600000Y-84753382D01*
X172776507Y-81213550D02*
X172674000Y-81316057D01*
X159050000Y-98600000D02*
X159474000Y-98176000D01*
X160440000Y-76400000D02*
X159440000Y-77400000D01*
X158900000Y-103500000D02*
X159287500Y-103887500D01*
X169141000Y-76201000D02*
X160899000Y-76201000D01*
X160300000Y-97000000D02*
X160500000Y-96800000D01*
X159076000Y-99324000D02*
X158900000Y-99500000D01*
X173876000Y-80896000D02*
X173876000Y-82234000D01*
X173275000Y-82375000D02*
X173275000Y-82835000D01*
X159800000Y-100400000D02*
X159800000Y-99627226D01*
X166116100Y-79552000D02*
X171584900Y-79552000D01*
X168750000Y-88350000D02*
X169400000Y-88350000D01*
X173300000Y-82350000D02*
X173275000Y-82375000D01*
X159788840Y-97150000D02*
X160300000Y-97150000D01*
X159000000Y-98600000D02*
X159050000Y-98600000D01*
X160899000Y-76201000D02*
X160700000Y-76400000D01*
X160500000Y-96800000D02*
X160500000Y-95962500D01*
X167600000Y-84753382D02*
X167600000Y-84200000D01*
X168800000Y-102817043D02*
X168800000Y-102800000D01*
%TO.N,Net-(BT2-+)*%
X143625000Y-83025000D02*
X143625000Y-81000000D01*
X173523943Y-79694000D02*
X172906000Y-79694000D01*
X172826057Y-84506000D02*
X173026057Y-84706000D01*
X144599000Y-83999000D02*
X143625000Y-83025000D01*
X174299000Y-83930943D02*
X174299000Y-80469057D01*
X167203325Y-86000000D02*
X168001000Y-85202325D01*
X163600000Y-105400000D02*
X162066642Y-103866642D01*
X162066642Y-103866642D02*
X162066642Y-103609861D01*
X153209000Y-77983900D02*
X147193900Y-83999000D01*
X162201000Y-103475503D02*
X162201000Y-98699000D01*
X173026057Y-84706000D02*
X173523943Y-84706000D01*
X158051000Y-76923240D02*
X157376760Y-76249000D01*
X162201000Y-98699000D02*
X167201000Y-93699000D01*
X173523943Y-84706000D02*
X174299000Y-83930943D01*
X174299000Y-80469057D02*
X173523943Y-79694000D01*
X172906000Y-79694000D02*
X172883550Y-79716450D01*
X167201000Y-93699000D02*
X167201000Y-86000000D01*
X153209000Y-76249000D02*
X153209000Y-77983900D01*
X167201000Y-86000000D02*
X167203325Y-86000000D01*
X157376760Y-76249000D02*
X153209000Y-76249000D01*
X171917100Y-78750000D02*
X158924240Y-78750000D01*
X172883550Y-79716450D02*
X171917100Y-78750000D01*
X158051000Y-77876760D02*
X158051000Y-76923240D01*
X168001000Y-84799000D02*
X168294000Y-84506000D01*
X168001000Y-85202325D02*
X168001000Y-84799000D01*
X158924240Y-78750000D02*
X158051000Y-77876760D01*
X147193900Y-83999000D02*
X144599000Y-83999000D01*
X168294000Y-84506000D02*
X172826057Y-84506000D01*
X162066642Y-103609861D02*
X162201000Y-103475503D01*
%TO.N,+3.3V*%
X155000000Y-104400000D02*
X155000000Y-100400000D01*
X157700000Y-104700000D02*
X157600000Y-104800000D01*
X150243950Y-95299000D02*
X151156050Y-95299000D01*
X150635160Y-120001000D02*
X150951000Y-119685160D01*
X148700000Y-96842950D02*
X150243950Y-95299000D01*
X155000000Y-99142950D02*
X155000000Y-100400000D01*
X143648943Y-111499000D02*
X142949000Y-111499000D01*
X142949000Y-111499000D02*
X142058107Y-110608107D01*
X147150000Y-97950000D02*
X148700000Y-97950000D01*
X150486160Y-116050000D02*
X147050000Y-116050000D01*
X167998000Y-95300000D02*
X166851000Y-96447000D01*
X150951000Y-119685160D02*
X150951000Y-116514840D01*
X162500000Y-96037500D02*
X160500000Y-98037500D01*
X162500000Y-94087500D02*
X162500000Y-96037500D01*
X158874000Y-97800000D02*
X158550000Y-97800000D01*
X147050000Y-116050000D02*
X144001000Y-113001000D01*
X150951000Y-116514840D02*
X150486160Y-116050000D01*
X160600000Y-101600000D02*
X160800000Y-101600000D01*
X142058107Y-110608107D02*
X142058107Y-104900000D01*
X159900000Y-104250000D02*
X159900000Y-103350000D01*
X157800000Y-98550000D02*
X157800000Y-98800000D01*
X148801000Y-120001000D02*
X150635160Y-120001000D01*
X148700000Y-97950000D02*
X148700000Y-96842950D01*
X155000000Y-100400000D02*
X156800000Y-100400000D01*
X160600000Y-102650000D02*
X160600000Y-101600000D01*
X160500000Y-101500000D02*
X160600000Y-101600000D01*
X158067100Y-99300000D02*
X158100000Y-99300000D01*
X142058107Y-104900000D02*
X142858107Y-104100000D01*
X166901000Y-98550000D02*
X167150000Y-98550000D01*
X155400000Y-104800000D02*
X155000000Y-104400000D01*
X144001000Y-113001000D02*
X144001000Y-111851057D01*
X168450000Y-95300000D02*
X167998000Y-95300000D01*
X157700000Y-102900000D02*
X157700000Y-104400000D01*
X144001000Y-111851057D02*
X143648943Y-111499000D01*
X166851000Y-98500000D02*
X166901000Y-98550000D01*
X160200000Y-102400000D02*
X160600000Y-102000000D01*
X157800000Y-98800000D02*
X157683550Y-98916450D01*
X148700000Y-103900000D02*
X148700000Y-97950000D01*
X160600000Y-102000000D02*
X160600000Y-101600000D01*
X142858107Y-104100000D02*
X146000000Y-104100000D01*
X166851000Y-96447000D02*
X166851000Y-98500000D01*
X160500000Y-98037500D02*
X160500000Y-101500000D01*
X158100000Y-102900000D02*
X157700000Y-102900000D01*
X157600000Y-104800000D02*
X155400000Y-104800000D01*
X159800000Y-102400000D02*
X160200000Y-102400000D01*
X151156050Y-95299000D02*
X155000000Y-99142950D01*
X167150000Y-98550000D02*
X167200000Y-98550000D01*
X158550000Y-97800000D02*
X157800000Y-98550000D01*
X157683550Y-98916450D02*
X158067100Y-99300000D01*
X159900000Y-103350000D02*
X160600000Y-102650000D01*
X158100000Y-99300000D02*
X158100000Y-99900000D01*
X147900000Y-119100000D02*
X148801000Y-120001000D01*
X157700000Y-104400000D02*
X157700000Y-104700000D01*
%TO.N,Net-(U2-REGOUT)*%
X158500000Y-102900000D02*
X158500000Y-104762500D01*
X158500000Y-104762500D02*
X157212500Y-106050000D01*
%TO.N,SDA*%
X155200000Y-108600000D02*
X155801000Y-107999000D01*
X156300000Y-96900000D02*
X157350000Y-95850000D01*
X160900000Y-118100000D02*
X164200000Y-121400000D01*
X166450000Y-96273280D02*
X166450000Y-100850000D01*
X169450000Y-94698960D02*
X169325040Y-94574000D01*
X157350000Y-81750000D02*
X154360000Y-78760000D01*
X160651057Y-108499000D02*
X162099000Y-108499000D01*
X153000000Y-99600000D02*
X153000000Y-100800000D01*
X159790347Y-109359710D02*
X160651057Y-108499000D01*
X168200000Y-127800000D02*
X165330900Y-127800000D01*
X159507503Y-109359710D02*
X159790347Y-109359710D01*
X164200000Y-121400000D02*
X164200000Y-121600000D01*
X169450000Y-95300000D02*
X169450000Y-94698960D01*
X156300000Y-98900000D02*
X156300000Y-96900000D01*
X157300000Y-99900000D02*
X155400000Y-98000000D01*
X157350000Y-95850000D02*
X157350000Y-81750000D01*
X155801000Y-107999000D02*
X158146793Y-107999000D01*
X157300000Y-99900000D02*
X156300000Y-98900000D01*
X169325040Y-94574000D02*
X168149280Y-94574000D01*
X158146793Y-107999000D02*
X159507503Y-109359710D01*
X168149280Y-94574000D02*
X166450000Y-96273280D01*
X155400000Y-98000000D02*
X155200000Y-98000000D01*
X164200000Y-126669100D02*
X164200000Y-121600000D01*
X147150000Y-103199943D02*
X148550057Y-104600000D01*
X147150000Y-99950000D02*
X147150000Y-103199943D01*
X162099000Y-108499000D02*
X162200000Y-108600000D01*
X148550057Y-104600000D02*
X149200000Y-104600000D01*
X154360000Y-78760000D02*
X154360000Y-77400000D01*
X153000000Y-100800000D02*
X149200000Y-104600000D01*
X165330900Y-127800000D02*
X164200000Y-126669100D01*
%TO.N,SCL*%
X166675000Y-103725000D02*
X169366120Y-101033880D01*
X171149280Y-97026000D02*
X170950000Y-96826720D01*
X169724000Y-96600720D02*
X169724000Y-96300000D01*
X171111000Y-100476760D02*
X171111000Y-99523240D01*
X154800000Y-105800000D02*
X149400000Y-105800000D01*
X173651000Y-101698943D02*
X173651000Y-99523240D01*
X172150000Y-97800000D02*
X171376000Y-97026000D01*
X157200000Y-98100000D02*
X157200000Y-99000000D01*
X169483240Y-101151000D02*
X170436760Y-101151000D01*
X165749944Y-105300000D02*
X166675000Y-104374944D01*
X170950000Y-96826720D02*
X170750720Y-97026000D01*
X160651057Y-114201000D02*
X161148943Y-114201000D01*
X170149280Y-97026000D02*
X169724000Y-96600720D01*
X161148943Y-114201000D02*
X173651000Y-101698943D01*
X171376000Y-97026000D02*
X171149280Y-97026000D01*
X169366120Y-101033880D02*
X169483240Y-101151000D01*
X170750720Y-97026000D02*
X170149280Y-97026000D01*
X169724000Y-96300000D02*
X169450000Y-96300000D01*
X156900000Y-97800000D02*
X157200000Y-98100000D01*
X159800000Y-115052057D02*
X160651057Y-114201000D01*
X164800000Y-120500000D02*
X164800000Y-126702000D01*
X160350002Y-116050002D02*
X159800000Y-115500000D01*
X173651000Y-99523240D02*
X172976760Y-98849000D01*
X170436760Y-101151000D02*
X171111000Y-100476760D01*
X159800000Y-115500000D02*
X159800000Y-115052057D01*
X149400000Y-105800000D02*
X149000000Y-105400000D01*
X168009000Y-126851000D02*
X168330000Y-126530000D01*
X172023240Y-98849000D02*
X171911120Y-98961120D01*
X172150000Y-98722240D02*
X172150000Y-97800000D01*
X160764717Y-116050002D02*
X160350002Y-116050002D01*
X171111000Y-99523240D02*
X171349000Y-99523240D01*
X160764717Y-116464717D02*
X164800000Y-120500000D01*
X164200000Y-105050000D02*
X164450000Y-105300000D01*
X166675000Y-104374944D02*
X166675000Y-103725000D01*
X171911120Y-98961120D02*
X172150000Y-98722240D01*
X164450000Y-105300000D02*
X165749944Y-105300000D01*
X157200000Y-99000000D02*
X157700000Y-99500000D01*
X172976760Y-98849000D02*
X172023240Y-98849000D01*
X171349000Y-99523240D02*
X171911120Y-98961120D01*
X164800000Y-126702000D02*
X164949000Y-126851000D01*
X164200000Y-101800000D02*
X164200000Y-105050000D01*
X157700000Y-99500000D02*
X157700000Y-99900000D01*
X160764717Y-116050002D02*
X160764717Y-116464717D01*
X164949000Y-126851000D02*
X168009000Y-126851000D01*
%TO.N,VI*%
X166049000Y-96651000D02*
X166049000Y-96107180D01*
X166303000Y-79953000D02*
X168153000Y-79953000D01*
X167367100Y-83632900D02*
X167132200Y-83398000D01*
X166303000Y-80788250D02*
X166303000Y-79953000D01*
X165402000Y-81689250D02*
X166303000Y-80788250D01*
X168153000Y-79953000D02*
X168325000Y-80125000D01*
X167983180Y-94173000D02*
X169491140Y-94173000D01*
X169618140Y-94300000D02*
X170200000Y-94300000D01*
X173462500Y-92587500D02*
X171787500Y-92587500D01*
X165402000Y-83398000D02*
X165402000Y-81689250D01*
X168072100Y-84105000D02*
X167600000Y-83632900D01*
X171750000Y-92550000D02*
X171750000Y-85200000D01*
X171750000Y-85200000D02*
X171600000Y-85200000D01*
X166049000Y-96107180D02*
X167983180Y-94173000D01*
X165150000Y-104700000D02*
X165230561Y-104619439D01*
X168325000Y-80125000D02*
X168325000Y-80295000D01*
X165600000Y-104000000D02*
X165600000Y-97100000D01*
X170200000Y-94300000D02*
X171750000Y-92750000D01*
X157800000Y-124200000D02*
X159445000Y-122555000D01*
X171787500Y-92587500D02*
X171750000Y-92550000D01*
X165230561Y-104369439D02*
X165600000Y-104000000D01*
X167600000Y-83632900D02*
X167367100Y-83632900D01*
X165230561Y-104619439D02*
X165230561Y-104369439D01*
X167132200Y-83398000D02*
X165402000Y-83398000D01*
X159445000Y-122555000D02*
X160750000Y-122555000D01*
X165600000Y-97100000D02*
X166049000Y-96651000D01*
X173275000Y-84105000D02*
X168072100Y-84105000D01*
X171750000Y-92750000D02*
X171750000Y-92550000D01*
X169491140Y-94173000D02*
X169618140Y-94300000D01*
%TO.N,AIN1*%
X165691302Y-93914496D02*
X166116450Y-93489348D01*
X144550000Y-101450000D02*
X144550000Y-98400057D01*
X166116450Y-93489348D02*
X166116450Y-92633550D01*
X170158550Y-92591450D02*
X168741450Y-92591450D01*
X150200057Y-92750000D02*
X155050000Y-92750000D01*
X166575000Y-92175000D02*
X166600000Y-92150000D01*
X166116450Y-92633550D02*
X166575000Y-92175000D01*
X171150000Y-91950000D02*
X170800000Y-91950000D01*
X156700000Y-92750000D02*
X156800000Y-92750000D01*
X155050000Y-92750000D02*
X156700000Y-92750000D01*
X170800000Y-91950000D02*
X170158550Y-92591450D01*
X144550000Y-98400057D02*
X150200057Y-92750000D01*
%TO.N,TXD*%
X174050000Y-96900000D02*
X174050000Y-99355140D01*
X174052000Y-101865043D02*
X174148000Y-101961043D01*
X173450000Y-96300000D02*
X174050000Y-96900000D01*
X174052000Y-99357140D02*
X174052000Y-101865043D01*
X174148000Y-113852000D02*
X167400000Y-120600000D01*
X174148000Y-101961043D02*
X174148000Y-113852000D01*
X167400000Y-120600000D02*
X167400000Y-121300000D01*
X174050000Y-99355140D02*
X174052000Y-99357140D01*
%TO.N,Net-(U1-~{INT}{slash}SQW)*%
X154311785Y-126549000D02*
X153648215Y-126549000D01*
X168250943Y-128599000D02*
X165001785Y-128599000D01*
X161600000Y-127237215D02*
X161600000Y-128599000D01*
X162288215Y-126549000D02*
X161600000Y-127237215D01*
X171609200Y-117525000D02*
X168931000Y-120203200D01*
X168931000Y-127918943D02*
X168250943Y-128599000D01*
X153648215Y-126549000D02*
X152600000Y-127597215D01*
X156361785Y-128599000D02*
X154311785Y-126549000D01*
X142301000Y-113199000D02*
X143400000Y-112100000D01*
X151600000Y-128599000D02*
X146873321Y-128599000D01*
X152600000Y-127599000D02*
X151600000Y-128599000D01*
X152600000Y-127597215D02*
X152600000Y-127599000D01*
X173725000Y-117525000D02*
X171609200Y-117525000D01*
X162951785Y-126549000D02*
X162288215Y-126549000D01*
X161600000Y-128599000D02*
X156361785Y-128599000D01*
X168931000Y-120203200D02*
X168931000Y-127918943D01*
X165001785Y-128599000D02*
X162951785Y-126549000D01*
X142301000Y-124026679D02*
X142301000Y-113199000D01*
X146873321Y-128599000D02*
X142301000Y-124026679D01*
%TO.N,AIN3*%
X157800000Y-95150000D02*
X157950000Y-95150000D01*
X155152000Y-94898000D02*
X153450000Y-96600000D01*
X159750000Y-90750000D02*
X157800000Y-92700000D01*
X160900000Y-89600000D02*
X159750000Y-90750000D01*
X170648528Y-90698528D02*
X169600000Y-89650000D01*
X156650000Y-95350000D02*
X156198000Y-94898000D01*
X156198000Y-94898000D02*
X155152000Y-94898000D01*
X157800000Y-92700000D02*
X157800000Y-95150000D01*
X171150000Y-90698528D02*
X170648528Y-90698528D01*
X169600000Y-89650000D02*
X167850000Y-89650000D01*
X163050000Y-89600000D02*
X160900000Y-89600000D01*
%TO.N,Net-(P1-CC)*%
X154599000Y-108351057D02*
X154750028Y-108200028D01*
X158150000Y-112800000D02*
X158150000Y-111600000D01*
X159200000Y-115800000D02*
X158700000Y-116300000D01*
X151650000Y-108100000D02*
X151600000Y-108100000D01*
X158700000Y-116300000D02*
X158700000Y-116500000D01*
X155599971Y-109049971D02*
X155448943Y-109201000D01*
X154951057Y-109201000D02*
X154599000Y-108848943D01*
X155448943Y-109201000D02*
X154951057Y-109201000D01*
X154599000Y-108848943D02*
X154599000Y-108351057D01*
X158700000Y-116500000D02*
X159100000Y-116900000D01*
X153950000Y-107400000D02*
X152350000Y-107400000D01*
X159100000Y-116900000D02*
X159100000Y-120500000D01*
X154750028Y-108200028D02*
X153950000Y-107400000D01*
X158150000Y-111600000D02*
X155599971Y-109049971D01*
X159100000Y-120500000D02*
X159550000Y-120950000D01*
X152350000Y-107400000D02*
X151650000Y-108100000D01*
%TO.N,RXD*%
X173516100Y-115051000D02*
X168100000Y-120467100D01*
X168100000Y-120467100D02*
X168100000Y-121750000D01*
X173450000Y-95300000D02*
X173476720Y-95300000D01*
X173476720Y-95300000D02*
X174549000Y-96372280D01*
X143400000Y-120100000D02*
X145800000Y-122500000D01*
X143400000Y-118100000D02*
X143400000Y-120100000D01*
X174549000Y-96372280D02*
X174549000Y-114718100D01*
X174549000Y-114718100D02*
X174216100Y-115051000D01*
X174216100Y-115051000D02*
X173516100Y-115051000D01*
X168100000Y-121750000D02*
X167850000Y-122000000D01*
%TO.N,IO0*%
X163450000Y-98900000D02*
X164250000Y-98100000D01*
X164250000Y-98100000D02*
X164250000Y-97217100D01*
X167917100Y-93550000D02*
X169700000Y-93550000D01*
X164250000Y-97217100D02*
X167917100Y-93550000D01*
%TO.N,Net-(U3-PROG)*%
X171550000Y-79151000D02*
X165950000Y-79151000D01*
X173026057Y-80896000D02*
X172674000Y-80543943D01*
X172674000Y-80074000D02*
X171751000Y-79151000D01*
X173275000Y-81565000D02*
X173275000Y-81144943D01*
X164600000Y-80501000D02*
X164600000Y-86250000D01*
X164600000Y-86250000D02*
X165500000Y-87150000D01*
X171751000Y-79151000D02*
X171550000Y-79151000D01*
X165950000Y-79151000D02*
X164600000Y-80501000D01*
X172674000Y-80543943D02*
X172674000Y-80074000D01*
X173275000Y-81144943D02*
X173026057Y-80896000D01*
%TO.N,D-*%
X143400000Y-115100000D02*
X143400000Y-116236160D01*
X145164840Y-118001000D02*
X149049000Y-118001000D01*
X149049000Y-118001000D02*
X149950000Y-117100000D01*
X143400000Y-116236160D02*
X145164840Y-118001000D01*
%TO.N,D+*%
X145850000Y-117100000D02*
X147900000Y-117100000D01*
X143400000Y-113600000D02*
X145850000Y-116050000D01*
X145850000Y-116050000D02*
X145850000Y-117100000D01*
%TO.N,B*%
X157116450Y-113716450D02*
X158916450Y-113716450D01*
X160532900Y-112100000D02*
X160900000Y-112100000D01*
X155799000Y-120400000D02*
X155799000Y-115033900D01*
X155799000Y-115033900D02*
X157116450Y-113716450D01*
X146050000Y-125800000D02*
X151450000Y-120400000D01*
X151450000Y-120400000D02*
X155799000Y-120400000D01*
X158916450Y-113716450D02*
X160532900Y-112100000D01*
%TO.N,X*%
X159600000Y-113600000D02*
X160900000Y-113600000D01*
X156050000Y-125800000D02*
X156200000Y-125650000D01*
X156200000Y-115200000D02*
X157200000Y-114200000D01*
X157200000Y-114200000D02*
X159000000Y-114200000D01*
X156200000Y-125650000D02*
X156200000Y-115200000D01*
X159000000Y-114200000D02*
X159600000Y-113600000D01*
%TO.N,A*%
X166050000Y-120250000D02*
X166050000Y-125800000D01*
X160900000Y-115100000D02*
X166050000Y-120250000D01*
%TO.N,IO2*%
X161799943Y-111250000D02*
X171950000Y-101099943D01*
X154550000Y-110200000D02*
X155950000Y-111600000D01*
X145450000Y-110600000D02*
X145850000Y-110200000D01*
X145850000Y-110200000D02*
X154550000Y-110200000D01*
X160400000Y-111250000D02*
X161799943Y-111250000D01*
X171950000Y-101099943D02*
X171950000Y-100350000D01*
X143400000Y-110600000D02*
X145450000Y-110600000D01*
X158200000Y-109050000D02*
X160400000Y-111250000D01*
%TO.N,Net-(U3-~{CHRG})*%
X161201000Y-99951000D02*
X161100000Y-99850000D01*
X163650000Y-95182900D02*
X163450000Y-95382900D01*
X160900000Y-110600000D02*
X161049943Y-110600000D01*
X161049943Y-110600000D02*
X162801000Y-108848943D01*
X162801000Y-108848943D02*
X162801000Y-105829062D01*
X160864642Y-102983358D02*
X161201000Y-102647000D01*
X161201000Y-102647000D02*
X161201000Y-99951000D01*
X163650000Y-88800000D02*
X163650000Y-95182900D01*
X160864642Y-103892704D02*
X160864642Y-102983358D01*
X163050000Y-88200000D02*
X163650000Y-88800000D01*
X162801000Y-105829062D02*
X160864642Y-103892704D01*
%TO.N,Net-(U3-~{STDBY})*%
X161800000Y-103309403D02*
X161800000Y-98100000D01*
X164200000Y-95700000D02*
X164200000Y-83800000D01*
X159624127Y-108626391D02*
X159800000Y-108450518D01*
X158973943Y-107076000D02*
X158798943Y-107251000D01*
X157785160Y-107076000D02*
X156639840Y-107076000D01*
X148032900Y-107200000D02*
X145300000Y-107200000D01*
X158301057Y-107251000D02*
X157955608Y-106905551D01*
X156363840Y-106800000D02*
X148432900Y-106800000D01*
X148432900Y-106800000D02*
X148032900Y-107200000D01*
X145300000Y-107200000D02*
X143400000Y-109100000D01*
X157955608Y-106905551D02*
X157785160Y-107076000D01*
X164200000Y-83800000D02*
X163800000Y-83400000D01*
X161800000Y-98100000D02*
X164200000Y-95700000D01*
X158798943Y-107251000D02*
X158301057Y-107251000D01*
X156639840Y-107076000D02*
X156363840Y-106800000D01*
X161465642Y-103643761D02*
X161800000Y-103309403D01*
X159800000Y-107076000D02*
X158973943Y-107076000D01*
X159800000Y-108450518D02*
X159800000Y-107076000D01*
%TO.N,AIN2*%
X171600000Y-98100000D02*
X171500000Y-98200000D01*
X172450000Y-96300000D02*
X172450000Y-96326720D01*
X171250000Y-97650000D02*
X171500000Y-97900000D01*
X156700000Y-94050000D02*
X156850000Y-94050000D01*
X171500000Y-97900000D02*
X171600000Y-98000000D01*
X169700000Y-97650000D02*
X171250000Y-97650000D01*
X155200000Y-94050000D02*
X156700000Y-94050000D01*
X171600000Y-98000000D02*
X171600000Y-98100000D01*
%TD*%
%TA.AperFunction,Conductor*%
%TO.N,unconnected-(U3-EPAD-Pad9)*%
G36*
X171351842Y-80172185D02*
G01*
X171372484Y-80188819D01*
X171636181Y-80452516D01*
X171650884Y-80479443D01*
X171667477Y-80505262D01*
X171668368Y-80511462D01*
X171669666Y-80513839D01*
X171672500Y-80540197D01*
X171672500Y-80623373D01*
X171672499Y-80623391D01*
X171672499Y-80789097D01*
X171672498Y-80789097D01*
X171713423Y-80941828D01*
X171725978Y-80963573D01*
X171725979Y-80963576D01*
X171792475Y-81078752D01*
X171792481Y-81078760D01*
X171911349Y-81197628D01*
X171911355Y-81197633D01*
X172037181Y-81323459D01*
X172070666Y-81384782D01*
X172073500Y-81411140D01*
X172073500Y-81727273D01*
X172073499Y-81727291D01*
X172073499Y-81892997D01*
X172073498Y-81892997D01*
X172114423Y-82045728D01*
X172135783Y-82082723D01*
X172135784Y-82082727D01*
X172193475Y-82182652D01*
X172193481Y-82182660D01*
X172312349Y-82301528D01*
X172312355Y-82301533D01*
X172478033Y-82467211D01*
X172511518Y-82528534D01*
X172506723Y-82595576D01*
X172507032Y-82595670D01*
X172506619Y-82597029D01*
X172506534Y-82598226D01*
X172505323Y-82601301D01*
X172505261Y-82601505D01*
X172474500Y-82756153D01*
X172474500Y-82913846D01*
X172505261Y-83068489D01*
X172505264Y-83068501D01*
X172565602Y-83214172D01*
X172565609Y-83214185D01*
X172630706Y-83311609D01*
X172651584Y-83378287D01*
X172633099Y-83445667D01*
X172581121Y-83492357D01*
X172527604Y-83504500D01*
X168372197Y-83504500D01*
X168305158Y-83484815D01*
X168284516Y-83468181D01*
X168087590Y-83271255D01*
X168087588Y-83271252D01*
X167968717Y-83152381D01*
X167968716Y-83152380D01*
X167863914Y-83091873D01*
X167863913Y-83091872D01*
X167831783Y-83073322D01*
X167775881Y-83058343D01*
X167679057Y-83032399D01*
X167679054Y-83032399D01*
X167667197Y-83032399D01*
X167645097Y-83025909D01*
X167622146Y-83023926D01*
X167608920Y-83015286D01*
X167600158Y-83012714D01*
X167591424Y-83006554D01*
X167585135Y-83001699D01*
X167500916Y-82917480D01*
X167409444Y-82864669D01*
X167402248Y-82860514D01*
X167402245Y-82860512D01*
X167363990Y-82838425D01*
X167363989Y-82838424D01*
X167351463Y-82835067D01*
X167211257Y-82797499D01*
X167053143Y-82797499D01*
X167045547Y-82797499D01*
X167045531Y-82797500D01*
X166126500Y-82797500D01*
X166059461Y-82777815D01*
X166013706Y-82725011D01*
X166002500Y-82673500D01*
X166002500Y-81989346D01*
X166022185Y-81922307D01*
X166038815Y-81901669D01*
X166661506Y-81278977D01*
X166661511Y-81278974D01*
X166671714Y-81268770D01*
X166671716Y-81268770D01*
X166783520Y-81156966D01*
X166862577Y-81020034D01*
X166903500Y-80867307D01*
X166903500Y-80677500D01*
X166923185Y-80610461D01*
X166975989Y-80564706D01*
X167027500Y-80553500D01*
X167482766Y-80553500D01*
X167549805Y-80573185D01*
X167595560Y-80625989D01*
X167597309Y-80630005D01*
X167615603Y-80674172D01*
X167615608Y-80674183D01*
X167703210Y-80805288D01*
X167703213Y-80805292D01*
X167814707Y-80916786D01*
X167814711Y-80916789D01*
X167945814Y-81004390D01*
X167945827Y-81004397D01*
X168091498Y-81064735D01*
X168091503Y-81064737D01*
X168246153Y-81095499D01*
X168246156Y-81095500D01*
X168246158Y-81095500D01*
X168403844Y-81095500D01*
X168403845Y-81095499D01*
X168558497Y-81064737D01*
X168704179Y-81004394D01*
X168835289Y-80916789D01*
X168946789Y-80805289D01*
X169034394Y-80674179D01*
X169094737Y-80528497D01*
X169125500Y-80373842D01*
X169125500Y-80276500D01*
X169145185Y-80209461D01*
X169197989Y-80163706D01*
X169249500Y-80152500D01*
X171284803Y-80152500D01*
X171351842Y-80172185D01*
G37*
%TD.AperFunction*%
%TD*%
%TA.AperFunction,Conductor*%
%TO.N,GND*%
G36*
X154078727Y-127169185D02*
G01*
X154099369Y-127185819D01*
X155401368Y-128487819D01*
X155434853Y-128549142D01*
X155429869Y-128618834D01*
X155387997Y-128674767D01*
X155322533Y-128699184D01*
X155313687Y-128699500D01*
X152648098Y-128699500D01*
X152581059Y-128679815D01*
X152535304Y-128627011D01*
X152525360Y-128557853D01*
X152554385Y-128494297D01*
X152560417Y-128487819D01*
X153080515Y-127967721D01*
X153080515Y-127967720D01*
X153080520Y-127967716D01*
X153080523Y-127967709D01*
X153081457Y-127966494D01*
X153092155Y-127954293D01*
X153860631Y-127185819D01*
X153887558Y-127171115D01*
X153913377Y-127154523D01*
X153919577Y-127153631D01*
X153921954Y-127152334D01*
X153948312Y-127149500D01*
X154011688Y-127149500D01*
X154078727Y-127169185D01*
G37*
%TD.AperFunction*%
%TA.AperFunction,Conductor*%
G36*
X162718727Y-127169185D02*
G01*
X162739369Y-127185819D01*
X164041368Y-128487819D01*
X164074853Y-128549142D01*
X164069869Y-128618834D01*
X164027997Y-128674767D01*
X163962533Y-128699184D01*
X163953687Y-128699500D01*
X162324500Y-128699500D01*
X162257461Y-128679815D01*
X162211706Y-128627011D01*
X162200500Y-128575500D01*
X162200500Y-127537312D01*
X162220185Y-127470273D01*
X162236819Y-127449631D01*
X162500631Y-127185819D01*
X162527558Y-127171115D01*
X162553377Y-127154523D01*
X162559577Y-127153631D01*
X162561954Y-127152334D01*
X162588312Y-127149500D01*
X162651688Y-127149500D01*
X162718727Y-127169185D01*
G37*
%TD.AperFunction*%
%TA.AperFunction,Conductor*%
G36*
X174899077Y-115319771D02*
G01*
X174955010Y-115361643D01*
X174979427Y-115427107D01*
X174979732Y-115437572D01*
X174808811Y-128525251D01*
X174788253Y-128592028D01*
X174750797Y-128628624D01*
X174728559Y-128642598D01*
X174703537Y-128654648D01*
X174624332Y-128682362D01*
X174597264Y-128688540D01*
X174517075Y-128697576D01*
X174506921Y-128698720D01*
X174493038Y-128699500D01*
X169299039Y-128699500D01*
X169277793Y-128693261D01*
X169255706Y-128691682D01*
X169244922Y-128683609D01*
X169232000Y-128679815D01*
X169217501Y-128663083D01*
X169199772Y-128649811D01*
X169195064Y-128637188D01*
X169186245Y-128627011D01*
X169183093Y-128605095D01*
X169175355Y-128584347D01*
X169178217Y-128571185D01*
X169176301Y-128557853D01*
X169185499Y-128537711D01*
X169190206Y-128516074D01*
X169203477Y-128498345D01*
X169205326Y-128494297D01*
X169211339Y-128487837D01*
X169289509Y-128409667D01*
X169289514Y-128409664D01*
X169299714Y-128399463D01*
X169299716Y-128399463D01*
X169411520Y-128287659D01*
X169429911Y-128255804D01*
X169464229Y-128196364D01*
X169490575Y-128150731D01*
X169490574Y-128150731D01*
X169490577Y-128150728D01*
X169531501Y-127998000D01*
X169531501Y-127839886D01*
X169531501Y-127832291D01*
X169531500Y-127832273D01*
X169531500Y-120503297D01*
X169551185Y-120436258D01*
X169567819Y-120415616D01*
X171821617Y-118161819D01*
X171882940Y-118128334D01*
X171909298Y-118125500D01*
X173145234Y-118125500D01*
X173212273Y-118145185D01*
X173214125Y-118146398D01*
X173345814Y-118234390D01*
X173345827Y-118234397D01*
X173491498Y-118294735D01*
X173491503Y-118294737D01*
X173646153Y-118325499D01*
X173646156Y-118325500D01*
X173646158Y-118325500D01*
X173803844Y-118325500D01*
X173803845Y-118325499D01*
X173958497Y-118294737D01*
X174104179Y-118234394D01*
X174235289Y-118146789D01*
X174346789Y-118035289D01*
X174434394Y-117904179D01*
X174494737Y-117758497D01*
X174525500Y-117603842D01*
X174525500Y-117446158D01*
X174525500Y-117446155D01*
X174525499Y-117446153D01*
X174494737Y-117291503D01*
X174494735Y-117291498D01*
X174434397Y-117145827D01*
X174434390Y-117145814D01*
X174346789Y-117014711D01*
X174346786Y-117014707D01*
X174235292Y-116903213D01*
X174235288Y-116903210D01*
X174104185Y-116815609D01*
X174104172Y-116815602D01*
X173958501Y-116755264D01*
X173958489Y-116755261D01*
X173803845Y-116724500D01*
X173803842Y-116724500D01*
X173646158Y-116724500D01*
X173646155Y-116724500D01*
X173491510Y-116755261D01*
X173491498Y-116755264D01*
X173345827Y-116815602D01*
X173345814Y-116815609D01*
X173214125Y-116903602D01*
X173147447Y-116924480D01*
X173145234Y-116924500D01*
X172791197Y-116924500D01*
X172724158Y-116904815D01*
X172678403Y-116852011D01*
X172668459Y-116782853D01*
X172697484Y-116719297D01*
X172703516Y-116712819D01*
X173728516Y-115687819D01*
X173789839Y-115654334D01*
X173816197Y-115651500D01*
X174129431Y-115651500D01*
X174129447Y-115651501D01*
X174137043Y-115651501D01*
X174295154Y-115651501D01*
X174295157Y-115651501D01*
X174447885Y-115610577D01*
X174519065Y-115569481D01*
X174584816Y-115531520D01*
X174696620Y-115419716D01*
X174696621Y-115419714D01*
X174768064Y-115348270D01*
X174829385Y-115314787D01*
X174899077Y-115319771D01*
G37*
%TD.AperFunction*%
%TA.AperFunction,Conductor*%
G36*
X155542539Y-121020185D02*
G01*
X155588294Y-121072989D01*
X155599500Y-121124500D01*
X155599500Y-123300500D01*
X155579815Y-123367539D01*
X155527011Y-123413294D01*
X155475500Y-123424500D01*
X155334234Y-123424500D01*
X155187863Y-123463719D01*
X155056635Y-123539485D01*
X155056632Y-123539487D01*
X154949487Y-123646632D01*
X154949485Y-123646635D01*
X154873719Y-123777863D01*
X154834500Y-123924234D01*
X154834500Y-124075765D01*
X154873719Y-124222136D01*
X154906059Y-124278150D01*
X154949485Y-124353365D01*
X154949487Y-124353367D01*
X155017800Y-124421680D01*
X155051285Y-124483003D01*
X155046301Y-124552695D01*
X155004431Y-124608627D01*
X154892452Y-124692455D01*
X154806206Y-124807664D01*
X154806202Y-124807671D01*
X154755908Y-124942517D01*
X154752982Y-124969737D01*
X154749501Y-125002123D01*
X154749500Y-125002135D01*
X154749500Y-125893542D01*
X154729815Y-125960581D01*
X154677011Y-126006336D01*
X154607853Y-126016280D01*
X154563500Y-126000929D01*
X154543573Y-125989424D01*
X154543572Y-125989423D01*
X154482478Y-125973053D01*
X154390842Y-125948499D01*
X154232728Y-125948499D01*
X154225132Y-125948499D01*
X154225116Y-125948500D01*
X153734884Y-125948500D01*
X153734868Y-125948499D01*
X153727272Y-125948499D01*
X153569158Y-125948499D01*
X153492794Y-125968961D01*
X153416427Y-125989423D01*
X153416426Y-125989424D01*
X153369413Y-126016568D01*
X153279502Y-126068477D01*
X153279497Y-126068481D01*
X152231634Y-127116344D01*
X152231564Y-127116414D01*
X152231286Y-127116693D01*
X152231284Y-127116695D01*
X152119480Y-127228499D01*
X152117220Y-127232410D01*
X152108474Y-127241284D01*
X152108330Y-127241363D01*
X152107847Y-127241915D01*
X151387584Y-127962181D01*
X151326261Y-127995666D01*
X151299903Y-127998500D01*
X147173418Y-127998500D01*
X147106379Y-127978815D01*
X147085737Y-127962181D01*
X146385736Y-127262180D01*
X146352251Y-127200857D01*
X146357235Y-127131165D01*
X146399107Y-127075232D01*
X146464571Y-127050815D01*
X146473417Y-127050499D01*
X146897871Y-127050499D01*
X146897872Y-127050499D01*
X146957483Y-127044091D01*
X147092331Y-126993796D01*
X147207546Y-126907546D01*
X147293796Y-126792331D01*
X147344091Y-126657483D01*
X147350500Y-126597873D01*
X147350499Y-125400095D01*
X147370184Y-125333057D01*
X147386813Y-125312420D01*
X151662416Y-121036819D01*
X151723739Y-121003334D01*
X151750097Y-121000500D01*
X155475500Y-121000500D01*
X155542539Y-121020185D01*
G37*
%TD.AperFunction*%
%TA.AperFunction,Conductor*%
G36*
X159816250Y-116399377D02*
G01*
X159845693Y-116404414D01*
X159851465Y-116408537D01*
X159854957Y-116409445D01*
X159859244Y-116414092D01*
X159878880Y-116428116D01*
X159981286Y-116530522D01*
X160049209Y-116569737D01*
X160118217Y-116609579D01*
X160118219Y-116609579D01*
X160125729Y-116612691D01*
X160125175Y-116614027D01*
X160177269Y-116645772D01*
X160197204Y-116675307D01*
X160202279Y-116685825D01*
X160205140Y-116696502D01*
X160216790Y-116716680D01*
X160219082Y-116720650D01*
X160219084Y-116720654D01*
X160284194Y-116833429D01*
X160284198Y-116833434D01*
X160403066Y-116952302D01*
X160403072Y-116952307D01*
X160616259Y-117165494D01*
X160649744Y-117226817D01*
X160644760Y-117296509D01*
X160602888Y-117352442D01*
X160576032Y-117367735D01*
X160520829Y-117390601D01*
X160520814Y-117390609D01*
X160389711Y-117478210D01*
X160389707Y-117478213D01*
X160278213Y-117589707D01*
X160278210Y-117589711D01*
X160190609Y-117720814D01*
X160190602Y-117720827D01*
X160130264Y-117866498D01*
X160130261Y-117866510D01*
X160099500Y-118021153D01*
X160099500Y-118178846D01*
X160130261Y-118333489D01*
X160130264Y-118333501D01*
X160190602Y-118479172D01*
X160190609Y-118479185D01*
X160278210Y-118610288D01*
X160278213Y-118610292D01*
X160389707Y-118721786D01*
X160389711Y-118721789D01*
X160520814Y-118809390D01*
X160520827Y-118809397D01*
X160666498Y-118869735D01*
X160666503Y-118869737D01*
X160731147Y-118882595D01*
X160821849Y-118900638D01*
X160883760Y-118933023D01*
X160885339Y-118934574D01*
X163563181Y-121612416D01*
X163596666Y-121673739D01*
X163599500Y-121700097D01*
X163599500Y-126048117D01*
X163595584Y-126061452D01*
X163596479Y-126075323D01*
X163585934Y-126094316D01*
X163579815Y-126115156D01*
X163569312Y-126124256D01*
X163562565Y-126136410D01*
X163543425Y-126146687D01*
X163527011Y-126160911D01*
X163513255Y-126162888D01*
X163501009Y-126169465D01*
X163479352Y-126167763D01*
X163457853Y-126170855D01*
X163443783Y-126164969D01*
X163431354Y-126163993D01*
X163412938Y-126152066D01*
X163400497Y-126146862D01*
X163393784Y-126141763D01*
X163320501Y-126068480D01*
X163230586Y-126016568D01*
X163223808Y-126012655D01*
X163223806Y-126012653D01*
X163183573Y-125989424D01*
X163183572Y-125989423D01*
X163122478Y-125973053D01*
X163030842Y-125948499D01*
X162872728Y-125948499D01*
X162865132Y-125948499D01*
X162865116Y-125948500D01*
X162374884Y-125948500D01*
X162374868Y-125948499D01*
X162367272Y-125948499D01*
X162209158Y-125948499D01*
X162132794Y-125968961D01*
X162056427Y-125989423D01*
X162056426Y-125989424D01*
X162009413Y-126016568D01*
X161919502Y-126068477D01*
X161919497Y-126068481D01*
X161119481Y-126868497D01*
X161119475Y-126868505D01*
X161075504Y-126944667D01*
X161075504Y-126944668D01*
X161040423Y-127005429D01*
X161040423Y-127005430D01*
X160999499Y-127158158D01*
X160999499Y-127158160D01*
X160999499Y-127326261D01*
X160999500Y-127326274D01*
X160999500Y-127874500D01*
X160979815Y-127941539D01*
X160927011Y-127987294D01*
X160875500Y-127998500D01*
X156661883Y-127998500D01*
X156594844Y-127978815D01*
X156574202Y-127962181D01*
X155874201Y-127262180D01*
X155840716Y-127200857D01*
X155845700Y-127131165D01*
X155887572Y-127075232D01*
X155953036Y-127050815D01*
X155961882Y-127050499D01*
X156897871Y-127050499D01*
X156897872Y-127050499D01*
X156957483Y-127044091D01*
X157092331Y-126993796D01*
X157207546Y-126907546D01*
X157293796Y-126792331D01*
X157344091Y-126657483D01*
X157350500Y-126597873D01*
X157350499Y-125065843D01*
X157370184Y-124998805D01*
X157422987Y-124953050D01*
X157492146Y-124943106D01*
X157521948Y-124951281D01*
X157566503Y-124969737D01*
X157712637Y-124998805D01*
X157721153Y-125000499D01*
X157721156Y-125000500D01*
X157721158Y-125000500D01*
X157878844Y-125000500D01*
X157878845Y-125000499D01*
X158033497Y-124969737D01*
X158179179Y-124909394D01*
X158310289Y-124821789D01*
X158421789Y-124710289D01*
X158509394Y-124579179D01*
X158569737Y-124433497D01*
X158600500Y-124278842D01*
X158600638Y-124278150D01*
X158633023Y-124216239D01*
X158634518Y-124214716D01*
X159657416Y-123191819D01*
X159718739Y-123158334D01*
X159745097Y-123155500D01*
X160170234Y-123155500D01*
X160237273Y-123175185D01*
X160239125Y-123176398D01*
X160370814Y-123264390D01*
X160370827Y-123264397D01*
X160457989Y-123300500D01*
X160516503Y-123324737D01*
X160671153Y-123355499D01*
X160671156Y-123355500D01*
X160721258Y-123355500D01*
X160788297Y-123375185D01*
X160834052Y-123427989D01*
X160843996Y-123497147D01*
X160814971Y-123560703D01*
X160808939Y-123567181D01*
X160729487Y-123646632D01*
X160729485Y-123646635D01*
X160653719Y-123777863D01*
X160614500Y-123924234D01*
X160614500Y-124075765D01*
X160653719Y-124222136D01*
X160686059Y-124278150D01*
X160729485Y-124353365D01*
X160836635Y-124460515D01*
X160967865Y-124536281D01*
X161114234Y-124575500D01*
X161114236Y-124575500D01*
X161265764Y-124575500D01*
X161265766Y-124575500D01*
X161412135Y-124536281D01*
X161543365Y-124460515D01*
X161650515Y-124353365D01*
X161726281Y-124222135D01*
X161765500Y-124075766D01*
X161765500Y-123924234D01*
X161726281Y-123777865D01*
X161650515Y-123646635D01*
X161543365Y-123539485D01*
X161458710Y-123490609D01*
X161412136Y-123463719D01*
X161287274Y-123430263D01*
X161265766Y-123424500D01*
X161261593Y-123423382D01*
X161201932Y-123387017D01*
X161171403Y-123324170D01*
X161179698Y-123254795D01*
X161224183Y-123200917D01*
X161224671Y-123200587D01*
X161260289Y-123176789D01*
X161371789Y-123065289D01*
X161459394Y-122934179D01*
X161519737Y-122788497D01*
X161550500Y-122633842D01*
X161550500Y-122476158D01*
X161550500Y-122476155D01*
X161550499Y-122476153D01*
X161519738Y-122321510D01*
X161519737Y-122321503D01*
X161519735Y-122321498D01*
X161459397Y-122175827D01*
X161459390Y-122175814D01*
X161371789Y-122044711D01*
X161371786Y-122044707D01*
X161260292Y-121933213D01*
X161260288Y-121933210D01*
X161129185Y-121845609D01*
X161129172Y-121845602D01*
X160983501Y-121785264D01*
X160983489Y-121785261D01*
X160828845Y-121754500D01*
X160828842Y-121754500D01*
X160671158Y-121754500D01*
X160671155Y-121754500D01*
X160516510Y-121785261D01*
X160516498Y-121785264D01*
X160370827Y-121845602D01*
X160370814Y-121845609D01*
X160239125Y-121933602D01*
X160172447Y-121954480D01*
X160170234Y-121954500D01*
X159840119Y-121954500D01*
X159773080Y-121934815D01*
X159727325Y-121882011D01*
X159717381Y-121812853D01*
X159746406Y-121749297D01*
X159792667Y-121715939D01*
X159929172Y-121659397D01*
X159929172Y-121659396D01*
X159929179Y-121659394D01*
X160060289Y-121571789D01*
X160171789Y-121460289D01*
X160259394Y-121329179D01*
X160319737Y-121183497D01*
X160350500Y-121028842D01*
X160350500Y-120871158D01*
X160350500Y-120871155D01*
X160350499Y-120871153D01*
X160350014Y-120868714D01*
X160319737Y-120716503D01*
X160304228Y-120679060D01*
X160259397Y-120570827D01*
X160259390Y-120570814D01*
X160171789Y-120439711D01*
X160171786Y-120439707D01*
X160060292Y-120328213D01*
X160060288Y-120328210D01*
X159929185Y-120240609D01*
X159929172Y-120240602D01*
X159777870Y-120177932D01*
X159778879Y-120175494D01*
X159730008Y-120143416D01*
X159701598Y-120079583D01*
X159700500Y-120063121D01*
X159700500Y-116820942D01*
X159700499Y-116820941D01*
X159700176Y-116819734D01*
X159700167Y-116819702D01*
X159699069Y-116815606D01*
X159689534Y-116780019D01*
X159659577Y-116668216D01*
X159629095Y-116615419D01*
X159628127Y-116611432D01*
X159625348Y-116608419D01*
X159619961Y-116577766D01*
X159612624Y-116547519D01*
X159613965Y-116543644D01*
X159613255Y-116539604D01*
X159625296Y-116510903D01*
X159635476Y-116481492D01*
X159639154Y-116477873D01*
X159640287Y-116475175D01*
X159661896Y-116455502D01*
X159666227Y-116451243D01*
X159666880Y-116450793D01*
X159710289Y-116421789D01*
X159712985Y-116419092D01*
X159720943Y-116413621D01*
X159749329Y-116404316D01*
X159776823Y-116392634D01*
X159782176Y-116393549D01*
X159787337Y-116391858D01*
X159816250Y-116399377D01*
G37*
%TD.AperFunction*%
%TA.AperFunction,Conductor*%
G36*
X144412150Y-118097546D02*
G01*
X144548994Y-118234390D01*
X144668590Y-118353986D01*
X144702075Y-118415309D01*
X144698615Y-118480670D01*
X144660001Y-118597200D01*
X144660000Y-118597204D01*
X144649500Y-118699983D01*
X144649500Y-119500001D01*
X144649501Y-119500019D01*
X144660000Y-119602796D01*
X144660001Y-119602799D01*
X144715185Y-119769331D01*
X144715187Y-119769336D01*
X144733792Y-119799500D01*
X144807288Y-119918656D01*
X144931344Y-120042712D01*
X145080666Y-120134814D01*
X145247203Y-120189999D01*
X145349991Y-120200500D01*
X146350008Y-120200499D01*
X146350016Y-120200498D01*
X146350019Y-120200498D01*
X146406302Y-120194748D01*
X146452797Y-120189999D01*
X146619334Y-120134814D01*
X146768656Y-120042712D01*
X146787319Y-120024049D01*
X146848642Y-119990564D01*
X146918334Y-119995548D01*
X146962681Y-120024049D01*
X146981344Y-120042712D01*
X147130666Y-120134814D01*
X147297203Y-120189999D01*
X147399991Y-120200500D01*
X148099902Y-120200499D01*
X148129348Y-120209145D01*
X148159329Y-120215667D01*
X148164342Y-120219419D01*
X148166941Y-120220183D01*
X148187583Y-120236818D01*
X148316139Y-120365374D01*
X148316149Y-120365385D01*
X148320479Y-120369715D01*
X148320480Y-120369716D01*
X148432284Y-120481520D01*
X148432286Y-120481521D01*
X148432290Y-120481524D01*
X148470003Y-120503297D01*
X148569216Y-120560577D01*
X148681019Y-120590534D01*
X148721942Y-120601500D01*
X148721943Y-120601500D01*
X150099903Y-120601500D01*
X150166942Y-120621185D01*
X150212697Y-120673989D01*
X150222641Y-120743147D01*
X150193616Y-120806703D01*
X150187584Y-120813181D01*
X146487582Y-124513181D01*
X146426259Y-124546666D01*
X146399901Y-124549500D01*
X145202129Y-124549500D01*
X145202123Y-124549501D01*
X145142516Y-124555908D01*
X145007671Y-124606202D01*
X145007664Y-124606206D01*
X144892455Y-124692452D01*
X144892452Y-124692455D01*
X144806206Y-124807664D01*
X144806202Y-124807671D01*
X144755908Y-124942517D01*
X144752982Y-124969737D01*
X144749501Y-125002123D01*
X144749500Y-125002135D01*
X144749500Y-125326582D01*
X144729815Y-125393621D01*
X144677011Y-125439376D01*
X144607853Y-125449320D01*
X144544297Y-125420295D01*
X144537819Y-125414263D01*
X142937819Y-123814263D01*
X142904334Y-123752940D01*
X142901500Y-123726582D01*
X142901500Y-120750097D01*
X142921185Y-120683058D01*
X142973989Y-120637303D01*
X143043147Y-120627359D01*
X143106703Y-120656384D01*
X143113181Y-120662416D01*
X144965425Y-122514660D01*
X144998910Y-122575983D01*
X144999361Y-122578149D01*
X145030261Y-122733491D01*
X145030264Y-122733501D01*
X145090602Y-122879172D01*
X145090609Y-122879185D01*
X145178210Y-123010288D01*
X145178213Y-123010292D01*
X145289707Y-123121786D01*
X145289711Y-123121789D01*
X145420814Y-123209390D01*
X145420827Y-123209397D01*
X145553611Y-123264397D01*
X145566503Y-123269737D01*
X145721153Y-123300499D01*
X145721156Y-123300500D01*
X145721158Y-123300500D01*
X145878844Y-123300500D01*
X145878845Y-123300499D01*
X146033497Y-123269737D01*
X146179179Y-123209394D01*
X146310289Y-123121789D01*
X146421789Y-123010289D01*
X146509394Y-122879179D01*
X146569737Y-122733497D01*
X146600500Y-122578842D01*
X146600500Y-122421158D01*
X146600500Y-122421155D01*
X146600499Y-122421153D01*
X146569737Y-122266503D01*
X146554139Y-122228846D01*
X146509397Y-122120827D01*
X146509390Y-122120814D01*
X146421789Y-121989711D01*
X146421786Y-121989707D01*
X146310292Y-121878213D01*
X146310288Y-121878210D01*
X146179185Y-121790609D01*
X146179172Y-121790602D01*
X146033501Y-121730264D01*
X146033491Y-121730261D01*
X145878151Y-121699362D01*
X145816241Y-121666977D01*
X145814662Y-121665426D01*
X144036819Y-119887583D01*
X144003334Y-119826260D01*
X144000500Y-119799902D01*
X144000500Y-118679765D01*
X144020185Y-118612726D01*
X144021398Y-118610874D01*
X144109390Y-118479185D01*
X144109390Y-118479184D01*
X144109394Y-118479179D01*
X144169737Y-118333497D01*
X144200500Y-118178842D01*
X144200500Y-118178835D01*
X144201068Y-118173076D01*
X144227227Y-118108289D01*
X144284261Y-118067929D01*
X144354061Y-118064810D01*
X144412150Y-118097546D01*
G37*
%TD.AperFunction*%
%TA.AperFunction,Conductor*%
G36*
X158908621Y-114803674D02*
G01*
X158919827Y-114802470D01*
X158941548Y-114813343D01*
X158964849Y-114820185D01*
X158972227Y-114828699D01*
X158982306Y-114833745D01*
X158994700Y-114854635D01*
X159010604Y-114872989D01*
X159012207Y-114884143D01*
X159017958Y-114893835D01*
X159017091Y-114918105D01*
X159020548Y-114942147D01*
X159015866Y-114952398D01*
X159015464Y-114963660D01*
X159001612Y-114983609D01*
X158991523Y-115005703D01*
X158981009Y-115013284D01*
X158975616Y-115021052D01*
X158945262Y-115039061D01*
X158820827Y-115090602D01*
X158820814Y-115090609D01*
X158689711Y-115178210D01*
X158689707Y-115178213D01*
X158578213Y-115289707D01*
X158578210Y-115289711D01*
X158490609Y-115420814D01*
X158490602Y-115420827D01*
X158430264Y-115566498D01*
X158430261Y-115566508D01*
X158399362Y-115721847D01*
X158390597Y-115738602D01*
X158386578Y-115757081D01*
X158367834Y-115782118D01*
X158366977Y-115783758D01*
X158365427Y-115785335D01*
X158324224Y-115826538D01*
X158324212Y-115826552D01*
X158219478Y-115931285D01*
X158190631Y-115981252D01*
X158180096Y-115999500D01*
X158140423Y-116068215D01*
X158099499Y-116220943D01*
X158099499Y-116220945D01*
X158099499Y-116389046D01*
X158099500Y-116389059D01*
X158099500Y-116413330D01*
X158099499Y-116413348D01*
X158099499Y-116579054D01*
X158099498Y-116579054D01*
X158130969Y-116696502D01*
X158140423Y-116731785D01*
X158168560Y-116780519D01*
X158219479Y-116868714D01*
X158219481Y-116868717D01*
X158338349Y-116987585D01*
X158338355Y-116987590D01*
X158463181Y-117112416D01*
X158496666Y-117173739D01*
X158499500Y-117200097D01*
X158499500Y-120413330D01*
X158499499Y-120413348D01*
X158499499Y-120579054D01*
X158499498Y-120579054D01*
X158540423Y-120731785D01*
X158569358Y-120781900D01*
X158569359Y-120781904D01*
X158569360Y-120781904D01*
X158587417Y-120813181D01*
X158619479Y-120868714D01*
X158619481Y-120868717D01*
X158715426Y-120964662D01*
X158748911Y-121025985D01*
X158749362Y-121028151D01*
X158780261Y-121183491D01*
X158780264Y-121183501D01*
X158840602Y-121329172D01*
X158840609Y-121329185D01*
X158928210Y-121460288D01*
X158928213Y-121460292D01*
X159039707Y-121571786D01*
X159039711Y-121571789D01*
X159170814Y-121659390D01*
X159170827Y-121659397D01*
X159267646Y-121699500D01*
X159316503Y-121719737D01*
X159320883Y-121720608D01*
X159326143Y-121721655D01*
X159329037Y-121723169D01*
X159332302Y-121723044D01*
X159359787Y-121739254D01*
X159388054Y-121754040D01*
X159389669Y-121756877D01*
X159392485Y-121758538D01*
X159406841Y-121787031D01*
X159422628Y-121814755D01*
X159422453Y-121818015D01*
X159423924Y-121820935D01*
X159420596Y-121852669D01*
X159418889Y-121884525D01*
X159416977Y-121887175D01*
X159416637Y-121890424D01*
X159396689Y-121915310D01*
X159378023Y-121941197D01*
X159374371Y-121943154D01*
X159372939Y-121944942D01*
X159358520Y-121951653D01*
X159341420Y-121960823D01*
X159337767Y-121962049D01*
X159213215Y-121995423D01*
X159189017Y-122009394D01*
X159178263Y-122015602D01*
X159178259Y-122015604D01*
X159076287Y-122074477D01*
X159076282Y-122074481D01*
X157785339Y-123365425D01*
X157724016Y-123398910D01*
X157721850Y-123399361D01*
X157566508Y-123430261D01*
X157566498Y-123430264D01*
X157420827Y-123490602D01*
X157420814Y-123490609D01*
X157289711Y-123578210D01*
X157289707Y-123578213D01*
X157178213Y-123689707D01*
X157178210Y-123689711D01*
X157090609Y-123820814D01*
X157090602Y-123820827D01*
X157039061Y-123945261D01*
X156995220Y-123999665D01*
X156928926Y-124021730D01*
X156861227Y-124004451D01*
X156813616Y-123953314D01*
X156800500Y-123897809D01*
X156800500Y-115500097D01*
X156820185Y-115433058D01*
X156836819Y-115412416D01*
X157412417Y-114836819D01*
X157473740Y-114803334D01*
X157500098Y-114800500D01*
X158897810Y-114800500D01*
X158908621Y-114803674D01*
G37*
%TD.AperFunction*%
%TA.AperFunction,Conductor*%
G36*
X173466834Y-102834857D02*
G01*
X173522767Y-102876729D01*
X173547184Y-102942193D01*
X173547500Y-102951039D01*
X173547500Y-113551902D01*
X173527815Y-113618941D01*
X173511181Y-113639583D01*
X166919481Y-120231282D01*
X166919477Y-120231287D01*
X166881888Y-120296395D01*
X166831321Y-120344610D01*
X166762714Y-120357834D01*
X166697850Y-120331866D01*
X166657321Y-120274952D01*
X166650501Y-120234395D01*
X166650501Y-120170945D01*
X166650501Y-120170943D01*
X166609577Y-120018215D01*
X166580639Y-119968095D01*
X166530520Y-119881284D01*
X166418716Y-119769480D01*
X166418715Y-119769479D01*
X166414385Y-119765149D01*
X166414374Y-119765139D01*
X161734574Y-115085339D01*
X161701089Y-115024016D01*
X161700638Y-115021849D01*
X161680001Y-114918105D01*
X161669737Y-114866503D01*
X161643065Y-114802110D01*
X161609396Y-114720825D01*
X161607105Y-114716539D01*
X161601825Y-114691191D01*
X161592777Y-114666937D01*
X161594818Y-114657546D01*
X161592859Y-114648137D01*
X161602121Y-114623961D01*
X161607622Y-114598663D01*
X161616207Y-114587194D01*
X161617856Y-114582892D01*
X161628764Y-114570414D01*
X161629463Y-114569716D01*
X161629463Y-114569714D01*
X161634217Y-114564959D01*
X173335821Y-102863356D01*
X173397142Y-102829873D01*
X173466834Y-102834857D01*
G37*
%TD.AperFunction*%
%TA.AperFunction,Conductor*%
G36*
X154316942Y-110820185D02*
G01*
X154337584Y-110836819D01*
X155113181Y-111612416D01*
X155146666Y-111673739D01*
X155149500Y-111700097D01*
X155149500Y-111728846D01*
X155180261Y-111883489D01*
X155180264Y-111883501D01*
X155240602Y-112029172D01*
X155240609Y-112029185D01*
X155328210Y-112160288D01*
X155328213Y-112160292D01*
X155439707Y-112271786D01*
X155439711Y-112271789D01*
X155570814Y-112359390D01*
X155570827Y-112359397D01*
X155716498Y-112419735D01*
X155716503Y-112419737D01*
X155871153Y-112450499D01*
X155871156Y-112450500D01*
X155871158Y-112450500D01*
X156028844Y-112450500D01*
X156028845Y-112450499D01*
X156183497Y-112419737D01*
X156329179Y-112359394D01*
X156460289Y-112271789D01*
X156571789Y-112160289D01*
X156659394Y-112029179D01*
X156662719Y-112021153D01*
X156719735Y-111883501D01*
X156719737Y-111883497D01*
X156750500Y-111728842D01*
X156750500Y-111571158D01*
X156750500Y-111571155D01*
X156750499Y-111571153D01*
X156740512Y-111520944D01*
X156719737Y-111416503D01*
X156677200Y-111313810D01*
X156669732Y-111244342D01*
X156701007Y-111181863D01*
X156761096Y-111146211D01*
X156830921Y-111148705D01*
X156879443Y-111178678D01*
X157513181Y-111812416D01*
X157546666Y-111873739D01*
X157549500Y-111900097D01*
X157549500Y-112220234D01*
X157529815Y-112287273D01*
X157528602Y-112289125D01*
X157440609Y-112420814D01*
X157440602Y-112420827D01*
X157380264Y-112566498D01*
X157380261Y-112566510D01*
X157349500Y-112721153D01*
X157349500Y-112878846D01*
X157367186Y-112967759D01*
X157365308Y-112988742D01*
X157368307Y-113009597D01*
X157362256Y-113022844D01*
X157360959Y-113037350D01*
X157348034Y-113053988D01*
X157339282Y-113073153D01*
X157327030Y-113081026D01*
X157318096Y-113092528D01*
X157298227Y-113099537D01*
X157280504Y-113110927D01*
X157255920Y-113114461D01*
X157252206Y-113115772D01*
X157245569Y-113115950D01*
X157203120Y-113115950D01*
X157203104Y-113115949D01*
X157195508Y-113115949D01*
X157037393Y-113115949D01*
X156961029Y-113136411D01*
X156884664Y-113156873D01*
X156884659Y-113156876D01*
X156747740Y-113235925D01*
X156747732Y-113235931D01*
X155318481Y-114665182D01*
X155318479Y-114665185D01*
X155268361Y-114751994D01*
X155268359Y-114751996D01*
X155239425Y-114802109D01*
X155239424Y-114802110D01*
X155230124Y-114836819D01*
X155198499Y-114954843D01*
X155198499Y-114954845D01*
X155198499Y-115122946D01*
X155198500Y-115122959D01*
X155198500Y-119675500D01*
X155178815Y-119742539D01*
X155126011Y-119788294D01*
X155074500Y-119799500D01*
X151675500Y-119799500D01*
X151608461Y-119779815D01*
X151562706Y-119727011D01*
X151551500Y-119675500D01*
X151551500Y-116603899D01*
X151551501Y-116603886D01*
X151551501Y-116435785D01*
X151551501Y-116435783D01*
X151510577Y-116283055D01*
X151437965Y-116157288D01*
X151431520Y-116146124D01*
X151319716Y-116034320D01*
X151319713Y-116034318D01*
X150973750Y-115688355D01*
X150973748Y-115688352D01*
X150854876Y-115569480D01*
X150854869Y-115569475D01*
X150759508Y-115514419D01*
X150759506Y-115514418D01*
X150717950Y-115490425D01*
X150717949Y-115490424D01*
X150675982Y-115479179D01*
X150565217Y-115449499D01*
X150407103Y-115449499D01*
X150399507Y-115449499D01*
X150399491Y-115449500D01*
X147350097Y-115449500D01*
X147283058Y-115429815D01*
X147262416Y-115413181D01*
X144637819Y-112788584D01*
X144604334Y-112727261D01*
X144601500Y-112700903D01*
X144601500Y-111940117D01*
X144601501Y-111940104D01*
X144601501Y-111772002D01*
X144601501Y-111772000D01*
X144560577Y-111619272D01*
X144560254Y-111618713D01*
X144532797Y-111571155D01*
X144481520Y-111482341D01*
X144411360Y-111412181D01*
X144377875Y-111350858D01*
X144382859Y-111281166D01*
X144424731Y-111225233D01*
X144490195Y-111200816D01*
X144499041Y-111200500D01*
X144989868Y-111200500D01*
X145054963Y-111218960D01*
X145080666Y-111234814D01*
X145247203Y-111289999D01*
X145349991Y-111300500D01*
X146350008Y-111300499D01*
X146350016Y-111300498D01*
X146350019Y-111300498D01*
X146406302Y-111294748D01*
X146452797Y-111289999D01*
X146619334Y-111234814D01*
X146768656Y-111142712D01*
X146892712Y-111018656D01*
X146984814Y-110869334D01*
X146984814Y-110869332D01*
X146988605Y-110863187D01*
X146990399Y-110864293D01*
X147029687Y-110819663D01*
X147095908Y-110800500D01*
X154249903Y-110800500D01*
X154316942Y-110820185D01*
G37*
%TD.AperFunction*%
%TA.AperFunction,Conductor*%
G36*
X172743702Y-99469185D02*
G01*
X172764344Y-99485819D01*
X173014181Y-99735656D01*
X173047666Y-99796979D01*
X173050500Y-99823337D01*
X173050500Y-101398844D01*
X173030815Y-101465883D01*
X173014181Y-101486525D01*
X161549509Y-112951196D01*
X161488186Y-112984681D01*
X161418494Y-112979697D01*
X161392936Y-112966616D01*
X161372710Y-112953101D01*
X161327905Y-112899488D01*
X161319199Y-112830163D01*
X161349355Y-112767136D01*
X161372712Y-112746898D01*
X161399279Y-112729145D01*
X161410289Y-112721789D01*
X161521789Y-112610289D01*
X161609394Y-112479179D01*
X161669737Y-112333497D01*
X161700500Y-112178842D01*
X161700500Y-112021158D01*
X161700500Y-112021155D01*
X161700499Y-112021153D01*
X161696032Y-111998692D01*
X161702259Y-111929100D01*
X161745122Y-111873923D01*
X161811012Y-111850679D01*
X161817649Y-111850501D01*
X161878997Y-111850501D01*
X161879000Y-111850501D01*
X162031728Y-111809577D01*
X162096813Y-111772000D01*
X162168659Y-111730520D01*
X162280463Y-111618716D01*
X162280463Y-111618714D01*
X162290667Y-111608511D01*
X162290671Y-111608506D01*
X172308506Y-101590671D01*
X172308511Y-101590667D01*
X172318714Y-101580463D01*
X172318716Y-101580463D01*
X172430520Y-101468659D01*
X172495981Y-101355276D01*
X172509577Y-101331728D01*
X172550500Y-101179001D01*
X172550500Y-101020886D01*
X172550500Y-100929765D01*
X172570185Y-100862726D01*
X172571398Y-100860874D01*
X172631347Y-100771155D01*
X172659394Y-100729179D01*
X172719737Y-100583497D01*
X172750500Y-100428842D01*
X172750500Y-100271158D01*
X172750500Y-100271155D01*
X172750499Y-100271153D01*
X172736246Y-100199500D01*
X172719737Y-100116503D01*
X172717163Y-100110289D01*
X172659397Y-99970827D01*
X172659390Y-99970814D01*
X172571789Y-99839711D01*
X172571786Y-99839707D01*
X172460292Y-99728213D01*
X172460288Y-99728210D01*
X172383052Y-99676602D01*
X172361316Y-99650593D01*
X172339149Y-99625011D01*
X172338985Y-99623872D01*
X172338247Y-99622989D01*
X172334026Y-99589384D01*
X172329205Y-99555853D01*
X172329683Y-99554805D01*
X172329540Y-99553664D01*
X172344153Y-99523120D01*
X172358230Y-99492297D01*
X172359198Y-99491674D01*
X172359695Y-99490637D01*
X172388507Y-99472839D01*
X172417008Y-99454523D01*
X172418507Y-99454307D01*
X172419138Y-99453918D01*
X172451943Y-99449500D01*
X172676663Y-99449500D01*
X172743702Y-99469185D01*
G37*
%TD.AperFunction*%
%TA.AperFunction,Conductor*%
G36*
X150989689Y-107420185D02*
G01*
X151035444Y-107472989D01*
X151045388Y-107542147D01*
X151025752Y-107593391D01*
X150940609Y-107720814D01*
X150940602Y-107720827D01*
X150880264Y-107866498D01*
X150880261Y-107866510D01*
X150849500Y-108021153D01*
X150849500Y-108178846D01*
X150880261Y-108333489D01*
X150880264Y-108333501D01*
X150940602Y-108479172D01*
X150940609Y-108479185D01*
X151028210Y-108610288D01*
X151028213Y-108610292D01*
X151139707Y-108721786D01*
X151139711Y-108721789D01*
X151270814Y-108809390D01*
X151270827Y-108809397D01*
X151416498Y-108869735D01*
X151416503Y-108869737D01*
X151571153Y-108900499D01*
X151571156Y-108900500D01*
X151571158Y-108900500D01*
X151728844Y-108900500D01*
X151728845Y-108900499D01*
X151883497Y-108869737D01*
X152029179Y-108809394D01*
X152160289Y-108721789D01*
X152271789Y-108610289D01*
X152359394Y-108479179D01*
X152419737Y-108333497D01*
X152439113Y-108236085D01*
X152450638Y-108178150D01*
X152459402Y-108161394D01*
X152463423Y-108142913D01*
X152482168Y-108117871D01*
X152483023Y-108116239D01*
X152484467Y-108114767D01*
X152562418Y-108036816D01*
X152623740Y-108003334D01*
X152650097Y-108000500D01*
X153649903Y-108000500D01*
X153716942Y-108020185D01*
X153737584Y-108036819D01*
X153962180Y-108261415D01*
X153995665Y-108322738D01*
X153998499Y-108349089D01*
X153998500Y-108366498D01*
X153998500Y-108762273D01*
X153998499Y-108762291D01*
X153998499Y-108927997D01*
X153998498Y-108927997D01*
X154039424Y-109080732D01*
X154039425Y-109080733D01*
X154059925Y-109116239D01*
X154066673Y-109127926D01*
X154092113Y-109171989D01*
X154118479Y-109217657D01*
X154118481Y-109217660D01*
X154288640Y-109387819D01*
X154322125Y-109449142D01*
X154317141Y-109518834D01*
X154275269Y-109574767D01*
X154209805Y-109599184D01*
X154200959Y-109599500D01*
X147095908Y-109599500D01*
X147028869Y-109579815D01*
X146990363Y-109535728D01*
X146988605Y-109536813D01*
X146984812Y-109530663D01*
X146892712Y-109381344D01*
X146768656Y-109257288D01*
X146640352Y-109178150D01*
X146619336Y-109165187D01*
X146619331Y-109165185D01*
X146569688Y-109148735D01*
X146452797Y-109110001D01*
X146452795Y-109110000D01*
X146350010Y-109099500D01*
X145349998Y-109099500D01*
X145349980Y-109099501D01*
X145247203Y-109110000D01*
X145247200Y-109110001D01*
X145080668Y-109165185D01*
X145080663Y-109165187D01*
X144931342Y-109257289D01*
X144807289Y-109381342D01*
X144715187Y-109530663D01*
X144715185Y-109530668D01*
X144687349Y-109614670D01*
X144660001Y-109697203D01*
X144660001Y-109697204D01*
X144660000Y-109697204D01*
X144649500Y-109799983D01*
X144649500Y-109875500D01*
X144629815Y-109942539D01*
X144577011Y-109988294D01*
X144525500Y-109999500D01*
X143979766Y-109999500D01*
X143961622Y-109994172D01*
X143942714Y-109993835D01*
X143914493Y-109980333D01*
X143912727Y-109979815D01*
X143910876Y-109978603D01*
X143872712Y-109953103D01*
X143827907Y-109899491D01*
X143819199Y-109830166D01*
X143849353Y-109767138D01*
X143872712Y-109746898D01*
X143900356Y-109728426D01*
X143910289Y-109721789D01*
X144021789Y-109610289D01*
X144109394Y-109479179D01*
X144169737Y-109333497D01*
X144200500Y-109178842D01*
X144200638Y-109178150D01*
X144233023Y-109116239D01*
X144234517Y-109114717D01*
X145512417Y-107836819D01*
X145573740Y-107803334D01*
X145600098Y-107800500D01*
X147946231Y-107800500D01*
X147946247Y-107800501D01*
X147953843Y-107800501D01*
X148111954Y-107800501D01*
X148111957Y-107800501D01*
X148264685Y-107759577D01*
X148331812Y-107720821D01*
X148401616Y-107680520D01*
X148513420Y-107568716D01*
X148513420Y-107568714D01*
X148523621Y-107558514D01*
X148523625Y-107558508D01*
X148645317Y-107436818D01*
X148706641Y-107403334D01*
X148732998Y-107400500D01*
X150922650Y-107400500D01*
X150989689Y-107420185D01*
G37*
%TD.AperFunction*%
%TA.AperFunction,Conductor*%
G36*
X166150323Y-105845933D02*
G01*
X166193516Y-105900852D01*
X166200161Y-105970405D01*
X166168148Y-106032509D01*
X166166082Y-106034625D01*
X163613181Y-108587527D01*
X163551858Y-108621012D01*
X163482166Y-108616028D01*
X163426233Y-108574156D01*
X163401816Y-108508692D01*
X163401500Y-108499846D01*
X163401500Y-106324500D01*
X163421185Y-106257461D01*
X163473989Y-106211706D01*
X163525500Y-106200500D01*
X163678844Y-106200500D01*
X163678845Y-106200499D01*
X163833497Y-106169737D01*
X163979179Y-106109394D01*
X164110289Y-106021789D01*
X164210407Y-105921670D01*
X164271728Y-105888186D01*
X164330183Y-105889578D01*
X164370942Y-105900500D01*
X164370943Y-105900500D01*
X165663275Y-105900500D01*
X165663291Y-105900501D01*
X165670887Y-105900501D01*
X165828998Y-105900501D01*
X165829001Y-105900501D01*
X165981729Y-105859577D01*
X166016399Y-105839559D01*
X166084295Y-105823084D01*
X166150323Y-105845933D01*
G37*
%TD.AperFunction*%
%TA.AperFunction,Conductor*%
G36*
X146983385Y-103888818D02*
G01*
X147009721Y-103908900D01*
X148187088Y-105086267D01*
X148185204Y-105088150D01*
X148218656Y-105133975D01*
X148223579Y-105200100D01*
X148199500Y-105321153D01*
X148199500Y-105478846D01*
X148230261Y-105633489D01*
X148230264Y-105633501D01*
X148290602Y-105779172D01*
X148290609Y-105779185D01*
X148378210Y-105910288D01*
X148378213Y-105910292D01*
X148455740Y-105987819D01*
X148489225Y-106049142D01*
X148484241Y-106118834D01*
X148442369Y-106174767D01*
X148376905Y-106199184D01*
X148368059Y-106199500D01*
X148353840Y-106199500D01*
X148312919Y-106210464D01*
X148312919Y-106210465D01*
X148308288Y-106211706D01*
X148201114Y-106240423D01*
X148201109Y-106240426D01*
X148064190Y-106319475D01*
X148064182Y-106319481D01*
X147820483Y-106563181D01*
X147759160Y-106596666D01*
X147732802Y-106599500D01*
X145386670Y-106599500D01*
X145386654Y-106599499D01*
X145379058Y-106599499D01*
X145220943Y-106599499D01*
X145144579Y-106619961D01*
X145068214Y-106640423D01*
X145068209Y-106640426D01*
X144931290Y-106719475D01*
X144931282Y-106719481D01*
X143385339Y-108265425D01*
X143324016Y-108298910D01*
X143321850Y-108299361D01*
X143166508Y-108330261D01*
X143166498Y-108330264D01*
X143020827Y-108390602D01*
X143020814Y-108390609D01*
X142889711Y-108478210D01*
X142889707Y-108478213D01*
X142870288Y-108497633D01*
X142808965Y-108531118D01*
X142739273Y-108526134D01*
X142683340Y-108484262D01*
X142658923Y-108418798D01*
X142658607Y-108409952D01*
X142658607Y-105200097D01*
X142678292Y-105133058D01*
X142694926Y-105112416D01*
X143070523Y-104736819D01*
X143131846Y-104703334D01*
X143158204Y-104700500D01*
X145420234Y-104700500D01*
X145487273Y-104720185D01*
X145489125Y-104721398D01*
X145620814Y-104809390D01*
X145620827Y-104809397D01*
X145718119Y-104849696D01*
X145766503Y-104869737D01*
X145906222Y-104897529D01*
X145921153Y-104900499D01*
X145921156Y-104900500D01*
X145921158Y-104900500D01*
X146078844Y-104900500D01*
X146078845Y-104900499D01*
X146233497Y-104869737D01*
X146379179Y-104809394D01*
X146510289Y-104721789D01*
X146621789Y-104610289D01*
X146709394Y-104479179D01*
X146769737Y-104333497D01*
X146800500Y-104178842D01*
X146800500Y-104021158D01*
X146800426Y-104020786D01*
X146800444Y-104020587D01*
X146799903Y-104015093D01*
X146800944Y-104014990D01*
X146806644Y-103951197D01*
X146849499Y-103896013D01*
X146915386Y-103872760D01*
X146983385Y-103888818D01*
G37*
%TD.AperFunction*%
%TA.AperFunction,Conductor*%
G36*
X160768487Y-104646035D02*
G01*
X160773306Y-104650603D01*
X162164181Y-106041478D01*
X162197666Y-106102801D01*
X162200500Y-106129159D01*
X162200500Y-107681953D01*
X162180815Y-107748992D01*
X162128011Y-107794747D01*
X162100692Y-107803570D01*
X161966508Y-107830261D01*
X161966498Y-107830264D01*
X161824550Y-107889061D01*
X161777098Y-107898500D01*
X160730119Y-107898500D01*
X160730115Y-107898499D01*
X160572000Y-107898499D01*
X160543206Y-107906214D01*
X160529353Y-107906757D01*
X160508369Y-107901478D01*
X160486742Y-107900963D01*
X160475159Y-107893123D01*
X160461595Y-107889711D01*
X160446797Y-107873927D01*
X160428880Y-107861800D01*
X160423374Y-107848943D01*
X160413808Y-107838739D01*
X160409892Y-107817457D01*
X160401377Y-107797571D01*
X160400500Y-107782852D01*
X160400500Y-106996945D01*
X160400500Y-106996943D01*
X160359577Y-106844216D01*
X160287562Y-106719481D01*
X160280524Y-106707290D01*
X160280518Y-106707282D01*
X160168717Y-106595481D01*
X160168709Y-106595475D01*
X160031790Y-106516426D01*
X160031786Y-106516424D01*
X160031784Y-106516423D01*
X159879057Y-106475500D01*
X159053000Y-106475500D01*
X158894885Y-106475500D01*
X158894883Y-106475500D01*
X158853962Y-106486464D01*
X158853962Y-106486465D01*
X158816694Y-106496451D01*
X158742157Y-106516423D01*
X158742152Y-106516426D01*
X158617601Y-106588335D01*
X158590539Y-106594900D01*
X158564448Y-106604632D01*
X158557055Y-106603023D01*
X158549701Y-106604808D01*
X158523381Y-106595698D01*
X158496175Y-106589780D01*
X158487483Y-106583273D01*
X158483674Y-106581955D01*
X158467921Y-106568629D01*
X158443200Y-106543908D01*
X158443188Y-106543894D01*
X158336818Y-106437524D01*
X158303333Y-106376201D01*
X158300499Y-106349843D01*
X158300499Y-105862597D01*
X158320184Y-105795558D01*
X158336818Y-105774916D01*
X158587234Y-105524500D01*
X158858506Y-105253228D01*
X158858511Y-105253224D01*
X158868714Y-105243020D01*
X158868716Y-105243020D01*
X158980520Y-105131216D01*
X159051585Y-105008127D01*
X159059577Y-104994285D01*
X159100308Y-104842277D01*
X159101069Y-104839844D01*
X159119101Y-104812836D01*
X159136006Y-104785103D01*
X159138392Y-104783943D01*
X159139866Y-104781737D01*
X159169637Y-104768765D01*
X159198853Y-104754574D01*
X159201487Y-104754889D01*
X159203921Y-104753829D01*
X159235983Y-104759013D01*
X159268229Y-104762869D01*
X159270866Y-104764654D01*
X159272894Y-104764982D01*
X159277624Y-104769227D01*
X159307097Y-104789176D01*
X159389707Y-104871786D01*
X159389711Y-104871789D01*
X159520814Y-104959390D01*
X159520827Y-104959397D01*
X159666498Y-105019735D01*
X159666503Y-105019737D01*
X159821153Y-105050499D01*
X159821156Y-105050500D01*
X159821158Y-105050500D01*
X159978844Y-105050500D01*
X159978845Y-105050499D01*
X160133497Y-105019737D01*
X160279179Y-104959394D01*
X160410289Y-104871789D01*
X160521789Y-104760289D01*
X160582524Y-104669391D01*
X160636134Y-104624589D01*
X160705459Y-104615881D01*
X160768487Y-104646035D01*
G37*
%TD.AperFunction*%
%TA.AperFunction,Conductor*%
G36*
X150922992Y-95919185D02*
G01*
X150943634Y-95935819D01*
X154363181Y-99355366D01*
X154396666Y-99416689D01*
X154399500Y-99443047D01*
X154399500Y-104313330D01*
X154399499Y-104313348D01*
X154399499Y-104479054D01*
X154399498Y-104479054D01*
X154439724Y-104629179D01*
X154440423Y-104631785D01*
X154459409Y-104664669D01*
X154519480Y-104768716D01*
X154593293Y-104842529D01*
X154598645Y-104849696D01*
X154607825Y-104874400D01*
X154620455Y-104897529D01*
X154619803Y-104906632D01*
X154622984Y-104915189D01*
X154617350Y-104940935D01*
X154615471Y-104967221D01*
X154610000Y-104974528D01*
X154608050Y-104983444D01*
X154589393Y-105002055D01*
X154573599Y-105023154D01*
X154561122Y-105030258D01*
X154558585Y-105032790D01*
X154555508Y-105033455D01*
X154546741Y-105038448D01*
X154420827Y-105090602D01*
X154420814Y-105090609D01*
X154289125Y-105178602D01*
X154222447Y-105199480D01*
X154220234Y-105199500D01*
X149994168Y-105199500D01*
X149927129Y-105179815D01*
X149881374Y-105127011D01*
X149871430Y-105057853D01*
X149891067Y-105006608D01*
X149909389Y-104979187D01*
X149909390Y-104979184D01*
X149909394Y-104979179D01*
X149911321Y-104974528D01*
X149950259Y-104880521D01*
X149969737Y-104833497D01*
X150000500Y-104678842D01*
X150000638Y-104678150D01*
X150033023Y-104616239D01*
X150034518Y-104614716D01*
X153480520Y-101168716D01*
X153559577Y-101031784D01*
X153600501Y-100879057D01*
X153600501Y-100720942D01*
X153600501Y-100713347D01*
X153600500Y-100713329D01*
X153600500Y-100179765D01*
X153620185Y-100112726D01*
X153621398Y-100110874D01*
X153709390Y-99979185D01*
X153709390Y-99979184D01*
X153709394Y-99979179D01*
X153712854Y-99970827D01*
X153767163Y-99839711D01*
X153769737Y-99833497D01*
X153800500Y-99678842D01*
X153800500Y-99521158D01*
X153800500Y-99521155D01*
X153800499Y-99521153D01*
X153794429Y-99490637D01*
X153769737Y-99366503D01*
X153765124Y-99355366D01*
X153709397Y-99220827D01*
X153709390Y-99220814D01*
X153621789Y-99089711D01*
X153621786Y-99089707D01*
X153510292Y-98978213D01*
X153510288Y-98978210D01*
X153379185Y-98890609D01*
X153379172Y-98890602D01*
X153233501Y-98830264D01*
X153233489Y-98830261D01*
X153078845Y-98799500D01*
X153078842Y-98799500D01*
X152921158Y-98799500D01*
X152921155Y-98799500D01*
X152766510Y-98830261D01*
X152766498Y-98830264D01*
X152620827Y-98890602D01*
X152620814Y-98890609D01*
X152489711Y-98978210D01*
X152489707Y-98978213D01*
X152378213Y-99089707D01*
X152378210Y-99089711D01*
X152290609Y-99220814D01*
X152290602Y-99220827D01*
X152230264Y-99366498D01*
X152230261Y-99366510D01*
X152199500Y-99521153D01*
X152199500Y-99678846D01*
X152230261Y-99833489D01*
X152230264Y-99833501D01*
X152290602Y-99979172D01*
X152290609Y-99979185D01*
X152378602Y-100110874D01*
X152399480Y-100177551D01*
X152399500Y-100179765D01*
X152399500Y-100499901D01*
X152379815Y-100566940D01*
X152363181Y-100587582D01*
X149524464Y-103426298D01*
X149505972Y-103436394D01*
X149490299Y-103450474D01*
X149475922Y-103452803D01*
X149463141Y-103459783D01*
X149442125Y-103458280D01*
X149421329Y-103461650D01*
X149407976Y-103455837D01*
X149393449Y-103454799D01*
X149376582Y-103442172D01*
X149357265Y-103433764D01*
X149340667Y-103415286D01*
X149337516Y-103412927D01*
X149333680Y-103407507D01*
X149321397Y-103389124D01*
X149300520Y-103322447D01*
X149300500Y-103320234D01*
X149300500Y-97143047D01*
X149320185Y-97076008D01*
X149336819Y-97055366D01*
X150456366Y-95935819D01*
X150517689Y-95902334D01*
X150544047Y-95899500D01*
X150855953Y-95899500D01*
X150922992Y-95919185D01*
G37*
%TD.AperFunction*%
%TA.AperFunction,Conductor*%
G36*
X170216885Y-101771185D02*
G01*
X170262640Y-101823989D01*
X170272584Y-101893147D01*
X170243559Y-101956703D01*
X170237527Y-101963181D01*
X167409628Y-104791079D01*
X167348305Y-104824564D01*
X167278613Y-104819580D01*
X167222680Y-104777708D01*
X167198263Y-104712244D01*
X167213115Y-104643971D01*
X167214523Y-104641461D01*
X167234577Y-104606728D01*
X167275501Y-104454001D01*
X167275501Y-104295886D01*
X167275501Y-104288291D01*
X167275500Y-104288273D01*
X167275500Y-104025097D01*
X167295185Y-103958058D01*
X167311819Y-103937416D01*
X169461415Y-101787820D01*
X169488342Y-101773116D01*
X169514155Y-101756526D01*
X169520359Y-101755633D01*
X169522738Y-101754335D01*
X169549090Y-101751501D01*
X169562298Y-101751501D01*
X169562300Y-101751500D01*
X169569904Y-101751500D01*
X170149846Y-101751500D01*
X170216885Y-101771185D01*
G37*
%TD.AperFunction*%
%TA.AperFunction,Conductor*%
G36*
X142287205Y-76121750D02*
G01*
X142338585Y-76169099D01*
X142356209Y-76236710D01*
X142334483Y-76303116D01*
X142331540Y-76307219D01*
X142331206Y-76307664D01*
X142331202Y-76307671D01*
X142280908Y-76442517D01*
X142276408Y-76484381D01*
X142274501Y-76502123D01*
X142274500Y-76502135D01*
X142274500Y-78297870D01*
X142274501Y-78297876D01*
X142280908Y-78357483D01*
X142331202Y-78492328D01*
X142331206Y-78492335D01*
X142417452Y-78607544D01*
X142417455Y-78607547D01*
X142532664Y-78693793D01*
X142532671Y-78693797D01*
X142667517Y-78744091D01*
X142667516Y-78744091D01*
X142674444Y-78744835D01*
X142727127Y-78750500D01*
X144121732Y-78750499D01*
X144188771Y-78770184D01*
X144234526Y-78822987D01*
X144244470Y-78892146D01*
X144215445Y-78955702D01*
X144194374Y-78974292D01*
X144194419Y-78974347D01*
X144192885Y-78975605D01*
X144190626Y-78977599D01*
X144189712Y-78978209D01*
X144189707Y-78978213D01*
X144078213Y-79089707D01*
X144078210Y-79089711D01*
X143990609Y-79220814D01*
X143990602Y-79220827D01*
X143930264Y-79366498D01*
X143930261Y-79366510D01*
X143899500Y-79521153D01*
X143899500Y-79525500D01*
X143879815Y-79592539D01*
X143827011Y-79638294D01*
X143775500Y-79649500D01*
X142727129Y-79649500D01*
X142727123Y-79649501D01*
X142667516Y-79655908D01*
X142532671Y-79706202D01*
X142532664Y-79706206D01*
X142417455Y-79792452D01*
X142417452Y-79792455D01*
X142331206Y-79907664D01*
X142331202Y-79907671D01*
X142280908Y-80042517D01*
X142274501Y-80102116D01*
X142274500Y-80102135D01*
X142274500Y-81897870D01*
X142274501Y-81897876D01*
X142280908Y-81957483D01*
X142331202Y-82092328D01*
X142331206Y-82092335D01*
X142417452Y-82207544D01*
X142417455Y-82207547D01*
X142532664Y-82293793D01*
X142532671Y-82293797D01*
X142577618Y-82310561D01*
X142667517Y-82344091D01*
X142727127Y-82350500D01*
X142900500Y-82350499D01*
X142967539Y-82370183D01*
X143013294Y-82422987D01*
X143024500Y-82474499D01*
X143024500Y-82938330D01*
X143024499Y-82938348D01*
X143024499Y-83104054D01*
X143024498Y-83104054D01*
X143065423Y-83256786D01*
X143080282Y-83282521D01*
X143080283Y-83282523D01*
X143144477Y-83393712D01*
X143144481Y-83393717D01*
X143263349Y-83512585D01*
X143263355Y-83512590D01*
X144114139Y-84363374D01*
X144114149Y-84363385D01*
X144118479Y-84367715D01*
X144118480Y-84367716D01*
X144230284Y-84479520D01*
X144230286Y-84479521D01*
X144230290Y-84479524D01*
X144282342Y-84509576D01*
X144282347Y-84509578D01*
X144367209Y-84558574D01*
X144367210Y-84558575D01*
X144367212Y-84558575D01*
X144367215Y-84558577D01*
X144519943Y-84599501D01*
X144519946Y-84599501D01*
X144685653Y-84599501D01*
X144685669Y-84599500D01*
X147107231Y-84599500D01*
X147107247Y-84599501D01*
X147114843Y-84599501D01*
X147272954Y-84599501D01*
X147272957Y-84599501D01*
X147425685Y-84558577D01*
X147510555Y-84509577D01*
X147562616Y-84479520D01*
X147674420Y-84367716D01*
X147674420Y-84367714D01*
X147684624Y-84357511D01*
X147684628Y-84357506D01*
X153270076Y-78772057D01*
X153331397Y-78738574D01*
X153394772Y-78743106D01*
X153394962Y-78742306D01*
X153399902Y-78743473D01*
X153401087Y-78743557D01*
X153401092Y-78743559D01*
X153401095Y-78743561D01*
X153402512Y-78744089D01*
X153402511Y-78744089D01*
X153402517Y-78744091D01*
X153462127Y-78750500D01*
X153640621Y-78750499D01*
X153663801Y-78757305D01*
X153687826Y-78759836D01*
X153696718Y-78766970D01*
X153707660Y-78770183D01*
X153723481Y-78788441D01*
X153742324Y-78803559D01*
X153748982Y-78817872D01*
X153753415Y-78822987D01*
X153758191Y-78835086D01*
X153759499Y-78838987D01*
X153759499Y-78839057D01*
X153800423Y-78991785D01*
X153818754Y-79023535D01*
X153824979Y-79034318D01*
X153824980Y-79034319D01*
X153879477Y-79128712D01*
X153879481Y-79128717D01*
X153998349Y-79247585D01*
X153998355Y-79247590D01*
X155880463Y-81129698D01*
X155913948Y-81191021D01*
X155908964Y-81260713D01*
X155867092Y-81316646D01*
X155801628Y-81341063D01*
X155733355Y-81326211D01*
X155723891Y-81320481D01*
X155679185Y-81290609D01*
X155679172Y-81290602D01*
X155533501Y-81230264D01*
X155533489Y-81230261D01*
X155378845Y-81199500D01*
X155378842Y-81199500D01*
X155221158Y-81199500D01*
X155221155Y-81199500D01*
X155066510Y-81230261D01*
X155066498Y-81230264D01*
X154920827Y-81290602D01*
X154920814Y-81290609D01*
X154789711Y-81378210D01*
X154789707Y-81378213D01*
X154678213Y-81489707D01*
X154678210Y-81489711D01*
X154590609Y-81620814D01*
X154590602Y-81620827D01*
X154530264Y-81766498D01*
X154530261Y-81766510D01*
X154499500Y-81921153D01*
X154499500Y-82078846D01*
X154530261Y-82233489D01*
X154530264Y-82233501D01*
X154590602Y-82379172D01*
X154590609Y-82379185D01*
X154678210Y-82510288D01*
X154682076Y-82514999D01*
X154681061Y-82515831D01*
X154684152Y-82520935D01*
X154692322Y-82527758D01*
X154704330Y-82554248D01*
X154707566Y-82559590D01*
X154708351Y-82562096D01*
X154740423Y-82681785D01*
X154745516Y-82690606D01*
X154752356Y-82702453D01*
X154752357Y-82702456D01*
X154819477Y-82818712D01*
X154819481Y-82818717D01*
X154938349Y-82937585D01*
X154938355Y-82937590D01*
X155915425Y-83914660D01*
X155948910Y-83975983D01*
X155949361Y-83978149D01*
X155980261Y-84133491D01*
X155980264Y-84133501D01*
X156040602Y-84279172D01*
X156040609Y-84279185D01*
X156128210Y-84410288D01*
X156128213Y-84410292D01*
X156239707Y-84521786D01*
X156239711Y-84521789D01*
X156370814Y-84609390D01*
X156370827Y-84609397D01*
X156489478Y-84658543D01*
X156516503Y-84669737D01*
X156626987Y-84691713D01*
X156649691Y-84696230D01*
X156711602Y-84728615D01*
X156746176Y-84789330D01*
X156749500Y-84817847D01*
X156749500Y-91825500D01*
X156729815Y-91892539D01*
X156677011Y-91938294D01*
X156625500Y-91949500D01*
X156621155Y-91949500D01*
X156466510Y-91980261D01*
X156466498Y-91980264D01*
X156320827Y-92040602D01*
X156320814Y-92040609D01*
X156189125Y-92128602D01*
X156122447Y-92149480D01*
X156120234Y-92149500D01*
X150120999Y-92149500D01*
X149968269Y-92190423D01*
X149937274Y-92208320D01*
X149937272Y-92208321D01*
X149831344Y-92269477D01*
X149831339Y-92269481D01*
X144069481Y-98031339D01*
X144069479Y-98031342D01*
X144052085Y-98061471D01*
X144030706Y-98098500D01*
X143990423Y-98168272D01*
X143949499Y-98321000D01*
X143949499Y-98321002D01*
X143949499Y-98489103D01*
X143949500Y-98489116D01*
X143949500Y-100870234D01*
X143929815Y-100937273D01*
X143928602Y-100939125D01*
X143840609Y-101070814D01*
X143840602Y-101070827D01*
X143780264Y-101216498D01*
X143780261Y-101216510D01*
X143749500Y-101371153D01*
X143749500Y-101528846D01*
X143780261Y-101683489D01*
X143780264Y-101683501D01*
X143840602Y-101829172D01*
X143840609Y-101829185D01*
X143928210Y-101960288D01*
X143928213Y-101960292D01*
X144039707Y-102071786D01*
X144039711Y-102071789D01*
X144170814Y-102159390D01*
X144170827Y-102159397D01*
X144256782Y-102195000D01*
X144316503Y-102219737D01*
X144471153Y-102250499D01*
X144471156Y-102250500D01*
X144471158Y-102250500D01*
X144628844Y-102250500D01*
X144628845Y-102250499D01*
X144783497Y-102219737D01*
X144929179Y-102159394D01*
X145060289Y-102071789D01*
X145171789Y-101960289D01*
X145259394Y-101829179D01*
X145319737Y-101683497D01*
X145350500Y-101528842D01*
X145350500Y-101371158D01*
X145350500Y-101371155D01*
X145350499Y-101371153D01*
X145342657Y-101331727D01*
X145319737Y-101216503D01*
X145304203Y-101179000D01*
X145259397Y-101070827D01*
X145259390Y-101070814D01*
X145171398Y-100939125D01*
X145150520Y-100872447D01*
X145150500Y-100870234D01*
X145150500Y-98700153D01*
X145170185Y-98633114D01*
X145186815Y-98612476D01*
X145737821Y-98061469D01*
X145799142Y-98027986D01*
X145868833Y-98032970D01*
X145924767Y-98074841D01*
X145949184Y-98140306D01*
X145949500Y-98149151D01*
X145949500Y-98350000D01*
X145949501Y-98350019D01*
X145960000Y-98452796D01*
X145960001Y-98452799D01*
X146015185Y-98619331D01*
X146015187Y-98619336D01*
X146033356Y-98648792D01*
X146101037Y-98758522D01*
X146107289Y-98768657D01*
X146200951Y-98862319D01*
X146234436Y-98923642D01*
X146229452Y-98993334D01*
X146200951Y-99037681D01*
X146107289Y-99131342D01*
X146015187Y-99280663D01*
X146015185Y-99280668D01*
X146002240Y-99319735D01*
X145960001Y-99447203D01*
X145960001Y-99447204D01*
X145960000Y-99447204D01*
X145949500Y-99549983D01*
X145949500Y-100350001D01*
X145949501Y-100350019D01*
X145960000Y-100452796D01*
X145960001Y-100452799D01*
X145993325Y-100553363D01*
X146015186Y-100619334D01*
X146107288Y-100768656D01*
X146231344Y-100892712D01*
X146380666Y-100984814D01*
X146464505Y-101012595D01*
X146521948Y-101052366D01*
X146548772Y-101116882D01*
X146549500Y-101130300D01*
X146549500Y-103120882D01*
X146549499Y-103120886D01*
X146549499Y-103244478D01*
X146549499Y-103275576D01*
X146529814Y-103342615D01*
X146477010Y-103388370D01*
X146416545Y-103397063D01*
X146407852Y-103398313D01*
X146407851Y-103398312D01*
X146407851Y-103398313D01*
X146407849Y-103398312D01*
X146378047Y-103390136D01*
X146233501Y-103330264D01*
X146233489Y-103330261D01*
X146078845Y-103299500D01*
X146078842Y-103299500D01*
X145921158Y-103299500D01*
X145921155Y-103299500D01*
X145766510Y-103330261D01*
X145766498Y-103330264D01*
X145620827Y-103390602D01*
X145620814Y-103390609D01*
X145489125Y-103478602D01*
X145422447Y-103499480D01*
X145420234Y-103499500D01*
X142944776Y-103499500D01*
X142944760Y-103499499D01*
X142937164Y-103499499D01*
X142779050Y-103499499D01*
X142699117Y-103520917D01*
X142626323Y-103540422D01*
X142584265Y-103564705D01*
X142584264Y-103564704D01*
X142489394Y-103619477D01*
X142489389Y-103619481D01*
X142012181Y-104096690D01*
X141950858Y-104130175D01*
X141881166Y-104125191D01*
X141825233Y-104083319D01*
X141800816Y-104017855D01*
X141800500Y-104009009D01*
X141800500Y-76606961D01*
X141801280Y-76593077D01*
X141802578Y-76581561D01*
X141811459Y-76502731D01*
X141817635Y-76475670D01*
X141845353Y-76396456D01*
X141857396Y-76371450D01*
X141902046Y-76300389D01*
X141919351Y-76278690D01*
X141978690Y-76219351D01*
X142000389Y-76202046D01*
X142071450Y-76157396D01*
X142096456Y-76145353D01*
X142175670Y-76117635D01*
X142202731Y-76111459D01*
X142218384Y-76109696D01*
X142287205Y-76121750D01*
G37*
%TD.AperFunction*%
%TA.AperFunction,Conductor*%
G36*
X168094967Y-96154779D02*
G01*
X168099059Y-96156389D01*
X168180042Y-96189933D01*
X168180046Y-96189933D01*
X168180047Y-96189934D01*
X168358843Y-96225500D01*
X168358846Y-96225500D01*
X168400500Y-96225500D01*
X168467539Y-96245185D01*
X168513294Y-96297989D01*
X168524500Y-96349500D01*
X168524500Y-96391154D01*
X168524500Y-96391156D01*
X168524499Y-96391156D01*
X168560065Y-96569952D01*
X168560068Y-96569962D01*
X168629831Y-96738387D01*
X168629833Y-96738391D01*
X168731113Y-96889967D01*
X168731119Y-96889975D01*
X168860025Y-97018881D01*
X168860028Y-97018883D01*
X168963579Y-97088073D01*
X169008384Y-97141684D01*
X169017091Y-97211009D01*
X168997795Y-97260059D01*
X168990610Y-97270813D01*
X168990602Y-97270827D01*
X168930264Y-97416498D01*
X168930261Y-97416510D01*
X168899500Y-97571153D01*
X168899500Y-97728846D01*
X168930261Y-97883489D01*
X168930264Y-97883501D01*
X168990602Y-98029172D01*
X168990609Y-98029185D01*
X169078210Y-98160288D01*
X169078213Y-98160292D01*
X169189707Y-98271786D01*
X169189711Y-98271789D01*
X169320814Y-98359390D01*
X169320827Y-98359397D01*
X169466498Y-98419735D01*
X169466503Y-98419737D01*
X169621153Y-98450499D01*
X169621156Y-98450500D01*
X169621158Y-98450500D01*
X169778844Y-98450500D01*
X169778845Y-98450499D01*
X169933497Y-98419737D01*
X170057243Y-98368480D01*
X170079172Y-98359397D01*
X170079172Y-98359396D01*
X170079179Y-98359394D01*
X170093238Y-98350000D01*
X170210875Y-98271398D01*
X170277553Y-98250520D01*
X170279766Y-98250500D01*
X170592098Y-98250500D01*
X170659137Y-98270185D01*
X170704892Y-98322989D01*
X170713715Y-98350308D01*
X170730261Y-98433491D01*
X170730264Y-98433501D01*
X170790602Y-98579172D01*
X170790609Y-98579185D01*
X170878210Y-98710288D01*
X170878213Y-98710292D01*
X170926443Y-98758522D01*
X170959928Y-98819845D01*
X170954944Y-98889537D01*
X170913072Y-98945470D01*
X170886215Y-98960764D01*
X170879211Y-98963664D01*
X170742290Y-99042715D01*
X170742282Y-99042721D01*
X170630481Y-99154522D01*
X170630475Y-99154530D01*
X170551426Y-99291449D01*
X170551423Y-99291456D01*
X170510500Y-99444183D01*
X170510500Y-100176663D01*
X170490815Y-100243702D01*
X170474181Y-100264344D01*
X170224344Y-100514181D01*
X170163021Y-100547666D01*
X170136663Y-100550500D01*
X169763107Y-100550500D01*
X169701107Y-100533887D01*
X169597905Y-100474303D01*
X169445177Y-100433379D01*
X169287063Y-100433379D01*
X169147356Y-100470814D01*
X169134331Y-100474304D01*
X169020989Y-100539742D01*
X169020990Y-100539743D01*
X168997407Y-100553359D01*
X168997401Y-100553363D01*
X166412181Y-103138583D01*
X166350858Y-103172068D01*
X166281166Y-103167084D01*
X166225233Y-103125212D01*
X166200816Y-103059748D01*
X166200500Y-103050902D01*
X166200500Y-101767648D01*
X166220185Y-101700609D01*
X166272989Y-101654854D01*
X166342147Y-101644910D01*
X166348672Y-101646027D01*
X166371158Y-101650500D01*
X166528844Y-101650500D01*
X166528845Y-101650499D01*
X166683497Y-101619737D01*
X166829179Y-101559394D01*
X166960289Y-101471789D01*
X167071789Y-101360289D01*
X167159394Y-101229179D01*
X167219737Y-101083497D01*
X167250500Y-100928842D01*
X167250500Y-100771158D01*
X167250500Y-100771155D01*
X167250499Y-100771153D01*
X167240511Y-100720942D01*
X167219737Y-100616503D01*
X167206062Y-100583489D01*
X167159397Y-100470827D01*
X167159390Y-100470814D01*
X167071398Y-100339125D01*
X167050520Y-100272447D01*
X167050500Y-100270234D01*
X167050500Y-99474500D01*
X167070185Y-99407461D01*
X167122989Y-99361706D01*
X167174500Y-99350500D01*
X167228844Y-99350500D01*
X167228845Y-99350499D01*
X167383497Y-99319737D01*
X167509469Y-99267558D01*
X167529172Y-99259397D01*
X167529172Y-99259396D01*
X167529179Y-99259394D01*
X167660289Y-99171789D01*
X167771789Y-99060289D01*
X167859394Y-98929179D01*
X167861688Y-98923642D01*
X167875814Y-98889537D01*
X167919737Y-98783497D01*
X167950500Y-98628842D01*
X167950500Y-98471158D01*
X167950500Y-98471155D01*
X167950499Y-98471153D01*
X167946848Y-98452797D01*
X167919737Y-98316503D01*
X167904950Y-98280803D01*
X167859397Y-98170827D01*
X167859390Y-98170814D01*
X167771789Y-98039711D01*
X167771786Y-98039707D01*
X167660292Y-97928213D01*
X167660288Y-97928210D01*
X167529185Y-97840609D01*
X167529172Y-97840602D01*
X167528034Y-97840131D01*
X167527530Y-97839724D01*
X167523809Y-97837736D01*
X167524186Y-97837029D01*
X167473636Y-97796283D01*
X167451578Y-97729987D01*
X167451500Y-97725575D01*
X167451500Y-96747096D01*
X167471185Y-96680057D01*
X167487815Y-96659419D01*
X167963955Y-96183278D01*
X168025276Y-96149795D01*
X168094967Y-96154779D01*
G37*
%TD.AperFunction*%
%TA.AperFunction,Conductor*%
G36*
X155728814Y-99228275D02*
G01*
X155742147Y-99226359D01*
X155762290Y-99235558D01*
X155783927Y-99240265D01*
X155801652Y-99253533D01*
X155805703Y-99255384D01*
X155812181Y-99261416D01*
X155812409Y-99261644D01*
X155812412Y-99261648D01*
X156138583Y-99587819D01*
X156172068Y-99649142D01*
X156167084Y-99718834D01*
X156125212Y-99774767D01*
X156059748Y-99799184D01*
X156050902Y-99799500D01*
X155724500Y-99799500D01*
X155657461Y-99779815D01*
X155611706Y-99727011D01*
X155600500Y-99675500D01*
X155600500Y-99349097D01*
X155606738Y-99327851D01*
X155608318Y-99305763D01*
X155616390Y-99294979D01*
X155620185Y-99282058D01*
X155636918Y-99267558D01*
X155650190Y-99249830D01*
X155662810Y-99245122D01*
X155672989Y-99236303D01*
X155694906Y-99233151D01*
X155715654Y-99225413D01*
X155728814Y-99228275D01*
G37*
%TD.AperFunction*%
%TA.AperFunction,Conductor*%
G36*
X159284536Y-98574864D02*
G01*
X159317745Y-98626614D01*
X159340186Y-98694334D01*
X159424027Y-98830263D01*
X159432289Y-98843657D01*
X159503259Y-98914627D01*
X159536744Y-98975950D01*
X159531760Y-99045642D01*
X159489888Y-99101575D01*
X159424424Y-99125992D01*
X159400799Y-99125424D01*
X159393102Y-99124500D01*
X159206898Y-99124500D01*
X159167853Y-99129188D01*
X159118438Y-99135122D01*
X158977656Y-99190639D01*
X158974924Y-99192712D01*
X158971981Y-99193830D01*
X158970266Y-99194795D01*
X158970121Y-99194537D01*
X158909612Y-99217534D01*
X158849672Y-99207234D01*
X158836528Y-99201397D01*
X158822342Y-99190639D01*
X158732721Y-99155296D01*
X158730303Y-99154223D01*
X158705580Y-99133250D01*
X158679997Y-99113344D01*
X158678570Y-99110336D01*
X158677023Y-99109024D01*
X158675356Y-99103560D01*
X158660855Y-99072987D01*
X158659577Y-99068216D01*
X158616344Y-98993334D01*
X158580524Y-98931290D01*
X158580518Y-98931282D01*
X158511916Y-98862680D01*
X158507578Y-98854735D01*
X158500330Y-98849310D01*
X158491093Y-98824547D01*
X158478431Y-98801357D01*
X158479076Y-98792328D01*
X158475913Y-98783846D01*
X158481529Y-98758023D01*
X158483415Y-98731665D01*
X158489232Y-98722612D01*
X158490764Y-98715573D01*
X158511912Y-98687321D01*
X158584458Y-98614775D01*
X158645777Y-98581293D01*
X158696327Y-98580842D01*
X158795153Y-98600499D01*
X158795156Y-98600500D01*
X158795158Y-98600500D01*
X158952844Y-98600500D01*
X158952845Y-98600499D01*
X159107497Y-98569737D01*
X159152591Y-98551058D01*
X159222057Y-98543590D01*
X159284536Y-98574864D01*
G37*
%TD.AperFunction*%
%TA.AperFunction,Conductor*%
G36*
X162488377Y-90205827D02*
G01*
X162507287Y-90206165D01*
X162535504Y-90219665D01*
X162537273Y-90220185D01*
X162539125Y-90221398D01*
X162670814Y-90309390D01*
X162670827Y-90309397D01*
X162816498Y-90369735D01*
X162816503Y-90369737D01*
X162926987Y-90391713D01*
X162949691Y-90396230D01*
X163011602Y-90428615D01*
X163046176Y-90489330D01*
X163049500Y-90517847D01*
X163049500Y-92875500D01*
X163029815Y-92942539D01*
X162977011Y-92988294D01*
X162925500Y-92999500D01*
X161974998Y-92999500D01*
X161974980Y-92999501D01*
X161872203Y-93010000D01*
X161872200Y-93010001D01*
X161705668Y-93065185D01*
X161705663Y-93065187D01*
X161556342Y-93157289D01*
X161432289Y-93281342D01*
X161340187Y-93430663D01*
X161340185Y-93430668D01*
X161319813Y-93492147D01*
X161285001Y-93597203D01*
X161285001Y-93597204D01*
X161285000Y-93597204D01*
X161274500Y-93699983D01*
X161274500Y-94475001D01*
X161274501Y-94475019D01*
X161285000Y-94577796D01*
X161285001Y-94577799D01*
X161340185Y-94744331D01*
X161340187Y-94744336D01*
X161356519Y-94770814D01*
X161432288Y-94893656D01*
X161556344Y-95017712D01*
X161705666Y-95109814D01*
X161814505Y-95145879D01*
X161871949Y-95185652D01*
X161898772Y-95250167D01*
X161899500Y-95263585D01*
X161899500Y-95737402D01*
X161879815Y-95804441D01*
X161863181Y-95825083D01*
X160775082Y-96913181D01*
X160713759Y-96946666D01*
X160687401Y-96949500D01*
X159974998Y-96949500D01*
X159974980Y-96949501D01*
X159872203Y-96960000D01*
X159872200Y-96960001D01*
X159705668Y-97015185D01*
X159705663Y-97015187D01*
X159556342Y-97107289D01*
X159516870Y-97146761D01*
X159455547Y-97180246D01*
X159385855Y-97175260D01*
X159360299Y-97162181D01*
X159253185Y-97090609D01*
X159253172Y-97090602D01*
X159107501Y-97030264D01*
X159107489Y-97030261D01*
X158952845Y-96999500D01*
X158952842Y-96999500D01*
X158795158Y-96999500D01*
X158795155Y-96999500D01*
X158640510Y-97030261D01*
X158640498Y-97030264D01*
X158494827Y-97090602D01*
X158494814Y-97090609D01*
X158363714Y-97178208D01*
X158363709Y-97178212D01*
X158290203Y-97251717D01*
X158264523Y-97271422D01*
X158181287Y-97319477D01*
X158181282Y-97319481D01*
X158069478Y-97431286D01*
X157877590Y-97623173D01*
X157816267Y-97656658D01*
X157746575Y-97651674D01*
X157690642Y-97609802D01*
X157671247Y-97571483D01*
X157669738Y-97566511D01*
X157669737Y-97566503D01*
X157646741Y-97510986D01*
X157609397Y-97420827D01*
X157609390Y-97420814D01*
X157521789Y-97289711D01*
X157521786Y-97289707D01*
X157410292Y-97178213D01*
X157410288Y-97178210D01*
X157279185Y-97090609D01*
X157279175Y-97090604D01*
X157223967Y-97067736D01*
X157169564Y-97023895D01*
X157147499Y-96957600D01*
X157164778Y-96889901D01*
X157183735Y-96865498D01*
X157708506Y-96340728D01*
X157708511Y-96340724D01*
X157718714Y-96330520D01*
X157718716Y-96330520D01*
X157830520Y-96218716D01*
X157889501Y-96116557D01*
X157909577Y-96081785D01*
X157922348Y-96034123D01*
X157925414Y-96026694D01*
X157942462Y-96005480D01*
X157956626Y-95982244D01*
X157964028Y-95978648D01*
X157969184Y-95972233D01*
X157994993Y-95963605D01*
X158019472Y-95951714D01*
X158027893Y-95950593D01*
X158028832Y-95950500D01*
X158028842Y-95950500D01*
X158183497Y-95919737D01*
X158329179Y-95859394D01*
X158460289Y-95771789D01*
X158571789Y-95660289D01*
X158659394Y-95529179D01*
X158719737Y-95383497D01*
X158750500Y-95228842D01*
X158750500Y-95071158D01*
X158750500Y-95071155D01*
X158750499Y-95071153D01*
X158726579Y-94950902D01*
X158719737Y-94916503D01*
X158696999Y-94861608D01*
X158659397Y-94770827D01*
X158659390Y-94770814D01*
X158571789Y-94639711D01*
X158571786Y-94639707D01*
X158460292Y-94528213D01*
X158460284Y-94528207D01*
X158455605Y-94525080D01*
X158410802Y-94471466D01*
X158400500Y-94421981D01*
X158400500Y-93000097D01*
X158420185Y-92933058D01*
X158436819Y-92912416D01*
X160289078Y-91060157D01*
X160289089Y-91060144D01*
X161112417Y-90236819D01*
X161173740Y-90203334D01*
X161200098Y-90200500D01*
X162470234Y-90200500D01*
X162488377Y-90205827D01*
G37*
%TD.AperFunction*%
%TA.AperFunction,Conductor*%
G36*
X154539689Y-93370185D02*
G01*
X154585444Y-93422989D01*
X154595388Y-93492147D01*
X154575752Y-93543391D01*
X154490609Y-93670814D01*
X154490602Y-93670827D01*
X154430264Y-93816498D01*
X154430261Y-93816510D01*
X154399500Y-93971153D01*
X154399500Y-94128846D01*
X154430261Y-94283489D01*
X154430264Y-94283501D01*
X154490602Y-94429172D01*
X154490609Y-94429185D01*
X154546613Y-94513000D01*
X154567491Y-94579677D01*
X154549007Y-94647058D01*
X154531192Y-94669572D01*
X153435339Y-95765425D01*
X153374016Y-95798910D01*
X153371850Y-95799361D01*
X153216508Y-95830261D01*
X153216498Y-95830264D01*
X153070827Y-95890602D01*
X153070814Y-95890609D01*
X152939711Y-95978210D01*
X152939707Y-95978213D01*
X152899784Y-96018137D01*
X152838461Y-96051622D01*
X152768769Y-96046638D01*
X152724422Y-96018137D01*
X151643640Y-94937355D01*
X151643638Y-94937352D01*
X151524767Y-94818481D01*
X151524759Y-94818475D01*
X151418971Y-94757399D01*
X151387838Y-94739424D01*
X151387837Y-94739423D01*
X151326743Y-94723053D01*
X151235107Y-94698499D01*
X151076993Y-94698499D01*
X151069397Y-94698499D01*
X151069381Y-94698500D01*
X150330619Y-94698500D01*
X150330603Y-94698499D01*
X150323007Y-94698499D01*
X150164893Y-94698499D01*
X150088529Y-94718961D01*
X150012162Y-94739423D01*
X150012161Y-94739424D01*
X149981029Y-94757399D01*
X149875237Y-94818477D01*
X149875232Y-94818481D01*
X148219481Y-96474232D01*
X148219480Y-96474234D01*
X148178346Y-96545481D01*
X148140423Y-96611165D01*
X148099499Y-96763893D01*
X148099499Y-96763895D01*
X148099499Y-96804557D01*
X148079814Y-96871596D01*
X148027010Y-96917351D01*
X147957852Y-96927295D01*
X147923101Y-96916942D01*
X147919339Y-96915188D01*
X147919335Y-96915186D01*
X147919334Y-96915186D01*
X147752797Y-96860001D01*
X147752795Y-96860000D01*
X147650016Y-96849500D01*
X147650009Y-96849500D01*
X147249153Y-96849500D01*
X147182114Y-96829815D01*
X147136359Y-96777011D01*
X147126415Y-96707853D01*
X147155440Y-96644297D01*
X147161472Y-96637819D01*
X148727224Y-95072068D01*
X150412473Y-93386819D01*
X150473796Y-93353334D01*
X150500154Y-93350500D01*
X154472650Y-93350500D01*
X154539689Y-93370185D01*
G37*
%TD.AperFunction*%
%TA.AperFunction,Conductor*%
G36*
X174876031Y-84259046D02*
G01*
X174903295Y-84257422D01*
X174910382Y-84261402D01*
X174918491Y-84261958D01*
X174940403Y-84278260D01*
X174964216Y-84291633D01*
X174968025Y-84298811D01*
X174974548Y-84303664D01*
X174984167Y-84329226D01*
X174996971Y-84353350D01*
X174998346Y-84366902D01*
X174999157Y-84369056D01*
X174998755Y-84370929D01*
X174999500Y-84378267D01*
X174999500Y-95674183D01*
X174979815Y-95741222D01*
X174927011Y-95786977D01*
X174857853Y-95796921D01*
X174794297Y-95767896D01*
X174787819Y-95761864D01*
X174411819Y-95385864D01*
X174378334Y-95324541D01*
X174375500Y-95298183D01*
X174375500Y-95208843D01*
X174339934Y-95030047D01*
X174339933Y-95030046D01*
X174339933Y-95030042D01*
X174334825Y-95017710D01*
X174270168Y-94861612D01*
X174270166Y-94861608D01*
X174168886Y-94710032D01*
X174168880Y-94710024D01*
X174039975Y-94581119D01*
X174039967Y-94581113D01*
X173888391Y-94479833D01*
X173888387Y-94479831D01*
X173719962Y-94410068D01*
X173719952Y-94410065D01*
X173541156Y-94374500D01*
X173541154Y-94374500D01*
X173358846Y-94374500D01*
X173358844Y-94374500D01*
X173180047Y-94410065D01*
X173180041Y-94410067D01*
X173011605Y-94479835D01*
X173008444Y-94481525D01*
X173006600Y-94481908D01*
X173005984Y-94482164D01*
X173005935Y-94482047D01*
X172940040Y-94495761D01*
X172891556Y-94481525D01*
X172888394Y-94479835D01*
X172719958Y-94410067D01*
X172719952Y-94410065D01*
X172541156Y-94374500D01*
X172541154Y-94374500D01*
X172358846Y-94374500D01*
X172358844Y-94374500D01*
X172180047Y-94410065D01*
X172180041Y-94410067D01*
X172011605Y-94479835D01*
X172008444Y-94481525D01*
X172006600Y-94481908D01*
X172005984Y-94482164D01*
X172005935Y-94482047D01*
X171940040Y-94495761D01*
X171891556Y-94481525D01*
X171888394Y-94479835D01*
X171719958Y-94410067D01*
X171719952Y-94410065D01*
X171541156Y-94374500D01*
X171541154Y-94374500D01*
X171358846Y-94374500D01*
X171358841Y-94374500D01*
X171280275Y-94390128D01*
X171210684Y-94383901D01*
X171155506Y-94341038D01*
X171132262Y-94275148D01*
X171148330Y-94207151D01*
X171168399Y-94180834D01*
X172113981Y-93235253D01*
X172118714Y-93230520D01*
X172118716Y-93230520D01*
X172124925Y-93224311D01*
X172158640Y-93205905D01*
X172186240Y-93190834D01*
X172186246Y-93190833D01*
X172186251Y-93190831D01*
X172186261Y-93190831D01*
X172212598Y-93188000D01*
X172882734Y-93188000D01*
X172949773Y-93207685D01*
X172951625Y-93208898D01*
X173083314Y-93296890D01*
X173083327Y-93296897D01*
X173212738Y-93350500D01*
X173229003Y-93357237D01*
X173377721Y-93386819D01*
X173383653Y-93387999D01*
X173383656Y-93388000D01*
X173383658Y-93388000D01*
X173541344Y-93388000D01*
X173541345Y-93387999D01*
X173695997Y-93357237D01*
X173841679Y-93296894D01*
X173972789Y-93209289D01*
X174084289Y-93097789D01*
X174171894Y-92966679D01*
X174232237Y-92820997D01*
X174263000Y-92666342D01*
X174263000Y-92508658D01*
X174263000Y-92508655D01*
X174262999Y-92508653D01*
X174232237Y-92354003D01*
X174224503Y-92335331D01*
X174171897Y-92208327D01*
X174171890Y-92208314D01*
X174084289Y-92077211D01*
X174084286Y-92077207D01*
X173972792Y-91965713D01*
X173972788Y-91965710D01*
X173841685Y-91878109D01*
X173841672Y-91878102D01*
X173696001Y-91817764D01*
X173695989Y-91817761D01*
X173541345Y-91787000D01*
X173541342Y-91787000D01*
X173383658Y-91787000D01*
X173383655Y-91787000D01*
X173229010Y-91817761D01*
X173228998Y-91817764D01*
X173083327Y-91878102D01*
X173083314Y-91878109D01*
X172951625Y-91966102D01*
X172884947Y-91986980D01*
X172882734Y-91987000D01*
X172474500Y-91987000D01*
X172407461Y-91967315D01*
X172361706Y-91914511D01*
X172350500Y-91863000D01*
X172350500Y-85504604D01*
X172359939Y-85457151D01*
X172369737Y-85433497D01*
X172400500Y-85278842D01*
X172400500Y-85230500D01*
X172403050Y-85221814D01*
X172401762Y-85212853D01*
X172412740Y-85188812D01*
X172420185Y-85163461D01*
X172427025Y-85157533D01*
X172430787Y-85149297D01*
X172453021Y-85135007D01*
X172472989Y-85117706D01*
X172483503Y-85115418D01*
X172489565Y-85111523D01*
X172524500Y-85106500D01*
X172525959Y-85106500D01*
X172592998Y-85126185D01*
X172613640Y-85142819D01*
X172657341Y-85186520D01*
X172657343Y-85186521D01*
X172657347Y-85186524D01*
X172794266Y-85265573D01*
X172794273Y-85265577D01*
X172947000Y-85306501D01*
X172947002Y-85306501D01*
X173112711Y-85306501D01*
X173112727Y-85306500D01*
X173437274Y-85306500D01*
X173437290Y-85306501D01*
X173444886Y-85306501D01*
X173602997Y-85306501D01*
X173603000Y-85306501D01*
X173755728Y-85265577D01*
X173805847Y-85236639D01*
X173892659Y-85186520D01*
X174004463Y-85074716D01*
X174004463Y-85074714D01*
X174014671Y-85064507D01*
X174014673Y-85064504D01*
X174667713Y-84411464D01*
X174667716Y-84411463D01*
X174779520Y-84299659D01*
X174780519Y-84297928D01*
X174787561Y-84290845D01*
X174811490Y-84277686D01*
X174833549Y-84261579D01*
X174841662Y-84261095D01*
X174848785Y-84257179D01*
X174876031Y-84259046D01*
G37*
%TD.AperFunction*%
%TA.AperFunction,Conductor*%
G36*
X166861542Y-84007144D02*
G01*
X166891529Y-84013668D01*
X166896544Y-84017422D01*
X166899141Y-84018185D01*
X166919783Y-84034819D01*
X166998384Y-84113420D01*
X166998386Y-84113421D01*
X166998390Y-84113424D01*
X167126827Y-84187576D01*
X167135316Y-84192477D01*
X167288043Y-84233401D01*
X167299904Y-84233401D01*
X167329344Y-84242045D01*
X167359331Y-84248569D01*
X167364346Y-84252323D01*
X167366943Y-84253086D01*
X167387585Y-84269720D01*
X167463327Y-84345462D01*
X167496812Y-84406785D01*
X167491828Y-84476477D01*
X167483041Y-84495130D01*
X167479949Y-84500487D01*
X167479941Y-84500500D01*
X167441423Y-84567214D01*
X167441423Y-84567215D01*
X167400499Y-84719943D01*
X167400499Y-84719945D01*
X167400499Y-84888046D01*
X167400500Y-84888059D01*
X167400500Y-84902227D01*
X167380815Y-84969266D01*
X167364181Y-84989908D01*
X166848025Y-85506063D01*
X166835837Y-85516753D01*
X166832285Y-85519478D01*
X166720478Y-85631286D01*
X166720475Y-85631290D01*
X166641426Y-85768209D01*
X166641423Y-85768216D01*
X166600500Y-85920943D01*
X166600500Y-91251980D01*
X166580815Y-91319019D01*
X166528011Y-91364774D01*
X166500692Y-91373597D01*
X166341508Y-91405261D01*
X166341498Y-91405264D01*
X166195827Y-91465602D01*
X166195814Y-91465609D01*
X166064711Y-91553210D01*
X166064707Y-91553213D01*
X165953213Y-91664707D01*
X165953210Y-91664711D01*
X165865609Y-91795814D01*
X165865602Y-91795827D01*
X165805264Y-91941498D01*
X165805261Y-91941508D01*
X165774362Y-92096848D01*
X165741977Y-92158759D01*
X165740427Y-92160337D01*
X165635928Y-92264835D01*
X165604551Y-92319183D01*
X165595229Y-92335331D01*
X165556873Y-92401765D01*
X165515949Y-92554493D01*
X165515949Y-92554495D01*
X165515949Y-92722596D01*
X165515950Y-92722609D01*
X165515950Y-93037820D01*
X165496265Y-93104859D01*
X165443461Y-93150614D01*
X165439403Y-93152381D01*
X165312125Y-93205100D01*
X165312116Y-93205105D01*
X165181013Y-93292706D01*
X165181009Y-93292709D01*
X165069515Y-93404203D01*
X165069512Y-93404207D01*
X165027602Y-93466930D01*
X164973989Y-93511735D01*
X164904664Y-93520442D01*
X164841637Y-93490287D01*
X164804918Y-93430844D01*
X164800500Y-93398039D01*
X164800500Y-87877350D01*
X164820185Y-87810311D01*
X164872989Y-87764556D01*
X164942147Y-87754612D01*
X164993391Y-87774248D01*
X165120814Y-87859390D01*
X165120827Y-87859397D01*
X165266498Y-87919735D01*
X165266503Y-87919737D01*
X165421153Y-87950499D01*
X165421156Y-87950500D01*
X165421158Y-87950500D01*
X165578844Y-87950500D01*
X165578845Y-87950499D01*
X165733497Y-87919737D01*
X165879179Y-87859394D01*
X166010289Y-87771789D01*
X166121789Y-87660289D01*
X166209394Y-87529179D01*
X166269737Y-87383497D01*
X166300500Y-87228842D01*
X166300500Y-87071158D01*
X166300500Y-87071155D01*
X166300499Y-87071153D01*
X166269738Y-86916510D01*
X166269737Y-86916503D01*
X166269735Y-86916498D01*
X166209397Y-86770827D01*
X166209390Y-86770814D01*
X166121789Y-86639711D01*
X166121786Y-86639707D01*
X166010292Y-86528213D01*
X166010288Y-86528210D01*
X165879185Y-86440609D01*
X165879172Y-86440602D01*
X165733501Y-86380264D01*
X165733491Y-86380261D01*
X165578149Y-86349361D01*
X165516238Y-86316976D01*
X165514660Y-86315425D01*
X165236819Y-86037584D01*
X165203334Y-85976261D01*
X165200500Y-85949903D01*
X165200500Y-84122500D01*
X165220185Y-84055461D01*
X165272989Y-84009706D01*
X165324500Y-83998500D01*
X166832102Y-83998500D01*
X166861542Y-84007144D01*
G37*
%TD.AperFunction*%
%TA.AperFunction,Conductor*%
G36*
X169366942Y-90270185D02*
G01*
X169387583Y-90286818D01*
X170279812Y-91179048D01*
X170416744Y-91258105D01*
X170416746Y-91258105D01*
X170421517Y-91260860D01*
X170469733Y-91311427D01*
X170482957Y-91380034D01*
X170456989Y-91444899D01*
X170435015Y-91466615D01*
X170431290Y-91469473D01*
X170319478Y-91581286D01*
X169946134Y-91954631D01*
X169884811Y-91988116D01*
X169858453Y-91990950D01*
X169321216Y-91990950D01*
X169254177Y-91971265D01*
X169252325Y-91970052D01*
X169120635Y-91882059D01*
X169120622Y-91882052D01*
X168974951Y-91821714D01*
X168974939Y-91821711D01*
X168820295Y-91790950D01*
X168820292Y-91790950D01*
X168662608Y-91790950D01*
X168662605Y-91790950D01*
X168507960Y-91821711D01*
X168507948Y-91821714D01*
X168362277Y-91882052D01*
X168362264Y-91882059D01*
X168231161Y-91969660D01*
X168231157Y-91969663D01*
X168119663Y-92081157D01*
X168119660Y-92081161D01*
X168028671Y-92217336D01*
X168026298Y-92215750D01*
X167985864Y-92256889D01*
X167917722Y-92272330D01*
X167852050Y-92248479D01*
X167809697Y-92192909D01*
X167801500Y-92148574D01*
X167801500Y-90574500D01*
X167821185Y-90507461D01*
X167873989Y-90461706D01*
X167925500Y-90450500D01*
X167928844Y-90450500D01*
X167928845Y-90450499D01*
X168083497Y-90419737D01*
X168229179Y-90359394D01*
X168304005Y-90309397D01*
X168360875Y-90271398D01*
X168427553Y-90250520D01*
X168429766Y-90250500D01*
X169299903Y-90250500D01*
X169366942Y-90270185D01*
G37*
%TD.AperFunction*%
%TA.AperFunction,Conductor*%
G36*
X155824997Y-78283796D02*
G01*
X155878418Y-78295417D01*
X155906673Y-78316569D01*
X156020213Y-78430109D01*
X156192179Y-78555048D01*
X156192181Y-78555049D01*
X156192184Y-78555051D01*
X156381588Y-78651557D01*
X156583757Y-78717246D01*
X156793713Y-78750500D01*
X156793714Y-78750500D01*
X157006286Y-78750500D01*
X157006287Y-78750500D01*
X157216243Y-78717246D01*
X157418412Y-78651557D01*
X157607816Y-78555051D01*
X157679816Y-78502739D01*
X157745621Y-78479260D01*
X157813675Y-78495085D01*
X157840382Y-78515377D01*
X158439379Y-79114374D01*
X158439389Y-79114385D01*
X158443719Y-79118715D01*
X158443720Y-79118716D01*
X158555524Y-79230520D01*
X158620816Y-79268216D01*
X158692455Y-79309577D01*
X158845183Y-79350501D01*
X158845186Y-79350501D01*
X159010893Y-79350501D01*
X159010909Y-79350500D01*
X162170500Y-79350500D01*
X162237539Y-79370185D01*
X162283294Y-79422989D01*
X162294500Y-79474500D01*
X162294500Y-81801635D01*
X162298072Y-81839047D01*
X162303109Y-81891812D01*
X162303631Y-81897276D01*
X162303631Y-81897282D01*
X162309171Y-81926031D01*
X162310879Y-81938029D01*
X162311838Y-81948365D01*
X162317932Y-81963708D01*
X162321664Y-81974540D01*
X162339596Y-82035604D01*
X162339596Y-82035606D01*
X162357154Y-82066015D01*
X162363120Y-82077744D01*
X162364108Y-82079973D01*
X162364948Y-82082086D01*
X162368194Y-82087744D01*
X162399584Y-82142463D01*
X162399650Y-82142578D01*
X162399708Y-82142678D01*
X162399719Y-82142697D01*
X162400910Y-82144221D01*
X162403265Y-82147333D01*
X162407234Y-82152755D01*
X162411538Y-82160208D01*
X162427770Y-82180848D01*
X162427788Y-82180833D01*
X162428191Y-82181383D01*
X162449019Y-82207868D01*
X162449019Y-82207869D01*
X162454722Y-82215121D01*
X162454726Y-82215126D01*
X162454728Y-82215128D01*
X162454733Y-82215134D01*
X162457539Y-82218195D01*
X162457512Y-82218219D01*
X162466737Y-82228399D01*
X162467454Y-82229315D01*
X162493217Y-82294261D01*
X162479778Y-82362826D01*
X162457423Y-82393340D01*
X160785339Y-84065425D01*
X160724016Y-84098910D01*
X160721850Y-84099361D01*
X160566508Y-84130261D01*
X160566498Y-84130264D01*
X160420827Y-84190602D01*
X160420814Y-84190609D01*
X160289711Y-84278210D01*
X160289707Y-84278213D01*
X160178213Y-84389707D01*
X160178210Y-84389711D01*
X160090609Y-84520814D01*
X160090602Y-84520827D01*
X160030264Y-84666498D01*
X160030261Y-84666510D01*
X159999500Y-84821153D01*
X159999500Y-84978846D01*
X160030261Y-85133489D01*
X160030264Y-85133501D01*
X160090602Y-85279172D01*
X160090609Y-85279185D01*
X160178210Y-85410288D01*
X160178213Y-85410292D01*
X160289707Y-85521786D01*
X160289711Y-85521789D01*
X160420814Y-85609390D01*
X160420827Y-85609397D01*
X160566498Y-85669735D01*
X160566503Y-85669737D01*
X160721153Y-85700499D01*
X160721156Y-85700500D01*
X160721158Y-85700500D01*
X160878844Y-85700500D01*
X160878845Y-85700499D01*
X161033497Y-85669737D01*
X161179179Y-85609394D01*
X161310289Y-85521789D01*
X161421789Y-85410289D01*
X161509394Y-85279179D01*
X161569737Y-85133497D01*
X161598299Y-84989908D01*
X161600638Y-84978150D01*
X161633023Y-84916239D01*
X161634518Y-84914716D01*
X162124627Y-84424607D01*
X162185948Y-84391124D01*
X162255640Y-84396108D01*
X162311573Y-84437980D01*
X162329960Y-84473130D01*
X162351384Y-84537499D01*
X162351386Y-84537503D01*
X162429171Y-84658537D01*
X162429179Y-84658548D01*
X162474923Y-84711340D01*
X162474926Y-84711343D01*
X162474930Y-84711347D01*
X162583664Y-84805567D01*
X162583667Y-84805568D01*
X162583668Y-84805569D01*
X162617802Y-84821158D01*
X162714541Y-84865338D01*
X162781580Y-84885023D01*
X162781584Y-84885024D01*
X162924000Y-84905500D01*
X162924003Y-84905500D01*
X163475500Y-84905500D01*
X163542539Y-84925185D01*
X163588294Y-84977989D01*
X163599500Y-85029500D01*
X163599500Y-87375575D01*
X163579815Y-87442614D01*
X163527011Y-87488369D01*
X163457853Y-87498313D01*
X163428048Y-87490137D01*
X163380314Y-87470365D01*
X163283497Y-87430263D01*
X163283492Y-87430262D01*
X163283489Y-87430261D01*
X163128845Y-87399500D01*
X163128842Y-87399500D01*
X162971158Y-87399500D01*
X162971155Y-87399500D01*
X162816510Y-87430261D01*
X162816498Y-87430264D01*
X162670827Y-87490602D01*
X162670814Y-87490609D01*
X162539711Y-87578210D01*
X162539707Y-87578213D01*
X162428213Y-87689707D01*
X162428210Y-87689711D01*
X162340609Y-87820814D01*
X162340602Y-87820827D01*
X162280264Y-87966498D01*
X162280261Y-87966510D01*
X162249500Y-88121153D01*
X162249500Y-88278846D01*
X162280261Y-88433489D01*
X162280264Y-88433501D01*
X162340602Y-88579172D01*
X162340609Y-88579185D01*
X162428210Y-88710288D01*
X162428213Y-88710292D01*
X162505740Y-88787819D01*
X162539225Y-88849142D01*
X162534241Y-88918834D01*
X162492369Y-88974767D01*
X162426905Y-88999184D01*
X162418059Y-88999500D01*
X160986670Y-88999500D01*
X160986654Y-88999499D01*
X160979058Y-88999499D01*
X160820943Y-88999499D01*
X160744579Y-89019961D01*
X160668214Y-89040423D01*
X160668209Y-89040426D01*
X160531290Y-89119475D01*
X160531282Y-89119481D01*
X159381284Y-90269481D01*
X158162181Y-91488584D01*
X158100858Y-91522069D01*
X158031166Y-91517085D01*
X157975233Y-91475213D01*
X157950816Y-91409749D01*
X157950500Y-91400903D01*
X157950500Y-81839060D01*
X157950501Y-81839047D01*
X157950501Y-81670944D01*
X157937072Y-81620827D01*
X157909577Y-81518216D01*
X157893120Y-81489711D01*
X157830524Y-81381290D01*
X157830518Y-81381282D01*
X156671025Y-80221789D01*
X155363488Y-78914253D01*
X155330004Y-78852931D01*
X155334988Y-78783239D01*
X155376860Y-78727306D01*
X155407838Y-78710391D01*
X155452326Y-78693798D01*
X155452326Y-78693797D01*
X155452331Y-78693796D01*
X155567546Y-78607546D01*
X155653796Y-78492331D01*
X155702811Y-78360914D01*
X155744682Y-78304983D01*
X155785728Y-78289673D01*
X155810145Y-78280566D01*
X155810146Y-78280566D01*
X155824997Y-78283796D01*
G37*
%TD.AperFunction*%
%TA.AperFunction,Conductor*%
G36*
X170742539Y-85126185D02*
G01*
X170788294Y-85178989D01*
X170799500Y-85230500D01*
X170799500Y-85278846D01*
X170830261Y-85433489D01*
X170830264Y-85433501D01*
X170890602Y-85579172D01*
X170890609Y-85579185D01*
X170978210Y-85710288D01*
X170978213Y-85710292D01*
X171089706Y-85821785D01*
X171089709Y-85821787D01*
X171089711Y-85821789D01*
X171094386Y-85824913D01*
X171139193Y-85878521D01*
X171149500Y-85928017D01*
X171149500Y-89780680D01*
X171141649Y-89807414D01*
X171137019Y-89834898D01*
X171131940Y-89840480D01*
X171129815Y-89847719D01*
X171108757Y-89865965D01*
X171090003Y-89886582D01*
X171080844Y-89890152D01*
X171077011Y-89893474D01*
X171057554Y-89900465D01*
X171053637Y-89901513D01*
X170916503Y-89928791D01*
X170852255Y-89955402D01*
X170844377Y-89957511D01*
X170817265Y-89956856D01*
X170790304Y-89959755D01*
X170782856Y-89956026D01*
X170774528Y-89955826D01*
X170752073Y-89940617D01*
X170727825Y-89928479D01*
X170724642Y-89925407D01*
X170087590Y-89288355D01*
X170087588Y-89288352D01*
X169968717Y-89169481D01*
X169968709Y-89169475D01*
X169839235Y-89094724D01*
X169839231Y-89094722D01*
X169831785Y-89090423D01*
X169679057Y-89049499D01*
X169520943Y-89049499D01*
X169513347Y-89049499D01*
X169513331Y-89049500D01*
X168429766Y-89049500D01*
X168362727Y-89029815D01*
X168360875Y-89028602D01*
X168229185Y-88940609D01*
X168229172Y-88940602D01*
X168083501Y-88880264D01*
X168083489Y-88880261D01*
X167928845Y-88849500D01*
X167928842Y-88849500D01*
X167925500Y-88849500D01*
X167923812Y-88849004D01*
X167922782Y-88848903D01*
X167922801Y-88848707D01*
X167858461Y-88829815D01*
X167812706Y-88777011D01*
X167801500Y-88725500D01*
X167801500Y-86302422D01*
X167821185Y-86235383D01*
X167837819Y-86214741D01*
X168131617Y-85920943D01*
X168481520Y-85571041D01*
X168560577Y-85434110D01*
X168601501Y-85281382D01*
X168601501Y-85230500D01*
X168621186Y-85163461D01*
X168673990Y-85117706D01*
X168725501Y-85106500D01*
X170675500Y-85106500D01*
X170742539Y-85126185D01*
G37*
%TD.AperFunction*%
%TA.AperFunction,Conductor*%
G36*
X152551539Y-76120185D02*
G01*
X152597294Y-76172989D01*
X152608500Y-76224500D01*
X152608500Y-77683803D01*
X152588815Y-77750842D01*
X152572181Y-77771484D01*
X146981484Y-83362181D01*
X146920161Y-83395666D01*
X146893803Y-83398500D01*
X144899097Y-83398500D01*
X144832058Y-83378815D01*
X144811416Y-83362181D01*
X144261819Y-82812584D01*
X144228334Y-82751261D01*
X144225500Y-82724903D01*
X144225500Y-82474499D01*
X144245185Y-82407460D01*
X144297989Y-82361705D01*
X144349500Y-82350499D01*
X144522871Y-82350499D01*
X144522872Y-82350499D01*
X144582483Y-82344091D01*
X144717331Y-82293796D01*
X144832546Y-82207546D01*
X144918796Y-82092331D01*
X144969091Y-81957483D01*
X144975500Y-81897873D01*
X144975499Y-80435192D01*
X144995184Y-80368154D01*
X145047987Y-80322399D01*
X145052007Y-80320648D01*
X145079179Y-80309394D01*
X145210289Y-80221789D01*
X145295260Y-80136817D01*
X145356581Y-80103334D01*
X145382940Y-80100500D01*
X146813331Y-80100500D01*
X146813347Y-80100501D01*
X146820943Y-80100501D01*
X146979054Y-80100501D01*
X146979057Y-80100501D01*
X147131785Y-80059577D01*
X147197334Y-80021732D01*
X147268716Y-79980520D01*
X147380520Y-79868716D01*
X147380521Y-79868714D01*
X147612418Y-79636816D01*
X147673740Y-79603334D01*
X147700098Y-79600500D01*
X148313331Y-79600500D01*
X148313347Y-79600501D01*
X148320943Y-79600501D01*
X148479054Y-79600501D01*
X148479057Y-79600501D01*
X148631785Y-79559577D01*
X148631787Y-79559575D01*
X148631789Y-79559575D01*
X148631790Y-79559574D01*
X148691218Y-79525263D01*
X148768716Y-79480520D01*
X148880520Y-79368716D01*
X148880520Y-79368714D01*
X148890724Y-79358511D01*
X148890727Y-79358506D01*
X150914662Y-77334572D01*
X150975983Y-77301089D01*
X150978150Y-77300638D01*
X151036085Y-77289113D01*
X151133497Y-77269737D01*
X151279179Y-77209394D01*
X151410289Y-77121789D01*
X151521789Y-77010289D01*
X151609394Y-76879179D01*
X151669737Y-76733497D01*
X151700500Y-76578842D01*
X151700500Y-76421158D01*
X151700500Y-76421155D01*
X151700499Y-76421153D01*
X151695482Y-76395933D01*
X151669737Y-76266503D01*
X151669732Y-76266492D01*
X151667969Y-76260676D01*
X151670720Y-76259841D01*
X151664497Y-76202641D01*
X151695691Y-76140122D01*
X151755734Y-76104392D01*
X151786555Y-76100500D01*
X152484500Y-76100500D01*
X152551539Y-76120185D01*
G37*
%TD.AperFunction*%
%TA.AperFunction,Conductor*%
G36*
X173658995Y-82350859D02*
G01*
X173694648Y-82410947D01*
X173698500Y-82441614D01*
X173698500Y-83228385D01*
X173678815Y-83295424D01*
X173626011Y-83341179D01*
X173556853Y-83351123D01*
X173527051Y-83342947D01*
X173508505Y-83335265D01*
X173508489Y-83335261D01*
X173353845Y-83304500D01*
X173353842Y-83304500D01*
X173249291Y-83304500D01*
X173182252Y-83284815D01*
X173136497Y-83232011D01*
X173130956Y-83217552D01*
X173113113Y-83160565D01*
X173113110Y-83160558D01*
X173113110Y-83160557D01*
X173051013Y-83030767D01*
X173020356Y-82984886D01*
X173008900Y-82963454D01*
X172996007Y-82932326D01*
X172988955Y-82909080D01*
X172982381Y-82876030D01*
X172980000Y-82851844D01*
X172980000Y-82818149D01*
X172982383Y-82793958D01*
X173005425Y-82678119D01*
X173006071Y-82675070D01*
X173006664Y-82672466D01*
X173006664Y-82672439D01*
X173008104Y-82666059D01*
X173008134Y-82666003D01*
X173008139Y-82665985D01*
X173008144Y-82665986D01*
X173008566Y-82665226D01*
X173008587Y-82664467D01*
X173010449Y-82638426D01*
X173010449Y-82638418D01*
X173010762Y-82634039D01*
X173010764Y-82634032D01*
X173010849Y-82632835D01*
X173010848Y-82632834D01*
X173010934Y-82631637D01*
X173010935Y-82631638D01*
X173015730Y-82564596D01*
X173015730Y-82564595D01*
X173010280Y-82488401D01*
X173025131Y-82420132D01*
X173074536Y-82370726D01*
X173142809Y-82355874D01*
X173158156Y-82357941D01*
X173196156Y-82365500D01*
X173196158Y-82365500D01*
X173353844Y-82365500D01*
X173353845Y-82365499D01*
X173508497Y-82334737D01*
X173527048Y-82327052D01*
X173596516Y-82319584D01*
X173658995Y-82350859D01*
G37*
%TD.AperFunction*%
%TA.AperFunction,Conductor*%
G36*
X150034063Y-76106554D02*
G01*
X150055513Y-76107854D01*
X150066921Y-76116202D01*
X150080484Y-76120185D01*
X150094555Y-76136424D01*
X150111898Y-76149115D01*
X150116982Y-76162306D01*
X150126239Y-76172989D01*
X150129297Y-76194257D01*
X150137026Y-76214310D01*
X150135589Y-76238017D01*
X150136183Y-76242147D01*
X150135100Y-76246083D01*
X150134891Y-76249539D01*
X150132513Y-76261069D01*
X150130263Y-76266503D01*
X150099500Y-76421158D01*
X150099500Y-76421193D01*
X150099190Y-76422697D01*
X150082978Y-76453167D01*
X150066976Y-76483761D01*
X150066584Y-76483984D01*
X150066373Y-76484381D01*
X150065425Y-76485339D01*
X148187584Y-78363181D01*
X148126261Y-78396666D01*
X148099903Y-78399500D01*
X147486670Y-78399500D01*
X147486654Y-78399499D01*
X147479058Y-78399499D01*
X147320943Y-78399499D01*
X147244579Y-78419961D01*
X147168214Y-78440423D01*
X147168209Y-78440426D01*
X147031290Y-78519475D01*
X147031282Y-78519481D01*
X146687584Y-78863181D01*
X146626261Y-78896666D01*
X146599903Y-78899500D01*
X145125316Y-78899500D01*
X145120646Y-78898688D01*
X145118056Y-78899287D01*
X145099240Y-78894967D01*
X145083476Y-78892228D01*
X145079442Y-78890782D01*
X145079179Y-78890606D01*
X144933497Y-78830263D01*
X144882059Y-78820031D01*
X144873410Y-78816931D01*
X144852295Y-78801543D01*
X144829146Y-78789433D01*
X144824512Y-78781295D01*
X144816944Y-78775780D01*
X144807501Y-78751421D01*
X144794573Y-78728717D01*
X144795074Y-78719364D01*
X144791690Y-78710634D01*
X144796915Y-78685038D01*
X144798314Y-78658948D01*
X144804122Y-78649730D01*
X144805665Y-78642176D01*
X144814769Y-78632834D01*
X144827573Y-78612518D01*
X144832542Y-78607548D01*
X144832546Y-78607546D01*
X144918796Y-78492331D01*
X144969091Y-78357483D01*
X144975500Y-78297873D01*
X144975499Y-76502128D01*
X144969091Y-76442517D01*
X144967551Y-76438389D01*
X144918797Y-76307671D01*
X144918793Y-76307665D01*
X144912165Y-76298810D01*
X144887748Y-76233346D01*
X144902600Y-76165073D01*
X144952005Y-76115668D01*
X145011432Y-76100500D01*
X150013445Y-76100500D01*
X150034063Y-76106554D01*
G37*
%TD.AperFunction*%
%TA.AperFunction,Conductor*%
G36*
X161156406Y-76120185D02*
G01*
X161202161Y-76172989D01*
X161212105Y-76242147D01*
X161183080Y-76305703D01*
X161162252Y-76324819D01*
X161100207Y-76369896D01*
X160949890Y-76520213D01*
X160824951Y-76692179D01*
X160728444Y-76881585D01*
X160662753Y-77083760D01*
X160629500Y-77293713D01*
X160629500Y-77506286D01*
X160648781Y-77628025D01*
X160662754Y-77716243D01*
X160714198Y-77874572D01*
X160728444Y-77918414D01*
X160754323Y-77969205D01*
X160767219Y-78037875D01*
X160740942Y-78102615D01*
X160683836Y-78142872D01*
X160643838Y-78149500D01*
X159224337Y-78149500D01*
X159157298Y-78129815D01*
X159136656Y-78113181D01*
X158687819Y-77664344D01*
X158654334Y-77603021D01*
X158651500Y-77576663D01*
X158651500Y-76844185D01*
X158651500Y-76844183D01*
X158610577Y-76691456D01*
X158587588Y-76651637D01*
X158531524Y-76554530D01*
X158531521Y-76554526D01*
X158531520Y-76554524D01*
X158419716Y-76442720D01*
X158419715Y-76442719D01*
X158415385Y-76438389D01*
X158415374Y-76438379D01*
X158289176Y-76312181D01*
X158255691Y-76250858D01*
X158260675Y-76181166D01*
X158302547Y-76125233D01*
X158368011Y-76100816D01*
X158376857Y-76100500D01*
X161089367Y-76100500D01*
X161156406Y-76120185D01*
G37*
%TD.AperFunction*%
%TA.AperFunction,Conductor*%
G36*
X171325812Y-76120185D02*
G01*
X171371567Y-76172989D01*
X171381511Y-76242147D01*
X171352486Y-76305702D01*
X171343151Y-76316476D01*
X171284935Y-76383660D01*
X171284934Y-76383661D01*
X171284934Y-76383662D01*
X171230553Y-76502736D01*
X171225160Y-76514544D01*
X171205481Y-76581561D01*
X171205474Y-76581587D01*
X171202827Y-76600000D01*
X171188314Y-76700946D01*
X171184999Y-76724000D01*
X171184999Y-76724001D01*
X171185000Y-78025500D01*
X171165315Y-78092539D01*
X171112512Y-78138294D01*
X171061000Y-78149500D01*
X169136162Y-78149500D01*
X169069123Y-78129815D01*
X169023368Y-78077011D01*
X169013424Y-78007853D01*
X169025677Y-77969205D01*
X169036296Y-77948363D01*
X169051557Y-77918412D01*
X169117246Y-77716243D01*
X169150500Y-77506287D01*
X169150500Y-77293713D01*
X169117246Y-77083757D01*
X169051557Y-76881588D01*
X168955051Y-76692184D01*
X168955049Y-76692181D01*
X168955048Y-76692179D01*
X168830109Y-76520213D01*
X168679792Y-76369896D01*
X168617748Y-76324819D01*
X168575082Y-76269489D01*
X168569103Y-76199876D01*
X168601708Y-76138080D01*
X168662547Y-76103723D01*
X168690633Y-76100500D01*
X171258773Y-76100500D01*
X171325812Y-76120185D01*
G37*
%TD.AperFunction*%
%TA.AperFunction,Conductor*%
G36*
X166976406Y-76120185D02*
G01*
X167022161Y-76172989D01*
X167032105Y-76242147D01*
X167003080Y-76305703D01*
X166982252Y-76324819D01*
X166920207Y-76369896D01*
X166769890Y-76520213D01*
X166644949Y-76692182D01*
X166640484Y-76700946D01*
X166592509Y-76751742D01*
X166524688Y-76768536D01*
X166458553Y-76745998D01*
X166419516Y-76700946D01*
X166415050Y-76692182D01*
X166290109Y-76520213D01*
X166139792Y-76369896D01*
X166077748Y-76324819D01*
X166035082Y-76269489D01*
X166029103Y-76199876D01*
X166061708Y-76138080D01*
X166122547Y-76103723D01*
X166150633Y-76100500D01*
X166909367Y-76100500D01*
X166976406Y-76120185D01*
G37*
%TD.AperFunction*%
%TD*%
M02*
